<svg width="88" height="97" viewBox="0 0 88 97" fill="none" xmlns="http://www.w3.org/2000/svg">
<g clip-path="url(#clip0_1181_718)">
<path d="M71.2626 48.745C71.2667 52.1796 70.5921 55.5807 69.2779 58.7508C67.9637 61.9209 66.0361 64.7968 63.6072 67.2113C62.427 63.2834 60.0209 59.8419 56.7448 57.3958C53.4688 54.9497 49.4968 53.6289 45.4165 53.6289C41.3361 53.6289 37.3641 54.9497 34.0881 57.3958C30.8121 59.8419 28.406 63.2834 27.2257 67.2113C24.2027 64.1995 21.966 60.4836 20.7141 56.3937C19.4622 52.3037 19.2339 47.9662 20.0494 43.7661C20.8649 39.5661 22.6991 35.6336 25.389 32.3176C28.0789 29.0017 31.5414 26.405 35.469 24.758C39.3966 23.111 43.6679 22.4647 47.9035 22.8765C52.1392 23.2883 56.2082 24.7454 59.7494 27.1185C63.2905 29.4916 66.1942 32.7072 68.2027 36.4799C70.2112 40.2526 71.2622 44.4657 71.2626 48.745V48.745Z" stroke="black" stroke-width="2" stroke-miterlimit="10"/>
<path d="M63.6081 67.2113C58.7674 72.0322 52.2301 74.7367 45.4173 74.7367C38.6045 74.7367 32.0672 72.0322 27.2266 67.2113C28.4068 63.2834 30.8129 59.8418 34.0889 57.3957C37.365 54.9496 41.337 53.6289 45.4173 53.6289C49.4977 53.6289 53.4696 54.9496 56.7457 57.3957C60.0217 59.8418 62.4278 63.2834 63.6081 67.2113V67.2113Z" stroke="black" stroke-width="2" stroke-miterlimit="10"/>
<path d="M19.0781 24.7344L27.6049 29.8683" stroke="black" stroke-width="2" stroke-miterlimit="10"/>
<path d="M14.1577 15.8223C12.9893 15.8223 11.8471 16.1707 10.8755 16.8235C9.90402 17.4763 9.14684 18.4041 8.6997 19.4897C8.25256 20.5752 8.13557 21.7698 8.36352 22.9222C8.59147 24.0746 9.15414 25.1332 9.98035 25.964C10.8066 26.7949 11.8592 27.3607 13.0052 27.5899C14.1511 27.8191 15.339 27.7015 16.4184 27.2518C17.4979 26.8022 18.4206 26.0407 19.0698 25.0637C19.7189 24.0868 20.0654 22.9382 20.0654 21.7632C20.0654 20.1875 19.4429 18.6764 18.335 17.5623C17.2271 16.4482 15.7245 15.8223 14.1577 15.8223ZM14.0149 26.9367C7.12259 26.9367 7.15705 16.2233 14.0149 16.2233C20.8727 16.2233 20.8678 26.9367 14.0149 26.9367Z" stroke="black" stroke-width="2" stroke-miterlimit="10"/>
<path d="M11.5078 56.572L20.1035 51.7549" stroke="black" stroke-width="2" stroke-miterlimit="10"/>
<path d="M9.35506 54.2752C8.34325 53.6874 7.18083 53.4146 6.0148 53.4912C4.84877 53.5677 3.73151 53.9904 2.80434 54.7055C1.87717 55.4207 1.18172 56.3963 0.805965 57.509C0.430206 58.6217 0.391019 59.8214 0.693344 60.9565C0.99567 62.0916 1.62591 63.111 2.5044 63.8858C3.3829 64.6606 4.47016 65.1561 5.62868 65.3095C6.7872 65.4629 7.96494 65.2673 9.01294 64.7476C10.0609 64.2278 10.9321 63.4072 11.5163 62.3895C12.2994 61.0252 12.5117 59.404 12.1064 57.8824C11.7011 56.3607 10.7115 55.0632 9.35506 54.2752V54.2752ZM6.54893 65.0233C-0.343374 65.0233 -0.308913 54.3099 6.54893 54.3099C13.4068 54.3099 13.4019 65.0233 6.54893 65.0233Z" stroke="black" stroke-width="2" stroke-miterlimit="10"/>
<path d="M43.6016 84.7865L43.7591 74.7959" stroke="black" stroke-width="2" stroke-miterlimit="10"/>
<path d="M48.6179 87.6085C48.0337 86.5908 47.1625 85.7702 46.1145 85.2504C45.0665 84.7307 43.8888 84.5351 42.7302 84.6885C41.5717 84.8419 40.4845 85.3374 39.606 86.1122C38.7275 86.887 38.0972 87.9065 37.7949 89.0415C37.4926 90.1766 37.5318 91.3763 37.9075 92.489C38.2833 93.6017 38.9787 94.5773 39.9059 95.2925C40.8331 96.0077 41.9503 96.4303 43.1164 96.5069C44.2824 96.5835 45.4448 96.3106 46.4566 95.7228C47.813 94.9348 48.8027 93.6373 49.208 92.1157C49.6133 90.594 49.401 88.9728 48.6179 87.6085V87.6085ZM43.6948 96.1684C36.8025 96.1684 36.8369 85.45 43.6948 85.45C50.5526 85.45 50.5329 96.1684 43.6948 96.1684Z" stroke="black" stroke-width="2" stroke-miterlimit="10"/>
<path d="M76.6752 64.3399L68.1484 59.2109" stroke="black" stroke-width="2" stroke-miterlimit="10"/>
<path d="M81.603 61.3691C80.4346 61.3691 79.2924 61.7176 78.3208 62.3704C77.3493 63.0232 76.5921 63.951 76.145 65.0366C75.6979 66.1221 75.5809 67.3166 75.8088 68.4691C76.0368 69.6215 76.5995 70.68 77.4257 71.5109C78.2519 72.3417 79.3045 72.9075 80.4505 73.1368C81.5965 73.366 82.7843 73.2484 83.8638 72.7987C84.9432 72.3491 85.8659 71.5876 86.5151 70.6106C87.1642 69.6336 87.5107 68.485 87.5107 67.31C87.5107 65.7344 86.8882 64.2233 85.7803 63.1092C84.6724 61.9951 83.1698 61.3691 81.603 61.3691ZM81.9821 72.7559C75.0898 72.7559 75.1242 62.0424 81.9821 62.0424C88.8399 62.0424 88.8399 72.7559 81.9821 72.7559Z" stroke="black" stroke-width="2" stroke-miterlimit="10"/>
<path d="M74.2546 26.5703L65.5703 31.4319" stroke="black" stroke-width="2" stroke-miterlimit="10"/>
<path d="M82.2264 18.6246C81.2142 18.0376 80.0517 17.7656 78.8858 17.843C77.7198 17.9204 76.603 18.3437 75.6763 19.0594C74.7497 19.7752 74.0549 20.7512 73.6798 21.864C73.3047 22.9768 73.2663 24.1765 73.5692 25.3113C73.8722 26.4461 74.5029 27.4651 75.3818 28.2394C76.2606 29.0138 77.348 29.5086 78.5065 29.6614C79.6651 29.8142 80.8426 29.6181 81.8903 29.0979C82.938 28.5777 83.8088 27.7568 84.3925 26.7389C85.1753 25.374 85.3868 23.7524 84.9805 22.2307C84.5743 20.7089 83.5836 19.4118 82.2264 18.6246V18.6246ZM79.307 29.1895C72.4393 29.1895 72.4491 18.4761 79.307 18.4761C86.1648 18.4761 86.1599 29.1895 79.307 29.1895Z" stroke="black" stroke-width="2" stroke-miterlimit="10"/>
<path d="M46.7357 12.209L46.5781 22.1996" stroke="black" stroke-width="2" stroke-miterlimit="10"/>
<path d="M51.9472 3.44562C51.3635 2.42775 50.4928 1.6068 49.4451 1.0866C48.3974 0.566399 47.2198 0.370305 46.0613 0.523114C44.9028 0.675924 43.8153 1.17077 42.9365 1.94509C42.0576 2.7194 41.4269 3.73841 41.1239 4.87323C40.821 6.00806 40.8594 7.20773 41.2345 8.32055C41.6096 9.43338 42.3044 10.4094 43.231 11.1251C44.1577 11.8408 45.2745 12.2642 46.4404 12.3416C47.6063 12.4189 48.7689 12.1469 49.7811 11.5599C51.1383 10.7727 52.129 9.47561 52.5352 7.9539C52.9414 6.43218 52.73 4.81051 51.9472 3.44562V3.44562ZM46.842 11.5351C39.9497 11.5351 39.9842 0.821718 46.842 0.821718C53.6999 0.821718 53.6999 11.5549 46.842 11.5549V11.5351Z" stroke="black" stroke-width="2" stroke-miterlimit="10"/>
<path d="M45.2983 46.542C48.561 46.542 51.206 43.8821 51.206 40.6011C51.206 37.32 48.561 34.6602 45.2983 34.6602C42.0356 34.6602 39.3906 37.32 39.3906 40.6011C39.3906 43.8821 42.0356 46.542 45.2983 46.542Z" stroke="black" stroke-width="2" stroke-miterlimit="10"/>
<path d="M19.0156 18.7926C25.0543 12.9556 32.7381 9.13624 41.0168 7.85645" stroke="black" stroke-width="2" stroke-miterlimit="10"/>
<path d="M6.53078 53.6465C5.54842 44.4241 7.57712 35.1306 12.3105 27.1699" stroke="black" stroke-width="2" stroke-miterlimit="10"/>
<path d="M37.9204 89.4799C24.9826 86.1232 14.1518 77.2119 9.44531 65.043" stroke="black" stroke-width="2" stroke-miterlimit="10"/>
<path d="M80.1234 72.8799C74.6599 80.7377 66.657 86.4482 57.4772 89.0391C54.8385 89.7788 52.1315 90.2449 49.3984 90.4303" stroke="black" stroke-width="2" stroke-miterlimit="10"/>
<path d="M82.4688 28.9521C85.2 34.0726 86.8586 39.7017 87.3421 45.4919C87.8256 51.2821 87.1237 57.1105 85.2798 62.6172" stroke="black" stroke-width="2" stroke-miterlimit="10"/>
<path d="M52.5859 7.8418C61.1815 9.12518 69.1449 13.1353 75.3158 19.2879" stroke="black" stroke-width="2" stroke-miterlimit="10"/>
</g>
<defs>
<clipPath id="clip0_1181_718">
<rect width="88" height="97" fill="white"/>
</clipPath>
</defs>
</svg>
