<svg width="122" height="116" viewBox="0 0 122 116" fill="none" xmlns="http://www.w3.org/2000/svg">
<path d="M55.8494 100.82C53.7046 103.191 51.7762 105.31 49.872 107.453C49.7073 107.621 49.5054 107.749 49.2825 107.825C49.0597 107.901 48.8222 107.924 48.5891 107.891C33.6221 107.891 18.6699 107.891 3.73238 107.891C1.35504 107.891 0 106.516 0 104.164C0 73.1357 0 42.1072 0 11.0786C0 8.69477 1.32696 7.30789 3.66822 7.29181C8.07812 7.26367 12.452 7.29181 16.8418 7.26367C17.5634 7.26367 17.82 7.42447 17.7959 8.19228C17.7358 9.93291 17.7398 11.6776 17.7959 13.4182C17.82 14.1739 17.5674 14.383 16.8378 14.3669C14.9255 14.3227 13.0132 14.3428 11.1009 14.3669C8.47904 14.3669 7.04781 15.7779 7.04781 18.3868C7.04781 44.5325 7.04781 70.6795 7.04781 96.8279C7.04781 99.5253 8.47904 100.848 11.3495 100.848C25.6509 100.848 39.9497 100.848 54.2458 100.848L55.8494 100.82Z" fill="black"/>
<path d="M64.6415 112.98C64.7276 111.676 64.974 110.388 65.3751 109.145C66.1368 106.516 66.9787 103.919 67.7805 101.306C68.3413 99.6075 69.3042 98.0709 70.5868 96.8275C80.0721 87.2842 89.4291 77.6283 99.0106 68.2176C99.7603 67.478 100.121 67.5423 100.811 68.2498C104.234 71.7753 107.71 75.2525 111.19 78.7217C111.723 79.2484 111.952 79.5257 111.278 80.2212C101.924 89.6278 92.5856 99.0519 83.2633 108.493C81.9788 109.8 80.4337 110.821 78.7291 111.488C74.8845 112.976 70.9797 114.27 66.9065 114.957C65.2829 115.219 64.6134 114.588 64.6415 112.98Z" fill="black"/>
<path d="M86.036 67.4978V19.0133C86.036 15.5883 84.8013 14.3421 81.4257 14.3421C79.6898 14.3421 77.9499 14.31 76.214 14.3421C75.4924 14.3421 75.2117 14.1693 75.2358 13.3974C75.2879 11.6568 75.2919 9.91216 75.2358 8.17153C75.2117 7.36754 75.5485 7.25096 76.234 7.25498C80.6439 7.2791 85.0138 7.25498 89.4036 7.2791C91.5484 7.2791 92.8794 8.56145 93.0799 10.7001C93.1159 11.1021 93.0799 11.4799 93.0799 11.8739C93.0799 27.3882 93.0799 42.8997 93.0799 58.4087C93.1002 58.8146 93.037 59.2203 92.8942 59.6007C92.7514 59.9811 92.5322 60.3279 92.25 60.6196C90.2455 62.8065 88.265 65.0376 86.036 67.4978Z" fill="black"/>
<path d="M46.5115 35.9008H20.3007C18.3884 35.9008 17.9153 35.4305 17.8953 33.517C17.8953 32.5562 17.8672 31.5995 17.8953 30.6387C17.9474 29.5011 18.5969 28.9101 19.7234 28.8418C20.0281 28.8418 20.3327 28.8418 20.6374 28.8418H72.4217C74.6948 28.8418 75.1438 29.2961 75.1478 31.5914C75.1478 32.2025 75.1478 32.7974 75.1478 33.4205C75.1478 35.4023 74.6587 35.9008 72.7184 35.9048H46.5115V35.9008Z" fill="black"/>
<path d="M46.5599 64.6878H20.3371C18.3326 64.6878 17.8956 64.2296 17.8836 62.2196C17.8836 61.3513 17.8555 60.475 17.8836 59.6066C17.9437 58.2399 18.545 57.669 19.9281 57.5967C20.1887 57.5967 20.4493 57.5967 20.7299 57.5967H72.2376C74.7192 57.5967 75.1121 57.9987 75.1521 60.4428C75.2283 64.8084 75.108 64.7079 70.9427 64.6878C62.8325 64.6637 54.6862 64.6878 46.5599 64.6878Z" fill="black"/>
<path d="M46.4744 50.3011H20.4159C18.3472 50.3011 17.9143 49.8629 17.9062 47.7565C17.9062 46.8882 17.9062 46.0159 17.9062 45.1435C17.9343 43.9376 18.5998 43.3225 19.7744 43.2381C20.1232 43.21 20.472 43.2381 20.8168 43.2381H72.3124C74.7178 43.2381 75.1388 43.6763 75.1428 46.0239C75.1428 46.7234 75.1428 47.4188 75.1428 48.1183C75.1227 49.7263 74.5695 50.3052 72.9418 50.3052C65.4263 50.3052 57.9081 50.3052 50.3872 50.3052L46.4744 50.3011Z" fill="black"/>
<path d="M46.4514 79.0995H20.5051C18.3162 79.0995 17.9033 78.6975 17.8953 76.5187C17.8953 75.6906 17.8672 74.8625 17.8953 74.0344C17.9514 72.6596 18.5367 72.1008 19.9278 72.0244C20.1884 72.0244 20.449 72.0244 20.7296 72.0244H72.3455C74.7229 72.0244 75.1157 72.4545 75.1518 74.8384C75.228 79.2081 75.1037 79.1196 70.9584 79.1036C62.7921 79.0714 54.6217 79.0995 46.4514 79.0995Z" fill="black"/>
<path d="M68.6862 86.641C66.6924 88.8439 64.6999 91.0468 62.7088 93.2497C62.3921 93.5995 61.9912 93.499 61.6143 93.499C47.7512 93.499 33.8894 93.499 20.0289 93.499C18.4614 93.499 17.9362 92.9482 17.8962 91.3604C17.8721 90.4036 17.8641 89.4428 17.8962 88.4861C17.9443 87.0228 18.5135 86.4761 20.0009 86.4199H20.4018C36.2213 86.4199 52.0382 86.4199 67.8523 86.4199C68.0809 86.4239 68.3575 86.3073 68.6862 86.641Z" fill="black"/>
<path d="M32.1237 10.8408C32.1237 13.1482 32.1437 15.4557 32.1237 17.7631C32.1037 20.0705 30.6804 21.4775 28.3753 21.5016C27.2888 21.5016 26.2024 21.5016 25.12 21.5016C23.0513 21.4695 21.5119 20.0947 21.4758 18.0405C21.4143 13.2166 21.4143 8.38324 21.4758 3.54056C21.4747 3.08045 21.5643 2.62468 21.7394 2.1994C21.9145 1.77411 22.1717 1.3877 22.4961 1.06236C22.8206 0.737017 23.206 0.479152 23.6301 0.303567C24.0542 0.127983 24.5088 0.0381343 24.9676 0.0391944C26.1703 -0.0130648 27.4011 -0.0130648 28.6158 0.0391944C29.0842 0.0411866 29.5475 0.136909 29.9786 0.320742C30.4096 0.504576 30.7997 0.772825 31.126 1.10978C31.4524 1.44673 31.7083 1.8456 31.879 2.28301C32.0496 2.72043 32.1314 3.1876 32.1197 3.65714C32.1518 6.049 32.1237 8.4449 32.1237 10.8408Z" fill="black"/>
<path d="M71.5392 10.8897C71.5392 13.1971 71.5392 15.5005 71.5392 17.808C71.5392 20.1154 70.128 21.4701 67.899 21.5023C66.8112 21.5023 65.7248 21.5023 64.6397 21.5023C62.4588 21.4782 60.9634 20.1878 60.9274 17.9929C60.8432 13.2052 60.8512 8.41339 60.9274 3.62966C60.9594 1.39056 62.4668 0.0679979 64.7239 0.0117188C65.7221 0.0117188 66.7284 0.0117188 67.7186 0.0117188C70.124 0.0438783 71.5272 1.44684 71.5432 3.82263C71.5592 6.19841 71.5392 8.53802 71.5392 10.8897Z" fill="black"/>
<path d="M111.543 57.7656C113.119 57.8259 114.35 58.039 115.384 58.6742C118.515 60.5675 120.768 63.1684 121.538 66.8587C121.736 67.6226 121.73 68.4256 121.519 69.1861C121.307 69.9465 120.899 70.6373 120.335 71.1882C119.417 72.1168 118.527 73.0696 117.641 74.0303C117.24 74.4846 116.928 74.6092 116.402 74.0826C112.722 70.3762 109.02 66.6913 105.297 63.0278C104.941 62.674 104.74 62.4288 105.245 62.0027C106.508 60.9414 107.707 59.7997 108.978 58.7425C109.683 58.1105 110.597 57.7625 111.543 57.7656Z" fill="black"/>
<path d="M46.3391 14.3504C43.2121 14.3504 40.089 14.3183 36.962 14.3504C36.0921 14.3504 35.7313 14.1936 35.7593 13.2248C35.8435 11.5324 35.8114 9.832 35.7593 8.13559C35.7593 7.46024 35.9357 7.24316 36.6253 7.24316C43.2241 7.26728 49.8202 7.26728 56.4137 7.24316C56.9389 7.24316 57.2155 7.3316 57.1874 7.94263C57.1514 9.8119 57.1393 11.6852 57.1874 13.5705C57.2115 14.3745 56.7585 14.3424 56.2052 14.3424C52.9339 14.3504 49.6345 14.3504 46.3391 14.3504Z" fill="black"/>
</svg>
