<svg width="757" height="734" viewBox="0 0 757 734" fill="none" xmlns="http://www.w3.org/2000/svg">
<path d="M284.828 192.958C292.527 185.962 301.125 180.027 310.395 175.309L310.668 146.431L357.279 136.323L369.469 162.475C379.872 162.939 390.165 164.801 400.072 168.01L420.651 147.811L460.749 173.641L450.885 200.739C457.879 208.439 463.812 217.04 468.529 226.312L497.4 226.585L507.504 273.208L481.376 285.482C480.872 295.845 478.995 306.096 475.794 315.965L495.972 336.549L470.165 376.658L443.074 366.791C435.375 373.787 426.777 379.722 417.507 384.439L417.234 413.318L370.607 423.458L358.433 397.322C348.032 396.842 337.741 394.98 327.83 391.787L307.284 411.986L267.185 386.156L277.049 359.074C270.055 351.374 264.122 342.773 259.406 333.501L230.535 333.228L220.43 286.589L246.574 274.395C247.019 263.989 248.853 253.688 252.027 243.768L231.898 223.216L257.722 183.107L284.828 192.958ZM310.86 245.677C304.096 256.187 300.6 268.467 300.813 280.964C301.027 293.462 304.94 305.615 312.059 315.888C319.178 326.16 329.182 334.09 340.807 338.676C352.432 343.261 365.155 344.295 377.367 341.647C389.58 338.999 400.733 332.789 409.416 323.801C418.1 314.812 423.923 303.45 426.151 291.151C428.379 278.852 426.91 266.169 421.931 254.705C416.952 243.241 408.687 233.511 398.179 226.746C384.101 217.66 366.99 214.541 350.612 218.073C334.234 221.605 319.93 231.5 310.844 245.581V245.677H310.86Z" fill="#AE8DFF"/>
<path d="M310.779 245.677L311.341 244.827C311.758 244.25 312.319 243.415 313.073 242.356L314.34 240.543C314.853 239.886 315.463 239.244 316.088 238.506L318.141 236.147C318.948 235.275 319.799 234.444 320.692 233.661C325.111 229.415 330.159 225.876 335.657 223.168C342.922 219.518 350.825 217.306 358.93 216.654L362.346 216.414H365.843C367.037 216.387 368.232 216.441 369.42 216.574L373.045 217.007L374.889 217.248L376.718 217.649L380.423 218.483C381.674 218.804 382.877 219.269 384.128 219.655C385.391 220.022 386.629 220.472 387.833 221.002C390.334 222.015 392.762 223.2 395.099 224.548C396.27 225.238 397.505 225.88 398.66 226.65L402.092 229.088C402.654 229.521 403.263 229.89 403.808 230.356L405.412 231.768C406.471 232.73 407.594 233.645 408.62 234.671C412.822 238.923 416.456 243.701 419.431 248.886C420.153 250.218 420.778 251.63 421.484 253.009C421.805 253.715 422.19 254.389 422.462 255.127L423.28 257.309C424.4 260.266 425.322 263.294 426.039 266.374C426.665 269.552 427.083 272.768 427.29 276L427.467 278.439V283.348C427.464 284.175 427.405 285 427.29 285.819C427.082 287.423 426.873 289.028 426.681 290.76L425.574 295.654C422.194 308.949 414.569 320.779 403.857 329.345L399.847 332.378L395.5 335.041L394.441 335.683L393.319 336.228L391.105 337.303L388.892 338.378L386.614 339.228C380.665 341.567 374.376 342.921 367.992 343.239L365.65 343.4H363.325C361.789 343.428 360.252 343.374 358.721 343.239C352.773 342.688 346.923 341.361 341.319 339.293C339.955 338.763 338.656 338.121 337.341 337.544L335.384 336.677C334.742 336.373 334.149 335.971 333.523 335.635L329.898 333.613C328.712 332.875 327.637 332.009 326.514 331.223C324.314 329.663 322.229 327.948 320.275 326.089C319.299 325.204 318.378 324.261 317.516 323.265C316.65 322.286 315.72 321.388 314.918 320.377L312.624 317.345L311.501 315.853L310.523 314.248C309.881 313.205 309.256 312.163 308.614 311.136C307.972 310.109 307.539 308.986 307.01 307.927C306.481 306.868 305.967 305.825 305.502 304.718C305.037 303.611 304.716 302.568 304.315 301.51C301.552 293.86 300.294 285.748 300.61 277.62C300.807 271.495 301.938 265.436 303.963 259.652C304.396 258.48 304.668 257.309 305.166 256.298L306.465 253.459C306.882 252.576 307.219 251.758 307.604 251.036C307.988 250.314 308.389 249.688 308.726 249.111L310.33 246.528C310.683 245.95 310.876 245.661 310.876 245.661C310.876 245.661 310.731 245.982 310.41 246.576L308.951 249.207L307.86 251.132C307.491 251.854 307.17 252.737 306.769 253.571L305.518 256.411C305.071 257.508 304.68 258.627 304.348 259.764C302.386 265.526 301.305 271.552 301.14 277.637C300.87 285.696 302.161 293.732 304.941 301.301L306.128 304.51C306.593 305.553 307.122 306.579 307.636 307.718C308.102 308.821 308.638 309.892 309.24 310.927C309.881 311.986 310.491 312.981 311.132 314.008L312.095 315.612L313.217 317.088C313.971 318.083 314.821 319.077 315.495 320.088C316.29 321.093 317.153 322.041 318.077 322.928C318.929 323.908 319.839 324.835 320.804 325.704C322.746 327.537 324.815 329.231 326.995 330.773C328.102 331.559 329.177 332.378 330.348 333.132L333.956 335.201C334.566 335.538 335.159 335.923 335.801 336.228L337.758 336.822C339.057 337.383 340.34 338.025 341.671 338.538C344.408 339.537 347.204 340.362 350.044 341.009C352.953 341.682 355.907 342.149 358.882 342.405C360.39 342.533 361.913 342.501 363.437 342.565H365.731L368.04 342.405C371.149 342.195 374.24 341.782 377.295 341.17C380.392 340.449 383.436 339.516 386.406 338.378L388.667 337.528L390.849 336.485L393.046 335.41L394.137 334.88L395.179 334.255L399.365 331.672L403.311 328.688C413.907 320.229 421.44 308.529 424.756 295.381C425.125 293.776 425.478 292.172 425.847 290.568C426.131 288.975 426.329 287.369 426.44 285.755C426.563 284.953 426.622 284.143 426.617 283.332V278.519L426.44 276.112C426.145 269.808 424.811 263.596 422.494 257.726L421.692 255.56C421.436 254.838 421.051 254.165 420.73 253.475C420.04 252.111 419.431 250.715 418.709 249.4C415.773 244.275 412.194 239.546 408.059 235.329C407.032 234.319 405.926 233.42 404.851 232.473L403.247 231.062C402.702 230.612 402.108 230.227 401.547 229.81C400.424 228.992 399.285 228.206 398.179 227.372C397.041 226.618 395.863 225.927 394.65 225.302C392.343 223.953 389.942 222.773 387.464 221.772C386.276 221.243 385.055 220.792 383.807 220.425C382.572 220.04 381.385 219.574 380.15 219.253L376.493 218.435L374.681 218.018L372.852 217.777L369.259 217.328C368.088 217.152 366.886 217.216 365.731 217.152C364.577 217.08 363.42 217.08 362.266 217.152L358.882 217.376C350.842 217.987 342.996 220.138 335.769 223.714C330.292 226.374 325.251 229.852 320.82 234.03C319.922 234.8 319.072 235.634 318.254 236.468L316.185 238.795C315.543 239.517 314.918 240.158 314.42 240.8L313.105 242.581L311.325 245.004C311.154 245.237 310.972 245.462 310.779 245.677Z" fill="#263238"/>
<path d="M284.831 192.958L283.099 192.348L277.934 190.503L257.564 183.22H257.724L231.965 223.329V223.072L252.174 243.624L252.271 243.72V243.865C249.109 253.74 247.265 263.99 246.785 274.348V274.524H246.641L220.512 286.734L220.673 286.397C223.881 301.077 227.249 316.671 230.81 333.036L230.489 332.763L259.36 333.02H259.569L259.665 333.212C264.382 342.46 270.316 351.034 277.308 358.706L277.453 358.866V359.075L267.604 386.157L267.46 385.723L307.559 411.538H307.078L327.64 391.371L327.817 391.194H328.041C337.911 394.374 348.159 396.23 358.516 396.713H358.757L358.853 396.938C362.67 405.136 366.873 414.057 371.043 423.089L370.594 422.849L417.205 412.741L416.884 413.142C416.884 404.045 417.06 394.211 417.157 384.263V384.023L417.381 383.91C426.607 379.176 435.166 373.242 442.836 366.262L443.028 366.102H443.269L470.344 375.969L469.862 376.129L495.686 336.02V336.533L475.508 315.965L475.332 315.789V315.548C478.524 305.679 480.385 295.427 480.866 285.065V284.824L481.09 284.712L507.234 272.535L507.01 272.984C503.567 257.047 500.204 241.501 496.921 226.345L497.29 226.65L468.419 226.361H468.178L468.082 226.153C463.365 216.905 457.431 208.331 450.439 200.659L450.294 200.499V200.29L460.159 173.176L460.303 173.577L420.204 147.731H420.605L400.01 167.914L399.882 168.042H399.706C389.839 164.844 379.591 162.977 369.231 162.491H369.07V162.347L357.009 136.404L357.281 136.532L310.638 146.576L310.783 146.399C310.654 157.951 310.558 167.4 310.462 175.278V175.358C303.482 178.906 296.873 183.141 290.733 188.001C288.712 189.605 287.253 190.872 286.274 191.707L284.831 192.958C284.831 192.958 286.627 191.161 290.653 187.904C296.759 182.966 303.353 178.666 310.334 175.069V175.198C310.334 167.352 310.478 157.903 310.558 146.319V146.175H310.703L357.313 136.003H357.506V136.179C361.291 144.201 365.285 152.801 369.728 162.299L369.487 162.154C379.915 162.621 390.234 164.477 400.171 167.673H399.866L420.348 147.506L420.525 147.33L420.749 147.458L460.848 173.272L461.089 173.417L460.993 173.69C457.785 182.482 454.577 191.482 451.144 200.771L451.064 200.402C458.104 208.133 464.086 216.765 468.852 226.072L468.515 225.864L497.386 226.137H497.691V226.441C500.974 241.608 504.347 257.149 507.812 273.064V273.385L507.523 273.514L481.395 285.707L481.619 285.354C481.149 295.797 479.282 306.13 476.07 316.078L475.973 315.66L496.167 336.245L496.392 336.469L496.215 336.758L470.392 376.867L470.215 377.14L469.911 377.028L442.82 367.161H443.253C435.528 374.198 426.897 380.171 417.59 384.921L417.814 384.552C417.718 394.451 417.622 404.286 417.542 413.431V413.752L417.205 413.832L370.594 423.923L370.273 424.004L370.129 423.699L357.955 397.564L358.292 397.788C347.857 397.305 337.533 395.433 327.592 392.221L327.993 392.125L307.527 412.228L307.302 412.436L307.046 412.276L266.947 386.429L266.69 386.269L266.786 385.98C270.235 376.562 273.603 367.289 276.667 358.898V359.283C269.642 351.551 263.676 342.919 258.927 333.613L259.232 333.79L230.361 333.501H230.104V333.244C226.575 316.88 223.207 301.285 220.031 286.605V286.381L220.24 286.268L246.336 274.091L246.192 274.332C246.692 263.941 248.575 253.662 251.789 243.769V244.009L231.628 223.409L231.499 223.297L231.596 223.152L257.483 183.043V182.947H257.564L277.693 190.359L282.858 192.268L284.831 192.958Z" fill="#263238"/>
<path d="M498.83 435.747L405.961 495.109H710.407V435.747H498.83Z" fill="#455A64"/>
<path d="M670.547 399.088V405.056V531.753L757 465.413L670.547 399.088Z" fill="#455A64"/>
<path d="M557.5 462.765H560.002V471.589H565.52V473.626H557.5V462.765Z" fill="black"/>
<path d="M574.085 471.284H569.048L568.086 473.594H565.52L570.331 462.765H572.818L577.629 473.594H574.999L574.085 471.284ZM573.283 469.375L571.566 465.171L569.85 469.31L573.283 469.375Z" fill="black"/>
<path d="M578.465 468.829V462.765H580.967V468.733C580.967 470.803 581.865 471.653 583.389 471.653C584.913 471.653 585.795 470.803 585.795 468.733V462.765H588.281V468.829C588.281 470.131 587.764 471.38 586.843 472.301C585.923 473.221 584.675 473.739 583.373 473.739C582.071 473.739 580.823 473.221 579.902 472.301C578.982 471.38 578.465 470.131 578.465 468.829Z" fill="black"/>
<path d="M600.678 462.765V473.594H598.625L593.22 467.016V473.594H590.75V462.765H592.787L598.16 469.343V462.765H600.678Z" fill="black"/>
<path d="M602.555 468.188C602.627 467.022 603.039 465.903 603.741 464.97C604.443 464.036 605.403 463.329 606.503 462.937C607.603 462.544 608.794 462.482 609.928 462.76C611.062 463.037 612.09 463.642 612.884 464.498L611.28 465.99C610.828 465.431 610.213 465.025 609.52 464.829C608.828 464.634 608.092 464.658 607.413 464.898C606.735 465.138 606.148 465.583 605.732 466.17C605.317 466.758 605.094 467.46 605.094 468.18C605.094 468.9 605.317 469.602 605.732 470.19C606.148 470.777 606.735 471.222 607.413 471.462C608.092 471.702 608.828 471.726 609.52 471.531C610.213 471.335 610.828 470.93 611.28 470.37L612.884 471.846C612.095 472.708 611.07 473.319 609.936 473.602C608.802 473.886 607.61 473.828 606.508 473.438C605.407 473.048 604.444 472.342 603.741 471.409C603.038 470.475 602.625 469.355 602.555 468.188Z" fill="black"/>
<path d="M624.499 462.765V473.594H621.997V469.166H617.073V473.594H614.57V462.765H617.073V467.032H621.997V462.765H624.499Z" fill="black"/>
<path d="M124.033 287.584C133.56 408.441 234.93 503.853 358.209 503.853V444.491C311.668 444.453 267.044 425.948 234.129 393.036C201.213 360.124 182.696 315.494 182.641 268.941C182.641 268.941 185.287 238.298 187.132 229.073L128.7 218.099C126.567 228.575 123.183 276.931 124.033 287.584Z" fill="#AE8DFF"/>
<path d="M199.418 389.59L198.408 393.103V393.199L199.787 394.9L202.129 392.991L203.733 394.916L195.36 401.783L192.393 398.157C190.564 395.911 190.58 393.568 192.393 392.028C192.94 391.544 193.624 391.241 194.351 391.161C195.077 391.08 195.811 391.226 196.451 391.579L197.606 387.504L199.418 389.59ZM194.109 396.97L195.408 398.574L198.327 396.184L197.028 394.579C196.066 393.392 195.023 393.248 194.109 393.986C193.195 394.724 193.147 395.782 194.109 396.97Z" fill="#263238"/>
<path d="M190.195 380.621L191.799 379.418L196.771 386.156L188.077 392.574L183.266 385.996L184.87 384.793L188.238 389.381L190.131 387.985L187.147 383.942L188.751 382.787L191.735 386.83L193.739 385.338L190.195 380.621Z" fill="#263238"/>
<path d="M175.984 375.327L187.581 373.193L188.96 375.247L182.545 385.146L181.037 382.9L185.624 375.857L177.348 377.381L175.984 375.327Z" fill="#263238"/>
<path d="M175.409 374.38L174.078 372.246L183.269 366.519L184.6 368.636L175.409 374.38Z" fill="#263238"/>
<path d="M176 358.16L177.748 357.149L181.951 364.401L172.551 369.84L168.445 362.765L170.194 361.754L173.049 366.679L175.086 365.492L172.551 361.144L174.252 360.166L176.77 364.513L178.935 363.262L176 358.16Z" fill="#263238"/>
<path d="M159.723 346.047L170.95 344.298L172.185 346.688L166.732 352.143L174.383 351.004L175.586 353.379L167.566 361.4L166.395 359.09L172.057 353.459L164.037 354.63L162.995 352.576L168.689 346.881L160.669 348.116L159.723 346.047Z" fill="#263238"/>
<path d="M223.573 214.376L106.918 182.369L144.659 273.449L223.573 214.376Z" fill="#455A64"/>
<path d="M193.838 212.114C206.239 178.366 228.681 149.231 258.141 128.632C287.602 108.033 322.667 96.9595 358.612 96.9037V37.542C257.066 37.542 170.372 102.327 137.668 192.749L193.838 212.114Z" fill="#455A64"/>
<path d="M202.016 131.206L206.074 128.43C209.009 126.425 212.217 126.826 214.093 129.537C215.97 132.249 215.136 135.377 212.217 137.367L208.159 140.142L202.016 131.206ZM210.918 135.746C211.301 135.525 211.637 135.231 211.906 134.879C212.176 134.528 212.374 134.127 212.488 133.7C212.603 133.272 212.633 132.826 212.575 132.387C212.517 131.949 212.374 131.525 212.153 131.142C211.931 130.758 211.637 130.422 211.286 130.153C210.935 129.883 210.534 129.685 210.107 129.57C209.679 129.456 209.233 129.426 208.795 129.484C208.356 129.542 207.933 129.685 207.549 129.906C207.404 129.993 207.265 130.09 207.132 130.195L205.24 131.495L209.025 137.03L210.918 135.746Z" fill="black"/>
<path d="M224.457 126.552L225.596 128.157L218.667 132.874L212.652 124.001L219.405 119.381L220.544 120.985L215.844 124.194L217.159 126.135L221.233 123.44L222.324 125.044L218.186 127.884L219.597 129.954L224.457 126.552Z" fill="black"/>
<path d="M231.097 116.092C232.461 118.098 231.819 120.36 229.493 121.98L227.697 123.216L229.301 125.686L227.248 127.098L221.137 118.146L225.002 115.499C227.392 113.814 229.734 114.087 231.097 116.092ZM229.012 117.536C228.338 116.541 227.312 116.413 226.045 117.263L224.441 118.419L226.558 121.531L228.162 120.376C229.429 119.509 229.67 118.499 229.012 117.536Z" fill="black"/>
<path d="M230.297 111.857L232.366 110.445L237.322 117.697L241.797 114.633L242.952 116.237L236.392 120.713L230.297 111.857Z" fill="black"/>
<path d="M240.399 111.552C239.68 110.624 239.253 109.503 239.171 108.332C239.089 107.16 239.356 105.991 239.938 104.972C240.52 103.952 241.392 103.128 242.442 102.604C243.493 102.08 244.675 101.88 245.84 102.028C247.004 102.176 248.098 102.666 248.984 103.437C249.87 104.207 250.508 105.223 250.817 106.355C251.125 107.488 251.091 108.687 250.719 109.801C250.346 110.914 249.652 111.892 248.724 112.611L248.419 112.835C247.833 113.282 247.164 113.609 246.452 113.797C245.739 113.985 244.996 114.031 244.266 113.931C243.536 113.831 242.833 113.588 242.196 113.215C241.56 112.843 241.004 112.348 240.56 111.76C240.501 111.695 240.448 111.625 240.399 111.552ZM248.098 106.289C247.706 105.754 247.166 105.346 246.544 105.115C245.923 104.884 245.247 104.841 244.601 104.991C243.955 105.141 243.367 105.478 242.911 105.96C242.454 106.441 242.15 107.046 242.034 107.7C241.919 108.353 241.998 109.026 242.262 109.634C242.525 110.243 242.962 110.761 243.517 111.124C244.073 111.486 244.723 111.677 245.386 111.674C246.049 111.67 246.697 111.471 247.248 111.103C247.988 110.634 248.511 109.891 248.704 109.037C248.896 108.183 248.742 107.287 248.275 106.546C248.225 106.455 248.166 106.368 248.098 106.289Z" fill="black"/>
<path d="M256.554 102.439L258.703 105.648L256.634 107.06L254.468 103.851L247.074 100.466L249.272 98.9738L254.356 101.284L254.035 95.6688L256.072 94.2891L256.554 102.439Z" fill="black"/>
<path d="M392.103 140.431L314.824 55.8642L413.435 0L392.103 140.431Z" fill="#E0E0E0"/>
<path d="M498.733 153.442C482.257 134.577 461.935 119.456 439.134 109.095C416.333 98.7348 391.579 93.3745 366.535 93.3745V34.0127C400.042 34.0135 433.16 41.1834 463.669 55.0414C494.177 68.8993 521.368 89.1245 543.419 114.36L498.733 153.442Z" fill="#E0E0E0"/>
<path d="M431.942 73.7051L428.734 72.4698L429.456 70.5605L438.278 73.9297L437.54 75.8389L434.332 74.6036L431.124 82.8019L428.799 81.9035L431.942 73.7051Z" fill="#263238"/>
<path d="M444.167 85.6095L443.461 87.5027L435.602 84.4865L439.483 74.3789L447.118 77.3149L446.396 79.192L441.087 77.1545L440.237 79.3525L444.937 81.1494L444.247 82.9623L439.547 81.1654L438.649 83.5078L444.167 85.6095Z" fill="#263238"/>
<path d="M444.902 86.9086L446.362 85.4486C447.087 86.4988 448.109 87.3088 449.297 87.775C450.693 88.3044 451.43 88.0638 451.671 87.4381C452.393 85.5449 446.009 84.5983 447.453 80.8441C448.11 79.1274 450.051 78.229 452.922 79.2397C454.174 79.6865 455.282 80.4624 456.13 81.4858L454.735 82.9939C454.076 82.1633 453.214 81.5168 452.232 81.1168C450.853 80.5874 450.115 80.9083 449.875 81.534C449.153 83.4111 455.521 84.3737 454.109 88.0798C453.451 89.6842 451.511 90.6789 448.607 89.5719C447.127 89.0882 445.833 88.1579 444.902 86.9086Z" fill="#263238"/>
<path d="M459.661 84.2774L456.453 83.042L457.175 81.1328L465.981 84.502L465.259 86.4112L462.051 85.1758L458.843 93.3742L456.453 92.4918L459.661 84.2774Z" fill="#263238"/>
<path d="M574.808 377.172L521.075 351.967C532.014 328.624 542.055 294.964 542.055 268.941C542.134 241.422 535.686 214.276 523.241 189.733C521.075 185.45 513.216 171.219 511.051 167.641L561.832 136.901C564.944 142.067 573.541 157.758 576.171 162.908C592.868 195.751 601.516 232.096 601.401 268.941C601.401 303.74 589.484 345.871 574.808 377.172Z" fill="#AE8DFF"/>
<path d="M490.152 194.723L591.217 128.205L497.915 96.4229L490.152 194.723Z" fill="#AE8DFF"/>
<path d="M565.984 205.713L567.315 210.446C568.278 213.863 566.882 216.863 563.738 217.665C563.008 217.867 562.245 217.915 561.495 217.806C560.746 217.697 560.027 217.434 559.385 217.033C558.743 216.632 558.191 216.101 557.764 215.476C557.337 214.85 557.045 214.142 556.906 213.398L555.574 208.585L565.984 205.713ZM558.846 212.708C558.887 213.161 559.018 213.601 559.233 214.001C559.448 214.402 559.741 214.755 560.096 215.039C560.451 215.323 560.859 215.532 561.297 215.654C561.734 215.776 562.192 215.808 562.643 215.749C563.093 215.689 563.527 215.539 563.918 215.308C564.309 215.076 564.649 214.768 564.918 214.401C565.186 214.034 565.378 213.617 565.481 213.175C565.585 212.732 565.597 212.273 565.519 211.826C565.483 211.504 565.396 211.19 565.262 210.895L564.637 208.681L558.221 210.51L558.846 212.708Z" fill="#263238"/>
<path d="M562.696 228.559L560.739 228.992L558.895 220.826L569.433 218.436L571.245 226.457L569.288 226.907L568.037 221.355L565.743 221.885L566.85 226.698L564.941 227.131L563.835 222.222L561.397 222.783L562.696 228.559Z" fill="#263238"/>
<path d="M573.542 239.035L562.074 236.323L561.641 233.901L571.473 227.483L571.938 230.147L564.913 234.735L573.109 236.676L573.542 239.035Z" fill="#263238"/>
<path d="M566.112 249.769L564.107 250.042L562.984 241.731L573.715 240.287L574.805 248.309L572.816 248.566L572.047 242.934L569.721 243.255L570.395 248.229L568.47 248.485L567.796 243.512L565.31 243.849L566.112 249.769Z" fill="#263238"/>
<path d="M575.146 250.892L575.386 253.394L566.645 254.213L567.142 259.619L565.121 259.812L564.367 251.918L575.146 250.892Z" fill="#263238"/>
<path d="M570.527 259.957C571.694 259.83 572.873 260.052 573.914 260.596C574.955 261.14 575.811 261.98 576.374 263.011C576.938 264.041 577.182 265.216 577.078 266.386C576.974 267.556 576.525 268.668 575.788 269.583C575.051 270.498 574.059 271.173 572.939 271.524C571.818 271.874 570.618 271.884 569.492 271.553C568.365 271.221 567.362 270.563 566.61 269.661C565.858 268.759 565.39 267.654 565.266 266.486C565.258 266.374 565.258 266.262 565.266 266.149C565.183 265.42 565.246 264.682 565.45 263.976C565.654 263.271 565.995 262.614 566.455 262.041C566.914 261.469 567.481 260.992 568.125 260.64C568.769 260.288 569.476 260.066 570.206 259.989L570.527 259.957ZM570.992 269.246C571.656 269.198 572.291 268.954 572.818 268.547C573.345 268.139 573.74 267.585 573.953 266.954C574.166 266.323 574.189 265.643 574.017 264.999C573.846 264.355 573.489 263.776 572.99 263.334C572.491 262.893 571.873 262.608 571.213 262.517C570.554 262.425 569.882 262.53 569.281 262.818C568.681 263.107 568.179 263.566 567.838 264.139C567.498 264.711 567.334 265.372 567.367 266.037C567.4 266.914 567.778 267.742 568.417 268.343C569.056 268.943 569.906 269.268 570.783 269.246H570.992Z" fill="#263238"/>
<path d="M572.675 283.188C570.253 283.188 568.745 281.391 568.745 278.503V276.321H565.762V273.818H576.572V278.503C576.588 281.359 575.145 283.172 572.675 283.188ZM572.675 280.653C573.862 280.653 574.551 279.867 574.551 278.343V276.305H570.798V278.359C570.798 279.883 571.488 280.669 572.659 280.669L572.675 280.653Z" fill="#263238"/>
<path d="M366.535 503.853H177.156V444.491H366.535C393.547 444.587 420.212 438.405 444.428 426.433C468.644 414.461 489.749 397.026 506.078 375.503L553.218 411.569C531.371 440.361 503.136 463.683 470.74 479.698C438.343 495.712 402.671 503.981 366.535 503.853Z" fill="#AE8DFF"/>
<path d="M476.066 360.615L576.762 427.662L569.545 329.346L476.066 360.615Z" fill="#AE8DFF"/>
<g opacity="0.3">
<path opacity="0.3" d="M576.748 427.662L569.53 329.346L476.052 360.615L503.319 378.825C486.934 399.391 466.109 415.981 442.404 427.354C418.699 438.726 392.728 444.585 366.438 444.491H177.172V503.853H366.534C402.61 503.982 438.223 495.738 470.574 479.77C502.926 463.801 531.133 440.544 552.977 411.826L576.748 427.662Z" fill="black"/>
</g>
<path d="M474.657 440.239C476.101 442.164 475.556 444.459 473.262 446.191L471.514 447.507L473.31 449.882L471.305 451.39L464.793 442.71L468.53 439.886C470.888 438.186 473.198 438.298 474.657 440.239ZM472.62 441.844C471.914 440.897 470.872 440.801 469.653 441.715L468.049 442.951L470.311 445.951L471.915 444.731C473.134 443.721 473.342 442.71 472.62 441.763V441.844Z" fill="#263238"/>
<path d="M473.711 436.036L475.716 434.528L480.993 441.539L485.324 438.331L486.559 439.935L480.223 444.748L473.711 436.036Z" fill="#263238"/>
<path d="M492.061 432.859L488.051 435.892L488.677 438.314L486.623 439.919L483.961 428.367L485.934 426.875L496.327 432.619L494.226 434.223L492.061 432.859ZM490.28 431.816L486.415 429.538L487.538 433.886L490.28 431.816Z" fill="#263238"/>
<path d="M498.638 417.249L505.15 425.897L503.546 427.148L495.269 425.143L499.231 430.389L497.258 431.881L490.746 423.233L492.35 421.982L500.594 423.987L496.649 418.741L498.638 417.249Z" fill="#263238"/>
<path d="M161.391 407.831V540.513L246.737 474.172L161.391 407.831Z" fill="#E0E0E0"/>
<path d="M177.172 444.491H0V503.853H177.172V444.491Z" fill="#E0E0E0"/>
<path d="M75.9304 472.167C75.9304 474.574 74.1179 476.082 71.2148 476.082H69.0334V479.066H66.5312V468.236H71.2148C74.1179 468.236 75.9304 469.744 75.9304 472.167ZM73.3801 472.167C73.3801 470.98 72.6102 470.274 71.0865 470.274H69.0334V474.044H71.0865C72.6102 474.044 73.3801 473.338 73.3801 472.167Z" fill="#263238"/>
<path d="M77.6935 468.236H80.1956V477.028H85.633V479.066H77.6133L77.6935 468.236Z" fill="#263238"/>
<path d="M94.2643 476.756H89.2279L88.2816 479.066H85.6992L90.5111 468.236H92.9972L97.809 479.066H95.2267L94.2643 476.756ZM93.4784 474.798L91.7621 470.643L90.0299 474.798H93.4784Z" fill="#263238"/>
<path d="M108.909 468.236V479.066H106.792L101.386 472.488V479.066H98.9805V468.236H101.05L106.423 474.814V468.236H108.909Z" fill="#263238"/>
<path d="M345.38 685.5L340.825 733.92L314.648 731.978L319.123 683.446L345.38 685.5Z" fill="#AE8DFF"/>
<path d="M328.138 731.145C327.93 731.145 328.876 720.508 330.287 707.448C331.699 694.388 332.982 683.816 333.207 683.848C333.431 683.88 332.469 694.469 331.073 707.528C329.678 720.588 328.282 731.161 328.138 731.145Z" fill="#263238"/>
<path d="M341.13 730.583L314.969 728.562L314.648 731.979L340.825 733.92L341.13 730.583Z" fill="#263238"/>
<path d="M316.074 716.465C316.293 716.083 316.575 715.742 316.908 715.454C318.884 713.38 321.302 711.779 323.982 710.769C326.797 709.716 329.876 709.596 332.765 710.428C335.654 711.26 338.198 713 340.021 715.39C340.696 716.32 341.236 717.341 341.625 718.422C341.801 718.806 341.899 719.22 341.914 719.642C341.234 718.277 340.44 716.973 339.54 715.743C337.196 712.903 333.822 711.109 330.157 710.753C326.488 710.51 322.847 711.536 319.844 713.657C317.389 715.246 316.186 716.577 316.074 716.465Z" fill="#263238"/>
<g opacity="0.3">
<path opacity="0.3" d="M317.857 697.26L317.359 702.602L343.6 704.431L343.985 700.42L317.857 697.26Z" fill="black"/>
</g>
<path d="M450.612 682.115L453.756 730.647L427.595 732.877L424.355 684.249L450.612 682.115Z" fill="#AE8DFF"/>
<path d="M440.716 729.893C440.492 729.893 439.77 719.272 439.113 706.164C438.455 693.057 438.054 682.404 438.262 682.388C438.471 682.372 439.225 692.993 439.866 706.116C440.508 719.24 440.941 729.893 440.716 729.893Z" fill="#263238"/>
<path d="M453.531 727.311L427.371 729.444L427.596 732.878L453.756 730.648L453.531 727.311Z" fill="#263238"/>
<path d="M426.57 717.331C426.731 716.943 426.93 716.572 427.164 716.224C427.807 715.276 428.543 714.394 429.361 713.593C430.558 712.371 431.925 711.328 433.419 710.496C436.024 709.026 439.031 708.43 441.999 708.797C444.967 709.164 447.739 710.473 449.908 712.534C450.727 713.344 451.434 714.262 452.009 715.261C452.234 715.616 452.397 716.007 452.49 716.416C451.598 715.176 450.606 714.012 449.523 712.935C446.753 710.512 443.139 709.278 439.466 709.501C435.807 709.841 432.376 711.427 429.746 713.994C427.661 715.919 426.683 717.411 426.57 717.331Z" fill="#263238"/>
<g opacity="0.3">
<path opacity="0.3" d="M425.27 698.094L425.638 703.437L451.831 701.094L451.574 697.067L425.27 698.094Z" fill="black"/>
</g>
<path d="M376.542 253.026L340.517 258.401L338.817 227.565C338.817 227.565 336.219 227.453 334.005 214.297C331.792 201.141 327.445 178.84 327.445 178.84C334.694 174.352 342.98 171.815 351.498 171.475C360.016 171.135 368.478 173.003 376.061 176.899L378.323 178.07L376.542 253.026Z" fill="#FFBE9D"/>
<path d="M376.59 194.98C376.814 194.851 385.54 190.792 386.695 199.793C387.85 208.793 378.21 208.216 378.162 207.943C378.114 207.67 376.59 194.98 376.59 194.98Z" fill="#FFBE9D"/>
<path d="M332.449 200.21C332.193 200.21 323.531 199.327 325.28 208.232C327.028 217.136 336.01 213.542 335.978 213.269C335.946 212.997 332.449 200.21 332.449 200.21Z" fill="#FFBE9D"/>
<path d="M379.463 193.488C379.287 201.269 380.201 205.199 379.736 210.446C378.982 218.756 375.87 225.543 369.069 230.741C362.269 235.939 352.18 237.496 344.898 233.1C339.845 230.051 336.012 226.313 334.44 220.746C332.868 215.179 330.575 205.248 329.628 199.536C327.864 189.22 325.57 179.594 325.57 179.594L355.147 169.342L374.09 176.385L379.463 193.488Z" fill="#263238"/>
<path d="M354.395 237.784C358.049 238.22 361.729 237.219 364.66 234.993C364.532 234.768 362.398 235.827 359.591 236.597C356.784 237.367 354.395 237.544 354.395 237.784Z" fill="#263238"/>
<path d="M380.072 206.563C379.703 198.686 378.853 189.733 378.789 181.374C378.789 178.166 379.174 173.641 378.388 170.593C377.788 167.488 376.613 164.522 374.923 161.849C373.706 160.233 372.141 158.91 370.346 157.977C368.55 157.044 366.568 156.525 364.546 156.459C362.501 156.42 360.473 156.83 358.605 157.662C356.737 158.494 355.074 159.726 353.735 161.272C352.301 159.863 350.492 158.897 348.524 158.488C346.557 158.078 344.513 158.242 342.636 158.961C340.793 159.712 339.214 160.992 338.098 162.64C336.982 164.287 336.379 166.229 336.364 168.219C335.077 167.427 333.579 167.049 332.07 167.135C330.562 167.221 329.116 167.767 327.928 168.7C326.796 169.659 326.007 170.961 325.68 172.408C325.353 173.855 325.506 175.369 326.115 176.722C325.078 177.063 324.138 177.647 323.374 178.426C322.609 179.204 322.042 180.155 321.72 181.198C321.437 182.251 321.427 183.359 321.691 184.418C321.954 185.476 322.484 186.45 323.228 187.246C324.976 189.124 327.703 189.862 329.644 191.61C330.702 192.62 331.436 193.922 331.753 195.351C332.07 196.779 331.956 198.269 331.424 199.632" fill="#263238"/>
<path d="M333.254 185.45C333.357 185.743 333.521 186.01 333.735 186.236C334.312 186.909 335.022 187.455 335.82 187.84C337.106 188.476 338.564 188.679 339.974 188.418C340.89 188.243 341.761 187.888 342.538 187.373C343.315 186.858 343.981 186.193 344.498 185.418H343.824C344.227 186.419 344.881 187.3 345.724 187.975C346.567 188.649 347.57 189.095 348.636 189.268C349.833 189.503 351.07 189.448 352.242 189.107C353.413 188.767 354.487 188.151 355.372 187.311C356.96 185.855 358.034 183.924 358.436 181.808L357.714 182C358.678 182.979 359.857 183.718 361.158 184.158C362.459 184.598 363.845 184.727 365.205 184.535C366.275 184.385 367.306 184.024 368.236 183.474C369.167 182.923 369.979 182.193 370.626 181.326C371.488 180.23 372.042 178.923 372.23 177.54C372.342 177.06 372.342 176.56 372.23 176.08C372.208 176.558 372.132 177.031 372.005 177.492C371.757 178.779 371.208 179.989 370.401 181.022C369.136 182.597 367.306 183.616 365.301 183.861C364.064 184.016 362.809 183.881 361.634 183.466C360.459 183.051 359.397 182.368 358.532 181.471L357.971 180.877L357.81 181.679C357.406 183.616 356.414 185.38 354.971 186.733C354.19 187.481 353.24 188.031 352.201 188.335C351.163 188.64 350.067 188.69 349.005 188.482C348.081 188.349 347.206 187.985 346.46 187.424C345.715 186.863 345.122 186.124 344.738 185.273L344.482 184.535L344.064 185.209C343.148 186.632 341.707 187.635 340.055 188.001C338.748 188.291 337.382 188.156 336.157 187.616C335.048 187.105 334.059 186.367 333.254 185.45Z" fill="#455A64"/>
<path d="M332.739 181.856C332.721 180.651 332.985 179.459 333.509 178.374C334.122 177.196 335.134 176.274 336.364 175.775C337.129 175.457 337.952 175.301 338.78 175.318C339.609 175.335 340.425 175.523 341.176 175.871L342.01 176.272L341.786 175.406C341.572 174.54 341.534 173.64 341.673 172.759C341.832 171.791 342.186 170.866 342.712 170.038C343.239 169.211 343.928 168.499 344.737 167.946C346.128 167.052 347.773 166.641 349.421 166.775C350.981 166.968 352.478 167.511 353.799 168.363C353.539 168.025 353.225 167.732 352.869 167.497C351.88 166.82 350.74 166.396 349.549 166.261C347.745 166.037 345.918 166.433 344.368 167.384C343.446 167.981 342.66 168.766 342.061 169.686C341.461 170.606 341.061 171.642 340.888 172.727C340.727 173.715 340.776 174.727 341.032 175.695L341.625 175.214C340.767 174.832 339.838 174.635 338.899 174.635C337.959 174.635 337.03 174.832 336.172 175.214C334.762 175.78 333.616 176.857 332.964 178.23C332.562 179.086 332.385 180.03 332.451 180.973C332.547 181.535 332.691 181.872 332.739 181.856Z" fill="#455A64"/>
<path d="M352.194 178.984C352.306 178.984 352.082 178.47 352.018 177.732C351.954 176.768 352.13 175.804 352.531 174.925C352.996 173.898 353.573 172.823 353.91 172.245C354.017 172.101 354.163 171.992 354.332 171.932C354.501 171.872 354.683 171.864 354.857 171.908C354.846 171.833 354.816 171.761 354.767 171.702C354.719 171.642 354.656 171.597 354.584 171.571C354.39 171.505 354.182 171.496 353.983 171.544C353.784 171.592 353.603 171.696 353.461 171.844C353.127 172.214 352.831 172.617 352.579 173.047C352.254 173.556 351.975 174.093 351.745 174.652C351.267 175.651 351.148 176.784 351.408 177.861C351.665 178.695 352.194 179.048 352.194 178.984Z" fill="#455A64"/>
<path d="M368.41 164.721C368.507 164.721 368.314 164.015 367.576 163.117C367.131 162.613 366.584 162.209 365.972 161.929C365.147 161.641 364.248 161.641 363.422 161.929C361.992 162.421 360.8 163.436 360.086 164.769C359.541 165.7 359.316 166.373 359.412 166.373C359.867 165.999 360.267 165.561 360.599 165.074C361.354 163.991 362.423 163.168 363.663 162.715C364.275 162.552 364.919 162.55 365.532 162.71C366.145 162.871 366.706 163.188 367.159 163.63C367.913 164.256 368.234 164.785 368.41 164.721Z" fill="#455A64"/>
<path d="M369.837 203.659C371.066 201.769 371.845 199.623 372.115 197.386C372.662 195.214 372.69 192.944 372.195 190.76C371.938 190.76 371.922 193.712 371.265 197.177C370.607 200.643 369.629 203.659 369.837 203.659Z" fill="#455A64"/>
<path d="M366.133 206.547C366.984 205.193 367.531 203.672 367.737 202.087C368.208 200.567 368.34 198.962 368.122 197.386C367.509 198.836 367.099 200.364 366.903 201.926C366.421 203.42 366.162 204.977 366.133 206.547Z" fill="#455A64"/>
<path d="M340.582 211.312C340.577 214.068 341.386 216.764 342.908 219.062C344.216 221.521 346.196 223.558 348.618 224.934C346.798 222.975 345.141 220.872 343.662 218.644C342.438 216.288 341.408 213.836 340.582 211.312Z" fill="#455A64"/>
<path d="M335.417 205.392C334.951 207.822 335.152 210.333 335.999 212.659C336.847 214.984 338.308 217.036 340.229 218.596C338.912 216.621 337.774 214.532 336.829 212.355C336.151 210.08 335.679 207.75 335.417 205.392Z" fill="#455A64"/>
<path d="M338.945 252.159L339.266 244.426L376.927 236.469L378.258 242.838L338.945 252.159Z" fill="white"/>
<path d="M221.04 345.71C221.04 345.71 219.18 346.673 220.463 348.037C221.746 349.401 238.892 364.61 241.218 366.102C244.182 367.499 247.277 368.601 250.457 369.391L254.98 368.557L257.562 357.679L260.77 352.417L259.952 351.213L262.952 339.55C262.952 339.55 260.353 338.491 259.15 340.368C257.466 343.015 255.14 347.315 255.14 347.315C255.14 347.315 250.425 348.021 248.725 345.983C247.024 343.946 237.032 327.084 235.893 326.731C234.754 326.378 232.846 326.731 233.824 329.474C234.802 332.218 241.186 341.716 240.945 342.309C240.705 342.903 239.726 343.545 239.342 343.079C238.957 342.614 228.691 329.169 227.071 328.929C225.451 328.688 224.12 330.084 225.692 332.667C227.264 335.25 235.572 344.732 235.187 345.341C234.802 345.951 233.712 345.213 233.712 345.213C233.712 345.213 224.232 335.314 222.901 335.491C221.57 335.667 221.185 337.095 221.939 338.395C222.693 339.694 232.284 348.919 232.461 349.625C232.637 350.331 232.172 352.016 231.386 351.358C230.6 350.7 221.794 345.085 221.04 345.71Z" fill="#FFBE9D"/>
<path d="M317.872 444.315L315.883 573.756L311.488 708.122L347.946 710.641L360.216 573.692L374.219 476.483L377.298 476.29L404.87 577.478L422.049 707.432C424.182 706.838 456.453 704.223 456.453 704.223L433.998 441.315L430.261 419.447L334.28 421.581L317.872 444.315Z" fill="#263238"/>
<path d="M425.786 374.541L423.011 299.681L418.392 247.988H386.923L378.903 240.143L338.531 247.988L334.794 259.219C334.794 259.219 302.378 269.535 300.582 272.679C300.582 272.679 311.954 317.602 317.311 342.726C320.984 359.989 324.85 377.685 324.85 377.685L314.617 460.487C314.2 460.487 376.978 457.727 376.978 457.727L437.607 451.166L425.786 374.541Z" fill="#455A64"/>
<path d="M458.57 224.516C458.57 224.516 449.331 225.238 448.786 225.238C448.24 225.238 438.809 226.12 438.809 226.12C438.979 225.425 439.301 224.776 439.754 224.22C440.206 223.665 440.776 223.218 441.423 222.912C443.621 221.933 447.839 220.409 448.224 219.703C448.609 218.997 449.62 217.842 448.753 216.638C447.887 215.435 431.944 199.247 431.399 198.381C430.853 197.514 429.971 195.862 431.399 195.541C432.826 195.22 434.607 196.744 435.777 197.723C436.948 198.702 443.172 203.948 443.797 203.627C444.423 203.306 443.91 202.745 443.91 202.745C443.91 202.745 433.372 191.899 433.259 191.514C433.147 191.129 431.912 187.984 434.863 188.514C436.307 188.755 447.246 199.953 447.695 199.504C448.144 199.055 438.504 186.669 439.386 185.738C440.269 184.808 441.247 183.765 442.995 185.738C444.744 187.712 452.266 197.755 452.827 197.867C453.068 197.899 453.311 197.834 453.503 197.687C453.696 197.539 453.822 197.322 453.854 197.081C453.886 196.944 453.886 196.801 453.854 196.664C453.645 195.91 449.17 188.113 449.17 187.23C449.17 186.348 450.037 186.139 450.919 186.027C451.801 185.915 461.184 199.504 461.184 199.504C461.184 199.504 468.434 211.168 469.204 212.515C470.037 214.432 470.734 216.405 471.289 218.419L458.57 224.516Z" fill="#FFBE9D"/>
<path d="M456.258 225.046L462.546 249.336L448.11 254.727L417.09 247.988V293.857L421.485 305.778C421.485 305.778 486.445 274.444 490.759 271.043C498.779 264.626 486.028 242.389 486.028 242.389L474.239 217.008L456.258 225.046Z" fill="#455A64"/>
<path d="M300.565 272.728L293.299 287.279L274.95 348.053L254.451 353.524L250.602 372.263C250.602 372.263 282.681 379.787 288.615 377.204C298.704 372.824 315.562 330.982 315.562 330.982L313.284 295.221L300.565 272.728Z" fill="#455A64"/>
<path d="M482.915 259.267C479.935 256.75 476.711 254.536 473.292 252.657C469.766 251.024 466.085 249.75 462.305 248.855C463.464 248.777 464.628 248.885 465.753 249.175C471.291 250.278 476.415 252.894 480.558 256.732C481.483 257.436 482.281 258.293 482.915 259.267Z" fill="#263238"/>
<path d="M476.807 249.208C474.216 248.772 471.591 248.568 468.964 248.598C466.361 248.907 463.79 249.444 461.281 250.202C463.591 248.779 466.215 247.946 468.922 247.775C471.63 247.604 474.337 248.102 476.807 249.224V249.208Z" fill="#263238"/>
<path d="M386.92 247.988C386.376 248.456 385.785 248.864 385.156 249.208C384.578 249.593 383.856 250.026 382.99 250.491L380.023 252.095C377.419 253.364 374.741 254.473 372.003 255.417C368.659 256.525 365.26 257.457 361.818 258.208C355.525 259.594 349.122 260.416 342.683 260.663C340.738 260.761 338.789 260.761 336.845 260.663C336.125 260.674 335.405 260.62 334.695 260.502C335.404 260.371 336.124 260.312 336.845 260.326C338.208 260.326 340.197 260.182 342.651 260.021C349.034 259.602 355.376 258.707 361.626 257.342C365.283 256.524 368.715 255.545 371.795 254.55C374.543 253.678 377.223 252.605 379.814 251.341C380.937 250.86 381.932 250.363 382.798 249.93C383.664 249.496 384.402 249.127 385.027 248.774C385.63 248.45 386.264 248.186 386.92 247.988Z" fill="#263238"/>
<path d="M396.433 377.798C395.686 378.074 394.912 378.273 394.124 378.392C392.616 378.728 390.435 379.113 387.708 379.482C373.437 381.329 358.94 380.237 345.107 376.274C342.46 375.504 340.295 374.798 338.932 374.236C338.174 373.99 337.439 373.678 336.734 373.306C337.519 373.432 338.288 373.642 339.028 373.931C340.488 374.397 342.621 375.006 345.267 375.712C359.074 379.356 373.43 380.444 387.628 378.921C390.354 378.632 392.552 378.343 394.043 378.103C394.831 377.937 395.63 377.835 396.433 377.798Z" fill="#263238"/>
<path d="M273.812 353.604C273.588 353.604 275.849 345.149 278.849 334.865C281.848 324.581 284.446 316.302 284.671 316.367C284.896 316.431 282.65 324.806 279.651 335.106C276.651 345.406 274.037 353.668 273.812 353.604Z" fill="#263238"/>
<path d="M372.246 402.056C372.486 402.056 372.903 411.393 373.192 422.912C373.481 434.432 373.513 443.769 373.288 443.769C373.064 443.769 372.63 434.448 372.358 422.912C372.085 411.377 372.021 402.072 372.246 402.056Z" fill="#263238"/>
<path d="M395.246 473.033C395.246 473.258 387.13 474.942 377.026 476.803C366.921 478.664 358.708 480.012 358.66 479.739C358.612 479.467 366.776 477.83 376.881 475.969C386.986 474.108 395.198 472.808 395.246 473.033Z" fill="#263238"/>
<path d="M432.266 571.237C428.736 571.429 425.225 571.879 421.76 572.585C418.373 573.568 415.056 574.779 411.832 576.21C412.602 575.488 413.485 574.897 414.446 574.462C418.977 572.1 424.013 570.872 429.123 570.884C430.183 570.816 431.247 570.935 432.266 571.237Z" fill="#263238"/>
<path d="M344.447 577.478C344.447 577.718 341.431 577.109 337.742 577.285C334.053 577.462 331.15 578.296 331.086 578.055C335.291 576.116 340.09 575.909 344.447 577.478Z" fill="#263238"/>
<path d="M324.831 377.733C324.712 377.472 324.625 377.197 324.574 376.915C324.414 376.273 324.205 375.487 323.981 374.525C323.467 372.327 322.762 369.342 321.928 365.717C320.227 358.16 317.934 347.924 315.399 336.613C312.865 325.302 310.588 315.051 308.903 307.494C308.085 303.868 307.412 300.868 306.931 298.67L306.417 296.263C306.334 295.987 306.291 295.701 306.289 295.413C306.418 295.673 306.515 295.948 306.578 296.231C306.754 296.857 306.979 297.643 307.235 298.59C307.797 300.659 308.567 303.66 309.465 307.366C311.293 314.778 313.667 325.014 316.201 336.421C318.736 347.828 321.013 358.112 322.505 365.588C323.243 369.246 323.852 372.246 324.285 374.444C324.462 375.423 324.622 376.225 324.734 376.867C324.814 377.149 324.846 377.441 324.831 377.733Z" fill="#263238"/>
<path d="M421.453 273.915C421.488 274.069 421.514 274.224 421.533 274.38L421.646 275.728C421.758 276.899 421.902 278.648 422.031 280.91C422.351 285.402 422.704 291.932 423.105 299.986C423.907 316.03 424.854 338.363 425.768 362.958C425.912 366.92 426.057 370.835 426.201 374.525C429.409 396.168 432.376 415.324 434.461 429.074C435.456 435.908 436.274 441.427 436.835 445.294C437.092 447.155 437.284 448.615 437.429 449.674C437.451 450.056 437.499 450.437 437.573 450.813C437.605 450.939 437.605 451.072 437.573 451.198C437.524 451.08 437.491 450.956 437.477 450.829C437.432 450.445 437.362 450.065 437.268 449.69C437.092 448.647 436.835 447.187 436.514 445.342C435.889 441.476 435.007 435.973 433.9 429.154C431.734 415.356 428.751 396.216 425.367 374.605C425.238 370.899 425.094 367.001 424.934 363.038C423.041 314.361 421.63 278.471 421.453 273.915Z" fill="#263238"/>
<g opacity="0.3">
<path opacity="0.3" d="M382.749 250.812C367.576 256.94 352.595 260.711 336.234 260.727C338.516 262.96 341.531 264.289 344.719 264.465C347.918 264.642 351.125 264.367 354.247 263.647C362.138 262.137 369.886 259.958 377.408 257.133C380.086 256.17 383.102 253.395 382.749 250.812Z" fill="black"/>
</g>
<g opacity="0.3">
<path opacity="0.3" d="M307.188 298.028C307.444 303.868 306.787 310.863 308.022 316.623C309.079 322.391 311.584 327.796 315.303 332.33C312.497 321.324 310.107 309.259 307.188 298.028Z" fill="black"/>
</g>
<g opacity="0.3">
<path opacity="0.3" d="M354.247 386.124L353.75 386.044C358.658 391.627 366.806 392.205 374.248 392.253C381.691 392.301 389.743 391.836 394.731 386.317C381.363 388.997 367.589 388.931 354.247 386.124Z" fill="black"/>
</g>
<path d="M83.3562 631.609C85.297 637.642 92.4346 641.829 98.3371 639.631C101.689 638.364 104.111 635.444 106.18 632.524C108.022 629.455 110.351 626.707 113.077 624.389C115.092 622.867 117.605 622.157 120.119 622.4L92.996 612.196C81.3834 619.191 81.4154 625.609 83.3562 631.609Z" fill="#AE8DFF"/>
<path d="M83.3562 631.609C85.297 637.642 92.4346 641.829 98.3371 639.631C101.689 638.364 104.111 635.444 106.18 632.524C108.022 629.455 110.351 626.707 113.077 624.389C115.092 622.867 117.605 622.157 120.119 622.4L92.996 612.196C81.3834 619.191 81.4154 625.609 83.3562 631.609Z" fill="#AE8DFF"/>
<g opacity="0.3">
<path opacity="0.3" d="M83.3562 631.609C85.297 637.642 92.4346 641.829 98.3371 639.631C101.689 638.364 104.111 635.444 106.18 632.524C108.022 629.455 110.351 626.707 113.077 624.389C115.092 622.867 117.605 622.157 120.119 622.4L92.996 612.196C81.3834 619.191 81.4154 625.609 83.3562 631.609Z" fill="black"/>
</g>
<path d="M218.392 638.781C215.622 636.109 212.223 634.179 208.51 633.168C204.797 632.157 200.889 632.098 197.148 632.996C193.406 633.895 189.951 635.722 187.101 638.309C184.251 640.896 182.099 644.159 180.844 647.797L183.554 658.306C183.979 656.486 184.797 654.78 185.949 653.309C187.102 651.837 188.562 650.635 190.227 649.787C193.772 648.183 197.894 649.129 201.455 650.445C205.015 651.76 208.672 653.541 212.554 653.782C216.435 654.022 220.782 652.177 221.937 648.487C223.092 644.797 221.007 641.3 218.392 638.781Z" fill="#AE8DFF"/>
<g opacity="0.3">
<path opacity="0.3" d="M218.392 638.781C215.622 636.109 212.223 634.179 208.51 633.168C204.797 632.157 200.889 632.098 197.148 632.996C193.406 633.895 189.951 635.722 187.101 638.309C184.251 640.896 182.099 644.159 180.844 647.797L183.554 658.306C183.979 656.486 184.797 654.78 185.949 653.309C187.102 651.837 188.562 650.635 190.227 649.787C193.772 648.183 197.894 649.129 201.455 650.445C205.015 651.76 208.672 653.541 212.554 653.782C216.435 654.022 220.782 652.177 221.937 648.487C223.092 644.797 221.007 641.3 218.392 638.781Z" fill="black"/>
</g>
<path d="M152.92 673.836C147.242 668.445 147.531 659.06 150.354 651.76C153.177 644.46 159.368 638.925 166.265 635.171C173 631.634 180.448 629.668 188.051 629.421C195.654 629.174 203.214 630.651 210.165 633.743C206.763 633.892 203.449 634.872 200.514 636.598C197.578 638.323 195.109 640.742 193.323 643.642C190.212 648.808 189.522 655.081 186.908 660.536C184.01 666.685 178.868 671.491 172.537 673.965C166.207 676.439 159.169 676.392 152.872 673.836" fill="#AE8DFF"/>
<path d="M150.192 641.444C143.905 634.032 143.07 622.192 144.001 612.453C144.931 602.714 147.209 593.04 145.605 583.43C144.707 577.75 142.493 572.312 141.755 566.6C141.017 560.889 142.06 554.439 146.567 550.749C151.652 546.513 159.655 547.54 164.948 551.503C170.241 555.466 173.305 561.723 175.534 567.948C180.459 581.633 182.271 596.826 178.229 610.768C174.187 624.71 164.692 637.224 150.785 641.444" fill="#AE8DFF"/>
<path d="M147.176 702.298C147.144 702.015 147.144 701.73 147.176 701.447V698.993C147.261 695.986 147.518 692.986 147.946 690.008C148.506 685.582 149.31 681.19 150.352 676.852C151.651 671.526 153.675 666.403 156.367 661.627C161.274 652.956 168.153 645.564 176.448 640.048C178.052 638.957 179.528 638.139 180.843 637.369C182.159 636.599 183.345 636.085 184.308 635.62L186.569 634.674C186.825 634.547 187.094 634.45 187.371 634.385L186.601 634.77L184.388 635.813C183.458 636.294 182.303 636.904 180.988 637.626C179.487 638.44 178.04 639.352 176.657 640.353C168.461 645.924 161.669 653.322 156.816 661.964C151.042 672.071 149.454 682.692 148.315 690.137C147.786 693.907 147.529 696.971 147.385 699.089C147.385 700.116 147.273 700.918 147.241 701.528C147.239 701.786 147.217 702.043 147.176 702.298Z" fill="#263238"/>
<path d="M84.3359 619.881C87.3674 615.678 94.8739 614.458 99.6216 616.56C104.369 618.662 107.834 622.817 110.945 626.956C114.057 631.096 117.073 635.492 121.371 638.379C125.67 641.267 131.701 642.31 135.983 639.406C137.356 638.389 138.505 637.101 139.36 635.622C140.215 634.143 140.758 632.504 140.955 630.807C141.329 627.413 141.096 623.979 140.266 620.667C139.239 615.854 137.571 610.704 133.673 607.608C129.327 604.142 123.28 603.982 117.746 604.174C111.361 604.128 105.009 605.103 98.9319 607.062C92.9652 609.276 86.8702 614.041 84.3359 619.897" fill="#AE8DFF"/>
<path d="M137.52 692.993V691.982C137.52 691.276 137.488 690.313 137.424 689.094C137.424 686.543 137.247 682.933 137.119 678.489C136.991 674.045 136.798 668.67 136.477 662.766C136.157 656.862 135.708 650.349 134.873 643.514C134.489 640.222 133.845 636.966 132.949 633.775C131.973 630.85 130.733 628.02 129.244 625.32C127.956 622.84 126.453 620.478 124.753 618.261C123.262 616.337 121.621 614.534 119.844 612.87C117.252 610.478 114.323 608.478 111.151 606.934C110.574 606.678 110.076 606.421 109.643 606.244L108.505 605.811L107.799 605.522L107.574 605.41H107.815L108.537 605.635L109.691 606.036C110.141 606.196 110.654 606.453 111.295 606.694C114.526 608.18 117.511 610.149 120.149 612.534C121.96 614.192 123.634 615.995 125.154 617.924C126.884 620.154 128.414 622.532 129.725 625.032C131.181 627.779 132.374 630.658 133.286 633.631C134.202 636.846 134.856 640.129 135.242 643.45C136.141 650.236 136.574 656.75 136.846 662.702C137.119 668.654 137.279 673.933 137.376 678.441C137.472 682.949 137.504 686.559 137.52 689.062V692.704C137.536 692.8 137.536 692.897 137.52 692.993Z" fill="#263238"/>
<path d="M141.707 698.239C141.142 696.614 140.713 694.945 140.423 693.249C139.623 688.62 139.445 683.904 139.894 679.227C140.603 672.296 142.088 665.467 144.321 658.868C146.711 651.391 149.951 643.402 152.71 634.802C154.079 630.627 155.193 626.373 156.046 622.063C156.805 618.048 157.34 613.993 157.65 609.918C158.182 602.979 158.305 596.015 158.019 589.061C157.81 583.141 157.505 578.36 157.313 575.055C157.217 573.451 157.137 572.135 157.088 571.237V570.242C157.08 570.576 157.112 570.91 157.185 571.237C157.185 572.135 157.377 573.403 157.505 575.039C157.762 578.344 158.131 583.061 158.388 589.045C158.727 595.996 158.641 602.962 158.131 609.902C157.821 613.998 157.285 618.074 156.527 622.112C155.682 626.455 154.567 630.741 153.191 634.947C150.416 643.562 147.16 651.552 144.754 659.012C142.512 665.569 141 672.354 140.247 679.243C139.76 683.892 139.884 688.585 140.616 693.201C140.889 694.806 141.161 696.089 141.386 696.923L141.626 697.886C141.659 698.002 141.686 698.12 141.707 698.239Z" fill="#263238"/>
<path d="M170.517 703.501H115.95L114.699 692.992H170.517V703.501Z" fill="#455A64"/>
<path d="M121.805 702.298L128.621 733.808H158.279L164.662 702.298H121.805Z" fill="#455A64"/>
<path d="M170.514 703.501C170.514 703.646 158.516 703.726 143.712 703.678C128.907 703.63 116.926 703.485 116.926 703.341C116.926 703.196 128.923 703.116 143.712 703.164C158.5 703.213 170.514 703.357 170.514 703.501Z" fill="#455A64"/>
<path d="M161.148 719.047C159.66 717.938 158.045 717.011 156.336 716.288C154.472 715.563 152.497 715.166 150.497 715.117C148.042 715.132 145.609 715.582 143.312 716.448C140.826 717.283 138.5 718.261 136.238 718.807C134.229 719.234 132.158 719.294 130.127 718.983C128.762 718.775 127.437 718.358 126.197 717.748C125.877 717.555 125.556 717.363 125.251 717.138C124.946 716.914 124.946 716.898 124.962 716.882C124.978 716.865 125.428 717.154 126.294 717.555C127.528 718.1 128.836 718.457 130.175 718.614C132.16 718.869 134.173 718.777 136.126 718.341C138.323 717.78 140.633 716.737 143.151 715.951C145.501 715.057 147.999 714.616 150.513 714.651C152.566 714.704 154.591 715.145 156.48 715.951C157.754 716.485 158.952 717.187 160.041 718.037C160.33 718.261 160.618 718.502 160.891 718.759C161.164 719.015 161.164 719.031 161.148 719.047Z" fill="#263238"/>
<path d="M160.733 721.15C159.302 720.072 157.752 719.162 156.113 718.438C154.326 717.703 152.416 717.312 150.483 717.283C148.113 717.288 145.762 717.712 143.538 718.534C141.132 719.337 138.871 720.267 136.721 720.845C134.815 721.391 132.831 721.613 130.851 721.502C129.512 721.421 128.203 721.072 127.002 720.476C126.68 720.302 126.369 720.109 126.071 719.898C125.879 719.738 125.783 719.657 125.799 719.641C125.815 719.625 126.248 719.898 127.082 720.283C128.281 720.796 129.564 721.084 130.867 721.134C132.804 721.196 134.738 720.942 136.593 720.379C138.694 719.786 140.94 718.775 143.362 718.037C145.644 717.187 148.064 716.768 150.499 716.802C153.839 716.903 157.056 718.079 159.674 720.155C160.043 720.46 160.3 720.7 160.476 720.877C160.57 720.96 160.655 721.051 160.733 721.15Z" fill="white"/>
<path d="M161.693 716.961C160.154 715.819 158.498 714.846 156.752 714.057C154.854 713.241 152.831 712.753 150.77 712.613C148.234 712.562 145.711 713.003 143.343 713.913C140.955 714.854 138.513 715.652 136.029 716.303C133.939 716.672 131.8 716.672 129.71 716.303C128.301 716.079 126.934 715.646 125.652 715.02C125.311 714.842 124.984 714.638 124.673 714.41C124.465 714.25 124.353 714.17 124.369 714.154C124.385 714.138 124.85 714.426 125.748 714.843C127.034 715.389 128.389 715.756 129.774 715.934C131.819 716.242 133.901 716.204 135.933 715.822C138.39 715.148 140.81 714.345 143.183 713.416C145.606 712.481 148.19 712.039 150.786 712.116C154.331 712.408 157.717 713.717 160.538 715.886C160.939 716.207 161.227 716.464 161.42 716.64C161.524 716.736 161.615 716.843 161.693 716.961Z" fill="white"/>
<path d="M170.948 703.533C170.948 703.678 158.678 703.806 143.537 703.806C128.396 703.806 116.109 703.678 116.109 703.533C116.109 703.389 128.396 703.276 143.537 703.276C158.678 703.276 170.948 703.389 170.948 703.533Z" fill="#263238"/>
<path d="M703.829 733.567C703.829 733.807 557.148 734 376.271 734C195.393 734 48.6641 733.807 48.6641 733.567C48.6641 733.326 195.313 733.102 376.255 733.102C557.196 733.102 703.829 733.342 703.829 733.567Z" fill="#263238"/>
<path d="M310.862 229.153L293.218 225.206C286.243 233.142 276.551 238.182 266.049 239.332C255.548 240.483 244.995 237.663 236.467 231.426C227.939 225.188 222.052 215.985 219.964 205.626C217.876 195.267 219.737 184.502 225.183 175.446C230.628 166.39 239.263 159.7 249.39 156.69C259.517 153.681 270.404 154.569 279.909 159.182C289.414 163.794 296.851 171.797 300.756 181.615C304.662 191.434 304.753 202.36 301.014 212.243L310.862 229.153Z" fill="white"/>
<path d="M310.861 229.153L301.237 212.146C301.204 212.123 301.165 212.11 301.125 212.11C301.084 212.11 301.045 212.123 301.012 212.146L301.301 212.291C303.974 205.335 304.754 197.795 303.563 190.439C303.221 188.256 302.684 186.109 301.959 184.022C301.558 182.931 301.189 181.824 300.756 180.717L299.152 177.508C296.473 172.394 292.775 167.884 288.285 164.255C283.796 160.626 278.611 157.955 273.05 156.408C267.489 154.862 261.67 154.471 255.953 155.26C250.235 156.05 244.74 158.003 239.806 160.999C234.127 164.398 229.338 169.1 225.835 174.716C222.212 180.428 220.012 186.926 219.42 193.664C218.902 200.106 219.84 206.581 222.162 212.612C224.331 218.325 227.738 223.486 232.139 227.725C240.045 235.344 250.577 239.629 261.555 239.694C266.194 239.641 270.797 238.878 275.205 237.431C282.228 235.066 288.498 230.881 293.378 225.302H293.233L310.877 229.105L293.233 224.997C293.181 224.981 293.125 224.981 293.073 224.997C288.205 230.497 281.968 234.61 274.996 236.918C270.632 238.331 266.078 239.067 261.491 239.1C250.656 238.99 240.274 234.737 232.476 227.211C228.159 223.014 224.814 217.921 222.676 212.291C220.398 206.344 219.483 199.963 219.997 193.616C220.572 186.99 222.722 180.599 226.268 174.973C229.707 169.434 234.42 164.796 240.014 161.448C245.399 158.248 251.423 156.275 257.658 155.673C263.54 155.099 269.478 155.782 275.077 157.678C285.193 161.11 293.634 168.247 298.703 177.652C299.216 178.743 299.729 179.818 300.307 180.861C300.782 181.901 301.184 182.974 301.51 184.07C302.228 186.159 302.765 188.306 303.114 190.487C304.315 197.769 303.579 205.239 300.98 212.146C300.973 212.166 300.969 212.188 300.97 212.209C300.971 212.231 300.976 212.252 300.985 212.271C300.993 212.29 301.006 212.308 301.022 212.322C301.038 212.337 301.056 212.348 301.077 212.355C301.1 212.378 301.132 212.39 301.165 212.39C301.198 212.39 301.229 212.378 301.253 212.355H300.868L310.861 229.153Z" fill="#263238"/>
<path d="M238.348 198.156L244.395 192.108L256.071 202.488L278.992 180.428L284.606 186.476L255.205 214.152L238.348 198.156Z" fill="#AE8DFF"/>
</svg>
