<svg width="144" height="95" viewBox="0 0 144 95" fill="none" xmlns="http://www.w3.org/2000/svg">
<path fill-rule="evenodd" clip-rule="evenodd" d="M16.3202 0.526659C15.9755 0.828488 15.5969 1.37527 15.479 1.74153C15.2595 2.42222 11.0383 14.824 8.82014 21.3055C8.1425 23.2853 6.76052 27.3349 5.74883 30.3046C4.73733 33.2743 3.02545 38.2861 1.94468 41.4419C-0.0456783 47.2535 -0.258333 48.1905 0.207739 49.0954C0.587414 49.8326 1.30023 50.2104 4.15997 51.19C5.68011 51.7107 10.0073 53.1977 13.7763 54.4943C17.5451 55.7911 20.7746 56.8519 20.953 56.8519C21.5356 56.8519 22.6924 56.1401 22.9652 55.614C23.1118 55.3309 24.9339 50.0875 27.0141 43.962C29.0944 37.8363 31.9872 29.3417 33.4427 25.0851C34.8981 20.8286 36.485 16.1802 36.9688 14.7553C37.4527 13.3306 37.8773 12.136 37.9124 12.1009C37.9476 12.0658 38.5517 12.2377 39.2549 12.4828C41.0498 13.1086 42.9027 13.3611 44.6979 13.2249C47.0017 13.0498 48.3467 12.6698 50.8463 11.4883C53.975 10.0094 55.8374 9.63679 57.8978 10.0777C58.7367 10.2574 64.6042 12.2436 75.2833 15.9631C77.2673 16.6541 82.0561 18.315 85.925 19.6538C89.7939 20.9925 93.0934 22.1403 93.257 22.2042C93.5075 22.3017 93.5257 22.425 93.3719 22.9828C93.2714 23.3471 92.9955 24.027 92.759 24.4935C91.7204 26.5412 90.2984 27.3983 87.9846 27.3707C86.4843 27.3529 85.3136 26.9969 74.323 23.2153C71.3484 22.1919 68.7437 21.3959 68.3709 21.3962C67.5875 21.397 66.7145 21.8829 66.4036 22.4911C66.2815 22.7299 65.9316 23.6138 65.626 24.4552C64.5427 27.4377 62.3394 30.8669 60.3551 32.6586C59.1053 33.7871 57.2663 34.967 55.7617 35.6054C52.2665 37.0888 47.2202 37.0568 42.4004 35.5208C41.6374 35.2777 40.7861 35.0777 40.5083 35.0765C39.4398 35.0716 38.3255 36.0271 38.119 37.1256C37.9649 37.9454 38.4844 39.1286 39.1828 39.5479C40.4737 40.3233 44.0888 41.2102 47.4662 41.5803C50.9608 41.9631 54.8748 41.3641 58.0682 39.9579C62.7856 37.8808 67.0096 33.4714 69.5142 28.0098C69.7754 27.4406 70.0147 26.975 70.0465 26.975C70.0782 26.975 72.8115 27.9123 76.1207 29.0579C83.4496 31.5949 84.0611 31.7886 85.7728 32.1154C88.9875 32.7291 92.1169 32.0647 94.3913 30.2852C96.6155 28.5453 98.3634 24.7923 98.5739 21.3055C98.6688 19.7321 98.5124 19.2379 97.7391 18.6683C97.3833 18.4062 90.0302 15.7529 86.1054 14.4706C85.7086 14.3408 83.8418 13.6939 81.9569 13.033C80.0721 12.3721 75.7297 10.858 72.3072 9.66811C58.3078 4.80176 58.7432 4.92091 55.4682 5.0568C53.1866 5.15129 51.2629 5.70059 48.6871 6.99286C46.9891 7.84489 45.4313 8.25057 43.8439 8.25417C42.3778 8.25759 41.5793 8.05295 38.398 6.85787C36.9596 6.31739 34.2811 5.36582 32.4458 4.74291C30.6106 4.11999 26.7289 2.79317 23.8199 1.79409C17.8279 -0.26364 17.3202 -0.349492 16.3202 0.526659ZM119.654 0.358376C119.356 0.459706 115.098 2.54173 110.191 4.9848C103.987 8.07347 101.167 9.56857 100.933 9.89236C100.749 10.1483 100.557 10.6747 100.506 11.0622C100.404 11.8306 100.483 12.0086 104.772 20.7656C106.904 25.1193 107.077 25.4737 113.884 39.4837C116.241 44.3342 118.767 49.5313 119.498 51.0331C120.229 52.5347 120.826 53.8363 120.826 53.9254C120.826 54.1093 113.996 60.4317 111.545 62.5168C109.612 64.1604 106.556 66.4613 104.323 67.9528C101.062 70.1306 97.597 71.9761 86.1956 77.6074C65.1751 87.9894 61.0411 89.9957 60.4675 90.0931C59.338 90.2849 57.8125 89.441 57.2192 88.2959C56.7726 87.4342 56.8533 86.1596 57.4148 85.2033C57.8942 84.3871 57.9176 84.3742 67.8518 79.4725C78.8328 74.0545 78.801 74.0747 78.7998 72.5414C78.799 71.4792 78.2781 70.5951 77.4495 70.2497C76.2216 69.7377 77.6118 69.1223 56.7322 79.4187C51.5885 81.9554 47.0623 84.0813 46.674 84.1434C45.7653 84.2883 44.5119 83.823 43.9198 83.1209C42.9413 81.9602 42.863 80.4277 43.7169 79.1403C44.1536 78.4819 44.6544 78.1934 49.2787 75.9357C64.5721 68.4692 72.2556 64.6012 72.653 64.1685C73.2715 63.4952 73.3712 62.0275 72.8545 61.2057C72.4548 60.5703 71.5491 60.0916 70.7467 60.0916C70.4684 60.0916 65.617 62.3775 59.513 65.385C40.1726 74.9138 39.0874 75.43 38.2043 75.5228C36.1313 75.741 34.3976 73.6975 34.9398 71.6748C35.3559 70.1221 35.5918 69.9502 40.833 67.3794C62.9136 56.5483 64.713 55.6314 65.0871 55.0191C65.8077 53.8399 65.3807 52.1565 64.2076 51.5513C62.9939 50.9249 63.0291 50.9105 49.8508 57.414C41.6809 61.4458 37.152 63.5857 36.6665 63.6437C34.0964 63.9502 32.2979 60.8822 33.7577 58.6812C34.2266 57.9741 34.6876 57.7155 41.1528 54.5341C45.6975 52.2977 48.2218 50.9557 48.5581 50.597C49.5527 49.5367 49.3023 47.6871 48.0621 46.9324C46.8632 46.2029 46.5564 46.3102 38.8118 50.1703C32.5045 53.3138 31.5224 53.8597 30.7116 54.6712C28.9527 56.432 28.1823 58.5256 28.3437 61.1061C28.4678 63.0897 29.2634 64.8274 30.7076 66.2685C31.2623 66.822 31.6456 67.3182 31.5593 67.3713C31.4733 67.4246 31.1598 67.9748 30.8629 68.5943C29.2586 71.9412 29.7373 75.2509 32.2112 77.9171C33.4646 79.2681 35.2603 80.204 36.9572 80.3908L38.1274 80.5195L38.2481 81.5994C38.4943 83.802 39.2955 85.442 40.8355 86.8953C42.286 88.2643 43.863 88.9432 45.8077 89.0359C47.6045 89.1215 48.7823 88.8438 50.6928 87.8838C51.3659 87.5456 51.948 87.2688 51.9862 87.2688C52.0245 87.2688 52.1051 87.6847 52.1655 88.193C52.3383 89.6501 53.2082 91.2822 54.4928 92.5597C56.6217 94.677 59.3265 95.4556 62.0731 94.7418C62.6366 94.5953 68.8831 91.6276 75.9543 88.1467C83.0254 84.6661 91.1647 80.6683 94.0416 79.2632C105.863 73.489 111.202 69.7852 121.277 60.3691L125.245 56.6604L134.267 52.1985C144.116 47.3273 143.997 47.405 144 45.873C144.002 45.023 143.911 44.8264 137.006 30.7546C133.223 23.0447 130.2 16.8647 127.719 11.7665C123.724 3.55719 122.383 0.993711 121.904 0.652646C121.333 0.245528 120.359 0.118101 119.654 0.358376ZM23.4274 6.90287C29.4458 8.93306 33.1673 10.2829 33.1673 10.4357C33.1673 10.5974 31.1557 16.5607 26.9502 28.8648C25.4954 33.1213 23.2041 39.8436 21.8586 43.8032C20.5131 47.7628 19.387 51.0315 19.3562 51.0669C19.3253 51.1022 18.3418 50.8067 17.1703 50.41C10.0888 48.0121 5.82134 46.522 5.68245 46.3988C5.59353 46.3197 5.90052 45.1623 6.37976 43.7705C9.09484 35.8849 12.5924 25.6285 17.1703 12.1265C19.56 5.07857 19.3937 5.49163 19.7775 5.64894C19.9498 5.71949 21.5922 6.28391 23.4274 6.90287ZM119.755 6.82098C119.946 7.16528 121.046 9.39075 122.199 11.7665C123.351 14.1423 124.984 17.5034 125.827 19.2357C126.669 20.9681 128.274 24.2887 129.392 26.615C130.511 28.9413 132.937 33.9494 134.784 37.7443C136.631 41.5392 138.142 44.6796 138.142 44.7228C138.142 44.8459 125.506 51.0925 125.257 51.0925C125.018 51.0925 123.243 47.5235 114.783 30.0346C113.466 27.3124 111.436 23.1413 110.271 20.7656C109.107 18.3898 107.727 15.5551 107.204 14.4662L106.255 12.4864L112.684 9.29698C116.22 7.54288 119.179 6.12715 119.26 6.15126C119.341 6.17538 119.564 6.47667 119.755 6.82098Z" fill="black"/>
</svg>
