<svg width="148" height="136" viewBox="0 0 148 136" fill="none" xmlns="http://www.w3.org/2000/svg">
<path fill-rule="evenodd" clip-rule="evenodd" d="M66.1902 0.275173C46.9841 2.91734 30.082 13.0327 18.7777 28.6492C15.7821 32.7876 11.1015 41.8957 9.73586 46.2433C9.23653 47.8333 8.89629 49.2025 8.97987 49.2866C9.12369 49.43 13.4475 49.6172 14.8857 49.5421C15.3087 49.52 15.8212 48.6495 16.2938 47.1495C17.4731 43.4067 21.3418 36.0503 24.317 31.8928C29.2365 25.0194 38.767 16.795 46.1538 13.0488C56.2219 7.94275 68.4349 5.55228 79.2661 6.56755C101.331 8.63502 119.598 21.0309 129.407 40.5939C131.063 43.8953 132.796 48.2713 132.796 49.1495C132.796 49.346 131.078 49.5073 128.978 49.5073C126.878 49.5073 125.16 49.6015 125.16 49.7165C125.16 49.9096 132.095 60.1061 135.049 64.2567C135.756 65.2486 136.471 66.0606 136.638 66.0606C136.895 66.0606 147.587 50.7908 147.998 49.8358C148.076 49.655 146.258 49.5073 143.959 49.5073H139.778L138.823 46.4288C138.298 44.7361 136.844 41.2255 135.592 38.6283C126.261 19.272 108.322 5.39567 87.042 1.07525C82.3398 0.120256 70.5917 -0.330508 66.1902 0.275173ZM70.0084 23.1917C70.0084 24.8259 69.9299 26.1629 69.8336 26.1629C69.7373 26.1629 68.1625 26.4494 66.3336 26.7995C64.5047 27.1497 62.7929 27.4362 62.5299 27.4362C62.2665 27.4362 61.6229 26.2902 61.0994 24.8895C60.5759 23.4889 59.9921 22.3429 59.802 22.3429C58.8076 22.3429 52.6146 25.0975 52.6146 25.5398C52.6146 25.8246 53.0817 27.1136 53.6523 28.4043L54.6895 30.7519L51.2816 32.9671L47.8733 35.1827L45.7873 33.1276L43.7017 31.0724L40.9463 33.8045C39.4305 35.3075 38.1904 36.6869 38.1904 36.8703C38.1904 37.0532 39.0495 38.0507 40.0995 39.0863C42.1834 41.1415 42.3255 41.5001 41.3705 42.293C41.0197 42.5846 40.0512 43.9449 39.2188 45.3163C38.386 46.6877 37.647 47.8095 37.5761 47.8095C37.5053 47.8095 36.3683 47.332 35.0494 46.7484C33.7304 46.1648 32.5006 45.6873 32.3164 45.6873C31.9618 45.6873 29.2721 51.9317 29.278 52.7411C29.2797 53.0026 30.4269 53.7135 31.8269 54.3209C33.2268 54.9283 34.3613 55.6693 34.3481 55.9677C34.3345 56.2665 33.9862 58.0386 33.5739 59.9061L32.8238 63.3017L29.886 63.3514L26.9481 63.401V67.3836V71.3661L29.9538 71.4892L32.9592 71.6127L33.4631 74.3495C33.7406 75.8546 34.0779 77.6386 34.2128 78.3134C34.447 79.4853 34.3417 79.5855 31.8697 80.5443C30.446 81.0965 29.2814 81.7947 29.2814 82.0961C29.2814 83.1945 32.0203 88.9805 32.5404 88.9805C32.8344 88.9805 34.1054 88.5247 35.3642 87.9678L37.6529 86.9551L39.8569 90.3672L42.0612 93.7789L40.1258 95.7449C39.0614 96.826 38.1904 97.8828 38.1904 98.0934C38.1904 98.4783 43.3102 103.405 43.7056 103.4C43.8222 103.398 44.8268 102.544 45.9383 101.501L47.959 99.6048L50.6414 101.402C52.1169 102.39 53.6294 103.39 54.0023 103.624C54.6098 104.004 54.5657 104.323 53.5738 106.698C52.965 108.156 52.5713 109.452 52.6986 109.58C52.8259 109.707 54.4901 110.469 56.3963 111.274L59.8623 112.736L60.6314 110.939C61.0548 109.95 61.5427 108.693 61.7162 108.145C61.9733 107.332 62.2389 107.194 63.1561 107.393C63.775 107.527 65.5624 107.87 67.1278 108.155L69.9745 108.672L70.0975 111.666L70.2205 114.659H74.2508H78.2811L78.4041 111.666L78.5271 108.672L81.3738 108.155C82.9392 107.87 84.7456 107.524 85.3871 107.385C86.0455 107.243 86.5537 107.316 86.5537 107.554C86.5537 107.786 87.0263 109.044 87.6037 110.35L88.6541 112.726L92.1537 111.227C94.0789 110.403 95.7296 109.653 95.8225 109.56C95.9154 109.467 95.5022 108.189 94.904 106.719C93.9457 104.365 93.8943 103.998 94.4705 103.624C94.8302 103.39 96.3363 102.397 97.8169 101.417L100.51 99.6345L102.686 101.592L104.862 103.55L107.683 100.728L110.503 97.9062L108.412 95.7818L106.321 93.6579L107.238 92.4865C107.743 91.8422 108.734 90.3192 109.441 89.1019L110.725 86.8893L113.491 88.1308L116.257 89.3723L117.553 86.5239C119.655 81.9063 119.641 81.6606 117.239 80.7905C113.876 79.5723 113.999 79.8397 114.796 75.4841L115.503 71.6136L118.518 71.4896L121.533 71.3661L121.461 67.5461C121.422 65.4451 121.379 63.6306 121.366 63.5139C121.352 63.3972 120.055 63.3017 118.482 63.3017H115.623L114.901 59.9061C114.503 58.0386 114.167 56.2232 114.154 55.8718C114.139 55.4741 115.09 54.8599 116.675 54.2453C118.075 53.7025 119.22 53.073 119.22 52.8468C119.22 51.9767 116.535 45.6873 116.163 45.6873C115.948 45.6873 114.877 46.0625 113.784 46.5213C112.69 46.9797 111.572 47.4097 111.297 47.4763C110.858 47.5833 106.493 41.7955 106.493 41.105C106.493 40.9568 107.395 39.9187 108.498 38.7986L110.503 36.7616L107.656 33.9128L104.808 31.0639L102.722 33.1195C101.575 34.2498 100.475 35.1046 100.277 35.0189C100.079 34.9331 98.5466 33.9556 96.8717 32.8466L93.826 30.8296L94.8565 28.2923C95.4233 26.8971 95.887 25.6081 95.887 25.4281C95.887 25.1017 89.4678 22.3429 88.7084 22.3429C88.4883 22.3429 88.1718 22.7724 88.0059 23.2979C87.8396 23.8233 87.3623 25.05 86.9457 26.0241L86.1876 27.7953L83.9315 27.2325C82.6902 26.923 80.9593 26.547 80.0841 26.3971L78.4932 26.1242V23.1726V20.2206H74.2508H70.0084V23.1917ZM82.7716 35.9637C100.804 40.9632 111.034 60.2181 105.035 77.8669C99.8176 93.214 84.0176 102.44 68.1536 99.4032C55.9037 97.0581 46.0079 87.7552 42.5924 75.3737C41.5394 71.5567 41.5572 63.0653 42.6259 59.2695C47.5941 41.6258 65.5649 31.1929 82.7716 35.9637ZM5.62584 76.7897L0 84.9483L4.14863 85.068L8.29769 85.1881L9.7575 89.5247C12.4739 97.5963 17.3535 106.122 22.928 112.537C36.9873 128.717 58.8348 137.658 79.6314 135.745C89.3889 134.847 95.8874 133.003 104.584 128.663C117.558 122.189 127.879 112.117 134.473 99.497C136.588 95.4491 140.008 86.8269 140.008 85.5438C140.008 85.3329 138.515 85.1606 136.692 85.1606H133.375L132.623 87.5472C131.346 91.5998 128.222 97.8845 125.271 102.339C121.902 107.424 114.234 115.259 109.34 118.619C90.7982 131.348 66.8932 133.064 47.0006 123.094C34.4007 116.779 24.7119 106.96 18.7179 94.4317C17.0816 91.0111 15.2815 86.3426 15.2815 85.5184C15.2815 85.3218 16.9997 85.1606 19.0997 85.1606C21.1997 85.1606 22.9178 85.0073 22.9178 84.8197C22.9178 84.6321 22.3795 83.7251 21.7211 82.8036C21.0631 81.8821 18.5651 78.3113 16.1707 74.8678C13.7763 71.4243 11.6895 68.6128 11.5342 68.6191C11.3785 68.6255 8.71982 72.3025 5.62584 76.7897Z" fill="black"/>
</svg>
