<svg id="Layer_1" data-name="Layer 1" xmlns="http://www.w3.org/2000/svg" xmlns:xlink="http://www.w3.org/1999/xlink" viewBox="0 0 489.57 351.66"><defs><style>.cls-1{fill:url(#radial-gradient);}.cls-2{fill:url(#radial-gradient-2);}</style><radialGradient id="radial-gradient" cx="775.07" cy="634.64" r="165.56" gradientUnits="userSpaceOnUse"><stop offset="0" stop-color="#ffac78"/><stop offset="1" stop-color="#ff7a59"/></radialGradient><radialGradient id="radial-gradient-2" cx="828.47" cy="-77.75" r="165.56" gradientTransform="translate(1663.42 707.35) rotate(179.05)" xlink:href="#radial-gradient"/></defs><path class="cls-1" d="M828.29,603.43H980c7.06,0,9.18,2.06,9.2,9.12q.06,22.51,0,45c0,5.63-2.56,8.19-8.18,8.19H701c-8.72,0-17.45.15-26.17,0-2.9-.07-3.45.86-3.43,3.54.13,17.11,0,34.21.16,51.31.05,4.1-1.54,6.47-5,8.07s-6,.1-8.47-2.1q-13.28-12-26.53-24.1-22.2-20.11-44.43-40.21-11.34-10.28-22.65-20.59-7-6.45.16-13.08,20.52-18.84,41.07-37.65,25.15-23,50.34-46c1.22-1.11,2.33-2.29,3.68-3.31a6.57,6.57,0,0,1,7.62-.68,7.24,7.24,0,0,1,4.19,7.06c-.11,17.31,0,34.63-.16,51.94,0,3,.93,3.57,3.72,3.56q76.63-.12,153.27-.06Z" transform="translate(-560.92 -540)"/><path class="cls-2" d="M783.67,831,632,833.51c-7.06.12-9.21-1.91-9.35-9q-.43-22.5-.77-45c-.1-5.63,2.42-8.23,8-8.33l280-4.66c8.73-.15,17.45-.44,26.18-.39,2.89,0,3.43-.92,3.36-3.6-.41-17.1-.52-34.2-1-51.3-.12-4.1,1.44-6.49,4.92-8.15s6-.2,8.5,2q13.47,11.82,26.92,23.66l45.1,39.46q11.5,10.08,23,20.21,7.15,6.33.06,13.07-20.21,19.18-40.44,38.33-24.76,23.44-49.57,46.84c-1.19,1.13-2.29,2.33-3.62,3.37a6.57,6.57,0,0,1-7.61.81,7.25,7.25,0,0,1-4.3-7c-.18-17.31-.6-34.62-.72-51.94,0-3-1-3.55-3.77-3.5Q860.3,829.77,783.67,831Z" transform="translate(-560.92 -540)"/></svg>