<svg id="Layer_1" data-name="Layer 1" xmlns="http://www.w3.org/2000/svg" viewBox="0 0 136.66 34.4"><defs><style>.cls-1{font-size:24px;font-family:Arial-BoldMT, Arial;font-weight:700;}.cls-2{fill:#fe7a59;}.cls-3{fill:#fff;}</style></defs><text class="cls-1" transform="translate(39.35 25.36)">Hubspot</text><g id="hubspot"><path class="cls-2" d="M171.42,354.17c0-.53,0-1.06,0-1.6a.34.34,0,0,0-.21-.37,2.9,2.9,0,0,1-1.46-3.39,2.93,2.93,0,0,1,5.7.12,2.86,2.86,0,0,1-1.45,3.24.42.42,0,0,0-.25.43q0,1.62,0,3.24c0,.24.07.32.31.37a8.14,8.14,0,1,1-6.31,14.59c-.17-.12-.26-.11-.4,0-.92.94-1.85,1.86-2.79,2.79a.39.39,0,0,0-.11.4,2.48,2.48,0,0,1-1.87,3,2.52,2.52,0,1,1-.05-4.89.5.5,0,0,0,.57-.15c.88-.9,1.77-1.78,2.66-2.66a.29.29,0,0,0,0-.46,8.06,8.06,0,0,1,.88-10.33c.18-.17.18-.24,0-.39q-4.89-3.41-9.77-6.84a.41.41,0,0,0-.49,0A3.26,3.26,0,0,1,152,347a3.27,3.27,0,0,1,6.22,1.89.38.38,0,0,0,.17.46l10.17,7.47a.32.32,0,0,0,.4.06,7.38,7.38,0,0,1,2.25-.71c.18,0,.25-.1.24-.29C171.41,355.31,171.42,354.74,171.42,354.17Z" transform="translate(-151.69 -345.05)"/><path class="cls-3" d="M168.19,364.18a4.33,4.33,0,1,1,4.28,4.32A4.33,4.33,0,0,1,168.19,364.18Z" transform="translate(-151.69 -345.05)"/></g></svg>