<svg width="142" height="142" viewBox="0 0 142 142" fill="none" xmlns="http://www.w3.org/2000/svg">
<path fill-rule="evenodd" clip-rule="evenodd" d="M52.0567 2.69111C50.8902 3.85761 51.1519 6.44723 52.5915 7.97996L53.8865 9.35873L49.8987 10.8097C30.3066 17.9367 15.5 33.6449 9.88446 53.2606C7.63012 61.1365 7.1923 65.4503 8.51399 66.772C10.8963 69.1544 14.5477 67.0958 14.5477 63.3707C14.5477 60.1449 17.1962 51.5733 19.9251 45.9676C26.3257 32.8199 37.1133 23.0133 51.285 17.459C54.6874 16.1252 55.1518 16.0644 54.7431 17.0034C54.4834 17.6003 54.1419 19.0069 53.9835 20.1303C53.7427 21.843 53.9562 22.291 55.307 22.9062C56.1928 23.3105 57.3517 23.474 57.882 23.2706C58.7367 22.943 63.8917 16.3805 66.6846 12.0662L67.7116 10.479L61.6234 6.20519C55.5979 1.97511 53.5317 1.21603 52.0567 2.69111ZM74.8979 8.33543C73.8353 9.4335 73.8917 12.3697 74.9929 13.2834C75.4808 13.6883 77.5983 14.2966 79.6993 14.6349C99.7222 17.8594 116.941 31.8783 124.138 50.8142C125.795 55.1741 125.775 55.2958 123.606 54.0507C121.906 53.075 121.673 53.0781 120.121 54.0945C118.057 55.4466 117.958 57.6573 119.883 59.3713C122.231 61.461 130.431 67.194 131.073 67.194C132.007 67.194 140 55.3896 140 54.0102C140 51.0873 135.755 50.2015 133.72 52.6998L132.495 54.2047L131.918 52.6206C131.602 51.7494 130.679 49.2251 129.867 47.0112C128.01 41.9447 122.593 33.2698 118.062 28.1089C108.924 17.7004 92.721 9.20349 79.52 7.89633C76.7974 7.62704 75.4611 7.75376 74.8979 8.33543ZM64.1666 27.974C60.9733 28.8984 59.5331 31.2542 59.5331 35.5553C59.5331 38.6911 59.345 39.2892 58.2469 39.6377C57.3314 39.9279 56.3037 39.4692 54.6842 38.0467C49.3316 33.3471 46.9898 33.738 40.4251 40.4253C37.7754 43.1252 35.4305 46.0981 35.2144 47.0327C34.6771 49.3505 35.7359 51.8616 38.4103 54.6147L40.6551 56.9261L39.3233 58.258C38.3178 59.2636 37.1988 59.5905 34.7601 59.5905C31.9634 59.5905 31.2829 59.8547 29.6913 61.5585C27.8862 63.4911 27.8533 63.6546 27.8533 70.7359C27.8533 77.7463 27.9027 78.0004 29.6369 79.9419C31.1803 81.6691 31.9704 81.9916 35.4907 82.3281C40.4207 82.8001 40.9637 83.864 37.9984 87.2412C33.3966 92.4832 33.9662 95.4295 40.8458 101.965C45.2981 106.194 45.7784 106.479 48.461 106.479C50.9295 106.479 51.7107 106.123 54.1216 103.9C56.5242 101.686 57.1027 101.421 58.226 102.022C59.3012 102.597 59.5331 103.335 59.5331 106.174C59.5331 109.094 59.8189 109.946 61.382 111.696L63.2308 113.765H70.9379H78.645L80.4938 111.696C82.0569 109.946 82.3426 109.094 82.3426 106.174C82.3426 103.335 82.5745 102.597 83.6498 102.022C84.7731 101.421 85.3516 101.686 87.7542 103.9C90.1619 106.12 90.9482 106.479 93.4046 106.479C96.0474 106.479 96.5815 106.174 100.64 102.344C107.74 95.6462 108.425 92.4585 103.859 87.3622C100.623 83.7506 101.189 82.6563 106.494 82.273C109.922 82.0252 110.635 81.7375 112.216 79.9678C113.978 77.9954 114.023 77.7679 114.023 70.7359C114.023 63.6546 113.99 63.4911 112.184 61.5585C110.593 59.8547 109.912 59.5905 107.116 59.5905C104.677 59.5905 103.558 59.2636 102.553 58.258L101.221 56.9261L103.466 54.6147C108.363 49.5736 107.924 46.7812 101.189 40.1269C94.8746 33.8869 92.242 33.4415 87.4209 37.797C85.6031 39.4394 84.578 39.9387 83.6352 39.6396C82.5302 39.2886 82.3426 38.6968 82.3426 35.5553C82.3426 31.1281 80.9031 28.9066 77.4038 27.9347C74.5633 27.1458 66.9507 27.1686 64.1666 27.974ZM75.9477 39.089L75.8065 43.933L79.5497 45.3264C81.6083 46.0924 84.0869 47.0999 85.057 47.5637C86.7645 48.3811 86.9223 48.3 89.999 45.0229L93.1772 41.6381L96.6315 45.0501L100.087 48.4622L96.6106 51.975L93.1347 55.4878L94.3747 57.5262C95.0564 58.6477 96.0822 60.9965 96.6543 62.7459L97.6947 65.9267H102.691H107.687V70.6789V75.4311H102.642H97.5978L96.8875 78.124C96.4966 79.6054 95.4828 82.0734 94.6351 83.6086L93.0923 86.4004L96.6429 89.8669L100.194 93.3341L97.153 96.4211C95.4803 98.1192 93.8247 99.5088 93.4743 99.5088C93.1239 99.5088 91.3758 98.066 89.591 96.3026L86.3444 93.0971L84.1852 94.3314C82.9978 95.0101 80.6003 96.0238 78.8579 96.5833L75.6899 97.6009L75.8983 102.357L76.1068 107.112H71.0146H65.9223L65.7373 102.288L65.5523 97.4634L61.5968 96.0327C59.4216 95.2464 57.1971 94.2339 56.6541 93.7827C55.8108 93.0832 55.1816 93.4425 52.3526 96.2361C50.5304 98.0362 48.7519 99.5088 48.4015 99.5088C48.0511 99.5088 46.3797 98.1034 44.688 96.3856L41.6118 93.2625L45.2024 89.8397L48.7924 86.4175L47.249 83.6169C46.3993 82.0772 45.3494 79.6054 44.9154 78.124L44.126 75.4311H39.1579H34.1893V70.6789V65.9267H39.1991H44.209L45.2797 62.5216C45.869 60.6493 46.8872 58.2992 47.5429 57.2993L48.7354 55.4815L45.262 51.9718L41.7892 48.4622L45.2443 45.0501L48.6986 41.6381L51.8666 45.0121L55.0346 48.3868L58.7095 46.7463C60.7306 45.844 63.1687 44.912 64.1267 44.6756C65.8438 44.2524 65.8691 44.1744 65.8691 39.2461V34.2456H70.9791H76.0897L75.9477 39.089ZM64.026 52.5091C60.2833 53.9316 55.3831 58.436 53.4696 62.2131C50.3029 68.4625 50.9403 76.5608 55.0454 82.228C63.5704 93.9963 82.0974 92.4116 88.479 79.3672C90.8449 74.5307 90.9501 67.8517 88.7375 62.9044C86.8646 58.7155 81.7718 53.9614 77.5482 52.4591C73.6643 51.0771 67.7332 51.0993 64.026 52.5091ZM75.7355 59.0259C77.9607 59.6988 81.0913 62.7643 82.5885 65.7366C85.1032 70.7296 82.9895 77.9098 77.9626 81.4505C75.6018 83.1138 74.7224 83.3514 70.9379 83.3514C67.1534 83.3514 66.274 83.1138 63.9132 81.4505C58.9629 77.9637 56.8632 71.0553 59.1409 65.7481C60.4899 62.604 64.1381 59.5164 67.5748 58.6097C70.5907 57.8138 71.9586 57.8835 75.7355 59.0259ZM128.595 74.7975C127.898 75.4945 127.328 76.8745 127.328 77.8642C127.328 83.2709 122.368 96.3895 117.829 102.987C114.733 107.487 109.234 113.12 104.547 116.595C100.656 119.481 92.0107 123.996 88.1489 125.161C86.8146 125.563 86.7366 125.48 87.3569 124.321C88.5601 122.074 88.1945 119.826 86.5016 119.054C85.6526 118.668 84.5241 118.517 83.9938 118.721C83.1327 119.051 77.8713 125.757 75.2039 129.923L74.1901 131.507L80.1802 135.784C86.0695 139.988 88.3124 140.807 89.8191 139.3C91.1313 137.988 90.7087 135.186 88.9954 133.838C86.9768 132.25 87.004 132.064 89.3236 131.599C92.8933 130.886 100.749 127.261 105.653 124.066C111.453 120.285 119.703 112.191 123.498 106.554C128.783 98.7053 132.723 88.4932 133.956 79.4432C134.341 76.6179 134.221 75.988 133.082 74.8494C131.428 73.195 130.212 73.1805 128.595 74.7975ZM6.10442 80.3417C1.661 86.83 1.2479 88.0187 2.87117 89.6426C4.34365 91.1145 6.67973 90.8579 8.08631 89.0692L9.32056 87.5003L10.7309 91.4453C18.5977 113.448 37.3148 129.458 59.7549 133.378C65.9116 134.453 67.7699 133.793 67.7699 130.528C67.7699 128.259 67.3308 128.05 58.7449 126.229C44.2831 123.159 31.3165 114.177 23.1704 101.584C20.328 97.1897 16.0551 87.6524 16.6582 87.0492C16.8236 86.8838 17.5136 87.0948 18.1922 87.5187C20.8831 89.1991 24.0827 86.7609 23.1292 83.7569C22.8244 82.7957 11.5597 74.1638 10.6106 74.1638C10.4591 74.1638 8.43099 76.9436 6.10442 80.3417Z" stroke="black" stroke-width="3"/>
</svg>
