<svg width="154" height="134" viewBox="0 0 154 134" fill="none" xmlns="http://www.w3.org/2000/svg">
<mask id="path-1-inside-1_693_828" fill="white">
<path fill-rule="evenodd" clip-rule="evenodd" d="M42.2222 0.327873C41.6039 0.559233 40.611 1.04897 40.0164 1.41604C39.4217 1.78343 30.6253 10.6692 20.469 21.163C6.46172 35.635 1.78828 40.6526 1.11465 41.9429C-1.39211 46.7431 0.471791 52.6535 5.27642 55.1417C7.15213 56.1131 7.4546 56.1758 9.77422 56.0749C11.5701 55.9966 12.6649 55.7687 13.7134 55.2547C15.6361 54.3128 51.8666 16.9594 53.2944 14.4471C54.1514 12.9393 54.2266 12.5667 54.222 9.85589C54.2182 7.42179 54.0939 6.65659 53.5123 5.48147C52.6052 3.64859 50.6353 1.66852 48.8687 0.814195C47.1381 -0.0227397 43.811 -0.266211 42.2222 0.327873ZM105.136 2.39832C101.688 4.1402 99.7677 7.3075 99.7677 11.2534C99.7677 14.7135 100.573 16.2433 104.572 20.382C106.487 22.3643 114.73 30.9035 122.889 39.3582C131.048 47.813 138.295 55.1851 138.995 55.7407C142.475 58.5062 147.471 58.2764 150.845 55.1957C153.164 53.079 153.996 51.1545 154 47.8984C154.003 45.1773 153.359 43.2848 151.798 41.429C150.854 40.3063 127.431 16.074 119.679 8.20034C116.849 5.32557 113.974 2.68123 113.29 2.32409C112.428 1.8738 111.283 1.63529 109.56 1.5471C107.257 1.4294 106.929 1.49244 105.136 2.39832ZM36.9174 38.0039C21.8268 53.5398 23.0339 51.8632 23.0037 57.3304C22.972 62.9905 24.2378 69.3568 26.4502 74.666C26.9703 75.9138 27.472 76.9349 27.5649 76.9349C27.6582 76.9349 28.3551 76.3635 29.1133 75.665C30.9878 73.939 32.8651 73.1561 35.1036 73.167C37.5012 73.1785 38.9591 73.8297 40.9623 75.7843C43.0305 77.8023 43.8362 79.3342 44.0463 81.6484L44.2105 83.4565L45.4884 83.4633C49.201 83.4832 53.5919 87.7247 54.1983 91.8767L54.4079 93.3099L56.065 93.4807C58.2504 93.7059 59.7866 94.5388 61.732 96.5527C63.692 98.5812 64.3311 99.8042 64.5527 101.949L64.7234 103.602L66.0032 103.799C68.4391 104.175 69.4596 104.679 71.2862 106.408C73.6615 108.657 74.581 110.574 74.585 113.286C74.5891 115.958 73.687 117.767 71.0481 120.379L69.0418 122.364L74.2039 127.467C77.043 130.273 79.8979 132.841 80.5479 133.172C82.2794 134.055 84.9985 134.257 87.0638 133.657C89.5342 132.939 91.1494 131.648 92.1625 129.579C92.9537 127.963 93.0046 127.634 92.8358 125.241C92.6739 122.948 92.7208 122.589 93.2465 122.114C93.788 121.624 94.0616 121.613 96.3405 121.982C98.6526 122.358 98.9504 122.342 100.307 121.781C103.336 120.527 104.494 116.782 103.454 111.608C103.139 110.041 103.162 109.775 103.658 109.228C104.393 108.415 104.933 108.449 107.099 109.439C109.299 110.446 112.661 110.59 114.284 109.749C115.447 109.146 116.632 107.651 117.133 106.158C117.628 104.679 117.574 100.924 117.03 99.1194C116.627 97.7809 116.627 97.5207 117.037 96.8962C117.45 96.2673 117.752 96.189 119.77 96.189C121.628 96.189 122.343 96.0347 123.724 95.335C126.849 93.7515 128.589 90.3019 128.292 86.2747C128.012 82.4677 127.638 82.0155 119.887 76.1225C116.094 73.2387 107.61 66.7752 101.033 61.7595C94.456 56.7438 88.8578 52.5066 88.5926 52.3436C88.2093 52.1079 86.6122 53.5535 80.8053 59.3912C72.1451 68.0975 71.7174 68.3891 67.5938 68.3891C65.1682 68.3891 64.5878 68.2795 63.2294 67.5656C61.3064 66.555 59.2352 64.3629 58.3561 62.4073C57.8724 61.3313 57.6908 60.281 57.6731 58.4571C57.6361 54.6066 58.0701 53.9569 67.4182 43.8727L75.4682 35.1888L74.502 33.9702C73.1964 32.3233 69.9007 29.6296 67.4384 28.1973C63.1069 25.6772 57.6473 24.153 52.9266 24.1453L50.3826 24.1412L36.9174 38.0039ZM98.5842 24.7847C92.3954 25.5875 86.6103 28.683 81.3804 33.99C74.5922 40.8778 62.0416 54.8063 61.456 56.1016C59.7403 59.8956 62.7311 64.6417 67.1018 65.0613C69.9778 65.3374 70.8411 64.697 79.3536 55.9677C85.6538 49.5073 87.2239 48.0543 87.9019 48.0564C88.5155 48.0586 93.738 51.8672 107.916 62.6523C118.467 70.6785 127.162 77.2454 127.238 77.2454C127.516 77.2454 129.27 72.6633 130.031 69.9475C131.116 66.0774 131.438 64.2712 131.746 60.3204C132.213 54.3476 133.636 56.3954 117.191 39.3865C100.981 22.6211 103.007 24.2111 98.5842 24.7847ZM32.7777 77.197C31.6391 77.8932 24.0389 85.7328 23.2468 87.0278C22.5654 88.1421 22.5017 90.3004 23.1156 91.4687C23.6242 92.4367 25.6243 94.4018 26.6178 94.9102C27.5631 95.3934 29.0832 95.3434 30.2498 94.7903C31.5013 94.1969 39.7876 85.5682 40.3484 84.2741C41.3372 81.9922 40.1864 79.083 37.5988 77.3231C36.3081 76.4451 34.1014 76.3874 32.7777 77.197ZM43.3429 87.3045C42.8275 87.529 40.344 89.8491 37.8242 92.4609C32.9248 97.5387 32.3431 98.4868 32.7613 100.714C33.0709 102.362 35.7617 105.128 37.4176 105.501C39.6856 106.011 40.6729 105.384 45.4959 100.368C50.2532 95.4189 51.1302 94.0599 50.805 92.1376C50.5287 90.5029 48.6977 88.1855 47.1157 87.4678C45.6121 86.7856 44.6323 86.7433 43.3429 87.3045ZM55.1595 96.9841C54.9885 97.0294 54.4937 97.1437 54.0597 97.2381C53.1445 97.4375 44.568 105.918 43.7355 107.447C43.078 108.655 43.0295 110.814 43.6338 111.981C44.3594 113.383 46.7533 115.384 47.9799 115.613C49.9551 115.984 50.6468 115.551 55.121 111.148C60.0164 106.33 61.2213 104.711 61.2213 102.948C61.2213 100.709 58.9554 97.6949 56.9414 97.2545C56.4741 97.1524 55.9522 97.0313 55.7812 96.9853C55.6103 96.9393 55.3305 96.9387 55.1595 96.9841ZM63.3973 107.821C62.9698 108.056 60.5632 110.426 58.0493 113.088C53.1921 118.229 52.8331 118.841 53.2791 121.216C53.5095 122.444 55.5111 124.835 56.9152 125.56C58.0179 126.13 59.7717 126.124 60.8868 125.548C61.8874 125.031 69.7043 117.012 70.5855 115.598C70.9545 115.007 71.1668 114.088 71.1675 113.081C71.1684 111.749 70.9965 111.27 70.0903 110.085C69.4972 109.309 68.5367 108.38 67.9554 108.021C66.7309 107.265 64.5798 107.171 63.3973 107.821Z"/>
</mask>
<path fill-rule="evenodd" clip-rule="evenodd" d="M42.2222 0.327873C41.6039 0.559233 40.611 1.04897 40.0164 1.41604C39.4217 1.78343 30.6253 10.6692 20.469 21.163C6.46172 35.635 1.78828 40.6526 1.11465 41.9429C-1.39211 46.7431 0.471791 52.6535 5.27642 55.1417C7.15213 56.1131 7.4546 56.1758 9.77422 56.0749C11.5701 55.9966 12.6649 55.7687 13.7134 55.2547C15.6361 54.3128 51.8666 16.9594 53.2944 14.4471C54.1514 12.9393 54.2266 12.5667 54.222 9.85589C54.2182 7.42179 54.0939 6.65659 53.5123 5.48147C52.6052 3.64859 50.6353 1.66852 48.8687 0.814195C47.1381 -0.0227397 43.811 -0.266211 42.2222 0.327873ZM105.136 2.39832C101.688 4.1402 99.7677 7.3075 99.7677 11.2534C99.7677 14.7135 100.573 16.2433 104.572 20.382C106.487 22.3643 114.73 30.9035 122.889 39.3582C131.048 47.813 138.295 55.1851 138.995 55.7407C142.475 58.5062 147.471 58.2764 150.845 55.1957C153.164 53.079 153.996 51.1545 154 47.8984C154.003 45.1773 153.359 43.2848 151.798 41.429C150.854 40.3063 127.431 16.074 119.679 8.20034C116.849 5.32557 113.974 2.68123 113.29 2.32409C112.428 1.8738 111.283 1.63529 109.56 1.5471C107.257 1.4294 106.929 1.49244 105.136 2.39832ZM36.9174 38.0039C21.8268 53.5398 23.0339 51.8632 23.0037 57.3304C22.972 62.9905 24.2378 69.3568 26.4502 74.666C26.9703 75.9138 27.472 76.9349 27.5649 76.9349C27.6582 76.9349 28.3551 76.3635 29.1133 75.665C30.9878 73.939 32.8651 73.1561 35.1036 73.167C37.5012 73.1785 38.9591 73.8297 40.9623 75.7843C43.0305 77.8023 43.8362 79.3342 44.0463 81.6484L44.2105 83.4565L45.4884 83.4633C49.201 83.4832 53.5919 87.7247 54.1983 91.8767L54.4079 93.3099L56.065 93.4807C58.2504 93.7059 59.7866 94.5388 61.732 96.5527C63.692 98.5812 64.3311 99.8042 64.5527 101.949L64.7234 103.602L66.0032 103.799C68.4391 104.175 69.4596 104.679 71.2862 106.408C73.6615 108.657 74.581 110.574 74.585 113.286C74.5891 115.958 73.687 117.767 71.0481 120.379L69.0418 122.364L74.2039 127.467C77.043 130.273 79.8979 132.841 80.5479 133.172C82.2794 134.055 84.9985 134.257 87.0638 133.657C89.5342 132.939 91.1494 131.648 92.1625 129.579C92.9537 127.963 93.0046 127.634 92.8358 125.241C92.6739 122.948 92.7208 122.589 93.2465 122.114C93.788 121.624 94.0616 121.613 96.3405 121.982C98.6526 122.358 98.9504 122.342 100.307 121.781C103.336 120.527 104.494 116.782 103.454 111.608C103.139 110.041 103.162 109.775 103.658 109.228C104.393 108.415 104.933 108.449 107.099 109.439C109.299 110.446 112.661 110.59 114.284 109.749C115.447 109.146 116.632 107.651 117.133 106.158C117.628 104.679 117.574 100.924 117.03 99.1194C116.627 97.7809 116.627 97.5207 117.037 96.8962C117.45 96.2673 117.752 96.189 119.77 96.189C121.628 96.189 122.343 96.0347 123.724 95.335C126.849 93.7515 128.589 90.3019 128.292 86.2747C128.012 82.4677 127.638 82.0155 119.887 76.1225C116.094 73.2387 107.61 66.7752 101.033 61.7595C94.456 56.7438 88.8578 52.5066 88.5926 52.3436C88.2093 52.1079 86.6122 53.5535 80.8053 59.3912C72.1451 68.0975 71.7174 68.3891 67.5938 68.3891C65.1682 68.3891 64.5878 68.2795 63.2294 67.5656C61.3064 66.555 59.2352 64.3629 58.3561 62.4073C57.8724 61.3313 57.6908 60.281 57.6731 58.4571C57.6361 54.6066 58.0701 53.9569 67.4182 43.8727L75.4682 35.1888L74.502 33.9702C73.1964 32.3233 69.9007 29.6296 67.4384 28.1973C63.1069 25.6772 57.6473 24.153 52.9266 24.1453L50.3826 24.1412L36.9174 38.0039ZM98.5842 24.7847C92.3954 25.5875 86.6103 28.683 81.3804 33.99C74.5922 40.8778 62.0416 54.8063 61.456 56.1016C59.7403 59.8956 62.7311 64.6417 67.1018 65.0613C69.9778 65.3374 70.8411 64.697 79.3536 55.9677C85.6538 49.5073 87.2239 48.0543 87.9019 48.0564C88.5155 48.0586 93.738 51.8672 107.916 62.6523C118.467 70.6785 127.162 77.2454 127.238 77.2454C127.516 77.2454 129.27 72.6633 130.031 69.9475C131.116 66.0774 131.438 64.2712 131.746 60.3204C132.213 54.3476 133.636 56.3954 117.191 39.3865C100.981 22.6211 103.007 24.2111 98.5842 24.7847ZM32.7777 77.197C31.6391 77.8932 24.0389 85.7328 23.2468 87.0278C22.5654 88.1421 22.5017 90.3004 23.1156 91.4687C23.6242 92.4367 25.6243 94.4018 26.6178 94.9102C27.5631 95.3934 29.0832 95.3434 30.2498 94.7903C31.5013 94.1969 39.7876 85.5682 40.3484 84.2741C41.3372 81.9922 40.1864 79.083 37.5988 77.3231C36.3081 76.4451 34.1014 76.3874 32.7777 77.197ZM43.3429 87.3045C42.8275 87.529 40.344 89.8491 37.8242 92.4609C32.9248 97.5387 32.3431 98.4868 32.7613 100.714C33.0709 102.362 35.7617 105.128 37.4176 105.501C39.6856 106.011 40.6729 105.384 45.4959 100.368C50.2532 95.4189 51.1302 94.0599 50.805 92.1376C50.5287 90.5029 48.6977 88.1855 47.1157 87.4678C45.6121 86.7856 44.6323 86.7433 43.3429 87.3045ZM55.1595 96.9841C54.9885 97.0294 54.4937 97.1437 54.0597 97.2381C53.1445 97.4375 44.568 105.918 43.7355 107.447C43.078 108.655 43.0295 110.814 43.6338 111.981C44.3594 113.383 46.7533 115.384 47.9799 115.613C49.9551 115.984 50.6468 115.551 55.121 111.148C60.0164 106.33 61.2213 104.711 61.2213 102.948C61.2213 100.709 58.9554 97.6949 56.9414 97.2545C56.4741 97.1524 55.9522 97.0313 55.7812 96.9853C55.6103 96.9393 55.3305 96.9387 55.1595 96.9841ZM63.3973 107.821C62.9698 108.056 60.5632 110.426 58.0493 113.088C53.1921 118.229 52.8331 118.841 53.2791 121.216C53.5095 122.444 55.5111 124.835 56.9152 125.56C58.0179 126.13 59.7717 126.124 60.8868 125.548C61.8874 125.031 69.7043 117.012 70.5855 115.598C70.9545 115.007 71.1668 114.088 71.1675 113.081C71.1684 111.749 70.9965 111.27 70.0903 110.085C69.4972 109.309 68.5367 108.38 67.9554 108.021C66.7309 107.265 64.5798 107.171 63.3973 107.821Z" stroke="black" stroke-width="6" mask="url(#path-1-inside-1_693_828)"/>
</svg>
