<svg width="121" height="144" viewBox="0 0 121 144" fill="none" xmlns="http://www.w3.org/2000/svg">
<path d="M66.567 76.1195L66.5671 76.1196C66.9447 76.9419 67.2754 77.4249 67.6508 77.7838C68.0285 78.145 68.5397 78.4649 69.4069 78.8273C70.6463 79.3451 71.8005 79.4112 72.8394 79.1218C73.8857 78.8305 74.9264 78.1471 75.8693 76.9825C75.8693 76.9825 75.8693 76.9825 75.8693 76.9824L76.7072 75.9474L76.8121 50.1363L76.9193 23.7977L76.9339 20.2069L79.4779 22.7411L90.5856 33.8059C95.2282 38.4305 98.0456 41.1898 99.8665 42.8419C101.754 44.5539 102.373 44.8795 102.663 44.9646C107.3 46.324 111.291 41.0372 108.512 36.7455C108.512 36.7466 108.513 36.7472 108.513 36.7472C108.512 36.7474 108.486 36.7102 108.411 36.6202C108.332 36.5239 108.222 36.3963 108.079 36.2359C107.796 35.9159 107.405 35.4906 106.917 34.9691C105.941 33.9275 104.597 32.5263 102.979 30.8637C99.7443 27.5396 95.4323 23.1871 90.825 18.6101L91.8821 17.5459L90.8249 18.6101C83.6876 11.5195 79.454 7.35625 76.8368 4.91732C75.5253 3.69505 74.6519 2.93641 74.0401 2.46628C73.4119 1.98368 73.1692 1.89344 73.1099 1.87659C72.3373 1.65728 71.8418 1.56623 71.4275 1.54776C71.0319 1.53014 70.6419 1.57568 70.0827 1.71767L66.567 76.1195ZM66.567 76.1195C66.3879 75.7296 66.1915 75.2392 66.099 70.3854C66.0087 65.6468 66.0045 56.9933 66.0144 40.5883C66.0221 27.8299 66.0572 19.1077 66.1321 13.4677C66.1695 10.6459 66.2168 8.60804 66.2748 7.22661C66.3039 6.53416 66.3351 6.02302 66.3673 5.66765C66.3835 5.48926 66.3986 5.36613 66.4109 5.28722C66.4125 5.27738 66.4139 5.2688 66.4151 5.26146M66.567 76.1195L66.4151 5.26146M66.4151 5.26146C66.7337 4.46221 67.2931 3.65797 67.9799 3.00004C68.6925 2.31744 69.4514 1.87804 70.0826 1.7177L66.4151 5.26146ZM40.8702 1.95905L40.8702 1.95904C41.2393 1.82747 41.6358 1.70579 41.9696 1.61775C42.1366 1.57372 42.2769 1.541 42.3829 1.51997C42.4486 1.50693 42.4845 1.50176 42.4967 1.49999C42.8455 1.49795 43.4969 1.62934 44.2668 1.92492C45.0371 2.22066 45.7181 2.601 46.1104 2.93101L46.1104 2.93105C46.3255 3.11198 46.5217 3.24811 46.6635 3.34571C46.8213 3.45431 46.8797 3.49471 46.9304 3.5371C46.9322 3.53859 46.9342 3.54011 46.9364 3.54179C46.9595 3.55946 47.0056 3.59472 47.0799 3.8024C47.1856 4.09754 47.3077 4.64184 47.4154 5.68351C47.5215 6.70866 47.6065 8.13436 47.6729 10.147C47.9033 17.1268 47.9009 30.7898 47.896 58.1945C47.8953 62.4634 47.8945 67.0659 47.8945 72.0284V138.628L47.2712 139.553L47.2711 139.553C45.8079 141.724 43.5019 142.6 41.1755 141.992C41.086 141.968 40.8487 141.891 40.225 141.416C39.5981 140.938 38.6815 140.138 37.2364 138.777C34.3551 136.064 29.525 131.268 20.998 122.74C12.7695 114.51 7.96725 109.666 5.17179 106.709C3.77086 105.227 2.90347 104.249 2.36794 103.572C1.81332 102.871 1.71673 102.615 1.70184 102.564L0.349881 102.957L1.70182 102.564C1.06697 100.381 1.95257 97.9676 4.183 96.4646L4.18317 96.4645C4.65711 96.1451 5.55784 95.8796 6.65805 95.8375C7.7159 95.797 8.70091 95.9736 9.34021 96.2786C9.35058 96.2882 9.42876 96.3442 9.60366 96.4901C9.82692 96.6763 10.1305 96.942 10.5102 97.2842C11.2674 97.9667 12.2916 98.9215 13.5123 100.082C15.9518 102.401 19.1521 105.52 22.5225 108.877L34.8008 121.105L37.3593 123.653V120.042V62.7065C37.3593 38.8512 37.3816 24.4724 37.4589 15.9284C37.4976 11.6537 37.5499 8.85527 37.6194 7.06602C37.6542 6.16922 37.6925 5.54729 37.7331 5.12893C37.7644 4.80509 37.7916 4.67773 37.7927 4.66122C38.3129 3.48573 39.3958 2.48461 40.8702 1.95905ZM37.7694 4.71491L37.7695 4.71476L37.7694 4.71491ZM74.4646 96.485L74.4644 96.4851C74.0355 96.7771 73.068 97.0555 71.8468 97.1064C70.6395 97.1567 69.5837 96.9676 69.0334 96.6831C67.3817 95.829 66.4415 94.0871 66.3745 92.186C66.3076 90.2851 67.1233 88.4419 68.7301 87.4228C71.179 85.8699 74.5022 86.5125 76.0813 88.726C76.3723 89.134 76.4916 89.3893 76.5689 89.7356C76.662 90.1522 76.705 90.754 76.705 91.8961C76.705 93.3854 76.5588 94.1586 76.2846 94.7104C76.0213 95.2403 75.5493 95.7468 74.4646 96.485ZM115.476 86.992C119.368 88.7002 119.695 94.2583 116.144 96.3397L114.855 97.0952H101.04C94.2029 97.0952 90.6832 97.0864 88.6958 96.9854C87.7026 96.935 87.1777 96.8646 86.8489 96.7867C86.5705 96.7207 86.4116 96.6461 86.1401 96.4935C83.2468 94.8672 82.5563 91.0435 84.8774 88.285L83.8474 87.4183L84.8774 88.285C85.3001 87.7826 86.0628 87.198 86.4716 87.0012C86.4958 86.9963 86.5761 86.9785 86.739 86.9552C86.986 86.9198 87.3272 86.884 87.7612 86.8494C88.6261 86.7804 89.789 86.7215 91.1623 86.6738C93.9047 86.5785 97.428 86.5298 100.96 86.5284C104.491 86.5271 108.017 86.5731 110.762 86.6663C112.137 86.7129 113.303 86.7709 114.17 86.8393C114.606 86.8736 114.949 86.9091 115.198 86.9444C115.379 86.9701 115.46 86.9892 115.476 86.992ZM74.4646 117.368L74.4644 117.368C74.0355 117.66 73.068 117.938 71.8468 117.989C70.6395 118.04 69.5836 117.85 69.0334 117.566C67.3817 116.712 66.4415 114.97 66.3745 113.069C66.3076 111.168 67.1234 109.325 68.7302 108.306C71.1791 106.753 74.5023 107.395 76.0813 109.609C76.3723 110.017 76.4916 110.272 76.5689 110.618C76.662 111.035 76.705 111.637 76.705 112.779C76.705 114.268 76.5588 115.041 76.2846 115.593C76.0213 116.123 75.5493 116.63 74.4646 117.368ZM115.476 107.875C119.368 109.583 119.695 115.141 116.144 117.223L114.855 117.978H101.04C94.2029 117.978 90.6832 117.969 88.6958 117.868C87.7026 117.818 87.1777 117.747 86.8489 117.669C86.5705 117.604 86.4116 117.529 86.1401 117.376C83.2468 115.75 82.5563 111.926 84.8774 109.168L83.8243 108.282L84.8774 109.168C85.3001 108.665 86.0628 108.081 86.4715 107.884C86.4958 107.879 86.5761 107.861 86.739 107.838C86.986 107.803 87.3272 107.767 87.7612 107.732C88.6261 107.663 89.789 107.604 91.1623 107.557C93.9047 107.461 97.428 107.413 100.96 107.411C104.491 107.41 108.017 107.456 110.762 107.549C112.137 107.596 113.303 107.654 114.17 107.722C114.606 107.756 114.949 107.792 115.198 107.827C115.379 107.853 115.46 107.872 115.476 107.875ZM69.1164 128.745L69.1168 128.745C69.69 128.495 70.5644 128.345 71.5154 128.366C72.4705 128.387 73.308 128.577 73.8221 128.839L73.8223 128.84C78.9526 131.456 77.1522 138.861 71.456 138.861C66.7232 138.861 64.3424 133.774 67.4751 130.051C67.9147 129.528 68.7219 128.917 69.1164 128.745ZM115.476 128.758C119.368 130.466 119.696 136.024 116.144 138.105L114.855 138.861H101.04C94.2029 138.861 90.6832 138.852 88.6958 138.751C87.7026 138.701 87.1777 138.63 86.8489 138.552C86.5705 138.486 86.4116 138.412 86.1403 138.259C83.2468 136.633 82.5562 132.809 84.8774 130.051C85.3001 129.548 86.0627 128.964 86.4715 128.767C86.4956 128.762 86.576 128.744 86.739 128.721C86.986 128.685 87.3272 128.65 87.7612 128.615C88.6261 128.546 89.789 128.487 91.1623 128.439C93.9047 128.344 97.428 128.295 100.96 128.294C104.491 128.293 108.017 128.339 110.762 128.432C112.137 128.479 113.303 128.537 114.17 128.605C114.606 128.639 114.949 128.675 115.198 128.71C115.379 128.736 115.46 128.755 115.476 128.758Z" stroke="black" stroke-width="3"/>
</svg>
