<svg width="158" height="155" viewBox="0 0 158 155" fill="none" xmlns="http://www.w3.org/2000/svg">
<g clip-path="url(#clip0_1179_689)">
<path d="M157.985 130.536V152.4C157.985 154.582 157.769 154.865 155.704 154.878C142.95 154.878 130.183 154.878 117.429 154.973C115.918 154.973 115.634 154.259 115.648 152.979C115.742 144.425 115.931 135.884 115.742 127.384C115.742 126.926 115.985 126.36 115.513 126.037C115.04 125.713 114.541 126.279 114.163 126.602C105.188 134.133 94.58 137.622 83.1217 139.117C81.4659 139.428 79.7541 139.203 78.2348 138.477C76.7155 137.75 75.4678 136.559 74.6731 135.076C73.9674 133.647 73.726 132.034 73.9825 130.462C74.2389 128.89 74.9805 127.437 76.1038 126.306C77.7424 124.8 79.8698 123.935 82.096 123.868C89.4518 123.175 96.4994 120.58 102.543 116.337C106.464 113.211 109.998 109.63 113.07 105.668C115.683 102.319 118.759 99.3567 122.207 96.8713C124.993 94.9437 128.268 93.8416 131.654 93.6921C135.78 93.4359 139.92 93.5306 144.03 93.975C147.652 94.4346 151.003 96.1351 153.508 98.7862C156.014 101.437 157.52 104.874 157.769 108.51C158.242 115.825 157.81 123.181 157.985 130.536Z" fill="#010101"/>
<path d="M0.10478 130.846C0.10478 124.03 0.212749 117.213 0.10478 110.397C0.0154941 106.291 1.47815 102.303 4.20158 99.2248C6.92501 96.147 10.7096 94.2054 14.8022 93.7866C19.0454 93.4162 23.3129 93.4162 27.5561 93.7866C33.4809 94.2985 37.8537 97.7337 41.7001 101.869C44.6018 104.968 47.2201 108.322 50.0812 111.447C55.4123 117.169 62.3836 121.107 70.0421 122.723C71.5402 123.073 72.1205 123.262 70.9868 124.865C69.7433 126.561 68.9848 128.562 68.7922 130.654C68.5997 132.747 68.9804 134.853 69.8937 136.746C70.0691 137.137 70.555 137.595 70.1096 138.026C69.6643 138.457 69.3133 138.026 68.9085 138.026C59.785 136.086 51.2554 132.826 44.035 126.71C43.6166 126.347 43.1982 125.646 42.5503 125.996C41.9025 126.347 42.3344 126.98 42.3209 127.492C41.997 135.803 42.3209 144.115 42.3209 152.427C42.3209 154.946 42.3209 155.027 39.7027 155.027C27.1782 155.027 14.6403 155.027 2.11578 155.027C0.361277 155.027 0.0103098 154.286 0.023806 152.777C0.023806 145.476 0.023806 138.174 0.023806 130.873L0.10478 130.846Z" fill="#010101"/>
<path d="M45.845 0H84.3227C86.1227 0.293503 87.8154 1.04876 89.2349 2.19175C90.6545 3.33473 91.7521 4.82621 92.4204 6.52007C93.1374 8.61905 93.4041 10.8451 93.2032 13.0536C93.2032 14.1852 92.5014 14.4008 91.5297 14.4008C86.5496 14.4008 81.583 14.4008 76.6029 14.3334C70.5431 14.3334 67.1556 17.4857 67.1556 23.4803C67.1556 29.475 67.223 35.3216 67.3715 41.2489C67.3715 42.7307 66.8721 43.1079 65.5225 43.0675C63.0122 42.9867 60.4884 43.0675 57.9781 43.0675C57.5711 43.0404 57.1639 43.1178 56.7954 43.2923C56.4268 43.4668 56.1091 43.7326 55.8727 44.0644C52.8765 47.7151 49.813 51.2984 46.7493 54.8414C46.3039 55.3533 45.953 56.2828 45.1298 55.9999C44.3065 55.717 44.5629 54.6528 44.5629 53.9388C44.5629 50.7731 44.5629 47.6073 44.5629 44.509C44.5629 43.4178 44.3334 43.081 43.2132 43.0945C40.5865 43.2921 37.9468 43.2335 35.3315 42.9194C30.3784 41.9899 27.2338 38.7837 26.9773 33.5973C26.5251 25.5187 26.5882 17.4196 27.1663 9.34904C27.6522 3.65071 31.7145 0.323303 37.4504 0.161648C40.2171 0.0673496 43.0378 0.32331 45.845 0Z" fill="#010101"/>
<path d="M99.4284 18.6305C105.772 18.6305 112.128 18.6305 118.472 18.6305C119.818 18.6089 121.158 18.8092 122.439 19.2232C123.545 19.6147 124.525 20.2949 125.277 21.1928C126.03 22.0908 126.527 23.1737 126.718 24.3288C126.902 25.3285 126.993 26.3433 126.988 27.3598C126.988 33.5117 126.988 39.6681 126.988 45.8289C127.058 46.8781 126.905 47.9302 126.537 48.9155C126.168 49.9007 125.594 50.7964 124.853 51.5432C124.111 52.2899 123.219 52.8705 122.235 53.2463C121.251 53.6222 120.198 53.7847 119.146 53.723C115.975 53.7904 112.803 53.8712 109.632 53.723C107.823 53.6287 107.432 54.2484 107.567 55.8919C107.668 57.6866 107.668 59.4856 107.567 61.2804C107.567 61.8866 107.918 62.7757 107.189 63.0856C106.46 63.3954 106.136 62.4928 105.731 62.0348C103.68 59.6234 101.682 57.2121 99.6443 54.7469C99.3919 54.3878 99.0501 54.1007 98.6524 53.914C98.2547 53.7274 97.815 53.6476 97.377 53.6826C91.6276 53.7634 85.8783 53.7635 80.1289 53.7769C75.4592 53.7769 72.517 51.2039 72.3011 46.5429C71.9772 39.6725 72.3011 32.8022 72.517 25.9319C72.706 21.0418 75.5132 18.6844 80.4798 18.6574C86.769 18.6574 93.0582 18.6574 99.3745 18.6574L99.4284 18.6305Z" fill="#010101"/>
<path d="M154.805 70.8726C154.839 74.4276 153.815 77.9128 151.862 80.886C149.91 83.8591 147.116 86.1863 143.836 87.572C140.556 88.9578 136.937 89.3398 133.439 88.6695C129.941 87.9993 126.722 86.307 124.189 83.8073C121.656 81.3077 119.924 78.1133 119.213 74.6297C118.502 71.1461 118.844 67.5301 120.195 64.2407C121.546 60.9512 123.846 58.1365 126.803 56.1538C129.759 54.171 133.239 53.1095 136.801 53.104C139.156 53.0737 141.495 53.511 143.679 54.3907C145.864 55.2704 147.852 56.5749 149.527 58.2282C151.203 59.8816 152.532 61.8508 153.438 64.0215C154.344 66.1922 154.808 68.5211 154.805 70.8726Z" fill="#010101"/>
<path d="M39.1087 71.0335C38.9804 75.7021 37.0324 80.1364 33.6788 83.3932C30.3253 86.6501 25.8309 88.4723 21.152 88.4723C16.4731 88.4723 11.9787 86.6501 8.62518 83.3932C5.27163 80.1364 3.32355 75.7021 3.19531 71.0335C3.32355 66.365 5.27163 61.9306 8.62518 58.6738C11.9787 55.417 16.4731 53.5947 21.152 53.5947C25.8309 53.5947 30.3253 55.417 33.6788 58.6738C37.0324 61.9306 38.9804 66.365 39.1087 71.0335Z" fill="#010101"/>
</g>
<defs>
<clipPath id="clip0_1179_689">
<rect width="158" height="155" fill="white"/>
</clipPath>
</defs>
</svg>
