<svg width="111" height="112" viewBox="0 0 111 112" fill="none" xmlns="http://www.w3.org/2000/svg">
<g clip-path="url(#clip0_1176_604)">
<path d="M110.984 77.5851C108.863 82.4553 104.499 85.0185 100.298 87.7167C89.2186 94.8398 78.1934 102.017 66.9914 108.951C64.3759 110.746 61.3132 111.792 58.1386 111.976C54.9639 112.159 51.7997 111.472 48.9921 109.99C42.1948 106.658 35.3024 103.379 28.6002 99.7774C27.3958 98.9801 25.962 98.5948 24.5168 98.68C23.0715 98.7652 21.6938 99.3163 20.593 100.25C19.0296 101.396 17.3439 102.368 15.6717 103.366C13.9996 104.364 12.5993 104.094 11.7429 102.233C7.8956 93.8819 4.08915 85.5312 0.228278 77.1804C-0.560209 75.4671 0.5953 74.4823 1.72365 74.0506C8.87442 70.8667 15.8077 67.0354 23.475 65.1602C31.6318 63.1635 39.4759 63.8111 44.805 71.2715C49.4815 77.8549 56.51 77.774 63.2937 78.6239C65.3057 78.8803 67.3721 78.6239 69.3841 79.1096C73.1362 80.0944 74.8219 81.8886 74.5636 85.2883C74.4224 86.7062 73.7393 88.0165 72.6545 88.95C71.5698 89.8834 70.1659 90.369 68.7316 90.3069C59.1473 90.3069 49.4816 91.2647 40.0877 88.4586C38.1029 87.865 36.5667 88.4586 36.0909 90.3204C35.6151 92.1821 37.1512 93.0185 38.701 93.3693C49.102 95.8575 59.8738 96.4381 70.4852 95.0826C72.2682 94.8868 73.9684 94.2308 75.4163 93.1798C76.8641 92.1288 78.0091 90.7197 78.7372 89.0927C79.1687 88.1242 79.8779 87.3032 80.7764 86.7318C87.5918 82.3069 94.4117 77.8819 101.236 73.457C102.694 72.471 104.376 71.8592 106.13 71.6762C108.727 71.4603 109.869 73.1332 110.997 74.9274L110.984 77.5851Z" fill="black"/>
<path d="M60.0445 2.02408C62.138 3.60249 61.8661 6.07126 62.1788 8.18931C62.4371 10.024 62.8993 11.4136 64.8977 12.1421C65.3643 12.3495 65.8825 12.414 66.3862 12.3275C66.8899 12.241 67.3562 12.0074 67.7254 11.6564C74.5227 6.81326 73.1632 6.86722 78.8186 12.4524C81.5375 15.1505 81.5375 15.2315 79.2536 18.3748C78.6283 19.2382 78.0165 20.1016 77.4183 20.9785C75.6646 23.4743 76.8066 25.9027 79.7566 26.5502C86.9618 28.1151 86.921 26.2129 86.8259 34.901C86.8259 38.3276 86.3908 38.7998 82.9786 39.3124C81.755 39.5013 80.5179 39.6632 79.308 39.9195C78.7252 40.0328 78.1812 40.2916 77.7272 40.6715C77.2733 41.0513 76.9243 41.5398 76.7135 42.0907C76.5026 42.6416 76.4367 43.2367 76.5219 43.8199C76.6072 44.4031 76.8409 44.955 77.2008 45.4237C81.8502 51.8723 81.9453 50.82 76.4123 56.2163C73.5575 59.0224 73.5303 59.0224 70.2268 56.6615C69.3703 56.0409 68.5003 55.4338 67.6167 54.8268C65.1696 53.1539 62.6003 54.3141 62.1788 57.2955C61.0912 64.2433 61.0913 64.2433 55.5582 64.2433C49.6446 64.2433 49.4543 64.1354 48.7609 58.0915C48.7931 57.2291 48.5465 56.3791 48.0574 55.6656C47.5683 54.952 46.8621 54.4123 46.042 54.1252C44.3835 53.4372 43.595 54.3276 42.5482 55.0426C36.2403 59.3192 37.2734 59.0089 32.3794 54.1792C29.2118 51.0493 29.2118 51.0358 31.7948 47.4338L33.6437 44.8571C33.9427 44.4022 34.1255 43.8818 34.1764 43.3411C34.2274 42.8003 34.1449 42.2554 33.9361 41.7534C33.7273 41.2513 33.3985 40.8073 32.978 40.4596C32.5576 40.1118 32.0582 39.8709 31.523 39.7576C29.992 39.3576 28.4398 39.0423 26.8736 38.8133C24.6712 38.6379 23.978 37.4642 24.0323 35.4946C24.0323 34.6042 24.0323 33.7138 24.0323 32.7964C23.8148 26.0511 24.9839 27.4001 29.946 26.4827C31.8492 26.132 33.467 25.8757 34.1739 23.6902C34.3731 23.2298 34.4392 22.7233 34.3648 22.2277C34.2904 21.7321 34.0783 21.2668 33.7524 20.8841C28.6817 13.7745 29.3206 15.3394 34.7856 9.59235C36.6617 7.60922 38.3338 7.28544 40.4002 9.25509C41.3027 9.96699 42.2569 10.6118 43.2551 11.1843C45.6613 12.8841 48.1491 11.9263 48.6929 9.05273C49.1113 7.62543 49.4204 6.16876 49.6174 4.69522C49.6614 4.1398 49.8418 3.60353 50.1427 3.13321C50.4437 2.66289 50.856 2.27282 51.3439 1.99707L60.0445 2.02408Z" stroke="black" stroke-width="3" stroke-miterlimit="10"/>
<path d="M75.8828 76.7084C80.3826 74.0103 84.597 71.2312 88.9609 68.7624C90.0884 68.1292 91.3565 67.7831 92.6517 67.7548C93.9469 67.7266 95.229 68.0171 96.3835 68.6005C97.6614 69.1941 98.0828 69.6393 96.533 70.6106C91.2311 73.9294 85.9973 77.356 80.7905 80.8366C79.7301 81.5381 79.2272 81.727 78.6834 80.3239C78.0615 78.9098 77.0999 77.6685 75.8828 76.7084Z" fill="black"/>
<path d="M84.0818 65.6458C79.4188 68.5598 75.4357 71.8111 70.8679 73.6324C67.8091 74.8465 63.921 74.0506 59.9922 73.0657C67.7139 69.3558 73.6955 61.8684 84.0818 65.6458Z" fill="black"/>
<path d="M55.2057 47.3117C51.4591 47.2514 47.8877 45.7274 45.2662 43.0705C42.6448 40.4135 41.1849 36.8379 41.2033 33.1195C41.2066 30.3038 42.0545 27.5529 43.6391 25.2172C45.2237 22.8816 47.4732 21.067 50.1009 20.0048C52.7285 18.9425 55.6154 18.6807 58.3936 19.2527C61.1718 19.8246 63.7155 21.2045 65.7005 23.2164C67.6855 25.2283 69.0219 27.7811 69.5394 30.5495C70.0569 33.318 69.7322 36.1767 68.6065 38.7612C67.4808 41.3458 65.6051 43.5392 63.2185 45.062C60.8319 46.5848 58.0425 47.368 55.2057 47.3117V47.3117Z" stroke="black" stroke-width="2" stroke-miterlimit="10"/>
</g>
<defs>
<clipPath id="clip0_1176_604">
<rect width="111" height="112" fill="white"/>
</clipPath>
</defs>
</svg>
