<svg id="Layer_1" data-name="Layer 1" xmlns="http://www.w3.org/2000/svg" viewBox="0 0 107.48 24.86"><defs><style>.cls-1{fill:#874312;stroke:#874312;}.cls-2{fill:#d4ae5e;}.cls-2,.cls-3{fill-rule:evenodd;}.cls-3{fill:#00363d;}.cls-4{font-size:12px;font-family:Arial-BoldMT, Arial;font-weight:700;}</style></defs><path class="cls-1" d="M24,11c0,3.22,0,7.72-1.5,11.41A10.12,10.12,0,0,1,19,27.05a11.56,11.56,0,0,1-6.83,1.88,11.26,11.26,0,0,1,0-22.51,21.05,21.05,0,0,0,4.7-.67l.46-.1a17.47,17.47,0,0,1,3.35-.58,2.52,2.52,0,0,1,2.36,1.07C23.65,7,24,8.48,24,11Z" transform="translate(-0.45 -4.57)"/><path class="cls-2" d="M5.39,10.13l15,14.94V10.13Z" transform="translate(-0.45 -4.57)"/><path class="cls-3" d="M4.52,18.64,11,25.11V18.64Z" transform="translate(-0.45 -4.57)"/><text class="cls-4" transform="translate(34.12 17.26)">Zendesk Sell</text></svg>