<svg id="Layer_1" data-name="Layer 1" xmlns="http://www.w3.org/2000/svg" viewBox="0 0 132.13 24.86"><defs><style>.cls-1{fill:#a086ed;stroke:#a086ed;}.cls-2{fill:#03363d;}.cls-3{font-size:12px;font-family:Arial-BoldMT, Arial;font-weight:700;}</style></defs><path class="cls-1" d="M24,11c0,3.22,0,7.72-1.5,11.41A10.12,10.12,0,0,1,19,27.05a11.56,11.56,0,0,1-6.83,1.88,11.26,11.26,0,0,1,0-22.51,21.05,21.05,0,0,0,4.7-.67l.46-.1a17.47,17.47,0,0,1,3.35-.58,2.52,2.52,0,0,1,2.36,1.07C23.65,7,24,8.48,24,11Z" transform="translate(-0.45 -4.57)"/><path class="cls-2" d="M11.53,13.74V25.05H4.43Zm0-4.06c0,2.58-1.58,4.68-3.54,4.68s-3.56-2.1-3.56-4.68ZM12.7,25.05c0-2.59,1.59-4.68,3.55-4.68s3.55,2.09,3.55,4.68Zm0-4.06V9.68h7.11Z" transform="translate(-0.45 -4.57)"/><text class="cls-3" transform="translate(34.12 17.26)">Zendesk Support</text></svg>