<svg id="Layer_1" data-name="Layer 1" xmlns="http://www.w3.org/2000/svg" viewBox="0 0 115.48 24.86"><defs><style>.cls-1{stroke:#000;}.cls-2{fill:#719c40;}.cls-3{font-size:12px;font-family:Arial-BoldMT, Arial;font-weight:700;}</style></defs><path class="cls-1" d="M24,11c0,3.22,0,7.72-1.5,11.41A10.12,10.12,0,0,1,19,27.05a11.56,11.56,0,0,1-6.83,1.88,11.26,11.26,0,0,1,0-22.51,21.05,21.05,0,0,0,4.7-.67l.46-.1a17.47,17.47,0,0,1,3.35-.58,2.52,2.52,0,0,1,2.36,1.07C23.65,7,24,8.48,24,11Z" transform="translate(-0.45 -4.57)"/><path class="cls-2" d="M19.37,19.75a5.09,5.09,0,0,1-2.49.65,4.26,4.26,0,0,1-1.54-.27,12.06,12.06,0,0,1-2.2,1.53A5,5,0,0,0,17.33,24a5.26,5.26,0,0,0,2.46-.63A5.39,5.39,0,0,0,20,22.07a5,5,0,0,0-.58-2.32" transform="translate(-0.45 -4.57)"/><path class="cls-2" d="M18.34,13.53a4.81,4.81,0,0,1-1.18,2.53,3.43,3.43,0,0,1,.06.57,4.58,4.58,0,0,1-1.35,3c.21,0,.43,0,.64,0a4.93,4.93,0,0,0,3-1,5,5,0,0,0,1.86-3.17,5.22,5.22,0,0,0-2.9-1.89l-.17,0v0" transform="translate(-0.45 -4.57)"/><path class="cls-2" d="M17.55,12.68A5,5,0,0,0,16.2,9.26h-.07A4.54,4.54,0,0,0,13,10.53,4.8,4.8,0,0,1,14.2,13.9c0,.1,0,.2,0,.29a2.55,2.55,0,0,1,.61-.08h0a2.43,2.43,0,0,1,2,1.12,5,5,0,0,0,.7-2.55" transform="translate(-0.45 -4.57)"/><path class="cls-2" d="M8.64,9.35H8.47a4.89,4.89,0,0,0-1.29,3.33s0,0,0,0h.17a5,5,0,0,1,3.49,1.41,2.27,2.27,0,0,1,1.89,1.23,1.9,1.9,0,0,1,.87-.88v-.18A4.93,4.93,0,0,0,8.64,9.35" transform="translate(-0.45 -4.57)"/><path class="cls-2" d="M10,14.19a5,5,0,0,0-2.49-.67,5.1,5.1,0,0,0-.87.07,5,5,0,0,0-3.14,1.94,5,5,0,0,0,1.84,3.1,4.77,4.77,0,0,1,2.86-1.85v-.16A2.4,2.4,0,0,1,10,14.19" transform="translate(-0.45 -4.57)"/><path class="cls-2" d="M5.67,19.76a4.94,4.94,0,0,0-.58,2.31,5.87,5.87,0,0,0,.17,1.35,5.08,5.08,0,0,0,3.58.46,5.22,5.22,0,0,1-.18-1.35,5,5,0,0,1,.93-2.92,5,5,0,0,1-1.26-2.18,5,5,0,0,0-2.66,2.33" transform="translate(-0.45 -4.57)"/><path class="cls-2" d="M12.54,26.92a4.92,4.92,0,0,0,2.57-2.55,5,5,0,0,1-2.68-2.64A12,12,0,0,1,10,20.06a4.94,4.94,0,0,0-.55,2.27,4.79,4.79,0,0,0,.43,2,5.08,5.08,0,0,0,2.63,2.58" transform="translate(-0.45 -4.57)"/><text class="cls-3" transform="translate(34.12 17.26)">Zendesk Suite</text></svg>