<svg width="633" height="588" viewBox="0 0 633 588" fill="none" xmlns="http://www.w3.org/2000/svg">
<path d="M11.6645 468.571C15.6394 468.279 23.3506 463.973 23.3639 463.973C23.3771 463.973 18.9783 459.733 18.6603 459.495C15.0431 456.845 6.48391 453.731 2.37654 456.66C1.70685 457.164 1.15098 457.803 0.745202 458.537C0.339423 459.27 0.0928547 460.081 0.0215889 460.916C-0.0496769 461.751 0.0559603 462.592 0.331608 463.384C0.607255 464.175 1.04672 464.9 1.62132 465.51C3.96649 468.2 8.31235 468.809 11.6645 468.571Z" fill="#263238"/>
<path d="M26.3336 489.837C29.911 488.578 35.8336 482.868 36.2973 482.404C39.5573 485.804 43.0409 488.982 46.7247 491.917C48.8579 493.626 51.0573 495.296 53.3495 496.939C52.21 496.343 51.2031 495.813 51.0573 495.76C46.8572 494.117 37.8077 493.414 34.5881 497.323C34.0626 497.985 33.6838 498.75 33.4767 499.57C33.2696 500.389 33.2389 501.242 33.3868 502.074C33.5346 502.906 33.8575 503.697 34.3342 504.395C34.8108 505.092 35.4303 505.681 36.1515 506.121C39.1194 508.095 43.4786 507.538 46.6452 506.412C49.8119 505.286 55.0189 500.516 56.3704 499.231C57.2316 499.854 58.0796 500.49 58.9408 501.099C63.0879 504.067 67.2483 507.009 71.2364 510.016C72.6409 511.076 73.9791 512.176 75.3305 513.262C74.3236 512.732 73.4756 512.295 73.3431 512.242C69.143 510.599 60.0935 509.897 56.8739 513.806C56.3619 514.47 55.9957 515.235 55.7989 516.05C55.6021 516.866 55.5792 517.714 55.7316 518.538C55.8841 519.363 56.2086 520.147 56.6839 520.838C57.1592 521.529 57.7747 522.113 58.4903 522.55C61.4582 524.511 65.8173 523.955 68.984 522.842C72.1506 521.729 76.8542 517.396 78.4574 515.886C79.7824 517.038 81.1073 518.191 82.4323 519.384C83.267 520.205 84.1282 520.947 84.9232 521.822L87.3214 524.365C88.7788 526.022 90.3026 527.731 91.6805 529.4C92.661 530.553 93.5619 531.653 94.4762 532.779C93.1512 531.706 90.329 529.665 90.0906 529.52C86.1157 527.267 77.3312 525.187 73.5816 528.579C72.9744 529.156 72.4958 529.855 72.177 530.63C71.8582 531.405 71.7064 532.239 71.7314 533.077C71.7564 533.914 71.9577 534.737 72.3222 535.492C72.6866 536.246 73.206 536.916 73.8466 537.456C76.4965 539.841 80.8821 539.96 84.1812 539.337C87.8249 538.635 94.3039 534.104 95.1121 533.534C96.6093 535.389 98.0668 537.218 99.405 538.953C103.022 543.617 106.03 547.764 108.348 551.116L111.316 549.553C108.852 546.161 105.646 541.895 101.75 537.098C100.226 535.204 98.557 533.216 96.8346 531.189C98.4841 529.256 100.015 527.225 101.419 525.107C105.01 526.432 112.39 526.181 113.344 526.154C113.582 528.539 113.781 530.844 113.94 533.044C114.364 538.754 114.576 543.763 114.695 547.777L117.915 546.068C117.716 542.305 117.411 537.827 116.921 532.819C116.696 530.394 116.404 527.824 116.073 525.174C117 524.909 124.619 522.683 127.428 520.271C129.998 518.085 132.648 514.587 132.436 510.997C132.414 510.158 132.215 509.334 131.854 508.577C131.492 507.821 130.975 507.149 130.336 506.605C129.698 506.061 128.952 505.658 128.147 505.422C127.342 505.186 126.497 505.121 125.666 505.233C120.697 506.041 116.762 514.243 116.086 518.695C116.086 518.96 115.927 521.861 115.887 523.69C115.755 522.617 115.622 521.57 115.477 520.457C115.172 518.257 114.814 516.071 114.443 513.726C114.222 512.604 113.997 511.465 113.768 510.308C113.569 509.155 113.211 507.976 112.933 506.797C112.244 504.067 111.396 501.351 110.495 498.622C112.416 498.37 119.226 497.297 122.102 495.561C124.977 493.825 128.117 490.725 128.448 487.187C128.552 486.355 128.48 485.51 128.237 484.708C127.994 483.905 127.585 483.163 127.037 482.528C126.489 481.894 125.813 481.381 125.054 481.024C124.295 480.668 123.47 480.474 122.631 480.456C117.597 480.456 112.469 488.022 111.118 492.381C111.038 492.659 110.415 495.852 110.111 497.615C109.554 495.972 109.011 494.342 108.388 492.712C106.613 487.995 104.652 483.279 102.731 478.562L100.995 474.229C101.684 474.136 109.806 473.09 113.026 471.102C115.887 469.327 119.041 466.266 119.359 462.728C119.483 461.889 119.427 461.033 119.195 460.217C118.963 459.401 118.559 458.643 118.011 457.995C117.464 457.347 116.784 456.823 116.018 456.458C115.252 456.093 114.417 455.896 113.569 455.878C108.521 455.878 103.393 463.444 102.055 467.737C101.949 468.068 101.074 472.666 100.902 473.845C99.5773 470.665 98.398 467.472 97.3116 464.292C95.8251 459.993 94.6169 455.603 93.6944 451.148C94.0124 451.148 102.505 450.049 105.805 448.008C108.653 446.233 111.807 443.172 112.138 439.634C112.244 438.803 112.174 437.959 111.932 437.156C111.691 436.353 111.283 435.611 110.736 434.976C110.189 434.341 109.514 433.829 108.756 433.472C107.997 433.115 107.172 432.921 106.335 432.904C101.286 432.904 96.1589 440.469 94.8206 444.762C94.7147 445.107 93.7607 450.062 93.6547 450.963C93.6547 450.698 93.5222 450.446 93.4692 450.181C92.6672 445.685 92.2637 441.127 92.2635 436.561C92.2635 434.043 92.343 431.632 92.502 429.287C94.1052 429.287 101.419 429.022 104.599 427.511C107.779 426.001 111.091 423.364 111.82 419.879C112.014 419.064 112.036 418.218 111.883 417.394C111.729 416.57 111.405 415.788 110.931 415.097C110.456 414.406 109.842 413.823 109.128 413.385C108.414 412.946 107.616 412.663 106.785 412.552C101.763 412.049 95.8409 418.952 94.0257 423.086C93.9329 423.311 93.1777 425.736 92.7007 427.445C92.7935 426.398 92.8597 425.298 92.9657 424.291C93.3499 420.489 93.9462 417.044 94.4894 413.983C94.8074 412.248 95.1386 410.697 95.4566 409.24C97.0201 408.379 103.234 404.868 105.314 402.112C107.394 399.356 109.183 395.487 108.203 392.015C108.001 391.198 107.63 390.431 107.111 389.767C106.593 389.103 105.941 388.556 105.196 388.162C104.452 387.768 103.632 387.536 102.792 387.481C101.951 387.425 101.109 387.549 100.319 387.842C95.6289 389.697 93.5619 398.561 93.8534 403.052C93.8534 403.45 94.9796 409.478 95.0591 409.425H95.1519C94.8206 410.817 94.4762 412.314 94.1317 413.97C93.5222 417.017 92.8067 420.462 92.3827 424.265C91.8287 428.355 91.5146 432.474 91.442 436.6C91.3402 441.225 91.6506 445.85 92.3695 450.42C92.3695 450.42 92.3695 450.526 92.3695 450.579C91.707 449.254 89.7196 445.623 89.5341 445.371C86.8842 441.688 79.7691 436.097 74.9595 437.594C74.1677 437.867 73.442 438.302 72.8295 438.873C72.2169 439.444 71.7313 440.138 71.404 440.909C71.0766 441.679 70.915 442.51 70.9295 443.348C70.944 444.185 71.1343 445.01 71.4882 445.769C72.8794 449.042 76.788 450.989 80.0871 451.811C83.7705 452.725 91.8527 451.228 92.502 451.109C93.3422 455.739 94.4931 460.307 95.9469 464.782C96.7816 467.432 97.6958 470.002 98.5968 472.599C97.9873 471.473 97.4308 470.479 97.3381 470.347C94.6882 466.664 87.5731 461.072 82.7635 462.569C81.9717 462.842 81.246 463.278 80.6335 463.849C80.0209 464.42 79.5353 465.113 79.208 465.884C78.8806 466.655 78.719 467.486 78.7335 468.323C78.748 469.161 78.9383 469.985 79.2921 470.744C80.6834 474.03 84.592 475.965 87.8779 476.786C91.1638 477.608 98.1198 476.481 99.9482 476.15C100.332 477.144 100.69 478.138 101.074 479.131C102.89 483.901 104.731 488.645 106.374 493.348C106.957 495.004 107.474 496.661 108.004 498.317C107.461 497.323 106.984 496.488 106.904 496.369C104.254 492.686 97.1261 487.094 92.3297 488.592C91.5367 488.863 90.8096 489.298 90.1957 489.868C89.5817 490.438 89.0946 491.132 88.7659 491.903C88.4373 492.674 88.2745 493.505 88.2882 494.343C88.3018 495.181 88.4915 496.007 88.8451 496.767C90.2495 500.039 94.1449 501.987 97.4441 502.808C100.743 503.63 107.01 502.596 109.183 502.225C109.673 503.935 110.164 505.644 110.508 507.326C110.747 508.479 111.065 509.579 111.25 510.745C111.436 511.911 111.648 513.05 111.846 514.177C112.138 516.376 112.469 518.642 112.708 520.801C112.88 522.298 113.026 523.729 113.171 525.16C112.602 523.504 111.436 520.285 111.303 520.02C109.419 516.548 106.684 513.611 103.353 511.487C103.157 511.092 102.927 510.715 102.664 510.361C102.183 509.674 101.563 509.096 100.844 508.665C100.125 508.234 99.3238 507.958 98.4915 507.857C97.6593 507.756 96.815 507.831 96.0136 508.077C95.2123 508.324 94.4718 508.736 93.8402 509.287C90.1303 512.706 91.389 521.716 93.2705 525.81C93.3897 526.048 94.8869 528.526 95.9204 530.076C95.2049 529.255 94.5954 528.446 93.7872 527.612C92.3297 525.942 90.8193 524.312 89.2161 522.564L86.7649 520.073C85.9699 519.238 85.016 518.443 84.115 517.608C82.0348 515.727 79.8354 513.912 77.583 512.149C79.0404 510.824 84.2077 506.253 85.5327 503.179C86.8577 500.105 87.8779 495.839 86.1952 492.699C85.8325 491.941 85.3139 491.269 84.6731 490.725C84.0324 490.182 83.284 489.78 82.4771 489.546C81.6702 489.312 80.823 489.251 79.991 489.368C79.159 489.484 78.3609 489.775 77.6492 490.221C73.4623 493.043 73.3298 502.146 74.5753 506.479C74.6548 506.743 75.9003 509.751 76.6157 511.381C75.2908 510.334 73.9658 509.274 72.4819 508.254C68.401 505.299 64.1611 502.437 59.961 499.575L56.1186 496.926C56.6486 496.475 62.8362 491.122 64.4261 487.651C65.8306 484.59 66.7713 480.311 65.0886 477.17C64.7171 476.428 64.194 475.771 63.5532 475.242C62.9124 474.714 62.168 474.325 61.3679 474.102C60.5679 473.878 59.7299 473.825 58.908 473.945C58.086 474.065 57.2983 474.356 56.5956 474.799C52.4088 477.608 52.2763 486.723 53.535 491.043C53.6277 491.361 55.4297 495.693 55.9332 496.767C53.1242 494.806 50.3418 492.792 47.6654 490.778C44.0491 488.017 40.6147 485.025 37.3838 481.821C37.6222 481.609 44.1278 476.044 45.7442 472.546C47.1487 469.499 48.1027 465.206 46.42 462.066C46.0486 461.314 45.5232 460.649 44.878 460.114C44.2328 459.579 43.4821 459.185 42.6749 458.959C41.8676 458.733 41.0218 458.679 40.1924 458.801C39.363 458.923 38.5686 459.219 37.8607 459.668C33.6739 462.49 33.5414 471.592 34.8001 475.912C34.8928 476.256 36.8405 480.907 37.2513 481.715L36.6683 481.172C33.5141 477.87 30.6628 474.291 28.1488 470.479C26.7311 468.386 25.4989 466.319 24.3329 464.279C25.6579 463.364 31.6202 459.125 33.4354 456.117C35.2506 453.109 36.5755 449.081 35.2506 445.782C34.9655 444.993 34.5176 444.273 33.9359 443.669C33.3543 443.065 32.6519 442.59 31.8746 442.275C31.0972 441.96 30.2622 441.812 29.424 441.841C28.5858 441.87 27.7631 442.075 27.0093 442.443C22.5442 444.789 21.418 453.825 22.1865 458.263C22.1865 458.502 22.9152 460.913 23.5115 462.649C23.008 461.721 22.4647 460.767 22.001 459.867C20.2256 456.488 18.8079 453.242 17.5756 450.446C16.8999 448.816 16.2507 447.332 15.7737 445.941C16.5952 444.378 19.8413 437.991 20.0533 434.573C20.2653 431.155 19.4968 426.849 16.8469 424.53C16.2304 423.962 15.5012 423.529 14.7068 423.261C13.9123 422.993 13.0703 422.895 12.2355 422.974C11.4007 423.053 10.5918 423.306 9.86144 423.718C9.13107 424.13 8.49555 424.691 7.9962 425.365C5.10779 429.498 8.27444 438.031 11.0039 441.622C11.2423 441.94 15.4822 446.352 15.522 446.272V446.18C16.0122 447.505 16.5554 448.975 17.1649 450.539C18.3441 453.414 19.6956 456.66 21.3915 460.092C23.1962 463.811 25.218 467.421 27.4466 470.903C29.9112 474.814 32.7178 478.499 35.8336 481.914L35.9528 482.033C34.6278 481.291 31.0107 479.383 30.653 479.251C26.4529 477.608 17.4034 476.905 14.197 480.814C13.6847 481.477 13.3178 482.24 13.1201 483.054C12.9224 483.868 12.8984 484.714 13.0497 485.538C13.2009 486.361 13.524 487.144 13.998 487.835C14.4719 488.525 15.086 489.108 15.8002 489.546C18.8079 491.546 23.1537 490.963 26.3336 489.837Z" fill="#263238"/>
<path d="M91.8391 428.557C91.9319 428.557 90.5142 422.595 90.3817 422.224C88.858 417.984 83.4124 410.697 78.3643 410.869C77.5288 410.924 76.7142 411.154 75.973 411.543C75.2317 411.933 74.5804 412.473 74.061 413.13C73.5416 413.787 73.1657 414.545 72.9576 415.356C72.7494 416.167 72.7136 417.013 72.8525 417.838C73.3427 421.376 76.6154 424.291 79.5568 425.934C83.0017 427.868 91.8259 428.557 91.8391 428.557Z" fill="#263238"/>
<path d="M621.331 468.571C617.356 468.279 609.645 463.973 609.645 463.973C609.645 463.973 614.03 459.733 614.335 459.495C617.952 456.845 626.524 453.731 630.632 456.66C631.301 457.165 631.855 457.805 632.26 458.539C632.665 459.273 632.91 460.084 632.98 460.919C633.05 461.754 632.943 462.595 632.666 463.386C632.39 464.177 631.949 464.901 631.374 465.51C628.976 468.2 624.683 468.809 621.331 468.571Z" fill="#263238"/>
<path d="M606.676 489.837C603.099 488.578 597.176 482.868 596.699 482.404C593.442 485.807 589.959 488.985 586.272 491.917C584.139 493.626 581.939 495.296 579.713 496.939C580.839 496.343 581.86 495.813 582.005 495.76C586.206 494.117 595.255 493.414 598.461 497.323C598.973 497.987 599.339 498.75 599.536 499.565C599.733 500.379 599.755 501.226 599.603 502.05C599.45 502.874 599.126 503.656 598.651 504.346C598.176 505.036 597.56 505.618 596.845 506.055C593.877 508.029 589.531 507.472 586.351 506.346C583.171 505.22 577.978 500.45 576.639 499.165L574.056 501.033C569.909 504.001 565.761 506.942 561.773 509.95C560.369 511.01 559.017 512.11 557.666 513.196C558.673 512.666 559.521 512.229 559.667 512.176C563.854 510.533 572.916 509.831 576.123 513.739C576.635 514.404 577.001 515.169 577.198 515.984C577.394 516.8 577.417 517.647 577.265 518.472C577.112 519.297 576.788 520.081 576.313 520.772C575.837 521.463 575.222 522.046 574.506 522.484C571.538 524.445 567.179 523.888 564.013 522.776C560.846 521.663 556.142 517.33 554.539 515.82C553.214 516.972 551.889 518.125 550.564 519.317C549.716 520.139 548.855 520.881 548.06 521.755C547.265 522.63 546.457 523.451 545.675 524.299C544.204 525.955 542.694 527.665 541.303 529.334C540.336 530.487 539.421 531.586 538.507 532.713C539.898 531.639 542.654 529.599 542.906 529.453C546.801 527.201 555.665 525.121 559.402 528.513C560.009 529.09 560.487 529.789 560.806 530.564C561.125 531.339 561.277 532.173 561.252 533.01C561.227 533.848 561.026 534.671 560.661 535.426C560.297 536.18 559.777 536.849 559.137 537.39C556.487 539.775 552.114 539.894 548.802 539.271C545.172 538.569 538.693 534.038 537.884 533.468C536.374 535.323 534.93 537.151 533.578 538.887C529.974 543.551 526.953 547.698 524.635 551.05L521.654 549.487C524.118 546.095 527.338 541.828 531.22 537.032C532.744 535.137 534.413 533.15 536.149 531.123C534.498 529.188 532.962 527.157 531.551 525.041C527.96 526.366 520.58 526.114 519.626 526.088C519.401 528.473 519.189 530.778 519.03 532.978C518.606 538.688 518.394 543.697 518.288 547.711L515.055 546.002C515.254 542.239 515.572 537.761 516.049 532.752C516.288 530.328 516.579 527.757 516.897 525.107C515.97 524.842 508.364 522.617 505.542 520.205C502.985 518.019 500.335 514.521 500.547 510.93C500.568 510.093 500.764 509.269 501.125 508.512C501.485 507.755 502.001 507.083 502.638 506.539C503.276 505.996 504.021 505.592 504.825 505.356C505.629 505.119 506.474 505.055 507.304 505.167C512.286 505.975 516.208 514.177 516.884 518.628C516.884 518.893 517.043 521.795 517.083 523.623C517.228 522.55 517.348 521.504 517.507 520.391C517.798 518.191 518.156 516.005 518.54 513.66C518.752 512.534 518.977 511.394 519.202 510.241C519.428 509.089 519.759 507.909 520.037 506.73C520.739 504.001 521.574 501.285 522.475 498.555C520.554 498.304 513.744 497.23 510.868 495.495C507.993 493.759 504.853 490.659 504.535 487.121C504.429 486.29 504.499 485.445 504.741 484.643C504.982 483.84 505.39 483.097 505.937 482.462C506.484 481.828 507.159 481.315 507.917 480.958C508.676 480.601 509.501 480.408 510.339 480.39C515.387 480.39 520.514 487.956 521.852 492.315C521.945 492.593 522.555 495.786 522.859 497.548C523.416 495.905 523.972 494.276 524.582 492.646C526.37 487.929 528.318 483.212 530.239 478.495C530.836 477.051 531.405 475.607 531.975 474.163C531.299 474.07 523.164 473.023 519.944 471.036C517.096 469.26 513.942 466.2 513.611 462.662C513.505 461.831 513.575 460.986 513.817 460.184C514.058 459.381 514.466 458.638 515.013 458.004C515.56 457.369 516.235 456.856 516.993 456.499C517.752 456.142 518.577 455.949 519.414 455.931C524.463 455.931 529.59 463.497 530.942 467.79C531.034 468.121 531.922 472.719 532.081 473.898C533.406 470.718 534.585 467.525 535.685 464.345C537.176 460.046 538.389 455.656 539.315 451.201C538.997 451.201 530.518 450.102 527.218 448.061C524.357 446.286 521.203 443.225 520.872 439.687C520.768 438.855 520.84 438.011 521.083 437.208C521.326 436.405 521.735 435.663 522.283 435.028C522.831 434.394 523.507 433.882 524.266 433.525C525.025 433.168 525.85 432.974 526.688 432.957C531.737 432.957 536.851 440.522 538.202 444.815C538.308 445.16 539.249 450.115 539.355 451.016C539.355 450.751 539.501 450.499 539.541 450.234C540.349 445.739 540.753 441.181 540.746 436.614C540.746 434.096 540.667 431.685 540.508 429.34C538.905 429.34 531.591 429.075 528.424 427.564C525.258 426.054 521.919 423.417 521.203 419.932C521.006 419.117 520.984 418.27 521.136 417.445C521.288 416.621 521.612 415.837 522.087 415.146C522.562 414.455 523.177 413.872 523.892 413.434C524.607 412.996 525.407 412.714 526.238 412.605C531.26 412.102 537.182 419.005 538.984 423.139C539.09 423.364 539.832 425.789 540.309 427.498C540.216 426.451 540.15 425.351 540.044 424.344C539.66 420.542 539.077 417.097 538.52 414.036C538.202 412.301 537.871 410.75 537.553 409.293C536.003 408.432 529.789 404.921 527.709 402.165C525.629 399.409 523.84 395.54 524.807 392.068C525.009 391.255 525.38 390.494 525.895 389.833C526.411 389.173 527.06 388.628 527.799 388.234C528.539 387.841 529.353 387.607 530.189 387.549C531.025 387.49 531.863 387.608 532.651 387.895C537.341 389.75 539.408 398.614 539.117 403.105C539.117 403.503 537.99 409.531 537.911 409.478H537.818C538.149 410.87 538.507 412.367 538.852 414.023C539.461 417.07 540.177 420.515 540.601 424.318C541.15 428.408 541.46 432.527 541.528 436.653C541.634 441.278 541.328 445.902 540.614 450.473V450.632C541.276 449.307 543.264 445.676 543.449 445.425C546.099 441.741 553.214 436.15 558.024 437.647C558.817 437.918 559.544 438.353 560.158 438.923C560.771 439.494 561.258 440.188 561.585 440.959C561.913 441.731 562.074 442.562 562.059 443.4C562.043 444.238 561.851 445.063 561.495 445.822C560.104 449.095 556.195 451.042 552.909 451.864C549.226 452.778 541.131 451.281 540.481 451.162C539.641 455.792 538.49 460.36 537.036 464.835C536.202 467.485 535.287 470.055 534.386 472.652C534.996 471.526 535.552 470.532 535.645 470.4C538.295 466.717 545.423 461.125 550.22 462.622C551.013 462.894 551.74 463.329 552.354 463.899C552.968 464.469 553.455 465.163 553.784 465.934C554.112 466.704 554.275 467.536 554.261 468.374C554.248 469.212 554.058 470.038 553.704 470.797C552.3 474.083 548.405 476.018 545.105 476.839C541.806 477.661 534.863 476.535 533.035 476.203L531.922 479.184C530.094 483.954 528.252 488.698 526.622 493.401C526.039 495.057 525.523 496.714 525.006 498.37C525.549 497.376 526.013 496.541 526.092 496.422C528.742 492.739 535.87 487.147 540.667 488.645C541.459 488.917 542.184 489.353 542.797 489.924C543.409 490.495 543.895 491.189 544.222 491.959C544.55 492.73 544.711 493.561 544.697 494.398C544.682 495.236 544.492 496.061 544.138 496.82C542.734 500.092 538.838 502.04 535.539 502.861C532.24 503.683 525.973 502.649 523.8 502.278C523.323 503.988 522.833 505.697 522.475 507.38C522.237 508.532 521.919 509.632 521.746 510.798C521.574 511.964 521.349 513.103 521.15 514.23C520.845 516.429 520.527 518.695 520.289 520.854C520.103 522.352 519.958 523.782 519.812 525.213C520.382 523.557 521.561 520.338 521.68 520.073C523.538 516.558 526.266 513.58 529.603 511.421C529.79 511.02 530.021 510.643 530.292 510.294C530.772 509.608 531.391 509.031 532.109 508.599C532.827 508.168 533.627 507.893 534.458 507.792C535.29 507.69 536.133 507.765 536.933 508.012C537.733 508.258 538.473 508.67 539.103 509.221C542.813 512.64 541.568 521.649 539.673 525.743C539.554 525.982 538.057 528.46 537.023 530.01C537.739 529.188 538.428 528.38 539.17 527.545C540.627 525.876 542.124 524.246 543.741 522.497L546.179 520.006C546.987 519.172 547.941 518.377 548.829 517.542C550.909 515.66 553.108 513.845 555.374 512.083C553.916 510.758 548.749 506.187 547.424 503.113C546.099 500.039 545.066 495.773 546.748 492.633C547.119 491.88 547.643 491.214 548.288 490.677C548.932 490.14 549.683 489.746 550.49 489.518C551.298 489.291 552.144 489.236 552.974 489.357C553.804 489.478 554.599 489.773 555.308 490.221C559.494 493.043 559.614 502.146 558.368 506.479C558.289 506.744 557.043 509.751 556.328 511.381C557.653 510.334 559.044 509.274 560.462 508.254C564.556 505.299 568.782 502.437 572.996 499.576L576.825 496.926C576.308 496.475 570.107 491.122 568.517 487.651C567.113 484.59 566.172 480.311 567.855 477.17C568.225 476.417 568.749 475.751 569.394 475.214C570.039 474.678 570.79 474.284 571.598 474.057C572.406 473.831 573.253 473.778 574.082 473.901C574.912 474.024 575.707 474.321 576.414 474.772C580.588 477.581 580.72 486.697 579.475 491.016C579.382 491.334 577.58 495.667 577.063 496.74C579.886 494.779 582.668 492.765 585.331 490.751C588.95 487.993 592.385 485.001 595.613 481.795C595.374 481.583 588.882 476.018 587.252 472.52C585.848 469.473 584.907 465.18 586.59 462.039C586.96 461.288 587.484 460.623 588.128 460.088C588.772 459.553 589.521 459.16 590.328 458.933C591.134 458.707 591.979 458.653 592.807 458.775C593.636 458.897 594.429 459.192 595.136 459.641C599.323 462.463 599.455 471.566 598.196 475.885C598.104 476.23 596.169 480.88 595.758 481.689L596.341 481.145C599.488 477.84 602.334 474.262 604.848 470.453C606.265 468.36 607.498 466.293 608.664 464.252C607.339 463.338 601.376 459.098 599.574 456.09C597.772 453.083 596.434 449.055 597.759 445.756C598.044 444.967 598.492 444.247 599.074 443.643C599.655 443.038 600.358 442.563 601.135 442.248C601.913 441.933 602.748 441.786 603.586 441.815C604.424 441.844 605.247 442.049 606 442.417C610.466 444.762 611.592 453.798 610.823 458.237C610.823 458.475 610.081 460.887 609.498 462.622C610.002 461.695 610.545 460.741 611.022 459.84C612.797 456.461 614.202 453.215 615.434 450.42C616.123 448.79 616.759 447.306 617.249 445.915C616.415 444.351 613.182 437.965 612.956 434.547C612.731 431.128 613.42 426.849 616.11 424.53C616.726 423.962 617.456 423.529 618.25 423.261C619.045 422.993 619.887 422.895 620.721 422.974C621.556 423.053 622.365 423.306 623.095 423.718C623.826 424.13 624.461 424.691 624.961 425.365C627.849 429.499 624.682 438.031 621.966 441.622C621.728 441.94 617.475 446.352 617.435 446.272V446.18C616.958 447.505 616.415 448.975 615.792 450.539C614.626 453.414 613.274 456.66 611.565 460.092C609.769 463.811 607.756 467.421 605.537 470.903C603.081 474.821 600.274 478.506 597.15 481.914L597.03 482.033C598.355 481.291 601.973 479.383 602.33 479.251C606.517 477.608 615.58 476.905 618.786 480.814C619.298 481.478 619.664 482.241 619.861 483.056C620.057 483.87 620.08 484.717 619.928 485.541C619.775 486.365 619.451 487.147 618.976 487.837C618.5 488.527 617.885 489.109 617.17 489.546C614.202 491.546 609.843 490.963 606.676 489.837Z" fill="#263238"/>
<path d="M541.172 428.557C541.08 428.557 542.497 422.595 542.617 422.224C544.14 417.984 549.599 410.697 554.634 410.869C555.47 410.922 556.286 411.151 557.028 411.539C557.77 411.928 558.423 412.469 558.942 413.126C559.462 413.783 559.838 414.542 560.045 415.354C560.252 416.166 560.287 417.013 560.146 417.838C559.669 421.376 556.383 424.291 553.455 425.934C550.01 427.868 541.172 428.557 541.172 428.557Z" fill="#263238"/>
<path d="M108.574 237.947L109.674 238.676" stroke="#263238" stroke-miterlimit="10"/>
<path d="M111.898 240.121L314.922 372.127" stroke="#263238" stroke-miterlimit="10" stroke-dasharray="2 2"/>
<path d="M316.035 372.855L317.135 373.57L316.419 372.471" stroke="#263238" stroke-miterlimit="10"/>
<path d="M314.988 370.258L140.836 102.484" stroke="#263238" stroke-miterlimit="10" stroke-dasharray="1.98 1.98"/>
<path d="M140.106 101.384L139.391 100.271" stroke="#263238" stroke-miterlimit="10"/>
<path d="M525.705 237.947L524.605 238.676" stroke="#263238" stroke-miterlimit="10"/>
<path d="M522.383 240.121L319.359 372.127" stroke="#263238" stroke-miterlimit="10" stroke-dasharray="2 2"/>
<path d="M318.246 372.855L317.133 373.57L317.862 372.471" stroke="#263238" stroke-miterlimit="10"/>
<path d="M319.293 370.258L493.445 102.484" stroke="#263238" stroke-miterlimit="10" stroke-dasharray="1.98 1.98"/>
<path d="M494.16 101.384L494.889 100.271" stroke="#263238" stroke-miterlimit="10"/>
<path d="M317.133 59.1719V60.4968" stroke="#263238" stroke-miterlimit="10"/>
<path d="M317.133 63.1602V370.921" stroke="#263238" stroke-miterlimit="10" stroke-dasharray="2.01 2.01"/>
<path d="M317.133 372.245V373.57" stroke="#263238" stroke-miterlimit="10"/>
<path d="M319.61 93.9253C342.111 93.9253 360.352 75.6843 360.352 53.1829C360.352 30.6814 342.111 12.4404 319.61 12.4404C297.108 12.4404 278.867 30.6814 278.867 53.1829C278.867 75.6843 297.108 93.9253 319.61 93.9253Z" fill="#263238" stroke="#263238" stroke-width="2" stroke-miterlimit="10"/>
<path d="M319.609 53.183L353.899 31.1887C348.833 23.3014 341.207 17.3973 332.302 14.4678L319.609 53.183Z" fill="#AE8DFF" stroke="#263238" stroke-miterlimit="10"/>
<path d="M319.609 53.1828L338.808 89.1024C343.761 86.4472 348.111 82.7962 351.584 78.3789C355.058 73.9616 357.58 68.8734 358.993 63.4342C360.405 57.9951 360.677 52.3225 359.791 46.7732C358.906 41.2239 356.882 35.9178 353.846 31.1885L319.609 53.1828Z" fill="white" stroke="#263238" stroke-miterlimit="10"/>
<path d="M516.904 128.815C532.809 112.909 532.809 87.1205 516.904 71.2148C500.998 55.309 475.21 55.309 459.304 71.2147C443.398 87.1205 443.398 112.909 459.304 128.815C475.21 144.72 500.998 144.72 516.904 128.815Z" stroke="#263238" stroke-miterlimit="10"/>
<path d="M488.091 135.33C507.593 135.33 523.401 119.521 523.401 100.02C523.401 80.5188 507.593 64.71 488.091 64.71C468.59 64.71 452.781 80.5188 452.781 100.02C452.781 119.521 468.59 135.33 488.091 135.33Z" fill="#263238"/>
<path d="M508.404 100.02L474.207 80.2646V119.762L508.404 100.02Z" fill="white"/>
<path d="M587.798 242.785C593.266 219.956 579.193 197.017 556.364 191.548C533.535 186.08 510.596 200.154 505.127 222.983C499.659 245.812 513.733 268.751 536.562 274.219C559.391 279.687 582.33 265.614 587.798 242.785Z" fill="#263238"/>
<path d="M576.015 239.964C579.906 223.658 569.841 207.284 553.534 203.393C537.227 199.503 520.854 209.568 516.963 225.874C513.072 242.181 523.137 258.555 539.444 262.445C555.751 266.336 572.124 256.271 576.015 239.964Z" fill="white"/>
<path d="M564.156 237.086C566.481 227.296 560.43 217.476 550.641 215.151C540.851 212.826 531.031 218.877 528.706 228.666C526.381 238.456 532.432 248.276 542.221 250.601C552.011 252.926 561.831 246.875 564.156 237.086Z" fill="#263238"/>
<path d="M556.037 235.188C557.285 229.919 554.026 224.635 548.757 223.387C543.488 222.138 538.204 225.397 536.956 230.667C535.707 235.936 538.967 241.219 544.236 242.468C549.505 243.716 554.788 240.457 556.037 235.188Z" fill="white"/>
<path d="M600.623 212.508L595.217 210.402L597.576 209.249C597.712 209.187 597.835 209.098 597.937 208.988C598.039 208.877 598.117 208.748 598.168 208.607C598.219 208.465 598.241 208.316 598.233 208.166C598.226 208.016 598.188 207.869 598.123 207.734C598.057 207.599 597.966 207.478 597.853 207.379C597.74 207.28 597.609 207.204 597.467 207.157C597.324 207.109 597.174 207.09 597.024 207.101C596.875 207.113 596.729 207.154 596.595 207.222L594.886 208.057L597.602 202.174L587.519 206.679L586.049 212.336L545.969 231.853C545.835 231.918 545.716 232.009 545.618 232.12C545.52 232.231 545.445 232.36 545.397 232.501C545.349 232.641 545.329 232.79 545.338 232.938C545.348 233.086 545.386 233.23 545.452 233.363C545.514 233.497 545.603 233.618 545.713 233.717C545.822 233.816 545.951 233.892 546.091 233.94C546.231 233.988 546.379 234.008 546.526 233.997C546.674 233.987 546.818 233.947 546.949 233.88L587.162 214.297L591.547 216.775L600.623 212.508Z" fill="#263238"/>
<path d="M142.941 140.737C166.408 140.737 185.432 121.713 185.432 98.2453C185.432 74.778 166.408 55.7539 142.941 55.7539C119.473 55.7539 100.449 74.778 100.449 98.2453C100.449 121.713 119.473 140.737 142.941 140.737Z" fill="white" stroke="#263238" stroke-width="2" stroke-miterlimit="10"/>
<path d="M142.943 140.737C159.964 140.737 173.762 121.713 173.762 98.2453C173.762 74.778 159.964 55.7539 142.943 55.7539C125.923 55.7539 112.125 74.778 112.125 98.2453C112.125 121.713 125.923 140.737 142.943 140.737Z" fill="white" stroke="#263238" stroke-miterlimit="10"/>
<path d="M142.941 140.737C150.186 140.737 156.058 121.713 156.058 98.2453C156.058 74.778 150.186 55.7539 142.941 55.7539C135.697 55.7539 129.824 74.778 129.824 98.2453C129.824 121.713 135.697 140.737 142.941 140.737Z" fill="white" stroke="#263238" stroke-miterlimit="10"/>
<path d="M120.43 62.3516H166.207" stroke="#263238" stroke-miterlimit="10"/>
<path d="M105.035 79.0068H180.783" stroke="#263238" stroke-miterlimit="10"/>
<path d="M100.66 95.6475H185.351" stroke="#263238" stroke-miterlimit="10"/>
<path d="M102.527 112.303H182.86" stroke="#263238" stroke-miterlimit="10"/>
<path d="M113.98 128.943H172.663" stroke="#263238" stroke-miterlimit="10"/>
<path d="M87.3195 275.392C110.787 275.392 129.811 256.368 129.811 232.901C129.811 209.433 110.787 190.409 87.3195 190.409C63.8522 190.409 44.8281 209.433 44.8281 232.901C44.8281 256.368 63.8522 275.392 87.3195 275.392Z" fill="#263238" stroke="#263238" stroke-width="2" stroke-miterlimit="10"/>
<path d="M114.241 212.813H57.8906V257.902H114.241V212.813Z" fill="white" stroke="#263238" stroke-width="2" stroke-miterlimit="10"/>
<path d="M117.766 212.813H54.3672V231.124H117.766V212.813Z" fill="white" stroke="#263238" stroke-width="2" stroke-miterlimit="10"/>
<path d="M86.0057 212.363C86.0057 212.363 72.7561 196.847 70.4905 197.589C68.2248 198.331 62.3685 208.666 65.6941 209.779C69.0197 210.892 86.0057 212.363 86.0057 212.363Z" fill="#AE8DFF"/>
<path d="M86.1289 212.363C86.1289 212.363 99.3785 196.847 101.644 197.589C103.91 198.331 109.779 208.666 106.454 209.779C103.128 210.892 86.1289 212.363 86.1289 212.363Z" fill="#AE8DFF"/>
<path d="M90.0751 244.506L86.087 237.577L81.9531 244.506V213.476H90.0751V244.506Z" fill="#AE8DFF"/>
<path d="M106.137 349.961L316.99 231.284L533.011 349.961V522.006H108.734L106.137 349.961Z" fill="#263238" stroke="#263238" stroke-linecap="round" stroke-linejoin="round"/>
<path d="M477.405 263.295H161.773V544H477.405V263.295Z" fill="white" stroke="#263238" stroke-miterlimit="10"/>
<path d="M197.984 312.452H437.298" stroke="#263238" stroke-miterlimit="10"/>
<path d="M197.984 337.029H437.298" stroke="#263238" stroke-miterlimit="10"/>
<path d="M197.984 361.607H437.298" stroke="#263238" stroke-miterlimit="10"/>
<path d="M197.984 386.186H437.298" stroke="#263238" stroke-miterlimit="10"/>
<path d="M197.984 410.764H437.298" stroke="#263238" stroke-miterlimit="10"/>
<path d="M197.984 435.341H437.298" stroke="#263238" stroke-miterlimit="10"/>
<path d="M533.011 586.691H106.137V349.961L319.587 494.845L533.011 349.961V586.691Z" fill="#AE8DFF" stroke="#263238" stroke-miterlimit="10"/>
<path d="M106.137 586.691L261.342 455.242" stroke="#263238" stroke-miterlimit="10"/>
<path d="M532.334 586.69L378.281 455.029" stroke="#263238" stroke-miterlimit="10"/>
<path d="M365.745 185.042C365.745 185.042 364.141 192.541 366.288 194.953C368.434 197.364 376.463 205.937 376.463 207.275C376.463 208.613 373.814 247.196 373.814 247.196L361.491 238.358L353.992 261.399C353.992 261.399 372.74 269.442 381.591 271.045C390.442 272.648 392.032 270.237 392.032 263.281C392.032 256.325 385.062 202.995 385.062 202.995C385.062 202.995 387.209 190.673 387.209 188.527C387.209 186.38 388.017 185.307 386.136 184.234C384.254 183.161 368.991 181.584 368.991 181.584C368.991 181.584 365.745 182.896 365.745 185.042Z" fill="white" stroke="#263238" stroke-linecap="round" stroke-linejoin="round"/>
<path d="M361.769 241.604L357.701 262.247L353.965 261.399L361.769 241.604Z" fill="#263238" stroke="#263238" stroke-linecap="round" stroke-linejoin="round"/>
<path d="M391.804 191.057L361.449 186.976V179.411C361.449 179.059 361.589 178.722 361.837 178.474C362.086 178.226 362.423 178.086 362.774 178.086C363.126 178.086 363.463 178.226 363.711 178.474C363.96 178.722 364.099 179.059 364.099 179.411V184.711L389.472 188.129L389.909 182.008C389.882 181.812 389.898 181.613 389.957 181.424C390.017 181.235 390.118 181.062 390.252 180.918C390.387 180.773 390.553 180.661 390.737 180.589C390.921 180.516 391.119 180.486 391.316 180.5C391.513 180.514 391.705 180.573 391.877 180.67C392.048 180.768 392.196 180.903 392.309 181.066C392.422 181.228 392.497 181.413 392.529 181.609C392.561 181.804 392.548 182.004 392.493 182.193L391.804 191.057Z" fill="#263238"/>
<path d="M368.434 188.527L385.035 190.13L386.109 184.234L368.964 181.558L368.434 188.527Z" fill="white" stroke="#263238" stroke-linecap="round" stroke-linejoin="round"/>
<path d="M365.48 189.335C365.48 189.335 365.48 182.631 366.289 182.101C367.097 181.571 378.611 182.366 378.611 183.969C378.611 185.572 378.611 186.38 377.286 186.38C375.961 186.38 373.311 186.646 373.311 186.646C373.311 186.646 379.472 192.277 377.591 197.364" fill="white"/>
<path d="M365.48 189.335C365.48 189.335 365.48 182.631 366.289 182.101C367.097 181.571 378.611 182.366 378.611 183.969C378.611 185.572 378.611 186.38 377.286 186.38C375.961 186.38 373.311 186.646 373.311 186.646C373.311 186.646 379.472 192.277 377.591 197.364" stroke="#263238" stroke-linecap="round" stroke-linejoin="round"/>
<path d="M373.788 247.196L372.715 258.988" stroke="#263238" stroke-linecap="round" stroke-linejoin="round"/>
<path d="M237.726 242.055C237.726 242.055 199.859 271.601 200.839 274.794C201.819 277.988 229.909 304.844 239.197 311.429C248.485 318.014 253.612 320.969 253.612 320.969L259.468 324.626C259.468 324.626 257.03 328.601 258.501 329.277C259.972 329.952 265.338 332.695 266.067 331.224C266.795 329.754 270.717 318.77 270.227 316.08C269.737 313.39 255.56 311.191 254.593 310.21C253.625 309.23 230.399 273.112 230.399 273.112L248.485 258.948L237.726 242.055Z" fill="white" stroke="#263238" stroke-linecap="round" stroke-linejoin="round"/>
<path d="M237.078 243.036L243.955 261.678L248.486 258.909L237.078 243.036Z" fill="#263238" stroke="#263238" stroke-linecap="round" stroke-linejoin="round"/>
<path d="M259.469 324.601C259.469 324.601 261.191 328.271 264.119 328.575" stroke="#263238" stroke-linecap="round" stroke-linejoin="round"/>
<path d="M230.401 273.072L225.512 264.526" stroke="#263238" stroke-linecap="round" stroke-linejoin="round"/>
<path d="M262.901 540.595L262.504 562.311L280.298 562.695L281.875 539.031L262.901 540.595Z" fill="white" stroke="#263238" stroke-linecap="round" stroke-linejoin="round"/>
<path d="M262.969 539.416V544.782L281.425 545.643L281.849 540.065L262.969 539.416Z" fill="#263238" stroke="#263238" stroke-linecap="round" stroke-linejoin="round"/>
<path d="M271.298 556.639C271.298 556.639 268.953 547.444 265.429 547.246C261.904 547.047 260.129 549.789 258.804 552.333C257.479 554.877 248.827 563.476 245.886 565.583C242.944 567.69 236.505 570.472 235.524 576.726C234.544 582.98 238.254 585.537 240.824 586.12C243.395 586.703 254.909 586.902 261.759 586.12C268.609 585.338 287.277 587.193 288.364 586.12C289.45 585.047 290.908 581.615 289.927 579.27C289.159 577.562 288.241 575.926 287.184 574.381C287.184 574.381 289.145 568.71 287.966 565.583C286.787 562.456 284.442 558.534 284.839 556.772C285.237 555.01 289.53 551.3 286.602 551.101C283.673 550.902 278.97 554.427 276.002 555.407C274.476 555.966 272.902 556.378 271.298 556.639V556.639Z" fill="#263238" stroke="#263238" stroke-linecap="round" stroke-linejoin="round"/>
<path d="M283.82 575.215C281.077 575.613 270.57 580.687 263.866 582.264C257.162 583.84 251.358 584.013 248.218 582.449C245.078 580.886 242.349 576.196 240.004 573.254C237.658 570.313 235.711 577.759 235.711 577.759L235.379 577.905C234.982 583.35 238.4 585.616 240.785 586.172C243.17 586.729 254.87 586.954 261.72 586.172C268.57 585.391 287.238 587.246 288.325 586.172C289.411 585.099 290.869 581.668 289.888 579.322C289.12 577.615 288.202 575.979 287.145 574.433C285.98 574.235 286.563 574.831 283.82 575.215Z" fill="white" stroke="#263238" stroke-linecap="round" stroke-linejoin="round"/>
<path d="M255.336 557.793C255.336 557.793 260.636 556.627 267.261 563.093L263.75 566.021C263.75 566.021 256.9 560.721 252.594 560.721L255.336 557.793Z" fill="white" stroke="#263238" stroke-linecap="round" stroke-linejoin="round"/>
<path d="M250.379 561.768C250.379 561.768 255.679 560.588 262.304 567.067L258.793 570.009C258.793 570.009 251.943 564.709 247.637 564.709L250.379 561.768Z" fill="white" stroke="#263238" stroke-linecap="round" stroke-linejoin="round"/>
<path d="M265.828 561.131L271.3 556.64" stroke="#263238" stroke-linecap="round" stroke-linejoin="round"/>
<path d="M258.794 569.943C258.794 569.943 260.119 572.871 257.814 574.633C255.508 576.395 240.006 573.454 240.205 571.307C240.404 569.161 247.638 564.683 247.638 564.683C251.682 565.642 255.481 567.434 258.794 569.943V569.943Z" fill="white" stroke="#263238" stroke-linecap="round" stroke-linejoin="round"/>
<path d="M375.137 540.595L375.522 562.311L357.728 562.695L356.164 539.031L375.137 540.595Z" fill="white" stroke="#263238" stroke-linecap="round" stroke-linejoin="round"/>
<path d="M356.51 543.059V546.279L375.391 546.067L375.179 541.35L356.086 541.138L356.51 543.059Z" fill="#263238" stroke="#263238" stroke-linecap="round" stroke-linejoin="round"/>
<path d="M366.723 556.639C366.723 556.639 369.068 547.444 372.592 547.246C376.117 547.047 377.892 549.789 379.217 552.333C380.542 554.877 389.194 563.476 392.122 565.583C395.05 567.69 401.516 570.472 402.483 576.726C403.451 582.98 399.754 585.537 397.184 586.12C394.613 586.703 383.099 586.902 376.249 586.12C369.399 585.338 350.731 587.193 349.657 586.12C348.584 585.047 347.113 581.615 348.081 579.27C348.849 577.562 349.767 575.926 350.823 574.381C350.823 574.381 348.862 568.71 350.042 565.583C351.221 562.456 353.566 558.534 353.168 556.772C352.771 555.01 348.478 551.3 351.406 551.101C354.334 550.902 359.038 554.427 362.006 555.407C363.535 555.968 365.115 556.38 366.723 556.639V556.639Z" fill="#263238" stroke="#263238" stroke-linecap="round" stroke-linejoin="round"/>
<path d="M354.204 575.215C356.946 575.613 367.453 580.687 374.157 582.264C380.862 583.84 386.678 584.013 389.805 582.449C392.932 580.886 395.675 576.196 398.02 573.254C400.365 570.313 402.326 577.759 402.326 577.759L402.644 577.905C403.042 583.35 399.623 585.616 397.238 586.172C394.853 586.729 383.154 586.954 376.304 586.172C369.454 585.391 350.785 587.246 349.712 586.172C348.639 585.099 347.168 581.668 348.135 579.322C348.904 577.615 349.822 575.979 350.878 574.433C352.057 574.235 351.461 574.831 354.204 575.215Z" fill="white" stroke="#263238" stroke-linecap="round" stroke-linejoin="round"/>
<path d="M382.753 557.793C382.753 557.793 377.453 556.627 370.828 563.093L374.352 566.021C374.352 566.021 381.189 560.721 385.495 560.721L382.753 557.793Z" fill="white" stroke="#263238" stroke-linecap="round" stroke-linejoin="round"/>
<path d="M387.647 561.768C387.647 561.768 382.347 560.588 375.723 567.067L379.247 570.009C379.247 570.009 386.084 564.709 390.39 564.709L387.647 561.768Z" fill="white" stroke="#263238" stroke-linecap="round" stroke-linejoin="round"/>
<path d="M372.199 561.131L366.727 556.64" stroke="#263238" stroke-linecap="round" stroke-linejoin="round"/>
<path d="M379.244 569.943C379.244 569.943 377.919 572.871 380.211 574.633C382.504 576.395 398.019 573.454 397.82 571.307C397.621 569.161 390.387 564.683 390.387 564.683C386.347 565.641 382.552 567.433 379.244 569.943V569.943Z" fill="white" stroke="#263238" stroke-linecap="round" stroke-linejoin="round"/>
<path d="M271.072 311.351C271.072 311.351 260.724 353.604 256.842 389.404C252.96 425.205 246.918 542.477 246.918 542.477H294.351C294.351 542.477 308.581 423.456 310.741 402.336C312.901 381.216 312.888 367.887 312.888 367.887L339.625 542.53H396.108C396.108 542.53 374.551 431.71 365.926 380.885C357.3 330.059 345.23 310.172 345.23 310.172L271.072 311.351Z" fill="#B0B0B0" stroke="#263238" stroke-linecap="round" stroke-linejoin="round"/>
<path d="M311.603 314.411C311.192 315.643 299.957 332.523 303.402 333.808C306.846 335.094 313.326 335.133 313.326 331.662V317.856C313.326 317.856 314.187 337.267 318.069 336.405C321.951 335.544 327.118 336.405 325.833 332.086C324.548 327.767 314.624 314 314.624 314C314.624 314 312.888 310.529 311.603 314.411Z" fill="#B0B0B0" stroke="#263238" stroke-linecap="round" stroke-linejoin="round"/>
<path d="M313.379 315.829C313.379 315.829 323.157 329.715 322.216 330.973C321.276 332.232 320.004 333.491 319.063 331.609C318.122 329.728 313.379 315.829 313.379 315.829Z" stroke="#263238" stroke-miterlimit="10"/>
<path d="M313.065 314.253C313.065 314.253 305.804 329.715 306.758 330.338C307.099 330.548 307.484 330.674 307.883 330.706C308.282 330.737 308.682 330.673 309.051 330.519C309.42 330.365 309.747 330.125 310.005 329.819C310.263 329.514 310.445 329.151 310.534 328.761C311.17 326.562 313.065 314.253 313.065 314.253Z" stroke="#263238" stroke-miterlimit="10"/>
<path d="M342.531 358.32C342.929 360.506 343.273 362.573 343.512 364.428" stroke="#263238" stroke-linecap="round" stroke-linejoin="round"/>
<path d="M332.301 315.71C332.301 315.71 337.68 334.922 341.138 351.232" stroke="#263238" stroke-linecap="round" stroke-linejoin="round"/>
<path d="M328.418 315.71C328.418 315.71 331.863 339.851 333.585 346.316" stroke="#263238" stroke-linecap="round" stroke-linejoin="round"/>
<path d="M281.488 349.138C281.302 350.807 281.143 352.331 280.984 353.643" stroke="#263238" stroke-linecap="round" stroke-linejoin="round"/>
<path d="M284.869 315.71C284.869 315.71 283.438 330.457 282.219 342.646" stroke="#263238" stroke-linecap="round" stroke-linejoin="round"/>
<path d="M281.423 316.571L279.688 337.267" stroke="#263238" stroke-linecap="round" stroke-linejoin="round"/>
<path d="M311.63 139.769C311.63 139.769 327.702 141.372 323.952 149.679C320.202 157.987 316.453 159.59 315.644 159.59C314.836 159.59 308.41 149.679 308.41 149.679L311.63 139.769Z" fill="#263238" stroke="#263238" stroke-linecap="round" stroke-linejoin="round"/>
<path d="M309.749 147.533C309.749 147.533 315.91 151.018 317.792 157.444C319.673 163.87 324.483 165.752 325.834 165.487C327.186 165.222 329.041 169.236 327.437 171.913L325.834 174.562C325.834 174.562 327.159 192.781 325.556 195.192C323.953 197.603 314.042 196.265 314.042 196.265C314.042 196.265 311.896 204.838 313.777 210.204C315.658 215.57 321.276 218.233 323.423 218.233C325.569 218.233 330.114 215.583 336.275 218.776C342.436 221.969 363.065 237.524 363.065 237.524L352.055 267.627L340.263 261.466L348.57 312.636L268.199 314.518C268.199 314.518 269.007 278.081 266.874 271.377C265.383 266.934 263.499 262.633 261.243 258.525L251.067 266.554L236.863 241.91C236.863 241.91 257.758 221.015 266.012 219.134C274.267 217.253 284.231 219.677 287.45 215.649C290.67 211.622 287.98 192.608 287.98 192.608C287.98 192.608 280.216 189.958 275.658 176.272C271.1 162.585 286.642 148.448 286.642 148.448C286.642 148.448 293.677 141.107 309.749 147.533Z" fill="white" stroke="#263238" stroke-linecap="round" stroke-linejoin="round"/>
<path d="M314.044 196.291L306.797 195.072L312.613 201.763L314.044 196.291Z" fill="#263238" stroke="#263238" stroke-linecap="round" stroke-linejoin="round"/>
<path d="M310.637 162.041C310.637 162.041 310.637 156.953 315.195 156.953" stroke="#263238" stroke-width="2" stroke-linecap="round" stroke-linejoin="round"/>
<path d="M322.616 180.485L313.236 175.927C313.236 175.927 312.441 185.572 315.885 185.307C319.33 185.042 322.616 180.485 322.616 180.485Z" fill="#263238" stroke="#263238" stroke-linecap="round" stroke-linejoin="round"/>
<path d="M313.434 167.01C313.434 167.01 316.454 163.737 318.972 166.506" stroke="#263238" stroke-linecap="round" stroke-linejoin="round"/>
<path d="M313.169 178.987L321.596 181.73C321.958 181.333 322.299 180.917 322.616 180.484L313.235 175.939C313.235 175.939 313.129 177.304 313.169 178.987Z" fill="white" stroke="#263238" stroke-linecap="round" stroke-linejoin="round"/>
<path d="M260.727 159.06C260.727 159.06 254.83 147.003 246.523 148.341C238.216 149.679 231.789 158.782 234.466 171.647C234.466 171.647 235.791 175.132 236.877 178.073C236.877 178.073 226.437 174.867 220.806 181.823C215.174 188.779 219.481 196.026 225.893 199.511C232.306 202.995 236.082 202.73 236.082 202.73C236.082 202.73 221.879 207.01 226.967 212.376C232.054 217.742 247.596 214.244 244.377 209.726C241.157 205.208 238.759 205.751 238.759 205.751C238.759 205.751 251.611 200.929 250.273 197.444C248.934 193.959 242.508 191.283 242.508 191.283C242.508 191.283 254.83 195.576 261.535 191.548C268.239 187.52 262.33 170.349 262.33 170.349L260.727 159.06Z" fill="#263238" stroke="#263238" stroke-linecap="round" stroke-linejoin="round"/>
<path d="M314.575 133.873C314.575 133.873 316.721 141.372 312.972 147.798C309.222 154.224 301.179 165.221 300.106 177.543C299.033 189.865 302.518 205.142 304.664 210.23C306.81 215.318 302.014 216.391 298.503 216.126C294.992 215.861 293.68 213.714 293.68 208.892C293.68 204.069 292.607 195.496 292.607 195.496C292.607 195.496 278.947 194.171 272.521 190.395C266.095 186.619 256.714 173.793 260.728 159.06C264.743 144.326 275.462 140.034 281.928 137.357C288.394 134.681 297.205 134.946 303.366 133.608C309.527 132.269 314.31 130.653 314.575 133.873Z" fill="#263238" stroke="#263238" stroke-linecap="round" stroke-linejoin="round"/>
<path d="M295.083 171.382L292.672 181.028C292.672 181.028 287.584 178.616 286.776 174.323C285.968 170.03 292.076 167.897 296.421 171.673" fill="white"/>
<path d="M295.083 171.382L292.672 181.028C292.672 181.028 287.584 178.616 286.776 174.323C285.968 170.03 292.076 167.897 296.421 171.673" stroke="#263238" stroke-linecap="round" stroke-linejoin="round"/>
<path d="M373.254 186.646L369.77 186.924" stroke="#263238" stroke-linecap="round" stroke-linejoin="round"/>
<path d="M348.186 178.908L437.488 191.402L425.351 125.34L345.43 163.83L348.186 178.908Z" fill="#AE8DFF" stroke="#263238" stroke-linecap="round" stroke-linejoin="round"/>
<path d="M345.428 163.833L332.16 166.259L334.905 181.273L348.173 178.848L345.428 163.833Z" fill="#AE8DFF" stroke="#263238" stroke-linecap="round" stroke-linejoin="round"/>
<path d="M363.069 237.551C363.069 237.551 342.439 222.009 336.278 218.803C330.117 215.596 325.679 218.193 323.519 218.259C320.647 222.396 316.779 225.742 312.273 227.991C307.767 230.239 302.767 231.317 297.735 231.125C280.113 230.9 275.211 221.095 274.151 218.233C271.454 218.259 268.766 218.538 266.122 219.068C257.814 220.949 236.973 241.844 236.973 241.844L251.176 266.488L261.352 258.459C263.608 262.566 265.492 266.868 266.983 271.311C269.129 278.015 268.308 314.451 268.308 314.451L348.68 312.57L340.372 261.4L352.058 267.627L363.069 237.551Z" fill="#263238" stroke="#263238" stroke-linecap="round" stroke-linejoin="round"/>
<path d="M312.217 288.579C325.501 285.417 333.706 272.085 330.544 258.802C327.381 245.518 314.05 237.314 300.766 240.476C287.483 243.638 279.278 256.969 282.44 270.253C285.602 283.536 298.934 291.741 312.217 288.579Z" stroke="white" stroke-miterlimit="10"/>
<path d="M321.595 253.317H292.273L306.729 267.243L321.595 253.317Z" fill="#AE8DFF"/>
<path d="M312.602 264.169L322.804 273.178V254.603L312.602 264.169Z" fill="#AE8DFF"/>
<path d="M300.967 264.142L290.633 254.179V272.755L300.967 264.142Z" fill="#AE8DFF"/>
<path d="M311.3 265.374L306.716 269.68L302.251 265.374L291.492 274.344H321.449L311.3 265.374Z" fill="#AE8DFF"/>
<path d="M26.5312 586.69H609.936" stroke="#263238" stroke-miterlimit="10"/>
</svg>
