<svg id="Layer_1" data-name="Layer 1" xmlns="http://www.w3.org/2000/svg" viewBox="0 0 297.83 239.38"><defs><style>.cls-1,.cls-3{fill:none;}.cls-2{fill:#010101;}.cls-3,.cls-5{stroke:#000;stroke-miterlimit:10;}.cls-4{fill:#020202;}.cls-5{fill:#231f20;}</style></defs><rect class="cls-1" y="159.38" width="106" height="80"/><path class="cls-2" d="M297.73-158.59c0-.67-.23-.77-.82-.76H225.08c-.29,0-.64-.18-.86.18v3.48c0,3.08,0,6.16,0,9.23l0,13.94v9c.08,2.14,0,4.29.14,6.44a1.73,1.73,0,0,0,1.88,1.81c2.6.05,5.21.1,7.82.12q9.7.06,19.4.09c.56,0,.7.16.64.7-.18,1.79-.32,3.6-.5,5.39a3.69,3.69,0,0,1-1.56,2.67c-.65.49-1.34.93-2,1.39l-1.06.7h24.13c-1-.66-1.92-1.2-2.78-1.82a4.14,4.14,0,0,1-1.87-3c-.19-1.8-.39-3.59-.5-5.4,0-.5.08-.68.59-.68,1.77,0,3.53,0,5.29,0,7.31,0,14.63.06,21.94-.15a1.76,1.76,0,0,0,1.94-1.91c0-.72.06-1.45.07-2.17C297.81-132.44,297.91-145.52,297.73-158.59Zm-2.86,36.11c0,2.23-1.23,3.25-3.36,3.38-1.89.11-3.85-.2-5.75-.23-6.11-.1-12.21-.56-18.32-.58a1.82,1.82,0,0,1-.64.12c-6.26,0-12.51.19-18.76.25-3.21,0-6.41,0-9.62,0-2.93,0-6-.36-8.88.07a1.73,1.73,0,0,1-2.08-1.19,1.89,1.89,0,0,1,.23-1.38,2.38,2.38,0,0,1,0-.39c0-2.76,0-5.47,0-8.22s.51-5.28.41-7.93-1-5.28-1.06-8,.38-5.22.5-7.83a1.36,1.36,0,0,1,0-.3,1.79,1.79,0,0,1-.42-1.09,1.7,1.7,0,0,1,1.69-1.69c1.39,0,2.78.08,4.16.19a1.57,1.57,0,0,1,1.33-.7,22.82,22.82,0,0,1,4.5.72,1.58,1.58,0,0,1,.87-.21c6.33.22,12.68-.3,19-.22,5.61.07,11.22.26,16.82.32a1.55,1.55,0,0,1,1.18-.48c3.56,0,7.11.66,10.66.48,2-.09,6.57-1.25,7.35,1.46a11.53,11.53,0,0,1,0,3.47c-.07,1.35-.23,2.7-.24,4.07,0,3,.44,5.93.5,8.9s-.05,6.21-.17,9.32c-.06,1.52-.06,3-.06,4.56C294.7-124.55,294.86-123.52,294.87-122.48Z" transform="translate(0 159.38)"/><path class="cls-3" d="M261-119.66q-16.34,0-32.66,0c-.62,0-.74-.18-.74-.77q0-18.22,0-36.47c0-.67.18-.82.84-.82q32.68,0,65.38,0c.59,0,.71.16.71.73q0,18.27,0,36.54c0,.65-.17.8-.81.8Q277.32-119.68,261-119.66Z" transform="translate(0 159.38)"/><path class="cls-2" d="M276.4-143.78c0,1.64,0,3.28,0,4.92a2.66,2.66,0,0,0,.44,1.54c1.86,2.84,3.67,5.71,5.53,8.55.38.58.31.79-.32,1.06a11.66,11.66,0,0,1-16.33-8.53,11.67,11.67,0,0,1,9.15-13.36c1.51-.3,1.51-.3,1.52,1.26s0,3,0,4.56Z" transform="translate(0 159.38)"/><path class="cls-2" d="M289.79-138.15a12.42,12.42,0,0,1-3.82,8.9c-1.2,1.21-1.2,1.22-2.12-.2-1.55-2.4-3.07-4.83-4.65-7.21-.42-.63-.32-.94.26-1.37,2.74-2,5.46-4.12,8.17-6.19.36-.28.53-.27.72.16A13.63,13.63,0,0,1,289.79-138.15Z" transform="translate(0 159.38)"/><path class="cls-4" d="M258-133.61c0,1.8,0,3.92-.09,6,0,.59-.24.87-.85.9a22.48,22.48,0,0,1-3,0c-.48,0-.71-.22-.72-.7-.15-4.31-.14-8.62,0-12.94a.69.69,0,0,1,.78-.74c1,0,1.93,0,2.9,0,.63,0,1,.31,1,1.05C258-138,258-135.95,258-133.61Z" transform="translate(0 159.38)"/><path class="cls-4" d="M255.28-149.19H253a4.94,4.94,0,0,1-.86-.11.64.64,0,0,1-.51-.69.65.65,0,0,1,.51-.63,1.56,1.56,0,0,1,.42-.08,37.63,37.63,0,0,1,4.63,0,.72.72,0,0,1,.76.77,43.35,43.35,0,0,1,0,4.7c0,.45-.22.82-.72.83s-.66-.39-.68-.84c-.06-.81-.12-1.62-.19-2.61l-2.26,2.53c-1.53,1.71-3,3.42-4.59,5.11-.71.77-.78.76-1.63.15-1.94-1.38-3.77-2.92-5.63-4.41-.44-.36-.67-.4-1.1,0-2.24,2.13-4.51,4.21-6.78,6.31-.28.26-.6.48-.91.72a.66.66,0,0,1-1-.05c-.35-.39-.07-.69.16-.94q.89-1,1.83-1.86,3-2.85,6.06-5.69c1-.91,1-.93,2.08-.11,1.88,1.43,3.73,2.9,5.58,4.36.24.18.4.36.69,0,2.07-2.38,4.16-4.76,6.23-7.13A3.07,3.07,0,0,0,255.28-149.19Z" transform="translate(0 159.38)"/><path class="cls-4" d="M278.09-139.22c0-.45,0-.85,0-1.25,0-3.2,0-6.41,0-9.61,0-.51,0-.69.66-.6a12.94,12.94,0,0,1,7.93,4.19c.28.3.54.52.05.91-2.74,2.12-5.49,4.23-8.3,6.25A1.8,1.8,0,0,1,278.09-139.22Z" transform="translate(0 159.38)"/><path class="cls-2" d="M239.32-132.66c0-1.6,0-3.19,0-4.78,0-1.11.06-1.15,1.14-1.17.87,0,1.73,0,2.6,0,.61,0,.87.3.87.89v10.12c0,.56-.21.89-.84.93a22,22,0,0,1-3.25-.06c-.59,0-.5-.52-.51-.87,0-1.69,0-3.38,0-5.06Z" transform="translate(0 159.38)"/><path class="cls-2" d="M246.27-131.47v-3.76c0-.61.24-1,.89-.94,1,0,2,0,3,0a.75.75,0,0,1,.84.78c0,.23.06.47.06.71,0,2.12,0,4.24,0,6.36,0,1.5-.27,1.73-1.74,1.71-.74,0-1.49-.07-2.23-.08s-.81-.33-.81-.87c0-1.3,0-2.6,0-3.9Z" transform="translate(0 159.38)"/><path class="cls-4" d="M237-130.07v2.46c0,.56-.21.85-.84.92a15.17,15.17,0,0,1-3.16,0,.66.66,0,0,1-.68-.69,37.27,37.27,0,0,1,0-5.69.56.56,0,0,1,.58-.6,22.34,22.34,0,0,1,3.17-.05.91.91,0,0,1,.95.94A16.7,16.7,0,0,1,237-130.07Z" transform="translate(0 159.38)"/><rect class="cls-5" x="225.75" y="8.72" width="1.83" height="6.88"/><rect class="cls-5" x="288.46" y="-121.6" width="1.83" height="6.88" transform="translate(171.22 -248.16) rotate(90)"/></svg>