<svg id="Layer_1" data-name="Layer 1" xmlns="http://www.w3.org/2000/svg" viewBox="0 0 497.71 478.08"><defs><style>.cls-1{fill:none;stroke:#000;stroke-miterlimit:10;}</style></defs><path d="M2141.24,472.29c-45.53.14-91.06.08-136.59.08q-68.79,0-137.58-.05c-3.51,0-5.09,0-3.57,4.44q20.43,59.09,40.38,118.34c1.13,3.37,2.57,4.52,6.22,4.51q94-.2,187.93,0c4,0,5.73-1.17,7-4.9q19.82-58.77,40-117.39C2146.57,472.88,2145.56,472.27,2141.24,472.29Zm-191,113.57c-.63,2-2.16,2.49-4.1,2.46-2.47,0-4.93,0-7.39-.06-5-.18-10-.16-15.08-.23-1.22,0-2.46-.1-3.68,0,0,0-.55.09-.69.11l-1.16.19c-1.91.27-3.78.16-5-1.57a1.91,1.91,0,0,1-.35-1.49,2.56,2.56,0,0,1-.33-1.13c0-.24,0-.47-.06-.7a2.12,2.12,0,0,1-.51-1.39,6.22,6.22,0,0,0-1-2.64,29.78,29.78,0,0,1-1.33-3.39c-.39-1.06-1-2-1.46-3.06a28,28,0,0,1-1.28-3.67c-.71-2.51-1.21-5.08-2-7.58-.49-1.6-1-3.18-1.42-4.78a2,2,0,0,1-.16-.14,10.55,10.55,0,0,1-2.62-6.53c-.07-.21-.16-.4-.24-.61-.85-2.47-1.53-5-2.38-7.48s-1.88-5.2-2.77-7.82-1.47-5.14-2.5-7.61a.64.64,0,0,1,0-.07,2.32,2.32,0,0,1-1-1.84c0-.23,0-.46,0-.69h0l-.06-.33c-.08-.44-.19-.88-.3-1.32-.22-.87-.48-1.73-.68-2.6l-.09-.38a2.06,2.06,0,0,1-.84-1.19,14,14,0,0,0-.75-2.69c-.29-.8-.54-1.61-.79-2.43s-.47-1.54-.77-2.29l-.06-.17h0c-.09-.2-.19-.4-.29-.6a7.3,7.3,0,0,0-.61-.95,1.65,1.65,0,0,1-.29-1.37c-1.3-3.37-2.64-6.75-3.82-10.17-1.27-3.64-2.41-7.33-3.69-11a1.85,1.85,0,0,1-.07-.93c0-.12-.07-.25-.1-.38a1.55,1.55,0,0,1,0-.22,1.23,1.23,0,0,1,0-.19,2.08,2.08,0,0,1,2.12-2.2c10.49,0,21,.12,31.47.17,4.1,0,8.18,0,12.28-.17a14.4,14.4,0,0,1,6.27.69,2.33,2.33,0,0,1,2.76,2.08,3.8,3.8,0,0,1-.06,1.22,26.9,26.9,0,0,1,1.59,8.06c.07.73.08,1.47.09,2.2a2,2,0,0,1,.86,1.2,2.2,2.2,0,0,1,.18,1,49.45,49.45,0,0,0,.51,7.49,2.06,2.06,0,0,1,.73,1.11c.84,3.11.59,6.29,1,9.45.38,2.88,1.55,5.61,2.12,8.46,0,.06,0,.12,0,.18a2.09,2.09,0,0,1,.34,1.16,40.61,40.61,0,0,0,.88,6.77c.42,2.26.69,4.53,1.06,6.78a62.16,62.16,0,0,0,1.54,6.91c.67,2.36.37,4.86,1.09,7.19a2.27,2.27,0,0,1,.09,1,2.16,2.16,0,0,1,.46,1.34c0,5.65,1.72,11.11,2.44,16.69a33.5,33.5,0,0,0,1.16,6.43C1950.11,581.92,1950.88,583.9,1950.27,585.86Zm48.19,1.33c-1.88,2-5.11,2-7.62,1.82-4.36-.28-8.66-.57-13-.62-4.55,0-9.09-.16-13.64-.17a2,2,0,0,1-2.06-1.66,10.8,10.8,0,0,1-1.38-2.6,2,2,0,0,1,.48-2l-.39-1.71a30.81,30.81,0,0,1-.82-5.81,15.33,15.33,0,0,1-.6-1.93c-.47-2.16-.94-4.32-1.34-6.49s-.7-4.19-1.11-6.28a29.89,29.89,0,0,1-.75-6.38,2.77,2.77,0,0,1,0-.3c-.44-2-.67-3.92-.94-5.91a48,48,0,0,0-1.41-5.52,55,55,0,0,1-1-6,45.52,45.52,0,0,1-.67-6.27s0-.1,0-.14a2.16,2.16,0,0,1-.41-.89,77.28,77.28,0,0,1-1.25-9.09,54.4,54.4,0,0,0-2-8.32c-1.49-5.6-1.08-11.57-2.93-17.07a2.68,2.68,0,0,1-.11-.65,2.34,2.34,0,0,1-.34-1.17v-3.79a1.5,1.5,0,0,1,0-.37c0-.07-.08-.14-.13-.21a2.31,2.31,0,0,1-.31-.63c0-.2,0-.39-.08-.59a2.08,2.08,0,0,1,.07-.5,2.18,2.18,0,0,1,1.94-3.11,2.45,2.45,0,0,1,.56.07,2.62,2.62,0,0,1,.57-.07c2.72,0,5.43.32,8.15.28s5.3-.36,8-.38a2.44,2.44,0,0,1,.62.09,2.2,2.2,0,0,1,.89-.18c10.08,0,20.15.18,30.23.19a4.4,4.4,0,0,1,3.33,2.48c0,4.86.1,9.7,0,14.56s.12,9.84.38,14.8a2,2,0,0,1-.26,1.17,2.3,2.3,0,0,1,.17.82c.06,2.87-.2,5.72-.27,8.58s0,5.83-.07,8.74c-.09,6-.22,11.89-.23,17.83a2.47,2.47,0,0,1-.09.64,38.21,38.21,0,0,1,.28,4,2.1,2.1,0,0,1-.19.88c.13,1.06.28,2.12.32,3.18l.21,6c.13,3.41.92,7.09-.13,10.41a2.4,2.4,0,0,1-.46.82C1999.2,580.9,2000.8,584.73,1998.46,587.19Zm59.43-65.48a2.37,2.37,0,0,1-.09.77l-.09.34a.5.5,0,0,0,0,.12,3.36,3.36,0,0,1-.25.89,67.83,67.83,0,0,0-1.29,8.65c-.2,1.81-.42,3.63-.75,5.43-.3,1.55-.73,3.07-.93,4.64a2.8,2.8,0,0,1-.77,1.63c-.82,7.26-1.11,14.62-2.63,21.78a1.86,1.86,0,0,1-1.18,1.45c-.33,1.69-.22,3.43-.4,5.16a69.26,69.26,0,0,1-1.31,7.13,27,27,0,0,0-.65,3.32,5.68,5.68,0,0,1-1,3.2h0a2,2,0,0,1-2.1,1.9,2.17,2.17,0,0,1-.84-.16c-.24,0-.49.06-.74.08a2.08,2.08,0,0,1-1.36.46c-5,0-10-.58-15-.36-2.48.1-5,.32-7.44.37a73.21,73.21,0,0,1-7.4-.39,2.23,2.23,0,0,1-2.11-1.61c-.65-2.68.17-5.11.3-7.78a44.6,44.6,0,0,0-.25-5.42,2.55,2.55,0,0,1-.24-.54,2.22,2.22,0,0,1,.12-1.46v-.56a15,15,0,0,1-.12-4.53,20.07,20.07,0,0,0,.37-4.69c-.19-1.54-.63-3-.72-4.55s0-3.19,0-4.78a2.14,2.14,0,0,1,.43-1.31c0-1.75.14-3.5.26-5.25a2,2,0,0,1-.59-1.49c0-4.3.58-8.58.65-12.87s0-8.81.06-13.21c0-3.82,0-7.65,0-11.47a2.56,2.56,0,0,1-.29-1c-.18-3.1.09-6.19.1-9.28a2.11,2.11,0,0,1,.21-.92c0-1.34-.1-2.68-.21-4a2.11,2.11,0,0,1,.07-.77,13.14,13.14,0,0,1-.27-2,5.37,5.37,0,0,1,0-1,6.75,6.75,0,0,1,.22-1.27,2.41,2.41,0,0,1-.34-.68,2.2,2.2,0,0,1,1.53-2.7,28.09,28.09,0,0,1,6.48-.06h.14a2.1,2.1,0,0,1,1-.22c3.35,0,6.69.23,10,.45a2,2,0,0,1,1.44-.54c7.37,0,14.75.07,22.13.09,2.33,0,4.68-.2,7-.15a7.88,7.88,0,0,1,2.17.33,2.37,2.37,0,0,1,.61-.08,2,2,0,0,1,2.09,1.88,2.36,2.36,0,0,1,.11.6c.17,5.54-1.25,11-2.07,16.4a1.57,1.57,0,0,1-.43.85c-.23,1-.52,2.05-.69,3.09-.31,1.93-.51,3.84-.93,5.74s-.86,3.9-1.17,5.87C2058.51,518.76,2058.15,520.23,2057.89,521.71Zm73.21-37.36a2.19,2.19,0,0,1-1.18,2.32,30,30,0,0,1-2.69,9.65c-.67,1.62-1.35,3.24-1.89,4.91-.35,1.06-.66,2.13-1.06,3.16a1.65,1.65,0,0,1-.08.82c-1.06,2.93-2.44,5.73-3.31,8.73a55.36,55.36,0,0,1-3.08,8.22c-.87,3.06-1.92,6.06-3,9.06s-1.9,6-3.07,8.94c-.06,3.73-2.09,7.42-3.42,10.81-.82,2.09-1.69,4.19-2.35,6.34a43.5,43.5,0,0,1-1.69,5.71v1a2.1,2.1,0,0,1-.51,1.34,69.23,69.23,0,0,1-2.42,6.82c-.7,2-1.52,3.95-2.39,5.88,0,.06,0,.12,0,.17a7.43,7.43,0,0,1-1.19,3.49l-.33.5a8.08,8.08,0,0,1-2.1,4.63c-1.37,1.61-3.36,1.63-5.31,1.78-5.06.42-10.16-.13-15.23-.16a2.3,2.3,0,0,1-.82-.17,2,2,0,0,1-.79.17c-1.25,0-2.51.12-3.76.18-1.59.08-3.19.14-4.79.09a9.73,9.73,0,0,1-4.31-.75c-1.87-1-1.55-3-1.15-4.79.09-.41.2-.82.29-1.23,0-.14.06-.27.1-.41s0-.05,0-.09a30.19,30.19,0,0,1,.33-4.55,1.77,1.77,0,0,1,1.14-1.31,21.28,21.28,0,0,1,.46-5.22c.31-1.85.6-3.69,1-5.52a56.36,56.36,0,0,0,1.11-5.88,25.68,25.68,0,0,1,.93-5.85,2.05,2.05,0,0,1,.7-1,88.53,88.53,0,0,1,2.3-15.87q.69-3.18,1.39-6.36a2,2,0,0,1-.3-1,24.17,24.17,0,0,1,1.58-7v0a2.24,2.24,0,0,1-.07-.51,14.81,14.81,0,0,1,.67-4.07,23.93,23.93,0,0,0,.89-3.45l0,.23a3.37,3.37,0,0,1,.06-.36,2.35,2.35,0,0,1-.08-2.22c1.64-3.65,1.47-7.94,2.22-11.81.42-2.17,1.08-4.34,1.32-6.55s.14-4.05,1.11-6c0,0,0,0,0,0a2.45,2.45,0,0,1-.6-1.48,2.25,2.25,0,0,1,.65-1.55,2.16,2.16,0,0,1,1.07-.58,2,2,0,0,1,1.9-1.2,2.08,2.08,0,0,1,1.26.4l.25,0c7.63,0,15.25.28,22.88.29s15.06-.39,22.6-.39a2.18,2.18,0,0,1,1.27.4,2,2,0,0,1,1.38-.49,2.33,2.33,0,0,1,.38,0,1.25,1.25,0,0,1,.66-.18A1.3,1.3,0,0,1,2131.1,484.35Z" transform="translate(-1772.59 -251.56)"/><path d="M2238.88,540.11c8.12-5.27,15.66-10,23-15,2.49-1.69,3.86-1.85,5.66,1,3.85,6,4,5.88-2,9.75-11.13,7.25-22.27,14.48-33.33,21.82-2.39,1.58-3.72,2.12-5.64-1-7.56-12.1-15.41-24-23.36-35.9-1.79-2.67-1.73-4,1.08-5.77,5.65-3.57,5.55-3.73,9.31,2l13.49,20.66a188.42,188.42,0,0,0,4-44c-1.18-58.47-21.39-109.41-61.11-152.48a212.1,212.1,0,0,0-23.84-21.9c-2.36-1.89-2.6-2.93-.68-5.37,5.07-6.44,4.89-6.53,11.29-1,41.07,35.57,68.31,79.46,80.43,132.63C2243.5,473,2244.36,503.66,2238.88,540.11Z" transform="translate(-1772.59 -251.56)"/><path d="M1928.32,274.75c-8.71-4.37-16.45-8.5-24.41-12.15-3.35-1.54-3.72-3-1.61-5.74a19.23,19.23,0,0,0,2.12-3.92c.71-1.59,1.49-1.69,3.06-.89q20.19,10.2,40.5,20.15c2.2,1.08,1.89,2.17,1.06,3.85-6.6,13.34-13.23,26.67-19.71,40.07-1.2,2.48-2.2,2.49-4.48,1.25-6.67-3.62-6.73-3.49-3.46-10.09,3.4-6.84,6.78-13.68,10.21-20.61-2.12-1.06-3.67.4-5.15,1Q1811.86,336,1786.94,457.91a38.93,38.93,0,0,0-.44,4.46c-.67,7.68-.64,7.4-8.38,6.76-3.68-.3-3.45-2-3.08-4.53,7-47.72,26.41-89.66,58.73-125.55a236.22,236.22,0,0,1,90.85-62.69C1925.54,276,1926.43,275.58,1928.32,274.75Z" transform="translate(-1772.59 -251.56)"/><path d="M2048.48,438h5.34c28.58,0,57.16.16,85.74-.17,5.47-.06,4.53,2.8,4.8,6.07.31,3.85-.42,5.36-4.92,5.35q-134.6-.24-269.18-.17c-1.66,0-4.35,1.12-4.85-1-.71-3-1-6.37.19-9.29.69-1.68,3-.73,4.58-.73q79.52-.06,159,.07c4.14,0,6.51-1.05,8.63-4.75,8.63-15.12,17.75-30,26.43-45.07,2-3.51,3.78-3.93,6.65-1.4a6.25,6.25,0,0,0,1.7,1c3.31,1.35,3.86,2.9,1.73,6.25-8.09,12.72-15.81,25.67-23.59,38.59C2049.85,434.19,2048.32,435.46,2048.48,438Z" transform="translate(-1772.59 -251.56)"/><path d="M1852.74,670.86c0,9.52-.14,18.44.07,27.35.07,3.07-.86,4-3.89,4-7.2.07-7.21.23-7.42-6.76-.41-13.12-.69-26.24-1.27-39.35-.15-3.49.39-4.84,4.39-4.87,14.12-.11,28.24-.47,42.34-1.23,4.8-.26,4.66,2.33,4.59,5.41,0,2.8,1.53,6.17-4,6.09-8.54-.12-17.1.79-26.7,1.33a164.24,164.24,0,0,0,23.72,18.53c44.54,29.07,93.26,42,146.39,37.51a217,217,0,0,0,53.21-11.79,10.68,10.68,0,0,0,3.13-1.45c3.3-2.64,4.91-2,6.33,2.11,2.05,6,2.43,6-5.46,8.55Q1961.06,756.9,1856.54,674C1855.38,673,1854.25,672.09,1852.74,670.86Z" transform="translate(-1772.59 -251.56)"/><path d="M1784.33,490.94c1,4.19,0,6.5-5.09,5.87-3.44-.43-6.81.88-6.65-5.16.15-5.32,1.68-6.38,6.6-6.28C1783.47,485.47,1785.48,486.33,1784.33,490.94Z" transform="translate(-1772.59 -251.56)"/><path d="M2166.33,671.19c-2.49,1.79-5.26,3.84-8.12,5.74-.46.31-6.69-7.58-6.65-8.36.07-1.11,6.89-6.54,8-6.33C2160.19,662.37,2166.46,670,2166.33,671.19Z" transform="translate(-1772.59 -251.56)"/><path d="M2121.53,701.45c-2.33,2.81-5.74,3.71-8.72,5.25-.64.33-5.72-7.5-5.67-8.67,0-.64,8.37-5.88,8.93-5.43C2118.83,694.85,2119.52,698.42,2121.53,701.45Z" transform="translate(-1772.59 -251.56)"/><path d="M2088.33,274.88c-2.58,3.19-1.27,8.64-5.43,9-2.6.23-8-.57-8.11-4.06-.1-2.74.28-8.08,4.37-8.75C2082,270.6,2085.52,272.54,2088.33,274.88Z" transform="translate(-1772.59 -251.56)"/><path d="M2112.73,285.44c0,2.11-5,9.27-5.81,8.79-2.77-1.65-7.78-1.5-7.94-4.93-.13-2.55,1.06-7.67,4.71-7.94C2106.76,281.12,2110.37,283.06,2112.73,285.44Z" transform="translate(-1772.59 -251.56)"/><path d="M1789.21,546c-1.79,4.19-6.22,4.08-9,3.72-4.41-.57-3.44-5.75-3.18-8.38.5-5.23,6-3,8.7-3C1789.85,538.3,1787.38,543.3,1789.21,546Z" transform="translate(-1772.59 -251.56)"/><path d="M2128.35,293.59c1.45.07,8.52,5.24,8.44,6.17-.12,1.32-5.64,8.08-6.29,7.62-2.54-1.79-6.56-1.74-7.48-5.5C2122.68,300.52,2127.53,293.56,2128.35,293.59Z" transform="translate(-1772.59 -251.56)"/><path d="M1780.5,512.42c7-1.87,4.73,4.22,4.86,7.27.26,5.67-5,3.36-7.57,3.74-5.78.85-3.08-4.5-3.72-7C1773.13,512.86,1773.67,512.72,1780.5,512.42Z" transform="translate(-1772.59 -251.56)"/><path d="M2143.88,686.47c0,.75-7.12,6.31-8,5.9-3.15-1.46-3.9-5-5.87-7.48-.36-.47,6.61-6.07,7.69-6.18C2138.48,678.63,2143.84,685.37,2143.88,686.47Z" transform="translate(-1772.59 -251.56)"/><path class="cls-1" d="M2009.4,535.07c0-15.94.14-31.88-.1-47.82-.06-3.84,1.06-4.64,4.71-4.59q23.16.31,46.33,0c3.38,0,4.23.92,3.69,4.11q-8.4,48.71-16.59,97.44c-.54,3.25-1.6,4.39-5,4.3q-14.19-.37-28.39,0c-3.65.1-4.8-.78-4.75-4.62C2009.54,567.62,2009.4,551.34,2009.4,535.07Z" transform="translate(-1772.59 -251.56)"/><path class="cls-1" d="M1999.2,535.39c0,16.1-.1,32.2.08,48.3,0,3.49-.5,5-4.51,4.84-9.78-.33-19.58-.15-29.37-.08-2.25,0-3.53-.26-4-3q-8.29-49.77-16.88-99.5c-.38-2.2-.09-3.26,2.61-3.24,16.26.12,32.53.15,48.8,0,3.26,0,3.31,1.5,3.3,3.92C1999.17,502.86,1999.2,519.12,1999.2,535.39Z" transform="translate(-1772.59 -251.56)"/><path class="cls-1" d="M1905.4,482.75c8,0,15.94.11,23.91-.06,2.72-.06,3.74.83,4.19,3.49q8.26,48.88,16.77,97.74c.56,3.25.19,4.72-3.74,4.6-9.62-.3-19.27-.18-28.9,0-2.64,0-4.12-.5-5.07-3.31q-16.74-49.54-33.78-99c-1-2.95-.26-3.56,2.7-3.5C1889.44,482.87,1897.42,482.75,1905.4,482.75Z" transform="translate(-1772.59 -251.56)"/><path class="cls-1" d="M2131.78,482.75c-6.36,18.51-12.46,36.17-18.51,53.84-5.45,15.94-10.89,31.88-16.2,47.86-1,2.91-2.23,4.16-5.54,4.06-9.31-.27-18.64-.4-27.92,0-4.88.23-4.89-1.84-4.24-5.44,2.36-13.19,4.6-26.39,6.86-39.59q4.91-28.65,9.74-57.32c.37-2.23.86-3.53,3.61-3.52C2096.69,482.81,2113.81,482.75,2131.78,482.75Z" transform="translate(-1772.59 -251.56)"/></svg>