<svg id="Layer_1" data-name="Layer 1" xmlns="http://www.w3.org/2000/svg" viewBox="0 0 178.71 196.01"><defs><style>.cls-1{fill:none;stroke:#000;stroke-miterlimit:10;stroke-width:2px;}</style></defs><path class="cls-1" d="M395.31,108.52a52.33,52.33,0,0,1-15.55,37.3,38.6,38.6,0,0,0-73.9,0,52.5,52.5,0,1,1,89.45-37.3Z" transform="translate(-250.56 -10.01)"/><path class="cls-1" d="M379.76,145.82a52.51,52.51,0,0,1-73.9,0,38.6,38.6,0,0,1,73.9,0Z" transform="translate(-250.56 -10.01)"/><line class="cls-1" x1="38.75" y1="50.01" x2="56.07" y2="60.38"/><path class="cls-1" d="M279.31,42a12,12,0,1,0,12,12A12,12,0,0,0,279.31,42ZM279,64.47c-14,0-13.93-21.64,0-21.64S292.94,64.47,279,64.47Z" transform="translate(-250.56 -10.01)"/><path class="cls-1" d="M273.93,124.33l17.46-9.73" transform="translate(-250.56 -10.01)"/><path class="cls-1" d="M269.56,119.69a12,12,0,1,0,4.39,16.4h0A12,12,0,0,0,269.56,119.69Zm-5.7,21.71c-14,0-13.93-21.64,0-21.64S277.78,141.4,263.86,141.4Z" transform="translate(-250.56 -10.01)"/><line class="cls-1" x1="88.57" y1="171.31" x2="88.89" y2="151.13"/><path class="cls-1" d="M349.31,187a12,12,0,1,0-4.39,16.39h0A12,12,0,0,0,349.31,187Zm-10,17.29c-14,0-13.93-21.65,0-21.65S353.2,204.31,339.31,204.31Z" transform="translate(-250.56 -10.01)"/><line class="cls-1" x1="154.86" y1="129.26" x2="139.7" y2="121.35"/><line class="cls-1" x1="150.83" y1="53.72" x2="133.19" y2="63.54"/><path class="cls-1" d="M417.58,47.68A12,12,0,1,0,422,64.07h0A12,12,0,0,0,417.58,47.68ZM411.65,69c-13.95,0-13.93-21.64,0-21.64S425.57,69,411.65,69Z" transform="translate(-250.56 -10.01)"/><path class="cls-1" d="M421.81,134.87a12,12,0,1,0,4.4,16.39h0A12,12,0,0,0,421.81,134.87Zm-5.93,21.34c-13.95,0-13.93-21.64,0-21.64S429.8,156.21,415.88,156.21Z" transform="translate(-250.56 -10.01)"/><line class="cls-1" x1="94.93" y1="24.71" x2="94.61" y2="44.89"/><path class="cls-1" d="M356.08,17a12,12,0,1,0-4.4,16.39h0A12,12,0,0,0,356.08,17ZM345.71,33.36c-14,0-13.93-21.64,0-21.64s13.93,21.68,0,21.68Z" transform="translate(-250.56 -10.01)"/><circle class="cls-1" cx="92.01" cy="82.06" r="12"/><path class="cls-1" d="M289.19,48a82.67,82.67,0,0,1,44.69-22.09" transform="translate(-250.56 -10.01)"/><path class="cls-1" d="M263.83,118.42a86.37,86.37,0,0,1,11.74-53.48" transform="translate(-250.56 -10.01)"/><path class="cls-1" d="M327.59,190.8C301.31,184,279.31,166,269.75,141.44" transform="translate(-250.56 -10.01)"/><path class="cls-1" d="M413.31,157.27a83.69,83.69,0,0,1-46,32.64,80.85,80.85,0,0,1-16.41,2.81" transform="translate(-250.56 -10.01)"/><path class="cls-1" d="M418.07,68.54a85.86,85.86,0,0,1,5.71,68" transform="translate(-250.56 -10.01)"/><path class="cls-1" d="M357.38,25.9A82.81,82.81,0,0,1,403.55,49" transform="translate(-250.56 -10.01)"/><path class="cls-1" d="M334.87,25.75" transform="translate(-250.56 -10.01)"/></svg>