<svg width="102" height="109" viewBox="0 0 102 109" fill="none" xmlns="http://www.w3.org/2000/svg">
<g clip-path="url(#clip0_1176_650)">
<path d="M101.843 53.0452C101.889 53.0279 101.94 53.0279 101.986 53.0452V56.6069H101.915H101.843C101.596 56.0456 101.469 55.4392 101.469 54.8261C101.469 54.213 101.596 53.6066 101.843 53.0452Z" fill="#CBCBCB"/>
<path d="M50.0301 109C50.0156 108.982 50.0078 108.959 50.0078 108.935C50.0078 108.911 50.0156 108.888 50.0301 108.87C50.3168 108.65 50.668 108.531 51.0293 108.531C51.3906 108.531 51.7418 108.65 52.0285 108.87C52.018 108.88 52.0097 108.892 52.0041 108.905C51.9984 108.918 51.9954 108.933 51.9954 108.947C51.9954 108.961 51.9984 108.976 52.0041 108.989C52.0097 109.002 52.018 109.014 52.0285 109.024L50.0301 109Z" fill="#707070"/>
<path d="M31.3777 55.3134C31.6751 53.5919 30.557 52.6659 29.3913 51.7517C29.0463 51.4786 28.7489 51.1343 28.3921 50.8731C27.8697 50.552 27.4862 50.0478 27.3168 49.4592C27.1474 48.8707 27.2042 48.2403 27.4761 47.6914C27.8449 46.7653 28.1066 45.7918 28.5229 44.8776C28.7727 44.3196 28.6656 44.094 28.1422 43.8091C24.5737 41.767 21.0052 39.7012 17.4367 37.6473L17.0918 37.4218C17.982 36.4824 18.663 35.3657 19.0901 34.145C19.2686 33.6701 19.4589 33.8601 19.7087 34.0025L25.5135 37.3505C27.3691 38.4309 29.2485 39.4757 31.0923 40.5798C31.7761 40.9837 32.5577 41.1931 33.3523 41.1853C33.8815 41.157 34.4123 41.1889 34.9343 41.2803C35.4311 41.4105 35.9567 41.3769 36.4327 41.1843C36.9087 40.9917 37.3094 40.6505 37.575 40.2118C37.6681 40.0991 37.7346 39.967 37.7696 39.8252C37.8046 39.6834 37.8073 39.5355 37.7773 39.3926C37.694 38.2053 37.6107 36.9231 37.5155 35.6884C37.45 35.2479 37.5194 34.7979 37.7147 34.3974C37.91 33.9969 38.2221 33.6648 38.6099 33.4445C40.5387 32.3027 42.6217 31.443 44.7953 30.892C45.1956 30.7818 45.6198 30.793 46.0138 30.9241C46.4077 31.0551 46.7538 31.3002 47.0078 31.6281C47.555 32.2217 48.0903 32.8153 48.7921 33.6226V32.5779C48.7921 27.5915 48.7921 22.6051 48.7921 17.6187C48.7921 17.0251 48.7921 16.7045 49.589 16.8945C50.4851 17.1023 51.4169 17.1023 52.313 16.8945C52.9791 16.752 53.0981 16.8945 53.0981 17.5475C53.0981 22.6763 53.0981 27.817 53.0981 32.9815V33.6939C53.7285 33.0053 54.2876 32.5066 54.7158 31.913C55.0174 31.4905 55.4492 31.1782 55.9455 31.0238C56.4417 30.8694 56.9749 30.8815 57.4636 31.0582C59.3878 31.617 61.2432 32.3896 62.9948 33.3614C63.4842 33.5794 63.8855 33.9559 64.1338 34.4299C64.3821 34.904 64.4628 35.4478 64.3627 35.9733C64.2199 37.1606 64.1843 38.3478 64.1129 39.535C64.1965 40.025 64.4319 40.4765 64.7861 40.8258C65.1404 41.1751 65.5956 41.4047 66.0875 41.4821C66.1743 41.4704 66.2623 41.4704 66.3491 41.4821C69.2991 41.7789 71.6543 40.2949 74.0333 38.8939C76.8525 37.1962 79.7311 35.5816 82.6216 33.9075C83.0958 35.2705 83.8493 36.5199 84.8341 37.5761L76.5789 42.325C75.6154 42.8949 74.6519 43.5123 73.6646 43.9872C73.1888 44.2365 73.1056 44.4739 73.3316 44.937C73.826 46.0322 74.224 47.1683 74.5211 48.3324C74.6576 48.7548 74.6612 49.2088 74.5315 49.6333C74.4017 50.0578 74.1449 50.4325 73.7954 50.7069C72.9866 51.4311 72.2015 52.2028 71.3331 52.8677C71.0349 53.0476 70.8001 53.3157 70.6616 53.6349C70.523 53.954 70.4875 54.3083 70.56 54.6485C70.5863 54.7339 70.5903 54.8245 70.5716 54.9118C70.5528 54.9991 70.512 55.0801 70.4529 55.1472C70.0809 55.3697 69.665 55.5093 69.2339 55.5564C68.8027 55.6035 68.3665 55.5571 67.955 55.4202C67.645 55.325 67.3134 55.325 67.0034 55.4202C66.3135 55.5508 66.1232 55.1947 66.1113 54.601C66.1334 54.2225 66.1014 53.8427 66.0161 53.4732C65.9075 52.9815 65.9354 52.4696 66.0968 51.9926C66.2582 51.5156 66.547 51.0916 66.932 50.7663C67.6695 50.0421 68.4903 49.401 69.2397 48.7005C69.4215 48.569 69.5486 48.3755 69.5969 48.1566C69.6451 47.9377 69.6111 47.7088 69.5013 47.5132C69.4181 47.347 69.3705 47.1808 69.2991 47.0146C68.7995 45.768 68.6805 45.6849 67.3126 45.8986C66.2853 46.0055 65.2511 46.0293 64.2199 45.9699C63.8787 45.9454 63.5476 45.8427 63.2526 45.6697C62.9576 45.4967 62.7065 45.2582 62.5189 44.9726C61.9584 44.2472 61.3068 43.5968 60.58 43.0374C60.2299 42.7883 59.9505 42.4527 59.7692 42.0636C59.5878 41.6745 59.5106 41.2451 59.5452 40.8173C59.5393 39.8419 59.587 38.8669 59.6879 37.8967C59.8426 36.9469 59.6879 36.7094 58.772 36.3651C57.3446 35.7715 57.3327 35.7596 56.3097 36.9231C55.703 37.6117 55.1203 38.3003 54.4422 38.9414C53.9943 39.3786 53.3915 39.6218 52.765 39.6181H49.1965C48.8265 39.6196 48.4599 39.5468 48.1186 39.4041C47.7774 39.2613 47.4684 39.0515 47.21 38.7871C46.4368 38.051 45.7708 37.22 45.0808 36.4126C44.9325 36.2073 44.716 36.0612 44.4698 36.0003C44.2237 35.9394 43.9639 35.9677 43.7367 36.0802C43.4869 36.1752 43.249 36.2939 42.9992 36.3651C42.8415 36.4009 42.6927 36.4684 42.562 36.5634C42.4313 36.6585 42.3215 36.7792 42.2391 36.9181C42.1567 37.057 42.1036 37.2112 42.0829 37.3713C42.0623 37.5314 42.0745 37.694 42.1189 37.8492C42.2557 38.8721 42.3035 39.9049 42.2616 40.936C42.2843 41.2754 42.2309 41.6155 42.1054 41.9318C41.9799 42.248 41.7854 42.5324 41.5361 42.7643C40.6677 43.5716 39.8113 44.379 39.0262 45.2575C38.8071 45.5005 38.5364 45.6916 38.2339 45.8169C37.9314 45.9422 37.6047 45.9985 37.2776 45.9817C36.245 46.0037 35.212 45.9601 34.1849 45.8511C33.1739 45.6849 32.9955 45.8511 32.591 46.8009C31.9368 48.4274 31.9962 48.0713 33.1382 49.1754C33.7091 49.7215 34.3277 50.232 34.9224 50.7663C35.3107 51.0911 35.6001 51.5179 35.7578 51.9984C35.9155 52.4789 35.9351 52.9939 35.8146 53.485C35.7153 53.7913 35.6749 54.1136 35.6956 54.4348C35.7084 54.6659 35.6751 54.8973 35.5975 55.1153C35.5199 55.3334 35.3996 55.5339 35.2436 55.7052C34.9577 56.0026 34.7395 56.3581 34.604 56.7474C34.4685 57.1367 34.4189 57.5507 34.4585 57.9609C34.4608 58.3091 34.3749 58.6521 34.2088 58.9582C33.7042 59.5388 33.1467 60.0714 32.5434 60.5491C32.3769 60.6707 32.2608 60.849 32.217 61.0502C32.1732 61.2514 32.2046 61.4617 32.3055 61.6414L32.4007 61.8907C33.0311 63.4934 33.0311 63.4816 34.7797 63.2679C35.7496 63.1906 36.7241 63.1906 37.694 63.2679C37.9905 63.2913 38.2786 63.3776 38.5391 63.5209C38.7996 63.6642 39.0265 63.8612 39.2047 64.0989C39.9174 64.9287 40.6928 65.7027 41.5242 66.414C41.788 66.632 41.9967 66.909 42.1331 67.2225C42.2695 67.5361 42.3299 67.8774 42.3093 68.2186C42.3367 69.2493 42.293 70.2807 42.1784 71.3054C42.0119 72.3027 42.1784 72.4927 43.1181 72.9201C44.0578 73.3475 44.3076 73.3 44.9499 72.5164C45.5923 71.7329 46.1395 71.0917 46.6985 70.4031C46.9064 70.1521 47.1685 69.9513 47.4651 69.8156C47.7617 69.6799 48.0852 69.6129 48.4114 69.6196H52.9315C53.2569 69.6085 53.5808 69.6663 53.8822 69.789C54.1835 69.9118 54.4554 70.0968 54.6801 70.3319C55.4199 71.0821 56.115 71.8749 56.7617 72.7064C56.8332 72.8346 56.9299 72.9472 57.0459 73.0373C57.162 73.1275 57.295 73.1934 57.4371 73.231C57.5792 73.2687 57.7275 73.2774 57.873 73.2566C58.0186 73.2358 58.1585 73.186 58.2843 73.1101C58.9742 72.7539 59.8782 72.6114 59.7474 71.5191C59.6307 70.4942 59.5672 69.4639 59.5571 68.4324C59.5234 67.9891 59.6041 67.5446 59.7915 67.1414C59.9789 66.7382 60.2668 66.3897 60.6276 66.1291C61.3346 65.5897 61.9666 64.9589 62.507 64.2533C62.7648 63.8897 63.1135 63.5998 63.5183 63.4123C63.9231 63.2249 64.3701 63.1464 64.8147 63.1848C65.7603 63.1792 66.7055 63.2268 67.6457 63.3272C68.6211 63.4816 68.8352 63.3272 69.2515 62.3656C69.4863 62.0474 69.6129 61.6626 69.6129 61.2674C69.6129 60.8722 69.4863 60.4874 69.2515 60.1692C69.3389 59.2339 69.3786 58.2948 69.3705 57.3554C69.3705 56.8924 69.4775 56.4175 70.0723 56.4294C70.667 56.4413 70.8216 56.8449 70.8811 57.3198C70.9406 57.7947 70.8811 58.507 70.8811 59.1719C70.8811 59.4925 70.8812 59.8843 71.3689 59.8605C71.8566 59.8368 71.7614 59.4687 71.7852 59.1719C71.8089 58.8751 71.7852 58.2815 71.7852 57.8541C71.7852 57.4267 71.69 57.1655 72.1539 57.0705C72.583 57.3546 72.9543 57.7171 73.2483 58.139C73.5621 58.7935 73.9935 59.385 74.5211 59.8842C74.8066 60.3235 74.5211 60.7509 74.4259 61.1427C74.1329 62.1631 73.7712 63.1627 73.3434 64.1345C73.0817 64.7044 73.1293 64.9418 73.7122 65.3218C77.2807 67.3519 80.8492 69.4177 84.4177 71.4835L84.7508 71.6854C83.9146 72.56 83.2633 73.5936 82.8357 74.7247C82.6216 75.3064 82.4313 75.3064 81.9555 75.0215C78.494 73.0032 75.0087 71.0324 71.5711 68.9904C70.4502 68.2236 69.1104 67.8403 67.7528 67.8981C67.3547 67.9018 66.957 67.874 66.5633 67.815C66.2168 67.7437 65.8579 67.7607 65.5197 67.8645C65.1816 67.9682 64.875 68.1553 64.6285 68.4085C64.3819 68.6617 64.2033 68.9728 64.109 69.3131C64.0147 69.6535 64.0079 70.012 64.0891 70.3557C64.1843 71.4479 64.2437 72.5402 64.2913 73.6206C64.3238 74.0194 64.2428 74.4194 64.0576 74.7743C63.8724 75.1293 63.5906 75.4249 63.2445 75.627C61.2635 76.9183 59.056 77.8246 56.738 78.2983C56.3411 78.3577 55.9355 78.3045 55.5675 78.145C55.1994 77.9855 54.8837 77.7259 54.6563 77.396L53.1695 75.5914C52.9885 75.8948 52.929 76.2552 53.0029 76.6005C53.0029 81.5869 53.0029 86.5733 53.0029 91.5597C53.0029 92.2126 52.9078 92.4382 52.1941 92.2839C51.294 92.076 50.3583 92.076 49.4582 92.2839C48.7921 92.4501 48.6969 92.2126 48.6969 91.6072C48.6969 86.2883 48.6969 80.9814 48.6969 75.6744V75.0808C47.9978 75.7339 47.3643 76.4536 46.8056 77.2297C46.5331 77.6945 46.0991 78.0433 45.5859 78.2096C45.0728 78.376 44.5163 78.3484 44.0222 78.132C42.0863 77.5119 40.2268 76.6755 38.479 75.6388C38.1286 75.4399 37.8419 75.1457 37.6524 74.7905C37.4629 74.4353 37.3783 74.0337 37.4085 73.6324C37.3941 72.658 37.4698 71.6843 37.6345 70.7237C37.7575 70.2133 37.7221 69.6777 37.533 69.1879C37.344 68.6981 37.0101 68.2773 36.5759 67.9812C36.4639 67.8899 36.3343 67.8227 36.1951 67.7839C36.0558 67.7451 35.9101 67.7354 35.767 67.7556C34.7678 67.815 33.7686 67.9218 32.7575 67.9337C31.9661 68.0164 31.2108 68.3073 30.5689 68.7766L19.8633 74.974C19.6373 75.1046 19.3994 75.2115 19.1496 75.3302C18.6862 73.9746 17.9403 72.7324 16.9609 71.6854C20.6603 69.5483 24.3239 67.4232 28.0114 65.3336C28.5824 65.0131 28.6776 64.7875 28.404 64.1464C27.9757 63.1848 27.6545 62.1637 27.3215 61.1664C27.2144 60.8221 27.0122 60.4541 27.2145 60.0623C27.4073 59.9262 27.6332 59.8442 27.8687 59.8249C28.2895 59.74 28.6718 59.5222 28.9589 59.2036C29.2459 58.885 29.4226 58.4825 29.4626 58.0559C29.4736 57.7057 29.5587 57.3617 29.7124 57.0467C30.0008 56.6298 30.3736 56.278 30.8068 56.0139C31.1874 56.1326 31.2112 56.1445 31.1279 56.5125C31.0013 57.3851 30.9693 58.2688 31.0327 59.1482C31.0327 59.4568 31.0328 59.8011 31.461 59.813C31.8892 59.8249 31.9368 59.4568 31.9487 59.1244C31.9606 58.792 31.9487 58.3052 31.9487 57.9372C31.9487 57.1892 31.9487 56.5125 32.8408 56.2157C32.8989 56.1999 32.953 56.172 32.9996 56.1339C33.0462 56.0958 33.0843 56.0483 33.1112 55.9945C33.1382 55.9407 33.1534 55.8818 33.156 55.8218C33.1586 55.7617 33.1485 55.7017 33.1263 55.6458C33.043 55.4084 32.8051 55.4203 32.6029 55.4084C32.2786 55.4293 31.9625 55.5183 31.6751 55.6696C31.6632 55.5627 31.3539 55.7052 31.3777 55.3134Z" fill="black"/>
<path d="M88.9543 88.6275C81.7519 96.6896 72.1731 102.264 61.5957 104.548C61.7493 103.196 61.7053 101.828 61.4649 100.488C61.334 99.9538 61.8931 100.072 62.131 100.013C70.7918 97.8875 78.6576 93.3213 84.7911 86.8586C85.2193 86.4193 85.4691 86.2412 85.9806 86.7636C86.4128 87.1643 86.8921 87.5111 87.408 87.7965C87.8124 88.0933 88.3477 88.3782 88.9543 88.6275Z" fill="black"/>
<path d="M12.9688 88.5436C14.1089 88.1425 15.1566 87.5167 16.0495 86.7033C16.454 86.3116 16.6562 86.3828 17.013 86.7033C19.9244 89.8055 23.2555 92.4868 26.9097 94.6697C30.8965 97.0809 35.2344 98.8593 39.7682 99.941C40.4225 100.095 40.5295 100.321 40.3868 100.938C40.1819 102.071 40.1618 103.23 40.3273 104.369C32.9524 104.073 16.9893 94.8122 12.9688 88.5436Z" fill="black"/>
<path d="M2.58143 38.8818C3.60623 39.6604 4.76825 40.2403 6.00721 40.5915C6.54249 40.7221 6.3403 40.9951 6.25703 41.2919C3.66854 49.8916 3.61072 59.0526 6.09048 67.6842C6.23322 68.1709 6.09051 68.3253 5.67418 68.4677C4.49173 68.8412 3.39011 69.4333 2.42679 70.213C-0.871401 60.0202 -0.817211 49.0417 2.58143 38.8818Z" fill="black"/>
<path d="M101.849 53.0455V56.6072C101.692 61.2306 100.892 65.8098 99.4702 70.2129C98.5054 69.4356 97.4043 68.8438 96.2229 68.4677C95.7233 68.3252 95.6757 68.1353 95.8065 67.6722C96.5038 65.2434 97.001 62.7617 97.2934 60.252C98.0573 54.0082 97.5187 47.6741 95.7114 41.6481C95.4854 40.8764 95.6044 40.6152 96.3775 40.4608C97.2874 40.2097 98.1371 39.7776 98.8755 39.1905C99.2442 38.9056 99.3869 38.9768 99.5178 39.4042C100.631 42.9081 101.357 46.5229 101.683 50.1843C101.73 51.1103 101.849 52.0838 101.849 53.0455Z" fill="black"/>
<path d="M88.5571 20.4918C87.3494 21.0367 86.2463 21.788 85.2979 22.712C84.9529 23.08 84.8221 22.8069 84.6317 22.5932C80.2414 18.0071 74.9537 14.3702 69.0967 11.9081C66.7736 10.9041 64.3652 10.1095 61.9003 9.53364C61.3531 9.41492 61.1747 9.30808 61.3412 8.69072C61.6485 7.50137 61.7292 6.26498 61.5791 5.0459C71.9561 7.28512 81.3818 12.6817 88.5571 20.4918Z" fill="black"/>
<path d="M13.3125 20.5031C15.2234 18.3999 17.3128 16.4654 19.5574 14.7212C25.4765 10.1176 32.3406 6.87448 39.66 5.22336C40.219 5.09277 40.3142 5.22337 40.2666 5.71013C40.1503 6.70874 40.2271 7.72035 40.4926 8.6901C40.6592 9.27185 40.5521 9.43805 39.9693 9.56865C34.2216 10.9293 28.7926 13.3887 23.9823 16.8108C21.5612 18.4996 19.321 20.4332 17.2973 22.5807C16.9524 22.9369 16.7739 22.9963 16.4171 22.5807C15.5094 21.7154 14.4592 21.0126 13.3125 20.5031Z" fill="black"/>
<path d="M57.1535 6.23273C57.151 7.45908 56.7855 8.65735 56.1028 9.67697C55.4201 10.6966 54.4507 11.4921 53.3164 11.9635C52.1821 12.4349 50.9335 12.5611 49.7275 12.3264C48.5215 12.0917 47.4119 11.5064 46.5382 10.6442C45.6645 9.78199 45.0655 8.68126 44.8167 7.48033C44.5678 6.2794 44.6802 5.03184 45.1395 3.89442C45.5989 2.757 46.3849 1.78048 47.3986 1.08753C48.4124 0.394584 49.6087 0.0161356 50.8372 -0.00024935C51.6642 -0.0128824 52.4853 0.139193 53.2527 0.447065C54.0201 0.754937 54.7183 1.21245 55.3064 1.79281C55.8945 2.37318 56.3608 3.06475 56.678 3.8271C56.9951 4.58946 57.1568 5.40727 57.1535 6.23273Z" fill="black"/>
<path d="M99.0048 78.6419C98.993 79.8718 98.6162 81.0706 97.9221 82.0868C97.228 83.103 96.2476 83.891 95.105 84.3513C93.9623 84.8117 92.7085 84.9236 91.5021 84.673C90.2957 84.4225 89.1909 83.8206 88.327 82.9435C87.4632 82.0664 86.8792 80.9535 86.6489 79.7452C86.4186 78.537 86.5522 77.2877 87.033 76.1553C87.5137 75.0229 88.32 74.0581 89.3499 73.3828C90.3798 72.7076 91.5871 72.3522 92.8193 72.3615C93.6402 72.363 94.4527 72.5272 95.2095 72.8447C95.9663 73.1622 96.6523 73.6266 97.2278 74.2109C97.8032 74.7952 98.2567 75.4878 98.5617 76.2485C98.8668 77.0091 99.0174 77.8227 99.0048 78.6419Z" fill="black"/>
<path d="M15.2941 30.3578C15.2941 31.5888 14.9282 32.792 14.2428 33.8153C13.5574 34.8386 12.5832 35.636 11.4436 36.1065C10.304 36.577 9.05015 36.6995 7.84075 36.4585C6.63134 36.2175 5.5207 35.6238 4.64947 34.7526C3.77825 33.8814 3.18561 32.7718 2.94646 31.5642C2.7073 30.3566 2.83239 29.1054 3.30598 27.9689C3.77956 26.8323 4.58029 25.8615 5.60687 25.1794C6.63344 24.4972 7.83974 24.1344 9.07301 24.1367C10.724 24.1399 12.3064 24.7967 13.4727 25.963C14.6391 27.1294 15.2941 28.7099 15.2941 30.3578Z" fill="black"/>
<path d="M9.06706 84.8163C8.24822 84.821 7.43656 84.6637 6.67898 84.3535C5.9214 84.0433 5.2329 83.5863 4.65332 83.0089C4.07375 82.4315 3.61462 81.7453 3.30235 80.9897C2.99009 80.2342 2.83092 79.4244 2.83407 78.6071C2.79732 77.768 2.93113 76.9302 3.2275 76.1442C3.52387 75.3582 3.97665 74.6402 4.55851 74.0335C5.14036 73.4268 5.8393 72.944 6.61313 72.6141C7.38696 72.2843 8.21966 72.1143 9.06111 72.1143C9.90256 72.1143 10.7353 72.2843 11.5092 72.6141C12.283 72.944 12.9819 73.4268 13.5637 74.0335C14.1456 74.6402 14.5984 75.3582 14.8947 76.1442C15.1911 76.9302 15.3249 77.768 15.2881 78.6071C15.2945 79.4242 15.1379 80.2345 14.8275 80.9907C14.5171 81.7469 14.0591 82.4339 13.4802 83.0118C12.9012 83.5896 12.2129 84.0467 11.4552 84.3565C10.6976 84.6663 9.8858 84.8226 9.06706 84.8163Z" fill="black"/>
<path d="M92.8038 24.136C94.0399 24.1384 95.2475 24.5068 96.2736 25.1947C97.2998 25.8827 98.0984 26.8591 98.5681 28.0003C99.0379 29.1415 99.1578 30.3962 98.9126 31.6054C98.6673 32.8147 98.0681 33.9241 97.1907 34.7932C96.3133 35.6622 95.1972 36.2519 93.9838 36.4874C92.7704 36.7229 91.5142 36.5937 90.3745 36.1161C89.2347 35.6385 88.2626 34.834 87.5812 33.8046C86.8998 32.7752 86.5399 31.5671 86.547 30.3334C86.5454 29.515 86.7065 28.7046 87.0209 27.9489C87.3354 27.1931 87.7969 26.5072 88.3789 25.9308C88.9608 25.3543 89.6516 24.8989 90.4111 24.5908C91.1707 24.2827 91.9839 24.1282 92.8038 24.136Z" fill="black"/>
<path d="M52.0014 108.846H50.003C48.4215 108.621 46.9881 107.795 46.0019 106.541C45.0156 105.287 44.5527 103.701 44.7097 102.114C44.842 100.575 45.5439 99.1389 46.6787 98.0872C47.8134 97.0355 49.2998 96.443 50.8482 96.4252C52.3967 96.4074 53.8963 96.9656 55.055 97.991C56.2137 99.0163 56.9485 100.435 57.1163 101.972C57.3228 103.556 56.9048 105.158 55.9505 106.441C54.9963 107.723 53.5804 108.585 52.0014 108.846Z" fill="black"/>
<path d="M70.442 55.3493L71.5006 56.406C71.8951 57.3559 71.9986 58.4011 71.798 59.4097C71.7981 59.4694 71.786 59.5286 71.7624 59.5835C71.7388 59.6384 71.7042 59.6879 71.6608 59.729C71.6174 59.7701 71.566 59.802 71.5099 59.8226C71.4537 59.8432 71.3939 59.8522 71.3341 59.849C70.9654 59.849 70.8227 59.5759 70.7989 59.2672C70.7989 58.6618 70.7989 58.08 70.7989 57.427C70.8344 57.2227 70.8344 57.0139 70.7989 56.8097C70.7458 56.6236 70.6247 56.4642 70.4595 56.363C70.2942 56.2619 70.097 56.2264 69.9068 56.2635C69.4785 56.2635 69.4071 56.596 69.4071 56.9521C69.4071 57.5339 69.4071 58.1394 69.4071 58.7092C69.4071 59.0892 69.4071 59.4809 68.967 59.6709C68.8966 59.6816 68.8248 59.6741 68.7581 59.6492C68.6915 59.6243 68.6323 59.5827 68.5863 59.5284C68.305 58.8868 68.2023 58.1814 68.289 57.4864C68.3124 57.3278 68.3034 57.166 68.2625 57.0109C68.2217 56.8558 68.1498 56.7106 68.0511 56.5841C67.9732 56.4936 67.8737 56.4241 67.7618 56.3819C67.6499 56.3398 67.5293 56.3263 67.4109 56.3429C67.2924 56.3594 67.1801 56.4054 67.0841 56.4766C66.9882 56.5478 66.9117 56.6419 66.8616 56.7503C66.7427 56.9759 66.8616 57.3795 66.362 57.3083C66.19 57.1208 66.0761 56.8877 66.0339 56.637C65.9917 56.3863 66.023 56.1288 66.1241 55.8955C66.3476 55.5701 66.6764 55.3312 67.0553 55.2188C67.4343 55.1064 67.8404 55.1273 68.2057 55.2781C68.3883 55.3768 68.5928 55.4285 68.8004 55.4285C69.0081 55.4285 69.2126 55.3768 69.3952 55.2781C69.5591 55.192 69.7439 55.153 69.9288 55.1656C70.1136 55.1782 70.2913 55.2418 70.442 55.3493Z" fill="#040404"/>
<path d="M31.3828 55.3133C31.8943 55.4914 32.2036 54.8621 32.727 54.9808C33.2504 55.0996 33.4526 54.9809 33.5358 55.4795C33.5607 55.5653 33.5677 55.6553 33.5563 55.7438C33.545 55.8324 33.5156 55.9178 33.4698 55.9946C33.4241 56.0714 33.3631 56.1379 33.2906 56.1903C33.2181 56.2426 33.1355 56.2795 33.0481 56.2987C32.3344 56.453 32.2512 56.9398 32.2869 57.5572C32.3226 58.1745 32.2869 58.6138 32.2869 59.1362C32.2869 59.6585 32.0847 60.0266 31.5375 60.0266C30.9903 60.0266 30.8595 59.5873 30.8833 59.1599C30.7649 58.1384 30.8375 57.1038 31.0974 56.1087C31.1687 55.9663 31.0022 55.9306 30.8951 55.9069L31.3828 55.3133Z" fill="black"/>
<path d="M68.8131 59.6227C69.5149 58.8273 69.0867 57.8775 69.17 56.9989C69.2533 56.1204 69.5506 55.871 70.3595 56.0847C70.9424 56.251 71.0612 56.7021 71.0375 57.272C71.0137 57.8418 71.0375 58.5661 71.0375 59.2072C71.0375 59.4446 71.0375 59.7177 71.3706 59.7296C71.7036 59.7414 71.7155 59.4684 71.7155 59.2309C71.7771 58.2942 71.7252 57.3534 71.5608 56.429L72.227 56.9871C71.9296 57.5213 72.1556 58.0793 72.0961 58.6254C72.0961 58.946 72.0961 59.2784 72.001 59.5871C71.9872 59.7356 71.9211 59.8745 71.8144 59.9788C71.7076 60.0832 71.5672 60.1464 71.4181 60.157C71.3356 60.1652 71.2522 60.1563 71.1732 60.131C71.0942 60.1058 71.0213 60.0646 70.9588 60.0101C70.8964 59.9556 70.8458 59.8889 70.8102 59.8141C70.7746 59.7393 70.7548 59.658 70.752 59.5752C70.6806 59.0291 70.752 58.4711 70.6687 57.9131C70.6927 57.6207 70.6927 57.3269 70.6687 57.0346C70.6544 56.8853 70.5861 56.7464 70.4767 56.6437C70.3672 56.541 70.2241 56.4816 70.074 56.4765C69.6814 56.4765 69.6219 56.7852 69.6219 57.1058C69.6815 58.1303 69.6217 59.1582 69.4436 60.1688C68.9678 60.1926 68.8012 59.9908 68.8131 59.6227Z" fill="black"/>
<path d="M28.7616 57.8537C28.9657 57.5144 29.2686 57.2452 29.6299 57.082C29.7181 57.4847 29.6998 57.9033 29.5768 58.2967C29.4537 58.6902 29.2302 59.0448 28.9282 59.3259C28.7473 59.5687 28.4803 59.7334 28.1819 59.7863C27.8834 59.8393 27.5759 59.7765 27.3223 59.6108C27.3127 59.4702 27.3382 59.3295 27.3963 59.201C27.4544 59.0726 27.5434 58.9605 27.6554 58.8747C28.0575 58.5722 28.428 58.2302 28.7616 57.8537Z" fill="#080808"/>
<path d="M70.4444 55.3486C69.9825 55.2836 69.5118 55.3667 69.1003 55.5861C68.99 55.6557 68.8621 55.6927 68.7316 55.6927C68.601 55.6927 68.4731 55.6557 68.3628 55.5861C68.0211 55.3866 67.6214 55.3096 67.2298 55.3679C66.8382 55.4262 66.4783 55.6163 66.2098 55.9066C65.9701 55.5022 65.8438 55.0409 65.8438 54.571C65.8438 54.1011 65.9701 53.6398 66.2098 53.2354C66.5667 53.8052 66.1028 54.6125 66.4834 54.9806C66.8641 55.3486 67.6729 54.755 68.1131 55.0874C68.9695 55.6811 69.6832 54.6838 70.4921 55.0281L70.4444 55.3486Z" fill="black"/>
<path d="M27.3199 59.6114C28.7473 59.6114 29.2588 59.1721 29.4967 57.7593C29.4967 57.5337 29.58 57.3082 29.6276 57.0826C29.6268 57.0605 29.6313 57.0384 29.6406 57.0183C29.6499 56.9982 29.6637 56.9806 29.6811 56.9668C29.6984 56.953 29.7187 56.9433 29.7404 56.9387C29.7621 56.9341 29.7845 56.9345 29.806 56.9401C29.9381 57.631 29.82 58.3463 29.4729 58.9584C29.2591 59.3271 28.9364 59.6209 28.5488 59.7994C28.1613 59.978 27.7279 60.0325 27.3081 59.9557C27.2784 59.9027 27.2637 59.8426 27.2658 59.7819C27.2679 59.7212 27.2866 59.6622 27.3199 59.6114Z" fill="black"/>
<path d="M74.4846 59.7775C74.1082 59.6694 73.7786 59.439 73.5481 59.1229C73.3175 58.8068 73.1992 58.423 73.2119 58.0322C73.5792 58.1554 73.8991 58.3895 74.1271 58.7022C74.3552 59.0149 74.4801 59.3907 74.4846 59.7775Z" fill="#2E2E2E"/>
<path d="M28.7625 57.8535C28.6673 58.4946 28.2153 58.7321 27.6562 58.8745C27.7601 58.6374 27.912 58.4242 28.1024 58.2485C28.2928 58.0728 28.5175 57.9383 28.7625 57.8535Z" fill="black"/>
<path d="M35.6289 53.4141C35.6289 54.2926 35.6289 55.1712 35.6289 56.0497C35.6402 56.5946 35.4979 57.1318 35.2182 57.5999C34.9384 58.068 34.5326 58.4482 34.0469 58.6973C34.1483 58.3341 34.1964 57.9582 34.1896 57.5813C34.1722 57.146 34.2541 56.7124 34.4293 56.3134C34.6044 55.9144 34.8682 55.5603 35.2007 55.278C35.5099 55.0287 35.4267 54.7082 35.4505 54.3995C35.4743 54.0908 35.3791 53.7227 35.6289 53.4141Z" fill="#060606"/>
<path d="M68.6381 59.4687L67.9482 58.8988C67.9185 58.4046 67.9185 57.909 67.9482 57.4148C67.9482 57.118 67.9482 56.7737 67.5437 56.7381C67.1393 56.7025 67.1036 56.9755 67.0442 57.2486C66.9847 57.5216 66.949 57.5929 66.7587 57.6641C66.5684 57.7353 66.4613 57.486 66.4375 57.2961C66.5024 56.989 66.6022 56.6902 66.7349 56.4057C66.8436 56.2444 67.0048 56.1255 67.1913 56.0693C67.3777 56.013 67.5779 56.0228 67.7579 56.097C67.9752 56.1407 68.1707 56.2578 68.3116 56.4287C68.4524 56.5995 68.5299 56.8136 68.531 57.0349C68.4652 57.8474 68.5012 58.665 68.6381 59.4687Z" fill="black"/>
<path d="M31.2345 58.0561C31.1411 57.3806 31.2573 56.6928 31.5675 56.0853C31.7045 55.8283 31.9104 55.6146 32.1623 55.4679C32.4834 55.3254 32.9236 55.183 33.102 55.551C33.2805 55.9191 32.8165 55.9784 32.5548 56.0615C31.8054 56.3346 31.8649 57.035 31.7935 57.6168C31.7222 58.1985 31.7935 58.6022 31.7935 59.1008C31.7935 59.2789 31.7935 59.5639 31.4962 59.5639C31.1988 59.5639 31.2226 59.3146 31.2226 59.1127C31.2226 58.9109 31.2345 58.4122 31.2345 58.0561Z" fill="#030303"/>
<path d="M39.7735 55.8828C39.3836 53.0115 40.1243 50.1011 41.8398 47.7635C43.5554 45.426 46.1121 43.8433 48.9725 43.3482C51.833 42.8532 54.7743 43.4843 57.1782 45.109C59.582 46.7336 61.2612 49.2252 61.8626 52.0599C62.2315 53.6696 62.2315 55.3416 61.8626 56.9513C61.2799 57.309 60.8099 57.8233 60.5066 58.4354C60.4296 58.5631 60.3088 58.6587 60.1667 58.7045C60.0246 58.7503 59.8707 58.7433 59.7334 58.6847C58.9721 58.4235 58.9959 57.7824 58.9959 57.1532C58.9959 56.5239 59.2457 56.2034 59.8761 56.1915C60.2719 56.2239 60.6698 56.2239 61.0656 56.1915C61.2006 56.1859 61.3288 56.1307 61.4254 56.0364C61.5221 55.9422 61.5803 55.8156 61.589 55.681C61.589 55.2892 61.2798 55.313 61.03 55.3011C60.7802 55.2892 60.3757 55.3011 60.0546 55.3011C59.5312 55.3011 59.1149 55.1586 59.0435 54.565C59.0421 54.4902 59.0238 54.4167 58.9901 54.3499C58.9563 54.2831 58.908 54.2248 58.8486 54.1791C58.7892 54.1335 58.7203 54.1018 58.647 54.0864C58.5736 54.071 58.4977 54.0723 58.425 54.0901C58.2923 54.1045 58.1584 54.0795 58.0399 54.0183C57.9214 53.957 57.8236 53.8622 57.7588 53.7458C57.6083 53.3939 57.4928 53.028 57.4139 52.6535C56.9686 51.1082 55.981 49.7744 54.6317 48.8959C53.2823 48.0174 51.6613 47.6529 50.0648 47.869C48.4684 48.0851 47.0031 48.8673 45.9369 50.0728C44.8707 51.2783 44.2748 52.8265 44.258 54.4344C44.3254 54.9304 44.2724 55.4353 44.1033 55.9066C43.7703 56.144 43.568 55.8472 43.3301 55.7047C42.9158 55.3704 42.386 55.2128 41.8559 55.2661C41.3258 55.3195 40.8382 55.5795 40.4991 55.9897C40.2255 56.1559 39.9876 56.5595 39.7735 55.8828Z" fill="black"/>
<path d="M60.4998 60.3238C56.289 67.4473 45.4289 67.4473 41.3489 60.3238C41.1585 59.7658 41.6819 59.9202 41.9079 59.7896C42.1339 59.659 42.3956 59.6709 42.4075 59.3741C42.4194 59.0773 42.1577 59.0179 41.9555 58.9229C41.6554 58.7957 41.3812 58.6146 41.1466 58.3886C40.9596 58.2157 40.8332 57.9873 40.7861 57.7372C40.739 57.4871 40.7736 57.2286 40.8849 56.9996C40.9739 56.7605 41.1376 56.5564 41.3518 56.4174C41.5661 56.2784 41.8194 56.212 42.0744 56.2279C42.3368 56.2159 42.5958 56.2909 42.811 56.4413C43.0261 56.5916 43.1854 56.8088 43.2639 57.059C43.3698 57.3352 43.4184 57.6301 43.4067 57.9256C43.4067 58.3174 43.4067 58.6973 43.4067 59.1129C43.4067 59.5284 43.4067 59.7777 43.7754 59.7896C44.1442 59.8015 44.1561 59.4215 44.168 59.1366C44.1799 58.8517 44.168 58.543 44.168 58.2462C44.168 57.9494 44.168 57.6526 44.4773 57.4745C45.2504 57.7119 45.4645 58.4361 45.7976 59.0535C45.782 59.1627 45.793 59.2741 45.8295 59.3782C45.8661 59.4823 45.9271 59.5761 46.0075 59.6517C46.088 59.7273 46.1855 59.7826 46.2918 59.8128C46.3981 59.843 46.5101 59.8472 46.6183 59.8252C46.9013 59.9025 47.1674 60.0313 47.4034 60.2051C48.1972 60.7055 49.0873 61.0343 50.0162 61.1703C50.9452 61.3063 51.8924 61.2466 52.7967 60.9949C53.7011 60.7432 54.5427 60.3052 55.2671 59.7091C55.9915 59.113 56.5827 58.372 57.0027 57.5338C57.193 57.1421 57.2525 56.6672 57.6807 56.4297C58.1922 56.4297 58.2398 56.8096 58.1803 57.1777C58.1166 57.6147 58.1491 58.0604 58.2755 58.4836C58.3388 58.8498 58.5277 59.1827 58.8098 59.4252C59.0918 59.6678 59.4496 59.805 59.8218 59.8133C60.0716 59.7896 60.6664 59.6353 60.4998 60.3238Z" fill="black"/>
<path d="M60.4962 60.3236C60.4962 59.908 60.1037 60.0268 59.9014 59.9911C59.5764 59.9738 59.2594 59.8843 58.9735 59.7292C58.6875 59.5741 58.4397 59.3573 58.2483 59.0946C58.0569 58.8319 57.9265 58.5299 57.8668 58.2105C57.8071 57.8912 57.8195 57.5626 57.9031 57.2486C57.9626 56.9043 58.0577 56.6194 57.6771 56.4294C57.3872 55.4886 57.455 54.4742 57.8674 53.5801C57.9277 53.6746 58.0173 53.7467 58.1226 53.7853C58.228 53.8239 58.3431 53.8269 58.4503 53.7938C58.938 53.675 59.2829 53.8888 59.2472 54.4349C59.2115 54.981 59.5089 55.0166 59.9134 54.9929C60.3178 54.9691 60.746 54.9929 61.1029 54.9929C61.4597 54.9929 61.8403 55.0522 61.8403 55.5271C61.8605 55.722 61.8032 55.917 61.6809 56.0702C61.5586 56.2233 61.3809 56.3225 61.1861 56.3463C60.7473 56.3939 60.3046 56.3939 59.8658 56.3463C59.39 56.3463 59.1402 56.4888 59.1997 56.9993C59.2592 57.5098 58.9737 58.2696 59.7944 58.4596C60.3416 58.5902 60.5438 58.1272 60.5676 57.7117C60.5676 56.8212 61.4597 57.2249 61.8284 56.8925C61.8092 57.2193 61.7024 57.535 61.5192 57.8066C61.1504 57.8066 61.091 58.1747 60.9482 58.4121C60.8381 58.6553 60.649 58.8543 60.4116 58.9771C60.1742 59.0999 59.9024 59.1392 59.6398 59.0888C59.3778 59.0252 59.1416 58.883 58.9629 58.6813C58.7843 58.4797 58.6718 58.2283 58.6406 57.961C58.6342 57.874 58.6342 57.7867 58.6406 57.6998C58.5573 55.6934 58.7596 55.7408 60.3178 55.7646C60.5081 55.7646 60.7222 55.824 60.8768 55.634C58.8547 55.3016 58.8547 55.3016 58.5692 54.7792C58.5692 55.824 58.5692 56.8093 58.5692 57.7947C58.5692 58.982 59.1878 59.4569 60.3892 59.2076C60.5914 59.2076 60.7936 59.077 60.9958 59.2076C60.9227 59.6146 60.7512 59.9977 60.4962 60.3236Z" fill="black"/>
<path d="M44.5732 57.5092C44.1568 58.0672 44.4067 58.6964 44.3948 59.2901C44.3829 59.8837 44.1925 60.1093 43.7048 60.1093C43.2171 60.1093 43.122 59.7175 43.122 59.2901C43.122 58.8627 43.122 58.1741 43.122 57.6161C43.122 57.0581 42.8841 56.5713 42.2418 56.4288C41.9915 56.3733 41.7293 56.4147 41.5085 56.5448C41.2876 56.6748 41.1246 56.8837 41.0523 57.1293C40.9741 57.3995 40.9945 57.6887 41.11 57.9452C41.2254 58.2018 41.4284 58.4091 41.6827 58.5302C42.0752 58.7677 42.8722 58.7083 42.7175 59.3969C42.5629 60.0855 42.0038 60.0499 41.528 60.0855C41.528 60.0855 41.4567 60.228 41.421 60.3111C41.151 60.013 40.9661 59.6481 40.8857 59.2544C41.1712 59.0764 41.4448 59.4088 41.8373 59.2544C41.5193 59.1538 41.2344 58.9695 41.0125 58.7209C40.7906 58.4722 40.64 58.1685 40.5764 57.8416C40.487 57.4365 40.5504 57.0126 40.7545 56.6512C40.9586 56.2898 41.2891 56.0162 41.6827 55.8827C41.8906 55.8188 42.1097 55.7993 42.3257 55.8257C42.5417 55.852 42.7496 55.9236 42.936 56.0356C43.1224 56.1477 43.2829 56.2977 43.4072 56.476C43.5315 56.6542 43.6167 56.8566 43.6573 57.0699C43.7604 57.6741 43.816 58.2854 43.8238 58.8983C43.8238 58.364 43.8238 57.8416 43.8238 57.3192C43.8496 56.9489 43.7449 56.5812 43.5276 56.2798C43.3104 55.9784 42.9943 55.7623 42.6343 55.669C42.2633 55.5535 41.8639 55.5682 41.5025 55.7108C41.141 55.8533 40.8394 56.1151 40.6478 56.4526C40.4813 56.69 40.4337 57.0106 40.1601 57.1768C39.9419 56.7859 39.8389 56.3414 39.8628 55.8946C39.9936 55.8946 39.9936 56.2151 40.172 56.0727C42.1109 54.6124 42.2655 54.6124 44.133 55.8946C44.3692 56.0818 44.5392 56.3394 44.6184 56.6299C44.6976 56.9203 44.6817 57.2284 44.5732 57.5092Z" fill="black"/>
<path d="M61.0483 59.255C59.3116 60.098 58.3719 59.5281 58.36 57.6404C58.36 56.6668 58.36 55.6933 58.36 54.7198C58.36 54.5061 58.2767 54.1855 58.6336 54.1855C58.9904 54.1855 58.9072 54.4586 58.8834 54.6604C58.812 55.2897 59.1569 55.3965 59.6803 55.3609C60.2037 55.3253 60.513 55.3609 60.9293 55.3609C61.1672 55.3609 61.536 55.2659 61.5003 55.6933C61.4646 56.1207 61.1672 56.0495 60.8936 56.0614C60.4178 56.0614 59.9539 56.0614 59.4781 56.0614C59.0023 56.0614 58.8715 56.2038 58.8834 56.6312C58.8953 57.0587 58.8834 57.4504 58.8834 57.8185C58.8682 58.0726 58.9434 58.3239 59.0957 58.5281C59.2481 58.7323 59.4678 58.8762 59.716 58.9345C59.8485 58.9636 59.9854 58.9652 60.1185 58.9392C60.2515 58.9132 60.3778 58.8601 60.4894 58.7833C60.601 58.7064 60.6956 58.6074 60.7672 58.4925C60.8388 58.3776 60.8859 58.2492 60.9056 58.1153C60.9769 57.866 60.9769 56.9993 61.5836 57.8303C61.5338 58.344 61.3492 58.8354 61.0483 59.255Z" fill="#030303"/>
<path d="M40.0781 57.1658C40.0947 56.8953 40.1677 56.6312 40.2925 56.3904C40.4173 56.1497 40.5911 55.9376 40.8027 55.7677C41.0143 55.5978 41.2592 55.4739 41.5215 55.4039C41.7839 55.3339 42.058 55.3194 42.3263 55.3612C43.4325 55.4681 44.0035 56.1923 44.0035 57.5338C44.0035 58.0325 44.0035 58.543 44.0035 59.0416C44.0035 59.2553 44.0868 59.5759 43.718 59.5521C43.3493 59.5284 43.4801 59.2553 43.4801 59.0654C43.4801 58.5905 43.4801 58.1275 43.4801 57.6526C43.4801 56.7147 42.9805 56.1329 42.2906 56.0617C42.1166 56.024 41.9368 56.0225 41.7623 56.0572C41.5877 56.0919 41.4222 56.1622 41.276 56.2635C41.1298 56.3649 41.0061 56.4952 40.9125 56.6463C40.819 56.7975 40.7577 56.9662 40.7323 57.1421C40.6351 57.5102 40.6833 57.9017 40.8671 58.2353C41.0509 58.569 41.3561 58.8194 41.7196 58.9348C41.9338 59.0298 42.3263 59.0654 42.2073 59.4215C42.0884 59.7777 41.7434 59.7183 41.4579 59.5759L40.8275 59.2553C40.3972 58.6371 40.1387 57.9161 40.0781 57.1658Z" fill="#020202"/>
<path d="M66.7109 57.6642C66.7322 57.4123 66.7719 57.1623 66.8299 56.9163C66.8643 56.7565 66.9587 56.6159 67.0935 56.5232C67.2284 56.4305 67.3936 56.3928 67.5554 56.4176C67.948 56.4176 68.1621 56.667 68.1145 57.035C68.1145 57.6642 68.3405 58.3172 67.948 58.899C67.4538 58.5781 67.0324 58.1575 66.7109 57.6642Z" fill="#050505"/>
<path d="M45.5963 59.0889C45.9555 59.3109 46.2635 59.6063 46.5003 59.9556C45.8222 60.0505 45.5249 59.7656 45.5963 59.0889Z" fill="black"/>
</g>
<defs>
<clipPath id="clip0_1176_650">
<rect width="102" height="109" fill="white"/>
</clipPath>
</defs>
</svg>
