<svg id="Layer_1" data-name="Layer 1" xmlns="http://www.w3.org/2000/svg" viewBox="0 0 168.14 171.76"><defs><style>.cls-1{fill:#010101;}.cls-2{fill:#020202;}.cls-3,.cls-4{fill:none;stroke:#000;stroke-miterlimit:10;}.cls-4{stroke-width:0.5px;}</style></defs><path class="cls-1" d="M2066.31,552.48c-.59,3.25-2.87,2.66-5,2.67-2.43,0-4.86,0-7.29,0-2.79,0-4.36,1.36-4.38,4.19q-.06,8.71,0,17.43c0,2.79,1.46,4.22,4.31,4.2,3.53,0,7.05,0,10.58,0a4.76,4.76,0,0,0,4.45-2.56V552.25C2068,551.75,2066.56,551.09,2066.31,552.48Zm-11.8,24.83a1.67,1.67,0,0,1,0-3.34A1.67,1.67,0,0,1,2054.51,577.31Zm-.17-7.95a1.67,1.67,0,0,1,0,3.34A1.67,1.67,0,0,1,2054.34,569.36Zm5,8a1.67,1.67,0,0,1,0-3.34A1.67,1.67,0,0,1,2059.36,577.34Zm-.1-7.94a1.67,1.67,0,0,1,0,3.34A1.67,1.67,0,0,1,2059.26,569.4Zm4.91,7.94a1.67,1.67,0,0,1,0-3.34A1.67,1.67,0,0,1,2064.17,577.34Zm-.2-7.94a1.67,1.67,0,0,1,0,3.34A1.67,1.67,0,0,1,2064,569.4Zm2.76-8.65c-.06.63-.1,1.27-.1,1.91a2.51,2.51,0,0,1-.18.92,3.92,3.92,0,0,1-5.08,3.29,2.76,2.76,0,0,1-1.07.21,2.72,2.72,0,0,1-1.07-.2,2.62,2.62,0,0,1-1.05.2,2.43,2.43,0,0,0-1.43-.08,2.71,2.71,0,0,1-.78.12,2.38,2.38,0,0,0-1.07-.07,2.58,2.58,0,0,1-2.51-3.24,3,3,0,0,1,.28-1.92,3,3,0,0,1-.17-.94,2.49,2.49,0,0,1,2.57-2.65c2.4,0,5.16.47,7.53,0a3.75,3.75,0,0,1,.45,0,2.73,2.73,0,0,1,1-.19,1.94,1.94,0,0,1,.53,0,2.35,2.35,0,0,1,1.32.7l0,0,0,0h0A2.6,2.6,0,0,1,2066.73,560.75Z" transform="translate(-1900.85 -486.65)"/><path d="M2004.67,657.66l0,.75h-32.13a.49.49,0,0,1-.21-.57c1-1.31,2.54-1.28,4-1.3q12.32-.1,24.62,0A4.85,4.85,0,0,1,2004.67,657.66Z" transform="translate(-1900.85 -486.65)"/><path d="M2018.79,590.63c-3.41-7.29-9.25-12-16.85-14.48-2.45-.82-3.09-1.8-1.4-4.1,3.7-5,4.25-10.71,2.65-16.59-3.11-11.51-15.68-16.15-24.12-9-7,5.94-8.47,17.65-2.89,25.8,1.78,2.59,1.09,3.06-1.4,4-7.16,2.67-13,7-16.3,14.15-2.76,5.87-1.22,8.85,5.19,10,8.22,1.41,16.51.21,25.49.74,3.4,0,7.53,0,11.66,0a83.31,83.31,0,0,0,12.72-.76C2019.73,599.3,2021.47,596.35,2018.79,590.63ZM1995.26,569a4.08,4.08,0,0,0-.54.63,7.55,7.55,0,0,1-.61.65,7.07,7.07,0,0,1-1.28,1,9.07,9.07,0,0,1-7.12.88,8.59,8.59,0,0,1-1.73-.7,3.21,3.21,0,0,1-.91-1,11.58,11.58,0,0,0-1.14-1,3.73,3.73,0,0,1-.76-1.36c-.11-.29.29-.61.54-.42l.11.09a.32.32,0,0,1,.55-.08c.2.24.5.27.77.4a4,4,0,0,1,.77.59,5.53,5.53,0,0,0,1.76,1.09,8.05,8.05,0,0,0,4.23.46,4.94,4.94,0,0,0,1.67-.47,11.35,11.35,0,0,0,1.32-1.18c.59-.55,1.33-1.52,2.24-1.39a.88.88,0,0,1,.78.86C1995.92,568.57,1995.59,568.73,1995.26,569Z" transform="translate(-1900.85 -486.65)"/><path d="M1972.83,550.48c2.28-4.49,1.64-7.42-2.37-10.55-5.94-4.66-13.9-3.65-18.24,2.55-4,5.75-4.49,12-.89,18.07,1.81,3,1.27,4.18-1.85,5.41-6.09,2.4-10.84,6.37-13,12.84-1.28,3.92-.08,6,3.89,6.92a33.28,33.28,0,0,0,9.14.66c4.12.81,8.34.36,11.35-3.67a21.69,21.69,0,0,1,9.67-7.41c2.56-1,3.2-2.41,1.86-5C1969,563.67,1969.52,557,1972.83,550.48Zm-5.84,9.1a3.46,3.46,0,0,1-.53.55.22.22,0,0,1,0,.1,2.8,2.8,0,0,1-.32.52c-.13.14-.28.25-.41.39a4,4,0,0,1-1,.72,4.42,4.42,0,0,1-1.06.42.33.33,0,0,1-.32.26c-.24,0-.48.1-.72.14a4.56,4.56,0,0,1-.64,0c-.41,0-.83,0-1.23-.1a9.11,9.11,0,0,1-2.24-1.09.31.31,0,0,1-.16-.41,3.3,3.3,0,0,1-.91-.61.4.4,0,0,1-.1-.23l-.07,0-.17-.07a.4.4,0,0,1-.22-.17.36.36,0,0,1,0-.11.36.36,0,0,1,.05-.72.34.34,0,0,1,.35.29h0a3.65,3.65,0,0,1,.91.44.37.37,0,0,1,.17.22s0,0,0,0l.17.1h.06a20.75,20.75,0,0,0,2,.47,9.5,9.5,0,0,0,2.06.11c.36,0,.67-.18,1-.24a4.22,4.22,0,0,0,.92-.27,3.79,3.79,0,0,0,1.7-1.12C1966.64,558.84,1967.27,559.2,1967,559.58Z" transform="translate(-1900.85 -486.65)"/><path d="M2040,577.55A22.8,22.8,0,0,0,2029.85,567c-1.91-1-4.57-1.45-5.65-3-1.47-2.14,1.34-4,2.1-6a15.53,15.53,0,0,0-14.7-21c-2.83,0-6.3,2.73-8.9,6.88a4.34,4.34,0,0,0-.08,5c4.23,6.88,4.77,14.07,1.4,21.44-1,2.23-.62,3.51,1.74,4.51a24.92,24.92,0,0,1,10.89,8.19,9,9,0,0,0,7.95,3.71,97.86,97.86,0,0,0,11.22-1C2040.64,585,2042.1,582,2040,577.55Zm-21-16.79a.36.36,0,0,1-.59,0l0,0a.33.33,0,0,1-.09.35.41.41,0,0,1-.11.07.69.69,0,0,1-.07.15,1.61,1.61,0,0,1-.93.64c-.48.16-.93.39-1.41.53a13.89,13.89,0,0,1-1.57.26,8.22,8.22,0,0,1-2.92.18,1.66,1.66,0,0,1-1-.69,6.16,6.16,0,0,0-1.27-1,.37.37,0,0,1,0-.62,2.33,2.33,0,0,0-.33-.14.36.36,0,0,1,.19-.7,4,4,0,0,1,1,.53,4.47,4.47,0,0,0,1.3.46,10.85,10.85,0,0,0,2.82.45,7.57,7.57,0,0,0,2.72-.89,10.76,10.76,0,0,0,1.92-1.36.36.36,0,0,1,.53.22A2.34,2.34,0,0,1,2019,560.76Z" transform="translate(-1900.85 -486.65)"/><path d="M1917.48,579.16c2.5-.57,3.42.82,3.9,2.81,6.07,25.12,21.46,42,45.65,51,3,1.12,4.26,3.75,3.16,6.62-.79,2.07-2.35,1.16-3.67.73a81.79,81.79,0,0,1-27.35-14.77c-13.66-11.34-21.08-26.24-24.92-43.21C1913.51,579.11,1915.19,578.86,1917.48,579.16Z" transform="translate(-1900.85 -486.65)"/><path d="M1917.9,556.78c-4.57.54-3.46-2.29-2.94-4.36,5.56-22.18,18.11-39,38.68-49.56a90.78,90.78,0,0,1,12.71-5.33c1.07-.36,2.06-1,3,0a3.61,3.61,0,0,1,.83,3.38c-.64,2.72-2.76,3.75-5.09,4.68-14.5,5.75-26.34,14.8-34.59,28.14a73.24,73.24,0,0,0-8.47,19.53C1921.41,555.52,1920.58,557.56,1917.9,556.78Z" transform="translate(-1900.85 -486.65)"/><path d="M1995.47,649.82c1.46,0,2.92,0,4.37,0,4.08-.1,5.49-1.38,5.58-5.43.11-4.71.08-9.43,0-14.14,0-3.36-1.88-5.13-5.26-5.14-7.77,0-15.54-.07-23.31,0-3.14,0-5,1.69-5,4.95,0,5.08,0,10.15,0,15.23,0,2.9,1.62,4.44,4.55,4.51,1.57,0,3.15,0,4.73,0,1.21,0,2.73-.22,2.69,1.51s-1.7,1.32-2.81,1.37c-1.45.07-3-.28-4.35,0-2.74.52-5,1.65-4.31,5.16l32.29-.18c.73-3.61-1.61-4.62-4.45-5a43.69,43.69,0,0,0-4.72,0c-.88,0-1.72-.29-1.73-1.42S1994.53,649.84,1995.47,649.82Zm-8.68-3.85c-1.62,0-3.25.13-4.88,0a20.28,20.28,0,0,0-2.06-.09,6.74,6.74,0,0,1-1.68-.07c-3.06-.67-2.22-4.12-2.1-6.38a32.69,32.69,0,0,0,0-4.2,7.2,7.2,0,0,1,.34-3.36,1.52,1.52,0,0,1-.2-.71,1.55,1.55,0,0,1,1.5-1.5,66.83,66.83,0,0,1,10.49-.26c1.72,0,3.45.11,5.17.12s3.35-.11,5-.13a1,1,0,0,1,.59-.1c2.64.33,2.28,4,2.18,5.94-.05,1.09-.14,2.17-.26,3.26l-.12,1c0,.13,0,.26,0,.4s0,.53,0,.58v.34a1.35,1.35,0,0,1,.28.9,10.83,10.83,0,0,1-.17,1.38c0,.32,0,.29,0,.65a1.87,1.87,0,0,1-.85,1.74c-1.16.74-2.62.42-3.91.36C1993,645.74,1989.88,645.88,1986.79,646Z" transform="translate(-1900.85 -486.65)"/><path d="M2007.11,636.57c-.16-3,2.1-3.49,4-4.22,11.85-4.66,22.12-11.51,30.14-21.49A71.46,71.46,0,0,0,2054,586.23c.63-2.12,1.66-3.72,4-4.2,3.26-.67,4.39.44,3.57,3.67-3.14,12.38-8.59,23.59-17.32,33.06a75.36,75.36,0,0,1-32.26,21C2007.59,641.14,2007,640.75,2007.11,636.57Z" transform="translate(-1900.85 -486.65)"/><path d="M2058.29,553.66c-3.5.34-4.29-2.1-5.09-4.4a71.12,71.12,0,0,0-17.65-28.42A71.91,71.91,0,0,0,2010,505.17c-2.21-.82-3.91-1.84-4.14-4.44-.29-3.34.69-4.22,3.9-3.25A75.3,75.3,0,0,1,2061,550.06C2061.89,553.26,2060.92,554,2058.29,553.66Z" transform="translate(-1900.85 -486.65)"/><path class="cls-2" d="M2004.31,491.15c-.07-3-1.75-4.57-4.91-4.49-3.77.08-7.53,0-11.29,0s-7.29,0-10.93,0c-4.11.05-5.25,1.12-5.31,5.08-.06,4.59,0,9.18,0,13.77,0,3.14,1.46,4.84,4.53,4.87,7.77.09,15.54.05,23.31,0,2.87,0,4.61-1.41,4.64-4.39C2004.38,501.06,2004.43,496.1,2004.31,491.15Zm-30.09,8.8a1.5,1.5,0,0,1,0-3A1.5,1.5,0,0,1,1974.22,500Zm26.35-1.37c-.06,1-.26,1.91-.29,2.87,0,.51.06,1,.08,1.53.05,1.4-.24,3.06-1.76,3.56a5.1,5.1,0,0,1-2.13.09,14.86,14.86,0,0,0-2.21.09c-1.84.1-3.64.16-5.46.36a50.16,50.16,0,0,1-5.62-.11H1983c-1.58,0-3.15-.23-4.73-.22a2.14,2.14,0,0,1-2-1.08,3.45,3.45,0,0,1-.16-2.2,1.8,1.8,0,0,0,0-.2c0-.19,0-.38,0-.57s0-.69,0-1c0-.8-.06-1.59-.1-2.39-.09-1.6-.15-3.2-.34-4.8a1.35,1.35,0,0,1,.71-1.26,1.6,1.6,0,0,1-.39-1,1.5,1.5,0,0,1,1.51-1.51h.22a1.39,1.39,0,0,1,.79-.23c4.55,0,9.1-.16,13.64-.14a37.76,37.76,0,0,1,5.83.2c1.59.26,2.08,1.53,2,3C2000.11,495.22,2000.7,496.86,2000.57,498.58Z" transform="translate(-1900.85 -486.65)"/><path class="cls-3" d="M1988.42,572.54a9,9,0,0,1-6.48-2.83c-.52-.53-1.07-1.23-.58-1.88s1.27-.2,1.81.3c3.62,3.33,7.14,2.92,10.62-.25.51-.46,1.2-1.14,1.87-.52.87.81.09,1.55-.5,2.12A9.24,9.24,0,0,1,1988.42,572.54Z" transform="translate(-1900.85 -486.65)"/><path class="cls-4" d="M1967.44,558.49c-2.34,5.55-7.81,5.6-11.52.18C1959.79,561.06,1963.64,562.25,1967.44,558.49Z" transform="translate(-1900.85 -486.65)"/><path class="cls-3" d="M2007.71,558.82c3.83,3.09,7.58,3.58,12-.6-1,3.64-2.91,4.6-5.17,4.89C2011.33,563.52,2009,562.09,2007.71,558.82Z" transform="translate(-1900.85 -486.65)"/><path class="cls-3" d="M1988.83,646.05c-3.16,0-6.33-.1-9.48,0-2.33.1-3.33-.68-3.24-3.1.13-3.62.13-7.26,0-10.88-.08-2.24.78-3,3-2.94,6.32.1,12.64.09,19,0,2.1,0,3.15.51,3.06,2.84-.14,3.75-.11,7.51,0,11.26.05,2-.76,2.85-2.79,2.79C1995.15,646,1992,646.05,1988.83,646.05Z" transform="translate(-1900.85 -486.65)"/><path class="cls-3" d="M1988.29,490.32c3.15,0,6.3,0,9.45,0,1.86,0,2.63.82,2.61,2.63,0,3.61-.07,7.23,0,10.84.05,2.2-1,3-3.06,3q-9-.06-18.1,0c-2,0-3.17-.61-3.11-2.9.11-3.74.08-7.48,0-11.22,0-1.71.7-2.38,2.38-2.35C1981.75,490.35,1985,490.32,1988.29,490.32Z" transform="translate(-1900.85 -486.65)"/><path d="M1930.11,558.5h-25.88a3.37,3.37,0,0,0-3.38,3.37V574.7a3.38,3.38,0,0,0,3.38,3.38h25.88a3.37,3.37,0,0,0,3.37-3.38V561.87A3.37,3.37,0,0,0,1930.11,558.5Zm-22.4,11.57c-3.44,0-3.43-5.32,0-5.32S1911.13,570.07,1907.71,570.07Zm9.69-.23c-3.43,0-3.43-5.32,0-5.32S1920.83,569.84,1917.4,569.84Zm8.63.23c-3.43,0-3.42-5.32,0-5.32S1929.46,570.07,1926,570.07Z" transform="translate(-1900.85 -486.65)"/><rect class="cls-3" x="151.48" y="71.47" width="14.37" height="8.92" rx="3.29"/></svg>