<svg id="Layer_1" data-name="Layer 1" xmlns="http://www.w3.org/2000/svg" viewBox="0 0 167.72 126.94"><defs><style>.cls-1{fill:#04363d;}</style></defs><path class="cls-1" d="M-385.68,234.51c-3.95,4.42-7.79,8.93-11.29,13.72-1.59,2.47-3.07,5-5.61,6.71q-15.24,18.29-30.48,36.58c-.49.59-.72,1.55-1.79,1.41-.68-.81-.4-1.79-.4-2.7q0-43.71,0-87.43c0-.9-.32-1.89.46-2.67L-361,200h3.61l-23.1,28.23C-381.88,230.63-383.28,233-385.68,234.51Z" transform="translate(524.83 -199.95)"/><path class="cls-1" d="M-494,289.51q14.16-17,28.31-34c5.95-7.16,11.88-14.33,18.18-21.92v5.3c0,28.26,0,56.52.08,84.78,0,2.74-.78,3.2-3.31,3.18-24.39-.1-48.79-.06-73.8-.06,8.63-10.55,17-20.79,25.38-31C-497.81,293.38-496.43,291-494,289.51Z" transform="translate(524.83 -199.95)"/><path class="cls-1" d="M-392.21,288.16a41.62,41.62,0,0,1,26.23,14c4.09,3.63,6.06,8.45,7.54,13.54.43,2.28,1.9,4.4,1.07,6.87.71,3.47-.56,4.36-4.15,4.33-24.4-.22-48.8-.16-73.2-.18-.86-3.6-.06-7,1.31-10.3a43.66,43.66,0,0,1,14.05-20.56c5-4.76,11.24-6.62,17.78-7.88C-398.45,287.68-395.32,287.31-392.21,288.16Z" transform="translate(524.83 -199.95)"/><path class="cls-1" d="M-502.35,235.18c-11.31-6-18.87-14.93-21.61-27.68-1.61-7.5-1.71-7.48,5.94-7.48,22.25,0,44.49.06,66.73-.07,2.89,0,4.41.45,3.81,3.64.58,3.78-.55,7.19-2.32,10.45a41.82,41.82,0,0,1-23.29,22.52A34.12,34.12,0,0,1-502.35,235.18Z" transform="translate(524.83 -199.95)"/></svg>