<svg id="Layer_1" data-name="Layer 1" xmlns="http://www.w3.org/2000/svg" viewBox="0 0 198.65 155.76"><defs><style>.cls-1{fill:none;stroke:#000;stroke-miterlimit:10;}</style></defs><path d="M1990.86,408.92c-10.08,0-20.17-.07-30.25.1-3.06.06-4.36-.49-4.26-4,.2-7,0-6.91,7.06-7.08,5.39-.13,12.6,2.35,15.65-1,2.66-2.92.88-10,.78-15.27-.11-5,2.2-11.8-1-14.65-2.77-2.49-9.42-.76-14.35-.77-52.08,0-104.16,0-156.24-.1-4,0-5.4.72-5.18,5,.4,7.74.23,15.52.06,23.27-.06,2.73.61,3.74,3.5,3.62,5.45-.23,10.92.08,16.37-.13,2.78-.1,4,.68,3.62,3.55a26.4,26.4,0,0,0,0,4.95c.15,2-.74,2.54-2.61,2.53-9.76-.06-19.52-.13-29.27,0-3,.05-2.52-1.74-2.52-3.51q0-25,0-50c1.32-1.05,2.87-.58,4.31-.58q95,0,189.9,0c1.46,0,3-.37,4.36.46Z" transform="translate(-1792.21 -354.81)"/><path d="M1968.33,383.37c-.24-3.52.2-5.87-5-5.84q-71.73.38-143.46.05c-4.2,0-5.14,1.19-5.15,5.21,0,4.25.75,6.37,5.55,5.68,2.92-.41,6,.18,8.92-.14,3.87-.41,4.65,1.18,4.62,4.78-.16,22.47-.11,44.94-.07,67.41,0,16.52.14,33,.22,49.55a3.92,3.92,0,0,0,2.37.48h43.45c1,0,2,.19,2.8-.6,0-1,0-2,0-3,0-7.22,3.11-11.19,8.8-11.29s9,3.84,9,11c0,3,1,3.45,3.67,3.43,13.56-.12,27.14-.25,40.7.06,4.18.1,4.68-1.41,4.67-5q-.18-51.56,0-103.1c0-4.39-2-10.09.9-12.84s8.54-1,12.92-.76C1967.44,388.76,1968.61,387.48,1968.33,383.37Zm-101.16,61.41s0-.06,0-.09a1.63,1.63,0,0,1,0-.61,8.44,8.44,0,0,0,0-2.79,17.93,17.93,0,0,1,.07-3c.15-2.13.19-4.25.2-6.37a1.58,1.58,0,0,1-.5-1.21c0-3.28.66-6.56.35-9.84a39.37,39.37,0,0,1-.28-4.73c0-1.6.18-3.2.19-4.8,0-3.28-.5-6.54-.35-9.82s.75-6.33.34-9.52a1.3,1.3,0,0,1,.25-.9,2.2,2.2,0,0,1-.12-.62,1.67,1.67,0,0,1,.5-1.19,1.76,1.76,0,0,1,1.19-.5,2.85,2.85,0,0,0,.29,0,15,15,0,0,1,3.75-.54h.13c4.37,0,8.73.27,13.11.22,4.1-.05,8.19.06,12.29.09a1.65,1.65,0,0,1,.94-.31c2.87-.08,5.73,0,8.6.08,1.41,0,2.87-.06,4.27.08a3.49,3.49,0,0,1,2.79,1.7,6.49,6.49,0,0,1,.66,2.91c.07,1.32,0,2.63,0,3.95,0,2,0,3.91-.11,5.85a1.76,1.76,0,0,1,.22.83c0,7.14-.13,14.27-.13,21.41a1.73,1.73,0,0,1-.13.66c0,3.4.11,6.8.19,10.2,0,1.65.06,3.29.06,4.93,0,.91.07,1.83,0,2.75a1.61,1.61,0,0,1,.1.53c0,1.77-.38,3.49-.5,5.25a35.1,35.1,0,0,0,.09,4.35,1.7,1.7,0,0,1,.41,1.08c0,1.92-.09,3.84-.13,5.76a22.75,22.75,0,0,1-.2,3.43,1.43,1.43,0,0,1,.14,1.24c-1,2.84-4.6,2.43-7,2.28a42.31,42.31,0,0,0-5.4.16,33.21,33.21,0,0,1-6.38-.25l-.13,0c-1.35.09-2.69.37-4,.4-1.59,0-3.18.16-4.77.13-2.54-.05-5.07-.42-7.61-.6a1.53,1.53,0,0,1-.8.22c-2.94-.06-5.92.52-8.85.2-1.26-.14-3.1-.37-3.51-1.84a13.8,13.8,0,0,1-.2-3.46,1.75,1.75,0,0,1,0-.4,1.58,1.58,0,0,1-.36-1.05c0-2.72.05-5.43.16-8.15,0-1.35.12-2.7.2-4.05S1867.18,446.11,1867.17,444.78Zm71.22,18.31c0,2.15-.14,4.29-.24,6.43-.06,1.48,0,3-.1,4.5a1.54,1.54,0,0,1,.34,1c0,5.74.59,11.44.56,17.18a1.55,1.55,0,0,1-.45,1.14s0,.08,0,.12a9.42,9.42,0,0,1-.26,3.55,3.4,3.4,0,0,1-3.16,2.1,29.57,29.57,0,0,1-4.89-.12c-1.77-.11-3.55,0-5.32,0l-10.91.23a4.44,4.44,0,0,1-3.37-1,6,6,0,0,1-1-1.89c-.32-.64-.81-1.2-1.17-1.81a1.67,1.67,0,0,1-.23-.91,1.26,1.26,0,0,1-.39-.37,1.42,1.42,0,0,1-.31-.58,4.74,4.74,0,0,0-.26-.91,1.55,1.55,0,0,0-.12-.22,2.47,2.47,0,0,1-.44-.27,51.44,51.44,0,0,0-4.2-3.18,17.55,17.55,0,0,0-5-2,40.23,40.23,0,0,0-9.17-1.12,1.38,1.38,0,0,1-.53.09h-.51l-.17,0-.87.18-1.55.39a1.52,1.52,0,0,1-1.58,1.24h-.73s0,0-.12,0l-.49.12-.29.11a3.77,3.77,0,0,0-1.12.75c-.53.48-1,1-1.48,1.52s-1.3,1.23-1.94,1.85a11.72,11.72,0,0,0-1.57,1.75c-.47.68-.85,1.41-1.28,2.12a11,11,0,0,1-2.27,3.19,1.42,1.42,0,0,1-1.53,1c-3.45-.21-6.9-.09-10.36-.06-2.92,0-5.87-.35-8.79-.12-1.87.14-4.25.43-5.77-.93-2-1.79-1-5.34-.83-7.65a.36.36,0,0,1,0-.1,1.43,1.43,0,0,1-.09-.27,37.93,37.93,0,0,1-.15-7.9c.14-2.62.1-5.24.15-7.86.1-5.45.13-10.89.13-16.33a1.66,1.66,0,0,1,0-.24,2.1,2.1,0,0,1-.08-.52c0-1.88-.24-3.74-.28-5.61s.16-3.63.23-5.45c.13-3.34,0-6.69.2-10a1.59,1.59,0,0,1-.17-1.88c.66-1.18.5-2.75.43-4.06-.09-1.58-.13-3.16-.22-4.73-.11-1.94-.36-3.88-.39-5.83s.07-4.13.07-6.19c0,0,0-.08,0-.12a1.74,1.74,0,0,1-.07-.58c.07-1.58.73-3,.56-4.6s-.24-3.26-.3-4.92-.18-3.34-.2-5a28.43,28.43,0,0,0-.32-5,1.81,1.81,0,0,1,.68-1.84,2.16,2.16,0,0,1,.23-1.41,2.25,2.25,0,0,1,.84-.81,4.57,4.57,0,0,1,.94-.33,1.71,1.71,0,0,1,1.22-.53c1.09,0,2.19-.14,3.29-.14a8.92,8.92,0,0,1,3.51.52,3.5,3.5,0,0,1,2.17,2.84,20.22,20.22,0,0,1,0,4.26c-.07,1.28-.08,2.57-.09,3.86a1.07,1.07,0,0,1,.07.19,55.61,55.61,0,0,1,.64,10.86c0,1.72-.12,3.44-.23,5.16a22.75,22.75,0,0,0,0,4.95,2.22,2.22,0,0,1-.09,1.06.68.68,0,0,1,0,.15c.24,7.59,0,15.2,0,22.8a1.64,1.64,0,0,1-.11.6,2.07,2.07,0,0,1,.17.66,69.24,69.24,0,0,1,.13,8.15c0,1.37-.1,2.76-.06,4.14s.29,2.49.25,3.75a1.6,1.6,0,0,1-.57,1.23c0,1.57,0,3.13.05,4.7s.17,3,.18,4.49c0,.8,0,1.61.07,2.4a2.56,2.56,0,0,0,.23,1.12,1,1,0,0,1,.24.2c.19.13.39.23.59.34.47.23.94.45,1.4.7,2.8,0,5.58.35,8.38.45s5.39.11,8.09.11a1.6,1.6,0,0,1,1.06-.38c5.26,0,10.53-.08,15.79-.06q3.94,0,7.89.13a42.42,42.42,0,0,0,7-.13,1.31,1.31,0,0,1,.52.06,2.13,2.13,0,0,1,1.13-.12c2.89.39,5.85,0,8.75,0h4.43l.76,0a6,6,0,0,1,1.34-1.15l.78-.5c0-.05,0-.1,0-.15,0-4.89.1-9.79.16-14.68,0-4.72-.27-9.47-.1-14.19a1.68,1.68,0,0,1,.19-.73c0-3.62-.31-7.23-.31-10.85,0-.83,0-1.68,0-2.52s.28-1.75.38-2.64c.22-1.81-.36-3.62-.39-5.43a1.54,1.54,0,0,1,.27-1h0a1.72,1.72,0,0,1-.15-.67c0-3,.13-5.93.13-8.9h0a1.56,1.56,0,0,1-.44-1.14c0-3.49.24-7,.33-10.46s0-7.05,0-10.57a1.7,1.7,0,0,1,0-.4,1.74,1.74,0,0,1,.32-1.93,6.18,6.18,0,0,1,3.88-1.66,31.65,31.65,0,0,1,3.51.09c1.24,0,2.52,0,3.5.91a3.15,3.15,0,0,1,.75,1.14,1.52,1.52,0,0,1,.79,1.41c0,3.4-.38,6.79-.47,10.2a38.22,38.22,0,0,0,.17,4.9,22.67,22.67,0,0,0,.43,4.28,1.47,1.47,0,0,1-.45,1.64v.07c0,2.53-.21,5-.25,7.57s.59,4.83.82,7.27a.66.66,0,0,1,0,.14v.05c0,2.62-.08,5.23-.14,7.84a44.34,44.34,0,0,0,.14,7.38,1.86,1.86,0,0,1-.58,1.78c-.06,1.13-.21,2.26-.19,3.39a2,2,0,0,1,.14.64c0,1.16.56,2.25.59,3.43s0,2.23,0,3.35c.13,2.29.48,4.54,0,6.81a1.48,1.48,0,0,1-.45.76A.43.43,0,0,0,1938.39,463.09Z" transform="translate(-1792.21 -354.81)"/><path class="cls-1" d="M1938.54,444.08c0,17-.08,34,.07,51,0,3.14-.67,4.26-4,4.13-6.93-.28-13.89-.19-20.84,0a3.72,3.72,0,0,1-4.06-2.49c-3.62-7.76-9.76-11.81-18.38-11.73-8.42.08-14.38,4.17-17.9,11.71a3.73,3.73,0,0,1-4.05,2.51q-10.92-.24-21.83,0c-2.45,0-3-.73-3-3.08q.1-52,0-104.06c0-3.25,1.25-3.74,4.08-3.75,8.7,0,8.7-.11,8.7,8.53,0,25.43.06,50.87-.08,76.31,0,3.38.78,4.47,4.33,4.44q30-.27,60,0c3.51,0,4.37-1,4.35-4.41-.14-26.43,0-52.86-.2-79.28,0-4.74,1.44-6.22,5.84-5.54a9.25,9.25,0,0,0,3,0c3.4-.53,4.12,1,4.09,4.18C1938.46,409.73,1938.54,426.91,1938.54,444.08Z" transform="translate(-1792.21 -354.81)"/><path class="cls-1" d="M1867.14,427.81c0-11.56.13-23.13-.07-34.69-.07-3.55.68-4.9,4.59-4.82,13.23.25,26.47.19,39.7,0,3.27,0,4.62.63,4.6,4.3q-.24,35.69,0,71.37c0,2.77-.67,3.65-3.54,3.62q-20.85-.22-41.7,0c-2.82,0-3.65-.8-3.62-3.61C1867.22,451.94,1867.14,439.88,1867.14,427.81Z" transform="translate(-1792.21 -354.81)"/></svg>