<svg id="Layer_1" data-name="Layer 1" xmlns="http://www.w3.org/2000/svg" viewBox="0 0 832.15 852.14"><defs><style>.cls-1{fill:#282726;}.cls-2{fill:#dee8e2;}.cls-3{fill:#ae8dff;}.cls-4{fill:#7f61db;}.cls-5{fill:#cfc3f4;}.cls-6{fill:#a39af4;}.cls-7{fill:#fefefe;}.cls-8{fill:#b6abf4;}.cls-9{fill:#cbcac9;}.cls-10{fill:#afafaf;}.cls-11{fill:#5e492c;}.cls-12{fill:#9c563e;}.cls-13{fill:#13384a;}.cls-14{fill:#14374a;}.cls-15{fill:#2b5970;}.cls-16{fill:#b79196;}.cls-17{fill:#fffbfa;}.cls-18{fill:#f7f7f7;}.cls-19{fill:#476775;}.cls-20{fill:#10344d;}.cls-21{fill:#243f56;}.cls-22{fill:#203d54;}.cls-23{fill:#1e4058;}.cls-24{fill:#264555;}.cls-25{fill:#4b5357;}.cls-26{fill:#50595c;}.cls-27{fill:#454b4e;}.cls-28{fill:#193847;}.cls-29{fill:#fdfdfd;}</style></defs><path class="cls-1" d="M-588.65,216.15c.74-21.79,2.15-43.52,7.85-64.69,6.38-23.73,17.36-44.95,36.09-61.34,13.51-11.81,29.13-19.93,46.29-25.51,28.65-9.31,58.08-11,87.76-9.7,31,1.38,59,11,81.21,33.79,12.8,13.11,21,28.92,26.73,46.15,6.58,19.63,8.56,39.91,8.81,60.44a36,36,0,0,0,.92,9.38,2,2,0,0,1-2.72.31c-6-3.67-12.63-1.66-19-2.09-3-.21-4,1.4-4.15,4.26-.19,4.6.78,9.3-.83,13.82-2.24,3.12-4.79,1.31-7.09.25A98.89,98.89,0,0,1-365,189.89a113.26,113.26,0,0,1-16.73-31.11c-1.22-3.58-2.38-3.6-5-1.22a277.47,277.47,0,0,1-53.19,38.7c-32.5,18.24-67.41,29-104.3,33.54-4.62.58-9.27.79-13.88,1.47-4.37.65-7.46-.86-9.08-5.11a35.06,35.06,0,0,0-2.36-4.95c-4.81-8.42-7.91-9.42-16.73-5.38A3.62,3.62,0,0,1-588.65,216.15Z" transform="translate(847.09 85.84)"/><path class="cls-2" d="M-588.65,216.15c7.92-7.93,13.71-7.27,19.8,2.29a7.21,7.21,0,0,1,1.25,2.14c1.77,9,7.58,9.24,15.35,8.4,38.16-4.13,74.37-14.39,108.29-32.49,1.32-.7,2.67-1.35,4-2,2.9,2.81,2.16,6.49,2.17,9.88.11,38.38.05,76.75.06,115.12,0,4,0,8,0,12,0,2.19-.2,4.32-1.63,6.12-2.1,2.21-4.79,2.07-7.44,1.66-7.5-1.17-14.14,1.06-20.3,5.06-7.47,4.85-7.54,14.75-.19,20,4.5,3.21,9.75,4.09,15.09,4.49,3.31.25,6.64,0,10,.14,2.12.1,4.41-.06,5.78,2.15-2.39,9.09-.89,18.35-1.25,27.53-.12,2.92,1.34,4.15,4.22,4.17,2.6,0,5.33-.35,7.56,1.59,0,4.34-3.49,3.29-5.68,3.33a118.93,118.93,0,0,1-38.66-5.47c-6.79-2.17-13.49-4.6-19.48-8.59-23.71-13.22-41.61-32.25-55.28-55.47a181.68,181.68,0,0,1-20.83-52.65c-.85-3.78-1.92-5.8-6.18-3.62a4.61,4.61,0,0,1-5.9-1.23c-9.72-7.58-13.36-18.34-14.64-29.89C-593.91,239-594,227.22-588.65,216.15Z" transform="translate(847.09 85.84)"/><path class="cls-3" d="M-148.76,564.69c-8.08-7-15.45-14.56-20.76-24.06-14.71-26.3-15.9-53-2.49-80,10.16-20.5,26.51-34.56,48.11-41.18,31.09-9.54,59.18-3,83.32,19.24a77.87,77.87,0,0,1,23.19,40.12c5.7,24.17,1.44,46.94-12.95,67.41C-42.16,563-58.22,574.1-78.23,578.79s-39.72,2.91-58.32-6.71c-1.3-.67-2.73-1.11-4.1-1.65C-143.67,569-147.74,569-148.76,564.69Z" transform="translate(847.09 85.84)"/><path class="cls-3" d="M-340.94,468.1l4.09.67c2.72,1.22,5.43,2.47,8.07,3.86a149.48,149.48,0,0,1,39.9,28.72A199.45,199.45,0,0,1-258,541.64c9.2,15.45,16.28,31.94,22.65,48.71,2.48,6.53,4.18,13.37,6.07,20.11.6,2.15,1.52,4.53-2.69,4.48-22.62-.23-45.25-.23-67.88-.3-1.63-1.4-1.64-3.23-1.18-5.06a238.13,238.13,0,0,1,21-54.83c-11.16,10-18.32,24.38-24.16,39.54a112.4,112.4,0,0,0-4.49,15.32c-.44,1.91-.45,4.06-2.61,5.1l-67.54-.11c-2-3.13,0-5.81,1.16-8.43,6.82-15.52,14.65-30.57,21.69-46,3.13-6.86,3.2-6.81-2.36-11.65-2.63-2.3-5.48-4.33-7.95-6.81-1.18-1.19-2.52-2.44-2-4.3.64-2.13,2.66-2.3,4.47-2.5,3.8-.41,7.64,0,11.46-.4,4-.39,5.4-2.18,5.63-6.41,1-18.07,1.28-36.17,2.88-54.2C-343.6,471.66-343.8,469.09-340.94,468.1Z" transform="translate(847.09 85.84)"/><path class="cls-3" d="M-495,614.62h-67.69c-3.19-1.41-3-4.52-3.59-7.21-4.51-22.19-13.71-42-30.12-58.6,11,18.8,17.41,38.88,23,59.24.59,2.14,1.51,4.54-.52,6.58-23.23.08-46.46.12-69.69.26-2.7,0-3.74-1.15-3.19-3.59,1.54-6.88,3.3-13.71,4.83-20.59,1.8-8.15,6.4-15.43,7.38-23.83a.66.66,0,0,1,.83-.55l3.12-5.59c3.16-1.06,2.1-3.94,2.65-6.13a2.23,2.23,0,0,1,1.3-.39c1.94,1.32,2.76,1.69,4.38-1.17s4-5,4.31-8.51c.05-.63.43-1.51,1-1.6,2.25-.36,2.09-1.25.9-2.74a7.81,7.81,0,0,1-1.62-3.58c-.33-3.48,2.57-4.41,4.69-6,1.55-2,3.09-3.94,4.64-5.9,1.91.33,2,2,2.35,3.37.81,3.27,3,4.62,6.15,4.49,2.63-.12,3.71-2,3.94-4.31.32-3.08-1.4-4.78-4.25-5.8-1.48-.53-5,0-2.76-3.61.87-1.84,1.72-3.7,4-4.17,4.14,2,6.32,6,9.31,9.16a36,36,0,0,1-7.46-11.14c5.68-8.3,14-13.78,21.77-19.67a158.22,158.22,0,0,1,33.6-19c5.1-2.17,9.89-5.5,15.78-5.46.71,2.78-1.54,3.84-3.2,4.94-2.68,1.76-3.58,4.18-3.71,7.18-.67,15.62-1.59,31.23-2.42,46.84-.21,4.07,1.85,5,5,5.07a122.31,122.31,0,0,1,13.93,1.2c1.77.24,4,.19,4.58,2.31s-.94,3.45-2.26,4.71c-2.78,2.64-5.82,5-8.75,7.44-5.18,4.36-5.42,5.38-1.91,11.32,9.57,16.2,19.13,32.41,28.48,48.73C-495.15,610.21-492.95,612.1-495,614.62Z" transform="translate(847.09 85.84)"/><path class="cls-1" d="M-578,280.62c4.37.75,8.19-.29,11.59-4.33,2.5,10.42,4.82,20.17,8.27,29.59,13.24,36.18,34.61,65.92,68.26,85.9a10.78,10.78,0,0,1,2.15,6.92c-.08,12.21.11,24.42-.1,36.63-.84,1.55-.1,4.23-3,4.29-8.81-1.58-17.66-3-26.42-4.77-26.44-5.43-52.18-13-76.55-24.93-3.55-1.73-7.21-3.23-10.6-5.32-1.69-1.05-2.32-1.79-1.15-3.87,9.25-16.4,14.36-34.33,18.2-52.55A457.94,457.94,0,0,0-579.85,301C-579.14,294.19-578.59,287.4-578,280.62Z" transform="translate(847.09 85.84)"/><path class="cls-1" d="M-289.33,295a172.61,172.61,0,0,0,3.06,38.09A224.32,224.32,0,0,0-267.55,390a80.78,80.78,0,0,0,4.11,7.39c1.42,2.29.74,3.48-1.59,4.51a503.16,503.16,0,0,1-62.4,23.26,478.67,478.67,0,0,1-53.31,12.08c-1.3.22-2.63.22-3.95.33-2-1.39-1.59-3.53-1.59-5.46,0-12.47-.12-24.94,0-37.4.26-3.43,2.8-5.13,5.34-6.72,19.25-12,34.55-27.9,46.54-47.09.81-1.29,1.21-2.73,2-4,4.93-4.36,11.26-6.24,16.88-9.39,4.93-2.75,9.9-5.38,13.91-9.48,3.84-3.92,4.54-6.82,2.08-9.48s-7-2.27-10.62,1a32.46,32.46,0,0,1-3.33,3c-1.6,1.08-3.24,1.83-4.9.08-.74-6.26,2.27-11.32,5.23-16.4,3.5-2.12,7.41-.29,11.1-1.12,3-.67,6.21-.24,9.25-1.2A2.71,2.71,0,0,1-289.33,295Z" transform="translate(847.09 85.84)"/><path class="cls-3" d="M-718.59,515.14c1.07,30.1-25.4,56.23-56.17,55.61a55.87,55.87,0,0,1-55.08-56.12c0-30.8,25.3-55.78,56.5-55.54C-743.74,459.33-717.8,484.17-718.59,515.14Z" transform="translate(847.09 85.84)"/><path class="cls-4" d="M-495,614.62c-6.42-12.69-14.21-24.6-21.29-36.92-4-6.89-8.1-13.69-12.1-20.56-1.71-2.95-1.45-5.38,1.42-7.81,4.88-4.13,10.24-7.77,15.22-13.29-6.61-.33-12.2-1.43-18-1.41-7.26,0-7.76-.92-7.22-7.92.59-7.61.8-15.24,1.15-22.85.37-8.12.65-16.25,1.09-24.36.17-3.24.86-6.13,4.66-7.38,1.58-.52,2.77-2.27,4.13-3.47l17.18-7.78c2.9.86,3.25,3.56,4,5.83q11.63,33.35,23.21,66.68c4.66,11.38,8.33,23.1,12.4,34.69,4.66,13.31,9.48,26.57,13.88,40,.69,2.11,2.2,4.28.32,6.56C-468.26,615-481.64,615-495,614.62Z" transform="translate(847.09 85.84)"/><path class="cls-4" d="M-340.94,468.1c-1.67,4.08-1.61,8.55-1.65,12.71-.19,16.77-2.11,33.45-2.18,50.2,0,3.27-.9,4.46-4.35,5-5.16.82-10.28.45-15.4.76-1,.05-2.21-.24-2.58,1s.81,1.59,1.56,2.21c4,3.27,7.79,6.72,11.88,9.83,2.34,1.79,3.14,3.36,1.74,6.26q-10.4,21.44-20.43,43.05c-2.37,5.08-4.33,10.34-6.47,15.52q-18.85.63-37.69,0c-1.7-2.41-.61-4.88.06-7.19,7.71-26.66,15.05-53.42,23.15-80,5.55-19.79,11.29-39.52,17-59.26,1.2-4.14,1.2-9,5.36-11.91C-360.54,459.24-350.68,463.53-340.94,468.1Z" transform="translate(847.09 85.84)"/><path class="cls-5" d="M-370.92,456.27q-9.61,33.69-19.25,67.38c-.4,1.42-1.05,2.77-1.58,4.16-5.09-1.58-7.75-5.94-10.84-9.72-10.69-13.05-21.86-25.71-32.69-38.64a2.32,2.32,0,0,0-2.06-1.11c-6.28,6.81-11.52,14.42-17,21.84-7.66,10.4-15.57,20.61-23.38,30.9-1.28,1.68-2.48,3.71-5.2,2.81l-25-70.69c-.28-.78-.57-1.55-.86-2.33l4.9-4.22c1.9-1,3-3,4.81-4.07l2.18-1.88c2.7-1.22,4.86-3.24,7.18-5,2.75-1,5.08-.08,7.23,1.62,12.87,7.57,26.26,14.22,39.13,21.78,4.37,2.57,8.11,2.37,12.46-.34,12.82-8,26-15.3,39.16-22.78,2.1-1.2,4.18-2.92,6.91-1.6A53,53,0,0,1-370.92,456.27Z" transform="translate(847.09 85.84)"/><path class="cls-4" d="M-534.93,744.91c-2.82-3.75-5.59-7.55-8.49-11.24-1.83-2.32-1.65-3.6,1-5.45,3.09-2.15,8.6-3.58,5.46-9.53-2-1.76-4.5-1.15-6.7-.93-4,.39-6.37-.87-6.82-5-.1-4.32-.06-8.66-.35-13-.23-3.43,1-5,4.52-4.8,2,.1,4-.11,6-.11a3.28,3.28,0,0,0,3.27-2.56c.54-1.58,0-2.64-1.38-3.8-2.67-2.28-7.84-3-7.62-6.89.17-2.94,3.45-5.71,5.35-8.55.56-.83,1.16-1.63,1.7-2.46,4.39-6.66,4.29-6.5,10.89-2.57,1.82,1.09,3.65,4,6.55,1.59,2.61-2.18.81-4.63.45-6.93-.2-1.25-1.18-2.37-1.52-3.63-.61-2.24-.63-3.93,2.44-4.81,4.74-1.36,9.26-3.51,13.91-5.23,2.29-.85,4.25-.58,5.2,2.14.49,1.4,1.45,2.7,1.69,4.13.43,2.56,1.22,4.44,4.26,4.38,3.22-.07,3.49-2.7,4.11-4.83,2.18-7.41,3.36-7.93,10.68-5.07a55.43,55.43,0,0,0,9.95,2.85c3.31.63,3.81,1.85,2.22,4.74-.93,1.69-.94,3.86-1.7,5.67-.9,2.15-.18,3.19,1.64,4.41s3,1.28,4.71-.25c8-7.12,7.43-6.44,13.06.92a79.64,79.64,0,0,0,5.53,7c3.26,3.41,2.13,5.63-1.5,7.6a21.49,21.49,0,0,0-3.58,2.6,3.85,3.85,0,0,0-1,4.53,3.47,3.47,0,0,0,3.4,2.44c.83.06,1.66,0,2.5,0,8.57.12,9.18.92,8.26,9.46-.27,2.55-1.13,2.65-3.13,1.67q-10-4.9-20.14-9.61c-2-.93-2.79-2.68-3.78-4.39-11.34-19.62-35.54-23.84-52.61-8.9-9.93,8.69-12.75,20.48-9.73,32.61,2.89,11.59,10.26,20.3,22.73,23.86a45.39,45.39,0,0,0,13.7,1.53c7.22-.14,12.48,4.93,18.82,7.15a15.15,15.15,0,0,1,4.68,2.68c2.55,2.18,2.32,6.06-.61,7.28-4.86,2-9.9,3.64-14.91,5.28-2.67.88-4.51.1-5-3-.21-1.28-1.13-2.42-1.41-3.7-.52-2.31-1.23-4.06-4.17-3.8s-3.4,2.43-4,4.42c-2.11,7.15-2.05,7.2-9.15,5.89a28.63,28.63,0,0,1-4.27-1.25c-3.25-1.12-7.81-.76-9.39-3.75-1.41-2.68.72-6.32,1.94-9.41.79-2-.71-2.95-2.06-4s-2.6-.94-3.93.2c-1.74,1.5-3.6,2.85-5.41,4.26C-532,750.29-533,745.89-534.93,744.91Z" transform="translate(847.09 85.84)"/><path class="cls-6" d="M-437.79,475.75c4.4.7,5.61,4.93,8,7.65,12.86,14.64,25.4,29.58,38.05,44.41q-11.31,39.54-22.63,79.1c-.73,2.55-1.42,5.12-2.13,7.69a208.1,208.1,0,0,1-22.34,0c-1.18-1.78-1-3.8-1-5.79,0-31.22-.13-62.44,0-93.66.05-9.11.05-18.22-.1-27.33A28.3,28.3,0,0,1-437.79,475.75Z" transform="translate(847.09 85.84)"/><path class="cls-7" d="M-384.77,444.37c-15.52,8-30.44,17-45.35,26.07-4.86,2.95-8.72,3.28-13.69.38-13-7.64-26.36-14.81-39.56-22.16.4-3,3-3.87,5.05-5.08,19-11.09,38.3-21.54,57.46-32.3,10.59-5.94,21.36-11.53,31.88-17.61a5.69,5.69,0,0,1,1.68-.33c2.93.38,1.93,2.67,1.94,4.25.07,13.53,0,27.07.06,40.6,0,1.63-.37,3.31.41,4.87Z" transform="translate(847.09 85.84)"/><path class="cls-3" d="M-158.88,56.89c-10.59,8.78-13.7,20.19-12.13,33.45.33,2.74,3.44,5.55,1.37,7.83-1.64,1.79-5.09.49-7.71.77-2.13.22-3.58,1.7-5.19,2.81-9.07,6.25-18.09,12.55-27.77,19.29,1.25-6.62,3.67-11.93,5.87-17.21,2-4.83.12-5.07-3.82-5-6.77,0-13.53.58-20.24-1.65-14.81-4.91-25.23-18.2-25.65-33.75-.13-4.92-.87-10,1.13-14.73,1.84,7.61,7.89,6.29,13.33,6.29,2.65,0,5.32-.11,8,0,4.1.19,7.55-.27,10.39-4.09s6.69-3.65,10.58-.81a32.46,32.46,0,0,1,3,2.59c1.9,1.8,3.38,1.91,5.42-.2,5.56-5.75,8.95-5.74,14.61,0,2,2,3.27,2,5.32.11,6.66-6,8.53-5.9,15.15.75a5.52,5.52,0,0,0,3.47,1.64C-162,55.15-160,55.11-158.88,56.89Z" transform="translate(847.09 85.84)"/><path class="cls-8" d="M-437.79,475.75c0,2.64,0,5.27,0,7.91q0,56.93,0,113.87c0,5.73,1,11.51-1.06,17.11l-16,0-28-80.71c4.52-3,6.81-7.94,10-12.07,11.25-14.68,22.27-29.53,33.4-44.3A18.15,18.15,0,0,1-437.79,475.75Z" transform="translate(847.09 85.84)"/><path class="cls-3" d="M-289.33,295c-4.62,1.48-9.53,1.35-14.15,2.35-3.43.74-6.25-1.58-9.37-.41-3.65-4.23-2.35-9.62-2.7-14.33q-2.1-28.59-5.37-57c-.13-1.15-.42-2.31.17-3.42,0-5.94,0-11.88-.11-17.82-.05-2.52.88-3.56,3.46-3.5,5.61.12,11.24.33,16.83-.07,3.6-.25,4.62,3.5,7.58,3.9,10.23,5.15,15.72,13.57,16,24.9.32,14.61-.11,29.25.08,43.87.11,8.5-3.63,14.69-10.16,19.61C-287.88,293.64-288.58,294.36-289.33,295Z" transform="translate(847.09 85.84)"/><path class="cls-4" d="M-128.76,116.94c-2,.33-2.78-1.52-4.06-2.38-2.66-1.79-5.07-3.71-8.6-3.79a25.06,25.06,0,0,1-23.77-18.51c-3.37-12-1.1-22,8.29-30.11,4.11-3.56,8.71-5.83,14.54-5.62,10.31.36,20.64.06,31,.25,11.43.22,20.26,8.47,23,19.7,1,4.13.89,8.13,1.4,12.18-1.44,1.41.35,3.91-1.71,5.12l-.62,1c-1.64.43-2.86-.58-4.17-1.25a5.17,5.17,0,0,0-6.06.67c-1.91,1.59-2,3.7-1.27,5.93.21.63.56,1.2.77,1.84.35,1.08,1,2.25-.21,3.18a2.79,2.79,0,0,1-3.29,0c-3.44-2.14-6.68-3.66-10.31-.08-1.23,1.21-2.77-.18-3.76-1.45.38.58-.3-.24-.16-.08,3.21,3.76,4.22,6.86-2.21,7.79a6.07,6.07,0,0,0-5,3.51C-125.77,116.21-126.48,118.09-128.76,116.94Z" transform="translate(847.09 85.84)"/><path class="cls-5" d="M-158.88,56.89c-2.15,0-4.31-.06-6.47,0-1.83,0-2.81-.57-3.68-2.46-2.72-5.95-7.85-6.21-11.92-.86-3.51,4.62-4.88,4.62-8.14,0-3.77-5.36-8.73-5.14-12,.75-1.8,3.22-3.87,3.2-6.45,1.31a20,20,0,0,1-2.13-2.09c-5.9-5.89-8.23-5.67-12.22,1.59-1.1,2-2.6,1.75-4.18,1.76-7.47,0-14.94-.09-22.41.06-3.18.06-4.68-1-4.37-4.28a28,28,0,0,0-.15-4c2.48-13.91,14.77-26.89,29.34-28.07,19.55-1.59,39.34-2.41,58.8.49,14.36,2.15,23.29,11.93,27.64,25.71.64,2,1.38,4.51-2.36,4.4C-146.65,51-152.88,53.53-158.88,56.89Z" transform="translate(847.09 85.84)"/><path class="cls-4" d="M-486.65-20.95c.43,35.21-29.1,63.89-64.74,63.58-36-.32-64-30.59-63.51-65a64.47,64.47,0,0,1,66.61-63.44C-514.37-84.94-485-55-486.65-20.95Z" transform="translate(847.09 85.84)"/><path class="cls-3" d="M-810.75,200.77c3.46-2.17,7.13-4.08,10.33-6.58,2.67-2.08,4.11-.86,5.66,1.1,2.63,3.32,5.52,6.48,7.75,10.06,1.78,2.85,3.52,3,6.14,1.57,3.76-2,7.64-3.88,11.39-5.95,2.2-1.21,3.82-1.43,5.4,1.05,8.85,13.88,17.82,27.69,26.7,41.55a3,3,0,0,1,.4,2.32c-.48,1.16-1.79.81-2.63.55-8.82-2.75-17.88-4.44-26.88-6.42-13.32-3-26.6-6.06-39.91-9.05-12.41-2.79-24.83-5.51-38.78-8.6l28.39-17.65C-815,203.12-812.65,202.27-810.75,200.77Z" transform="translate(847.09 85.84)"/><path class="cls-3" d="M-794.61,152.67l3.8.33c1.94.93,4.32.33,6.11,1.77,8.2,1.82,16.4,3.67,24.61,5.48,9.79,2.16,19.56,4.48,29.41,6.36,3.44.65,6.54,2.42,10.92,2.16-3.41,4.45-8,5.71-11.8,7.55-15.59,7.48-30.75,15.78-46.15,23.61-3.71,1.89-6.08,2-9-1.86-11.85-15.89-24.15-31.44-36.3-47.11-1-1.3-2.85-2.68-2.1-4.2,1-1.95,3-.27,4.46,0,6.67,1.23,13.28,2.73,19.91,4.14C-798.93,152.33-796.56,151.76-794.61,152.67Z" transform="translate(847.09 85.84)"/><path class="cls-9" d="M-410.75,764.55c-5.31-3.45-9.54-7.56-10.24-14.4-.3-3-3.15-4.15-5.48-5.29-15.89-7.82-31.88-15.44-47.74-23.34-3.29-1.64-5.68-2.34-9.4-.24-8.53,4.8-19.92.79-24.35-7.79-.94-1.82-2-4-.47-5.54,1.15-1.12,3,.59,4.46,1.18,3.07,1.24,6,2.85,9.07,4.07,2.83,1.12,4.83.45,6.4-2.63,6.09-11.91,6.06-12.22-6.95-17.52-1.93-.78-5.26-1-4.74-3.3s3.69-2.83,6.26-3c10.58-.82,17.82,4.37,20.4,15.39.88,3.76,2.86,5.36,6.1,6.89,11.52,5.46,22.87,11.31,34.29,17,4.45,2.2,9,4.27,13.4,6.51,3,1.53,5.55,2,9.06.28,8.12-3.89,16.71-1.43,21.26,5.13,5.24,7.56,4.41,16-2.25,23.07-.46.48-.84,1-1.26,1.53C-398.36,767.6-404.47,766.79-410.75,764.55Z" transform="translate(847.09 85.84)"/><path class="cls-3" d="M-847.09,216.58c4.44-22.65,9.62-45.08,14.88-67.45,1.91-.28,2.57,1.16,3.29,2.09,8.9,11.49,17.59,23.15,26.66,34.5,2,2.46,1,3.47-.75,4.54q-21.16,13.34-42.43,26.49C-845.65,216.89-846.07,216.7-847.09,216.58Z" transform="translate(847.09 85.84)"/><path class="cls-3" d="M-731.65,243.5c-5.91-9.24-11.42-17.87-16.94-26.48-3.53-5.52-6.87-11.18-10.71-16.48-2-2.79-1-4.2,1.3-5.39,12.85-6.57,25.75-13,38.58-19.62,3.51-1.8,3.34.54,2.95,2.58-1.42,7.44-2.71,14.93-4.66,22.23-2.12,7.89-3.81,15.85-5.64,23.79C-728.2,230.31-728.84,236.72-731.65,243.5Z" transform="translate(847.09 85.84)"/><path class="cls-4" d="M-573.9,614.63a253.21,253.21,0,0,0-26.29-70.3c6.44,3.77,11,9.28,15.23,15.06,11.39,15.54,18,33.06,21.27,51.93a28.26,28.26,0,0,0,1,3.3Z" transform="translate(847.09 85.84)"/><path class="cls-4" d="M-311.28,614.71c3.45-25.48,20.86-57.59,37.84-66.87a102.68,102.68,0,0,0-11.51,21.1c-6.34,14.77-12.64,29.58-14.86,45.7A47.84,47.84,0,0,1-311.28,614.71Z" transform="translate(847.09 85.84)"/><path class="cls-4" d="M-128.76,116.94c2.58-4,5.15-7.9,10.92-7.47,1.43.11,1.55-1.56.8-2.67a12.28,12.28,0,0,0-2.06-2.08c-1.46-1.34-3.62-3.07-1.78-4.82,2.18-2.08,2.9,1,3.81,2.26,1.5,2,2.42,2.83,4.16.07,1.54-2.44,4.15-1.59,6.28-.65a54.21,54.21,0,0,1,5.48,3.14c.14-.58.35-1,.24-1.13-3.21-4.83-3.24-8.36-.06-11,3.46-2.88,7-2.21,11.6,2.21-2.54,6.5-6.58,11.54-13.5,13.74-1.08-.84-2.5-.43-3.63-.93-3-1.33-1.65,1.51-2.37,2.36a4.92,4.92,0,0,1-.11.77c-1.85,2.46-5.54-.3-7.25,2.56-4.42.76-4.12,5.42-6.51,7.86-2.26,1.06-2.83-1.18-4.09-2.08C-127.72,118.58-129,118.44-128.76,116.94Z" transform="translate(847.09 85.84)"/><path class="cls-5" d="M-205.95,429c1.84,1.87,1.2,3.78,1.21,5.48.06,12,0,23.94,0,35.91,0,2.65,0,4.89,2.79,6.82,3.43,2.4,3.25,11.7.33,14.7a5.84,5.84,0,0,1-9-.91c-2.21-3.18-1.71-11.54,1.32-13.92,2.16-1.71,2.5-3.59,2.49-6q-.08-18.19,0-36.4C-206.8,432.92-207.32,431.05-205.95,429Z" transform="translate(847.09 85.84)"/><path class="cls-5" d="M-230.11,493.25c0-6.24,0-12.49,0-18.73,0-2,0-3.68-2.13-5.11-3.76-2.56-4.32-12.29-.68-15.08,2.59-2,2.8-4.11,2.78-6.84,0-5.49.11-11,.21-16.47a4.45,4.45,0,0,1,.5-1.33c2,.51,1.41,2.11,1.44,3.28.1,4.49.08,9,.09,13.48,0,3.1-.13,5.8,3,8.27,3.58,2.84,3.09,11.74-.51,14.42-2.33,1.73-2.53,3.62-2.53,6q0,9.06,0,18.12Z" transform="translate(847.09 85.84)"/><path class="cls-3" d="M-602.91,518.91c-.44,2.9,1.82,1.56,2.94,1.76,4.25.75,6.42,3.28,6.16,7.5-.24,3.85-2,6.58-6.43,6.6s-7.16-2.38-7.55-6.63c-.1-1.13-.36-2.25-.55-3.37C-607,522.36-605.6,520-602.91,518.91Z" transform="translate(847.09 85.84)"/><path class="cls-5" d="M-252.06,493.8c-2.1-2.69-1.11-4.86-1.12-6.92,0-11.79,0-23.59,0-35.39,0-2-.31-3.56-2.36-5-3.78-2.65-4.28-11.43-1.31-15,2.36-2.87,5.87-2.94,8.62-.17,2.6,2.62,2.54,12.79-.56,14.69-2.73,1.68-2.76,3.78-2.71,6.3.28,13,.59,25.91-.13,38.86C-251.67,491.8-251.83,492.44-252.06,493.8Z" transform="translate(847.09 85.84)"/><path class="cls-5" d="M-824.36,366.53q-.17-3-.32-5.94c-.07-1.42.06-2.69,1.91-2.82,1.63-.12,3,.06,3.12,2.15.28,4.79.6,9.57.9,14.35.11,1.75-.9,2.23-2.44,2.32s-2.5-.41-2.58-2.14c-.13-2.65-.35-5.28-.52-7.92Z" transform="translate(847.09 85.84)"/><path class="cls-5" d="M-569.35,701.66c-.87,2.18-1,4.35-3.47,3.45-4.65-1.71-9.26-3.56-13.85-5.46-.83-.34-2-1-1.2-2.25.64-1,1-3,2.7-2.36,5,1.75,9.91,3.76,14.85,5.69C-569.63,701-569.31,701.58-569.35,701.66Z" transform="translate(847.09 85.84)"/><path class="cls-5" d="M-729.18,589.74c0,1.19-1,1.64-1.71,2.28a1.75,1.75,0,0,1-2.66,0c-3.27-3.94-6.45-7.95-9.62-12a1.77,1.77,0,0,1,.32-2.62,2.64,2.64,0,0,1,2.64-1C-739.41,576.73-729.2,589-729.18,589.74Z" transform="translate(847.09 85.84)"/><path class="cls-5" d="M-759.07,135c-.48.76-1.17,1.86-1.85,3-2,3.25-4,6.48-6,9.76-.91,1.53-2,1.5-3.34.7s-2.09-1.7-1.15-3.25c2.48-4.11,4.92-8.25,7.49-12.31a2,2,0,0,1,3-.44C-760,133-759,133.29-759.07,135Z" transform="translate(847.09 85.84)"/><path class="cls-5" d="M-390.22,726.58c-1.79.2-3.33.07-3.59-2.25-.23-2,.86-2.64,2.55-2.85,4.42-.57,8.84-1.17,13.26-1.71,1.82-.23,2.8.64,2.91,2.49s-.86,2.25-2.4,2.46C-381.74,725.28-386,726-390.22,726.58Z" transform="translate(847.09 85.84)"/><path class="cls-5" d="M-50.77,339c.12,2.15.23,4.31.37,6.46.11,1.69-.22,3-2.3,3-1.85.08-2.84-.64-2.85-2.55,0-4.65,0-9.3,0-14A2.22,2.22,0,0,1-53,329.57c1.79-.05,2.29.92,2.29,2.46C-50.78,334.36-50.77,336.69-50.77,339Z" transform="translate(847.09 85.84)"/><path class="cls-5" d="M-282.26-12.7c4.69,2.13,9.7,4.27,14.55,6.71,1.31.66.2,2.12-.28,3.09s-1.27,1.91-2.75,1.21c-4.34-2.05-8.72-4-13.06-6a2.1,2.1,0,0,1-1.07-2.93C-284.46-11.72-284.15-12.94-282.26-12.7Z" transform="translate(847.09 85.84)"/><path class="cls-5" d="M-195.9,643.44c-.07.31,0,.72-.24.91a78.86,78.86,0,0,1-13.24,10.22c-1.07.69-1.85-1-2.56-1.87-1.05-1.24-.25-2.15.71-2.89,3.63-2.82,7.24-5.68,11-8.36A2.76,2.76,0,0,1-195.9,643.44Z" transform="translate(847.09 85.84)"/><path class="cls-5" d="M-680.76,46.5a15.45,15.45,0,0,1-1.66,2c-2.85,2.52-5.77,5-8.62,7.47-1.67,1.47-3.49,2.33-5.16.34s.3-2.93,1.51-4c3.13-2.71,6.31-5.36,9.41-8.1.94-.83,1.78-1.59,2.94-.48C-681.64,44.43-680.7,45-680.76,46.5Z" transform="translate(847.09 85.84)"/><path class="cls-5" d="M-807,243.52c-1.24,4.67-2.49,9.1-3.58,13.58-.37,1.48-1.12,1.88-2.47,1.56s-2.75-.81-2.37-2.53c1.06-4.82,2.24-9.61,3.45-14.4.43-1.69,1.6-1.68,3.1-1.28C-807,241-806.58,242-807,243.52Z" transform="translate(847.09 85.84)"/><path class="cls-5" d="M-702.27,618.65c-.08,1.15-1,1.67-1.73,2.29a1.83,1.83,0,0,1-2.66-.23q-5.16-5-10.26-10.13c-1.25-1.26-.65-2.42.34-3.46a2,2,0,0,1,3.09-.2c3.66,3.57,7.24,7.22,10.84,10.85A2.82,2.82,0,0,1-702.27,618.65Z" transform="translate(847.09 85.84)"/><path class="cls-5" d="M-615.3,2c.26,1.69-1,2.13-2,2.66-3.74,2.1-7.57,4-11.28,6.18-1.64,1-2.67.83-3.64-.85s-.47-2.75,1.1-3.63C-627,4.13-623,1.81-618.94-.4-616.15-1.9-616.22.89-615.3,2Z" transform="translate(847.09 85.84)"/><path class="cls-5" d="M-419.83-41.11c-5.58,2.15-11.34.76-17,.81-1.48,0-1.82-1.12-1.81-2.41,0-1.68.91-2.31,2.49-2.33,3.13,0,6.26-.1,9.39-.16C-424.21-44.27-419.41-47.13-419.83-41.11Z" transform="translate(847.09 85.84)"/><path class="cls-5" d="M-73.85,213.52c1.48-.11,1.89,1.07,2.25,2.14,1.41,4.21,2.72,8.46,4.18,12.65.62,1.79.2,2.77-1.6,3.36s-2.72-.34-3.25-1.95c-1.41-4.22-2.76-8.47-4.3-12.64C-77.59,214.31-75.66,214.06-73.85,213.52Z" transform="translate(847.09 85.84)"/><path class="cls-5" d="M-813.69,411.16c.31,2.62.09,4.15-2.21,4.38-2,.2-2.5-1-2.75-2.68-.63-4.09-1.39-8.17-2.05-12.25-.3-1.84.06-3.28,2.31-3.58s2.47,1.19,2.73,2.69C-814.93,403.79-814.25,407.87-813.69,411.16Z" transform="translate(847.09 85.84)"/><path class="cls-5" d="M-276.75,694.47c-2.17.48-2.58-.64-3.2-1.66-.76-1.27-.57-2.17.72-2.8,4.45-2.17,8.92-4.29,13.36-6.47,1.44-.71,2.11.1,2.73,1.19s1.43,2.26,0,3C-267.82,690.17-272.6,692.43-276.75,694.47Z" transform="translate(847.09 85.84)"/><path class="cls-5" d="M-352.72,719.91c-1.22.41-1.76-.59-2-1.82-.33-1.4-.28-2.72,1.48-3.14,4.68-1.11,9.36-2.22,14.05-3.26a1.82,1.82,0,0,1,2.47,1.7c.16,1.37.28,2.71-1.53,3.14Z" transform="translate(847.09 85.84)"/><path class="cls-5" d="M-298.79,702.51a1.8,1.8,0,0,1-1.45,1.76c-4.34,1.55-8.69,3.07-13.05,4.59-1.6.56-2.81.47-3.42-1.53s.22-2.69,1.86-3.27c4.05-1.41,8.06-2.91,12.09-4.37C-300.08,698.72-299.18,700.26-298.79,702.51Z" transform="translate(847.09 85.84)"/><path class="cls-5" d="M-738.74,99.74c2,.88,3.33,2.3,2,4.25-2.76,3.88-5.84,7.54-8.8,11.28a1.73,1.73,0,0,1-2.93.17c-.75-.77-2.31-1.37-1.28-2.72,3.18-4.2,6.51-8.29,9.82-12.38C-739.71,100-739.14,99.92-738.74,99.74Z" transform="translate(847.09 85.84)"/><path class="cls-5" d="M-52.2,305.9c.19,1.63,0,3-2.09,3.2-1.93.22-2.64-.55-2.83-2.42-.43-4.12-1.1-8.22-1.58-12.33-.19-1.67-.33-3.37,2.16-3.64,2.24-.24,2.94.92,3.12,2.82Q-52.82,299.73-52.2,305.9Z" transform="translate(847.09 85.84)"/><path class="cls-5" d="M-654.66,657.05c3.11,2,6.4,3.63,9.21,5.91,1.92,1.56,7.21,2.09,4.09,6.15-2.55,3.32-4.68-1.1-6.9-2.12a61.24,61.24,0,0,1-7.61-4.68,2.47,2.47,0,0,1-.89-3.48C-656.34,657.91-655.87,657-654.66,657.05Z" transform="translate(847.09 85.84)"/><path class="cls-5" d="M-246.22,5.26c3.86,2.42,8.54,5.22,13.05,8.28,1,.66.4,2.18-.33,3.17-.87,1.2-1.88,1-3,.33-4-2.4-8-4.71-11.95-7.13-1-.6-1.94-1.46-1-2.84C-248.92,6.16-248.79,4.68-246.22,5.26Z" transform="translate(847.09 85.84)"/><path class="cls-5" d="M-57.65,267.23c.46,2.06-.83,2.61-2.43,2.95s-2.38-.53-2.67-2.06c-.8-4.2-1.63-8.41-2.5-12.6-.36-1.78-.46-3.28,1.88-3.73,2.07-.4,2.5.81,2.84,2.44C-59.62,258.57-58.62,262.9-57.65,267.23Z" transform="translate(847.09 85.84)"/><path class="cls-5" d="M-605.8,686.62c-.9,1.94-1.4,3.78-4,2.37-4.08-2.21-8.27-4.21-12.44-6.25-1.28-.64-1.69-1.42-1-2.77s1.55-2.6,3-1.9c4.62,2.21,9.13,4.66,13.64,7.11C-606.17,685.42-606,686.22-605.8,686.62Z" transform="translate(847.09 85.84)"/><path class="cls-5" d="M-346.84-29.18l-11.39-2.58c-1.46-.34-2.36-1-1.9-2.77s1-2.79,3-2.27c4.19,1.07,8.4,2,12.59,3.07,1.42.35,3.07.46,2.72,2.72C-342.19-28.58-343.86-28.82-346.84-29.18Z" transform="translate(847.09 85.84)"/><path class="cls-5" d="M-395-43c4,.55,7.89,1.21,11.85,1.62,1.93.2,2.55,1,2.45,2.85-.12,2.14-1.35,2.42-3,2.21-4-.49-7.89-1-11.84-1.48-1.85-.22-3.83-.16-3.53-3S-396.78-43-395-43Z" transform="translate(847.09 85.84)"/><path class="cls-5" d="M-820.91,284.78c.15-1,.25-2,.45-3,.28-1.46.4-3.14,2.57-2.93s2.52,1.85,2.33,3.64c-.38,3.8-.9,7.59-1.24,11.4-.38,4.37-2.44,5-5.92,2.87C-823.54,292.57-821.61,288.77-820.91,284.78Z" transform="translate(847.09 85.84)"/><path class="cls-5" d="M-321.78-24.18c.54-1.56.79-3.3,3.28-2.37,4,1.48,8.09,2.77,12.15,4.12,1.85.62,2.71,1.61,2,3.71s-2,1.85-3.51,1.34c-3.91-1.3-7.8-2.65-11.69-4C-320.91-21.81-321.89-22.56-321.78-24.18Z" transform="translate(847.09 85.84)"/><path class="cls-5" d="M-81,190.91c.41,2.22-.38,2.89-1.53,3.47a1.8,1.8,0,0,1-2.81-1c-2-4.37-3.89-8.76-5.86-13.13a2,2,0,0,1,1.08-2.9c1-.57,2.42-1.11,3.07.23C-84.85,182.23-82.82,187-81,190.91Z" transform="translate(847.09 85.84)"/><path class="cls-5" d="M-709.6,72.64a22.5,22.5,0,0,1-1.78,2.55c-2.81,3-5.69,6-8.54,9-1.1,1.18-2.14,2.06-3.72.55s-1.5-2.64,0-4.16c3.05-3,5.94-6.22,8.91-9.33.8-.84,1.67-1.85,3-.88A20,20,0,0,1-709.6,72.64Z" transform="translate(847.09 85.84)"/><path class="cls-5" d="M-804.15,451.08c.33,1.81-.75,2.36-2.13,2.88-1.8.69-2.38-.29-2.79-1.73-1.22-4.29-2.5-8.57-3.67-12.87-.44-1.61-.14-3,1.81-3.4,1.3-.28,2.34,0,2.76,1.34C-806.81,441.88-805.48,446.48-804.15,451.08Z" transform="translate(847.09 85.84)"/><path class="cls-5" d="M-107.19,141.8c.38.15.83.19,1,.4,2.77,4.7,5.62,9.36,8.19,14.17.64,1.2-.82,2-1.87,2.51s-2,.54-2.58-.52c-2.51-4.29-5.11-8.54-7.41-12.94C-111.3,142.73-108.44,142.75-107.19,141.8Z" transform="translate(847.09 85.84)"/><path class="cls-5" d="M-686.4,632.83c.8.57,1.48,1,2.1,1.5,3.35,2.69,6.65,5.45,10,8.08,1.37,1.06,2.13,2.11.94,3.7s-2.44,1.48-3.84.37c-3.61-2.88-7.25-5.73-10.83-8.65a2,2,0,0,1-.48-2.7A16.32,16.32,0,0,1-686.4,632.83Z" transform="translate(847.09 85.84)"/><path class="cls-5" d="M-166,617.4a8.26,8.26,0,0,1-1,1.61q-5.16,5-10.39,9.91c-1.31,1.24-2.36.55-3.38-.51s-1.36-2.19-.07-3.37c3.41-3.13,6.75-6.31,10.19-9.41C-168.24,613.43-167.31,615.73-166,617.4Z" transform="translate(847.09 85.84)"/><path class="cls-5" d="M-151.16,601.38c-1.36-.84-4.06-1.25-2.24-3.67,3-4,6.34-7.61,9.59-11.34.92-1.07,2-1,3,0,.76.78,2.23,1.45,1.11,2.78-3.41,4-6.94,7.93-10.45,11.86C-150.32,601.23-150.74,601.24-151.16,601.38Z" transform="translate(847.09 85.84)"/><path class="cls-5" d="M-648.89,22.6c-.21.47-.28,1.07-.62,1.3-4.17,3-8.35,5.92-12.63,8.74-1,.67-2.13.42-2.9-.9s-1.24-2.42.2-3.42c3.94-2.71,7.85-5.48,11.9-8C-650.52,18.78-649.94,21.17-648.89,22.6Z" transform="translate(847.09 85.84)"/><path class="cls-5" d="M-231.8,664c2.21,0,3,.69,3.51,1.88a2,2,0,0,1-1,2.5c-4.16,2.68-8.32,5.37-12.54,8a1.65,1.65,0,0,1-2.49-.86c-.43-1-1.87-2.15-.55-3C-240.42,669.4-235.77,666.57-231.8,664Z" transform="translate(847.09 85.84)"/><path class="cls-5" d="M-51.74,373.46c-.41,4.41-.84,8.36-1.14,12.32-.12,1.63-.83,2.39-2.46,2.41-1.92,0-2.7-1-2.56-2.79.32-4,.62-7.93,1-11.88.15-1.74-.25-3.92,2.58-3.88C-51.24,369.69-51.73,372-51.74,373.46Z" transform="translate(847.09 85.84)"/><path class="cls-5" d="M-824.61,328.19v-6.91c0-1.67.48-2.9,2.5-2.87s2.65.95,2.59,2.78c-.15,4.44-.27,8.89-.4,13.33,0,1.62-.84,2.28-2.48,2.34-2.05.08-2.51-1-2.48-2.74,0-2,0-3.95,0-5.93Z" transform="translate(847.09 85.84)"/><path class="cls-5" d="M-478.89-38.07c-1.53-.13-3.8,1.06-4.13-1.9s1.88-3,3.92-3.09q5.73-.39,11.46-.85c1.74-.14,2.86.22,3,2.32s-.85,2.5-2.65,2.6C-471.15-38.79-475-38.4-478.89-38.07Z" transform="translate(847.09 85.84)"/><path class="cls-3" d="M-597.06,512.76c1.48,1,5.07-.71,3.93,3.91-.48,1.94,2.17,5,5.29,5.41,1.05.15,2.56-.77,2.53,1.11,0,1.18-1.23,2-2.4,2.24-.76.17-2,.26-2.36-.17-2.84-3.59-7.33-5.82-8.84-10.52C-598.75,513.65-598.6,512.56-597.06,512.76Z" transform="translate(847.09 85.84)"/><path class="cls-10" d="M-384.89,443.06c-1.33-2.84-.87-5.88-.89-8.83-.07-12.14,0-24.27,0-36.41,0-2.15.15-4.25-3.07-3,.15-3,1.65-3.36,4-2.06q.08,22.41.16,44.82C-384.75,439.39-384.82,441.23-384.89,443.06Z" transform="translate(847.09 85.84)"/><path class="cls-4" d="M-126.83,119.08c1.76-.42,2.16,2.37,4,1.69,1.32-.93,2.2-.15,3,.79.44,1.56,2.54,1.88,2.75,3.62-.73,1.84,3.12,3.78.49,5.08s-3.35-2-4.39-3.56C-122.69,124-126.19,122.63-126.83,119.08Z" transform="translate(847.09 85.84)"/><path class="cls-11" d="M-550.47,712.73c1.81,4.23,5.36,4.26,9.2,4,1.6-.1,3.85-.82,4.32,2a63,63,0,0,0-8.36,0C-550.24,719.28-551.58,717.18-550.47,712.73Z" transform="translate(847.09 85.84)"/><path class="cls-4" d="M-108.87,110c-.94-1.3-4-1.6-2.53-4,1.34-2.14,3.46-1.2,5.15,0,1.15.82,3,.74,3.38,2.55Z" transform="translate(847.09 85.84)"/><path class="cls-3" d="M-628.51,554.75a1,1,0,0,1,.55.44c1.69,3.08,2,5.5-2.66,5.55C-630.55,558.52-628,557.17-628.51,554.75Z" transform="translate(847.09 85.84)"/><path class="cls-4" d="M-117,125.18c-1.47-.41-3.53.14-3.73-2.32q2.8-2.69,5.72-.1l.18,1.8Z" transform="translate(847.09 85.84)"/><path class="cls-12" d="M-534.93,744.91c2.27,0,3.35,3.92,6.21,1.82C-531.47,749.77-532.34,749.51-534.93,744.91Z" transform="translate(847.09 85.84)"/><path class="cls-3" d="M-794.61,152.67c-2.17-.14-4.74,1.09-6.12-1.77A6.49,6.49,0,0,1-794.61,152.67Z" transform="translate(847.09 85.84)"/><path class="cls-7" d="M-320.75,222.16c2.12.89,1.85,2.8,2.05,4.58,2.65,23.35,5.05,46.71,5.85,70.22q-2.47,7.92-5,15.86c1,3.13-1.34,4.63-3.21,6.1a86.07,86.07,0,0,1-16.08,10c-10.37,5-20.88,9.55-32.12,12.26-2.2,1.1-4.77.74-7,1.73a13.11,13.11,0,0,1-1.34.44c-2.16.87-4.56.69-6.71,1.6a11.17,11.17,0,0,1-1.35.35,21.46,21.46,0,0,1-4.1,1.05,5.82,5.82,0,0,1-1.44.2c-2.64.77-5.45.71-8,1.71-2.45.52-4.95.74-7.39,1.26-6.79,1.46-13,1.33-18.58-3.92-2.74-2.6-6.67-3.66-10.45-4.55-2.05-.48-4.38-.71-5.19-3.27,1.18-2,1-4.15,1-6.31q0-63.3,0-126.62c0-3.46-.09-6.92-.14-10.39A271.79,271.79,0,0,0-382.57,151C-371.9,183.86-352.78,208.69-320.75,222.16Z" transform="translate(847.09 85.84)"/><path class="cls-4" d="M-442.06,118.91c-24-1-43.95,4-62.63,14-8,4.26-16.68,8.33-22.76,14.67-10.36,10.82-21.36,21.26-29.28,34.35-3.74,6.19-7.25,12.49-10.88,18.73a7.18,7.18,0,0,0-1.14,3.21c-.21,3.38-2.39,4-5.22,3.71-1-.12-2-.67-2.93-.47-5.06,1.08-4.35-2.26-3.62-5A172.62,172.62,0,0,1-564.3,162c5.2-9.24,11.74-17.61,18.45-25.92,6.48-8,13.93-14.66,21.83-20.91,8.28-6.54,17.95-10.62,27.66-14.74,8.16-3.47,16.7-5.41,25.14-7,9.19-1.76,18.85-1.27,28.31-1.25,2.93,0,5.94.59,8.93.54,11.61-.18,22.48,3.21,33.39,6.58,16.44,5.08,30.65,13.74,44.27,24.32,14.32,11.13,24.43,25.35,34.09,40,5.18,7.87,8.46,17,12.62,25.52,1.16,2.38.24,3.41-2.17,3.6-3.44.26-6.84.13-10.31,1.07-2.69.73-5.23-1.53-6.26-4.07-5-12.27-12.94-22.35-21.84-31.95-12.16-13.1-26.08-23.63-43-29.49-9.24-3.2-18.33-6.8-28.38-8.09C-429.32,119.26-437,119.34-442.06,118.91Z" transform="translate(847.09 85.84)"/><path class="cls-7" d="M-384.85,392.73c-1.64.09-3.15.45-4,2.06l.09-.06c-9.82,5.09-19.64,10.2-30.94,11.25-2.13.2-4.29.81-6-1.11-3.32,0-6.64-.18-10-.06-2.92.11-4.22-.91-4.17-4,.14-8.47.18-16.95,0-25.42-.06-2.51,1.3-3.52,3.06-4.53,8.12-3.49,15.42-8.82,24.21-10.84,4.5.06,8.75-1.43,13.12-2.16a33.36,33.36,0,0,1,5.88-.63q3.42-.76,6.75-1.79a407.17,407.17,0,0,0,49.17-17.3c1.93-.83,3.87-2.11,6.11-.8.9,3-1.54,4.66-2.84,6.67-12.18,18.84-27.48,34.53-46.83,46.09A44,44,0,0,0-384.85,392.73Z" transform="translate(847.09 85.84)"/><path class="cls-10" d="M-425.72,404.87a96.5,96.5,0,0,0,31.37-8.29c1.78-.83,3.51-1.88,5.58-1.85-7.14,5.47-15.41,9-23.14,13.46-23.69,13.71-48,26.32-71.46,40.47a8.63,8.63,0,0,0-6.45-2c1.4-3.62,1.76-7.25.05-10.9q0-22-.08-44A118.13,118.13,0,0,0-431,405.71C-429.24,405.68-427.36,406-425.72,404.87Z" transform="translate(847.09 85.84)"/><path class="cls-4" d="M-412.82,361.67a13,13,0,0,0-8.73,3.85c-4.13,3.94-9.92,4.2-15.24,5.34-7.81,0-15.65.67-23.35-1.31-5.85-1.51-10.9-4-13.5-10-2.83-6.49-1.5-12.18,4.33-16.27,7.05-5,14.77-7.5,23.54-5.77a32.71,32.71,0,0,0,5,.26c5,1.58,11.28,1.2,14.84,5,7.47,7.87,15.86,5.49,24.44,4.06.81-.13,1.64-.17,2.46-.25,1.74-.42,2.37.75,2.72,2.06.58,2.16,1.89,2.87,4,2.42,1.68-.36,3.44-.46,4.1,1.55s-.54,3-2.16,3.84c-.85.43-1.14,1.62-2.22,1.8-2.27.35-3.62-1.2-5.21-2.4-3.62-2.74-6.76-2.4-8.58,1.57C-407.81,360.47-409.93,361.36-412.82,361.67Z" transform="translate(847.09 85.84)"/><path class="cls-4" d="M-148.92,556.78c-2.48-2.41-5.1-4.69-7.41-7.25-3.86-4.28-3.65-8.53.48-12.67q17.67-17.7,35.39-35.32c3.52-3.5,7.49-4,11.72-1.2,4.43,0,6.25,3,7.62,6.52,3,6.3.41,10.74-4.27,15.18-12,11.39-23.64,23.15-35.43,34.76A10.18,10.18,0,0,1-148.92,556.78Z" transform="translate(847.09 85.84)"/><path class="cls-13" d="M-105.93,496.76c-4.3-4.41-8.71-8.71-12.84-13.26a8.41,8.41,0,0,0-8.18-3.05c-12.12,1.45-22.82-8.35-21.6-19.63,4.7,2.7,9.37,5.19,13.83,8,3.72,2.36,6.35,2,8.58-2,7.68-13.64,8.15-11.59-4.84-19.13-2.52-1.46-5-3-8-4.88,7.51-3.68,14.17-3.58,20.53.37,7.15,4.44,10.57,11.18,9.37,19.47-.57,3.9.64,6.25,3.09,8.73,4.19,4.26,8.24,8.66,12.35,13C-94,489.32-100.79,496.13-105.93,496.76Z" transform="translate(847.09 85.84)"/><path class="cls-14" d="M-85.77,492.67c6.14,6.3,12.36,12.53,18.37,18.95a8.14,8.14,0,0,0,7.82,2.85c12.13-1.46,22.25,7.59,21.93,19.68l-13.91-7.93c-4.81-2.73-6.35-2.31-9.15,2.52-1.16,2-2.12,4.16-3.45,6-2.83,4-1.53,6.62,2.46,8.79,4.63,2.52,9.11,5.3,14.42,8.41-7.69,3.71-14.43,3.61-20.86-.45-6.92-4.38-10.25-11-9.23-19.09.48-3.77-.29-6.31-2.8-8.87-6-6.14-11.91-12.42-17.84-18.65C-97.47,499.87-90.21,492.59-85.77,492.67Z" transform="translate(847.09 85.84)"/><path class="cls-15" d="M-85.77,492.67A67.33,67.33,0,0,0-98,504.93c-1,.64-2.08,1.28-3.11,1.93l-7.62-6.52c1-1.18,2.5-1.9,2.81-3.58,4.39-3.81,9-7.39,12.25-12.34,1.71-.11,2.49-1.56,3.51-2.57,6.73-6.66,13.27-13.51,20.14-20,4.43-4.2,8-8.77,9.68-14.73s7.59-5.82,11.9-7.66c3.3-1.41,4.4,2.68,6.54,4.22,1.95,1.41,1.64,3.09,1,5.25C-42.81,455-45.79,459.61-52.53,461c-3,.62-5.25,2.63-7.39,4.81-7.56,7.71-15.25,15.3-22.86,22.95C-83.94,489.94-85.36,490.93-85.77,492.67Z" transform="translate(847.09 85.84)"/><path class="cls-16" d="M-148.92,556.78l8.1,0C-143.53,559.5-146.22,559.41-148.92,556.78Z" transform="translate(847.09 85.84)"/><path class="cls-3" d="M-575.75,512.73c0,4.27-2.58,7-6.59,7-4.37,0-7.38-2.79-7.44-6.9a6.88,6.88,0,0,1,7.21-7.13A6.93,6.93,0,0,1-575.75,512.73Z" transform="translate(847.09 85.84)"/><path class="cls-3" d="M-620.71,540.86c2.37-.36,1.76-3.64,4-4.1l4.44,5.93c.76,1,2.23,2.14.75,3.32-1.12.9-2-.66-2.83-1.32l-2.08-1.51c-.07,4.75-.45,8.89-5.31,10.86-1.46.59,0,2,.65,2.83s1.69,1.9.39,3-2-.27-2.7-1.1c-1.16-1.39-2.29-2.81-3.43-4.21C-625.7,549.56-622.81,545.39-620.71,540.86Z" transform="translate(847.09 85.84)"/><path class="cls-3" d="M-575.14,502.09c1.5,1.06,3.08.37,4.49.73,2.72.69,3,2.86,2.81,5.1-.19,1.95-1.56,2.87-3.49,2.8-1,0-2.49-.52-1.47-1.64,3.87-4.24-.22-3.17-2.13-3.26-2.92-.12-4.51-1.71-4.28-4.36.16-1.79,1.85-3.09,3.79-3.53a1.76,1.76,0,0,1,2.17.74C-572.31,500.54-575.4,500.51-575.14,502.09Z" transform="translate(847.09 85.84)"/><path class="cls-4" d="M-331.55,337.34a291.13,291.13,0,0,1-55.21,19.48c-1.73.52-1.54-.8-1.2-1.56a11.69,11.69,0,0,0,.57-3.82c2.05-1.32,3.58-2.73,1.45-5.27a1.94,1.94,0,0,1,.15-2.27,1.12,1.12,0,0,1,.87-.2c3.75-.44,3.75-.44,7.67.81.62-1-1.16-1.59-.51-2.6a1.66,1.66,0,0,1,.88-.18,5.22,5.22,0,0,1,4.64,0c2.12.88,1.85-1,2.45-1.87,15.23-5,30.3-10.39,43.73-19.42,3.13-2.1,6.5-4,8.25-7.6,4-.33,5.54-3.94,8.06-6.19,2.8-2.49,5.78-2.12,8.85-1.31s4.33,3.31,4.84,6.29c.46,2.63-1,4.32-2.59,6.11-6.26,6.91-14.61,10.57-22.61,14.77C-324.61,334.25-328.12,335.73-331.55,337.34Z" transform="translate(847.09 85.84)"/><path class="cls-13" d="M-786.43,486.12c.39,6,2.13,10.76-2.25,15.09-2,2-1.21,5.39.37,8q7.68,12.54,15.42,25c2,3.25,4.94,4.54,8.52,3.14,2-.79,3.42-.3,5,.84,5,3.56,10,7.11,15.17,10.51,2,1.35,2.63,2.18.15,3.7-9.26,5.66-18.6,7.34-28,.53-16.79-12.21-28.4-27.83-31.52-48.88-.61-4.11-1.19-8.23-1.56-12.36-.85-9.55,5.5-17.27,14.94-18.62,2.21-.32,2.54.54,2.69,2.29C-787.14,479.35-786.71,483.32-786.43,486.12Z" transform="translate(847.09 85.84)"/><path class="cls-13" d="M-739.57,548.92l-20.35-14.19c3.47-4.14,6.83-4.09,10.56-1.05a42.34,42.34,0,0,0,7,4.76C-737.75,540.85-736.87,544.11-739.57,548.92Z" transform="translate(847.09 85.84)"/><path class="cls-13" d="M-777.74,485.46a45.38,45.38,0,0,1,.54,6.45,4.81,4.81,0,0,1-4.45,4.67c-2.93.28-1.87-2.54-2-4.05-.57-5.12-1-10.26-1.23-15.41-.06-1.46-1.9-4.11,1.23-4.31,2.29-.14,4.76,1,5.25,3.7.54,2.93.59,5.95.85,8.93Z" transform="translate(847.09 85.84)"/><path class="cls-5" d="M-550.91-77.11c30.65-1.12,55.51,25.35,56.16,54,.72,31.68-26.8,57.71-56.84,57.19-28.56-.5-54.27-25.51-54.6-55.92C-606.52-51.91-578.19-79.09-550.91-77.11Z" transform="translate(847.09 85.84)"/><path class="cls-17" d="M-403.89,758.72c-4.95.1-11-5.48-11-10.12,0-5.81,6-10.84,13.19-11,3.76-.08,9.6,6.14,9.71,10.36C-391.85,753.4-397.58,758.6-403.89,758.72Z" transform="translate(847.09 85.84)"/><path class="cls-4" d="M-115,122.76l-5.72.1-2.07-2.09c-1-5.23.87-7.79,5.7-7.88C-116,116.09-113.86,119.07-115,122.76Z" transform="translate(847.09 85.84)"/><path class="cls-18" d="M-201.68,485.12c0,2.94,0,6.21-3.87,6.26-4.22.05-4.16-3.43-4.11-6.51,0-1-.05-2,0-3,.24-2.41,1.23-4.13,4-4.08,2.49.06,3.44,1.69,3.75,3.84A33.32,33.32,0,0,1-201.68,485.12Z" transform="translate(847.09 85.84)"/><path class="cls-18" d="M-232.87,460.54a8.17,8.17,0,0,1,.2-2.78c.83-2.67,2.82-3.85,5.39-2.49,3.37,1.78,2,5.23,2.31,8.08a4.43,4.43,0,0,1-2.75,4.84C-231,469.66-233,467.23-232.87,460.54Z" transform="translate(847.09 85.84)"/><path class="cls-18" d="M-256.65,439.31c.06-2.87-.39-5,1.31-6.51a3.92,3.92,0,0,1,5.41-.34c1.71,1.29,2.12,9.37.49,11.29-1.42,1.67-3.26,2.29-5.25.91C-256.94,443.11-256.76,440.72-256.65,439.31Z" transform="translate(847.09 85.84)"/><path class="cls-4" d="M-386.93,351.77c2.38,1.61-.8,3.4.17,5.05a16.16,16.16,0,0,1-6.08,1.77q-.57-.29-.36-.54a.55.55,0,0,1,.39-.25c-.75-3,4.22-2.83,3.35-4.68-1-2.23-4.06.46-6.23-.8-2.36-1.37-1.5-4.31-3.38-5.77l8.27-1.62c-.83,2.9,2.19,2.78,3.29,4.17C-386.86,349.89-387.24,350.9-386.93,351.77Z" transform="translate(847.09 85.84)"/><path class="cls-4" d="M-386.93,351.77c-.3-.6-.6-1.2-.89-1.8.18-2-3.08-2.69-2-5.08l4-1c1,1.45,2,2.92,3.09,4.36.74,1,2.19,1.86,1.2,3.33s-2.24.61-3.33-.17A1.38,1.38,0,0,0-386.93,351.77Z" transform="translate(847.09 85.84)"/><path class="cls-4" d="M-377.76,341.91c.93,1.57,3.53.06,4.11,2.17.26,1-.56,1.49-1.24,1.94-1.85,1.21-3.57.69-5-.73s-3.29-1.36-5.07-1.59Z" transform="translate(847.09 85.84)"/><path class="cls-4" d="M-369.79,339.84c.37.72.8,1.42,1.11,2.16.44,1,2.35,2,.63,3.23-1.19.9-2.18-.2-2.82-1.1-1.53-2.1-3.67-2.45-6-2.4C-374.74,340.29-372.15,340.5-369.79,339.84Z" transform="translate(847.09 85.84)"/><path class="cls-4" d="M-389.84,344.89c.32,1.84,3.89,2.37,2,5.07-1.92-1.7-4.24-.71-7-.6,1.41-2,3.56-2.54,4.06-4.43A1.19,1.19,0,0,1-389.84,344.89Z" transform="translate(847.09 85.84)"/><path class="cls-4" d="M-392.81,357.8l0,.79c-6.61,1.3-13.15,3.15-20,3.08,2-1,3.67-1.61,4.35-4.53,1.34-5.75,8.7-6.87,12.61-2.3C-394.93,355.93-394.68,357.69-392.81,357.8Z" transform="translate(847.09 85.84)"/><path class="cls-19" d="M-78.59,518.83c-4.4-.1-6.59-2.49-6.39-7,.18-4.22,2.86-6.32,6.59-6.82,3.4-.46,7.11,3.77,7.14,7.53S-74.12,518.93-78.59,518.83Z" transform="translate(847.09 85.84)"/><path class="cls-20" d="M-554.17-25.12c.49-2.1-2.53-3.91-.41-4.8,2.94-1.22,2.3,3.06,4.9,3.79,3.06-5.56,6.32-11.46,9.54-17.39,2.86-5.25,5.58-10.58,8.52-15.78.77-1.37,1.18-4.16,3.74-2.71,2.22,1.25.9,3.15,0,4.74-5.91,10.78-11.72,21.6-17.8,32.27-1.59,2.8-1.6,4.87.08,7.63,7.25,11.92,14.3,24,21.3,36,.69,1.19,2.87,2.91.73,4.16-1.7,1-2.31-1.43-3-2.55-7.44-11.77-13.9-24.12-21.14-36-1.42-2.34-2.92-3.53-5.75-3.81-9.26-.92-18.49-2.19-27.73-3.32-2-.25-4.51-.26-4.31-3,.23-3.16,2.92-2.51,5-2.27C-571.72-27.16-563-26.13-554.17-25.12Z" transform="translate(847.09 85.84)"/><path class="cls-21" d="M-594-24c2,.28,3.23,1.32,3.19,3.25a2.71,2.71,0,0,1-2.9,2.79c-2,0-3.06-1.1-3.06-3.09S-595.54-23.62-594-24Z" transform="translate(847.09 85.84)"/><path class="cls-22" d="M-547.67,21.2c-.08,2.35-1.23,3.37-2.84,3.4a2.82,2.82,0,0,1-3.11-3.12,2.76,2.76,0,0,1,3.36-2.8C-548.56,18.88-547.56,19.88-547.67,21.2Z" transform="translate(847.09 85.84)"/><path class="cls-23" d="M-504.42-20.85c-.15,1.8-1.05,2.83-2.84,2.84-2,0-3.16-1.08-3.08-3a2.77,2.77,0,0,1,2.83-2.88C-505.53-24-504.57-22.72-504.42-20.85Z" transform="translate(847.09 85.84)"/><path class="cls-24" d="M-550.45-61.86c-2.16-.35-3.35-1.33-3.19-3.3a2.74,2.74,0,0,1,2.88-2.74c1.82,0,3.1.93,3.12,3S-549-62.21-550.45-61.86Z" transform="translate(847.09 85.84)"/><path class="cls-25" d="M-571.7,14.44c1.12.08,1.71.62,1.79,1.51a1.64,1.64,0,0,1-1.71,1.89,1.5,1.5,0,0,1-1.62-1.48A1.68,1.68,0,0,1-571.7,14.44Z" transform="translate(847.09 85.84)"/><path class="cls-26" d="M-587.66,2A1.68,1.68,0,0,1-589.29.28a1.65,1.65,0,0,1,2-1.63,1.43,1.43,0,0,1,1.44,1.6A1.68,1.68,0,0,1-587.66,2Z" transform="translate(847.09 85.84)"/><path class="cls-27" d="M-511.38-42.48a1.57,1.57,0,0,1-1.54,1.56,1.41,1.41,0,0,1-1.69-1.32c-.12-1.14.37-1.89,1.64-1.81C-512-44-511.6-43.32-511.38-42.48Z" transform="translate(847.09 85.84)"/><path class="cls-28" d="M-74.24,511.85c-.55,2.31-1.5,4.44-4,4.52a3.83,3.83,0,0,1-4.12-4c0-2,1.22-4.14,3.53-4.13A4.38,4.38,0,0,1-74.24,511.85Z" transform="translate(847.09 85.84)"/><path class="cls-4" d="M-152.94,239.94a8.74,8.74,0,0,0,1.64-.53c1.44-.79,2.5-.29,3,1,1.15,3.12,3.28,3.91,6.62,3.74a4,4,0,0,0,3.88-2.42c1.73-3.15,1.79-3.12,5.1-1.78a8.55,8.55,0,0,0,1.22.47c2.28.5,2.67,1.83,1.87,3.77-.29.72-.35,1.52-.65,2.23a1.48,1.48,0,0,0,.72,2.11,1.28,1.28,0,0,1,.34.26c2.13,2.87,4.72,4.1,8.21,2.18a.7.7,0,0,1,.43-.07c2.86.61,2.28,3.43,3.47,5.11.77,1.1.06,2-1,2.34-3.32,1.09-4,3.19-4.07,6.5,0,2.52,1.3,3.06,2.86,3.94,2.89,1.63,3,1.65,1.58,4.54-2,4.1-.76,4.16-6,2.79-1.68-.45-2.75-.33-3.63,1.09a2.14,2.14,0,0,1-.71.78c-2.87,1.44-2.49,3.6-1.52,6,.68,1.64.25,2.67-1.64,3.37-4.68,1.74-4.68,1.85-7.33-2.36a2.64,2.64,0,0,0-2.36-1.26c-3.86-.48-6.56.54-7.78,4.3,0,.07-.06.15-.12.18-2.47,1.63-4.06-.93-6.14-1.22a1.44,1.44,0,0,1-1.11-2.27c1.61-3.09.88-5.35-1.94-7.46-1.3-1-2.19-1.89-3.85-1a5.05,5.05,0,0,1-1.05.27c-3.07.78-3.19.82-4.33-2.05-1.77-4.5-2.38-3.73,2-6.09,1.49-.81,2.49-1.6,1.85-3.38a1.09,1.09,0,0,1,0-.62c.94-3.4-1.06-4.92-4-5.89-1.44-.56-1.67-1.63-1.28-2.93a19,19,0,0,1,.86-2.16c1.26-2.84,2.26-3.52,5.21-2.41,3.19,1.19,4.2-1.31,6-2.6,1.5-1.07.8-2.37.44-3.63C-157.1,241.3-156.64,240.58-152.94,239.94Z" transform="translate(847.09 85.84)"/><path class="cls-3" d="M-186.49,247.71c-1.87-1.53-2.14-3-.2-4.8,1.31-1.24-.53-5-2.43-5.32-2.92-.48-3.9-2-3-4.7.45-1.4,1.82-1,2.78-1.18,2.46-.54,3.88-3.83,2.37-5.78a3.38,3.38,0,0,1,1.89-5.25c1-.28,1.56.59,2.23,1.07a4.09,4.09,0,0,0,6.24-2.48c.15-.84-.24-2.12,1-2.35a7.46,7.46,0,0,1,4.29.14c.86.37.53,1.52.68,2.33s0,2,1.45,2.19,2.8,2.1,4.66.27c1.63-1.61,4.93-.4,5.42,1.8.21,1-.63,1.51-1.13,2.17a3.77,3.77,0,0,0,2.37,5.86c2.91.45,3.75,2.76,2.06,5.71-.27.52-.8.53-1.29.63-3,.62-4,2.88-2.42,5.44,1.11,1.82.92,2.9-.78,4.45s-2.35,1.5-4.37.13a3.54,3.54,0,0,0-5.42,2.22c-.27,1.59-.79,2.88-2.76,2.94-2.54.07-3.66-.64-4.19-2.68-.78-3-3.22-3.9-5.87-2.19C-184.85,249.53-185.11,249.48-186.49,247.71Z" transform="translate(847.09 85.84)"/><path class="cls-3" d="M-172.4,262c-1.66.88-1.92,2.93-.34,3.84,1.11.63,1.14,1.19.67,2.2s-.87,1.41-2.12,1a2.22,2.22,0,0,0-2.72,2.62c.25.93.44,1.5-.77,1.94s-1.76.57-2.5-.59a2.25,2.25,0,0,0-3.93.17c-.64,1-1.26.85-2.17.5s-1.36-.77-1.09-1.87c.45-1.83-1-3.14-2.88-2.68-1,.25-1.48-.05-1.78-.94s-.8-1.43.3-2.16c1.88-1.24,1.93-2.87.13-4-1.05-.65-.87-1.22-.48-2.08s.68-1.38,1.91-1c1.62.45,3.39-.91,2.9-2.24-.62-1.65.33-2.09,1.46-2.62,1-.6,1.63-.09,2.23.6a1.71,1.71,0,0,0,2.92,0,2.43,2.43,0,0,1,2.9-.78,2.15,2.15,0,0,1,1.5,2.48c-.07,1.59,1,2,2.44,1.95a2.12,2.12,0,0,1,2.26,1.62C-171.28,260.75-171.3,261.57-172.4,262Z" transform="translate(847.09 85.84)"/><path class="cls-7" d="M-128.93,263.88a13.51,13.51,0,0,1-13.7,13.32A13.59,13.59,0,0,1-156.48,264c0-7.25,6.31-13.42,13.74-13.36C-135.12,250.68-128.95,256.6-128.93,263.88Z" transform="translate(847.09 85.84)"/><path class="cls-7" d="M-173.75,225.56a9.24,9.24,0,0,1,9.55,9.16,9.32,9.32,0,0,1-9.47,9.08,9.38,9.38,0,0,1-9.58-9.2A9.34,9.34,0,0,1-173.75,225.56Z" transform="translate(847.09 85.84)"/><path class="cls-29" d="M-187.69,263.82a5.5,5.5,0,0,1,5.66-5.21,5.42,5.42,0,0,1,5.52,5.33,5.43,5.43,0,0,1-5.76,5.32A5.46,5.46,0,0,1-187.69,263.82Z" transform="translate(847.09 85.84)"/><path class="cls-3" d="M-580.53,261.32c-.19.19-.35.05-.48-.08a.46.46,0,0,1-.09-.56,8.19,8.19,0,0,1,.47-.68A4.87,4.87,0,0,1-580.53,261.32Z" transform="translate(847.09 85.84)"/><path class="cls-3" d="M-585.55,257.77c0,.13.08.2.18.22s.13,0,.17-.1.19-.29.3-.43.11-.24.26-.15,0,.21,0,.3-.17.2-.24.31a.3.3,0,0,0,.06.43c.17.13.25,0,.34-.15l.29-.44a.16.16,0,0,1,.19-.06.1.1,0,0,1,.06.14c-.17.32-.29.69-.67.82s-1.19-.47-1.24-.76a2.09,2.09,0,0,1,.51-1,.14.14,0,0,1,.11,0c.1.07.06.16,0,.23l-.3.49A.34.34,0,0,0-585.55,257.77Z" transform="translate(847.09 85.84)"/><path class="cls-3" d="M-583.14,260c0-.23-.15-.27-.27-.36s-.23-.15-.15-.27.24-.06.33,0c.34.34.48.09.61-.19a.26.26,0,0,0,0-.32.2.2,0,0,0-.31,0c-.08.08-.18.21-.28.06s.07-.21.15-.28a.45.45,0,0,1,.6-.06.49.49,0,0,1,.15.62,6.17,6.17,0,0,1-.51.85c0,.07-.1.17-.21.12S-583.17,260.12-583.14,260Z" transform="translate(847.09 85.84)"/><path class="cls-3" d="M-586.73,257.09a.35.35,0,0,0,.48-.19.34.34,0,0,0-.14-.45c-.09-.07-.23-.15-.14-.27s.24,0,.34,0a.57.57,0,0,1,.22.7.64.64,0,0,1-.6.54.52.52,0,0,1-.55-.35c0-.13-.11-.27.07-.33s.41-.19.54-.06S-586.69,256.9-586.73,257.09Z" transform="translate(847.09 85.84)"/><path class="cls-3" d="M-585,260.09c-.09-.37,0-.67.39-.75a.49.49,0,0,1,.59.41.67.67,0,0,1-.33.67c-.27.19-.49,0-.72-.1a.51.51,0,0,1-.22-.61c.06-.19.13-.39.43-.44-.16.27-.48.51-.15.82a.46.46,0,0,0,.52.1.3.3,0,0,0,.19-.35.26.26,0,0,0-.23-.27c-.16,0-.25.06-.24.23,0-.14.08-.22.21-.22a.26.26,0,0,1,.25.21.32.32,0,0,1-.14.38A.46.46,0,0,1-585,260.09Z" transform="translate(847.09 85.84)"/><path class="cls-3" d="M-582.5,260.24c0-.14.09-.18.17-.16.33.12.46-.11.61-.32a.43.43,0,0,1,.67-.11c.06,0,.12.1.09.18a.14.14,0,0,1-.18.07c-.27-.1-.4.07-.52.26a.47.47,0,0,1-.69.21A.64.64,0,0,1-582.5,260.24Z" transform="translate(847.09 85.84)"/><path class="cls-3" d="M-583.33,258.14a.91.91,0,0,1-.08.17c-.16.26-.33.51-.5.76-.05.07-.12.14-.21.09s0-.15,0-.22c.15-.24.29-.49.45-.73S-583.48,258.06-583.33,258.14Z" transform="translate(847.09 85.84)"/><path class="cls-3" d="M-626.6,116.65a27.84,27.84,0,0,0,5.31-10.38,27.33,27.33,0,0,0,.94-7.63,27.65,27.65,0,0,0-.85-6.34,27.43,27.43,0,0,0-6.53-12,27.76,27.76,0,0,0-6.92-5.41,36,36,0,0,0-3.44-1.63,1,1,0,0,1-.07-.25c-.37-1.77-.73-3.53-1.09-5.3a.35.35,0,0,1,0-.2A30.85,30.85,0,0,1-632.89,70a32.63,32.63,0,0,1,10.47,8.6,32.09,32.09,0,0,1,4.91,8.53,34,34,0,0,1,2,7.82.49.49,0,0,1-.12.3c-.22.31-.17.45.19.56a11.86,11.86,0,0,1,.18,2.06,32.05,32.05,0,0,1-.93,9.1,32.88,32.88,0,0,1-3.89,9.27,32.73,32.73,0,0,1-7.82,8.76,32.32,32.32,0,0,1-8.14,4.63,32,32,0,0,1-5.51,1.63,32.34,32.34,0,0,1-20.61-2.53,32.56,32.56,0,0,1-12.2-10,32.27,32.27,0,0,1-4.53-8.39,32.72,32.72,0,0,1-1.73-7.15,32.08,32.08,0,0,1,0-8.42,32.91,32.91,0,0,1,3.21-10.43A32.66,32.66,0,0,1-672.27,77l.19-.21c-2.06-1.64-4.11-3.27-6.19-4.94l3.55-.33a.58.58,0,0,1,0,.41,2.09,2.09,0,0,0,1.78,2.32,2,2,0,0,0,1.76-.83,1.72,1.72,0,0,0-.15-2c-.05-.06-.13-.13-.1-.19s.18-.08.29-.09l3.71-.36,3.48-.35,3.38-.32,3.54-.34,2.55-.24.29,0-15.15,18.9-.6-6.35c-.41.57-.79,1.09-1.16,1.62a29.13,29.13,0,0,0-1.57,2.64,1.63,1.63,0,0,1-.11.17c-.1,0-.12-.17-.27-.23.19.2.21.38,0,.54a.23.23,0,0,1-.31,0c-.12-.08,0-.16,0-.24s-.15.05-.14.15.09.12.17.17.21-.08.26.06a28.82,28.82,0,0,0-2.16,6.24,27.55,27.55,0,0,0-.62,7.19,27,27,0,0,0,.82,5.59,27.46,27.46,0,0,0,5.89,11.27,28.35,28.35,0,0,0,2.67,2.7s0,.08,0,.11-.18.09-.11.21a.3.3,0,0,0,.28.15c.11,0,.18-.11.29-.09l.22.18a.77.77,0,0,0,.84.68l.67.47c0,.24.23.34.28.54.09,0,.11-.15.2-.18l1,.66a1.13,1.13,0,0,0,1,.57,1,1,0,0,1,.28.17c.12.41.18.44.64.34l.33.16a.09.09,0,0,1,0,.1.19.19,0,0,0,0,.28.31.31,0,0,0,.32,0c.1,0,.15-.15.27-.13l.44.21c0,.2-.14.23-.29.29.22,0,.25-.23.44-.22l.23.08c.05.18-.12.24-.18.36a3.22,3.22,0,0,0-.2.37,1.72,1.72,0,0,0,.28-.37c.08-.11.15-.25.32-.25a.88.88,0,0,1,.3.13c0,.31,0,.33-.38.46.29,0,.37-.08.45-.42.91.31,1.81.66,2.74.93a28.07,28.07,0,0,0,8.84,1.07,27.61,27.61,0,0,0,5.93-.9,27.24,27.24,0,0,0,9.41-4.52,27.83,27.83,0,0,0,4.3-4l.12-.12c.06,0,.11,0,.15,0a.33.33,0,0,0,.48,0,.38.38,0,0,0,0-.49C-626.54,116.79-626.62,116.74-626.6,116.65Z" transform="translate(847.09 85.84)"/><path class="cls-3" d="M-647.59,103.44c-.2-.39-.4-.77-.58-1.16a.24.24,0,0,0-.22-.17,3,3,0,0,1-2.26-1.44c-.09-.15-.22-.12-.34-.13l-1.29,0c-.1-.22.12-.34.15-.51-.18.14-.14.48-.45.52l-4,0-9.71-.08a1.48,1.48,0,0,1-1.56-1.5,1.47,1.47,0,0,1,1.57-1.44l9.66.07,5.65,0a.46.46,0,0,0,.45-.23,3,3,0,0,1,3.28-1.14,3,3,0,0,1,2.15,2.6,3,3,0,0,1-.4,1.82.35.35,0,0,0,0,.37q1.68,3.48,3.35,7l4.26,8.92,1.47,3a1.49,1.49,0,0,1-.62,2,1.47,1.47,0,0,1-2-.66c-.25-.5-.5-1-.74-1.53q-1.32-2.75-2.62-5.48l-4.35-9.07c-.24-.51-.49-1-.73-1.54-.08-.1,0-.19,0-.28a.36.36,0,0,0,0-.44C-647.53,103.12-647.35,103.32-647.59,103.44Z" transform="translate(847.09 85.84)"/><path class="cls-3" d="M-671.11,71.12l-.27.07a1.77,1.77,0,0,1,.53,1.6,1.91,1.91,0,0,1-2.38,1.43,2.21,2.21,0,0,1-1.54-2.36c0-.13,0-.26,0-.39l.63-.06c.07.18,0,.35,0,.53a1.51,1.51,0,0,0,.55,1.36,1.34,1.34,0,0,0,2.06-.53,1.11,1.11,0,0,0-.34-1.28c-.1-.07-.23-.11-.24-.26A5.56,5.56,0,0,1-671.11,71.12Z" transform="translate(847.09 85.84)"/><path class="cls-3" d="M-672.1,71.23a1.56,1.56,0,0,1,.61.61,1.28,1.28,0,0,1-.83,1.76,1.51,1.51,0,0,1-1.86-1.89,2.63,2.63,0,0,1,.09-.3c.15,0,.3-.06.45,0s0,.21-.05.32a1.08,1.08,0,0,0,.27,1.13.93.93,0,0,0,1,.24.8.8,0,0,0,.52-.91.54.54,0,0,0-.63-.4c-.07,0-.15.06-.13.16s.09.11.17.09.35,0,.41.19a.44.44,0,0,1-.26.51.66.66,0,0,1-.77-.07.69.69,0,0,1-.24-.79c.08-.29.22-.53.56-.55A2.54,2.54,0,0,1-672.1,71.23Z" transform="translate(847.09 85.84)"/><path class="cls-3" d="M-672.77,71.29a.78.78,0,0,0-.33,1.25.66.66,0,0,0,.9,0,.36.36,0,0,0,.05-.42c-.08-.15-.18-.08-.29,0a.2.2,0,0,1-.3-.11c-.07-.15,0-.26.15-.32a.63.63,0,0,1,.8.55.89.89,0,0,1-.51.9,1,1,0,0,1-1.21-.28,1.19,1.19,0,0,1-.13-1.47A4.27,4.27,0,0,1-672.77,71.29Z" transform="translate(847.09 85.84)"/><path class="cls-3" d="M-626.6,116.65c.26.23.32.44.19.65s-.44.33-.76,0Z" transform="translate(847.09 85.84)"/><path class="cls-3" d="M-639.27,67.51l1.18,5.75c-.12,0-.09-.16-.11-.24-.37-1.77-.73-3.55-1.09-5.32C-639.3,67.64-639.38,67.56-639.27,67.51Z" transform="translate(847.09 85.84)"/><path class="cls-3" d="M-673,87c-.32,0-.49,0-.53-.24s0-.17.08-.19.26-.11.32,0-.13.11-.18.2.2.1.29,0a.22.22,0,0,0,0-.32l-.13-.11a.11.11,0,0,1,0-.13.11.11,0,0,1,.15,0,.47.47,0,0,1,.24.34A2.3,2.3,0,0,1-673,87Z" transform="translate(847.09 85.84)"/><path class="cls-3" d="M-664.9,121.18a.15.15,0,0,1-.15.12c-.29,0-.43-.28-.67-.39s-.06-.27,0-.41A6.09,6.09,0,0,1-664.9,121.18Z" transform="translate(847.09 85.84)"/><path class="cls-3" d="M-659.92,124.2a.47.47,0,0,1-.53.22.35.35,0,0,1-.23-.26c-.06-.16.15-.14.18-.25Z" transform="translate(847.09 85.84)"/><path class="cls-3" d="M-666,120.32a.38.38,0,0,1-.52.12.32.32,0,0,1-.17-.3c0-.16.23-.06.26-.2Z" transform="translate(847.09 85.84)"/><path class="cls-3" d="M-661.75,123.24c-.21.13-.41.15-.55-.1a.19.19,0,0,0-.12-.07.35.35,0,0,1-.31-.4Z" transform="translate(847.09 85.84)"/><path class="cls-3" d="M-658.88,124.67a2.4,2.4,0,0,0-.5.65c0,.06-.09.18-.19.11s0-.15,0-.22.3-.43.44-.65Z" transform="translate(847.09 85.84)"/><path class="cls-3" d="M-660.83,123.75a.38.38,0,0,1-.52.07.29.29,0,0,1-.12-.41A2.82,2.82,0,0,1-660.83,123.75Z" transform="translate(847.09 85.84)"/><path class="cls-3" d="M-663.75,122l-.11.22s-.06.11-.12.1-.07-.08,0-.13-.08-.17-.17-.23-.16-.2,0-.32A2.15,2.15,0,0,1-663.75,122Z" transform="translate(847.09 85.84)"/><path class="cls-3" d="M-658.51,124.84c.12.18,0,.31-.12.41a.34.34,0,0,1-.39.09c-.06,0-.11,0-.1-.12s0-.08.1-.07c.29.07.37-.13.44-.35C-658.55,124.8-658.52,124.8-658.51,124.84Z" transform="translate(847.09 85.84)"/><path class="cls-3" d="M-647.59,103.44a.43.43,0,0,0,0-.46s-.07-.1,0-.15.12,0,.17,0a.4.4,0,0,1,0,.54c-.05.08-.11.15-.08.25A.26.26,0,0,1-647.59,103.44Z" transform="translate(847.09 85.84)"/><path class="cls-3" d="M-652.58,100.53c.22-.11.21-.37.35-.53s.09-.21.2-.13,0,.15,0,.22a1.08,1.08,0,0,0-.21.43C-652.38,100.52-652.48,100.58-652.58,100.53Z" transform="translate(847.09 85.84)"/><path class="cls-3" d="M-659.33,124.48c-.13.11-.18.29-.38.32s-.21,0-.22-.11.1-.08.17-.08.2-.12.28-.2Z" transform="translate(847.09 85.84)"/><path class="cls-3" d="M-665.41,122.17a.41.41,0,0,1,.25-.5.5.5,0,0,1,.58.3.47.47,0,0,1-.33.51A.44.44,0,0,1-665.41,122.17Z" transform="translate(847.09 85.84)"/><path class="cls-3" d="M-625.43,118.27c.15,0,.27,0,.3-.21a.18.18,0,0,0-.13-.24c-.16-.06-.24.05-.32.17s-.21.33-.33.49-.07.1-.13.07,0-.09,0-.14a2.88,2.88,0,0,1,.43-.66.39.39,0,0,1,.52-.06.34.34,0,0,1,.14.44.46.46,0,0,1-.44.34c-.09,0-.21,0-.2-.14S-625.48,118.29-625.43,118.27Z" transform="translate(847.09 85.84)"/><path class="cls-3" d="M-626.17,117.73c.13,0,.15-.2.25-.32s.07-.19.18-.13,0,.16,0,.22-.2.38-.44.41c-.09,0-.18,0-.19-.1S-626.32,117.72-626.17,117.73Z" transform="translate(847.09 85.84)"/><path class="cls-3" d="M-645.54,104.25a.34.34,0,0,1,.4.2c.13.19,0,.36-.11.51a.34.34,0,0,1-.4.13c-.06,0-.13-.07-.11-.15s.09-.07.15-.06a.65.65,0,0,0,.14,0,.23.23,0,0,0,.19-.23.22.22,0,0,0-.15-.22.21.21,0,0,0-.25.09c-.11.18-.22.35-.34.52s-.08.18-.19.1,0-.13,0-.19a4.87,4.87,0,0,1,.32-.47A.42.42,0,0,1-645.54,104.25Z" transform="translate(847.09 85.84)"/><path class="cls-3" d="M-646.37,104.35c.17,0,.19-.22.3-.34s.07-.17.17-.11,0,.14,0,.2-.17.41-.44.43c-.1,0-.19,0-.2-.1S-646.49,104.33-646.37,104.35Z" transform="translate(847.09 85.84)"/><path class="cls-4" d="M-742.27,392.79a4.63,4.63,0,0,1-7.26-3.93,4.64,4.64,0,0,1-2.71.09,4.49,4.49,0,0,1-3.32-4.81c0-.35,0-.47-.41-.47a4.36,4.36,0,0,1-4-2.23,4.31,4.31,0,0,1,0-4.57c.21-.35.16-.49-.15-.7a14.08,14.08,0,0,1-1.48-1.09c-.35-.29-.49-.19-.7.16-.58,1-1.21,2-1.8,3-.16.26-.27.28-.53.12q-6.17-3.76-12.35-7.5c-.4-.24-.24-.4-.08-.65l16.67-27.49c.6-1,.6-1,1.6-.38q5.73,3.48,11.47,7c.44.26.55.43.24.9-.71,1.06-1.33,2.16-2,3.31.93,0,1.77,0,2.6,0q3.16,0,6.32-.3c1.11-.09,2.16-.5,3.27-.66a20,20,0,0,1,7.24.2,1.14,1.14,0,0,0,.77-.08,7.25,7.25,0,0,1,5.72-.25c2.4.85,4.8,1.7,7.2,2.57a1,1,0,0,0,.72,0c1.55-.57,3.1-1.14,4.66-1.69.34-.12.35-.23.16-.52-.49-.73-.93-1.49-1.41-2.23-.17-.25-.21-.39.1-.58q6.13-3.81,12.25-7.65c.35-.22.44-.07.6.18L-684.22,366c.55.88,1.1,1.77,1.67,2.64.16.25.11.35-.12.49L-695,376.89c-.27.16-.36.07-.49-.15-.66-1.07-1.33-2.13-2-3.2l-.39-.61-5.63,5.16a.51.51,0,0,0-.13.44,4.33,4.33,0,0,1-4.31,4.56c-.19,0-.37-.07-.31.3a4.53,4.53,0,0,1-5.52,5.26h-.14a4.64,4.64,0,0,1-6.88,4.48c0,.32-.07.63-.14.94a4.19,4.19,0,0,1-6.51,2.52c-1.29-.89-2.55-1.81-3.81-2.74a.5.5,0,0,0-.77,0c-.81.71-1.67,1.37-2.49,2.07a4.48,4.48,0,0,1-4.86.95A4.5,4.5,0,0,1-742.27,392.79Z" transform="translate(847.09 85.84)"/><path class="cls-5" d="M-748.18,376.24a4.43,4.43,0,0,0-2.51-3.89,4.33,4.33,0,0,0-4.9.53c-.9.69-1.76,1.43-2.62,2.17a.39.39,0,0,1-.59,0c-.62-.49-1.25-1-1.91-1.4-.37-.24-.39-.42-.16-.8q4.5-7.35,9-14.74c.53-.86,1.06-1.71,1.56-2.58a.64.64,0,0,1,.64-.36,82.92,82.92,0,0,0,10.09-.34c.92-.09,1.81-.41,2.73-.58a17.56,17.56,0,0,1,5.52-.09,28.26,28.26,0,0,1-3.18,1.77,33.22,33.22,0,0,1-3.31,1.41,2.87,2.87,0,0,0-2,2.82,2.87,2.87,0,0,0,2.26,2.69,18.21,18.21,0,0,0,12.48-1,.59.59,0,0,1,.71.08q9,7.32,18,14.61a2.61,2.61,0,0,1,1,2.72,2.52,2.52,0,0,1-1.84,2,2.65,2.65,0,0,1-2.4-.42L-723,371.3l-.17-.13c-.61-.43-1.09-.41-1.42.05s-.16.91.4,1.31l2.81,2,10.12,7.27a2.83,2.83,0,0,1,.74,4,2.83,2.83,0,0,1-4.06.57l-12.18-8.75a1.08,1.08,0,0,0-.79-.3.81.81,0,0,0-.72.64.87.87,0,0,0,.42,1l4.47,3.21,6.43,4.63a2.83,2.83,0,0,1,.78,4.06,2.82,2.82,0,0,1-4.07.54q-4.87-3.48-9.73-7l-.4-.28c-.58-.41-1-.4-1.37,0s-.2.9.37,1.32l2.58,1.86c1.71,1.22,3.42,2.44,5.12,3.68a2.46,2.46,0,0,1,.85,2.94,2.52,2.52,0,0,1-2.56,1.59,2.45,2.45,0,0,1-1.29-.5c-1.23-.88-2.45-1.76-3.69-2.63-.2-.15-.27-.25-.15-.51a4.52,4.52,0,0,0-4.92-6.33c-.49.09-.28-.25-.28-.42a4.54,4.54,0,0,0-3.6-4.46,4,4,0,0,0-.91-.09c-.3,0-.41,0-.36-.38a4.33,4.33,0,0,0-2.25-4.64,4.4,4.4,0,0,0-5.23.54A.62.62,0,0,1-748.18,376.24Z" transform="translate(847.09 85.84)"/><path class="cls-5" d="M-764.94,376.18l-.28-.15c-3.15-1.91-6.29-3.83-9.45-5.73-.27-.17-.32-.27-.14-.57q7.71-12.64,15.38-25.3c.19-.33.33-.3.6-.13q4.62,2.82,9.27,5.62c.39.24.44.39.19.79q-7.21,11.84-14.4,23.69c-.31.51-.61,1-.93,1.52C-764.76,376-764.79,376.15-764.94,376.18Z" transform="translate(847.09 85.84)"/><path class="cls-5" d="M-725.66,353.66a10,10,0,0,1,3.49.93c2.08.72,4.16,1.47,6.23,2.23a1.07,1.07,0,0,0,.77,0l5.46-2c.29-.11.44-.1.63.21q5,8.06,10.05,16.1c.19.29.18.44-.09.69-1.62,1.46-3.22,2.93-4.82,4.42-.24.22-.36.27-.55-.05a3.89,3.89,0,0,0-.93-1q-9.39-7.6-18.77-15.24a.58.58,0,0,0-.75-.06,16.51,16.51,0,0,1-12.13,1.39c-.75-.19-1.08-.55-1.1-1.14s.28-.94,1-1.2a36.72,36.72,0,0,0,8.21-4.24A5.63,5.63,0,0,1-725.66,353.66Z" transform="translate(847.09 85.84)"/><path class="cls-5" d="M-699.75,344.51c.19,0,.22.22.29.35q2.73,4.33,5.44,8.68c3,4.8,6,9.61,9,14.4.23.37.26.54-.17.81-3.08,1.89-6.13,3.81-9.19,5.74-.32.2-.45.16-.65-.16q-7.23-11.59-14.47-23.19c-.15-.23-.29-.38.08-.61,3.13-1.93,6.25-3.89,9.38-5.84Z" transform="translate(847.09 85.84)"/><path class="cls-5" d="M-751,387.4a2.82,2.82,0,0,1-2.67-1.82,2.78,2.78,0,0,1,.86-3.21c1.48-1.25,3-2.48,4.48-3.71.52-.43,1-.86,1.54-1.27a2.85,2.85,0,0,1,4,.38,2.79,2.79,0,0,1-.37,4c-2,1.7-4.06,3.37-6.11,5A2.67,2.67,0,0,1-751,387.4Z" transform="translate(847.09 85.84)"/><path class="cls-5" d="M-737.39,385.11a2.88,2.88,0,0,1-1,2.25c-1.57,1.3-3.13,2.6-4.71,3.88a2.81,2.81,0,0,1-4-.36,2.84,2.84,0,0,1,.43-4c1.56-1.3,3.13-2.6,4.71-3.88a2.66,2.66,0,0,1,3-.35A2.74,2.74,0,0,1-737.39,385.11Z" transform="translate(847.09 85.84)"/><path class="cls-5" d="M-749.9,376.27a2.84,2.84,0,0,1-1,2.31c-1.09.91-2.18,1.82-3.28,2.71a2.83,2.83,0,0,1-3.93-.34,2.81,2.81,0,0,1,.26-4c1.13-1,2.28-1.94,3.46-2.85a2.62,2.62,0,0,1,3-.25A2.7,2.7,0,0,1-749.9,376.27Z" transform="translate(847.09 85.84)"/><path class="cls-5" d="M-737.71,395.49a2.85,2.85,0,0,1-2.64-1.81,2.72,2.72,0,0,1,.68-3.06c1.12-1,2.27-1.95,3.45-2.85a2.78,2.78,0,0,1,3.78.5,2.78,2.78,0,0,1-.21,3.85c-1.1,1-2.26,1.9-3.4,2.82A2.56,2.56,0,0,1-737.71,395.49Z" transform="translate(847.09 85.84)"/></svg>