<svg id="Layer_1" data-name="Layer 1" xmlns="http://www.w3.org/2000/svg" viewBox="0 0 927.43 712.08"><defs><style>.cls-1{fill:#cfc3f4;}.cls-2{fill:#ae8dff;}.cls-3{fill:#7f61db;}.cls-4{fill:#060632;}.cls-5{fill:#b6a3ef;}.cls-6{fill:#0d0954;}.cls-7{fill:#f5a58f;}.cls-8{fill:#f4a591;}.cls-9{fill:#0f0a55;}.cls-10{fill:#f5776f;}.cls-11{fill:#f6766f;}.cls-12{fill:#eba293;}.cls-13{fill:#efa99b;}.cls-14{fill:#0f103a;}.cls-15{fill:#736ceb;}.cls-16{fill:#050532;}.cls-17{fill:#070832;}.cls-18{fill:#0f0a33;}.cls-19{fill:#120e36;}.cls-20{fill:#f5ac9f;}.cls-21{fill:#eb9c8e;}.cls-22{fill:#eca498;}.cls-23{fill:#0c0753;}.cls-24{fill:#dce6fc;}.cls-25{fill:#0b0a36;}.cls-26{fill:#100d57;}.cls-27{fill:#0f0b56;}.cls-28{fill:#100f39;}.cls-29{fill:#181842;}.cls-30{fill:#161541;}.cls-31{fill:#1e2872;}.cls-32{fill:#dde2f5;}.cls-33{fill:#eea391;}.cls-34{fill:#e6a496;}.cls-35{fill:#202967;}.cls-36{fill:#d7a1a2;}.cls-37{fill:#f5a491;}.cls-38{fill:#0c0a33;}.cls-39{fill:#131448;}.cls-40{fill:#eaa091;}.cls-41{fill:#f7a18e;}.cls-42{fill:#f2a28f;}.cls-43{fill:#dde1f4;}.cls-44{fill:#394890;}.cls-45{fill:#faede3;}.cls-46{fill:#f2a08f;}.cls-47{fill:#fff;}</style></defs><path class="cls-1" d="M44.51,669.25c-.13-4.74-3.39-7.2-6-9.74C26.7,648.29,20.06,634,14.69,617.69,7.39,595.58,3.6,573.08,4.9,550c2.28-40.49,13.63-77.15,37.36-108.87,11.51-15.39,24.6-28.79,36.54-43.56,2.7-3.34,5.11-6.71,5.51-11.41.94-3.51,3.77-3.95,6.27-4.87a29.18,29.18,0,0,0,8-4.36c9.7-7.65,9.76-12.65.23-19.56,8.51-3.14,10.1-12.25,12-20,5.42-21.58,7.41-43.72,8.23-66.24,1.16-32-.94-64.33,6.72-95.9,5.76-23.78,16.45-44,33.32-58.85,12.82-11.29,28.54-16.67,44.81-19.65,30.51-5.59,61.25-3,91.89-4.28,20.61-.87,41.75-2,60.61-12.53,12.52-7,23.15-18.18,35.28-26.24C417,36.85,442.44,20.22,471.86,13.73s56.71-1.61,83.08,15.38c24.12,15.55,44.27,36.94,67.1,54.32,21.07,16,42.28,31.44,67.43,38.07-1,12.78.35,25.8-3.08,38.34-4.27,2.28-8.88,1.69-13.36,1.83-5.13.15-7.83,2.7-7.9,8.68,0,3.42-.12,6.83-.12,10.25q0,78.42,0,156.85c0,5.12.23,10.25-.52,15.33-.43,2.36-1.18,4.74-3,6a192.16,192.16,0,0,1-34.21,19.35c-2.55,1.11-5.37,1.18-6.72-2.63-2.21-10.82-1-21.79-1.07-32.68-.15-21.52-.28-43,.16-64.56-.12-8-.54-16.11.61-24.11.17-.64.23-1.52.65-1.85,14.34-11.5,12.67-27.67,10.06-44.1.37-7.14-3.37-13.44-3.31-20.52,1.9-13.23,1.91-13.24-9-20.56-1.83-1.23-4.19-2.44-4.64-4.63-3.08-15.14-16.65-18.69-24.57-28.5-7.57-9.38-22.28-2.32-24.23,10.53a31.34,31.34,0,0,0,1.3,14.07c1.73,5.58,2.51,11.35.83,17-2,6.92-.09,13.45.94,20.11.29,5.48-1.43,10.69-1.59,16.11a84.3,84.3,0,0,1-3,16.07c-3.5,5.79-8.94,4.8-14,4.93-21.38.54-21.57.94-11.54,22.23,2.63,5.58,7.06,10.54,5.64,17.84-7.05,19-3.62,38.8-3.1,58.31.15,5.72,1,11.46.94,17.24-.46,5.74.08,11.53-.52,17.26-.45,3.24-2,5.94-3.5,8.6-7.18,6.35.13,8.25,2.82,11.59a19.5,19.5,0,0,1,1.22,7c.06,43.12.68,86.24-.29,129.34-1.61,10-8.77,15.12-14.75,21.22-2.22,2.27-5.24,2.58-7.51.28-9.62-9.75-19.2-19.61-24.18-33.69-1.15-24.95-.43-49.91-.49-74.85-.13-53,0-106,0-158.93,0-15.7-.42-16.13-14.15-16.16-17.5-.05-35-.13-52.5,0-10,.09-10.8,1-10.83,12.41-.12,40.67,0,81.35-.06,122,0,4.09.12,8.21-.68,12.23-.83,3.58-2.57,5.34-5.91,3.55-4.76-2.54-8.21.31-11.28,3.76a227,227,0,0,1-17.11,16.76c-2.95,2.67-6.33,6.54-9.52,0-2.43-17.11-2.43-17.22-18.38-17.09-19.78.15-39.56-.58-59.3.44-4.67,11.14-18,12.39-21.79,24.61-.43,1.4-1.86,3.41-3.42,2.25-2-1.45-1.69-3.93-.07-7.62-2.43,4,.68,9.05-3,10-3.18.84-5.08-3-7-5.54a50.69,50.69,0,0,0-4.87-6c-2.83-2.81-6-4.86-9.81-3.09-3.28,1.5-4,4.84-3.71,8.46.4,5.12,3.29,7.78,7.43,9,4.29,1.22,9.12.41,12.66,4.4,3.23,4.27,4.34,9.41,4.86,14.8-.31,4.59,1.55,11.18-3.06,12.84-5.73,2.06-6.29-5.72-8.86-9.43-1.67-2.41-3-5.13-5-7.28-3-3.3-6.47-5.1-10.67-3.08-3.56,1.71-6.18,4.49-6.32,9.14-.17,5.37,2.2,9.31,6.52,11.2,11.38,5,23.07,7.8,35.36,5.26,2.37-.49,4.7-1.25,7.06-1.78,3.35-.75,7.58-3.42,9.2,2.37s-2.36,7.76-6.46,8.74c-8,1.91-11,10.14-16,15.85-2.83,3.23-2.76,3.28-8.55,2.64-.63-.07,0,.59-.06.9-.81,8.82-4.34,4-6.77,1.49-2.89-3-4.43-7.28-6.57-11-8-13.91-14-15.66-26.68-7.92a8,8,0,0,1-3.47,1.07,68,68,0,0,1-18.73-7.8,9.55,9.55,0,0,1-1.74-2.23c-.48-1.23-1.27-2.86-.37-3.8,9.54-9.93,7.76-22.49,6.51-34.94,4.48-8.25-2.82-10.56-6.27-12.31a21.06,21.06,0,0,0-16.27-1.3c-8.31,2.91-10.58,8.19-8.38,17.94.81,3.59,2.72,6.77,3.11,10.54,0,3.54,1.56,6.11,3.72,8.57,3.39,3.88,4.39,8.45,1.9,13.53a6.31,6.31,0,0,1-2.45,1.7,11.8,11.8,0,0,1-8.53-.44c-3.5-2-4.52-6.17-6.27-9.68-5.67-11.4-14.31-11.85-21-1-2.94,4.79-4.5,10.36-6.1,15.85-4.41,15.19-6.79,16.17-18,7.18a41.79,41.79,0,0,0-11-6.78c-11.52-4.44-18.62.42-18.74,14.09-.07,7.71-2.56,10.58-8.92,10.24-6.92-.76-13.79-2.22-20.77-2.29a10.57,10.57,0,0,1-2.36-.68c-.53-.21-1.18-1-1.37-.87-1.36.73.5,1.11.26,1.85a350.08,350.08,0,0,0,42.11,89.06c1.22,6-3,7.55-6.33,9.33-7.51,4-14.82,8.48-22.18,12.85-1.69,1-5.44,1.88-1.66,5.37,7.39,6.87,16.65,10.57,23.62,18.12C91.48,654,88,656,84.85,656.51c-13,2-25.07,6.85-36.85,13A3.67,3.67,0,0,1,44.51,669.25Z" transform="translate(-4.65 -10.97)"/><path class="cls-1" d="M778,129.66a171.39,171.39,0,0,1,56.05,12.23c15.83,6.26,30.36,15,40.53,30.59a101,101,0,0,1,15.94,44.79c4.45,40.31-6,78.76-10.21,118-3.17,29.88-8.46,59.82,3.27,89.27,4.46,11.2,12.36,19.08,18.31,28.78,21.33,34.74,31.84,73,29.94,115.13-1.14,25.22-6.29,49.59-17.84,71.66-4.91,9.37-14.28,14.62-18.17,25-6.33,2.32-11.48-2.28-17-4.09-9-3-18.9-2.58-27.2-8.52-2.15-3.91-1.75-8.14-1.22-12.38,1.85-16.67,1.5-33.42.54-50.07-2.15-37.39-3.63-74.91-11.69-111.52.36-8.51,4.66-15.78,6-24a27.87,27.87,0,0,1,2.49-5.79c8.42-11.59,7.15-24.27,3.18-37.19-.86-2.82-2.84-5.18-2.89-8.39,9.85-17.36,4.06-39.36-5.27-53-5.11-7.45-12-11.81-20.52-9.62-17.71,4.53-30.11,15.87-25.86,37.23a14.6,14.6,0,0,0,5.35,9.05c2.76,2.21,5.15,4.84,4.81,9.2-.65,3.49-3.29,4.6-5.68,5.84-6.35,3.31-8,10.39-10.74,16.67-1.29,2.29-3.61,3.77-4.08,6.72s-.17,5.79-.46,8.67c-1.47,9.94-6.13,18.39-10,27.23-4.25,9.82-8.17,19.72-8.36,30.92-.89,4.75-4.23,8.13-5.59,12.61-.73,2.44-.48,4.77,1.71,6.18,1.93,1.25,3.24-.23,4.74-1.45,4.5-3.68,3.71-9.66,5.21-14.64,8.73-9.59,12.38-23,19.63-33.69a4.1,4.1,0,0,1,4.17,1c3,4,3.37,8.6,2.57,13.51-9.78,27.88-7.3,56.82-5.4,85.61q2.21,33.57,6.15,67A32,32,0,0,1,800,639.3c-1.48,5.24-5.36,6.39-9.34,6-13.74-1.22-27.42-3.07-41.11-4.86a5.47,5.47,0,0,1-3-2.11c-2.83-5.33-2.09-11.27-2.09-17,0-73.82-.22-147.63.1-221.41-1.58-6.14.82-11.36,3.24-16.49,11.81-25,21.13-51.31,33-76.24a37.61,37.61,0,0,0,3.83-11.85c-11,3-19.47,10.74-29.46,14.39-3.64,1.33-7.62,3.89-9.8-2.51-1.88-18.33-.77-36.7-.8-55,0-18-1-36,.64-54,1-4.84,4.72-6.65,8-9,16.3-12,25.51-28.1,23-51C775.73,135.12,775.87,132.05,778,129.66Z" transform="translate(-4.65 -10.97)"/><path class="cls-1" d="M852.81,652.56a134.5,134.5,0,0,1,43,12.53c3.61,2.3,8.74,3.78,8.53,9.39s-5,8.34-9.13,10.29c-17.62,8.23-36.3,11.9-55,15.07-36.51,6.19-73.24,10-110.09,12.83-32.4,2.5-64.8,4.29-97.21,6.33-24.73,1.55-49.44,0-74.08,1.79-51.84,3.65-103.72,2-155.55,1.19-26.18-.38-52.42-.51-78.59-1.73-32.73-1.52-65.48-3.08-98.11-6.15C172,709,117,705.43,63.53,689.86a62.55,62.55,0,0,1-15.77-7.23c-5.41-3.37-6.52-7.56-3.25-13.38C56.54,661.7,69,655.69,83,654.63c2.26-.17,6.81.2,4.85-5.59,1.47-1.84,3.3-1.65,4.9-.61,19.56,12.77,40.92,18.66,63.12,21.37,4.47,3.53.54,7.71.76,11.26,1-3.41,1.46-7.35,3.22-10.83,9.47-6.36,19.5-11.64,28.1-19.62,2.63-2.43,6.12-2.48,9.44-2.61,4.28.19,8.81-.56,12.07,3.77.94,10.66-3.93,20-4.92,30.16,1.6-9.15,4.15-18.17,5.87-27.45,6.38-9.47,14.54-6.94,22.71-4.39,3.12,5.25,2.41,11.65,4.09,17.33.33,2.55,1.2,5,1.38,7.56,1.14,11.19,1.84,11.55,18.84,9.27-3-4.9-9.65-4.66-11.35-10.84a9,9,0,0,1,.37-4.5c5.29-7.55,3.52-18.26,9-25.74,5.91-3.14,11.05-9,18.52-6.62,5.68,7.71,1.66,17.24,3.79,25.61,1.67,4.1,5,7.43,4.56,12.53-.91,7.9,2.06,11.37,9.1,10.4,3.18-.44,6.5.75,10.26-1.21-3.39-5-9.83-5.44-12.18-11.17a12.62,12.62,0,0,1,.46-9.47c1.19-1.8,2.88-3,4.12-4.77,4.67-16.92,4.67-17,21.3-16.9,6.8,0,13.66-.8,20.39.93,3,1,4.06,3.93,4.46,7,.57,4.31,3.28,6.19,6.24,8a6.28,6.28,0,0,1,1.81,2.42c1,2.51,1,5.21,1.3,7.87.89,5.86,4.6,8.48,9.12,10.06,21.43,7.53,43.23,6.18,65,3,5.45-.8,10.18-4,13.2-9.67,3.25-5.18.82-9.09-2.42-12.53-5-5.32-4.63-9.88,1-14.08a15.13,15.13,0,0,1,7.12-2.69c11.37-.69,22.76-.27,34.13-.32,19.21-.1,17.68,1.06,17.82-19.65,0-5.05-.49-10.2,1.4-15.05,1.3-2.34,3-2.63,4.94-1.11a7.54,7.54,0,0,1,.78,3.78c0,14.19,0,14.19,13.25,15.08,7.62,3.53,11.33-3.22,16.21-7.51,2.55-2.24,4.71-9.7,9.57-2.7,1.43,6,.93,12.14.85,18.2-.08,6.54,2.52,9,8.12,9.09,8,.18,16.15-1.18,24.1,1.17,6.71,10.57,15,18.74,26.33,22.43,2.14.7,3.48,2.54,3,5.39-1.68,3.33-5.12,3-7.6,4.67-1.79,1.22-3.91,2.54-3.37,5.26.68,3.42,3.43,3.28,5.79,3,6.24-.76,11.5-5.36,17.81-6,5.49.83,10.66-.41,15.68-3A16.78,16.78,0,0,1,642,673.19c6,1.39,11.88,3.36,18.09,2.38,4.62-.24,8.53,3.24,13.1,3.22,2.33,0,5.39.78,6.31-2.35,1-3.31-2-4.42-4.05-5.68-2.51-1.53-6.08-1.41-6.85-5.68,5.82-10.81,15.34-16.54,24.42-22.92,12.83-1.31,25.68-.46,38.52-.56,5.45,0,10.71-.56,15.72-3.13,13.06-.51,25.89,1.69,38.79,3.61,4,.59,9.73,3.87,12.09-3.87,3.19-.26,4.73,2.26,6.31,4.74,1.53,8.83-4.3,12.65-9.11,17.16-2,1.91-4.84,2.58-6.86,6.24,6.21-1.42,11.87-1.51,17.3-3.73,4.75-1.94,6.9-5.18,5-10.92-.47-3.1-.61-6.15,1-9a3.83,3.83,0,0,1,3.74-1.3c5.27,2.23,11,2.07,16.36,3.57,3.12.86,6.31,1.78,8.18,5.23.63,4.92-3,6.75-5.34,9.56-1.94,1.9-5,2.12-6.56,6.82,8.65-3.19,18.54-.29,22.83-12.23A3.76,3.76,0,0,1,852.81,652.56Z" transform="translate(-4.65 -10.97)"/><path class="cls-2" d="M778,129.66c1.8,16.81,1.33,33-8.6,47.17-6.12,8.76-13.9,14.62-22.74,19C731,206,705.54,198.18,693.3,179c-3.93-6.16-9-12.26-6.79-21.14-2-12.42-1.44-24.57,3-36.32,16.17-27.66,37.71-36.34,62.24-24.93C765.12,102.81,772.06,115.77,778,129.66Z" transform="translate(-4.65 -10.97)"/><path class="cls-2" d="M98.79,357.34c4-.24,8.1,0,10,4.77,2.08,5.33-1.6,8.69-4.16,12.32-5.22,7.38-13.09,8.77-20.29,11.69-4.12-.11-8.73.61-10.55-5.05a8.7,8.7,0,0,1,1.65-8.43c3.3-3.92,7.09-3.71,10.45-.86,7.57,6.39,9,1.29,9.22-6C95.2,362.21,95.58,359.05,98.79,357.34Z" transform="translate(-4.65 -10.97)"/><path class="cls-2" d="M88,351.5c-.68,2.28,1.57,6.31-2.51,7-3.75.63-12.11-9.7-12.07-14.46,0-5,2.23-7.43,6.66-7.23C85.34,337.06,88,341.87,88,351.5Z" transform="translate(-4.65 -10.97)"/><path class="cls-2" d="M538.8,612.23c-4.08,4.3-8.54,8.22-12.14,13-3.84,5.08-7.29,5.79-11.5,1.07-6.21-4.81-12.39-9.67-14.81-18.4-.19-1.67-1.26-2.14-2.51-2.35-14.88-13.42-25.89-31-39.17-46.22-15.64-17.86-29.86-37.26-45.6-55-9.27-14.13-9.32-14.21-21.55-3.18-5.59,5-11.5,9.7-16.43,15.65-24.16,23.52-48.27,47.1-72.81,70.13-3,2.82-5.87,5.88-9.78,7.12-7-4.88-12.29-12.21-18.88-17.72-.74-5.76,1-10.23,5.39-13.28,14-6.46,16.08-12.51,9.71-27.8-3.2-4.74-9-1.44-12.51-5.17-.84-2.3.2-3.87,1.61-5.29a6.36,6.36,0,0,1,3.38-1.33c11.79.06,17.46-7.49,19.33-19.82,22.73-23.76,47-45.54,70.33-68.48a4.63,4.63,0,0,1,3.34-1.31c9.09-6.12,16.47-14.61,24.18-22.62,5.23-5.43,10.09-8.59,15.48-.52,9.28,4.12,13,14.68,19.56,21.89C453.06,454,470,478.33,489.56,499.91c3.54,3.91,5.6,8.66,7.89,13.37,7.14,9.09,14.32,18.14,21.38,27.29,2.44,3.16,4.54,3.92,7.32.4,4.16-5.3,8.59-10.33,12.9-15.48,6.83-12.68,17.13-21.76,26.29-31.93,18.63-20.68,37.21-41.41,56-61.87,11.33-13.49,24-25.45,35.17-39.8-12-4.62-24-2.17-35.44-4.51a14,14,0,0,1-3.56-.73c-1.69-.64-3.88-1-4.17-3.31-.37-3,2.22-3.66,3.94-4.78,1.54-1,3.24-1.87,5.13-.92,13.91-6.47,27.57-13.56,40.49-22.36C672.24,347,683.4,342.48,694,337c16.1-8.41,32-17.39,48.08-25.78,1.62-.84,3.23-1.94,5.11-.9,14.32-4.77,26.73-14.7,42-20.67-1.78,8.62-5,15-7.79,21.59q-16.89,39.65-33.8,79.27a43.34,43.34,0,0,0-1.56,5.8,10.37,10.37,0,0,1-.7,5c-9.33,23.23-18.61,46.49-29.19,69-1.12,2.38-2.55,5.19-5.38,4.55-3.36-.77-3.43-4.41-3.57-7.4-.42-8.24-2.88-16-4.28-24-1.14-6.6-3.16-7.2-7.33-2.36-10.5,12.18-21.23,24.12-31.83,36.19-7.75,8.89-16.62,16.38-24.41,25.23-1.68,1.91-3.55,3.66-6.17,3.62-4.87-3.4-7.79-9.87-14.89-9.85-10.51,0-17.67,10.84-13.55,21.63,9.05,2.31,9,2.3,5.21,12.08-.72,1.82-.34,4-1,5.83-20.09,25-41.32,48.69-63.19,71.65C543.72,609.52,541.65,611.7,538.8,612.23Z" transform="translate(-4.65 -10.97)"/><path class="cls-3" d="M497.45,513.28c-28.29-33.75-56.61-67.48-83.59-102.61.09-47.48.39-95,.09-142.45-.05-8.76,1.58-11.83,9.84-11.58,22,.69,44,.41,66,.13,5.65-.07,8,1.46,7.94,8.49Q497.41,389.27,497.45,513.28Z" transform="translate(-4.65 -10.97)"/><path class="cls-3" d="M747.16,310.29c-22.75,14.42-46.81,25.79-70.24,38.62-4.49,2.46-8.51,6.65-14,6.37q-.21-63-.42-126.06c0-20.16.39-40.33-.19-60.47-.25-8.87,2.47-11.42,9.8-10.58,4.75.54,9.61-.19,14.42-.35,6.52,25.8,26.84,46.13,60.17,38Q746.93,253.08,747.16,310.29Z" transform="translate(-4.65 -10.97)"/><path class="cls-3" d="M622.47,432.85q-40.71,47.47-83.42,92.64-.12-65.48-.29-130.94c0-3.62,1-7.54-1.33-10.84,1.19-6,6.68-5.8,10-8.73s6.42-5.17,4.1-10.57c-1.22-4.2-2.19-8.41-.83-12.81,3.72-14.76,1.18-29.85,1.87-44.76.27-5.77-.27-11.64,1.93-17.1,1.13-2.79,2.54-6.56,5.43-5.94,3.07.66,2.75,4.76,2.72,7.79-.17,18.41,1.45,36.71,2.65,55a39.47,39.47,0,0,0,1.78,8.94c2,7.76-1,14-4.76,20-1.39,2.16-3.58,3.64-4.39,6.34,11-.78,17.44-6.37,17.41-15A44.07,44.07,0,0,1,574,356c1-15.27.42-30.56.4-45.83,0-9.4,3.31-15.24,11.27-18.38,12.09-4.76,24.3-9.07,36.34-14q.21,49.89.41,99.79l-8.27,5.69,8.14,2.44C627.16,401.44,626.49,417.13,622.47,432.85Z" transform="translate(-4.65 -10.97)"/><path class="cls-2" d="M176.21,484.58l2-.33c6.5-4.17,12.48-3.28,18,2.35l.77.52a10.79,10.79,0,0,0,7.92,7.52c9.72,2.41,15.6,9.56,19.09,19.72,2.72,7.92,6.09,15.56,8,23.85-2.19,9.76-3.94,19.78-12,26.12-4.87,1.47-9.53-1.21-14.34-1-2.51.14-6.35-1.1-6.6,3-.18,3,3.4,3.21,5.76,3.61s4.87.31,6.95,1.95c1.45,1.13,1.93,2.52.37,4.1-6.82,3.28-14,.82-21,1.94-7.31,1.65-14.08,5.87-21.75,5.83-17.93-.11-24.91-6.48-28.52-26.32a96.23,96.23,0,0,1-.52-30.43c2.18-15.59,8.36-28.35,22.8-33.58C168.14,491.65,172.3,488.34,176.21,484.58Z" transform="translate(-4.65 -10.97)"/><path class="cls-3" d="M176.21,484.58c-.22,5.89-3.14,8.23-8,9.94-17.74,6.2-24.59,16.54-25.62,37.77-.36,7.44-.8,15,.09,22.36,2.4,19.7,8.24,25.32,26.5,27.14,5.77,4.87,8.51,13.1,15.45,16.88,8.72,4.76,18.1,5.39,27.29,5.78,19.88.85,19.16-1.72,21.38,24.87.59,7,4.1,14.67-.75,21.61-7,.92-14.58-2.42-20.69,4.05-1.79.92-1.06-2.91-2.87-1.94-3.73-3.07-8.17-1.72-12.26-2.52-10.59.58-20.33-2.44-29.28-8.81a33,33,0,0,1-3.7-1.51c-4.14-2.78-6.47-7.7-10.14-11.05-8.63-9.78-16.27-20.36-21.17-33.2-3.36-9.5-6.52-19.07-8.14-29.21a21.52,21.52,0,0,1-.18-3.21c-.13-12-2-24.12,1-36,4.46-19.84,13.86-35,31.42-42.36,3.63-1.52,7.26-3.49,11.13-.78Z" transform="translate(-4.65 -10.97)"/><path class="cls-3" d="M374.2,433.81c-19,21.17-40.53,39.15-60.37,59.29-3.76,3.82-7.95,7.1-11.94,10.64-12.4-6.18-14.71-15.45-10.41-28.64,1.73-5.32,2.1-9.77-.56-14.53-1.3-2.33-2.95-5.27-2.17-7.63,4.57-13.81-.56-28.17,2.25-42,25.57-.11,51.15-.1,76.72-.45,5.45-.08,6.66,2.57,6.37,8C373.81,423.57,374.14,428.7,374.2,433.81Z" transform="translate(-4.65 -10.97)"/><path class="cls-2" d="M291,410.94c-.07,6-.56,11.85,2.66,17.64,2.14,3.84,1.49,9.05-.8,13.61-3.2,6.4-3.42,12.73,1.22,18.76a11.31,11.31,0,0,1,.71,13.25c-6.26,9.16-5.46,16.41,2.66,23.21,1.85,1.55,3,4.18,4.44,6.32-1.61,17.47-5.94,21.55-23.41,22.07-9.45,4.76-19.35,2.08-29.08,2.19-2,0-4-1.44-6.06,0-2.89,1.12-4.5-.92-5.88-3.22-6.05-10.13-12.7-19.62-21.84-26.49a2.87,2.87,0,0,1-.81-3.54c.88-.18,1.93-.07,2.63-.58,13.89-10.22,21.78-8.07,30.48,8.17,2.59,4.85,4.59,10.26,8.6,13.86,3.07-1.7.63-5.26,2.46-6.94,2.4-1.15-1.35,8.54,3.65,2.51a92.55,92.55,0,0,0,7.74-10c3.61-5.81,7.67-10.55,14.35-11,2.95-.2,4.66-1.57,4.06-5.08-.67-4-3-2.25-4.88-1.49-14.81,6-29.3,3.91-43.85-1.56-6.43-2.42-10.46-6.42-10.66-14.32-.19-7.33,3.68-10.81,9.37-13.06,7-2.77,10.76,2,14.16,7.26,3.11,4.83,5.63,10.16,8.82,16,3-4.37,1.58-8.55,1.95-12.34,1.23-2.18,2.85,5.9,4.77-.71,2.42-8.37,5.87-10.13,16.32-13.54-9.65.22-12.5,1.82-18.11,10.41-4.26-1.93-1.68-9.54-6.66-10.71-3.57-2.35-7.64-1.36-11.41-2.24-5.16-1.2-9.9-3.4-10.41-10.66-.37-5.34-.08-10.69,5-12.92,5.26-2.31,9.94-.65,13.56,4.57,2.88,4.16,6,8.1,9.87,13.32.49-4.51.81-7.39,1.14-10.42,2.34,1.46.4,4.44,2.08,6.22,4.4-7.39,6.55-17.06,17.16-17.51C291.37,421.86,286.91,413.54,291,410.94Z" transform="translate(-4.65 -10.97)"/><path class="cls-4" d="M566,357.8c-2.25-1.11-2.8-3.29-3-5.82-.74-11.22-1.78-22.43-2.21-33.66-.41-10.84-2.4-21.67,0-33.28-5.22,6.21-5.53,6.61-5.66,14.12-.24,14.67-.26,29.35-.45,44-.05,3.61.93,7.73-2.93,9.95-2.42,2.67-5.31,2.92-8.42,2.14s-3.17-3.91-4.26-6.3c-.9-20.06-3.8-40-2.28-60.19.53-7,1.73-13.5,6.87-18.18,6.84-7.29,15.72-5.3,23.76-6.13,11.92-1.23,23.85-3.57,35.93-2,1.19-.3.46-1.95.49-.58,0,.05-.17.08-.49.05-2.45-.23-5.6,1.87-6.79-2.6,8-4.82,16.35-8,25.62-6.24.94,8.26,1.31,16.52-.2,24.76-4,6.49-10.51,7.16-16.37,9.39C570.8,300.44,578,293,577,331c-.23,8.91,2.62,18.12-1.41,26.79C572.37,360.7,569.16,360.09,566,357.8Z" transform="translate(-4.65 -10.97)"/><path class="cls-2" d="M564.52,211.49q1-8.38,1.94-16.76c1.91-11,7.81-17.11,17.55-18.61,6.47,6,8.43-2.32,12.2-5,15.78-3,27.5,2.52,33.11,15.48,0,7.21,5.77,13.12,3.63,20.81a12.59,12.59,0,0,1-5.05,4.13c-4.65,2-5.88,5.49-5.57,11.11,1.12,19.71-11.38,33.43-28.71,32-3.29-.28-6.59.4-9.86-.42-3.81-1.55-5-5.05-5.45-9.19-.66-6.59,1.19-13.53-2.11-19.76C574.44,218.38,569.75,214.64,564.52,211.49Z" transform="translate(-4.65 -10.97)"/><path class="cls-3" d="M125.93,566.86q4.45,14.35,8.89,28.7c-.3.59-.55,1.5-1,1.65-11.42,3.61-22.92,6.87-34.51,9.67-2,.47-3.11-1.71-4.31-3.2C78.13,582.14,66.69,557,57.2,530.57c-2-5.6-3.5-11.45-5.22-17.19,7-1.07,10.77,6.39,16.67,8.25,7.21,4.92,16.19,6.51,21.62,14.76,2,5.68,6.27,7.64,11.1,8.71,2.19.68,3.68,2.39,5,4.3.56.77,1.09,1.55,1.71,2.25,7,7.77,7,7.77-1.73,11.79-6.43-.88-12.37,2.1-16.7,2.2,4.72-2.09,11.94-1.07,18.63-3.41C115,560.05,121.26,559.48,125.93,566.86Z" transform="translate(-4.65 -10.97)"/><path class="cls-3" d="M155.13,628c3.88,2.42,6,6.71,8.74,10.4a47.36,47.36,0,0,1-7.3,32.86c-23.9,0-45.89-7.48-66.11-21.84-.68-.49-1.74-.29-2.63-.41-8-5.18-16.18-10.17-23.44-16.73-4.15-6.62,1.64-6.36,4.21-6.73a97,97,0,0,1,26.14-.29c17.14,2.19,34.28,1.64,51.43,1.7A76.55,76.55,0,0,1,155.13,628Z" transform="translate(-4.65 -10.97)"/><path class="cls-2" d="M167.65,484.36c-21.86,4.27-35,18.94-40,43.18-2.65,2.57-5.58,1.81-8.47.81-12-4.14-23.68-9.24-36.26-10.76-2-.24-4.24-1-4-4.26,2.18-1,6.72,2.41,5.7-4.38-1.32-8.79.69-16.51,8.11-20.7,7.77-4.39,15,.39,21.13,4.59,14.36,9.82,13.89,10.21,20-6.82,1.86-5.22,3-10.9,6.93-15.24,8.87-9.8,17-8.72,22.66,3.57C164.89,477.63,166.23,481,167.65,484.36Z" transform="translate(-4.65 -10.97)"/><path class="cls-2" d="M155.13,628c-2.57,3.48-6.1,2-9.25,2.19-25.41,1.52-50.7-2.88-76.1-1.89-2,.08-7-3.11-5.39,4-5.81-1.58-7.15-4-1-7.6,8.48-5,17-9.73,25.54-14.66,2.52-1.47,6.06-1.81,6.1-6.38,1.72.39,3.73,1.61,5.12,1,11.23-4.8,22.9-7.29,34.71-9.12C139,608.43,147.48,617.92,155.13,628Z" transform="translate(-4.65 -10.97)"/><path class="cls-5" d="M580.52,244.76c.15,3.43.67,6.65,3.83,8.31,3.45,4.17,9.44,1.56,12.75,6.13,3.55,4.7,8.68-.11,13.23,3.07-22.47,4.48-44.86,3.6-66.65,8.34-5.3-10.65-10.55-21.33-15.95-31.9-2.61-5.11-.92-6.46,3.64-6.67,7.78-.37,15.55-1.26,23.34-1.74,2.73-.17,5.41-.08,7.53-2.46,4.42-3.19,8.27-2.26,11.68,2S579,239.39,580.52,244.76Z" transform="translate(-4.65 -10.97)"/><path class="cls-3" d="M355.6,174.57c-3.19,12.34-11.65,17.16-21.76,19.93-4.35,1.2-6.61-.25-4-4.69,7.48-12.8,6.95-24.89-.74-37.12a7.83,7.83,0,0,1-1.16-4.88c2.68-15.83-7.7-20.66-17.05-26.44A25.79,25.79,0,0,1,308,119c10.45-9.35,18.74-9.15,35.13.6,3.61,1.5,4.23,5.28,5.29,8.78,3.06,10.22,5.35,20.71,8.33,31C358.29,164.54,358.8,169.75,355.6,174.57Z" transform="translate(-4.65 -10.97)"/><path class="cls-6" d="M629.32,186.65c-9-12.22-20.92-14.75-34.06-13.4-5.17-3.13-4.46-8.54-3.4-13.38,2.43-11.1-6.8-9-10.83-12.52-2.79-2.46-6.34-2.17-8.62,1.74-3.38,5.84-1.68,10.89,2.06,15.63,2,2.57,4.57,4.32,6.95,6.35,1.57,1.34,4.56,2.53,2,5.88-8,3-12.36,10.6-17,17.78-3.46-17.31-1.73-35-3.05-52.56-.57-7.46,6.26-12.85,13.35-14.58s13.07.32,17.37,7.45c2.41,4,5.6,7.22,9.72,8.84,5.87,2.31,9.83,6.19,10.4,13.74.4,5.38,4.44,6.73,8.11,8.41C632,170.47,633.7,175.5,629.32,186.65Z" transform="translate(-4.65 -10.97)"/><path class="cls-2" d="M78.87,513.33c16.73,2.61,32.35,10.18,48.76,14.21-3.64,12.08-.76,24.54-1.71,36.77-9.24-1.34-15.09-8.92-21.69-15.11l-3.52-3.09q-7.17-1.32-10.92-8.38c-5.93-6.87-14.84-8-21.16-14.16-4.41-4.09-10.63-5.7-13.13-12.39C63.4,510.38,71.09,512.49,78.87,513.33Z" transform="translate(-4.65 -10.97)"/><path class="cls-2" d="M147.77,447c-.92,4.35-1.87,8.42-5.23,12.16-11.66,13-26.5,17.61-41.7,20.46-5.4,1-11.82-1-14.84-8.63a14.4,14.4,0,0,1,3.44-16.5c4.83-4.77,10.65-3.57,16,.05,2,1.41,3.95,3.09,6,4.49,2.48,1.69,4.06,6.95,6.92,5.29,3.51-2,4-7.46,3.89-11.78-.13-6.46.78-11.87,5.53-16.3,4.35-4,9.11-4,13.53-2S147.36,441.39,147.77,447Z" transform="translate(-4.65 -10.97)"/><path class="cls-2" d="M355.6,174.57c2.2-8.49-1.84-15.77-3.73-23.4-2.64-10.63-5.8-21.09-8.73-31.63,8.74-.4,16.44-6,25.25-6.37a63,63,0,0,1,18.66,2.4c3,10.31,5.91,20.66,8.84,31-7.6,12.68-19.21,18.38-31.55,22.09C360.57,169.79,358.36,172.34,355.6,174.57Z" transform="translate(-4.65 -10.97)"/><path class="cls-3" d="M497.47,174.72l-18.22-4.85C499,158.45,517.48,147.72,536,137l1.29,1.33-27.63,57.11c-5.82-5.12-2.86-14.12-8.45-18.24C499.13,178,498.16,176.63,497.47,174.72Z" transform="translate(-4.65 -10.97)"/><path class="cls-2" d="M93.24,445.55c-7.22-.05-13-6.05-12.35-12.68.78-8.26,5.9-10.42,12.31-9.76a20.31,20.31,0,0,1,10.07,4c6.13,4.55,8.85,1,9.87-5.61.46-3,0-6.13.3-9.16.57-5.65,4.52-7.92,8.56-9.27,4.62-1.55,7.83,1.26,10.57,5.52s2.9,7.49.38,12C123.47,437.43,107.88,441.21,93.24,445.55Z" transform="translate(-4.65 -10.97)"/><path class="cls-7" d="M597.1,259.2c-4.29-1.95-11.25,3.24-12.75-6.14A16.47,16.47,0,0,1,594.8,252c13.72,2.63,26.94-11.83,25.58-27.32-1.19-13.64-.7-14.31,12.57-17.22,2.93,8.53,2.4,17.46,2,26.27-.46,9.41-5.62,15.29-12.7,19.35C614,255.81,605.78,258.81,597.1,259.2Z" transform="translate(-4.65 -10.97)"/><path class="cls-8" d="M196.24,486.6c-5.81-2.6-12-1.82-18-2.35.53-4.83,1.12-9.62-3.83-12.33-3.4-1.86-3.29-5.3-2.71-8.83a25,25,0,0,0,4.5-6.31,19.53,19.53,0,0,1,25.8-8.62c3.87,12.77,5.94,25.13-5.66,34.73C195.81,483.34,196.26,485.33,196.24,486.6Z" transform="translate(-4.65 -10.97)"/><path class="cls-9" d="M202,448.16c-7.09-3.16-12.87,4.41-20,3.32-1.31-.2-4.68,5.37-4.88,9.6-.31,6.15-3.16,3-5.45,2-1.5-5.7-2.61-12-4.29-17.07-2.29-6.9,4.89-6.93,3.54-11.37,5.18,3.08,8-10.64,14-2.53.36.49,2.17,0,3.08-.51,8.92-5.12,12,5,17,9C208.14,443,204.22,446.12,202,448.16Z" transform="translate(-4.65 -10.97)"/><path class="cls-2" d="M267.47,409.25c3.47-6.19,8.4-9.73,13.57-12.48,2.64-1.4,5.19,1.09,6.76,3.79s1.25,5.6-.17,8.61c-3.83,8.11-14.73,4.51-17.66,13.91-4.2-8.35-13.63-3.05-18.64-9.12-2.93-3.55-2.84-7.47.16-10.89,3.2-3.66,7.09-3.78,10.6-.84C264.18,404,265.6,406.74,267.47,409.25Z" transform="translate(-4.65 -10.97)"/><path class="cls-2" d="M289,378.27c.07,2.84-.31,5.48-2.7,7.07-9.89,6.54-20.23,8.89-31.18,3.8-3.42-1.59-4.44-5.33-4.79-9.16-.3-3.32,1.85-5,4.12-5.83,3.28-1.18,7-1.14,8.94,2.48,4.42,8.13,7.65,5.11,11.12-.8,2.27-3.88,5.41-6.77,9.74-5.37C287.26,371.45,289,374.43,289,378.27Z" transform="translate(-4.65 -10.97)"/><path class="cls-2" d="M90.74,410.75c-3.7-.54-8.21-.78-8.16-7.56,0-7,4.92-8.32,8.76-6.53,7.79,3.64,10.21-1.83,12.26-7.81,1.47-4.28,3-7.11,7.54-6.92,2.91.13,5.22.67,6.6,4,1.91,4.58-.36,7.89-2.49,11.13C109.31,406.11,101.09,410.24,90.74,410.75Z" transform="translate(-4.65 -10.97)"/><path class="cls-3" d="M214.81,494.73c12,7.9,20,19.93,26.88,33.16a1.89,1.89,0,0,1,.42,1.63c-.13.55-.26.83-.39.83-4.33,1.28-7.11,5.57-11.17,7.4-3.31-8.34-7.1-16.48-9.8-25.07-3-9.55-9.23-14.35-17.22-15.63-6.09-1-7.87-3.64-6.52-9.93Z" transform="translate(-4.65 -10.97)"/><path class="cls-10" d="M313.93,166.14c-4.08-1.56-10.46-.55-13.19-6.09-1.82-3.69,8.86-12.49,14.37-12.21s9.27,3,9.73,9.49C325.19,162.24,320.23,166.28,313.93,166.14Z" transform="translate(-4.65 -10.97)"/><path class="cls-2" d="M211.88,316.66c11.68-4.12,18.8-15.26,27.75-23.5,14-12.86,27.41-26.39,41.1-39.66,2.09,2.69.64,3.69-.44,4.75q-26.69,26-53.39,52c-3.88,3.76-7.37,7.77-9.35,13.19C215.22,321.66,212.77,320,211.88,316.66Z" transform="translate(-4.65 -10.97)"/><path class="cls-2" d="M443,230.32c-8.93-6.27-15.94-15.07-23.17-23.43-6.13-7.1-11.45-7-17.68-.67-7.06,7.18-13.76,14.9-22.05,20.4-.94.22-1.24-.22-1-1.23,8.51-10.4,18.41-19,27.92-28.14,3.17-1.25,5.93-.34,8.45,2,11.66,7.42,19,20.41,29.63,29.21C445,230,444.49,230.8,443,230.32Z" transform="translate(-4.65 -10.97)"/><path class="cls-11" d="M395.89,146.57c-6.6-9-9.07-19.51-8.84-31,1.57.91,3.16,1.79,4.73,2.71C403.55,125.17,404.41,131.09,395.89,146.57Z" transform="translate(-4.65 -10.97)"/><path class="cls-2" d="M262.2,352.64c-1-8.15,1.65-10.95,6.11-11.38,5.52-.53,8,4.35,7.43,9-.63,5.64-1.79,15.81-5.17,15.58C264.5,365.46,263.25,356.63,262.2,352.64Z" transform="translate(-4.65 -10.97)"/><path class="cls-1" d="M260,451.68c6.28-1.32,5,4.86,6.74,9-1.41-12.21,7.56-8.7,12.28-10.79,2.8-1.23,7.64-7.18,9.54-.91,2.58,8.47-4.55,6-8.49,6.89-8.11,1.74-8.95,11.07-13.51,16.76-2.31-1.28-.21-5.3-2.88-6.39C263.65,461,261.72,456.38,260,451.68Z" transform="translate(-4.65 -10.97)"/><path class="cls-2" d="M316.22,285.55c20.81-20.26,41-41.32,62.9-60.16a8.33,8.33,0,0,0,1,1.23c-19.92,21.45-41.09,41.28-62.24,61.12C316.39,287.91,315.62,287.39,316.22,285.55Z" transform="translate(-4.65 -10.97)"/><path class="cls-2" d="M497.47,174.72l3.75,2.48c-15.59,18.55-32.25,35.82-49,53-1.78.83-2.19-.16-2-1.94C466.23,210.71,482.81,193.8,497.47,174.72Z" transform="translate(-4.65 -10.97)"/><path class="cls-12" d="M542.83,353.39l8.95-.26q.88,6.22,1.78,12.45c-5.27,10.19-10.14,12.26-17.81,7.56q1.65-2.89,3.29-5.8C542.5,363.46,538.84,357.09,542.83,353.39Z" transform="translate(-4.65 -10.97)"/><path class="cls-13" d="M573.55,232.07c-2.73-5-7.28-3.7-11.3-4.23q1.13-8.18,2.27-16.35c8.37-1.35,11.7,3.76,12.31,12.34A9.32,9.32,0,0,1,573.55,232.07Z" transform="translate(-4.65 -10.97)"/><path class="cls-14" d="M535.75,373.14c7.41,1.94,12.57-2.94,17.81-7.56,3.24,4.42,1.19,7.38-2.28,9.64-4.55,3-9.23,5.68-13.85,8.49L530,385.13C530.44,379.47,534,376.83,535.75,373.14Z" transform="translate(-4.65 -10.97)"/><path class="cls-2" d="M309.35,288c-7.64-11.24-15.12-22.65-25.81-30.59,1-2.7,2.81-3.48,5.22-2.67,7,11.14,15.89,20.4,23.87,30.56C312.24,287.28,311.12,288.14,309.35,288Z" transform="translate(-4.65 -10.97)"/><path class="cls-3" d="M309.35,288l3.28-2.7,3.59.27,1.65,2.19c.3,4.05-.53,7.71-4.74,7.44C309.64,295,308.47,291.84,309.35,288Z" transform="translate(-4.65 -10.97)"/><path class="cls-3" d="M450.22,228.26l2,1.94c0,3.49-.39,7.14-4.05,7.45-4.2.35-5-3.47-5.17-7.33l2.1-1.89Z" transform="translate(-4.65 -10.97)"/><path class="cls-3" d="M415.48,199.22c-2.93,0-6.08,1.16-8.45-2,.06-3.1-.84-6.84,3.9-6.43C416,191.26,416.06,195,415.48,199.22Z" transform="translate(-4.65 -10.97)"/><path class="cls-3" d="M288.76,254.72a7.17,7.17,0,0,1-5.22,2.67c-3.3-.36-3.84-2.76-3-5.74.56-2,2-3.47,4-3.26C288,248.72,289,251.18,288.76,254.72Z" transform="translate(-4.65 -10.97)"/><path class="cls-3" d="M55.5,511.18c3.7,5.05,10,6.56,13.12,12.39C61.88,522.68,58,515.76,52,513.38l-1.14-3.23Z" transform="translate(-4.65 -10.97)"/><path class="cls-3" d="M211.88,316.66c4.22-.24,6.08,2.06,5.67,6.78-1.81,2.4-4.07,3.24-6.19,1C208.94,321.89,209.44,319.07,211.88,316.66Z" transform="translate(-4.65 -10.97)"/><path class="cls-15" d="M542.83,353.39c-.86,4.79,1.5,10.71-3.79,13.95L539.1,349Z" transform="translate(-4.65 -10.97)"/><path class="cls-3" d="M662.16,475.59q17.76-20.23,35.52-40.49c4.4-5.06,5.89-3.84,6.81,2.9,1.64,11.91,4.06,23.68,6.58,38,12.21-27.9,23.55-53.79,34.89-79.69,1.71,3.52.94,7.35.95,11q.2,115.57.32,231.15c.18,5.64-2.81,6.38-7,6.33-16.4-.2-32.81-.15-49.21-.19,1.17-12.23-4.57-19.69-13.44-25a8.49,8.49,0,0,1,1.14-6.8c6.81-11.44,4.84-22.56-.76-33.62-2-3.84-3.43-8.16-6.12-11.28-7.48-8.7-11-19.15-12-31-1.19-16.56-.41-33.13-.53-49.69A28.4,28.4,0,0,1,662.16,475.59Z" transform="translate(-4.65 -10.97)"/><path class="cls-16" d="M816,642.32l-3.24.37c-3.24,2.59-6.4,2.72-9.45-.4a7.65,7.65,0,0,1-5.17-4.08c-2.47-35.93-7.36-71.63-8.09-107.72-.39-19.41-.53-38.87,8.56-56.47,14-3.61,27.92-6.1,41.62,1.32,8.27,25.65,9.65,52.65,11.47,79.45,1.78,26.18,2.75,52.45,2.36,78.74,0,2.53,1,5.59-1.77,7.33-4.76,3.62-9.64,3.11-14.57.51-2.32-2.46-3.24-5.73-3.75-9.11-4.92-32.64-11.08-65-15.5-97.76-.4-3-1.19-6-.67-7.1-.92,3.93,1.13,9.65,1.1,15.39-.13,28.68,0,57.36-.11,86C818.75,633.49,819.5,638.52,816,642.32Z" transform="translate(-4.65 -10.97)"/><path class="cls-2" d="M788.62,418.77c1.28-11.71,7.63-18.59,16.88-22.71,4.49-3.66,8.55-7.71,10.14-14.05,4.87.64,8.16,6.8,13.73,5.06,4.91,7.56,15,6.91,19.21,15.56,10.65,16.7,10.71,35.69.17,47.26-9.79,9.58-21.3,7.67-32.75,6.31-6.72-2-12.91-4.92-16-12.82a9.54,9.54,0,0,1,2.73-8.76c1.47-1.2,3.37-1.47,4.85-2.64,3.11-2.46,2.53-5.9,1.53-9.21s-3.42-3.22-6-2.69C798.24,421.11,793.19,423.27,788.62,418.77Z" transform="translate(-4.65 -10.97)"/><path class="cls-2" d="M796,202.22c.07-18.28,11.8-31.52,28-31.56,14.75,0,27.88,14.58,27.93,31.08,0,18.18-12.57,32.58-28.5,32.52S795.89,220.6,796,202.22Z" transform="translate(-4.65 -10.97)"/><path class="cls-17" d="M816.13,382.29c1.85,9.92-3.68,12.55-10.63,13.77a7.69,7.69,0,0,0-2.74-6.1c-11.6-10.29-12.63-16.26-5.86-32.14.75-1.76.76-3.91,1.22-5.84s1.3-5.56,1.59-5.51c9.81,1.6,15.54-10.06,26.12-8.93s15.08,8,21.5,15.17c7.11,8,2.84,19.79,9.66,27-4.44,6.88,1.45,18.61-8.41,22.95-6.53-4.91-15.9-5-19.61-14.71-3-5.43-.16-10,2.54-13.63,2.92-4,2.16-6.24-.8-9.1-2-2-3.41-4.67-5.12-7-1.84-2.52-3.45-6.19-7-5-3.3,1.11-5.13,4.24-6.35,7.95C809.55,369.21,814.29,375.37,816.13,382.29Z" transform="translate(-4.65 -10.97)"/><path class="cls-2" d="M792.64,462.5c-4,12.28-8,24.54-18.27,32.27-3.57,2.89-6.62,2.73-8.86-2-1.77-10.35,2.28-19.18,5.9-28,4.26-10.41,9.8-20.16,12.34-31.42,1.34-2.71,3-3.74,4.16-.14.92,2.78.51,6,1.3,8.88C790.64,448.82,791.83,455.62,792.64,462.5Z" transform="translate(-4.65 -10.97)"/><path class="cls-2" d="M792.17,259c-.33,9.33-9.27,18.48-17.76,18.18-9.4-.34-16.79-9.64-16.23-20.46.53-10.36,8.18-18.32,17.42-18.13C784.6,238.75,792.55,248.54,792.17,259Z" transform="translate(-4.65 -10.97)"/><path class="cls-2" d="M840.2,475.34c-13.84-1.88-27.75-.82-41.62-1.32q-1-6.13-2-12.26c5.09-7.21,12.34-5.66,19.11-6,10.55,1.29,21-.16,31.4-1.79A37.27,37.27,0,0,1,840.2,475.34Z" transform="translate(-4.65 -10.97)"/><path class="cls-18" d="M815.61,457.5l-19.06,4.26-3.91.74c-5.9-5.54-3.56-13.78-5.28-20.69,5.16-4,9.69-1.37,14.17,1.71,4,4.92,8.6,8.89,14.58,10.28C817,455.22,817.48,456.56,815.61,457.5Z" transform="translate(-4.65 -10.97)"/><path class="cls-19" d="M788.62,418.77a29.54,29.54,0,0,0,13.16-1.36c2.84-1,6.59-4.36,8.67-.16,2.28,4.59,3.42,10.57,1.92,15.58-1.25,4.16-5.79,1.24-8.79,1.94-5.11-1.11-9.09-6.22-15.21-4.49-2.67.75-3.55-3.7-4.48-6.44C783.6,419.92,786.46,419.76,788.62,418.77Z" transform="translate(-4.65 -10.97)"/><path class="cls-20" d="M765.51,492.78c2.68,2.2,5.73,2.32,8.86,2-.39,6,1.24,12.09-4.7,17.08-3.2,2.68-4.95,4.24-8.16,1.82a7.6,7.6,0,0,1-2.41-9.81C760.9,500,763.35,496.46,765.51,492.78Z" transform="translate(-4.65 -10.97)"/><path class="cls-21" d="M783.89,423.84c2.46,3.89,4.66,8.92,9.33,2.55,1.52-2.05,2.29-.24,3.29.87,2.3,2.57,4.71,5,7.07,7.51-1.16,2.77-2.3,5.55-2.05,8.75l-14.17-1.71a10.39,10.39,0,0,1-.93-7.61c.76-3.36-1.59-1.06-2.68-.87C783.8,430.17,783.85,427,783.89,423.84Z" transform="translate(-4.65 -10.97)"/><path class="cls-22" d="M838.36,641.28l13.9-.42q.27,5.85.55,11.7l-.8.35c-7.23,8.85-10.4,9.84-17.92,5.55,0-4.15,4.89-4,5.3-7.82C839.06,647.52,837.76,644.53,838.36,641.28Z" transform="translate(-4.65 -10.97)"/><path class="cls-2" d="M815.61,457.5c.17-1.24.33-2.47.5-3.7a55.85,55.85,0,0,0,32.64-3.91L847.07,454C836.93,459.08,826.18,457.26,815.61,457.5Z" transform="translate(-4.65 -10.97)"/><path class="cls-23" d="M232.51,650.93c-1-12.54-2.29-25.07-3-37.63-.34-5.73-3.48-5.56-6.86-5.38-9.4.47-18.68-.84-27.9-2.53-12.4-2.27-22-8.87-25.57-23.6,7.22-.33,13.48-4.52,20.29-6.49,19.89,2.54,39.61-3.13,59.48-1.48,8.63.72,17.51-1.58,25.81,2.91,8.36,2.18,13.18,9.28,17.9,16.52,6,5.72,5.76,13.82,6.3,21.53,1.13,16-1.43,31.73-2.55,47.57l-5.63,1.51c-4.38,6.7-10.27,1.54-15.38,2.53-2.05-9.86.61-20.26-2.61-30-4.56-8.14-4.14-18.5-9.73-27-2.08,12-1.62,24.2-6.88,34.85-1.23,5.76-2.22,11.62-3.81,17.25-.87,3.08-.29,7.83-5,8-4.12,3.37-8.19,2.92-12.22-.22Q233.8,660.1,232.51,650.93Z" transform="translate(-4.65 -10.97)"/><path class="cls-3" d="M414.46,503.1c11.94,11,20.92,25.13,31.46,37.61,16.38,19.4,32.32,39.27,48.38,59a49.07,49.07,0,0,1,3.53,5.83c-.07,10.51-.35,21-.15,31.53.11,5.64-1.58,7.85-6.71,7.75-16.78-.33-33.56-.27-50.33-.37-3.42-6.64-2-13.73-1.49-20.73,2.47-10.5,3.06-20.41-6-27.78a5.82,5.82,0,0,1-1.72-6.28,5.89,5.89,0,0,1,3.16-2.68c10.5-4.41,11.86-7.85,7.69-19.52-5.46-6-12.81-6.57-19.54-8.92-3.83-1.34-8.45-1.17-10.5-6.39-2-13.94-1-27.95-.74-41.93C411.52,507.49,412.15,504.76,414.46,503.1Z" transform="translate(-4.65 -10.97)"/><path class="cls-3" d="M296.38,662.35c0-14.67-.22-29.35,0-44,.12-8.68-1.9-16.83-3.73-25.08,27.22-25.47,53.1-52.76,81-77.27,6.17,12.47,2.88,25.61,2.15,38.56-4,6.73-11.59,5.27-16.66,9.52-4.45,10.91-9.82,21-18.26,28.77-1.56,1.44-.57,5.21.62,7.74,2.73,5.5,9.73,7.63,9.51,15.45.13,1.56.15,3.11.15,4.68,0,3.68.14,7.4-1.18,10.9-3.81,4.84-8.68,8.41-12.48,13.28-9.89,0-19.82.44-29.66-.32-7.82-.61-11.25,2.08-10.11,11.23C298,657.94,298.46,660.61,296.38,662.35Z" transform="translate(-4.65 -10.97)"/><path class="cls-3" d="M538.8,612.23q31.11-34.74,62.22-69.5c2.35-2.63,4.6-5.37,6.9-8.06,6.24,1,11.75,3.06,13.42,11.11-1.31,3.56-4.31,4.57-7.06,5.86-18.26,8.53-26.68,25.49-30.75,46.11-1.5,7.6.7,14.09,5.08,19.85,1.89,2.48,4.85,4.48,3.4,8.67-8,3.63-12.73,11.17-17.66,18.51-9.23,0-18.48-.45-27.69.07-6.46.37-8.28-2.48-7.89-9.36C539.2,627.77,538.83,620,538.8,612.23Z" transform="translate(-4.65 -10.97)"/><path class="cls-3" d="M348.69,632l.42-12c4-2.78,7.6-.15,11.18,1.21,24.22,9.19,48.46,8.65,72.72.35,2.92-1,5.79-2.27,8.48.56.26,7.48.57,15-.85,22.37l-5.08,2.21c-2.81,1.29-5.36,2.56-5.43,6.92-.07,4-2.33,6.86-5.37,8.84-4.57,1.42-8.85,3.86-13.55,4.82-14.94,3.49-30,.38-44.94.51-7.19.06-14.43-1.61-19.52-8.58l.1.05c-3-1.73-6.17-3.49-4.52-8.22,1.56-4.49,5-2.89,7.76-2.18,12.34,3.23,24.5,7.75,35.87,6-9,.68-19.45,0-29-5.49C351,645.93,345.47,641.36,348.69,632Z" transform="translate(-4.65 -10.97)"/><path class="cls-23" d="M678.26,618.68c14.49,6.84,17.21,12.34,12.81,25.93L669,665.48a7.24,7.24,0,0,1-1.85,1.89c-7.88,4.25-16.49,5.61-24.87,7.89-6.07-1.22-11.09,2.54-16.38,4.67-3.71,1.48-6.9,1.94-10.11-.87-4-1.26-5.62-5.5-8.13-8.61s-2-5.87.68-8.64c7.1-7.23,13.9-15,23.39-18.18,6.93-2.33,11.1-9,16.79-13.19,4.73-4.77,9.26-9.92,15.89-11.22C669,617.9,673.55,616.26,678.26,618.68Z" transform="translate(-4.65 -10.97)"/><path class="cls-16" d="M649.5,632.31c-7.87,11.84-21.6,13.38-31,22.6q-5,5-10.1,9.89c-2.58,2.52,1.4,2.78,1.19,4.47-2,2.08-4,3.09-6.5,1-4.14-4.79-10.28-4.8-15-8.17-6.1-4.31-12.4-8.23-13.73-17.32.57-12.42,8.56-16.54,17.31-19.79,4.92-2.52,9.31.14,13.81,1.79,9.89,4.38,20.21,1.65,30.31,2.45C640.46,629.6,645.49,628.08,649.5,632.31Z" transform="translate(-4.65 -10.97)"/><path class="cls-24" d="M838.36,641.28c3.81,2.63,3.84,5.79,1,9.36-6.47-4-13.76-4.06-20.78-5.25-2-.35-2.4-1.34-2.65-3.08l-.39-106.24a73.39,73.39,0,0,1,1-15C826.53,560.6,831,601.29,838.36,641.28Z" transform="translate(-4.65 -10.97)"/><path class="cls-2" d="M424.79,660.72c1.54-2.72,3.7-4.92,3.88-8.61.23-4.72,3.34-5.66,6.89-5.46-3,3.05-6.21,5.48-.13,9.38,5,3.19,7.36,8.66,4.09,15.36-27.44,12.38-55.1,11.54-82.86,1.63-3.42-1.22-6.82-2.77-9.42-5.83-.16-2.68-.33-5.35-.49-8,10,4.82,20.45,6,31.36,6.23,11.43.2,22.83-.1,34.25-.2,4.56,1.22,8.5-2.48,13-2.16.43,0,1.62.53,1.38-.54C426.59,662,425.26,661.62,424.79,660.72Z" transform="translate(-4.65 -10.97)"/><path class="cls-3" d="M347.24,667.19c6.57-.59,11.64,4.5,17.73,5.94,24.27,5.74,48.32,7.68,71.79-4,2.33-1.16,2.32.79,2.76,2.29-1.56,7.51-7.07,10.18-12.58,11.36-23.93,5.12-47.82,5.86-71.3-3.22C350.45,677.53,346.22,674.64,347.24,667.19Z" transform="translate(-4.65 -10.97)"/><path class="cls-2" d="M348.69,632c.06,13.91,13.42,19,28.86,20.82,6.88.79,14-1.16,20.66,2.26-16,3.31-31.72,1.63-47.32-3.07-2.34-.7-5.19-3.74-7.12-.41s1.94,5.11,3.08,7.66c-8.16-.57-9.56-6.77-9.33-14.33C337.43,636.34,343.36,634.48,348.69,632Z" transform="translate(-4.65 -10.97)"/><path class="cls-3" d="M167.86,638.45c8.35,7.86,19,8.72,28.83,12.07-3.2.4-6.35.12-9.11,3.15-7.62,8.36-17,13.51-26.89,17.55C159.82,659.38,162.61,648.57,167.86,638.45Z" transform="translate(-4.65 -10.97)"/><path class="cls-3" d="M256.15,644.26c.43-13.86,4.88-27.19,4.84-41.61,8.2,9.32,11,21.05,11.77,33.75C267.27,639.13,262.24,643.14,256.15,644.26Z" transform="translate(-4.65 -10.97)"/><path class="cls-25" d="M603.13,670.27l6.5-1c2,3.26,4.07,6.53,6.12,9.79-5.31,2.3-10.51,5.07-16,6.75-4.28,1.31-10.26,2.1-11.34-4.11-.94-5.34,4-8.47,8.52-10.06A47.45,47.45,0,0,1,603.13,670.27Z" transform="translate(-4.65 -10.97)"/><path class="cls-26" d="M290.88,673.67c5.54,3.89,15.47,4.63,14.95,12.71-.25,4-11.15.38-17.1,1.45-9.7,1.75-9.14-4.86-8.23-12.06C283.44,671.83,287.16,672.73,290.88,673.67Z" transform="translate(-4.65 -10.97)"/><path class="cls-27" d="M247,674.18c5.69,3.35,12.56,4.64,16.73,12.65-8.73,2.6-17.13,1.67-25.06.2-5.18-1-1.44-7.48-2-11.43C239.83,672.29,243.28,671.8,247,674.18Z" transform="translate(-4.65 -10.97)"/><path class="cls-28" d="M667.85,665.63a.92.92,0,0,0,1.11-.15c4.24,2.3,9.57,1.77,12.81,6.69s2.79,7.87-2.75,9.56c-6.81,2.08-12.23-2.22-18.09-4.56C658.82,669.93,664.21,668.45,667.85,665.63Z" transform="translate(-4.65 -10.97)"/><path class="cls-29" d="M812.71,652.49c2.82,7,.34,10.82-5.75,12.38q-8.24,2.11-16.55,3.83c-2,.41-4.63,1.17-5.46-1.64s1.9-3.7,3.53-4.88c2-1.41,4.1-2.56,6.16-3.83C800.87,657.21,806.26,652.75,812.71,652.49Z" transform="translate(-4.65 -10.97)"/><path class="cls-30" d="M834.09,658.46c7.18,3.13,12-3.54,17.92-5.55,1.38,6.82-.83,10.89-7,12.19-5.24,1.1-10.41,2.65-15.68,3.55-1.78.3-4.49,1.6-5.52-1.24s1.71-3.94,3.18-5.34C829,660.15,831.17,658.27,834.09,658.46Z" transform="translate(-4.65 -10.97)"/><path class="cls-31" d="M167.86,638.45l-7.17,32.77q-2.31,9.3-4.61,18.59c-3.26-6.79.75-12.4.49-18.52q3.66-16.42,7.3-32.86Z" transform="translate(-4.65 -10.97)"/><path class="cls-32" d="M500.35,607.88c5.23,5.83,10.76,11.35,14.81,18.4C497.51,626.47,497.68,627.49,500.35,607.88Z" transform="translate(-4.65 -10.97)"/><path class="cls-33" d="M812.71,652.49c-5.55,3.85-10.84,8.72-18.07,5.86,3.57-4.88,9.51-8.12,8.65-16.06l9.44.4C812.72,646,812.71,649.22,812.71,652.49Z" transform="translate(-4.65 -10.97)"/><path class="cls-16" d="M667.85,665.63c-2.74,3.51-6.08,6.56-6.92,11.54-6.64,4.46-12.57.08-18.69-1.91,3.06-6.57,9.72-3.19,14.2-6.54C659.51,666.43,664,666.57,667.85,665.63Z" transform="translate(-4.65 -10.97)"/><path class="cls-34" d="M290.88,673.67c-3.14,2.78-6.9,1.59-10.39,2.1-.46-4,.32-8.91-5.13-9.4,5.14-.82,10.26-1.66,15.39-2.51Q290.81,668.77,290.88,673.67Z" transform="translate(-4.65 -10.97)"/><path class="cls-35" d="M209,653c2.47-2.21,2.27.62,2.87,1.94-2.63,11.58-4.14,23.55-9,34.43C202.69,676.76,206.82,665.12,209,653Z" transform="translate(-4.65 -10.97)"/><path class="cls-36" d="M247,674.18a20.64,20.64,0,0,1-10.34,1.42q-.81-3.18-1.6-6.34l12.23.22C247.22,671.05,247.12,672.62,247,674.18Z" transform="translate(-4.65 -10.97)"/><path class="cls-5" d="M274.73,576.73c-4.69,2-9.44.12-14.15.16-20.56.2-41.11.13-61.66,0-3.18,0-6.63,1.23-9.48-1.6l23.4-.89c3.15-3.38,4.38-8.33,7.5-11.74,4.77-7.58,7.2-16.4,10.21-24.92,1.73-6.53,5.65-9.15,11.53-8.26,11.58-3.25,23.16-2.75,34.74,0,4.37,2.58,11.33-4.67,13.92,4.7-1.83,11.08-4.67,21.66-11.6,30.23A29.74,29.74,0,0,0,274.73,576.73Z" transform="translate(-4.65 -10.97)"/><path class="cls-1" d="M374.12,555.64q-.22-19.83-.45-39.66c7.29-10,17.38-16.5,25.44-25.58,2.32-2.63,4.8-1.89,6.95.87,3,3.8,6.43,7.12,8.39,11.83q-.19,25.51-.4,51a6.34,6.34,0,0,1-5.53,2.94C397.06,556.62,385.45,560.14,374.12,555.64Z" transform="translate(-4.65 -10.97)"/><path class="cls-1" d="M662.16,475.59l.17,64.07c1.3,12.39.85,13.06-9.15,10.67-5-1.2-10.24-.6-15.15-2.47-6.94-6.26-6.33-15.26-6.51-23.86-.06-2.93,1.27-5.87.11-8.87-.46-3.24-.93-6.49,1.57-9.07Z" transform="translate(-4.65 -10.97)"/><path class="cls-1" d="M622.47,432.85l-.18-47.08c13-.26,25.91,1.29,40.67,3.11C648.51,404.49,636.5,419.82,622.47,432.85Z" transform="translate(-4.65 -10.97)"/><path class="cls-37" d="M633.07,515.45c.86.87,2.58,2.33,2.47,2.52-5.26,9.68.43,18.76,1.08,28.08-6.9,8.28-12,8.42-16,.46-2.39-6.46-8.91-7.23-12.65-11.84,1.55-2.55-5.4-8.32,2.53-8.61.33,0,.87-2.29.83-3.5,0-1.82-1.21-1.83-2.57-1.53-1.64.37-4,3.4-4.59-1.29C614.53,507.31,621.39,506.29,633.07,515.45Z" transform="translate(-4.65 -10.97)"/><path class="cls-38" d="M633.07,515.45c-1.06.5-2.84,1.7-3.06,1.4-7.27-9.78-14.09-6-21,.51-1.3,1.22-3.21,1.61-4.85,2.38-4.59-.65-4.76-4.23-4.09-8.18,1.6-9.39,6.23-16.41,14.69-17.69,8.28-1.26,16.09.81,18.48,12.18Q633.13,510.76,633.07,515.45Z" transform="translate(-4.65 -10.97)"/><path class="cls-2" d="M279.14,564.41c3.15-10.43,6.66-20.69,11.6-30.24C299.67,546.54,293.88,563.71,279.14,564.41Z" transform="translate(-4.65 -10.97)"/><path class="cls-2" d="M276.82,529.48l-34.74,0a7.28,7.28,0,0,0-.39-1.61c.34-2.65,1.35-4.58,4.06-3.82,10.81,3,21.83.8,32.73,1.73C277.93,527,277.37,528.26,276.82,529.48Z" transform="translate(-4.65 -10.97)"/><path class="cls-39" d="M576.92,367.64c2.53,3.67,2.18,6.75-1.53,9-4.68,2.86-9.3,5.88-14.14,8.35-2.19,1.11-5.23,4.05-7.14.94-1.74-2.85,1.5-5.32,2.93-7.7a20.49,20.49,0,0,1,3.18-3.41C566.23,373.76,570.4,367.21,576.92,367.64Z" transform="translate(-4.65 -10.97)"/><path class="cls-40" d="M576.92,367.64c-5.31,3.17-9.33,10.14-16.7,7.19,2.72-5.32,5.92-10.45,5.73-17l9.64,0Q576.26,362.74,576.92,367.64Z" transform="translate(-4.65 -10.97)"/><path class="cls-41" d="M220.34,562.67c-1.41,4.81,0,12-7.5,11.74-3.76-3.18-8.23-.65-12.22-1.9-3.38-1.07-6.12-2.72-5.72-7.64.44-5.25,3.88-4,6.72-4.38C208,559.59,214.05,562.48,220.34,562.67Z" transform="translate(-4.65 -10.97)"/><path class="cls-3" d="M104.23,549.2l21.69,15.12c0,.84,0,1.69,0,2.54-5.78-2.63-11.57-5.24-18-4.26l-.1-.14,4.37-3.23C110.3,555.12,104.53,554.89,104.23,549.2Z" transform="translate(-4.65 -10.97)"/><path class="cls-42" d="M583.46,177c-2.63-6.22-9.39-6.87-12.68-13.12-3.95-7.48-2.95-13.13.82-19.29,4.24-6.93,7.68,0,11.44,1.09a3.36,3.36,0,0,1,.79.47c9.6,6.09,9.72,6.29,9.44,18.47-.07,3.13.23,6.11,2,8.68.65,5.33-3,7.2-6.16,8.63C585.54,183.47,584.77,179.47,583.46,177Z" transform="translate(-4.65 -10.97)"/><path class="cls-43" d="M573.55,232.07a14.91,14.91,0,0,1,3.28-8.24c7.88,5.47,2.29,14,3.69,20.93C577.11,241.3,575.68,236.44,573.55,232.07Z" transform="translate(-4.65 -10.97)"/><path class="cls-3" d="M107.91,562.6c-7.62,3.32-15.22,4.37-22.26,3a56.35,56.35,0,0,1,22.16-3.1Z" transform="translate(-4.65 -10.97)"/><path class="cls-3" d="M89.79,537.73l10.92,8.38C94.82,547.08,90.91,544.73,89.79,537.73Z" transform="translate(-4.65 -10.97)"/><path class="cls-44" d="M361.38,146.16c-5.08-7-4.85-13.69.62-19,5.16-5,12.55-4.46,16.92,1.15s3.9,15.29-1,20.21c-5.4,5.38-11.25,4.53-16.53-2.4,2.13-2.52,4.47-.79,6.73-.44,4.64.72,7.73-1.47,8.49-6.65.67-4.63-1.25-8.39-5.48-8.87-4.9-.56-7.7,2.91-8.55,8.29C362.14,141,363.55,143.94,361.38,146.16Z" transform="translate(-4.65 -10.97)"/><path class="cls-45" d="M197.73,471.8c.09,2.59-1,3.64-2.41,4.27a4,4,0,0,1-4.93-.73c-.59-3.27,1.64-2.83,3.23-3.1C195,472,196.34,471.94,197.73,471.8Z" transform="translate(-4.65 -10.97)"/><path class="cls-2" d="M620.57,546.51c5.52,7.3,10.74,1.32,16-.46,5.39.47,11.12-1.47,16.12,1.15,7.68,4,10.2,1.2,9.59-7.54.35,9.9,4.52,17.48,10.3,24.72,4,4.94,6.46,11.41,9.39,17.35,6.55,13.28,4.2,25.51-3.76,36.95l-14.07,2.56c-4.89-6.5-2.46-14.29-2.78-21.52-.53-11.78-1-12.88-11.28-13.35a288.54,288.54,0,0,0-35,.32c-6.18.47-8.43,3.55-8.29,10.19s.15,13.58,0,20.37c-.11,4,.41,8.27-2.79,11.32L591.66,625c-15.89-15.08-13.21-29.52-1.58-53.59C596.55,558,607.48,550.22,620.57,546.51Z" transform="translate(-4.65 -10.97)"/><path class="cls-46" d="M816.13,382.29c-7.52-3.32-7-11.43-7.39-18.07-.42-7.53,5.51-11.56,10-16,1.09-1.07,2.33-.58,2.91.86,1.27,3.14,4.24,4.37,5.78,7.51,5.66,11.53,5.87,11.39,1.53,31.32C822.32,393,819.22,387.63,816.13,382.29Z" transform="translate(-4.65 -10.97)"/><path class="cls-2" d="M374.12,555.64c13.25-2.6,26.61-1.5,39.93-1.52,10.66,3.23,22.68,2,31.12,12.42a11.91,11.91,0,0,1-.05,7,9.16,9.16,0,0,1-6.78,7.35c-24.86,7.08-49.67,8.42-74.27-1.36-3.63-1.44-7.41-3-9.23-7.49-.93-3.93-.34-7.25,3-9.43C362.2,557.05,368.52,557.41,374.12,555.64Z" transform="translate(-4.65 -10.97)"/><path class="cls-2" d="M357.84,562.58a15.15,15.15,0,0,0-1.82,8.21,11.41,11.41,0,0,0,5.22,11.6c1.75,1.21,5.17,1.48,3.27,5.57-3.64,4-8.29,1.8-12.48,2.44-1.17.3.62,2,.09.8-.27-.6-.12-.85.43-.9,5.16-.48,10,1.73,15,2.5,6.93,1.06,13.65.61,20.12-2.68,11.83,1.6,23.35-2.36,35.1-2.46,3.24,0,6.6-1.6,9.39,1.59.55,1.48.75,3.82,1.71,4.33,12,6.34,9.05,17.65,7.65,28.49-13.25,4.18-26.44,7.81-40.41,8.43-18.18.81-35.18-3.65-52-10.55,0-1.35,0-2.71,0-4.06,3.71-2.87,6.87,0,10.18,1.24,23.32,8.52,46.79,8.12,70.32,1.44,2.77-.79,5.85-1.57,7.87-6.18-6,.94-10.84,3.77-16,5-2.65.6-6.13,1.33-7.18-2-1.1-3.56,2.25-5,4.64-6.42,2.57-1.48,5.45-2.4,8.76-7.2-17.75,7.45-34.23,6.89-50.71,6.74-10.64-.1-21.07-1.11-30.64-7a5.7,5.7,0,0,0-6.78.09c-3.36-8.73-1.16-15.72,6.48-18.85,5.34-2.19,6.79-5.52,6.63-11.16C352.61,567.35,352.83,563.13,357.84,562.58Z" transform="translate(-4.65 -10.97)"/><path class="cls-3" d="M432.13,589.25c-9.77,1.25-19.53,2.54-29.31,3.75-5.53.69-11.07,1.07-16.39-1.47-1.91,2-4.29,1.69-6.59,1.75-5.17.09-10.29,0-14.31-4.53-.19-.48-.38-1-.58-1.44-5.1-4-15.35-4.49-8.93-16.52,9.83,9.69,22.14,11.23,34.19,12,14.6,1,29.28.94,43.72-3.55,4.25-1.32,7.89-2.62,10.7-6.41,3.92,10.51-3.87,12.3-9.24,15.89Z" transform="translate(-4.65 -10.97)"/><path class="cls-3" d="M435.39,588.75c3.19-5.22,12-6.25,9.24-15.89l.54-6.32C449.28,580.32,446.94,585.63,435.39,588.75Z" transform="translate(-4.65 -10.97)"/><path class="cls-3" d="M339.62,601.55c-.49-6.08.88-8.32,5.93-3.93,7.28,6.34,16.13,7.69,24.71,7.78,19.36.18,39.1,3,57.49-7.3a3.05,3.05,0,0,1,3.18.61c.51.7.19,2.52-.22,3.64a11.94,11.94,0,0,1-6.87,7.54c-2.91,1.19-6.62.91-8.91,5.28,7,1.12,12.3-3.62,18.24-4.72,2.48-.46,6.05-4,7.71.67s-1.46,6.35-4.91,7.87c-18.13,8-36.91,8.14-55.87,6.31-10.79-1-20.92-5.07-31-9.41C350.47,607.27,340.37,608.4,339.62,601.55Z" transform="translate(-4.65 -10.97)"/><path class="cls-2" d="M424.79,660.72c.94,1.26,6,.87,3,2.56-4.25,2.42-9.83,7.54-15.47,1.91A17.74,17.74,0,0,1,424.79,660.72Z" transform="translate(-4.65 -10.97)"/><path class="cls-5" d="M604,628.57c.12-12.25.46-24.51.25-36.75-.1-6.23,1.89-8.28,7.34-8.16,14.43.33,28.88.5,43.29-.06,7.55-.29,10,2.68,9.43,11.08-.6,8.8-.1,17.7-.08,26.56-5.83,2.1-10.13,6.81-14.69,11.07-12.32-.07-24.64-.11-37-.23C609.36,632.05,605.73,633.15,604,628.57Z" transform="translate(-4.65 -10.97)"/><path class="cls-3" d="M361.38,146.16c-.45-5.14-3.17-10.3,1.28-15.19,3.74-4.12,7.79-5.5,12.11-2.48,4.62,3.24,6,8.32,3.56,14.13-2.25,5.36-6.11,7.06-11.09,5.59-2-.59-3.92-1.37-5.88-2.06Z" transform="translate(-4.65 -10.97)"/><path class="cls-2" d="M379.8,591.47c-5.64,1.68-11.79,5.71-14.86-4.22C369.74,589.37,374.51,591.58,379.8,591.47Z" transform="translate(-4.65 -10.97)"/><path class="cls-3" d="M633.45,602.52c2,.16,3.41,1.09,3.46,3.68,0,2.41-1,4-3,4.2-2.34.18-4.14-1-4-4.15A3.54,3.54,0,0,1,633.45,602.52Z" transform="translate(-4.65 -10.97)"/><path class="cls-47" d="M727,160.38c2.44,0,4.89,0,7.33,0a5.17,5.17,0,0,0,0-10.34c-2.55-.06-5.11.23-7.65-.3-7-1.43-12.34-8.15-12.66-15.94-.36-8.56,4.13-15.92,11.17-18,1.29-.39,1.58-1,1.51-2.32-.09-1.61-.07-3.22,0-4.83.12-3.34,2.51-6,5.41-6s5.34,2.61,5.48,5.91a49.44,49.44,0,0,1,0,5c-.08,1.26.33,1.5,1.34,1.45,1.76-.09,3.52,0,5.28,0a5.85,5.85,0,0,1,6.1,6.16c0,3.72-2.36,6.18-6,6.2-4.77,0-9.55,0-14.32,0a4.76,4.76,0,0,0-5,4.78c-.16,3.18,1.76,5.44,4.67,5.55,2.66.1,5.33-.23,8,.3,6.95,1.39,12.34,8.14,12.67,15.93.36,8.55-4.15,16-11.16,18.07-1.29.38-1.59,1-1.52,2.31.09,1.54.05,3.09,0,4.63-.09,3.45-2.47,6.15-5.43,6.17s-5.37-2.69-5.48-6.11c0-.32,0-.64,0-1-.09-1.72.66-4.07-.29-5s-2.92-.25-4.44-.29a23.09,23.09,0,0,1-3.23-.11c-3-.5-4.92-3.24-4.71-6.66a5.67,5.67,0,0,1,5.33-5.59H727Z" transform="translate(-4.65 -10.97)"/><path class="cls-47" d="M820.71,212.9c1.52,0,3,0,4.56,0a3.22,3.22,0,0,0,0-6.44,26.12,26.12,0,0,1-4.76-.19c-4.35-.89-7.69-5.07-7.89-9.92-.22-5.34,2.57-9.92,7-11.24.8-.25,1-.62.94-1.45,0-1,0-2,0-3a3.4,3.4,0,1,1,6.78,0,29.52,29.52,0,0,1,0,3.12c0,.79.21.94.83.91,1.1-.06,2.2,0,3.29,0a3.64,3.64,0,0,1,3.8,3.84,3.58,3.58,0,0,1-3.75,3.86c-3,0-5.94,0-8.92,0a3,3,0,0,0-3.13,3,3,3,0,0,0,2.91,3.46,31.74,31.74,0,0,1,5,.19c4.33.86,7.69,5.07,7.9,9.92.22,5.33-2.59,9.95-7,11.25-.81.24-1,.6-1,1.44s0,1.92,0,2.88a3.42,3.42,0,1,1-6.79,0c0-.2,0-.4,0-.6,0-1.07.41-2.53-.18-3.1s-1.82-.15-2.77-.18a13.46,13.46,0,0,1-2-.07,3.69,3.69,0,0,1-2.93-4.14,3.52,3.52,0,0,1,3.32-3.48h4.78Z" transform="translate(-4.65 -10.97)"/><path class="cls-47" d="M772.5,264.49h2.72a1.92,1.92,0,0,0,0-3.84,15,15,0,0,1-2.84-.11,6.22,6.22,0,0,1-4.7-5.92c-.13-3.17,1.53-5.91,4.15-6.7.48-.14.58-.36.56-.86s0-1.19,0-1.79a2,2,0,1,1,4,0c0,.62,0,1.25,0,1.87,0,.46.13.55.5.53.65,0,1.31,0,2,0a2.16,2.16,0,0,1,2.26,2.28,2.12,2.12,0,0,1-2.23,2.3h-5.32a1.76,1.76,0,0,0-1.86,1.77,1.82,1.82,0,0,0,1.73,2.07,17.36,17.36,0,0,1,3,.11,6.21,6.21,0,0,1,4.7,5.91c.14,3.18-1.54,5.93-4.14,6.71-.48.14-.59.36-.57.85s0,1.15,0,1.72a2,2,0,1,1-4,0c0-.12,0-.24,0-.36,0-.64.24-1.51-.11-1.85s-1.08-.09-1.65-.1a9.55,9.55,0,0,1-1.2,0,2.2,2.2,0,0,1-1.75-2.47,2.1,2.1,0,0,1,2-2.07h2.85Z" transform="translate(-4.65 -10.97)"/><path class="cls-47" d="M412.84,572.12c.14-.91.29-1.79.4-2.67.13-1.09-1.25-2-3.52-2.29s-3.88.16-4.18,1.21a8.15,8.15,0,0,1-.86,2.74c-1.76,2.51-7.71,3.91-14.08,3.17-7.05-.81-12.23-3.4-12.59-6.29-.06-.51-.48-.68-1.54-.8-1.28-.14-2.54-.33-3.8-.52-2.61-.41-4.14-1.54-3.53-2.56s3.12-1.52,5.65-1.22c1.27.16,2.55.33,3.79.54.93.16,1.19.05,1.32-.29a14.67,14.67,0,0,1,.88-1.72c.62-1.15,2.79-1.64,5.42-1.28s4.12,1.36,3.65,2.53c-.64,1.57-1.34,3.18-2,4.86-.43,1.06.75,2,3,2.34,2.47.41,4.47-.06,4.91-1.11a9.49,9.49,0,0,1,1.14-2.77c1.76-2.17,7.1-3.21,12.63-2.53,6,.74,11.1,2.94,12.42,5.51.26.49.68.66,1.65.77,1.13.12,2.25.29,3.37.47,2.51.38,4.48,1.5,4.54,2.57s-2,1.73-4.54,1.42c-.24,0-.49-.08-.73-.1-1.3-.15-3.06-.68-3.77-.41s-.25,1.09-.32,1.68a4.56,4.56,0,0,1-.16,1.27c-.46,1.17-2.7,1.66-5.41,1.2-2.5-.42-4.21-1.58-4.15-2.77,0,0,0-.09,0-.13Q412.63,573.5,412.84,572.12Z" transform="translate(-4.65 -10.97)"/><path class="cls-47" d="M390.9,595.86c.12-.74.27-1.47.36-2.18.12-.89-1.21-1.62-3.39-1.9s-3.73.1-4,1A5.65,5.65,0,0,1,383,595c-1.67,2-7.38,3.14-13.51,2.49-6.79-.71-11.78-2.87-12.14-5.23-.06-.42-.47-.56-1.49-.67-1.23-.12-2.45-.28-3.65-.45-2.51-.36-4-1.29-3.41-2.12s3-1.22,5.42-1c1.23.13,2.45.28,3.64.46.9.14,1.15,0,1.28-.23a12.43,12.43,0,0,1,.83-1.39c.59-.93,2.67-1.33,5.21-1s4,1.15,3.52,2.1c-.6,1.27-1.27,2.58-1.9,3.95-.4.87.74,1.63,2.88,1.94,2.37.35,4.29,0,4.7-.87a7,7,0,0,1,1.09-2.26c1.68-1.76,6.8-2.57,12.12-2,5.8.65,10.69,2.48,12,4.59.24.4.65.54,1.59.64s2.16.26,3.24.41c2.41.33,4.32,1.26,4.37,2.14s-1.87,1.39-4.35,1.12l-.7-.09c-1.25-.13-2.95-.57-3.63-.36s-.23.89-.29,1.37a3.36,3.36,0,0,1-.15,1c-.44,1-2.59,1.33-5.2.94-2.4-.37-4.05-1.32-4-2.29a.36.36,0,0,1,0-.11C390.64,597.38,390.77,596.61,390.9,595.86Z" transform="translate(-4.65 -10.97)"/></svg>