<svg width="865" height="642" viewBox="0 0 865 642" fill="none" xmlns="http://www.w3.org/2000/svg">
<g clip-path="url(#clip0_1175_451)">
<path d="M9.85156 335.607C13.9135 334.574 13.2446 330.744 13.5851 328.167C19.1383 286.555 30.6602 245.96 47.7955 207.633C60.4192 179.183 76.4359 152.849 96.7456 129.409C121.531 100.777 151.083 78.5034 187.203 65.5187C201.217 60.5116 215.561 56.4817 230.133 53.458C231.957 55.8288 230.34 58.1024 229.853 60.3759C224.819 83.6462 229.853 104.059 247.123 120.947C277.709 150.843 330.502 139.719 346.507 100.084C347.358 98.0047 347.309 95.0868 350.483 94.6248C350.565 95.4318 350.807 96.2143 351.195 96.9263C351.584 97.6383 352.111 98.2654 352.746 98.7707C376.874 119.889 398.959 143.232 424.365 162.977C424.514 163.153 424.701 163.295 424.911 163.393C425.121 163.49 425.349 163.541 425.581 163.541C425.812 163.541 426.041 163.49 426.251 163.393C426.461 163.295 426.647 163.153 426.797 162.977C423.367 157.992 419.804 153.019 416.448 147.901C397.792 119.354 395.104 89.5428 408.883 58.1388C423.209 25.4583 449.648 9.1545 483.068 2.52842C522.715 -5.33776 558.117 5.55575 590.163 28.899C598.323 34.8321 605.45 42.1268 612.272 49.5675C632.023 71.1722 656.674 82.9775 685.363 87.5611C703.496 90.4546 721.483 94.3695 737.743 103.573C747.35 109.008 755.644 115.731 760.85 125.98C769.168 142.588 766.541 158.454 758.198 173.809C747.448 193.59 729.424 204.289 708.956 211.669C687.224 219.511 664.53 222.855 641.8 226.04C638.432 226.502 635.172 227.645 631.67 228.119L668.081 232.228C668.337 235.341 665.905 236.873 664.129 238.684C658.34 244.629 652.515 250.55 646.519 256.277C643.43 259.219 642.871 261.456 646.215 264.787C653.305 271.985 653.147 272.143 648.903 280.957C648.174 282.175 647.586 283.472 647.151 284.824C645.534 292.118 641.241 295.45 633.652 294.55C629.906 294.088 628.094 295.863 628.143 299.827C628.253 309.334 628.277 318.842 628.143 328.349C628.143 332.689 630.089 333.82 634.078 333.905C644.026 334.1 644.026 334.246 647.346 343.303C647.611 344.281 647.982 345.227 648.453 346.124C652.782 352.835 652.831 358.805 646.02 364.069C643.248 366.197 643.588 368.871 646.02 371.364C652.588 377.966 659.216 384.507 665.746 391.133C668.677 394.099 671.462 394.099 673.943 390.938C678.698 384.859 684.086 384.434 690.325 388.507C691.889 389.457 693.592 390.158 695.372 390.586C701.635 392.288 704.408 396.251 703.617 402.743C703.009 407.813 705.357 409.503 710.306 409.345C719.196 409.066 728.111 409.126 737.062 409.345C741.561 409.455 743.045 407.643 743.142 403.266C743.276 393.747 743.471 393.747 752.677 390.513C753.663 390.276 754.618 389.925 755.523 389.467C762.418 385.017 768.584 384.798 773.862 392.117C775.638 394.549 777.924 394.209 780.04 392.117C787.208 384.969 794.367 377.82 801.518 370.671C804.145 368.045 803.95 365.479 801.177 363.473C794.586 358.61 794.537 353.103 798.745 346.744C799.591 345.357 800.207 343.842 800.569 342.258C802.186 336.045 805.92 333.054 812.512 333.966C817.559 334.671 819.371 332.373 818.994 327.352C818.325 318.27 818.41 309.115 818.507 300.058C818.507 297.626 818.24 295.194 820.003 293.103C822.825 298.854 821.292 304.981 821.134 310.866C820.848 317.102 822.812 323.233 826.668 328.142C846.613 354.89 857.923 385.175 862.775 418.111C868.297 455.582 864.32 492.177 852.487 527.812C842.088 559.119 826.728 587.897 803.33 611.775C801.712 613.428 800.289 615.045 800.63 617.55C798.125 618.267 796.385 616.614 794.549 615.434C762.309 594.255 728.062 593.404 692.477 605.137C685.351 607.483 678.942 611.41 671.9 613.903C669.589 614.231 667.303 614.486 665.467 612.602C664.384 609.805 666.683 608.662 668.264 607.422C671.547 604.906 674.637 602.146 677.993 599.751C681.824 596.419 685.436 592.809 689.486 589.708C692.976 587.034 695.044 582.182 700.431 582.474C750.537 595.058 791.801 577.04 830.644 545.66C825.245 542.815 820.915 542.864 816.549 542.608C784 540.45 751.575 548.354 723.672 565.247C722.154 566.271 720.425 566.941 718.613 567.204C718.135 567.242 717.656 567.149 717.227 566.935C716.798 566.721 716.436 566.393 716.18 565.988C715.961 560.943 721.045 559.605 723.088 556.189C723.982 555.023 725.124 554.072 726.432 553.405C778.885 535.265 815.005 499.423 838.562 449.941C786.267 466.682 749.661 500.761 727.345 550.645C726.445 552.882 724.511 554.292 723.027 556.043C719.719 560.055 715.584 563.338 712.568 567.593C712.118 568.387 711.425 569.015 710.591 569.385C709.756 569.755 708.825 569.847 707.935 569.648C707.508 569.516 707.134 569.252 706.867 568.893C706.6 568.535 706.454 568.101 706.451 567.654C710.708 558.815 716.46 550.766 720.133 541.599C721.164 539.44 721.979 537.184 722.565 534.864C727.162 524.578 735.31 516.846 742.023 508.116C753.188 493.612 764.607 479.29 775.954 464.907C777.17 463.351 778.739 461.94 778.897 459.764C776.854 455.302 773.096 453.977 768.548 453.953C759.925 453.953 751.291 453.953 742.656 453.953C740.224 453.953 737.791 454.123 735.517 453.223C730.652 449.15 732.635 442.573 729.801 437.527C724.158 442.05 723.003 450.208 716.229 453.564C708.409 454.366 700.528 454.366 692.708 453.564C691.492 453.369 690.446 452.98 689.291 452.725C683.393 451.436 682.785 450.293 684.718 444.214C685.475 443.249 686.563 442.599 687.771 442.391C691.261 441.758 691.152 439.679 690.203 437.005C689.072 433.746 687.637 430.622 686.555 427.375C685.339 423.728 684.122 421.151 678.869 422.281C673.615 423.412 668.057 416.202 669.614 410.658C670.416 407.813 669.529 406.622 667.182 405.443C663.752 403.667 660.079 402.512 656.589 400.92C654.156 399.704 652.089 397.965 649.523 401.588C645.388 407.449 637.69 406.671 633.056 400.47C632.314 398.695 631.147 398.123 629.298 398.95C627.695 399.77 625.875 400.068 624.093 399.801C621.661 398.16 617.854 398.585 617.015 394.719C616.857 391.935 618.523 389.747 619.448 387.327C620.724 384.045 622.378 381.309 618.949 377.601C615.909 374.343 618.207 370.403 621.308 367.571C622.707 364.081 619.812 361.492 619.375 358.44C618.742 354.087 615.13 355.23 612.43 354.379C610.962 353.982 609.676 353.089 608.789 351.853C607.903 350.617 607.471 349.113 607.566 347.595C607.456 342.866 598.481 338.282 594.662 341.03C590.844 343.777 587.451 343.656 583.717 340.702C580.336 338.015 570.449 341.735 570.181 345.832C569.841 351.097 567.287 353.601 562.179 353.48C559.844 353.48 559.041 354.89 558.19 356.507C555.989 360.799 553.508 364.847 557.935 369.552C559.516 371.23 558.64 374.16 557.193 376.373C553.107 382.598 556.232 389.747 563.565 391.181C563.956 391.289 564.326 391.462 564.66 391.692C567.19 393.747 569.415 395.838 568.625 399.668C568.041 402.452 570.887 402.44 572.395 403.473C575.727 404.385 578.561 407.12 582.416 406.087C589.117 404.312 589.457 410.707 591.659 413.965C593.179 416.227 594.504 418.889 595.951 421.357C596.219 425.685 593.519 428.92 591.817 432.53C590.406 435.57 590.029 437.771 593.215 440.299C597.545 443.74 597.387 447.728 593.702 452.117C582.575 453.197 571.374 453.274 560.233 452.348C556.998 447.205 552.766 448.944 548.339 450.415C512.84 462.208 485.282 484.299 464.096 514.852C462.418 517.283 461.469 521.065 457.116 520.177C456.422 514.378 460.424 509.843 461.372 504.481C461.863 503.337 462.424 502.225 463.05 501.15C478.51 486.727 491.352 469.734 501.007 450.925C512.759 428.222 520.183 403.53 522.897 378.111C523.615 371.352 524.867 364.604 523.518 356.665C513.983 365.504 505.385 373.868 498.246 383.692C477.316 412.433 466.358 444.81 462.977 479.946C462.357 486.378 462.905 492.882 462.783 499.399C462.693 500.657 462.388 501.891 461.883 503.046C460.083 509.125 457.164 514.815 456.045 521.125C455.907 522.219 455.509 523.264 454.885 524.173C454.261 525.083 453.429 525.83 452.458 526.353C450.257 526.001 450.597 524.043 450.025 522.621C454.917 491.239 451.01 459.115 438.74 429.819C435.054 420.597 430.424 411.78 424.924 403.509C422.565 400.044 420.522 396.215 417.226 393.345C405.77 421.248 411.814 483.74 448.067 521.21C450.196 523.107 450.67 525.952 452.117 528.25C452.39 529.085 452.453 529.974 452.3 530.839C451.97 532.203 451.564 533.546 451.084 534.864C450.694 535.909 450.244 536.931 449.867 537.976C447.435 544.444 444.565 550.766 441.95 557.186C440.941 559.095 440.077 561.113 438.022 562.207C437.432 562.447 436.794 562.543 436.16 562.488C435.526 562.433 434.913 562.228 434.374 561.891C433.926 561.43 433.567 560.89 433.316 560.298C430.616 547.703 428.39 534.998 423.878 522.827C418.755 509.238 412.2 496.233 404.323 484.031C401.392 475.375 400.674 466.257 398.996 457.369C397.33 448.859 394.97 440.482 393.134 431.995C389.85 416.859 379.683 407.108 367.595 398.853C359.031 392.84 349.98 387.554 340.535 383.048C337.994 381.722 335.452 380.409 332.971 378.987C329.529 377.346 325.783 376.093 324.3 372.02C323.51 370.338 323.227 368.463 323.485 366.622C324.348 364.191 326.221 363.303 328.617 363.169C335.634 364.324 342.688 365.601 347.54 358.306C354.254 353.103 360.748 347.704 365.211 340.288C366.148 338.732 367.303 337.261 369.358 337.042C378.163 338.039 384.925 334.015 389.364 327.097C398.862 312.276 401.635 296.702 392.343 280.435C391.801 279.582 391.372 278.662 391.066 277.699C390.446 273.93 392.283 270.672 393.316 267.268C396.843 255.681 398.838 243.949 397.172 231.815C395.153 218.624 388.817 207.499 380.413 197.469C374.223 188.642 365.454 183.56 355.36 180.557C352.617 179.918 349.948 178.997 347.394 177.809C345.655 177.129 343.928 176.448 342.238 175.67C323.607 169.262 304.926 168.095 286.173 175.123C273.367 181.043 261.85 188.496 253.045 199.961C242.1 214.198 237.953 230.587 236.834 248.034C236.165 258.38 237.515 268.605 239.266 278.781C239.643 282.173 239.424 285.359 236.275 287.559C234.971 288.106 233.587 288.435 232.176 288.532C221.231 289.893 214.834 295.596 212.803 306.866C210.663 318.72 205.506 322.343 193.442 322.452C189.611 322.452 185.768 322.452 181.937 322.635C168.231 323.462 159.925 331.522 154.221 343.133C150.645 345.662 149.563 342.489 148.396 340.349C145.039 334.148 142.047 327.741 138.095 321.796C124.717 351.413 123.574 413.418 159.706 463.703C161.384 466.342 161.396 469.296 161.384 472.214C161.411 472.997 161.382 473.781 161.299 474.56C161.104 476.104 161.202 477.989 159.548 478.645C157.517 479.46 156.386 477.673 155.206 476.408C154.549 475.691 153.99 474.84 153.406 474.098C152.822 473.357 152.02 472.202 151.387 471.229C149.531 468.514 147.525 465.904 145.379 463.412C143.67 461.48 142.423 459.185 141.731 456.7C124.097 410.914 92.708 377.418 50.1427 354.051C39.1689 347.974 27.594 343.052 15.604 339.364C13.3906 338.708 10.5691 338.622 9.85156 335.607Z" fill="#CFC3F4"/>
<path d="M819.78 292.945C819.865 305.432 819.78 317.93 820.194 330.404C820.352 334.343 819.172 336.009 815.633 335.328C806.67 333.565 803.63 338.404 800.2 345.869C796.552 353.735 796.394 358.987 803.849 363.863C806.561 365.638 806.816 367.619 804.153 370.173C795.842 378.189 787.682 386.351 779.672 394.659C777.361 397.09 775.695 397.09 773.943 394.501C768.896 387.206 762.998 385.248 755.494 391.133C754.806 391.575 754.013 391.831 753.196 391.875C745.899 392.774 743.309 396.944 744.573 404.032C745.498 409.175 743.649 411.193 738.055 410.938C727.949 410.464 717.806 410.659 707.651 410.865C703.674 410.95 701.157 410.063 702.057 405.589C703.808 396.847 699.843 392.409 691.549 390.999C691.163 390.881 690.791 390.717 690.443 390.513C681.175 386.464 681.066 386.343 673.939 393.479C671.094 396.324 669.075 396.969 665.986 393.747C658.689 386.136 651.222 378.72 643.645 371.413C640.787 368.653 640.459 366.258 643.718 363.996C650.833 359.133 651.988 353.334 646.661 346.416C646.534 346.253 646.45 346.061 646.418 345.857C645.494 336.592 640.045 333.905 631.508 335.45C627.945 336.082 626.461 334.55 626.534 330.732C626.728 319.79 626.704 308.848 626.534 297.906C626.534 294.368 627.434 292.325 631.277 292.97C639.437 294.331 644.959 291.912 646.163 282.964C646.284 282.58 646.46 282.216 646.685 281.882C651.295 272.24 651.441 272.082 643.511 264.435C640.361 261.396 640.702 259.766 643.694 256.885C652.012 248.897 659.966 240.533 668.017 232.314C671.592 229.469 672.65 234.028 675.034 234.745C679.826 239.122 685.177 239.609 691.002 237.177C692.81 236.286 694.716 235.609 696.681 235.159C701.06 234.624 702.166 232.338 702.105 228.156C701.972 217.627 702.105 217.627 712.686 217.627C721.6 217.627 730.527 217.797 739.441 217.554C743.455 217.432 745.254 218.855 744.537 222.77C743.102 230.685 746.568 233.797 753.974 237.007C762.743 240.824 768.969 241.87 774.552 233.238C775.841 231.232 777.422 231.438 779.051 233.031C787.808 241.663 796.673 250.174 805.308 258.94C807.631 261.298 804.955 262.806 803.387 264.289C796.09 271.171 797.306 270.867 799.519 280.094C802.389 291.657 809.017 294.842 819.78 292.945Z" fill="#7F61DB"/>
<path d="M350.529 94.625C342.211 117.579 326.754 133.153 302.564 138.175C254.453 148.193 214.466 103.075 229.352 56.3396C229.656 55.3913 229.863 54.4187 230.118 53.4582C238.206 35.4036 250.89 21.9813 270.081 16.1455C293.382 9.05738 314.823 13.4099 332.688 30.1636C350.554 46.9172 356.282 67.7559 350.931 91.6463C350.748 92.6311 350.639 93.628 350.529 94.625Z" fill="#AE8DFF"/>
<path d="M692.2 451.935H717.617C719.786 450.793 722.223 450.255 724.671 450.378C725.717 450.378 726.763 450.378 727.796 450.378C730.229 450.378 732.746 450.245 734.814 451.959C747.06 452.129 759.295 452.324 771.541 452.47C776.917 452.53 779.787 455.424 780.894 460.433C775.469 461.466 769.948 461.102 764.536 460.859C734.595 459.533 704.629 459.716 674.663 459.74C639.638 459.74 604.637 458.038 569.612 458.354C562.923 458.415 559.019 460.688 555.273 466.135C522.623 513.697 489.937 561.234 457.215 608.748C456.436 609.878 455.415 610.9 455.342 612.395C456.984 613.927 458.905 613.295 460.62 613.27C502.127 612.748 543.634 614.012 585.142 614.182C605.184 614.28 625.275 614.328 645.268 614.523C647.701 614.523 650.133 614.401 652.456 615.386C655.289 620.407 659.838 620.991 665.031 620.577C669.603 620.213 674.225 620.675 678.834 620.334C690.996 620.496 703.157 620.541 715.319 620.468C729.475 620.468 743.618 620.468 757.774 620.468C767.869 620.468 777.963 620.468 788.069 620.468C790.647 620.468 793.383 620.067 795.487 622.207C801.288 622.292 807.102 622.523 812.903 622.401C816.125 622.328 817.974 623.143 817.439 626.717C816.697 631.653 819.02 636.857 816.15 641.611C815.633 641.025 815.221 640.355 814.934 639.629C814.374 637.475 814.144 635.249 814.253 633.027C813.997 626.061 813.535 625.477 806.481 625.453C785.065 625.355 763.649 625.453 742.244 625.453H661.674C658.017 625.609 654.353 625.425 650.729 624.906C647.384 623.799 643.931 624.018 640.489 624.018C547.096 624.018 453.704 624.018 360.312 624.018C357.113 624.018 353.793 624.687 350.765 622.985C347.117 616.492 347.931 611.811 353.027 609.125C358.974 609.757 364.933 610.34 370.88 609.015C371.913 608.761 372.968 608.602 374.03 608.541C378.895 608.444 383.869 608.006 388.758 608.991C392.272 611.033 395.702 609.514 399.192 608.808C401.769 608.433 404.376 608.319 406.976 608.468C417.07 608.371 427.176 608.468 437.27 608.383C440.687 608.383 444.226 608.517 446.756 605.514C456.242 593.161 464.694 580.079 473.633 567.326C481.635 555.848 489.443 544.225 497.555 532.821C502.006 525.891 507.065 519.375 511.492 512.42C523.811 494.694 536.119 477.15 548.195 459.436C549.751 457.069 551.462 454.807 553.315 452.664C554.531 451.229 555.93 449.284 558.35 450.962L594.932 450.877C595.368 450.544 595.87 450.306 596.404 450.178C596.938 450.051 597.493 450.036 598.033 450.135C606.704 451.047 615.436 449.807 624.095 450.865C633.163 452.188 642.379 452.143 651.434 450.731C665.055 450.22 678.664 449.71 692.2 451.935Z" fill="#7F61DB"/>
<path d="M9.84906 335.608C27.3008 341.517 44.3878 348.204 60.1491 357.942C97.412 381.042 125.274 412.057 141.777 452.896C142.222 454.229 142.58 455.589 142.847 456.969C139.831 457.941 138.98 455.157 137.74 453.674C104.546 414.152 65.9562 379.495 23.1051 350.72C21.2687 349.504 19.1648 348.702 18.2405 347.742C53.0832 370.076 85.1288 397.212 114.389 427.571C123.085 436.58 131.416 445.941 139.345 455.656C140.561 457.09 142.555 458.427 141.461 460.883C138.81 462.099 136.742 460.446 134.651 459.4C97.7525 441.017 64.0286 418.185 35.7531 387.911C27.7051 379.077 20.2308 369.737 13.3759 359.948C12.1158 357.874 11.0958 355.663 10.3355 353.359L0.046875 335.122C3.9264 333.176 6.73571 336.082 9.84906 335.608Z" fill="#AE8DFF"/>
<path d="M10.2388 353.37C21.5855 369.175 33.5402 384.385 47.7449 397.771C73.8313 422.354 103.651 441.442 135.733 457.004C136.288 457.196 136.864 457.318 137.448 457.369C140.014 456.907 140.562 459.241 141.887 460.53C142.994 463.217 146.995 464.749 145.159 468.627C143.965 469.123 142.628 469.153 141.413 468.713C118.635 457.109 93.8454 449.974 68.383 447.691C53.1236 446.364 37.7548 447.1 22.6922 449.88C20.0653 450.366 17.2924 451.4 14.8358 449.248C11.9171 439.91 11.0293 430.16 10.3117 420.555C9.09558 404.239 7.87943 387.85 9.33881 371.437C9.87392 365.431 10.0077 359.4 10.2388 353.37Z" fill="#CFC3F4"/>
<path d="M80.8835 576.031C74.4987 575.557 68.1139 575.205 61.7412 574.548C58.2995 574.208 57.0347 572.749 59.9535 569.685C63.1033 566.341 66.0342 562.755 68.9895 559.278C70.3482 556.11 72.5166 553.355 75.277 551.29C101.595 529.077 131.633 515.558 166.136 512.482C170.076 512.141 174.016 510.318 177.981 512.397C179.526 515.594 176.412 515.631 174.989 516.336C159.982 523.862 145.048 531.521 129.992 538.852C112.455 547.363 94.9178 555.873 77.5147 564.627C103.443 551.57 129.748 539.278 155.64 526.147C161.721 523.035 168.021 520.141 174.138 516.992C175.512 516.275 176.984 515.229 178.65 516.494C179.696 518.512 178.65 520.032 177.434 521.418C161.21 539.91 144.598 557.965 121.381 568.007C109.11 573.32 96.511 577.867 82.6712 575.557C82.0373 575.491 81.4012 575.66 80.8835 576.031Z" fill="#AE8DFF"/>
<path d="M106.182 612.626C96.8059 611.253 87.3686 610.098 78.2109 605.854C82.2242 600.31 88.1712 597.344 92.7196 592.979C97.9491 586.086 105.842 582.937 113.175 579.423C137.425 567.812 163.038 562.074 190.073 563.423C192.091 563.521 194.135 563.423 195.971 564.493C196.754 565.164 197.333 566.043 197.641 567.028C197.948 568.012 197.972 569.064 197.71 570.061C197.143 570.912 196.273 571.516 195.278 571.751C169.739 579.435 145.306 590.171 119.609 597.283C110.938 599.715 102.096 601.344 93.4128 603.629C92.6831 604.043 93.9115 604.712 93.4128 604.079C93.2182 603.848 93.3034 603.629 93.7047 603.557C126.979 597.344 158.051 584.104 189.987 573.551C192.42 572.736 194.852 571.545 197.588 572.031C199.875 573.709 200.179 575.885 199.23 578.402C178.799 596.566 156.093 610.341 128.377 613.842C121.019 614.778 113.601 612.906 106.182 612.626Z" fill="#AE8DFF"/>
<path d="M43.0642 519.339C37.2875 517.54 31.1702 516.749 24.9922 513.649L36.874 505.771C38.455 502.658 41.4589 501.248 44.329 499.813C72.4951 485.844 102.133 477.686 133.74 477.504C139.614 477.504 145.501 477.443 151.375 477.504C155.023 477.504 158.672 477.783 161.907 479.814C162.163 480.032 162.356 480.315 162.463 480.635C162.57 480.954 162.588 481.296 162.515 481.625C156.592 486.051 149.417 487.704 142.655 490.136C114.567 500.224 85.3262 506.759 55.6149 509.588C70.2938 509.078 105.818 502.075 127.66 495.303C136.55 492.543 145.343 489.576 153.929 485.99C155.716 485.248 157.577 484.203 159.717 485.114C160.532 488.482 157.784 489.686 155.838 491.193C133.932 508.806 107.393 519.701 79.4271 522.561C69.6006 523.619 60.0781 522.561 50.4219 522.014C47.7926 521.715 45.2713 520.799 43.0642 519.339Z" fill="#AE8DFF"/>
<path d="M18.6175 450.44C35.1572 447.777 51.7698 445.71 68.577 446.792C97.3025 448.628 124.629 455.57 149.938 469.613C147.505 472.555 144.599 470.233 142.008 470.172C120.118 469.613 98.2268 467.935 76.4577 465.479C58.5803 463.315 40.7636 460.725 30.8642 458.744C39.5718 460.349 56.075 463.254 72.7849 464.932C92.9001 467.461 113.064 469.224 133.325 469.795C137.375 469.917 141.668 469.114 145.389 471.643C145.109 475.376 141.874 475.108 139.539 475.668C119.862 480.3 99.8686 480.908 79.8386 479.619C63.4327 478.561 47.4282 474.999 31.6668 470.367C27.7514 469.384 24.1066 467.535 21.0012 464.956C14.7502 461.88 7.84243 460.154 1.22656 455.558L18.6175 450.44Z" fill="#AE8DFF"/>
<path d="M41.4375 519.886C65.2969 524.192 89.8849 521.758 112.436 512.859C128.076 506.78 142.475 498.573 154.673 486.865C155.33 484.36 157.373 483.777 159.538 483.388C164.524 483.947 165.935 488.482 168.465 491.667C170.008 493.634 171.269 495.807 172.21 498.123C172.672 502.536 174.983 506.865 172.818 511.4C172.61 511.651 172.324 511.827 172.005 511.9C171.686 511.972 171.352 511.938 171.055 511.801C136.943 512.477 104.015 524.426 77.4113 545.782C73.1304 549.162 69.1536 552.943 65.0308 556.542C62.7566 551.107 58.3177 547.132 55.3624 542.111C50.9964 534.573 46.1197 527.278 41.4375 519.886Z" fill="#CFC3F4"/>
<path d="M195.671 565.065C168.125 563.63 141.698 568.177 116.511 579.654C108.193 583.435 100.701 588.615 92.7354 593.028C89.087 589.587 85.3777 586.22 81.7901 582.682C80.0023 580.882 78.1416 579.508 75.5391 579.618C83.5535 577.831 91.8112 577.904 99.8621 575.764C117.691 571.034 132.856 561.794 146.307 549.588C156.258 540.77 165.287 530.965 173.257 520.324C173.372 520.223 173.508 520.149 173.656 520.109C173.803 520.068 173.958 520.06 174.108 520.087C174.259 520.114 174.402 520.174 174.526 520.264C174.65 520.353 174.752 520.469 174.826 520.603C174.728 530.33 180.079 535.193 189.237 536.712C193.64 542.366 193.202 549.515 195.184 555.91C195.281 558.961 197.933 561.892 195.671 565.065Z" fill="#CFC3F4"/>
<path d="M795.548 622.207L757.847 622.122C757.758 621.979 757.699 621.82 757.675 621.653C757.65 621.487 757.661 621.317 757.705 621.155C757.75 620.992 757.828 620.841 757.934 620.71C758.04 620.58 758.172 620.473 758.322 620.396C767.029 619.532 775.773 619.022 783.423 618.231C780.079 619.216 775.518 618.73 771.043 619.192C746.97 621.694 722.706 621.759 698.621 619.386C691.19 618.669 683.796 617.915 676.426 616.687C674.444 616.359 672.34 616.481 671.087 614.45C670.984 614.122 670.965 613.774 671.03 613.436C671.096 613.098 671.245 612.783 671.464 612.517C689.25 602.459 709.168 596.76 729.584 595.885C753.08 594.912 775.202 600.128 794.891 613.672L800.364 617.417C800.607 620.858 796.776 620.201 795.548 622.207Z" fill="#AE8DFF"/>
<path d="M17.1484 463.376C43.7943 472.798 71.1821 477.589 99.4941 476.203C112.337 475.583 125.179 474.537 137.523 470.464C141.172 468.689 144.881 467.4 148.858 469.552C151.047 472.663 153.401 475.654 155.911 478.513C156.337 480.324 158.1 482.853 153.941 482.282C111.611 477.272 71.8023 485.11 34.5151 505.795C33.8193 506.142 33.1047 506.451 32.3747 506.719C25.9899 492.737 21.5023 478.075 17.1484 463.376Z" fill="#CFC3F4"/>
<path d="M816.087 640.48C816.087 640.857 816.172 641.234 816.209 641.611C813.995 641.696 811.77 641.866 809.556 641.866C559.029 641.866 308.461 641.915 57.8531 642.012C51.9061 642.012 49.8873 640.882 50.2035 634.535C50.8116 622.657 50.3738 622.669 62.4866 622.632C84.7584 622.543 107.026 622.442 129.29 622.328C131.151 620.298 133.668 620.359 136.064 620.347C152.056 620.347 168.036 620.104 184.017 620.444C213.314 619.994 242.599 620.736 271.884 620.335C294.905 620.019 317.939 620.237 340.973 620.335C344.135 620.335 347.516 619.763 350.216 622.219C395.522 622.219 440.827 622.26 486.133 622.341C538.736 622.341 591.33 622.341 643.917 622.341C646.227 622.341 648.781 621.429 650.836 623.459C647.723 626.17 643.904 625.283 640.365 625.283C564.794 625.348 489.23 625.348 413.675 625.283H367.461C365.843 625.283 363.898 624.699 362.657 625.404C351.42 631.848 340.341 625.246 329.213 625.271C328.537 625.44 327.843 625.526 327.146 625.526C317.854 625.344 308.575 624.517 299.259 625.854C295.076 626.462 290.892 624.967 286.623 624.991C263.735 625.149 240.835 624.991 217.947 625.076C212.499 625.076 207.002 624.578 201.724 626.608C200.776 627.017 199.717 627.094 198.72 626.827C187.933 623.058 177.048 626.596 166.212 626.401C131.394 625.757 96.5632 627.204 61.7205 626.328C54.5938 626.146 53.2074 627.958 53.5114 634.231C53.7182 637.611 55.1776 638.802 58.449 638.778C74.8427 638.705 91.2851 638.474 107.642 638.584C126.262 638.705 144.881 638.158 163.5 638.584C181.317 638.997 199.133 638.255 217.011 638.45C239.668 638.693 262.337 638.535 284.994 638.535C302.397 638.535 319.8 638.608 337.203 638.243C344.707 638.073 352.174 638.778 359.678 638.766C388.221 638.693 416.776 637.806 445.319 638.268C509.775 639.301 574.134 638.559 638.541 638.693C690.382 638.798 742.226 638.827 794.075 638.778C799.329 638.778 804.582 637.903 809.885 638.584C812.001 638.948 814.311 638.766 816.087 640.48Z" fill="#AE8DFF"/>
<path d="M183.915 622.353C165.673 622.9 147.516 622.876 129.31 622.353C123.108 615.545 114.911 613.502 106.203 612.627C123.983 613.393 141.301 611.496 157.756 604.116C170.951 598.147 182.638 589.879 194.107 581.186C195.529 580.104 197.074 579.168 198.57 578.159C202.753 579.764 201.562 583.022 201.063 586.123C195.785 598.39 190.276 610.56 183.915 622.353Z" fill="#CFC3F4"/>
<path d="M652.135 616.189H451.969C453.185 610.304 456.396 607.678 458.609 604.371C484.059 567.265 509.505 530.155 534.947 493.041C542.365 482.232 549.978 471.509 557.275 460.652C557.995 459.457 559.032 458.484 560.27 457.84C561.508 457.197 562.9 456.908 564.293 457.005C618.813 456.871 673.308 458.865 727.828 458.403C743.407 458.269 758.998 459.047 774.589 459.485C776.73 459.485 779.077 458.719 780.95 460.555C763.932 482.212 746.938 503.894 729.969 525.6C727.755 528.457 725.797 531.509 723.718 534.475C719.838 542.001 713.989 548.116 708.893 554.73C706.274 557.522 703.886 560.523 701.754 563.703C693.655 574.025 685.506 584.371 677.431 594.657C675.994 596.244 674.666 597.926 673.454 599.69C671.939 601.18 670.703 602.931 669.806 604.857C666.538 608.082 663.6 611.626 661.037 615.435C658.289 618.304 655.212 617.55 652.135 616.189Z" fill="#AE8DFF"/>
<path d="M188.671 537.32C175.111 535.278 175.111 535.278 174.077 520.299C173.141 519.083 173.481 517.868 173.785 516.579L172.97 501.989C172.312 500.685 171.876 499.279 171.681 497.831C170.538 473.977 171.243 450.221 175.621 426.683C180.486 404.094 195.287 389.82 215.292 380.057C223.428 376.069 230.896 370.696 239.81 368.301C244.942 367.778 247.314 371.571 249.892 374.89C259.748 387.962 271.058 399.872 283.604 410.391C287.342 413.466 291.438 416.078 295.802 418.172C308.754 424.397 320.331 421.406 328.771 409.662C333.466 403.133 336.008 395.753 337.674 387.972C338.148 385.735 337.82 382.927 340.775 381.893C350.286 386.026 359.312 391.196 367.688 397.309C377.588 418.963 380.823 442.233 384.106 465.467C386.758 484.202 388.132 502.925 382.416 521.393C380.446 527.788 378.281 534.098 376.214 540.457C373.331 546.864 372.565 554.074 368.734 560.141C360.975 564.493 352.45 566.22 343.754 566.84C318.483 568.469 293.163 568.25 267.854 568.177C252.507 568.177 251.242 566.961 249.855 551.399C248.87 542.536 248.87 542.572 239.907 542.718C225.776 542.937 211.656 542.949 197.646 540.518C194.423 539.971 191.346 539.314 188.671 537.32Z" fill="#AE8DFF"/>
<path d="M250.725 549.503C252.938 552.554 251.6 556.202 252.391 559.509C253.437 563.946 255.431 566.414 260.624 566.451C289.107 566.694 317.601 566.524 346.035 564.87C353.781 564.42 361.443 562.001 368.752 559.01C371.185 556.579 374.517 556.262 377.618 555.448C385.815 553.308 393.878 550.67 402.124 548.724C404.437 547.994 406.884 547.79 409.287 548.129C414.591 549.543 419.701 551.606 424.501 554.268C425.936 555.18 427.286 556.238 428.769 557.065C430.508 558.39 432.844 558.645 434.412 560.262C434.549 560.54 434.632 560.841 434.656 561.15C443.558 569.794 444.555 580.493 442.439 591.885C441.794 595.338 440.359 598.925 436.018 598.633C431.98 598.353 431.311 594.645 430.727 591.472C429.694 585.879 429.84 579.861 424.099 575.18C425.498 582.548 425.157 589.15 425.133 595.739C425.3 598.17 424.8 600.6 423.686 602.767C423.177 603.762 422.406 604.6 421.457 605.191C420.508 605.782 419.416 606.104 418.298 606.122C415.684 606.122 414.309 604.432 413.434 602.256C412.138 599.075 411.433 595.684 411.354 592.25C411.634 589.502 410.308 586.913 410.977 583.739C410.174 584.469 410.746 584.663 410.722 584.955C410.491 586.973 411.293 588.882 411.33 590.876C411.561 595.8 412.023 600.736 410.393 605.539C409.81 607.593 408.776 609.186 406.404 609.405C402.306 610.487 397.733 608.833 393.915 612.298C392.37 613.709 390.266 611.861 389.366 609.757C388.04 608.773 386.362 608.055 386.447 605.976C386.447 605.174 386.593 604.371 386.618 603.545C386.812 597.721 386.618 597.624 381.133 599.557C378.705 600.5 376.203 601.24 373.653 601.77C372.133 602.025 370.65 602.414 369.154 602.767C361.443 603.642 353.794 603.642 346.436 600.7C342.994 599.314 339.662 600.153 336.33 601.04C313.223 607.241 290.238 613.502 266.766 617.976C253.647 620.418 240.33 621.639 226.986 621.624C218.472 621.624 212.902 617.976 209.084 610.608C205.045 602.701 201.907 594.365 199.732 585.758C200.4 583.046 200.449 580.445 198.515 578.147C198.798 576.174 198.367 574.164 197.299 572.481C197.026 572.146 196.841 571.748 196.76 571.324C196.68 570.899 196.706 570.461 196.837 570.049C196.46 568.372 196.071 566.694 195.694 565.016L194.016 556.506C200.972 555.01 208.038 556.506 215.067 555.411C225.49 553.831 235.924 552.506 246.03 549.332C246.778 549.018 247.586 548.87 248.396 548.9C249.207 548.929 250.002 549.135 250.725 549.503Z" fill="#F8A07C"/>
<path d="M222 245.457C214.593 245.116 207.187 244.897 199.793 244.387C196.254 244.144 193.992 245.201 191.693 248.156C174.667 270.04 152.168 278.988 125.17 272.678C98.7915 266.49 82.3734 249.104 76.6453 222.357C69.2025 187.719 93.0269 153.178 128.38 146.832C164.014 140.449 198.2 164.752 203.502 200.12C204.751 207.313 204.615 214.679 203.101 221.822C202.371 224.971 203.32 226.685 205.436 228.569C211.164 233.688 216.782 238.928 222.462 244.119L222 245.457Z" fill="#AE8DFF"/>
<path d="M618.378 119.658C617.867 157.53 587.974 186.527 550.042 186.04C513.46 185.554 483.823 154.734 484.455 117.859C485.1 81.2268 515.747 51.7802 552.742 52.2787C570.36 52.5858 587.143 59.8391 599.436 72.459C611.73 85.079 618.538 102.043 618.378 119.658Z" fill="#AE8DFF"/>
<path d="M239.958 369.468C225.084 376.094 210.478 383.23 197.393 393.054C186.374 401.322 180.549 412.774 177.436 425.881C177.099 426.151 176.704 426.339 176.281 426.43C175.859 426.521 175.421 426.512 175.003 426.403C173.143 425.953 171.258 425.577 169.36 425.309C168.836 425.195 168.323 425.032 167.828 424.823C166.218 423.966 164.5 423.328 162.72 422.926C160.592 421.516 158.111 420.689 156.226 418.865C154.888 417.747 153.368 416.872 152.127 415.631C145.816 407.753 143.481 399.291 148.357 389.784C149.111 388.775 149.914 387.802 150.668 386.793C158.342 379.948 159.923 372.325 154.402 363.219C152.308 359.527 151.089 355.406 150.838 351.17C150.691 349.673 150.841 348.162 151.282 346.725C151.722 345.287 152.444 343.95 153.404 342.793C158.914 328.204 168.643 321.359 184.185 321.237C188.016 321.237 191.871 321.42 195.678 321.116C205.152 320.337 209.323 316.459 211.135 307.195C214.005 292.532 220.864 286.94 236.2 286.854C236.682 287.334 237.034 287.928 237.223 288.581C237.413 289.234 237.433 289.924 237.282 290.587C236.285 297.967 236.066 305.322 238.34 312.556C239.557 318.088 241.673 323.219 245.698 327.389C250.283 333.796 257.227 335.9 264.39 337.565C264.933 338.313 265.172 339.238 265.059 340.155C262.068 349.407 258.638 358.392 251.682 365.553C248.118 367.924 243.959 368.446 239.958 369.468Z" fill="#0C223E"/>
<path d="M398.141 230.576C401.339 244.618 397.824 257.943 393.762 271.208C393.069 273.493 392.546 275.803 391.877 278.113C391.464 281.688 390.953 285.226 387.499 287.365C386.888 287.47 386.26 287.392 385.693 287.141C385.126 286.89 384.646 286.478 384.313 285.955C384.034 285.388 383.897 284.763 383.912 284.131C384.078 282.874 384.147 281.606 384.118 280.338C384.118 275.366 383.936 270.393 384.179 265.42C385.176 260.8 384.179 256.18 384.106 251.56C384.009 246.186 383.279 245.712 378.512 247.913C361.911 255.706 344.35 260.071 326.217 262.502C315.635 264.047 304.925 264.544 294.245 263.986C287.677 263.584 283.299 265.396 281.682 272.192C281.283 273.339 280.761 274.44 280.125 275.475C279.177 277.116 278.289 278.831 276.477 279.755C270.603 276.508 266.2 271.609 261.773 266.709C263.658 241.797 269.545 218.393 288.237 200.254C304.047 184.959 323.323 179.379 344.91 180.667C346.697 180.765 348.619 180.825 349.531 182.868C347.974 186.041 345.043 183.999 343.45 184.4C348.57 185.531 352.365 189.603 355.879 193.53C361.692 200.035 367.773 205.871 375.69 209.895C383.899 214.053 397.739 233.384 397.277 242.782C397.52 238.758 394.687 234.515 398.141 230.576Z" fill="#0E2C50"/>
<path d="M384.582 284.362L384.777 285.577C385.843 287.306 386.205 289.378 385.786 291.365C383.086 305.225 380.143 319.036 373.625 331.753C372.409 334.051 371.642 336.677 368.93 337.832C363.129 345.613 357.742 353.808 348.779 358.501C348.481 358.507 348.185 358.448 347.912 358.328C347.639 358.209 347.395 358.031 347.198 357.808C340.959 350.805 335.498 349.686 327.618 354.549C326.021 355.599 324.227 356.314 322.346 356.653C320.465 356.991 318.535 356.946 316.672 356.519C301.849 353.82 288.225 346.6 277.67 335.85C275.822 333.99 273.876 332.106 274.399 329.054C282.194 314.465 282.912 299.559 276.333 284.313C275.7 282.854 275.116 281.286 276.053 279.681C276.892 278.392 277.719 277.103 278.558 275.827C283.18 269.383 288.859 266.818 297.202 268.119C319.859 271.644 341.725 267.219 363.081 259.73C366.729 258.514 370.183 256.836 373.771 255.511C380.763 252.933 383.305 254.368 384.923 261.59C385.178 262.733 384.838 264.021 385.859 264.982C385.778 270.493 385.697 275.993 385.616 281.48C383.694 284.07 381.968 281.833 380.52 281.03C373.71 277.322 367.143 277.967 360.527 281.577C369.125 277.76 377.152 278.404 384.582 284.362Z" fill="#F8A07C"/>
<path d="M454.016 327.401L479.226 301.128C476.916 299.56 474.277 300.46 471.857 300.362C462.127 299.949 455.451 293.566 455.256 283.827C455.025 272.885 455.001 261.943 455.256 251.001C455.487 241.652 462.188 234.758 471.516 234.709C506.168 234.515 540.816 234.515 575.461 234.709C585.19 234.709 591.891 241.433 592.219 251.208C592.572 262.15 592.572 273.092 592.219 284.034C591.866 294.21 585.178 300.301 574.877 300.35C555.418 300.439 535.96 300.439 516.501 300.35C512.673 300.264 508.884 301.142 505.483 302.903C490.391 310.611 475.201 318.234 459.987 325.821C458.321 326.648 456.801 328.435 454.016 327.401Z" fill="#7F61DB"/>
<path d="M461.399 499.46C460.122 441.358 480.797 392.774 524.165 353.358C526.512 356.216 525.685 358.927 525.588 361.322C523.46 413.54 506.13 459.461 469.122 497.223C467.444 498.938 465.474 500.409 463.686 502.001C462.105 499.728 463.686 497.734 464.379 495.764C474.108 466.877 484.762 438.367 497.616 410.659C503.576 397.82 510.216 385.346 515.239 374.501C497.166 408.239 479.897 449.017 464.793 493.734C464.111 495.777 464.586 498.804 461.399 499.46Z" fill="#AE8DFF"/>
<path d="M726.076 550.536C731.743 534.037 741.339 519.764 752.187 506.414C774.357 479.132 801.854 459.193 835.603 448.384C837.293 447.85 838.935 446.828 841.015 447.619C842.158 449.442 840.759 451.096 840.054 452.482C819.574 493.539 789.693 525.429 748.344 546.013C741.314 549.502 734.176 552.955 726.307 554.317C725.334 552.554 726.842 551.812 727.766 550.839C758.645 518.256 790.921 487.193 814.782 469.199C793.572 485.478 762.852 513.673 734.236 544.177C731.926 546.645 730.345 550.438 726.076 550.536Z" fill="#AE8DFF"/>
<path d="M717.811 566.427C734.752 556.311 752.544 548.311 771.929 544.056C790.542 540.076 809.712 539.417 828.553 542.111C829.55 542.279 830.524 542.557 831.46 542.938C832.062 543.287 832.628 543.694 833.151 544.153C824.723 553.235 814.908 560.275 804.535 566.402C780.017 580.846 753.785 589.405 724.974 588.129C716.291 587.814 707.707 586.174 699.52 583.265C699.344 582.997 699.281 582.671 699.345 582.356C699.408 582.042 699.594 581.766 699.86 581.588C739.215 571.448 778.412 560.712 817.243 548.7C817.9 548.092 816.635 547.545 817.243 548.129C817.462 548.348 817.389 548.554 817.024 548.7C806.079 552.895 794.684 555.594 783.471 558.84C758.88 565.977 734.192 572.785 709.286 578.961C706.549 579.642 703.764 581.831 700.772 579.703C699.982 577.879 701.308 576.919 702.329 575.825C704.324 574.366 706.501 573.211 708.41 571.727C709.444 570.925 710.404 570.025 711.499 569.296C713.488 568.105 715.605 567.142 717.811 566.427Z" fill="#AE8DFF"/>
<path d="M558.348 450.926C555.757 451.011 554.699 452.883 553.349 454.756C540.612 473.179 527.843 491.566 515.041 509.916C514.25 511.047 513.824 512.518 512.243 512.883C502.04 525.162 487.689 530.84 473.631 536.798C466.431 539.837 458.83 542.001 450.791 541.515C450.533 541.373 450.31 541.175 450.139 540.935C449.969 540.695 449.855 540.419 449.806 540.129C454.318 534.05 460.812 530.22 466.528 525.539C492.797 504.068 518.705 482.184 544.253 459.886C514.797 485.621 484.839 510.747 454.379 535.266C453.248 536.19 452.105 537.965 450.268 536.956C449.162 536.36 449.903 535.168 450.183 534.232C450.085 533.64 450.135 533.033 450.328 532.464C450.521 531.896 450.851 531.384 451.29 530.974C453.187 530.171 452.238 527.91 453.442 526.743C455.206 524.761 455.109 521.612 457.602 520.093C462.162 517.114 464.059 512.007 467.173 507.935C489.647 478.269 518.057 457.236 554.213 447.06C558.907 445.735 559.309 447.133 558.348 450.926Z" fill="#AE8DFF"/>
<path d="M447.826 522.73C435.433 511.18 427.285 496.846 421.071 481.393C410.003 454.048 407.46 423.997 413.774 395.181C414.175 393.285 414.82 391.449 415.841 387.887C446.865 428.835 459.112 472.992 451.28 522.548C447.631 521.709 447.996 518.159 447.108 515.813C435.28 483.959 426.6 451.024 421.192 417.479C420.572 413.735 419.38 410.051 419.745 406.841C419.563 405.382 418.59 406.841 419.259 406.367C419.453 406.233 419.575 406.367 419.636 406.829C424.767 444.311 434.005 481.115 447.181 516.579C447.911 518.5 449.614 520.457 447.826 522.73Z" fill="#AE8DFF"/>
<path d="M374.854 540.749C375.778 533.685 378.891 527.254 380.934 520.53C386.067 503.691 385.154 486.585 383.05 469.576C380.947 450.994 377.397 432.604 372.433 414.574C371.317 410.279 369.861 406.079 368.08 402.015C367.411 400.604 365.355 399.06 367.654 397.285C382.321 405.796 391.807 417.869 395.552 434.744C399.201 451.035 402.132 467.437 405.428 483.789C410.864 499.278 411.581 515.606 413.807 531.679C413.598 533.125 412.835 534.433 411.679 535.326C410.475 536.064 409.127 536.537 407.726 536.712C398.945 538.96 390.045 540.714 381.068 541.965C378.928 542.232 376.678 542.682 374.854 540.749Z" fill="#7F61DB"/>
<path d="M237.991 280.071C233.126 256.812 233.321 233.87 243.646 211.986C252.159 193.883 266.437 181.591 284.995 174.102C299.406 170.576 313.684 171.61 327.877 175.257C328.189 175.384 328.463 175.588 328.676 175.849C328.889 176.11 329.032 176.421 329.093 176.752C327.95 179.33 325.444 178.795 323.34 179.245C293.265 185.968 273.977 204.375 264.71 233.506C262.023 242.399 260.011 251.483 258.69 260.679C258.578 262.699 258.013 264.669 257.036 266.442C255.953 268.071 254.202 268.593 252.475 269.165C248.6 270.383 245.265 272.905 243.038 276.302C241.773 278.064 240.812 280.362 237.991 280.071Z" fill="#0E2C50"/>
<path d="M250.808 364.945C257.047 357.65 260.404 348.811 263.906 340.058C267.312 339.815 268.041 342.842 269.403 344.836C275.971 354.453 283.705 362.83 293.726 369.054C302.969 374.817 312.334 378.051 322.707 371.948C323.055 371.753 323.446 371.647 323.844 371.638C324.243 371.63 324.638 371.719 324.994 371.899C327.146 374.878 330.26 376.483 333.507 377.832C331.997 387.641 328.831 397.121 324.142 405.869C318.329 416.264 310.984 418.768 300.306 413.382C280.715 403.453 264.125 388.484 252.243 370.015C251.295 368.495 250.261 366.939 250.808 364.945Z" fill="#F8A07B"/>
<path d="M153.403 342.781C151.202 350.197 152.978 356.993 156.31 363.717C161.795 374.805 160.7 379.522 151.287 388.032C148.186 381.564 148.21 374.367 146.581 367.559C144.574 359.157 142.75 350.708 140.986 342.258C143.723 355.571 147.067 368.774 149.281 382.185C149.706 384.701 150.691 387.157 149.864 389.771C144.732 399.266 147.298 407.607 153.732 415.364C156.359 419.011 156.541 423.266 157.003 427.424C158.219 437.989 159.715 448.53 160.043 459.169C160.043 460.834 161.454 463.302 158.511 464.202C143.334 444.129 134.273 421.443 130.126 396.762C125.772 370.829 127.268 345.273 135.72 320.252C135.976 319.498 136.389 318.805 137.07 317.358C142.275 324.556 145.693 332.155 149.682 339.425C150.448 340.823 150.059 344.057 153.403 342.781Z" fill="#AE8DFF"/>
<path d="M408.906 606.547C409.441 601.271 410.572 596.043 410.122 590.742C411.509 589.951 411.825 591.252 412.47 591.958C413.053 594.705 413.443 597.514 414.282 600.188C414.938 602.328 415.011 605.55 418.49 605.052C419.937 604.881 421.258 604.147 422.169 603.009C423.079 601.872 423.505 600.422 423.354 598.973C423.22 591.35 424.473 583.642 422.272 576.104C421.883 574.803 421.725 573.441 421.311 571.338C428.948 574.803 431.138 580.857 431.879 587.8C431.885 589.81 432.184 591.809 432.767 593.733C433.533 595.617 433.825 597.951 436.501 597.696C438.738 597.489 439.991 595.799 440.405 593.66C442.521 582.888 442.91 572.432 434.677 563.63C433.922 562.827 433.46 562.037 434.591 561.198L438.24 561.453C439.01 560.901 439.921 560.581 440.867 560.529C444.515 560.882 448.164 561.976 451.812 562.353C457.467 563.289 463.061 564.602 468.753 565.307C470.869 565.575 473.156 565.709 474.518 567.812C466.528 580.663 457.698 592.942 448.76 605.137C447.918 606.022 446.788 606.578 445.573 606.705C434.628 606.936 423.682 608.894 412.676 608.128C411.974 608.133 411.277 607.995 410.629 607.724C409.981 607.452 409.395 607.052 408.906 606.547Z" fill="#E26A58"/>
<path d="M237.986 280.07C242.583 273.748 247.375 267.669 255.779 266.258C258.588 264.192 260.813 265.456 262.917 267.474C268.402 270.356 272.44 274.769 276.076 279.693C282.388 292.909 284.759 306.44 279.87 320.75C278.91 324.047 277.218 327.085 274.921 329.638C273.826 331.401 272.829 333.224 271.686 334.975C269.436 336.592 267.466 338.975 264.17 337.699C255.827 338.392 249.455 334.951 244.602 328.337C244.201 327.182 244.87 326.683 245.818 326.343C246.224 326.271 246.64 326.296 247.034 326.416C258.053 330.975 262.65 329.054 265.386 317.48C268.183 305.675 266.006 294.38 258.162 284.921C252.142 277.626 246.001 278.574 241.452 286.842C240.236 289.091 239.847 291.936 237.111 293.164C235.432 292.629 235.615 291.462 236.113 290.185C236.113 289.067 236.186 287.948 236.235 286.83C237.378 284.76 237.981 282.435 237.986 280.07Z" fill="#AE8DFF"/>
<path d="M250.805 364.945C262.318 384.091 278.678 399.863 298.235 410.671C310.919 417.784 318.021 415.534 324.443 402.355C327.37 396.144 329.573 389.617 331.01 382.903C331.472 380.933 331.375 378.83 333.576 377.796L340.8 381.869C338.088 391.717 336.361 401.832 330.134 410.489C321.305 422.768 308.815 426.136 295.121 419.534C280.527 412.483 270.117 400.605 259.5 388.994C254.891 383.948 250.902 378.356 246.536 373.079C244.87 371.049 243.07 369.018 239.969 369.432C243.384 367.499 247.023 365.992 250.805 364.945Z" fill="#7F61DB"/>
<path d="M262.967 267.487L255.828 266.271C258.333 255.524 259.635 244.533 262.906 233.919C272.185 203.792 291.972 184.959 322.668 177.689C324.679 177.378 326.714 177.248 328.749 177.3C335.097 173.932 341.652 176.594 348.122 176.619C353.534 179.196 359.748 179.403 365.002 182.491C371.387 186.248 377.577 190.211 381.457 196.837C379.559 198.053 377.905 196.995 376.47 196.011C368.91 190.719 360.406 186.922 351.418 184.825C350.639 184.615 349.961 184.132 349.508 183.464C336.751 180.521 324.297 182.345 312.403 186.977C286.171 197.19 272.818 218.017 266.859 244.387C265.034 251.974 264.183 259.779 262.967 267.487Z" fill="#7F61DB"/>
<path d="M368.906 337.857C376.554 323.471 381.663 307.875 384.011 291.754C385.993 290.745 385.081 287.851 387.185 286.891C389.617 284.459 389.24 280.459 391.879 278.101C397.863 283.876 399.237 291.401 399.176 299.146C399.176 313.237 395.382 325.954 383.573 334.927C379.341 338.185 374.44 340.094 368.906 337.857Z" fill="#AE8DFF"/>
<path d="M349.414 183.451C358.706 184.241 366.829 188.059 374.552 193.032C376.729 194.43 378.626 196.412 381.362 196.825C389.961 206.551 396.321 217.493 398.145 230.575V243.949C393.937 233.007 388.222 223.22 379.806 215.123C378.897 214.057 377.826 213.143 376.632 212.411C367.219 207.986 360.177 200.801 353.367 193.178C349.891 189.589 346.089 186.333 342.008 183.451H349.414Z" fill="#0C223E"/>
<path d="M264.186 337.711L271.775 333.553C273.745 333.225 274.657 334.465 275.362 335.985C283.474 348.58 295.283 356.143 309.184 360.775C312.838 361.946 316.597 362.761 320.409 363.206C322.598 363.486 325.127 363.814 324.057 367.231C324.385 368.787 324.714 370.343 325.054 371.899C315.143 379.814 305.109 377.504 295.319 371.899C283.986 365.3 274.48 355.977 267.664 344.775C266.538 343.147 265.32 341.584 264.016 340.094L264.186 337.711Z" fill="#B9A6F7"/>
<path d="M412.766 532.384C410.333 516.173 407.901 499.963 405.469 483.752C420.184 504.42 428.673 527.691 433.197 552.505C433.659 555.07 434 557.66 434.413 560.25C431.981 560.42 429.731 560.408 428.332 557.988C423.65 553.04 419.892 547.374 416.013 541.806C414.03 539.022 412.474 536.031 412.766 532.384Z" fill="#AE8DFF"/>
<path d="M273.984 336.009C273.765 334.708 272.682 334.21 271.746 333.578C270.968 330.781 273.047 330.307 274.92 329.675C285.184 343.729 299.584 350.988 316.087 354.866C318.04 355.464 320.11 355.572 322.115 355.179C324.119 354.787 325.996 353.907 327.579 352.617C335.375 346.781 346.405 350.331 348.753 358.526C346.113 365.188 340.422 365.82 334.414 365.626C332.436 365.413 330.476 365.051 328.552 364.544C322.958 361.577 316.78 360.471 310.711 359C296.957 355.681 285.428 348.52 275.443 338.647C274.734 337.911 274.23 337.001 273.984 336.009Z" fill="#7F61DB"/>
<path d="M145.175 464.19L141.441 460.543C124.658 438.439 104.957 419.206 84.5738 400.385C62.8485 380.526 39.4933 362.526 14.7545 346.574C13.765 345.64 12.8614 344.618 12.0547 343.522C21.7839 347.437 28.5335 353.164 35.6115 358.112C63.6602 377.83 89.7271 400.225 113.445 424.981C122.104 433.953 130.727 443.023 138.303 453.005C139.378 454.731 140.939 456.102 142.791 456.944L146.269 462.962C146.78 464.202 146.221 464.397 145.175 464.19Z" fill="#D3CEF4"/>
<path d="M618.086 394.197C619.083 397.139 622.768 395.62 624.167 397.844C624.167 400.92 621.321 400.762 619.57 401.65C616.748 403.097 613.489 403.863 611.324 406.355C609.778 406.597 608.359 407.356 607.299 408.507C606.612 409.232 605.845 409.877 605.012 410.428C606.581 409.334 609.05 408.47 611.276 407.157C614.024 408.446 614.754 410.732 613.282 413.103C611.142 416.543 608.503 419.717 603.796 419.583C601.79 419.522 599.917 418.367 597.861 418.866C596.949 419.328 596.195 420.276 594.979 419.753C594.213 418.197 589.47 420.519 591.562 415.668C592.632 413.163 585.481 406.319 582.891 406.343C583.085 401.601 587.597 399.182 591.246 402.61C594.687 405.844 597.497 405.309 600.975 403.741C604.125 402.841 607.445 402.185 606.496 397.504C606.265 396.361 607.226 395.243 608.053 394.306C611.312 391.243 614.644 390.635 618.086 394.197Z" fill="#CFC3F4"/>
<path d="M726.081 550.536C731.675 547.302 734.703 541.588 739.033 537.162C766.069 509.444 794.889 483.52 825.307 459.558C826.613 458.53 828.155 457.845 829.794 457.564C826.438 462.683 821.208 465.771 816.55 469.443C791.009 489.844 766.875 511.944 744.311 535.594C738.291 541.831 731.566 547.399 726.312 554.366L723.697 556.591C722.736 556.773 722.14 556.591 722.59 555.375L726.081 550.536Z" fill="#D3CEF4"/>
<path d="M461.399 499.46C469.341 479.205 475.835 458.427 484.202 438.33C493.749 415.388 504.488 393.005 515.822 370.902C516.111 370.172 516.546 369.509 517.1 368.953C517.654 368.397 518.316 367.96 519.045 367.668C519.179 370.343 517.61 372.191 516.613 374.124C495.747 414.242 478.29 456.042 464.428 499.083C464.124 500.031 463.941 501.028 463.698 502.001L462.299 504.311C461.205 504.518 460.56 504.311 461.083 503.022L461.399 499.46Z" fill="#D3CEF4"/>
<path d="M450.186 534.268C450.308 536.092 450.636 537.077 452.619 535.484C468.623 522.256 484.798 509.223 500.681 495.849C515.956 482.998 530.951 469.807 546.08 456.786C546.602 456.471 547.174 456.245 547.77 456.117C546.554 460.701 472.077 524.481 450.32 539.667C447.997 539.812 448.35 538.56 449.007 537.15C449.396 536.165 449.797 535.217 450.186 534.268Z" fill="#D3CEF4"/>
<path d="M447.825 522.731C447.095 516.847 444.371 511.57 442.437 506.099C432.239 476.777 424.681 446.602 419.853 415.936C419.014 410.866 418.272 405.784 417.227 399.061C420.875 402.599 420.583 405.784 420.936 408.398C426.129 446.744 436.174 483.777 449.686 520.02C450.129 520.915 450.663 521.762 451.279 522.549C451.534 523.765 451.181 525.138 452.495 525.904L453.042 526.464C453.089 526.991 452.946 527.517 452.638 527.948C452.33 528.378 451.878 528.684 451.364 528.81L447.825 522.731Z" fill="#D3CEF4"/>
<path d="M328.642 176.156C317.915 175.913 307.444 172.789 296.56 173.53C292.729 173.785 288.898 176.57 284.945 174.077C304.513 166.065 323.972 166.928 343.321 174.685C343.564 175.901 342.992 176.679 341.776 176.655C337.459 176.618 333.02 177.372 328.642 176.156Z" fill="#0F2641"/>
<path d="M624.169 452.215C615.218 451.084 606.145 452.798 597.219 451.072L597.839 450.306C602.91 448.239 608.237 449.406 613.43 449.297C616.616 449.236 618.003 448.251 618.757 445.029C621.25 434.318 629.131 427.655 639.018 427.376C650.352 427.06 658.476 432.725 661.529 443.74C662.66 447.838 664.569 449.576 668.692 449.236C670.509 449.096 672.335 449.096 674.152 449.236C678.263 449.479 681.875 449.102 683.006 444.105C683.19 443.517 683.562 443.005 684.065 442.649C684.569 442.293 685.175 442.113 685.791 442.136C685.942 442.196 686.077 442.291 686.184 442.413C686.291 442.536 686.368 442.682 686.409 442.839C686.449 442.997 686.451 443.162 686.416 443.32C686.381 443.479 686.308 443.627 686.205 443.753C681.887 451.047 688.345 450.561 692.2 451.935L650.851 452.215C641.973 452.982 633.046 452.982 624.169 452.215Z" fill="#7F61DB"/>
<path d="M273.984 336.009C287.362 348.775 302.819 357.492 321.414 359.619C324.929 360.021 326.023 363.097 328.517 364.483C327.566 364.362 326.603 364.563 325.779 365.052C324.955 365.54 324.318 366.29 323.968 367.182C323.482 364.434 321.366 364.75 319.335 364.519C301.007 362.404 286.863 352.835 275.03 339.304C274.361 338.525 274.337 337.139 273.984 336.009Z" fill="#F49E7A"/>
<path d="M557.141 356.094C557.919 353.395 558.101 350.781 562.589 351.814C566.675 352.763 569.533 350.416 568.439 345.589C567.867 343.085 568.694 341.942 571.078 341.176C573.948 340.289 576.708 339.036 579.518 337.93C581.695 337.079 583.166 336.824 584.978 339.389C587.411 342.854 591.059 343.194 593.613 339.389C595.012 337.261 596.045 337.31 597.967 338.173C600.703 339.389 603.513 340.532 606.261 341.821C608.693 342.903 610.992 343.62 609.277 347.462C607.903 350.55 611.527 354.246 615.054 353.237C618.581 352.228 619.845 353.626 620.222 356.228C620.831 360.398 625.184 363.693 622.995 368.446C621.974 368.933 621.341 368.349 620.758 367.62C619.791 365.634 618.978 363.577 618.325 361.468C617.45 359.316 616.428 357.675 613.716 357.346C608.851 356.738 606.711 353.091 605.398 348.836C603.707 343.462 600.022 341.626 594.926 343.973C590.633 345.893 586.644 346.708 582.68 343.048C580.345 340.897 573.972 342.769 573.328 346.039C571.686 354.319 565.605 356.009 558.734 356.884C558.126 356.818 557.561 356.538 557.141 356.094Z" fill="#7F61DB"/>
<path d="M148.374 472.105C144.506 468.762 140.42 472.105 136.455 471.716C135.592 471.29 134.716 470.5 133.841 470.5C110.247 470.5 86.8484 467.971 63.4375 465.479C63.8267 462.512 65.6387 463.898 67.086 464.263C88.4254 465.795 109.769 467.311 131.116 468.81C134.485 469.041 137.878 468.956 141.259 469.005H144.47C145.248 468.36 145.905 467.364 147.145 468.032L148.617 470.184C148.73 470.325 148.813 470.487 148.862 470.661C148.911 470.835 148.924 471.017 148.901 471.196C148.879 471.375 148.82 471.548 148.73 471.704C148.639 471.86 148.518 471.997 148.374 472.105Z" fill="#D3CEF4"/>
<path d="M686.185 443.753V442.415C688.143 438.865 686.076 427.765 682.999 425.224C682.722 424.927 682.371 424.708 681.983 424.591C681.594 424.474 681.181 424.461 680.786 424.555C673.331 427.06 671.19 420.239 667.153 416.798C666.652 416.425 666.286 415.901 666.109 415.302C665.931 414.704 665.952 414.065 666.167 413.479C669.342 407.4 664.513 406.428 660.792 404.64C658.822 403.704 656.438 403.34 655.453 400.993C655.587 400.008 655.879 399.267 657.107 399.777C660.476 401.078 663.808 402.452 667.201 403.668C671.421 405.163 673.951 407.169 670.521 411.802C668.794 414.124 670.692 415.595 672.248 416.786C674.547 418.561 675.678 422.865 679.995 420.653C683.753 418.744 685.748 419.899 686.903 424.008C688.058 428.117 690.016 431.838 691.439 435.813C693.896 442.853 693.835 442.877 686.185 443.753Z" fill="#7F61DB"/>
<path d="M734.836 452.008L727.612 451.935C726.98 450.804 727.697 449.722 727.539 448.883C727.403 449.546 727.111 450.167 726.689 450.696C726.266 451.224 725.724 451.645 725.107 451.923H717.664C721.458 445.844 725.07 439.668 730.421 433.783C733.292 439.984 733.437 446.172 734.836 452.008Z" fill="#AE8DFF"/>
<path d="M707.912 554.001C713.019 547.363 717.641 540.348 723.721 534.476C722.092 543.91 716.777 551.716 712.253 559.837C710.745 562.548 709.711 565.758 706.854 567.606C703.217 562.779 706.148 558.427 707.912 554.001Z" fill="#AE8DFF"/>
<path d="M158.514 464.214C158.417 447.789 155.644 431.631 153.734 415.376L157.042 418.099C159.815 427.157 160.131 436.592 161.299 445.905C161.092 448.412 161.34 450.937 162.029 453.357C162.361 454.936 162.524 456.546 162.515 458.16C162.515 459.789 162.515 461.418 162.576 463.023C162.576 465.005 162.576 466.999 162.466 468.98C162.053 470.524 162.296 472.628 159.827 472.628C159.292 469.868 159.961 466.877 158.514 464.214Z" fill="#D3CEF4"/>
<path d="M610.68 407.157C611.105 402.841 615.009 403.084 617.745 401.783C619.886 400.762 622.014 399.717 624.142 398.683C626.271 398.89 628.058 397.893 629.858 397.017C632.862 395.559 633.945 396.835 633.908 399.789C634.504 401.005 633.738 401.285 632.826 401.516C627.231 400.543 622.756 403.729 617.916 405.565C616.213 406.221 615.861 407.716 615.836 409.516C615.678 418.987 607.846 424.458 598.883 421.467C597.411 420.811 597.071 419.266 596.195 418.124C597.594 416.045 599.284 417.625 600.355 418.197C606.302 421.309 609.111 416.871 612.163 413.406C613.866 411.473 612.078 409.759 610.777 408.337C610.651 408.258 610.551 408.142 610.493 408.005C610.434 407.868 610.419 407.716 610.449 407.571C610.522 407.242 610.595 407.157 610.68 407.157Z" fill="#7F61DB"/>
<path d="M557.142 356.094H558.528C559.671 357.37 559.221 358.781 558.65 360.033C558.065 361.075 557.838 362.28 558.003 363.463C558.167 364.646 558.715 365.743 559.562 366.586C562.067 369.65 561.775 373.431 560.06 376.811C556.315 384.106 557.178 386.622 564.925 389.407C565.297 389.559 565.621 389.809 565.862 390.13C566.104 390.451 566.255 390.831 566.299 391.23C566.129 392.239 565.716 392.92 564.524 392.592C562.359 390.865 558.966 394.367 557.397 391.206C555.615 387.391 554.052 383.478 552.715 379.486C552.082 377.735 553.432 377.127 554.843 376.495C558.334 374.939 558.309 370.416 556.74 369.48C549.808 365.091 555.281 361.054 556.388 356.908C556.412 356.58 556.862 356.337 557.142 356.094Z" fill="#7F61DB"/>
<path d="M621.732 367.036L623.058 368.361C617.974 372.58 617.865 373.893 622.754 378.611C624.335 380.142 623.641 381.383 623.021 382.878C621.343 386.914 619.738 390.963 618.157 395.036C614.703 393.82 611.334 393.2 608.427 396.252C607.993 396.165 607.597 395.941 607.299 395.613C607.001 395.284 606.817 394.869 606.773 394.428C607.503 391.547 609.327 390.136 612.307 389.723C618.144 388.92 620.005 384.787 617.038 379.632C614.07 374.477 615.092 368.325 619.47 366.769C619.844 366.647 620.24 366.607 620.631 366.654C621.021 366.7 621.397 366.83 621.732 367.036Z" fill="#7F61DB"/>
<path d="M596.196 418.1L598.628 420.531C598.36 424.689 596.196 428.215 594.554 431.862C593.204 434.805 592.936 436.871 595.892 439.157C599.82 442.209 599.698 446.391 597.667 450.634C597.533 450.78 597.387 450.938 597.254 451.108L594.967 450.877C595.077 446.282 595.819 441.674 589.689 439.607C586.661 438.598 588.972 435.753 589.592 433.893C591.136 429.37 594.675 425.625 594.992 420.592L596.196 418.1Z" fill="#7F61DB"/>
<path d="M602.273 405.844C598.004 407.06 593.76 410.792 590.038 404.154C589.15 402.573 583.702 402.099 582.924 407.133C578.509 409.649 575.627 405.248 571.905 404.701C571.577 403.595 572.246 403.108 573.121 402.731C576.563 402.816 579.75 403.692 583.143 400.835C585.441 398.902 590.245 399.206 592.762 401.297C595.28 403.388 598.199 403.412 601.081 403.85C601.847 404.239 602.504 404.725 602.273 405.844Z" fill="#7F61DB"/>
<path d="M707.908 554.001C708.188 558.585 705.986 562.973 706.85 567.606L707.969 568.967C708.492 569.38 708.892 569.928 709.125 570.551C709.359 571.175 709.418 571.851 709.294 572.505C707.482 574.049 705.816 575.861 703.214 576.153C702.107 571.739 703.639 566.864 700.781 562.779C703.055 559.703 704.612 556.141 707.908 554.001Z" fill="#D3CEF4"/>
<path d="M632.675 401.078L633.892 399.765C638.926 405.844 645.275 405.188 649.568 398.55C652.426 394.173 654.591 398.926 657.035 399.765L655.722 400.981C650.273 404.908 645.068 409.273 637.479 407.498C633.819 406.622 631.52 405.273 632.675 401.078Z" fill="#7F61DB"/>
<path d="M660.797 613.843C663.594 610.645 664.847 606.147 669.006 604.116C670.721 602.767 672.448 601.429 672.654 599.01C673.395 597.102 674.66 595.441 676.303 594.22C677.653 595.302 676.643 597.393 678.115 598.426C678.662 598.925 679.258 599.423 678.759 600.274L665.382 611.217C665.193 611.841 664.88 612.421 664.462 612.923C664.044 613.424 663.53 613.836 662.949 614.134C662.598 614.286 662.212 614.339 661.833 614.288C661.453 614.236 661.095 614.082 660.797 613.843Z" fill="#D3CEF4"/>
<path d="M461.106 503.022C461.495 503.448 461.896 503.874 462.322 504.311C461.58 509.819 458.066 514.524 457.64 520.117C456.716 522.73 456.91 525.892 453.991 527.484C453.225 527.484 453.177 526.694 452.775 526.268L452.617 525.831L461.106 503.022Z" fill="#D3CEF4"/>
<path d="M709.293 572.505C707.894 571.703 708.076 570.305 708.016 569.016C713.975 565.66 717.003 559.144 722.609 555.436L723.716 556.651L716.419 565.162C715.799 567.739 713.403 568.627 711.676 570.159L709.293 572.505Z" fill="#D3CEF4"/>
<path d="M159.512 474.293C160.85 473.345 160.449 471.862 160.729 470.524C165.338 473.856 163.356 478.269 162.687 482.476C161.872 483.825 160.887 484.907 159.038 484.226C156.438 482.022 154.389 479.241 153.055 476.105L153.347 474.172C155.682 475.388 155.986 478.719 159.026 479.691C159.245 477.771 159.379 476.032 159.512 474.293Z" fill="#D3CEF4"/>
<path d="M449.041 537.113C449.15 538.122 449.296 539.107 450.354 539.63C450.354 539.946 450.354 540.274 450.354 540.59C449.372 546.997 446.726 553.033 442.68 558.098C441.573 558.244 441.051 557.575 440.734 556.663C443.45 550.147 446.219 543.63 449.041 537.113Z" fill="#D3CEF4"/>
<path d="M573.09 403.437L571.874 404.726C569.32 403.218 564.869 403.194 567.642 397.942C568.785 395.778 565.21 394.647 564.492 392.641L565.806 391.316C566.445 391.216 567.098 391.252 567.722 391.422C568.346 391.592 568.927 391.891 569.428 392.301C569.928 392.71 570.337 393.221 570.626 393.799C570.916 394.377 571.08 395.01 571.108 395.656C571.388 398.392 572.823 400.75 573.09 403.437Z" fill="#7F61DB"/>
<path d="M678.786 600.287L677.57 599.071C679.492 593.806 683.87 591.156 688.516 588.785C689.452 589.004 690.157 589.417 689.817 590.572L678.786 600.287Z" fill="#D3CEF4"/>
<path d="M328.637 176.157C333.502 175.354 338.719 177.847 343.365 174.686C345.201 174.588 346.527 175.731 347.998 176.558C341.589 178.223 335.083 176.996 328.625 177.239C328.637 176.923 328.637 176.57 328.637 176.157Z" fill="#16314F"/>
<path d="M689.762 590.633L688.461 589.417C689.677 584.469 693.63 582.378 697.789 580.518C698.23 580.574 698.641 580.772 698.961 581.081C699.281 581.39 699.492 581.793 699.564 582.232C699.564 582.572 699.564 582.925 699.564 583.277C695.089 584.165 693.484 588.87 689.762 590.633Z" fill="#D3CEF4"/>
<path d="M151.156 471.497L148.468 472.458L144.078 465.272L145.233 464.057C147.618 466.181 149.621 468.697 151.156 471.497Z" fill="#D3CEF4"/>
<path d="M711.727 570.074C712.838 568.015 714.48 566.289 716.482 565.077L717.807 566.427C717.121 567.441 716.221 568.293 715.171 568.923C714.12 569.553 712.945 569.946 711.727 570.074Z" fill="#CFC3F4"/>
<path d="M663.086 613.769L665.518 611.338C667.209 613.393 669.544 612.286 671.599 612.554L671.49 613.611C669.191 615.921 666.625 615.557 663.876 614.523L663.086 613.769Z" fill="#CFC3F4"/>
<path d="M452.692 526.305L453.908 527.52C453.507 529.04 453.908 531.168 451.281 531.034C451.281 530.305 451.281 529.563 451.379 528.834L452.692 526.305Z" fill="#D3CEF4"/>
<path d="M440.647 556.7L441.863 558.171C442.811 559.813 441.96 560.785 440.586 561.551L438.227 561.454C439.041 559.825 439.844 558.244 440.647 556.7Z" fill="#D3CEF4"/>
<path d="M687.275 313.675C686.582 294.222 703.146 277.201 723.298 277.347C728.168 277.305 732.998 278.233 737.505 280.076C742.013 281.92 746.108 284.643 749.551 288.086C752.995 291.528 755.719 295.622 757.563 300.128C759.407 304.635 760.335 309.463 760.293 314.332C760.293 331.802 746.478 350.441 723.882 350.611C702.489 350.769 686.412 333.565 687.275 313.675Z" fill="#CFC3F4"/>
<path d="M287.38 46.7717C287.38 39.8781 287.38 32.9967 287.38 26.1032C287.38 24.6321 286.747 22.5287 289.216 22.3342C292.001 22.1275 291.806 24.2673 291.806 26.1032C291.806 39.2662 291.806 52.4332 291.806 65.6043C291.806 68.2183 291.612 70.7228 293.983 72.7775C295.832 74.3945 295.783 76.7167 294.628 78.9294C293.472 81.1422 291.429 82.5039 289.179 81.896C286.078 81.0571 284.205 82.6862 282.065 84.1695C271.12 91.7804 260.101 99.4034 249.046 106.905C247.684 107.829 246.164 110.698 244.121 107.95C242.078 105.203 245.13 104.558 246.553 103.561C257.669 95.7682 268.931 88.2059 279.937 80.2789C282.142 78.6421 283.945 76.5247 285.209 74.0874C286.473 71.6501 287.166 68.9569 287.234 66.2122C287.659 59.7442 287.38 53.2519 287.38 46.7717Z" fill="#F7FAFB"/>
<path d="M327.423 624.687C330.317 623.641 343.293 623.933 345.032 625.611C348.924 629.343 352.135 628.468 355.321 624.845C357.255 622.657 359.857 623.508 362.192 623.508C458.39 623.508 554.596 623.508 650.809 623.508L808.374 623.617C816.182 623.617 816.194 623.617 816.182 631.422C816.182 634.45 816.109 637.501 816.06 640.504H680.727C606.712 640.504 532.697 640.76 458.694 640.334C437.168 640.213 415.606 639.362 394.116 640.176C373.357 640.954 352.621 640.31 331.91 640.176C314.702 640.018 297.481 640.906 280.248 640.176C265.508 639.52 250.671 641.064 235.944 640.407C218.492 639.629 201.101 640.942 183.649 640.407C167.681 639.957 151.664 640.808 135.696 640.407C118.865 639.982 102.058 640.796 85.2138 640.188C75.7887 639.848 66.2419 640.261 56.7559 640.626C53.1804 640.772 51.4413 640.042 52.0737 636.14C52.3159 634.556 52.3159 632.945 52.0737 631.362C51.2467 626.085 53.8493 624.638 58.6288 624.699C75.6549 624.918 92.6445 625.023 109.598 625.015C132.705 625.015 155.811 625.222 178.991 624.444C185.473 624.225 191.651 623.155 198.036 625.429C201.891 626.802 205.333 623.325 209.565 623.374C236.503 623.69 263.441 623.228 290.379 623.69C301.19 623.872 311.977 623.179 322.765 623.52C324.381 623.574 325.964 623.989 327.398 624.736C327.655 625.031 328.008 625.225 328.396 625.283C328.993 625.356 329.598 625.356 330.195 625.283C329.283 625.234 328.274 625.416 327.423 624.687Z" fill="#AE8DFF"/>
<path d="M199.732 585.758C202.578 586.791 202.493 589.648 203.161 591.837C205.237 598.39 207.865 604.755 211.018 610.864C214.496 617.709 220.042 621.052 227.606 620.991C249.363 620.833 270.39 615.861 291.393 610.973C307.483 607.217 323.427 602.803 339.431 598.597C341.231 598.135 343.153 597.381 344.746 598.232C352.651 602.584 361.273 601.344 369.689 601.758C372.121 603.703 374.554 605.697 373.471 609.368L371.221 610.037C365.603 611.174 359.814 611.174 354.195 610.037C351.423 609.393 350.109 610.426 350.206 613.344C350.304 616.262 350.206 619.265 350.206 622.232C348.601 622.365 346.996 622.633 345.342 622.633C292.723 622.633 240.096 622.633 187.461 622.633C186.245 622.633 185.029 622.45 183.812 622.341C185.308 614.037 189.991 607.071 193.347 599.545C195.488 594.901 197.652 590.329 199.732 585.758Z" fill="#7F61DB"/>
<path d="M440.609 561.563L441.886 558.183C444.675 552.34 447.468 546.492 450.266 540.64C470.746 538.706 488.441 529.941 504.992 518.318C507.425 516.579 509.857 514.731 512.289 512.932C508.641 520.384 503.375 526.682 498.681 533.393C495.433 536.652 491.055 537.953 487.079 539.861C475.934 545.231 465.631 552.193 456.492 560.53C455.06 561.968 453.311 563.051 451.384 563.691C447.687 563.701 444.025 562.977 440.609 561.563Z" fill="#CFC3F4"/>
<path d="M451.336 563.606C464.51 549.951 480.711 539.585 498.632 533.345C490.788 544.956 483.175 556.712 474.552 567.776L451.336 563.606Z" fill="#AE8DFF"/>
<path d="M408.905 606.547L448.77 605.101C447.821 607.702 446.496 609.794 443.261 609.757C430.966 609.636 418.67 609.563 406.375 609.465L408.905 606.547Z" fill="#CFC3F4"/>
<path d="M660.8 613.842L663.049 613.732H662.989C666.138 615.264 669.982 614.292 672.961 616.444C674.676 618.267 677.57 619.131 677.68 622.243C671.088 622.316 664.497 622.413 657.905 622.462C654.682 622.462 650.231 623.678 653.041 617.599C653.162 617.331 652.457 616.687 652.141 616.213C655.327 616.638 658.477 616.772 660.8 613.842Z" fill="#CFC3F4"/>
<path d="M677.68 622.231L672.523 617.49C676.172 614.973 679.893 616.967 683.578 617.404C693.952 618.62 704.35 619.435 714.748 620.395C714.906 620.466 715.048 620.57 715.162 620.7C715.277 620.83 715.363 620.983 715.413 621.149C715.464 621.315 715.479 621.49 715.456 621.662C715.434 621.834 715.375 621.999 715.283 622.146L677.68 622.231Z" fill="#AE8DFF"/>
<path d="M373.493 609.331L369.711 601.684C370.72 600.286 372.265 600.468 373.7 600.347C377.166 604.395 382.675 604.14 386.895 606.596C387.844 607.556 389.522 607.945 389.327 609.769C384.074 609.611 378.747 610.401 373.493 609.331Z" fill="#CFC3F4"/>
<path d="M715.281 622.122C715.281 621.781 715.281 621.441 715.281 621.088C725.497 619.617 735.761 620.723 746.001 620.529C749.954 620.444 754.016 619.641 757.919 621.1C757.919 621.441 757.919 621.781 757.919 622.122H715.281Z" fill="#AE8DFF"/>
<path d="M624.164 452.215H650.822C642.027 454.014 632.959 454.014 624.164 452.215Z" fill="#7F61DB"/>
<path d="M354.18 610H371.206C365.728 612.115 359.658 612.115 354.18 610Z" fill="#CFC3F4"/>
<path d="M725.109 451.923C726.593 449.917 726.082 446.853 728.758 445.103C729.1 447.452 728.674 449.848 727.542 451.935L725.109 451.923Z" fill="#D3CEF4"/>
<path d="M173.761 516.579L174.053 520.299C173.798 520.317 173.542 520.317 173.287 520.299C165.686 521.977 159.228 526.378 152.381 529.636C124.799 542.925 97.4962 556.773 70.072 570.402C69.3219 570.667 68.5537 570.878 67.7734 571.034C69.0869 567.861 71.6894 567.229 73.8542 566.171C104.98 550.771 136.105 535.371 167.23 519.971C169.2 518.998 171.049 517.782 172.946 516.676C173.198 516.55 173.486 516.516 173.761 516.579Z" fill="#D3CEF4"/>
<path d="M196.825 570.073C196.983 570.864 197.129 571.654 197.287 572.505C175.177 578.924 153.907 587.763 132.028 594.851C120.706 598.498 109.092 601.015 97.5626 603.824C95.8895 604.118 94.1664 603.893 92.625 603.179C128.696 596.213 162.031 581.015 196.825 570.073Z" fill="#D3CEF4"/>
<path d="M158.298 482.792L153.591 485.491C138.936 490.524 124.488 496.202 109.433 499.995C91.8835 504.409 74.2493 508.336 56.1529 509.892C51.2883 510.305 46.4237 511.752 41.4375 509.892C80.8253 506.477 119.45 497.008 155.95 481.819C157.239 480.968 158.127 481.005 158.298 482.792Z" fill="#D3CEF4"/>
<path d="M160.812 488.299L158.477 487.327C158.477 486.974 158.477 486.622 158.477 486.269C161.712 485.819 159.571 483.947 159.437 482.622L161.991 481.284C166.345 486.463 170.735 491.606 172.937 498.159C172.937 499.448 172.937 500.749 172.937 502.038C170.504 498.719 168.072 495.412 165.64 492.08C164.375 490.318 163.365 488.263 160.812 488.299Z" fill="#D3CEF4"/>
<path d="M72.1809 464.846C70.8431 464.932 69.3838 464.64 68.5325 466.062C51.3482 463.777 34.1762 461.43 17.3203 457.211C23.4011 455.995 29.1413 458.014 34.9545 458.913C46.8606 460.737 58.6938 462.974 70.7215 463.886C71.208 463.922 71.6823 464.518 72.1809 464.846Z" fill="#D3CEF4"/>
<path d="M250.72 549.503C235.144 554.917 218.783 557.731 202.293 557.831C199.478 557.923 196.669 557.512 193.999 556.615C191.566 550.378 192.016 543.351 188.672 537.369C206.318 541.515 224.256 541.746 242.183 541.393C251.012 541.175 251.012 541.029 250.72 549.503Z" fill="#7F61DB"/>
<path d="M757.942 621.137H715.267C700.904 621.27 686.833 617.976 672.519 617.489C669.71 615.301 665.526 616.614 662.984 613.745L671.4 613.599C677.128 616.286 683.489 616.553 689.484 617.1C710.159 618.985 730.931 621.161 751.678 619.605C763.682 618.705 775.831 618.912 787.689 616.334C788.844 616.079 790.121 615.982 791.982 617.842C780.734 619.797 769.355 620.898 757.942 621.137Z" fill="#D3CEF4"/>
<path d="M613.084 557.976C605.325 557.685 598.272 556.931 592.41 552.311C587.168 548.129 587.253 543.509 592.264 539.144C600.911 531.594 624.163 531.655 632.835 539.253C637.699 543.472 637.784 547.898 632.908 552.019C627.058 556.992 619.773 557.587 613.084 557.976Z" fill="#7F61DB"/>
<path d="M698.123 580.7L688.467 589.417L677.522 599.144C672.888 598.548 677.522 595.691 676.306 594.281L700.762 562.67C706.6 566.232 704.52 571.18 703.195 576.044C702.404 576.883 701.601 577.709 700.762 578.548C699.923 579.387 699.644 580.797 698.123 580.7Z" fill="#CFC3F4"/>
<path d="M672.703 599.021C674.807 603.131 672.521 604.079 669.055 604.128C669.079 601.587 670.988 600.383 672.703 599.021Z" fill="#CFC3F4"/>
<path d="M172.969 498.147C169.102 492.664 164.31 487.788 162.024 481.272C162.024 477.126 162.875 472.919 161.1 468.907C161.1 466.937 161.1 464.968 161.039 462.998C161.903 461.169 162.32 459.16 162.255 457.138C163.702 450.281 166.5 443.764 168.19 437.017C169.589 434.427 168.968 431.594 169.175 428.847C169.181 427.518 169.64 426.232 170.476 425.199C171.076 424.897 171.738 424.739 172.41 424.739C173.082 424.739 173.744 424.897 174.344 425.199L177.542 425.844C172.969 449.783 172.969 474.026 172.969 498.147Z" fill="#CFC3F4"/>
<path d="M374.852 540.749C386.065 539.934 396.962 537.43 407.859 534.889C409.805 539.582 412.261 544.202 410.157 549.539C401.121 549.344 393.01 553.186 384.46 555.253C379.206 556.469 373.965 557.758 368.711 559.01C369.884 552.663 371.952 546.515 374.852 540.749Z" fill="#E26A58"/>
<path d="M241.406 428.445C249.613 460.483 253.748 493.427 253.714 526.499C251.257 493.6 246.976 460.931 241.406 428.445Z" fill="#7F61DB"/>
<path d="M410.192 549.539C409.937 544.579 407.2 539.995 407.893 534.889L411.274 534.561C415.884 541.491 421.721 547.63 424.652 555.606L410.192 549.539Z" fill="#AE8DFF"/>
<path d="M386.891 606.633C381.527 606.572 375.811 607.265 373.695 600.383C376.93 599.313 380.445 598.742 383.315 597.052C387.219 594.766 388.435 595.739 388.18 599.836C388.046 602.146 389.128 604.712 386.891 606.633Z" fill="#E36D5A"/>
<path d="M424.714 555.606C420.226 548.603 414.559 542.366 411.336 534.572L412.82 532.408C415.897 540.432 421.552 546.84 426.295 553.806C427.207 555.144 428.532 556.238 428.35 558.013C427.598 557.922 426.878 557.657 426.247 557.239C425.616 556.822 425.091 556.262 424.714 555.606Z" fill="#D3CEF4"/>
<path d="M398.314 605.757C398.047 597.818 398.533 590.936 396.867 584.213C400.953 588.383 401.793 599.252 398.314 605.757Z" fill="#D65C55"/>
<path d="M412.557 591.885L410.125 590.742V583.715L410.903 583.557L412.557 591.885Z" fill="#E97E65"/>
<path d="M154.959 163.026C158.633 163.049 162.184 164.35 165.003 166.707C167.821 169.063 169.731 172.327 170.404 175.938C171.741 183.233 167.582 191.111 160.176 193.081C155.567 194.296 153.669 196.85 152.174 200.862C148.607 210.103 144.266 219.026 139.197 227.536C138.406 228.672 137.943 230.002 137.857 231.383C137.771 232.764 138.067 234.142 138.711 235.366C139.635 237.288 140.147 239.382 140.214 241.513C140.281 243.644 139.902 245.766 139.1 247.742C138.299 249.718 137.093 251.505 135.559 252.987C134.026 254.47 132.2 255.615 130.198 256.351C128.208 257.119 126.081 257.47 123.949 257.382C121.817 257.293 119.727 256.768 117.807 255.837C115.887 254.907 114.18 253.591 112.79 251.973C111.401 250.355 110.359 248.468 109.73 246.43C106.933 237.919 111.578 229.287 120.87 226.77C122.223 226.49 123.477 225.853 124.502 224.926C125.526 223.998 126.283 222.813 126.695 221.494C130.608 211.515 135.246 201.836 140.571 192.534C142.14 189.786 142.08 187.755 140.766 184.801C139.694 182.442 139.235 179.851 139.43 177.267C139.626 174.683 140.47 172.191 141.885 170.02C143.3 167.849 145.24 166.07 147.525 164.848C149.81 163.625 152.367 162.999 154.959 163.026Z" fill="#FDFEFE"/>
<path d="M539.035 116.255C527.238 102.176 526.557 90.1515 536.809 80.9966C540.986 77.2227 546.457 75.2029 552.085 75.3568C557.714 75.5108 563.066 77.8267 567.03 81.8234C576.346 91.185 575.264 103.489 563.893 116.133C564.16 116.328 564.416 116.692 564.707 116.729C577.647 118.224 583.898 126.65 587 138.285C588.812 145.118 590.478 151.987 592.302 158.82C593.117 161.92 592.302 163.95 589.59 165.956C568.04 181.579 534.413 181.506 513.106 165.713C510.881 164.06 509.92 162.662 510.747 159.731C513.082 151.578 515.194 143.363 517.083 135.087C519.272 125.543 525.231 120.072 534.523 117.799C536.055 117.385 537.49 116.79 539.035 116.255Z" fill="#FEFEFE"/>
<path d="M169.432 437.625L163.242 458.221C163.099 458.387 162.922 458.521 162.722 458.613C162.523 458.705 162.306 458.753 162.086 458.753C161.867 458.753 161.65 458.705 161.45 458.613C161.251 458.521 161.074 458.387 160.931 458.221C160.931 456.604 160.931 454.987 160.931 453.357C159.447 451.096 161.247 448.312 159.715 446.063C159.435 436.701 156.371 427.607 157.052 418.16L163.351 421.808C164.862 422.854 166.571 423.578 168.374 423.935L168.265 423.838C168.714 425.054 170.332 424.409 170.904 425.455L170.624 428.956C168.97 431.704 170.916 434.902 169.432 437.625Z" fill="#AE8DFF"/>
<path d="M149.87 389.783L139.289 338.817L140.736 338.501C145.126 354.818 148.65 371.356 151.292 388.045C151.183 388.92 150.891 389.649 149.87 389.783Z" fill="#D3CEF4"/>
<path d="M236.077 290.198C236.321 291.183 236.333 292.289 237.427 292.849C240.76 298.806 238.643 305.371 239.507 311.608C239.376 312.141 239.102 312.628 238.714 313.016C238.326 313.404 237.839 313.678 237.306 313.809C234.407 306.267 233.977 298 236.077 290.198Z" fill="#AE8DFF"/>
<path d="M237.305 313.808L238.642 312.325C241.573 316.933 245.027 321.286 245.939 326.915L244.553 328.349C240.632 324.41 238.09 319.31 237.305 313.808Z" fill="#AE8DFF"/>
<path d="M168.366 423.984C166.238 424.337 164.402 423.984 163.344 421.856C165.218 421.946 166.998 422.701 168.366 423.984Z" fill="#AE8DFF"/>
<path d="M170.897 425.504C169.79 425.334 168.671 425.2 168.258 423.887C170.277 424.179 172.49 423.644 174.217 425.224L170.897 425.504Z" fill="#AE8DFF"/>
<path d="M385.889 265.018C385.555 264.795 385.26 264.52 385.013 264.204C379.784 254.721 379.808 254.757 369.325 259.146C348.445 267.86 325.905 271.878 303.3 270.915C301.083 270.869 298.886 270.492 296.781 269.797C289.059 267.025 284.243 272.605 278.539 275.876C278.546 275.466 278.599 275.058 278.697 274.66C283.392 262.708 283.392 262.769 296.173 262.672C325.799 262.465 354.549 258.295 381.304 244.435C383.14 243.475 385.39 242.174 385.487 245.76C385.719 252.18 387.3 258.587 385.889 265.018Z" fill="#B9A6F7"/>
<path d="M384.587 284.362C383.785 284.435 382.727 284.885 382.155 284.533C374.615 279.305 367.123 279.56 359.595 284.533C359.408 284.7 359.184 284.822 358.942 284.887C358.699 284.953 358.445 284.96 358.199 284.909C357.953 284.859 357.722 284.751 357.525 284.594C357.328 284.438 357.171 284.238 357.066 284.01C356.056 282.356 357.309 281.505 358.44 280.569C363.621 276.363 373.91 275.706 380.331 278.964C382.058 279.852 383.274 281.894 385.621 281.517C385.783 282.04 385.769 282.6 385.583 283.114C385.396 283.627 385.047 284.066 384.587 284.362Z" fill="#1A3353"/>
<path d="M387.19 286.903C386.728 288.897 386.436 291.013 384.016 291.767C384.271 289.724 384.514 287.681 384.758 285.688L387.19 286.903Z" fill="#17405B"/>
<path d="M334.722 346.502C322.937 350.149 315.969 345.529 316.479 334.246C316.896 333.797 317.429 333.471 318.019 333.304C318.608 333.136 319.233 333.134 319.824 333.298C326.78 335.426 330.66 341.006 334.722 346.502Z" fill="#E6708F"/>
<path d="M317.222 276.484C320.894 276.554 324.537 277.16 328.034 278.283C329.602 278.843 331.39 279.293 330.782 281.408C330.174 283.523 328.52 282.551 327.243 282.162C322.945 280.71 318.392 280.168 313.874 280.572C309.355 280.976 304.97 282.317 300.998 284.508C299.855 285.128 298.347 286.125 297.496 284.071C296.645 282.016 298.432 281.639 299.551 280.97C304.91 277.862 311.029 276.309 317.222 276.484Z" fill="#1B3453"/>
<path d="M334.721 346.501C333.729 346.392 332.784 346.021 331.983 345.428C331.182 344.834 330.553 344.038 330.16 343.121C328.02 338.768 323.69 336.969 320.188 334.221C320.614 333.718 321.181 333.353 321.817 333.176C328.895 334.1 335.803 335.607 342.212 338.927C341.032 342.793 337.664 344.471 334.721 346.501Z" fill="#D25554"/>
<path d="M342.166 338.927C335.088 338.246 328.423 335.851 321.613 334.064C319.923 333.274 317.746 333.541 316.578 331.632C315.8 329.638 315.642 327.34 318.573 328.775C325.869 332.349 333.701 333.565 341.509 335.024C345.595 335.815 344.537 337.201 342.166 338.927Z" fill="#F9F4F3"/>
<path d="M351.747 317.833C351.808 321.03 352.039 324.289 350.397 327.207C349.692 328.422 349.424 330.684 347.15 329.711C345.606 329.055 345.654 327.596 346.068 326.064C347.38 321.892 347.713 317.473 347.041 313.152C346.749 311.547 347.041 309.505 348.962 309.286C351.395 308.994 351.674 311.122 351.735 312.994C351.832 314.635 351.747 316.24 351.747 317.833Z" fill="#D35855"/>
<path d="M316.477 308.459C316.586 305.943 317.048 303.134 319.93 302.964C322.813 302.794 323.579 305.748 323.737 308.131C323.895 310.514 323.092 313.371 320.259 313.59C317.06 313.833 316.854 310.867 316.477 308.459Z" fill="#323548"/>
<path d="M370.454 305.42C370.211 307.852 370.162 310.757 367.146 310.976C363.936 311.219 363.62 308.289 363.498 305.894C363.376 303.499 363.498 300.605 366.648 300.387C369.798 300.168 370.053 303.086 370.454 305.42Z" fill="#2C3246"/>
<path d="M316.58 331.669L321.615 334.101L320.131 334.21H316.397C315.266 333.31 316.385 332.52 316.58 331.669Z" fill="#DD706B"/>
<path d="M534.167 280.714C546.523 280.714 558.875 280.714 571.223 280.714C573.376 280.714 576.307 280.252 576.222 283.498C576.137 286.319 573.388 285.796 571.454 285.796C546.758 285.796 522.054 285.796 497.342 285.796C495.262 285.796 492.21 286.489 492.477 283.073C492.745 279.657 495.664 280.714 497.683 280.714C509.844 280.714 522.006 280.714 534.167 280.714Z" fill="#F9FBFB"/>
<path d="M541.914 258.758C551.813 258.758 561.713 258.758 571.612 258.758C573.534 258.758 576.197 258.259 576.185 261.189C576.173 264.119 573.595 263.742 571.6 263.742C551.598 263.742 531.593 263.742 511.583 263.742C509.832 263.742 507.545 264.071 507.351 261.518C507.12 258.417 509.649 258.758 511.619 258.758C521.713 258.746 531.82 258.758 541.914 258.758Z" fill="#F6F9F9"/>
<path d="M545.697 274.709C537.183 274.709 528.67 274.709 520.255 274.709C518.491 274.709 516.229 274.989 516.181 272.362C516.132 269.736 518.199 269.736 520.097 269.736H572.197C574.045 269.736 576.258 269.736 576.258 272.168C576.258 275.098 573.705 274.697 571.734 274.697C563.051 274.721 554.38 274.709 545.697 274.709Z" fill="#F5F8F8"/>
<path d="M495.958 252.752H472.34C470.48 252.752 468.4 252.752 468.315 250.235C468.23 247.718 470.431 247.73 472.231 247.73C488.187 247.73 504.139 247.73 520.086 247.73C521.886 247.73 524.124 247.572 524.124 250.162C524.124 252.521 522.142 252.812 520.196 252.8L495.958 252.752Z" fill="#F8FAFB"/>
<path d="M551.804 247.742H572.478C574.145 247.742 576.127 247.742 576.248 249.833C576.443 252.192 574.631 252.788 572.6 252.788H530.631C528.66 252.788 526.751 252.423 526.873 249.943C526.97 247.742 528.904 247.754 530.521 247.754C537.623 247.73 544.714 247.742 551.804 247.742Z" fill="#F7F9FA"/>
<path d="M490.059 269.773C495.909 269.773 501.759 269.773 507.596 269.773C509.299 269.773 510.989 270.065 511.014 272.205C511.038 274.344 509.348 274.697 507.657 274.697C495.496 274.697 483.468 274.697 471.379 274.697C469.871 274.697 468.436 274.393 468.266 272.594C468.084 270.49 469.482 269.773 471.331 269.761C477.57 269.773 483.821 269.773 490.059 269.773Z" fill="#F4F8F8"/>
<path d="M484.918 263.767C480.479 263.767 476.027 263.767 471.54 263.767C469.825 263.767 468.171 263.353 468.22 261.165C468.268 258.977 470.008 258.733 471.686 258.733C480.353 258.733 489.032 258.733 497.724 258.733C499.378 258.733 501.226 258.831 501.372 260.983C501.506 263.487 499.548 263.755 497.614 263.767C493.394 263.791 489.174 263.779 484.918 263.767Z" fill="#F4F8F8"/>
<path d="M477.532 285.845C476.122 285.845 474.699 285.942 473.3 285.845C471.257 285.675 468.241 286.599 468.338 283.134C468.411 280.228 471.075 280.775 472.996 280.702C476.231 280.629 479.466 280.702 482.725 280.702C484.586 280.702 486.629 280.702 486.812 283.134C487.018 285.869 484.805 285.699 483.029 285.796C481.254 285.894 479.357 285.845 477.532 285.845Z" fill="#F4F8F9"/>
<path d="M698.117 580.699C698.356 580.157 698.723 579.681 699.187 579.312C699.651 578.944 700.198 578.694 700.781 578.584C701.899 580.055 703.213 579.411 704.599 579.058C740.391 570.146 775.866 560.092 811.207 549.538C814.211 548.651 817.288 547.946 820.936 546.985C819.526 550.086 817.288 550 815.512 550.523C782.299 560.456 749.001 570.073 715.362 578.486C710.108 579.8 705.074 582.134 699.552 582.195L698.117 580.699Z" fill="#D3CEF4"/>
<path d="M245.941 326.915C242.888 322.368 239.507 317.979 238.644 312.325C236.625 305.93 237.768 299.328 237.428 292.873C238.729 288.885 239.751 284.812 242.986 281.699C247.364 277.505 251.705 277.079 256.363 280.715C268.403 290.113 271.881 315 262.87 327.231C259.075 332.374 252.788 332.264 245.941 326.915Z" fill="#7F61DB"/>
<path d="M602.278 405.844L600.977 404.628C602.095 401.868 604.418 399.668 604.455 396.349C604.505 396.061 604.622 395.789 604.797 395.554C604.971 395.32 605.198 395.129 605.459 394.998C605.72 394.867 606.008 394.799 606.301 394.799C606.593 394.799 606.881 394.868 607.142 394.999L608.359 396.215C607.58 400.251 608.796 405.528 602.278 405.844Z" fill="#7F61DB"/>
<path d="M632.679 401.079C633.773 403.206 633.773 406.756 637.543 405.942C641.702 404.981 647.394 409.151 649.899 402.355C651.115 399.048 653.475 399.984 655.773 401.042C658.339 402.173 660.881 403.352 663.472 404.41C667.546 406.075 671.632 407.559 667.509 413.103C666.22 414.841 667.509 416.167 669.127 416.92C672.775 418.671 673.104 426.075 679.136 423.303C683.112 421.492 684.462 422.586 685.484 426.331C686.261 429.655 687.489 432.858 689.132 435.85C691.565 439.923 689.692 441.406 686.177 442.476C685.447 443.133 684.061 443.862 684.11 444.446C684.766 451.668 680.084 451.388 675.232 450.987C674.222 450.902 673.213 450.987 672.204 450.987C668.981 450.926 665.515 451.583 662.596 450.61C658.838 449.394 660.82 444.981 659.689 442.099C656.163 433.139 648.525 428.324 637.543 429.054C629.614 429.589 621.6 436.835 620.517 445.212C619.921 449.941 618.085 451.485 613.378 450.975C608.185 450.428 602.895 450.744 597.653 450.683C597.07 446.026 598.943 440.288 592.023 438.525C590.612 438.16 590.527 436.726 591.257 435.558C594.187 430.805 594.905 424.981 598.614 420.616C606.081 424.373 609.742 418.318 614.339 414.537C616.188 413.018 614.898 411.437 614.339 410.221C612.697 406.659 614.339 405.078 617.44 403.996C621.393 402.635 625.345 401.212 629.261 399.717C630.964 398.939 632.35 398.647 632.679 401.079Z" fill="#AE8DFF"/>
<path d="M640.364 450.841C635.499 450.841 630.634 450.732 625.867 450.841C622.766 450.926 621.428 449.856 621.793 446.61C622.754 438.209 631.741 430.136 640.132 430.306C649.643 430.501 658.898 439.279 659.068 448.106C659.068 450.975 657.292 450.78 655.419 450.793C650.445 450.853 645.398 450.841 640.364 450.841Z" fill="#CFC3F4"/>
<path d="M607.143 394.999C606.073 395.547 604.638 396.446 605.149 397.504C607.338 402.124 603.689 403.072 600.977 404.677C597.803 404.677 594.203 407.546 591.905 402.246C591.382 401.03 583.951 400.884 583.501 401.917C580.594 408.495 576.715 404.021 573.2 403.498C571.291 401.759 568.725 400.762 570.099 396.945C571.072 394.246 567.74 392.908 565.843 391.328C565.161 390.951 564.505 390.513 563.799 390.197C562.158 389.468 559.835 391.692 558.825 389.82C557.3 386.749 556.078 383.536 555.177 380.228C554.715 378.732 556.284 378.465 557.293 377.796C561.537 375.048 560.832 369.285 558.752 367.924C553.73 364.726 556.32 362.161 557.67 359.012C558.059 358.1 558.278 357.103 558.582 356.155C561.014 352.617 566.451 356.386 568.688 351.741C569.613 349.821 572.337 349.213 571.303 345.869C570.269 342.526 573.966 342.222 576.058 341.723C578.381 341.164 580.838 337.991 583.416 341.541C583.955 342.393 584.679 343.113 585.535 343.646C586.391 344.18 587.355 344.514 588.358 344.624C589.36 344.734 590.375 344.616 591.326 344.281C592.277 343.945 593.14 343.399 593.851 342.684C597.499 338.939 600.004 341.699 602.923 342.599C605.842 343.498 607.313 344.884 606.924 348.738C606.596 352.009 610.415 356.228 612.871 355.717C618.952 354.501 618.636 358.988 620.168 361.869C620.864 363.534 621.39 365.265 621.737 367.036C615.656 369.832 614.695 375.121 619.742 379.522C622.284 381.735 620.594 383.753 619.742 385.346C618.392 387.705 618.222 392.702 614.878 391.668C610.378 390.27 608.931 392.252 607.143 394.999Z" fill="#AE8DFF"/>
<path d="M160.922 458.221H163.245C163.105 460.062 162.301 461.79 160.983 463.084C160.946 461.394 160.934 459.789 160.922 458.221Z" fill="#CFC3F4"/>
<path d="M159.706 446.062C161.846 448.214 160.496 450.926 160.922 453.357C158.769 451.181 160.022 448.494 159.706 446.062Z" fill="#AE8DFF"/>
<path d="M327.328 624.846H332.12C332.12 625.137 332.254 625.356 332.205 625.381C330.441 626.426 328.897 625.879 327.328 624.846Z" fill="#AE8DFF"/>
<path d="M169.434 437.625C169.835 434.756 168.218 431.607 170.65 429.005C170.468 431.911 171.331 434.962 169.434 437.625Z" fill="#AE8DFF"/>
<path d="M164.463 176.983C164.56 180.934 159.598 186.843 156.047 187.123C151.401 187.475 147.157 182.405 146.963 176.253C146.853 172.983 152.472 167.038 155.634 167.05C160.45 167.086 164.353 171.463 164.463 176.983Z" fill="#AE8DFF"/>
<path d="M133.171 242.089C133.365 245.615 128.306 251.414 125.01 251.39C120.766 251.39 116.181 246.697 115.938 242.15C115.707 237.785 120.389 232.217 124.244 232.253C128.793 232.314 132.842 236.812 133.171 242.089Z" fill="#AE8DFF"/>
<path d="M588.176 386.55C579.87 386.55 574.166 380.75 574.227 372.459C574.249 370.589 574.643 368.742 575.385 367.026C576.128 365.309 577.204 363.758 578.552 362.461C579.9 361.165 581.492 360.149 583.236 359.473C584.98 358.798 586.842 358.475 588.711 358.526C596.349 358.526 602.369 365.054 602.272 373.322C602.186 381.176 596.446 386.562 588.176 386.55Z" fill="#7F61DB"/>
<path d="M576.733 373.115C576.733 365.991 581.39 361.03 588.189 360.958C594.379 360.897 600.812 366.745 600.873 372.483C600.873 378.501 594.44 385.127 588.408 385.2C586.84 385.196 585.29 384.878 583.848 384.264C582.407 383.65 581.103 382.753 580.014 381.626C578.925 380.499 578.074 379.165 577.51 377.703C576.947 376.241 576.682 374.681 576.733 373.115Z" fill="#CFC3F4"/>
</g>
<defs>
<clipPath id="clip0_1175_451">
<rect width="865" height="642" fill="white"/>
</clipPath>
</defs>
</svg>
