<svg id="Layer_1" data-name="Layer 1" xmlns="http://www.w3.org/2000/svg" viewBox="0 0 449.22 451.65"><defs><style>.cls-1{fill:#020202;}.cls-2{fill:none;}.cls-3{fill:#010101;}</style></defs><path d="M489-61.24c-.33-3.63-2.64-5.29-5.29-6.28-15.2-5.61-29.73-12.22-43.94-18.83-8.26-4-13.22-.66-13.55,8.59V117.83c0,3,.66,5.62-4.29,5.62-39.32-.33-79,0-118.28,0-3.64,0-4.3-1-4.3-4.29v-41c0-7.93-1-15.86-5.95-22.8-5.28-7.93-12.55-13.22-21.8-14.87-10.58-2-21.48-1-32.38-1.32-5.62,0-13.22,2.31-16.19-1-3.3-3.64-.66-11.23-1-16.85-.33-3.3,1-4,4-4,8.92.33,18.17-.33,27.1.33,8.59.34,17.18-.66,23.78-6.27,7.6-6.28,14.54-13.55,14.87-24.12.33-22.47.33-44.94.33-67.4,0-3.64-1.32-5.29-4.95-6.28-9.25-2.31-18.51-.66-27.43-1-6.94-.33-9.91,3-9.91,9.91v47.58c0,3.63-.66,5.28-5,5-7.93-.33-15.53-.33-23.46,0-5.62.33-5-1.65-3.31-5.61,5-12.56,4-25.44-3.3-36.68-9.25-14.2-22.14-20.81-40-19.49a38.23,38.23,0,0,0-26.1,12.88c-13.22,13.88-14.87,32.05-5.95,48.9,1.65,3.31,1.32,5-1,7.6C132.78-8.71,123.86.21,115.27,9.13,109,15.74,101.06,21.69,98.09,30.61c-5.29,14.87-1.65,27.75,9.25,39,7.93,7.93,16.19,15.86,24.12,24.12,3.63,3.63,6.61,3,10.24.33,3.31-3,6-6.61,10.57-8.59v98.12c0,5.29.67,9.92,6.94,10.91-9.25,14.2-8.92,27.75-.33,41.63-11.56,1-23.13-.66-34.36,1.32-21.47,3.63-34.36,27.42-25.77,47.58,1,2.64,3.63,4.62,3.63,8.26h-32a15.43,15.43,0,0,0-5.62,1c-15.53,5.61-26.43,19.16-24.78,37.33,1.32,12.23,7.27,20.82,17.84,27.42,5.29,3.31,10.9,2.32,16.19,4.63H273.2c6.61-3.63,6.94-5.62,3.3-11.89-7.93-13.22-9.58-26.77-2.64-41,1.32-3,3.3-3.64,6.61-3.64,15.53.33,31.39,0,46.91,0,2.65,0,5,0,6.61-3a8.09,8.09,0,0,0-.33-8.59c-8.26-10.9-9.25-23.13-5.61-35.68,1.32-5.29,4-8.93,10.9-8.59,14.54.66,29.07.33,43.28.33,7.6,0,11.23-6,7.27-11.9-7.27-10.24-7.6-21.8-5.95-33.37,1-8.92,4-11.23,13.22-11.23h43c7.6,0,10.24-5.29,6.28-11.9a54.93,54.93,0,0,1-4.3-7.6c-5.61-13.87-3.3-26.76,4.63-39,2.31-3.31,2.31-7.6-1.65-9.58-3.64-1.66-3.31-4-3.31-6.94v-148c0-1.65-1.65-4,1.32-5,4.63-1.65,9.25-4,13.88-5.94,9.58-4.63,19.82-7.27,28.74-12.56C488-55.95,489.28-57.61,489-61.24ZM173.09-72.8a25.21,25.21,0,0,1,6.94-1,24.9,24.9,0,0,1,20.81,10.91A28.08,28.08,0,0,1,207.45-46c.33,8.59-4.29,16.19-11.23,21.14a25.91,25.91,0,0,1-16.85,6.28,26.63,26.63,0,0,1-14.21-4.29,14,14,0,0,1-2.31-1.66,26.49,26.49,0,0,1-8.26-9.91,28.92,28.92,0,0,1-3.31-11.89v-1.32C151.28-59.92,161.53-70.49,173.09-72.8ZM152.6,39.53v4c0,.66-.33,1-.33,1.32a2.24,2.24,0,0,1-1.65,3.63,1.81,1.81,0,0,1-1.65-1,.32.32,0,0,1-.33-.33l-1-1c-.33-.33-.66-.33-1-.66s-.66-.33-.66-.66,0-.33-.33-.66V42.83c0-.33,0-.33.33-.66h0a2.35,2.35,0,0,1,1-2c.33-.33.66-1,1.32-1v-.33a2,2,0,0,1,.33-1.32,2.09,2.09,0,0,1,1.65-2,1.22,1.22,0,0,1,1.32-1.33,1.4,1.4,0,0,1,1,2.32A4.34,4.34,0,0,1,152.6,39.53Zm5.62-28.74a19.72,19.72,0,0,0-6.28,3.63c-3.63,3-6.93,6-10.24,9.25-2.64,2.65-4.95,5.29-7.27,7.93s-5.28,4.3-7.6,7.27h0v4c2,2.32,3.64,4.63,5,6,3,3.31,5.62,6.94,8.92,9.58,2.64,2,4.63,3.31,5.62,6.61a3.55,3.55,0,0,1-1,3.64,11,11,0,0,1-5.29,5.61c-4.63,2-9.25-2-11.56-5.94a1.24,1.24,0,0,1-.33-1,1.19,1.19,0,0,1-.67-.33,4.56,4.56,0,0,1-1.32-1c-.33,0-.66-.33-1.32-.33-3-1.65-4.29-4-6.28-6.28s-4.29-4.29-5.61-6.93c-3.31-6-2.32-11.57-1.32-17.85A3.34,3.34,0,0,1,113,32.26V31.6A3.75,3.75,0,0,1,114,29c.33-1,.66-1.65,1.65-2a2.8,2.8,0,0,1,2.64-2.32h0c.33-.33.33-.66.66-1,1.66-1.65,4-3,5-5v-.33c0-.67.33-1,1-1.66,2.31-2.31,5.62-4,7.93-6.6.33-.33.66-.67.66-1a1.81,1.81,0,0,1,1.65-1,.32.32,0,0,1,.33-.33,2.72,2.72,0,0,1,1.66-1.65c3.3-4.29,7.26-7.6,10.57-11.56a3,3,0,0,1,2.31-1c0-.33.33-.33.33-.67.33-.66,1-1,1.32-1.32.33-2.64,3.64-4.95,5.95-2.31s7.6,3,10.9,4.3c4,1.65,8.26,1.65,12.23,3.3A1.71,1.71,0,0,1,182-3.75c2.64-.66,5.62-.66,8.26-1.32h.66l.33-.33c2-1.66,4.63-2,6.94-3A36.82,36.82,0,0,1,208.11-11c4.3-.66,8.26,0,12.56,0,5,0,9.91-.33,14.86-.33h0a10.67,10.67,0,0,1,5.62-.33,3.51,3.51,0,0,1,2.64-.33c5.29,1.32,12.23.33,17.85-1a3.29,3.29,0,0,1,1.65-1.32c.33-.33.33-.66.66-1-.33-2.31.66-5.28,1-7.59a5.66,5.66,0,0,1,.33-2.32,2.47,2.47,0,0,1-.33-1.65V-32.5a3.54,3.54,0,0,1-.66-2c-.66-9.58,0-19.16,0-28.74,0-5-.33-10.24,4.29-10.91a2,2,0,0,1,1.33-.33c3,0,6.27-.66,8.26,2,2.31,2.64,1,6.93,1,10.24.33,10.9,0,21.47-.33,32.38a3,3,0,0,1-.33,1.65,2,2,0,0,1,.33,1.32v2.64h0a18.86,18.86,0,0,1-.33,4.3v1.65a18,18,0,0,1-4.63,11.23c-2.64,3-5.62,6.61-9.58,7.93a56.7,56.7,0,0,1-14.87,1.66c-4,0-9.58.66-13.21-.66-4,.33-7.6.66-11.57.66-4.29,0-11.23-1-14.87,1.32-1.65,3.63-1.32,7.93-1.65,11.89-.33,2.65-.33,5-.66,7.6.66,6.94.66,13.55.66,20.49v3.63h0a1.17,1.17,0,0,1,1.32,1.32h0v.66h0v.33a.32.32,0,0,0,.33.33v.33l.33.33h0c2.32.33,4.3,1,6.61,1a77.76,77.76,0,0,0,8.59.33,4.78,4.78,0,0,1,2.32-.66c5.28,0,10.57,1,15.85.66a6.26,6.26,0,0,1,2.65-.66c5.94,0,11.89.66,17.84.66,4.29,0,7.6.33,11.23,2.64,6.28,4.29,9.25,12.22,9.25,19.49a3,3,0,0,1-.33,1.65h0v39.65c1,2.65-.33,6.28-4.29,6.28a3,3,0,0,1-1.65-.33h-1c-1.65,0-3.3-.33-5-.33s-3.31.66-5,.33c-2.64-.33-4.62-2-4.62-4.63a6.12,6.12,0,0,1,.66-2.31,6.43,6.43,0,0,1-.33-2.64,50.81,50.81,0,0,0,.66-14.21c0-4.29.66-8.92,0-13.22V82.81c0-2.64.33-6.27-1.65-8.59-1.33-1.65-4-2-6-2.64-.33,0-.33,0-.66-.33a4.19,4.19,0,0,1-2-.33h-1c-20.48,0-40.63.33-61.12.66h-1c-6.61,3.63-4.3,19.16-4.3,25.11V98c-.33,7.93.67,15.86.34,23.79,0,.66-.34,1.32-.34,2V147.9c.34,7.27-.66,14.87.67,22.14a4.14,4.14,0,0,1-.33,3h0c0,.33,0,.33-.34.66v.66a4.21,4.21,0,0,1-4,2.32h-1.32c-2.31-.33-4.63-1-6.94-.33-2.64.66-5.29.66-7.6-1.33-2-2-2-4.29-2-6.93a58.49,58.49,0,0,1,.33-7.6c0-.33.33-1,.33-1.33a3,3,0,0,1,1.32-2.64c-2,2-.66,1.32-1-.66a11.23,11.23,0,0,1-.33-3.3c0-1.32-.33-3-.33-4.3,0-6.28.33-12.88.66-19.49a6.23,6.23,0,0,1-.66-2.65v-8.92a40.43,40.43,0,0,1,.66-6.27,3,3,0,0,1-.33-1.66c-.33-5.61-.33-10.9-.33-16.18a34,34,0,0,1,.33-5.62c0-.33-.33-1-.33-1.32,0-4.3.66-8.59.66-12.89-.33-5-1-9.58-.33-14.54,0-.66.33-1,.33-1.65,0-6.94-.66-13.87-.66-20.81,0-6.61,1-13.22.33-19.83-.33-3.63-.66-5.61-3.63-7.27l-2-1C159.54,10.46,158.88,10.46,158.22,10.79Zm91.85,105.39a5.39,5.39,0,0,1-3,6.61c-.33,0-.33,0-.66.33a2.81,2.81,0,0,1-2.32,0,3.83,3.83,0,0,1-3.3,0,5.62,5.62,0,0,0-2.31-.33c-.33.33-1,.33-1.32.66-4.63,1-8.92,3.31-13.55,4.63a11.85,11.85,0,0,1-3.3,2.31l-.33.33c-5,4.63-9.59,10.57-10.25,17.51a2.41,2.41,0,0,1-2,2.31,64.6,64.6,0,0,0-.66,8.26c0,.33,0,1-.33,1v.66c0,3.3,1.65,5.94,2.64,8.92a12,12,0,0,0,1.66,3.63,7.32,7.32,0,0,1,1.65,3.64,2.48,2.48,0,0,1-1.65,2.31,14.35,14.35,0,0,1-5.29.33c-.66,0-1-.33-1.65-.66A2.73,2.73,0,0,1,201.5,177a33.89,33.89,0,0,1-1.65-11.57c0-4,0-7.93.33-11.89,0-4,.33-7.93.33-11.9V129.4a3.59,3.59,0,0,1-.33-1.65c1.32-10.91-1.32-22.14.66-32.71a4.62,4.62,0,0,1,4.3-6.28,2.47,2.47,0,0,1,1.65.33H236.2a3,3,0,0,1,3-.66,28.26,28.26,0,0,0,5.29,0c2,0,4.29,1.65,4.62,3.3.66,4.3-.33,7.93-.66,12.23A47.55,47.55,0,0,1,250.07,116.18ZM257,347.46a2.52,2.52,0,0,1-1.65-.66,4.69,4.69,0,0,1-2,.66,3.86,3.86,0,0,1-2.32-.66c-15.53,0-31.05-.33-46.58-.33h-.33c-9.92,1.65-20.16,1.32-30.07.66-.33,0-.66.33-1,.33a297.25,297.25,0,0,1-38.33-.66c-.33,0-1,.33-1.32.33-5.28,0-10.24-.33-15.53-.33a4.19,4.19,0,0,1-2,.33c-12.22,0-24.45.66-36.67.66a3.77,3.77,0,0,1-2.65-1,24.71,24.71,0,0,1-6.93-.66c-3-.66-5.29-2.31-7.93-3.3a4.62,4.62,0,0,1-2.65-2.32,11.12,11.12,0,0,1-3.63-5.61v-.33A9.71,9.71,0,0,1,53.82,330a4.19,4.19,0,0,1,.33-2v-1.65c-.66-3-.33-4,1-6.61a3.29,3.29,0,0,1,1.32-1.65.33.33,0,0,1,.33-.34c0-.66.33-1,.66-1.65,4-7.6,13.55-11.23,21.81-11.23h1.32c13.21,0,26.1.33,39.32.33a2.49,2.49,0,0,1,1.32.33,3.25,3.25,0,0,1,2.64-1c5.29,0,10.57-.33,16.19-.33.66,0,1.32.33,2,.33,14.21,0,28.75,0,42.95.33,10.58,0,20.82,1,31.39,1,10.24,0,20.49-1,30.73-1a4.77,4.77,0,0,1,2.31.66,9.14,9.14,0,0,1,3-.33h3a2.57,2.57,0,0,1,2.31-1c3.3,0,3.64,4.62,1,5.62,0,1-.66,1.65-1,2.64a3.9,3.9,0,0,1-.33,3.3c1,1.65.33,4.63-2.31,4.63-.66,0-1,0-1.32-.33h-1c-27.09,0-54.51-.66-81.6-.66-13.88,0-27.76.33-41.63,0-12.89-.33-25.77-.66-38.66.66-.33,2.31-1.32,4.29-1.65,6.28-.33,2.31.33,4.62,1,6.93.33,0,1-.33,1.32-.33,7.6,0,14.87,1.32,22.47,1.32,7.27,0,14.21-.33,21.47-1a6.23,6.23,0,0,1,2.65.66h31.72a3.75,3.75,0,0,1,2.64-1c10.57.33,21.14,1,31.72,1h33a4.77,4.77,0,0,1,2.31.66h11.89a3.66,3.66,0,0,1,3.31-1.65c4,0,4.95,4.3,3.3,6.94,1,.66,1.32,2,1.65,3.31C260,343.5,260,347.46,257,347.46Zm54.19-55.18a6.23,6.23,0,0,1-2.65-.66h-.66c-9.25,1-19.49.66-28.74.66-9.92,0-19.5-.33-29.41-.33-19.16-.33-38.65.33-57.82.33a4.77,4.77,0,0,1-2.31-.66,19.27,19.27,0,0,1-6.28,1H181a18.75,18.75,0,0,1-6-1,15.41,15.41,0,0,1-5.61,1c-9.26,0-18.51-.33-27.43-.33a25.47,25.47,0,0,1-4.95-.66c-1,0-1.66.33-2.65.33h-3a21.09,21.09,0,0,1-10.9-3.3,18.81,18.81,0,0,1-8.26-9.25,17.69,17.69,0,0,1-2.65-9.25c-.33-7.6,5-14.54,11.57-17.51a17.42,17.42,0,0,1,9.25-2.32c1.32,0,3,.33,4.29.33h2c11.89,0,23.78.67,35.35-.33a14.29,14.29,0,0,1,5.28.33,13.76,13.76,0,0,1,5.29-.66,25.75,25.75,0,0,1,5.29.66,6.12,6.12,0,0,1,2.31-.66c39.65,0,79,0,118.61-.33a2.47,2.47,0,0,1,1.65.33c4,0,5,4.63,3,6.94a5.32,5.32,0,0,1-1.32,2.31c-3,4.63-8.59,5-14.21,4.63-10.24-.33-20.15-.66-30.4-.33-12.22.33-24.45.66-37,.33-5.62-.33-11.23-.33-16.85-.33-2.64,0-8.59-1.32-10.57,1a7.08,7.08,0,0,1-2,1.32,9.17,9.17,0,0,1,.33,3v.66a22.28,22.28,0,0,1,.66,4.62,9.23,9.23,0,0,1-.33,3c8.59.33,17.18,1,25.78,1h25.44c17.51,0,35,.33,52.86.33h.33a2.47,2.47,0,0,1,1.65-.33h1a5.41,5.41,0,0,1,2.32,1.32,4.91,4.91,0,0,1,1.32,3V283h0a.32.32,0,0,0,.33.33c.33.33.33,1,.66,1.33C316.48,286,315.82,292.28,311.2,292.28ZM369,204.07c0,.33,0,.33-.33.66v.33a1.81,1.81,0,0,1-1.65,1c-.66.33-1,.33-1.65.66h-2a1.45,1.45,0,0,1-1.65.33c-4.63-.66-9.26-.33-13.88-.33H320.78c-4.3,0-8.59,0-12.56,1.32h-.33a22.46,22.46,0,0,1-.66,5v.66a22.19,22.19,0,0,1,0,6.61c.66,0,1.65-.33,2.31-.33a88.88,88.88,0,0,1,16.19,1,4.78,4.78,0,0,1,2.32-.66c3.3,0,6.93.33,10.24.33a4.89,4.89,0,0,1,2.31-.33c7.93,0,16.52,1,24.45,0,3-.33,4.63,2.64,5,5v2.32a5.68,5.68,0,0,1,.66,4,2,2,0,0,1-.33,4,1.82,1.82,0,0,1-1.66-1,4.91,4.91,0,0,1-5.94,0h-1.32a4,4,0,0,1-3,1,4.77,4.77,0,0,1-2.31-.66c-.66.66-1.65.66-3,.66a97.82,97.82,0,0,0-13.88-.66,3,3,0,0,1-1.65.33H324.74a3,3,0,0,1-1.65-.33,14.29,14.29,0,0,1-1.65.33c-6.94-.33-13.88-.33-21.15-.33a4.08,4.08,0,0,1-2-.34,78.24,78.24,0,0,1-8.92.34h-1.32a72,72,0,0,1-8.26.33c-1.32,0-2.32-.33-3.31-.33s-2,.33-3,.33c-27.75,0-55.51.33-82.93.33-1.32,0-2.64-.33-4-.33a14.09,14.09,0,0,1-7.93-2.32,14.13,14.13,0,0,1-10.91-9.58A17.41,17.41,0,0,1,166.48,211a14,14,0,0,1,6.61-11.24,13,13,0,0,1,9.58-5,9.14,9.14,0,0,1,3-.33h2a12.37,12.37,0,0,1,3.63-.33h6.94a5.62,5.62,0,0,1,2.31.33c16.85-.33,33.7-1.32,50.55-.66a9.82,9.82,0,0,1,3.31.66H269.9c1.65,0,4,.33,6.27.33a16.8,16.8,0,0,1,4.3-.66h4.62a5.66,5.66,0,0,1,2.32.33c.33,0,.33,0,.66-.33a13.48,13.48,0,0,1,6.27-.33,1.24,1.24,0,0,1,1-.33c5.61-.33,11.23.33,16.85,0a97,97,0,0,1,17.18-.33c5.61.33,11.23.66,17.18.66,5.61,0,11.56-.33,17.18-.33.66,0,1,.33,1.32.33s.66-.33,1-.33a9.39,9.39,0,0,1,4.3-.33,1.81,1.81,0,0,1,1,3c-.33.33-.33.66-.66,1.32h0c0,.33,0,.33-.33.66-.33.66-.33,1.65-.66,2.31s-.33,1.66-.67,2.32c0,.33-.33.66-.33,1C369,203.41,369,203.74,369,204.07Zm56.83-25.77c-3,.66-5.61,0-8.26,0A74.85,74.85,0,0,1,409,178a2.23,2.23,0,0,1-2,1.32c-4,0-7.93-.33-11.89-.66-3.64,0-7.6-.33-11.24-.33-7.6-.33-15.2,0-22.79.33-.67,0-1-.33-1.66-.66-4,0-7.6,0-11.56.33a88.47,88.47,0,0,1-13.22.33c-4,0-7.93-.33-11.89,0-3.64,0-6.94.33-10.57-.66h-.33a32.81,32.81,0,0,1-9.92.66c-3.3-.33-6.93-.33-10.57-.33s-7.27-.66-10.57-.66-6.94.33-10.24.33h-1a1.62,1.62,0,0,1-2,1,49.7,49.7,0,0,1-7.27-.66,48.74,48.74,0,0,0-6.93-.33h-1.66c-2,0-4,.33-5.94.33h-2.32c-.66.66-2,1-2.64.33-2.64-1.32-5.62-2-8.59-3.31a18.22,18.22,0,0,1-6.61-5.61,22.26,22.26,0,0,1-2-4c-.33-1.32-1-3-1.32-4.29a21.72,21.72,0,0,1,0-4.63,7.27,7.27,0,0,1,.33-2.64c0-.33.33-.66.33-1h0a6.22,6.22,0,0,1,.66-2.32v-.33c.33-1,.66-1.65,1-2.64.33-.33.33-.66.66-1v-.33c0-.33,0-.33.33-.66a4.56,4.56,0,0,1,1-1.32,3.94,3.94,0,0,1,1.66-1.65c0-.34.33-.34.33-.67a3.38,3.38,0,0,1,2-1.65h1a7.79,7.79,0,0,1,3-2h1a.32.32,0,0,1,.33-.33c.34-.33.67-.33.67-.66h.33a1.81,1.81,0,0,1,1.65-1,32,32,0,0,0,5.61-.33h.67c1.65,0,3.63-.33,5.28-.33,4-.33,7.93-.33,11.57-.33h24.78a2.52,2.52,0,0,1,1.65-.66c6.28,0,12.22.33,18.5.33,5.95,0,12.22.66,18.17.66h18.83c5.62,0,11.57-.33,17.18-.33H372a32.51,32.51,0,0,1,5.61.66c2,.33,4-.33,5.95-.33h1c3.64-.33,7.27,0,10.91,0h0c6.6,0,13.21-.66,19.82-.33h8.26c2,0,3.63,1,3.63,3.3s-1,4.63-1.65,6.94-2.64,3.3-4.62,3.63a53.8,53.8,0,0,1-14.54.66h-2a.32.32,0,0,0-.33.33h-.66c-3,0-5.95.33-8.92.33s-5.62-.33-8.6-.33h-2a32,32,0,0,1-5.61.33H371c-1.32,0-3,.33-4.3-.33-1.65,0-3.3-.33-4.95-.33h-35a2.81,2.81,0,0,1-1.65,1,2.52,2.52,0,0,1-1.65-.66H322.1a2,2,0,0,1-1.32-.33,5.66,5.66,0,0,0-2.32.33,2,2,0,0,0-1.32.33c-.66.33-.66.33-1,.33s-.33.34-.66.34l-.33.33-.33.33-.33.33c0,.33-.33.33-.33.66h0v.33c0,.33-.33,1-.33,1.32h0v8.59h0c.33,0,.33.33.66.33a1.15,1.15,0,0,1,.66.33c.33,0,0,0,.33.33.66.33,1,.33,1.65.66h2.32a1.71,1.71,0,0,1,1.32.66h2c2.64,0,5.29-.66,7.93-.66a2.52,2.52,0,0,1,1.65-.66c6.61-.33,13.22.66,19.82.66,5.95,0,11.57-.33,17.52-.33,5.61,0,11.56,0,17.18.33q17.34.49,34.69,0h.33a2.57,2.57,0,0,1,3,2c0,1,1,2.65,1.32,3.64a26.31,26.31,0,0,1,1,5A2,2,0,0,1,425.84,178.3Zm36-237.56h-.33a.88.88,0,0,1-1,1h-1a1.15,1.15,0,0,0-.66.33c-.66.33-1.32.33-1.65.66a4.48,4.48,0,0,1-1,1.33,28.64,28.64,0,0,1-5.62,2.31c-.66.33-1.65.33-2.31.66-.33,0-.66.33-1,.33H447a2.47,2.47,0,0,1-1.65.33,3,3,0,0,1-2,1.32A2.26,2.26,0,0,1,441-53.31c0-4.3-.66-8.59.33-12.56,0-.33,0-.33.33-.66a2.31,2.31,0,0,1,1.65-4,2,2,0,0,1,2,1,1.21,1.21,0,0,1,1,.33,17.78,17.78,0,0,0,4.29,2.31H451c.33,0,.33,0,.66.33.33,0,.66.33,1,.33a17.2,17.2,0,0,0,2.31,1c.33,0,.66.33,1,.66h.33a4,4,0,0,1,2.64.66c.33.33.66.66.66,1h0c.66.33,1,.33,1.66.66a1.15,1.15,0,0,1,.66.33h.66C462.85-61.24,462.85-59.59,461.86-59.26Z" transform="translate(-39.77 88)"/><path d="M399.74-45.38a9.88,9.88,0,0,0-2.64-1.32c-14.54-4-22.8-14.87-27.42-28.09-1.33-4-3.64-6.27-6.94-5.94-3.31,0-5.62,2.31-6.94,6.27C351.17-60.91,342.91-51,328.71-46.37c-3.31,1-8.26,2-7.27,7.93-.66,1.65.66,2.64,1.65,4.29,2.64,3,6,2.65,8.92,4,12.56,5.94,20.82,15.2,24.12,29.07a6.5,6.5,0,0,0,6.94,4.63,6.76,6.76,0,0,0,6.28-4.63c4.29-15.53,13.54-26.1,29.4-30.39,3.3-1,6.28-3.31,6.61-6.94C406-42.41,403.05-44.06,399.74-45.38ZM377.6-37.12h-.33a.32.32,0,0,0-.33.33l-.33.33-.66.66-1.65,1.65c-.66.66-1.32,1-2,1.65l-.33.33c.33-.33,0,0-.33,0-.33.34-.66.34-.66.67-.33.33-.66.66-.66,1l-.33.33-.33.33a3.37,3.37,0,0,1-1.33,1.65A7.2,7.2,0,0,1,367-26.55h0l-.33.33h0v.33c0,1-1,1.32-1.65,1.65a1.81,1.81,0,0,1-1.65,1,2.21,2.21,0,0,1-2.31-1.66v-1h0c-.34-.33-.67-.33-.67-.66l-.33-.33v-.33c-.33-.33-.66-.66-.66-1-.33-.66-1-1-1.32-1.65s-1-1.32-1.32-2l-.33-.34h0a.71.71,0,0,0-.66-.66l-.33-.33h0c-.66-.33-.66-.33-.33-.33h0a.32.32,0,0,1-.33-.33,2.5,2.5,0,0,0-1.32-.66,7.75,7.75,0,0,1-3-2.64h-.66c-3,0-3-4.63,0-4.63h.66l.33-.33a8.46,8.46,0,0,0,2.32-1.32L354.81-45c.33-.33,1-.66,1.32-1.32a.32.32,0,0,1,.33-.33c0-.33,0-.33.33-.66a2.1,2.1,0,0,1,2-1.66v-.33h0c0-.33.33-.33.33-.66h0a.32.32,0,0,0,.33-.33,4.37,4.37,0,0,1,1.66-2c0-.33,0-.33.33-.66,0-.33,0-.33.33-.66,0-.33.33-.66.66-1l.33-.33h0a2.52,2.52,0,0,1,1.65-.66,2.47,2.47,0,0,1,2.31,2l.33.33a36.06,36.06,0,0,1,2.65,3.63l.33.33h0c.33.33.33.67.66,1s.66,1,1.32,1.32l1.32,1.32c.33.33.66.33.66.66h0l.33.33c1.32,1,2.64,1.32,3.64,2.31.33,0,.33.33.66.66h.66C380.58-41.75,380.58-37.12,377.6-37.12Z" transform="translate(-39.77 88)"/><path class="cls-1" d="M73.31-25.56c-4.63,1.32-5.62-1.32-6-6.61C67-38.77,70-38.77,75-39.1c6.94-.66,6.94,2.64,7.27,7.93C82.89-23.57,78.27-25.89,73.31-25.56Z" transform="translate(-39.77 88)"/><path class="cls-1" d="M102.72-25.89c-5,1-7.27,0-7.6-6.28-.33-7.26,3.3-6.6,8.26-6.93,6.27-.66,6.6,2,6.93,7.27C110.64-25.23,107.67-24.9,102.72-25.89Z" transform="translate(-39.77 88)"/><path class="cls-1" d="M46.22-25.89c-5.62,1.65-6.28-1.65-6.28-6.61-.33-5.94,2-6.27,6.94-6.6,7.27-.66,5.95,3.63,6.61,8.26C54.15-24.9,50.51-25.56,46.22-25.89Z" transform="translate(-39.77 88)"/><path class="cls-2" d="M165.49,95.7V20.37c0-3.64,0-7.93-3.63-9.25q-5-2-9.92,3c-7.93,7.27-15.19,15.2-23.12,22.8-3.64,3.63-3.31,7.27,0,10.9,5.28,5.29,10.57,10.9,15.86,15.86,2.31,2.31,2.64,3.63.33,6.28-7.93,8.26-7.93,8.59-16.19.33L115.93,57.37c-9.58-9.25-6.94-24.12.33-31.39,12.23-12.22,24.78-24.44,37-36.67,1-1,1.32-1.32,3.3-.66C168.79-4.41,183-.45,195.56-7s24.78-3,37.33-4.3c6.94-.66,13.55,0,20.49,0,9.25,0,10.9-2,10.9-11.23,0-15.2.33-30.07,0-45.27,0-5,.66-6.61,6-6.28,8.59.67,8.59,0,8.59,8.59,0,15.2-.66,30.73.33,45.93.66,10.24-10.58,23.46-23.46,23.13-13.22-.33-26.43,0-40,0-5.62,0-7.93,3.3-8.26,7.93q-.49,16.35,0,32.71c0,5.61,4,8.92,9.58,8.92h48.9a18.91,18.91,0,0,1,18.5,18.5V118.5c0,3.63-1,5-4.62,4.62-5.29-.66-11.9,2-15.2-1-3-3-.66-9.58-1-14.54V84.13c0-7.26-3-10.57-10.24-10.57H196.22c-7.27,0-9.58,2.31-9.58,9.58V173c0,4.63-1,6-5.62,5.62-5.29-.66-12.23,1.65-15.2-1-3.3-3-1-10.25-1-15.53C165.49,140,165.49,117.83,165.49,95.7Z" transform="translate(-39.77 88)"/><path class="cls-2" d="M372,193.5c-1.32,3-2.64,5.94-2.64,9.58,0,3.3-2,4.62-5.29,4.29-17.51-.33-35,0-52.53-.33-5,0-5.29,2.31-4.63,5.62.66,3-2.64,7.93,4.63,7.93,17.51-.33,35,0,52.53-.33,3.63,0,5.29,1.32,5.29,4.29,0,3.31,1.32,6.61,2.64,9.91-1,0-2,.34-3,.34H188.29c-13.88,0-23.46-12.23-22.47-22.14a22.32,22.32,0,0,1,22.47-20.16H366.37C367.69,192.83,369.68,192.17,372,193.5Z" transform="translate(-39.77 88)"/><path class="cls-2" d="M219.35,249.33h90.52c5.29,0,5.62,1.32,4.3,5.95-1.65,6.28-4.63,7.6-10.9,7.6-32-.33-64.1,0-95.82-.33-5,0-5.95,1.32-5.95,5.95.33,8.59,0,8.59,8.92,8.59h95.82c1.65,0,4.29-1.66,5,1.32,1,4,4,7.27,3.63,11.89,0,1.32-1,1-1.65,1H132.78c-10.57,0-20.48-7.6-22.14-15.86-2-10.24.67-19.16,11.24-25.11,2.31-1.32,4.62-1.32,6.94-1.32C159.21,249.33,189.28,249.33,219.35,249.33Z" transform="translate(-39.77 88)"/><path class="cls-2" d="M331.68,178.3H242.47a19.92,19.92,0,0,1-19.82-16.52c-1.65-8.92,2-16.85,10.9-22.14,4.63-2.64,9.25-3.3,14.21-3.3H421.22c7.27,0,6.27,0,5.28,6.94-1.32,8.59-5.94,7.59-12.22,7.59-31.39-.33-62.78,0-94.16-.33-4.63,0-6.61.66-6.28,6,.33,8.59,0,8.59,8.59,8.59H418.9c2,0,5.62-.33,5.62.66,0,4.3,3,7.6,2.64,11.57-.33,2.64-3,1.32-4.62,1.32H356.79Z" transform="translate(-39.77 88)"/><path class="cls-2" d="M259.65,347.13H74a21.18,21.18,0,0,1-20.48-16.85c-1.66-7.6,1.65-16.52,11.23-22.14a26.2,26.2,0,0,1,13.22-3.3H259.65c-.33,5-4.29,8.59-3.63,13.22.33,1.65-2.31,1-3.3,1H94.12c-4.62,0-5.61,1-5.61,5.61.33,8.92,0,8.92,9.25,8.92H249.08c4,0,7.93-1,7.6,5.62C256.35,341.84,258.33,344.49,259.65,347.13Z" transform="translate(-39.77 88)"/><path class="cls-2" d="M179.37-73.8c15.86,0,27.75,12.23,28.41,27.76C208.11-33.82,194.57-18,180.69-18,163.18-18,151.28-30.84,151.28-46,151.28-60.58,162.19-74.46,179.37-73.8Z" transform="translate(-39.77 88)"/><path class="cls-2" d="M213.73,178c-12.23,1-12.23,1-12.23-10.91V93.39c0-5,1.33-6,5.95-5.62,12.56.33,24.78.33,37.34,0,4.29,0,5.28,1.32,5.28,5.29-.33,8.59-.33,16.85,0,25.44,0,3-.33,4.62-4,4.62-12.23-.33-23.46,3.64-30.4,13.55-7.6,11.23-10.57,23.46-3.3,36.34C213.07,174.33,214.39,176,213.73,178Z" transform="translate(-39.77 88)"/><path class="cls-2" d="M463.84-59.92c-6.94,3-12.89,6-19.16,8.59-1.66.66-4,1.32-4-2.31V-68.18q0-3.46,3-2C450-66.2,457.23-64.54,463.84-59.92Z" transform="translate(-39.77 88)"/><path class="cls-2" d="M152.27,34.24V49.11C142.69,44.16,142.69,43.5,152.27,34.24Z" transform="translate(-39.77 88)"/><path class="cls-2" d="M362.74-21.92c-5-5.95-8.92-12.23-15.86-15.86-2-1-1.32-2.65,0-3.31,5.95-3,10.24-7.93,13.87-13.21.67-1,2.32-1.65,3.31-.66l1,1c3.63,5.29,7.6,10.24,13.88,13.21,1,.33,2,2,0,3.31C372-34.15,367.69-27.87,362.74-21.92Z" transform="translate(-39.77 88)"/><path class="cls-3" d="M250.07,207.37c12.23,0,24.45.33,36.68,0C292.69,207,292,210,292,214c0,3.63.66,7.27-5.61,6.94-24.78-.33-49.56-.33-74,0-3.31,0-5-.33-5-4.63,0-8.92,0-8.92,8.92-8.92Z" transform="translate(-39.77 88)"/><path class="cls-3" d="M151.94,277.09c-6.6,2-6.6-2-6.93-7.27-.67-7.27,3-6.61,8.26-7.27,7.93-1,5.94,4,6.6,8.26C160.53,277.42,156.9,278.08,151.94,277.09Z" transform="translate(-39.77 88)"/><path class="cls-3" d="M180.36,263.21c7.6-2.31,6.61,2.64,7.27,7.27,1,7.93-3.64,6.28-8.26,6.94-7.93,1-6-4.3-6.28-8.26C171.77,262.22,175.4,261.89,180.36,263.21Z" transform="translate(-39.77 88)"/><path class="cls-3" d="M264.94,150.87c7.6-2.31,6.28,2.65,6.94,7.6,1,7.93-4,5.95-8.26,6.61-7.93,1.32-5.95-3.63-6.61-8.26C256.35,150.54,259.65,149.55,264.94,150.87Z" transform="translate(-39.77 88)"/><path class="cls-3" d="M291.7,164.75c-7.27,2.31-6.28-2.64-6.94-7.6-.66-6.28,2-6.61,7.27-6.94,6.94-.33,7.27,2.65,7.6,8.26C300,165.41,297,165.74,291.7,164.75Z" transform="translate(-39.77 88)"/></svg>