<svg width="110" height="110" viewBox="0 0 110 110" fill="none" xmlns="http://www.w3.org/2000/svg">
<g clip-path="url(#clip0_1109_655)">
<path d="M8.33468 110C7.08667 109.438 5.68451 109.704 4.395 108.885C1.85154 107.267 0.351549 105.177 0.0610373 102.204C-0.371765 97.7683 2.3377 94.5329 6.11138 93.1222C6.56186 92.9666 7.03706 92.8945 7.51354 92.9093C10.1133 92.8945 12.7161 92.9093 15.3277 92.9093C15.3277 92.0457 14.6933 91.5637 14.4147 90.913C12.3396 86.0008 15.4789 80.1984 20.7585 79.3201C23.5509 78.8558 26.3434 79.2462 29.1922 79.0037C27.0727 75.6441 27.0104 72.2726 29.2604 68.8302C27.6892 68.6262 27.5262 67.4906 27.5292 66.1686C27.5529 58.2132 27.5292 50.2549 27.5292 42.2315C26.4235 42.6929 25.8098 43.6511 24.9768 44.3401C24.1438 45.0292 23.3731 45.183 22.4956 44.2632C20.5776 42.2552 18.5796 40.321 16.6083 38.3662C13.884 35.6632 13.051 32.4514 14.3109 28.8553C15.0728 26.6727 16.9522 25.2177 18.5292 23.6088C20.6577 21.4352 22.8276 19.294 25.0154 17.1795C25.629 16.588 25.6883 16.1474 25.2673 15.3548C23.0974 11.2647 23.5035 6.82272 26.714 3.42468C28.3738 1.59451 30.6741 0.469302 33.1408 0.28098C37.4629 -0.106438 40.6733 1.51717 42.9233 5.0128C44.7346 7.80753 44.9687 10.9009 43.7266 14.0032C43.3205 15.0117 43.1901 15.4819 44.5419 15.411C46.4569 15.3311 48.3956 15.3252 50.2987 15.411C51.3333 15.4612 51.4845 15.059 51.4845 14.163C51.44 10.2799 51.4637 6.3998 51.4667 2.51971C51.4667 0.777805 52.1367 0.0207207 53.8679 0.0680389C56.1178 0.130144 58.3738 -0.227706 60.6178 0.301666C61.5071 0.51164 61.8036 0.970043 61.8036 1.82473C61.8036 7.32547 61.8777 12.8292 61.7591 18.3299C61.7057 20.8792 60.019 22.6921 58.1366 24.1914C56.4706 25.5223 54.4252 25.818 52.2938 25.7086C50.0823 25.6051 47.862 25.7086 45.6476 25.6672C44.8857 25.6672 44.5982 25.8505 44.6634 26.6402C44.779 28.0479 44.1002 29.8696 44.9213 30.7539C45.6772 31.5731 47.5211 30.9639 48.8847 30.9934C51.5319 31.0437 54.1969 30.8071 56.8145 31.3099C59.0911 31.7476 60.8431 33.0281 62.1504 34.9504C63.3184 36.6568 63.5496 38.5821 63.5733 40.5517C63.6128 43.8896 63.6128 47.2295 63.5733 50.5713C63.5733 51.3698 63.7334 51.6537 64.6049 51.6508C74.2541 51.6182 83.9061 51.6035 93.5582 51.6508C94.7618 51.6508 94.6254 51.0593 94.6254 50.3141C94.6254 34.7385 94.6254 19.1629 94.6254 3.58734C94.6254 3.24428 94.6254 2.89827 94.6254 2.55521C94.6521 0.319427 95.8942 -0.487948 97.904 0.458416C101.461 2.1323 105.019 3.71154 108.703 5.0956C109.358 5.34402 109.954 5.76692 110.002 6.64526C110.049 7.52361 109.744 7.96427 108.997 8.39309C106.75 9.68843 104.254 10.3716 101.93 11.4983C100.824 12.0366 99.6945 12.5334 98.5473 12.977C97.8121 13.2728 98.1916 13.814 98.1886 14.2103C98.156 19.4182 98.1679 24.6232 98.1679 29.8312V50.317C98.1679 50.9883 98.0849 51.5739 98.9386 51.9909C99.9465 52.4848 99.9139 53.511 99.3566 54.3568C97.4001 57.3615 96.8487 60.52 98.1975 63.9003C98.4988 64.5517 98.8507 65.1786 99.2499 65.7753C100.21 67.39 99.5463 68.6676 97.6876 68.6853C94.1896 68.7238 90.6946 68.6853 87.1996 68.6853C84.9644 68.6853 84.2737 69.2472 84.001 71.4239C83.6393 74.2955 83.7372 77.0636 85.4832 79.601C86.5118 81.1034 85.6136 82.517 83.7223 82.5318C80.1799 82.5614 76.6256 82.6679 73.089 82.4845C71.3549 82.3958 70.7709 83.28 70.4211 84.5783C69.5851 87.6865 69.8015 90.6469 71.8351 93.3233C72.0582 93.6178 72.1886 93.9719 72.2097 94.3404C72.2308 94.709 72.1417 95.0755 71.9537 95.3935C71.592 96.1269 70.9932 96.1092 70.3559 96.1092C66.5021 96.1092 62.6751 96.1387 58.8332 96.0855C58.0328 96.0855 57.5734 96.3073 57.2325 97.0053C55.5398 100.477 55.9755 103.807 57.8817 107.031C58.8184 108.619 58.7325 109.101 57.102 109.967L8.33468 110Z" fill="black"/>
<path d="M68.9489 12.1755C68.7355 10.6968 69.9272 10.475 70.7631 10.2147C74.2522 9.12049 76.2888 6.63334 77.4301 3.36247C77.765 2.40723 78.269 1.88377 79.102 1.86011C79.935 1.83645 80.4537 2.38652 80.7976 3.3388C81.9834 6.59193 83.934 9.22697 87.5327 10.1881C87.7531 10.2891 87.9669 10.4037 88.173 10.5312C88.9201 10.8506 89.673 11.2794 89.5574 12.1755C89.4477 13.0213 88.7155 13.6335 87.9389 13.8464C84.0466 14.9081 81.8055 17.4988 80.7206 21.2635C80.6123 21.5868 80.4074 21.8692 80.1334 22.0728C79.8594 22.2763 79.5294 22.3913 79.1879 22.4021C78.8217 22.4356 78.4551 22.3413 78.1508 22.1353C77.8464 21.9293 77.6231 21.6243 77.519 21.2724C76.7275 17.901 74.6346 15.677 71.5902 14.1954C70.8758 13.8464 70.0042 13.9263 69.3936 13.2165C69.0734 12.8438 68.8185 12.5836 68.9489 12.1755Z" fill="black"/>
<path d="M8.22143 15.3937C7.05939 15.7426 6.86374 15.0595 6.79556 13.7641C6.71255 12.179 7.42994 12.176 8.66906 12.0725C10.3706 11.9306 10.3499 12.7527 10.4477 14.0274C10.5841 15.8461 9.3983 15.2961 8.22143 15.3937Z" fill="#020202"/>
<path d="M15.4423 15.3197C14.1883 15.5977 13.6399 15.3197 13.5747 13.7848C13.5006 12.0251 14.3721 12.1967 15.5579 12.0843C17.0935 11.9423 17.1824 12.6077 17.2565 13.8824C17.3454 15.4675 16.6132 15.5474 15.4423 15.3197Z" fill="#020202"/>
<path d="M1.5728 15.3434C0.16767 15.7604 0.0757738 14.95 0.00759263 13.7198C-0.0754106 12.2736 0.5234 12.1701 1.74177 12.0725C3.52041 11.9306 3.22396 12.9804 3.33958 14.0569C3.5204 15.5711 2.6133 15.4262 1.5728 15.3434Z" fill="#020202"/>
<path d="M30.7897 44.9935C30.7897 38.854 30.7897 32.7115 30.8045 26.5719C30.8045 25.6581 30.8045 24.6496 29.9389 24.3036C29.1563 23.9813 28.3589 24.2385 27.5466 25.0104C25.6257 26.8263 23.8085 28.7456 21.8994 30.5703C20.9864 31.4427 21.0516 32.3862 21.8994 33.2556C23.1741 34.5845 24.4765 35.8877 25.8065 37.1653C26.3757 37.7094 26.4913 38.0525 25.8717 38.709C23.8945 40.7644 23.9241 40.7792 21.9113 38.78C20.8678 37.7361 19.8362 36.6744 18.775 35.657C16.4034 33.3917 17.0437 29.7955 18.8491 28.0269C21.8816 25.0696 24.8816 22.053 27.8786 19.0513C28.1454 18.7822 28.2403 18.6905 28.6523 18.9241C31.676 20.6424 35.0851 21.6183 38.1829 19.9651C41.2807 18.3119 44.2777 19.214 47.3073 18.93C48.9674 18.7733 50.6541 18.9093 52.329 18.9034C54.5553 18.9034 55.0325 18.4066 55.0355 16.1353C55.0355 12.4504 55.0859 8.7655 55.0059 5.08355C54.9821 3.9006 55.1956 3.46586 56.4881 3.54275C58.578 3.664 58.5839 3.57232 58.5839 5.61292C58.5839 9.3481 58.4446 13.0892 58.6313 16.8125C58.7588 19.347 56.0612 22.5676 52.91 22.4671C49.6492 22.3636 46.4091 22.4671 43.1601 22.4316C41.7609 22.4109 41.2066 23.2153 41.174 24.3775C41.0969 27.0392 41.1265 29.6831 41.174 32.3359C41.1917 33.6963 42.1077 34.5184 43.5455 34.5243C47.5326 34.5243 51.5227 34.5243 55.5098 34.5243C57.9021 34.5243 60.0572 36.6625 60.0602 39.0225C60.0602 42.8671 60.0276 46.6851 60.0839 50.5179C60.0987 51.4317 59.8645 51.7334 58.9485 51.6387C57.6886 51.5056 56.0612 52.1504 55.2549 51.3933C54.5108 50.6983 55.0681 49.0747 55.0444 47.8444C55.0118 45.928 55.0444 43.9998 55.0444 42.0952C55.0444 40.2912 54.3152 39.543 52.5187 39.5401C47.8409 39.5223 43.1631 39.5223 38.4852 39.5401C36.7244 39.5401 36.1404 40.1315 36.1404 41.8912C36.1404 49.2107 36.1108 56.5302 36.1671 63.8498C36.1671 64.9499 35.9181 65.3078 34.8035 65.2013C33.5406 65.08 31.8391 65.6213 31.098 64.9825C30.2501 64.2402 30.8371 62.4983 30.8312 61.194C30.7719 55.8027 30.7897 50.3966 30.7897 44.9935Z" fill="#FEFEFE"/>
<path d="M81.3465 68.9016C81.0086 69.638 80.6766 70.3566 80.6914 71.2084C80.7092 71.9832 80.226 72.2997 79.3633 72.2908C75.0828 72.2376 70.8022 72.3174 66.5216 72.2346C65.3032 72.208 65.232 72.7847 65.3773 73.6334C65.5048 74.3817 64.7489 75.5646 66.4919 75.5321C70.7725 75.4493 75.0531 75.5321 79.3337 75.4788C80.223 75.4788 80.638 75.8101 80.6677 76.5494C80.6973 77.3923 81.0027 78.1376 81.2961 78.9863C81.0175 79.01 80.7922 79.0425 80.5669 79.0425C65.8071 79.0425 51.0444 79.0159 36.2847 79.0721C32.9201 79.0721 30.5723 76.0822 30.8094 73.6423C30.9382 72.2827 31.5756 71.0213 32.5946 70.1093C33.6136 69.1974 34.9396 68.7018 36.3084 68.7212C45.1166 68.735 53.9239 68.735 62.7301 68.7212C68.4395 68.7212 74.148 68.7212 79.8554 68.7212C80.3238 68.736 80.807 68.597 81.3465 68.9016Z" fill="#FEFEFE"/>
<path d="M43.9966 82.5823C51.3809 82.5823 58.7682 82.6119 66.1525 82.5557C67.4806 82.5557 67.5102 82.8514 67.193 84.0344C66.7839 85.5397 66.0369 85.8768 64.5488 85.8591C56.7198 85.7763 48.8908 85.8591 41.0618 85.791C39.8761 85.791 39.5796 86.1075 39.63 87.2431C39.716 89.3547 39.6508 89.3577 41.8355 89.3577C49.6616 89.3577 57.4895 89.3636 65.3195 89.3754C65.7316 89.3754 66.357 88.9998 66.5586 89.7362C66.8284 90.7033 67.5487 91.5313 67.4183 92.6167C67.3857 92.9124 67.1723 92.8799 66.9885 92.8888C66.6446 92.9036 66.3007 92.8888 65.9539 92.8888C51.5765 92.8888 37.1992 92.8563 22.8219 92.9184C20.2162 92.9184 17.7824 91.067 17.3763 89.0323C16.8931 86.557 17.5185 84.3597 20.1509 82.8632C20.7112 82.5468 21.2626 82.5675 21.8406 82.5675C29.224 82.5754 36.6093 82.5803 43.9966 82.5823Z" fill="#FEFEFE"/>
<path d="M71.4675 65.1895H49.6169C48.4518 65.2063 47.3195 64.804 46.4273 64.0562C45.5351 63.3084 44.9426 62.2651 44.7583 61.1172C44.3522 58.8992 45.2622 56.9621 47.4262 55.6815C48.5675 54.9984 49.6762 54.8623 50.9153 54.8653C65.0891 54.8653 79.2619 54.8653 93.4337 54.8653C95.2124 54.8653 94.9574 54.9008 94.6936 56.548C94.3616 58.6182 93.2114 58.4378 91.7085 58.4289C84.0336 58.3757 76.3558 58.4289 68.678 58.3757C67.5071 58.3757 67.0417 58.5679 67.1128 59.8544C67.2314 61.9246 67.1395 61.9246 69.2264 61.9246C77.0999 61.9246 84.9733 61.9246 92.8468 61.9246C93.327 61.9246 94.2282 61.8063 94.2223 62.0488C94.1986 63.072 94.9604 63.8942 94.8744 64.8494C94.8181 65.4616 94.1452 65.1452 93.7717 65.1452C88.4091 65.1688 83.0435 65.1452 77.6809 65.1452L71.4675 65.1895Z" fill="#FEFEFE"/>
<path d="M53.8651 106.46H8.39118C7.20477 106.451 6.05786 106.034 5.14331 105.28C4.22877 104.526 3.60238 103.481 3.36949 102.32C2.99301 100.454 3.80526 98.2744 6.11452 96.9199C7.0866 96.3641 8.19667 96.0944 9.31608 96.1421C23.5986 96.1559 37.8791 96.1559 52.1576 96.1421H53.8295C53.7643 97.3576 52.7594 98.2123 52.9076 99.41C52.958 99.83 52.371 99.6703 52.0687 99.6732C50.3938 99.691 48.7218 99.6732 47.047 99.6732C35.7822 99.6732 24.4938 99.691 13.2172 99.6437C12.1115 99.6437 11.8121 99.898 11.8566 101.004C11.9455 103.207 11.8744 103.21 14.1303 103.21H14.8714C26.9839 103.21 39.0974 103.21 51.2119 103.21C52.1843 103.21 53.1507 102.968 53.0528 104.553C53.0084 105.138 53.5479 105.76 53.8651 106.46Z" fill="#FEFEFE"/>
<path d="M34.1937 3.56339C38.0741 3.56339 41.0118 6.56514 41.1689 10.3654C41.2845 13.3228 37.9081 17.2502 34.5702 17.2176C30.2777 17.1792 27.3637 14.0946 27.34 10.3831C27.3163 6.79286 29.9902 3.43031 34.1937 3.56339Z" fill="#FEFEFE"/>
<path d="M42.6303 65.1013C39.6659 65.3823 39.6659 65.3823 39.6659 62.4397C39.6659 56.448 39.7044 50.4534 39.6332 44.4617C39.6184 43.2787 39.9801 43.0244 41.0917 43.054C44.1411 43.1289 47.1935 43.1289 50.2488 43.054C51.3219 43.0244 51.5501 43.3497 51.5116 44.3611C51.4286 46.4313 51.4582 48.4867 51.5116 50.548C51.5294 51.3051 51.4375 51.6807 50.5156 51.657C47.5097 51.5801 44.7913 52.5235 43.0512 55.0048C41.154 57.7108 40.4929 60.7362 42.2716 63.8769C42.4465 64.2318 42.7666 64.6163 42.6303 65.1013Z" fill="#FEFEFE"/>
<path d="M103.813 6.97013C102.15 7.73314 100.656 8.44881 99.1322 9.09943C98.7261 9.27096 98.1332 9.4277 98.1569 8.56415C98.1836 7.38119 98.1747 6.22191 98.1569 5.04783C98.1569 4.50071 98.3852 4.2996 98.8595 4.57464C100.419 5.47664 102.233 5.86998 103.813 6.97013Z" fill="#FDFDFD"/>
<path d="M27.5238 30.0322V33.7023C25.2294 32.4129 25.2235 32.2207 27.5238 30.0322Z" fill="#F9F9F9"/>
<path d="M79.0983 16.2809C77.9126 14.8022 76.8898 13.2821 75.2446 12.4363C74.7229 12.1642 74.9482 11.7708 75.215 11.6496C76.6972 10.9339 77.7021 9.72729 78.6033 8.39647C78.6574 8.308 78.734 8.23528 78.8252 8.18561C78.9164 8.13593 79.0191 8.11104 79.123 8.11344C79.2268 8.11584 79.3283 8.14543 79.4171 8.19925C79.5059 8.25308 79.579 8.32924 79.629 8.42012C80.5479 9.72137 81.5084 10.9487 83.0113 11.6525C83.2515 11.762 83.5034 12.1523 82.9758 12.4333C81.3305 13.2968 80.3197 14.8229 79.0983 16.2809Z" fill="#FDFDFD"/>
<path d="M51.5318 72.267C54.5348 72.267 57.5407 72.3587 60.5377 72.2286C61.9784 72.1635 61.8331 72.9117 61.8302 73.8315C61.8272 74.7512 61.9754 75.5674 60.4725 75.5438C54.4192 75.4492 48.3629 75.4935 42.3096 75.5231C41.4825 75.5231 41.0883 75.4255 41.106 74.4318C41.1387 72.267 41.0734 72.264 43.2612 72.264L51.5318 72.267Z" fill="#010101"/>
<path d="M27.4313 89.3071C25.7742 89.8187 25.8335 88.8161 25.712 87.5326C25.5401 85.7375 26.4649 85.8943 27.7367 85.7582C29.6724 85.5423 29.2011 86.7223 29.3434 87.784C29.5598 89.4224 28.6942 89.5407 27.4313 89.3071Z" fill="#010101"/>
<path d="M34.4064 85.9061C36.2532 85.3146 35.9983 86.5124 36.1554 87.6805C36.4162 89.5851 35.2661 89.2539 34.104 89.4047C32.1653 89.6502 32.6841 88.3873 32.5418 87.3611C32.3076 85.702 33.188 85.5867 34.4064 85.9061Z" fill="#010101"/>
<path d="M55.1101 58.4707C57.0073 57.8792 56.6812 59.1539 56.8443 60.3664C57.0992 62.271 55.9075 61.8126 54.8374 61.9841C52.9313 62.2798 53.3552 61.0791 53.2188 59.9938C53.0321 58.4056 53.8147 58.1986 55.1101 58.4707Z" fill="#010101"/>
<path d="M61.6821 61.8977C59.9034 62.4567 60.1139 61.2796 60.0042 60.0789C59.8619 58.5559 60.4874 58.4317 61.8036 58.3518C63.523 58.2513 63.5822 58.9906 63.6504 60.3688C63.7305 62.0042 62.9597 62.1225 61.6821 61.8977Z" fill="#010101"/>
</g>
<defs>
<clipPath id="clip0_1109_655">
<rect width="110" height="110" fill="white"/>
</clipPath>
</defs>
</svg>
