<svg id="Layer_1" data-name="Layer 1" xmlns="http://www.w3.org/2000/svg" viewBox="0 0 85.92 85.14"><defs><style>.cls-1{fill:#030303;}.cls-2{fill:#040404;}.cls-3{fill:#050505;}.cls-4{fill:#2b2b2b;}.cls-5,.cls-6{fill:none;stroke:#000;stroke-miterlimit:10;}.cls-6{stroke-width:0.25px;}</style></defs><path class="cls-1" d="M2064,341.94q-2.6-6.62-5.23-13.22-5.11-12.92-10.24-25.84-2.45-6.17-4.9-12.31a3.11,3.11,0,0,0-2.33-2.05c-1.93-.28-4.68,1.8-4.89,3.71a.8.8,0,0,0,.1.6,16.73,16.73,0,0,0,.82,2.35,4.1,4.1,0,0,1,.1,3.49c-3.11,8.93-9.41,15.05-17.62,19.09-5.69,2.81-11.78,4.79-17.71,7.11-2.82,1.1-2.87,1.07-1.77,3.89a1.42,1.42,0,0,1-.54,2,7,7,0,0,0-2.28,7.66,7.34,7.34,0,0,0,6.55,4.83c2,0,2,0,2.71,2,.06.15.14.3.2.46a1.2,1.2,0,0,0,1.78.78,20.91,20.91,0,0,0,2.19-.89c.81-.44,1.27-.19,1.75.5,1.33,1.92,2.7,3.81,4.06,5.71q4.51,6.32,9,12.62c.29.4.53,1,1.27.65,1.73-.71,3.48-1.37,5.23-2.05.63-.24.79-.6.51-1.26-.52-1.18-1-2.4-1.42-3.6-1.5-3.76-3-7.52-4.5-11.26-.34-.83-.2-1.3.69-1.59s1.85-.74,2.8-1.07c.65-.23.8-.58.52-1.23-.5-1.14-.93-2.32-1.41-3.47-.29-.71-.09-1.13.65-1.28a48.19,48.19,0,0,1,7.27-1,31.55,31.55,0,0,1,17.63,4c.29.17.62.21.91.38,1.19.68,1.31.59,1.38-.84a12.51,12.51,0,0,0-.62-2.17c-4-10-7.89-20.06-11.86-30.08-2-5.09-4.09-10.15-6-15.26-.26-.67-.55-1.32,0-2a1.65,1.65,0,0,1,3,.2,28,28,0,0,1,1.66,4.05c2.07,5.43,4.5,10.7,6.56,16.13,3.23,8.51,6.42,17,9.93,25.44.79,1.89,1.42,3.84,2.19,5.74a1.59,1.59,0,0,1-.82,2.21,1.73,1.73,0,0,1-2.24-.8,4.82,4.82,0,0,0-.64-1.07c-.42-.23-.84-.95-1.28-.23-.21.34-.57.84-.28,1.37.67,2.53,2.65,3.67,5,2.89A3.82,3.82,0,0,0,2064,341.94Zm-59.16-.78a.37.37,0,0,1-.27.26,1.11,1.11,0,0,1-.6,0,.38.38,0,0,1-.45,0l-.09,0c.08,0,0,0,0,0l-.19,0-.29-.08h-.08a.33.33,0,0,1-.17,0,.68.68,0,0,1-.2-.07,1.87,1.87,0,0,1-.32-.15,1.6,1.6,0,0,1-.31-.22,2.78,2.78,0,0,1-1.14-.8.38.38,0,0,1-.13-.09,1,1,0,0,1-.19-.17,1.25,1.25,0,0,1-.09-.12h0a1.58,1.58,0,0,1-.12-.15l0,0a.49.49,0,0,1-.17-.24,3.32,3.32,0,0,1-.46-.71,2.26,2.26,0,0,1-.26-.62l-.06-.05a.4.4,0,0,1-.12-.29c0-.17,0-.33,0-.49a1.94,1.94,0,0,1,0-.24v-.25l0-.1c0-.1,0-.2,0-.3a1.41,1.41,0,0,1,.07-.54l0,0a1.15,1.15,0,0,1,0-.19,4,4,0,0,0,.1-.6.38.38,0,0,1,.07-.21,1.58,1.58,0,0,1,.38-1,2.11,2.11,0,0,1,.65-1l.1-.06h0l0,0,.12-.2a.42.42,0,0,1,.26-.19s.09-.09.15-.13h0a.31.31,0,0,1,.11-.09h0a.47.47,0,0,1,.17,0l.14,0,.06,0a.71.71,0,0,1,.26.16,1.18,1.18,0,0,1,.21.4l0,.15s0,0,0,.06l.15.33a2.11,2.11,0,0,1,.21.73.39.39,0,0,1,.23.27,7.71,7.71,0,0,0,.32.92,1.72,1.72,0,0,0,.07.21s0,0,0,0l0,.1a1.12,1.12,0,0,0,0,.13,1.43,1.43,0,0,1,.09.42.83.83,0,0,1,0,.15.42.42,0,0,1,0,.1l.06.1,0,.06a.56.56,0,0,1,.1.15c.31.71.49,1.48.84,2.18.18.37.37.73.53,1.11a3,3,0,0,1,.16.48,1.27,1.27,0,0,0,.08.44A.34.34,0,0,1,2004.84,341.16Zm5.61,2.74-.11.05a1.43,1.43,0,0,1-2.52-.78,1.3,1.3,0,0,1-.17-.48c-.05-.3-.09-.61-.15-.91a1.43,1.43,0,0,1-.57-1.15c0-.08,0-.15,0-.23a1.33,1.33,0,0,1-.47-.73,5.85,5.85,0,0,1-.33-1.48,1.87,1.87,0,0,1-.53-1.14,1.36,1.36,0,0,1-.4-.45c-1.32-2.27-1.74-5.05-2.85-7.44v0a1.53,1.53,0,0,1-.48-1.1,1.06,1.06,0,0,1,.93-1.46,3.23,3.23,0,0,1,1.85-.57,13.93,13.93,0,0,1,4.27-1.72l.38-.18.47-.2.25-.18c.17-.1.35-.19.53-.28a22.33,22.33,0,0,1,3.15-1.28,1.42,1.42,0,0,1,.68-.46,8,8,0,0,1,1.44-.29,1.23,1.23,0,0,1,1-.47h.09l0,0,.19-.1a5.87,5.87,0,0,1,1-.42,2.15,2.15,0,0,1,2.65,1.76s0,.07,0,.11a1,1,0,0,1,.15.25c.36.76.54,1.56.86,2.32.19.43.38.81.53,1.22a1.32,1.32,0,0,1,.27.57,15.91,15.91,0,0,0,.88,2.48,1.49,1.49,0,0,1,.23.39,12.45,12.45,0,0,1,.49,1.33s0,.06,0,.09c.16.37.34.73.52,1.06a1.52,1.52,0,0,1,.17.68,1.91,1.91,0,0,1,.28.81,5.4,5.4,0,0,0,.38,1.29l.2.44c0,.08.1.16.14.24a1.43,1.43,0,0,1,.55,1.37.74.74,0,0,1-.65.95,1.37,1.37,0,0,1-1,.23,1.58,1.58,0,0,1-.68.38l-.17.09c-1.33.52-2.71,1-4,1.53-.8.34-1.67.59-2.5.88a1.28,1.28,0,0,1-.87.55,16,16,0,0,0-3.29,1.17C2012.41,343,2011.41,343.41,2010.45,343.9Zm16.51,7.85c.3.69.74,1.41.44,2.17s-1.53,1-2.31,1.4a1.19,1.19,0,0,1-.22.08.88.88,0,0,1,.19.4,7.65,7.65,0,0,1,.15.85h0a3,3,0,0,0,.32.09,1,1,0,0,1,.57-.19,4.62,4.62,0,0,0,.83,0,.88.88,0,0,1,.78-.41,1.06,1.06,0,0,1,.45.1h0a1,1,0,0,1,1,1,.82.82,0,0,1-.09.4l.05.06a5.93,5.93,0,0,1,.85,1.73c.07.25.06.51.15.75a3.29,3.29,0,0,1,.35.76c.18,1-1,1.64-1.82,1.85a4.1,4.1,0,0,1-1.35.11,1.13,1.13,0,0,1-.7-.29.7.7,0,0,1-.19-.29c-.13-.3-.14-.31,0,0a6.89,6.89,0,0,1-.85-1.25,17.86,17.86,0,0,0-1.39-1.63,1.14,1.14,0,0,1-.24-.89c-.49-.52-.88-1.12-1.37-1.65a1,1,0,0,1-.25-.46,9,9,0,0,1-.86-.67.84.84,0,0,1-.29-.84,3.31,3.31,0,0,1-.27-.53.93.93,0,0,1-.46-.44,3,3,0,0,0-.21-.4c-.19-.23-.38-.46-.56-.71a2.12,2.12,0,0,1-.11-.21.92.92,0,0,1-.43-.34c-.7-.93-1.34-1.9-2-2.83a29,29,0,0,1-1.77-2.5.84.84,0,0,1-.13-.45l-.42-.44a.8.8,0,0,1-.15-.17,1,1,0,0,1,.48-1.84h.05a1,1,0,0,1,.42-.29c1-.36,1.94-.87,2.94-1.25.3-.11,2.53-.91,2.47-.62a1,1,0,0,1,1.72-.4,1.19,1.19,0,0,1,.44.82,7,7,0,0,0,.44,1.55,0,0,0,0,0,0,0,5.55,5.55,0,0,1,.75,1.5c.06.17.11.34.16.52l.06.18a1.11,1.11,0,0,1,.36.51,1,1,0,0,1-.52,1.15.76.76,0,0,1-.33.11l-.23.07-.15,0-.06,0a1.15,1.15,0,0,1-.39.11.72.72,0,0,1-.21.12l-.71.32v0a2,2,0,0,0,.36,1.35l.09,0c.92,0,2-.69,2.88-.19C2026.38,350.06,2026.65,351,2027,351.75Zm1.54-9.16a1.32,1.32,0,0,1-.79.81c-.57.27-1.26.68-1.89.33a2.47,2.47,0,0,1-1-1.73v0a1.09,1.09,0,0,1-.29-.61,1.17,1.17,0,0,1-.08-.36,1,1,0,0,1,.4-1.05,1.17,1.17,0,0,1,.77-.26l.23,0a4.21,4.21,0,0,1,.76-.2,1.12,1.12,0,0,1,.38.07.83.83,0,0,1,.41.25,6.06,6.06,0,0,1,.89,1.71A1.47,1.47,0,0,1,2028.5,342.59Zm10.13-41.72c0-.05,0-.1,0-.16a1.48,1.48,0,0,1,0-.21.43.43,0,0,1,.1-.27.26.26,0,0,1,.28-.06.85.85,0,0,1,.35.24.45.45,0,0,1,.41.21,3.06,3.06,0,0,1,.25.68,7.28,7.28,0,0,1,.31.77,5.71,5.71,0,0,0,.18.82c.1.27.27.52.38.79.2.54.41,1.07.62,1.61a5.25,5.25,0,0,1,.38,1.5.42.42,0,0,1,.25.2,10.2,10.2,0,0,1,.82,2.22c.11.37.29.69.43,1.06a3.1,3.1,0,0,1,.23.73.42.42,0,0,1,.24.3c.07.27.18.52.24.78a5.53,5.53,0,0,0,.16.81c.11.26.27.49.38.75s.17.52.25.78a10.29,10.29,0,0,0,.59,1.37,2.38,2.38,0,0,1,.29,1.07,1.29,1.29,0,0,1,.16.17.55.55,0,0,1,.13.38.66.66,0,0,1,.06.2.37.37,0,0,1,.3.22c.32.62.45,1.3.74,1.92a10.26,10.26,0,0,1,.65,1.86c.08.33.1.68.2,1a7.36,7.36,0,0,0,.37.92c.13.31.29.59.41.9a2.38,2.38,0,0,1,.15.5.46.46,0,0,1,.05.21,2.36,2.36,0,0,0,.34.74,5.76,5.76,0,0,1,.36,1,6.16,6.16,0,0,0,.8,1.84,10.11,10.11,0,0,1,.83,1.8,8.16,8.16,0,0,1,.58,1.68,2.37,2.37,0,0,1,.18.53c.07.17.12.34.18.52s.17.35.23.54c.13.41.22.82.38,1.21s.39.79.55,1.21c.07.2.11.42.19.63s.18.29.24.46a.15.15,0,0,1,0,.16l0,0,0,0,.06.11.14.28a.82.82,0,0,1,.11.55.2.2,0,0,1-.23.13,2.55,2.55,0,0,1-.79-.47,8.15,8.15,0,0,0-1-.41s0,0,0,0a1,1,0,0,1-.79-.1,12,12,0,0,0-4.28-1.37l-.25-.05a1.24,1.24,0,0,1-.58.07,44.91,44.91,0,0,0-8.88-.71,1.18,1.18,0,0,1-.43-.06.79.79,0,0,1-.31.13c-2.37.47-4.81.54-7.17,1a1.16,1.16,0,0,1-1.18-.46c-1-.94-1-2.76-1.65-4a1.32,1.32,0,0,0-.31-.7c-.55-1.17-1-2.41-1.47-3.6a1,1,0,0,1-.21-.65v-.05a.77.77,0,0,1,0-.15l-.16-.25a2,2,0,0,1-.12-.26l0,0a1.15,1.15,0,0,1-.3-1.12,1.35,1.35,0,0,1-.47-.6,4.41,4.41,0,0,1-.23-.48c-.05-.19,0-.43-.06-.63,0,0-.13-.16-.14-.18l-.23-.34a3.66,3.66,0,0,1-1-2.66s0-.07,0-.1a1.2,1.2,0,0,1-.26-.44,1.11,1.11,0,0,1,.41-1.17.93.93,0,0,1,.63-.5,3,3,0,0,1,1.87-1.12c1.39-1,2.5-2.38,4.06-3.13l.17-.06a1,1,0,0,1,.58-.6,1.51,1.51,0,0,1,.09-.18,3.74,3.74,0,0,1,.64-.68c.2-.19.37-.41.58-.6a4.79,4.79,0,0,1,.77-.57l.33-.2h0l0,0,.15-.15,0,0,0,0,.1-.14c.11-.14.21-.28.32-.41a2.37,2.37,0,0,1,.27-.28l.23-.18a.28.28,0,0,1,.06-.06l.11-.11h0v0l0-.07h0c0-.06,0-.12,0-.13a.82.82,0,0,1,.65-.59l.18-.3c.07-.13.15-.26.23-.39l.08-.16c0-.12,0-.09,0-.05a.9.9,0,0,1,.53-.55,25.18,25.18,0,0,1,1.55-2.4,14.29,14.29,0,0,0,.79-1.23,4.11,4.11,0,0,0,.29-.73c0-.09.08-.17.11-.26a1.32,1.32,0,0,1,.19-.46.19.19,0,0,1,.19-.09l.08-.15.14-.28c0-.11,0-.23,0-.34A.79.79,0,0,1,2038.63,300.87Z" transform="translate(-1997.16 -280)"/><path class="cls-2" d="M2078.31,307.06c.06.75-.42.84-.78,1q-5.69,2.26-11.38,4.5c-1.86.73-3.72,1.44-5.57,2.19-.51.21-.91.39-1.19-.3a.89.89,0,0,1,.59-1.35c2.75-1.07,5.49-2.18,8.23-3.27l8.71-3.44C2077.76,306,2078.28,306.36,2078.31,307.06Z" transform="translate(-1997.16 -280)"/><path class="cls-3" d="M2059,280c1,0,1.52.61,1.2,1.36-2.15,5-4.33,10-6.49,15-.28.65-.63.9-1.33.6s-.53-.78-.31-1.31q3.15-7.28,6.3-14.55C2058.59,280.69,2058.68,280.14,2059,280Z" transform="translate(-1997.16 -280)"/><path class="cls-3" d="M2067.87,331.42l14.44,6.19c.61.26,1,.55.63,1.32s-.6.64-1.16.39l-15.2-6.65C2066.39,331.61,2066.92,331.3,2067.87,331.42Z" transform="translate(-1997.16 -280)"/><path class="cls-1" d="M2041.3,288.52a5.46,5.46,0,0,0-4.79,4.31,3.15,3.15,0,0,1,1.06-3.44A3.32,3.32,0,0,1,2041.3,288.52Z" transform="translate(-1997.16 -280)"/><path class="cls-1" d="M2055,341.23a2.73,2.73,0,0,1,1.86.57c.26-.35.07-.74.16-1.09a2.5,2.5,0,0,1,1,2.52l-1.11-.7c.88,1-.13,1.21-.16,1.75a3.18,3.18,0,0,1-.67-1.54A2.19,2.19,0,0,0,2055,341.23Z" transform="translate(-1997.16 -280)"/><path class="cls-4" d="M2067.87,331.42a1.46,1.46,0,0,0-1.29,1.25c-.74-.09-.73-.51-.48-1.06s.51-.89,1.14-.55Z" transform="translate(-1997.16 -280)"/><path class="cls-5" d="M2054.23,338.78a32.28,32.28,0,0,0-6.52-2.38,37.44,37.44,0,0,0-14.11-.54,31.46,31.46,0,0,0-4.4.79c-.81.25-1-.35-1.21-.9-1.73-4.41-3.49-8.8-5.19-13.22-.44-1.14-1.53-2.41-1.06-3.44s1.9-1.36,2.89-2c6-4.13,11-9.15,13.81-16.07.14-.37.17-1,.61-1s.62.59.79,1c1.83,4.78,3.65,9.57,5.51,14.34,2.85,7.33,5.74,14.65,8.61,22A1.9,1.9,0,0,1,2054.23,338.78Z" transform="translate(-1997.16 -280)"/><path class="cls-5" d="M2026.71,337.08c0,.53-.48.5-.77.62q-7.28,2.93-14.58,5.79c-.94.36-1.95,1.31-2.85.83s-.84-1.74-1.22-2.66c-1.81-4.48-3.55-9-5.37-13.45-.37-.91-.18-1.33.71-1.67,5.38-2.11,10.76-4.22,16.11-6.4,1.06-.43,1.44.05,1.76.85,1.09,2.75,2.19,5.49,3.25,8.25,1,2.48,1.86,5,2.8,7.47C2026.59,336.83,2026.65,336.94,2026.71,337.08Z" transform="translate(-1997.16 -280)"/><path class="cls-5" d="M2022.25,341c.37,0,.45.27.54.5.7,1.7,1.39,3.39,2.11,5.08.26.61,0,.92-.53,1.13s-.92.39-1.39.57-.92.42-.59,1.17.6.69,1.23.46c2.32-.86,2.33-.83,3.18,1.49a.56.56,0,0,0,0,.12c.28.81,1.05,1.67.78,2.4s-1.4.78-2.17,1.05-.62.65-.42,1.16.46.81,1,.52a2.09,2.09,0,0,1,.35-.13c2.15-.81,2.14-.81,2.93,1.33.34.93.72,1.86,1.13,2.77s.13,1.15-.66,1.48c-2.72,1.13-2.69,1.15-4.38-1.22q-5.39-7.53-10.81-15c-.94-1.31-1-1.3.54-1.91l6.68-2.74C2022,341.13,2022.15,341.05,2022.25,341Z" transform="translate(-1997.16 -280)"/><path class="cls-6" d="M2004,341.46a5.29,5.29,0,0,1-3.51-9c.54-.52,1-.87,1.38.21,1,2.57,2,5.12,3,7.66C2005.16,341.08,2004.94,341.44,2004,341.46Z" transform="translate(-1997.16 -280)"/><path class="cls-5" d="M2024.77,341.73a2.07,2.07,0,0,0-.22-.69c-.4-.56-.28-.82.37-1.06,2.5-.92,2.4-.9,3.5,1.53.58,1.29.08,1.76-1,1.95-.62.11-1.28,1.1-1.91,0A2.09,2.09,0,0,1,2024.77,341.73Z" transform="translate(-1997.16 -280)"/><path class="cls-1" d="M2024.77,341.73a6.15,6.15,0,0,1,.74,1.75C2024.44,343.24,2024.37,342.59,2024.77,341.73Z" transform="translate(-1997.16 -280)"/><rect class="cls-1" x="2021.52" y="321.63" width="1.08" height="1.8" transform="translate(-1962.05 537.27) rotate(-23.04)"/><rect class="cls-5" x="25.62" y="69.47" width="0.72" height="0.36"/></svg>