<svg width="91" height="90" viewBox="0 0 91 90" fill="none" xmlns="http://www.w3.org/2000/svg">
<g clip-path="url(#clip0_1109_452)" filter="url(#filter0_d_1109_452)">
<path d="M59.9168 58.9809C54.6371 55.9367 48.9064 54.8438 42.8822 55.1122C40.5162 55.2516 38.1647 55.575 35.8491 56.0794C35.1337 56.2245 34.9373 56.6307 35.221 57.3101C35.6867 58.4224 36.1014 59.554 36.584 60.6566C36.858 61.2804 36.7125 61.6238 36.0771 61.8389C35.1677 62.1605 34.2897 62.5643 33.373 62.8666C32.5194 63.1446 32.386 63.592 32.7109 64.3996C34.166 68.0071 35.6212 71.6268 37.052 75.2441C37.5128 76.3998 37.9275 77.5774 38.4247 78.7162C38.7012 79.3497 38.5435 79.6834 37.9397 79.9252C36.242 80.5757 34.5614 81.214 32.888 81.9031C32.1604 82.1981 31.9397 81.6613 31.6584 81.2672C28.7368 77.226 25.8266 73.1775 22.9277 69.1218C21.6132 67.2914 20.2842 65.4707 18.9989 63.6186C18.5405 62.956 18.0918 62.7118 17.3012 63.135C16.6115 63.4627 15.9029 63.7493 15.1792 63.9933C14.3595 64.3149 13.7701 64.1046 13.4646 63.2462C13.4088 63.0939 13.3336 62.9512 13.2778 62.8013C12.5672 60.925 12.5672 60.925 10.6513 60.8839C7.89873 60.8234 5.19706 58.8359 4.33126 56.2317C3.88974 54.9266 3.86439 53.5172 4.25869 52.1971C4.65299 50.877 5.44759 49.7111 6.53334 48.8594C7.29 48.2839 7.38216 47.7931 7.05233 46.9516C5.9901 44.2338 6.03617 44.2629 8.76452 43.2014C14.4904 40.972 20.374 39.057 25.8695 36.3561C33.795 32.4632 39.8847 26.5683 42.8895 17.9797C43.2921 16.8264 43.3939 15.7528 42.7949 14.6163C42.4263 13.9176 42.2565 13.1124 41.997 12.3531C41.8958 12.1794 41.8614 11.9749 41.9 11.7777C42.1086 9.94003 44.7666 7.93555 46.6267 8.20636C47.1426 8.30891 47.6224 8.54466 48.0182 8.89006C48.414 9.23545 48.7119 9.67838 48.8822 10.1746C50.4537 14.1271 52.0309 18.0764 53.6137 22.0225C56.912 30.3177 60.2095 38.6194 63.5061 46.9274C65.1908 51.1718 66.8755 55.4169 68.5602 59.6628C69.4115 61.8196 68.4681 64.0151 66.426 64.697C64.1512 65.4465 62.2377 64.3464 61.5756 61.9115C61.2967 61.4037 61.6508 60.9153 61.8473 60.5937C62.2717 59.8997 62.684 60.5937 63.0865 60.8113C63.38 61.1039 63.5037 61.4956 63.7074 61.8414C64.1924 62.6707 65.0413 62.9657 65.8683 62.6151C66.6952 62.2645 67.0542 61.4376 66.6637 60.4849C65.9167 58.6593 65.3129 56.783 64.5489 54.9623C61.1949 46.867 58.1003 38.6508 54.9767 30.4491C52.9832 25.2215 50.6356 20.1414 48.6421 14.9162C48.14 13.6032 47.7399 12.2395 47.039 11.0112C46.3381 9.78285 44.9849 9.71757 44.1894 10.825C43.7044 11.4972 43.9857 12.121 44.2331 12.7594C46.1223 17.6823 48.1255 22.5593 50.0729 27.4581C53.9096 37.1081 57.6468 46.8017 61.5247 56.4276C61.7871 57.1037 61.9876 57.8021 62.1237 58.5143C62.0607 59.8997 61.9418 59.982 60.7972 59.3267C60.511 59.1744 60.1909 59.1405 59.9168 58.9809Z" fill="#030303"/>
<path d="M82.3953 26.065C82.4559 26.7904 81.9903 26.8702 81.6411 27.0105C77.979 28.4612 74.3145 29.9047 70.6476 31.341C68.853 32.0446 67.0511 32.7241 65.2685 33.4495C64.7835 33.6502 64.3858 33.8218 64.119 33.1593C63.8522 32.4968 64.0099 32.1268 64.6889 31.8633C67.3566 30.8308 69.9904 29.7621 72.6411 28.7199C75.4398 27.6125 78.2417 26.5067 81.0469 25.4025C81.8593 25.0737 82.3613 25.3832 82.3953 26.065Z" fill="#040404"/>
<path d="M63.7823 0.00268523C64.7718 -0.036002 65.252 0.587835 64.9416 1.30839C62.8583 6.12978 60.7532 10.9415 58.6724 15.7653C58.4032 16.394 58.0637 16.6334 57.3822 16.348C56.6547 16.041 56.8681 15.5936 57.0863 15.0883C59.1138 10.4144 61.1267 5.73565 63.1687 1.06417C63.3434 0.667626 63.4307 0.138091 63.7823 0.00268523Z" fill="#050505"/>
<path d="M72.3075 49.5219C76.9591 51.5126 81.6106 53.501 86.2621 55.4869C86.849 55.7287 87.2104 56.0092 86.8709 56.7564C86.592 57.3681 86.2888 57.3729 85.7504 57.136C80.8596 54.9921 75.9631 52.857 71.061 50.7308C70.8767 49.7105 71.3835 49.4106 72.3075 49.5219Z" fill="#050505"/>
<path d="M46.6431 8.2041C44.5889 8.23553 42.1953 10.3803 42.0134 12.3509C41.555 11.0017 42.1249 9.93293 43.0392 9.04313C44.0433 8.05902 45.2486 7.67698 46.6431 8.2041Z" fill="#222222"/>
<path d="M59.918 58.9815C60.6116 58.8267 61.1306 59.2378 61.7078 59.5328C61.9503 59.1894 61.7805 58.8074 61.8678 58.4785C62.2462 58.7482 62.5389 59.1206 62.7109 59.5515C62.8829 59.9823 62.927 60.4534 62.8379 60.9086L61.7611 60.2315C62.6148 61.2132 61.6447 61.3921 61.6083 61.9241C61.2179 61.5082 61.0942 60.9569 60.9681 60.4419C60.9107 60.1368 60.7869 59.8479 60.6054 59.5956C60.424 59.3433 60.1894 59.1336 59.918 58.9815Z" fill="#1B1B1B"/>
<path d="M72.3074 49.5217C71.638 49.6619 71.1869 50.027 71.0608 50.7306C70.3527 50.6363 70.3575 50.2326 70.6025 49.7054C70.8256 49.2219 71.0875 48.8519 71.6962 49.1759C71.9024 49.2847 72.1109 49.4056 72.3074 49.5217Z" fill="#2B2B2B"/>
<path d="M59.1314 56.6143C57.1188 55.6252 55.0046 54.8567 52.8258 54.322C48.3585 53.2879 43.7344 53.1123 39.2011 53.8046C37.7751 54.0222 36.3345 54.1359 34.9473 54.5638C34.1615 54.8056 33.9918 54.2205 33.7832 53.691C32.105 49.4499 30.4049 45.2281 28.7655 40.9653C28.3411 39.8603 27.2909 38.6392 27.7372 37.6527C28.1398 36.7605 29.573 36.3422 30.531 35.6869C36.3515 31.7021 41.1752 26.8735 43.8696 20.212C44.0127 19.8566 44.0345 19.2448 44.4662 19.2883C44.8979 19.3319 45.0604 19.8541 45.2229 20.2749C46.9884 24.869 48.7491 29.4848 50.5437 34.079C53.3036 41.1394 56.0764 48.1941 58.8622 55.2433C59.015 55.6326 59.3181 56.0025 59.1314 56.6143Z" fill="#FEFEFE"/>
<path d="M32.5459 54.977C32.5725 55.4896 32.0875 55.4606 31.8038 55.5718C27.1134 57.4482 22.4231 59.3221 17.7134 61.1476C16.8088 61.5006 15.8314 62.4122 14.9607 61.9528C14.1847 61.5393 14.1507 60.2723 13.7894 59.3849C12.0384 55.0737 10.3553 50.7359 8.59703 46.4271C8.24052 45.5543 8.42727 45.1553 9.28336 44.8216C14.483 42.7954 19.6778 40.7595 24.8459 38.6583C25.8717 38.2424 26.2403 38.7042 26.5435 39.4804C27.5985 42.1232 28.6534 44.766 29.6768 47.4233C30.6009 49.8147 31.4836 52.223 32.3834 54.624C32.4319 54.7352 32.4852 54.844 32.5459 54.977Z" fill="#FEFEFE"/>
<path d="M62.8322 60.9005L61.8621 58.4705C56.7547 45.4313 51.644 32.3929 46.53 19.3553C45.6351 17.08 44.6917 14.8265 43.7944 12.556C43.3094 11.3277 43.6828 10.3629 44.7887 9.86001C45.8946 9.35708 46.9059 9.75121 47.4176 10.994C48.9601 14.7419 50.3497 18.555 51.9649 22.2714C55.8452 31.1743 58.9228 40.3842 62.6358 49.3524C64.1297 52.9455 65.5072 56.5869 66.9284 60.209C67.4377 61.505 67.12 62.5327 66.0917 62.9897C64.9203 63.5095 63.8435 63.0283 63.276 61.7492C63.1596 61.4518 62.985 61.181 62.8322 60.9005Z" fill="#FEFEFE"/>
<path d="M28.2402 58.7539C28.5991 58.7757 28.6719 59.015 28.764 59.2375C29.4406 60.8672 30.1051 62.5017 30.7987 64.1218C31.0534 64.7166 30.8327 65.0116 30.287 65.2098C29.8335 65.3743 29.3994 65.587 28.9483 65.7563C28.4027 65.9618 28.0583 66.1625 28.376 66.8879C28.667 67.5504 28.958 67.5552 29.5595 67.3328C31.8028 66.5059 31.8101 66.53 32.6298 68.7642C32.6443 68.8005 32.654 68.8392 32.6686 68.8779C32.9475 69.6613 33.6847 70.4907 33.4228 71.1991C33.1803 71.8641 32.0768 71.9414 31.3323 72.2026C30.6581 72.4444 30.7357 72.8336 30.9249 73.3245C31.114 73.8153 31.3687 74.1007 31.9265 73.8226C32.0332 73.7694 32.152 73.738 32.2636 73.6944C34.3444 72.9134 34.3323 72.9183 35.0938 74.9735C35.4284 75.8778 35.7922 76.7725 36.19 77.6502C36.5319 78.3998 36.3112 78.7528 35.5546 79.0671C32.9232 80.1625 32.9547 80.1794 31.3177 77.8944C27.8529 73.0585 24.3768 68.2315 20.8894 63.4133C19.9751 62.1487 19.963 62.1584 21.4108 61.5684C23.5611 60.6931 25.7107 59.8154 27.8594 58.9353C28.0001 58.8748 28.1407 58.7998 28.2402 58.7539Z" fill="#FEFEFE"/>
<path d="M10.5682 59.1913C8.80024 59.1913 6.77277 57.8179 6.05734 56.0673C5.68938 55.1267 5.59959 54.1006 5.7986 53.1106C5.99762 52.1207 6.47709 51.2084 7.18021 50.4818C7.6992 49.9716 8.12603 49.6355 8.51164 50.6752C9.43079 53.1561 10.4275 55.6079 11.4219 58.0597C11.7202 58.8262 11.5213 59.1768 10.5682 59.1913Z" fill="#FDFDFD"/>
<path d="M30.6763 59.4501C30.6411 59.2192 30.5707 58.995 30.4678 58.7852C30.0797 58.2484 30.1889 58.0018 30.8218 57.7697C33.2325 56.8847 33.1403 56.9016 34.1977 59.2422C34.7604 60.4874 34.2826 60.9348 33.2276 61.1234C32.6383 61.2273 31.9981 62.1824 31.3869 61.1403C31.1427 60.9348 30.9509 60.6744 30.8274 60.3806C30.7038 60.0867 30.6521 59.7678 30.6763 59.4501Z" fill="#FBFBFB"/>
<path d="M30.6767 59.4502C31.0004 59.9744 31.2409 60.5453 31.3897 61.1428C30.359 60.9155 30.2838 60.2796 30.6767 59.4502Z" fill="#5E5E5E"/>
</g>
<defs>
<filter id="filter0_d_1109_452" x="0" y="0" width="91" height="90" filterUnits="userSpaceOnUse" color-interpolation-filters="sRGB">
<feFlood flood-opacity="0" result="BackgroundImageFix"/>
<feColorMatrix in="SourceAlpha" type="matrix" values="0 0 0 0 0 0 0 0 0 0 0 0 0 0 0 0 0 0 127 0" result="hardAlpha"/>
<feOffset dy="4"/>
<feGaussianBlur stdDeviation="2"/>
<feComposite in2="hardAlpha" operator="out"/>
<feColorMatrix type="matrix" values="0 0 0 0 0 0 0 0 0 0 0 0 0 0 0 0 0 0 0.25 0"/>
<feBlend mode="normal" in2="BackgroundImageFix" result="effect1_dropShadow_1109_452"/>
<feBlend mode="normal" in="SourceGraphic" in2="effect1_dropShadow_1109_452" result="shape"/>
</filter>
<clipPath id="clip0_1109_452">
<rect width="83" height="82" fill="white" transform="translate(4)"/>
</clipPath>
</defs>
</svg>
