<svg width="90" height="79" viewBox="0 0 90 79" fill="none" xmlns="http://www.w3.org/2000/svg">
<g clip-path="url(#clip0_1109_488)">
<path d="M62.455 14.0798L65.8845 13.1868C65.6649 12.6666 65.1874 12.4451 64.7971 12.1533C49.3399 0.46079 27.09 4.32431 16.3972 20.5588C15.4945 21.9299 15.4945 21.9299 14.0551 21.058C13.3301 20.6151 12.6261 20.1264 11.8663 19.7538C11.2041 19.4268 11.2634 19.1386 11.6293 18.5902C20.4784 5.39653 32.7605 -0.745019 48.5209 0.51704C56.4638 1.16037 63.4692 4.32783 69.5649 9.49208C70.2898 10.1038 70.5512 9.99831 70.9242 9.20732C71.3668 8.27923 71.9314 7.41442 72.5553 6.32814C73.9494 11.7068 75.2563 16.8746 76.64 22.2709L62.455 14.0798Z" stroke="black" stroke-width="2" stroke-miterlimit="10"/>
<path d="M77.6926 58.8489C78.8149 59.3306 78.6685 59.9317 78.0411 60.8422C70.8301 71.4906 60.9076 77.5373 48.148 78.5251C37.6922 79.3302 28.4389 76.1346 20.3844 69.4059C19.6874 68.8364 19.4504 68.8681 19.0809 69.652C18.6418 70.5871 18.0772 71.4625 17.4289 72.6121C16.0348 67.2228 14.7278 62.0656 13.3477 56.6553L27.4943 64.8217L23.9638 65.7885C26.7697 68.1714 29.9658 70.0427 33.4088 71.3184C47.0781 76.3561 61.291 72.7562 70.98 61.8266C71.4923 61.25 71.928 60.6032 72.3985 59.9879C72.6947 58.9755 73.3918 58.2021 73.9599 57.3513C74.1481 57.0701 74.4687 56.7853 74.7859 56.9998C75.7339 57.6466 76.9642 57.8505 77.6926 58.8489Z" stroke="black" stroke-width="2" stroke-miterlimit="10"/>
<path d="M73.2676 49.7232C73.1212 49.7232 72.9191 49.7478 72.8424 49.6705C71.6992 48.7213 70.6606 48.9674 69.615 49.8674C69.0783 50.3209 68.5695 50.2646 68.1965 49.5861C68.0202 49.3563 67.8125 49.1527 67.5796 48.9815C67.0255 48.9147 66.792 48.5209 66.6491 48.0393C66.1681 47.5999 66.0252 47.1112 66.5759 46.6331C68.2 45.255 66.9453 43.891 66.5445 42.5481C66.4121 42.1016 65.8475 42.1966 65.4815 42.1192C63.7703 41.7325 63.7702 41.7466 63.7737 39.9502C63.7737 37.7249 63.7737 37.7073 65.945 37.18C66.3737 37.078 66.5898 36.9128 66.6665 36.4769C66.7071 36.2176 66.8009 35.9698 66.9418 35.7492C67.6772 34.6945 67.5274 33.7875 66.6665 32.8981C66.1089 32.3251 66.1019 31.7696 66.8024 31.2634C67.0847 31.0244 67.3492 30.7647 67.5936 30.4865C68.9877 29.0803 68.9877 29.0803 70.6258 30.1701C71.1032 30.49 71.5075 30.6201 71.9989 30.2369C72.1748 30.0987 72.382 30.0069 72.6019 29.9697C73.8322 29.7869 74.3236 28.9994 74.3271 27.8358C74.3271 26.9112 74.7837 26.5913 75.6515 26.7179C75.9462 26.7408 76.2421 26.7408 76.5368 26.7179C78.5826 26.7179 78.5896 26.7179 79.0636 28.7674C79.1716 29.235 79.3494 29.59 79.8757 29.6744C80.0949 29.7018 80.3048 29.7801 80.4891 29.9029C81.5625 30.6974 82.5035 30.4478 83.3923 29.59C83.9604 29.0416 84.4623 29.0697 84.9293 29.7377C85.1194 29.9658 85.3281 30.1774 85.5532 30.3705C87.0762 31.9067 87.0832 31.9138 85.94 33.7981C85.7274 34.1496 85.5915 34.4379 85.8703 34.807C86.0037 34.9865 86.0975 35.1927 86.1457 35.4117C86.4001 36.7792 87.2226 37.3979 88.5853 37.4014C89.2824 37.4014 89.5159 37.7846 89.4532 38.4842C89.3765 39.2251 89.3765 39.9721 89.4532 40.713C89.5612 41.5989 89.1534 41.8837 88.3832 41.9927C87.8151 42.07 87.0658 41.9681 86.7451 42.4637C86.2729 43.2146 85.9267 44.0389 85.7204 44.9035C85.588 45.4484 86.1456 45.9124 86.4872 46.3097C87.1355 47.0725 87.0658 47.6561 86.2781 48.2151C86.1367 48.3343 86.0049 48.4648 85.8843 48.6053C85.3231 49.1432 84.8178 50.0115 84.1904 50.1134C83.6467 50.2013 82.9427 49.449 82.3537 49.0061C82.2296 48.9003 82.0741 48.8394 81.9118 48.8331C81.7495 48.8267 81.5898 48.8752 81.458 48.9709C81.1118 49.183 80.7391 49.3474 80.3497 49.4596C79.3041 49.6951 78.8963 50.3314 78.9939 51.3614C78.8057 52.6516 78.8057 52.6376 77.5022 52.6587C76.8034 52.6231 76.1028 52.6585 75.411 52.7641C74.5711 52.9469 74.2853 52.3352 74.0169 51.6603C73.7486 50.9853 74.0657 50.1662 73.2676 49.7232Z" stroke="black" stroke-width="3" stroke-miterlimit="10"/>
<path d="M13.348 45.8879C10.1416 45.8352 7.04665 45.3043 4.23753 43.6309C3.60207 43.2561 3.00544 42.818 2.45656 42.3232C-0.387415 39.7393 -0.331647 36.2836 2.54718 33.7419C4.63834 31.8998 7.16516 30.9998 9.86624 30.5779C14.5121 29.8538 18.9732 30.3354 23.058 32.9087C23.8377 33.4069 24.5272 34.0359 25.0968 34.7684C26.7245 36.8144 26.7628 39.2542 25.1491 41.3213C23.3437 43.631 20.796 44.675 18.0705 45.35C16.5256 45.7319 14.9385 45.9127 13.348 45.8879V45.8879Z" stroke="black" stroke-width="2" stroke-miterlimit="10"/>
<path d="M14.7455 49.0054C14.397 48.8929 13.7 49.4659 13.6721 48.4078C13.6337 46.9418 13.5849 46.9418 15.3171 46.8223C15.7597 46.7906 16.2546 46.5657 16.279 47.4059C16.3174 48.8824 16.3592 48.8929 14.7455 49.0054Z" fill="black"/>
<path d="M12.0697 49.0273C10.5919 48.9746 10.6303 48.9711 10.6094 47.5684C10.6094 46.9145 10.7871 46.7668 11.418 46.8055C13.2512 46.9215 13.185 46.8969 13.2303 48.2715C13.2651 49.3332 12.589 48.9921 12.0697 49.0273Z" fill="black"/>
<path d="M19.2577 47.2726C19.1775 47.5996 19.5086 48.1304 18.937 48.2886C18.2678 48.4749 17.5429 48.7808 16.9121 48.6401C16.5357 48.5628 16.8145 47.7085 16.7552 47.2093C16.7204 46.8894 16.7761 46.6223 17.1769 46.5695C17.5049 46.5283 17.829 46.4601 18.1459 46.3656C18.9405 46.1266 19.5435 46.0984 19.2577 47.2726Z" fill="black"/>
<path d="M10.0796 47.6208C10.3166 48.7352 9.94717 48.9707 9.1351 48.6438C8.60883 48.4329 7.77238 48.7 7.64691 47.8774C7.57372 47.3642 7.35762 46.4712 7.78631 46.3412C8.38577 46.1689 9.14905 46.4712 9.81473 46.6681C10.4804 46.865 10.0134 47.4415 10.0796 47.6208Z" fill="black"/>
<path d="M4.66055 45.1035C5.35881 45.3211 6.04026 45.5902 6.69942 45.9086C7.49058 46.348 7.09326 47.1952 7.00962 47.7964C6.9434 48.2499 6.40317 47.8351 6.10692 47.7261C4.43748 47.1003 4.39567 47.0159 4.66055 45.1035Z" fill="black"/>
<path d="M22.268 44.9697C22.4109 47.0193 22.1913 47.3181 20.3859 47.8349C19.9468 47.9614 19.8318 47.8876 19.7934 47.4165C19.7202 46.4603 19.7934 45.6869 20.9645 45.4935C21.4161 45.3658 21.853 45.1902 22.268 44.9697Z" fill="black"/>
<path d="M3.95306 46.5237C2.05707 45.6413 1.39837 44.6851 1.60748 42.9766C2.55547 44.1121 4.7233 44.2246 3.95306 46.5237Z" fill="black"/>
<path d="M25.347 42.8428C25.4167 44.5267 25.0891 45.0083 22.9945 46.4286C22.5309 44.8783 22.5763 44.8044 25.347 42.8428Z" fill="black"/>
<path d="M76.5837 45.7083C75.0033 45.7018 73.4899 45.0635 72.3753 43.9333C71.2608 42.8032 70.6359 41.2734 70.6378 39.6793C70.6226 38.8761 70.7669 38.078 71.062 37.3319C71.357 36.5858 71.7971 35.9067 72.3562 35.3346C72.9152 34.7625 73.5821 34.309 74.3175 34.0006C75.0529 33.6923 75.842 33.5354 76.6383 33.5391C77.4347 33.5429 78.2223 33.7072 78.9548 34.0225C79.6873 34.3377 80.35 34.7975 80.9037 35.3749C81.4575 35.9522 81.8912 36.6354 82.1794 37.3842C82.4676 38.1331 82.6044 38.9325 82.5818 39.7355C82.5814 40.5263 82.4254 41.3091 82.1229 42.0387C81.8203 42.7682 81.3773 43.4299 80.8194 43.9854C80.2615 44.541 79.5998 44.9794 78.8727 45.2751C78.1456 45.5708 77.3676 45.7181 76.5837 45.7083V45.7083Z" stroke="black" stroke-width="3" stroke-miterlimit="10"/>
<path d="M16.2222 36.1634C15.6158 36.1845 14.8874 36.2513 14.3507 35.5341C14.1202 35.3456 13.8278 35.2515 13.5316 35.2705C12.9182 35.2529 12.1061 35.1404 11.9423 35.9068C11.7541 36.7962 12.6394 36.7892 13.204 36.9368C14.1973 37.2075 15.2255 37.3376 16.2153 37.6188C17.693 38.0407 18.3064 38.7719 18.3552 39.9461C18.404 41.1202 17.7627 41.9042 16.3756 42.435C16.0431 42.5862 15.6911 42.6892 15.33 42.7409C14.7863 42.7866 14.4726 42.885 14.4657 43.5705C14.4657 44.5162 13.6536 44.0732 13.1935 44.1154C12.7893 44.1506 12.0957 44.3791 12.148 43.5635C12.2072 42.8323 11.7715 42.8393 11.2871 42.7444C10.2415 42.5335 9.19595 42.21 8.57906 41.2081C8.02839 40.3152 8.23054 39.9355 9.27611 39.9355C10.2102 39.9355 11.0989 39.8441 11.9563 40.5718C12.7126 41.2187 13.7721 41.0464 14.7061 40.7019C14.8522 40.6662 14.9814 40.5804 15.0717 40.4592C15.162 40.338 15.2077 40.1889 15.2011 40.0375C15.1866 39.9063 15.1323 39.7829 15.0456 39.6841C14.9588 39.5853 14.8439 39.5159 14.7166 39.4855C14.0196 39.2816 13.2911 39.1129 12.5697 38.9758C11.7276 38.8592 10.9061 38.6224 10.13 38.2727C8.45708 37.4149 8.27585 35.4603 9.75708 34.2756C10.164 33.9577 10.6261 33.7192 11.1198 33.5725C11.6984 33.3932 12.385 33.467 12.3675 32.4124C12.3675 31.7515 13.211 32.1382 13.6745 32.0608C14.1381 31.9835 14.4238 32.1382 14.3716 32.655C14.2949 33.242 14.612 33.3967 15.107 33.5162C15.9837 33.6915 16.7745 34.1642 17.348 34.8556C17.5954 35.165 17.944 35.5201 17.7767 35.9349C17.6094 36.3497 17.1284 36.1282 16.7834 36.1775C16.5962 36.1838 16.4089 36.1791 16.2222 36.1634Z" fill="black"/>
<path d="M45.6588 59.3941C39.462 59.5101 33.5859 58.0723 27.8422 55.8329C25.155 54.7783 24.0955 53.4986 25.1654 50.3347C26.5421 46.2638 28.2464 43.1948 33.0178 42.8432C38.392 42.4178 38.873 37.7528 36.5727 34.5326C34.2725 31.3124 34.3282 27.9657 34.1714 24.2287C33.8577 16.7126 39.699 13.626 44.7805 13.3307C51.5942 12.9405 55.3234 16.9622 56.1425 23.8772C56.6792 28.391 55.2642 31.9628 53.3299 35.7665C50.8902 40.53 51.5872 41.655 56.5433 42.903C61.7712 44.2213 64.5803 47.8247 65.0264 53.2631C65.1937 55.3056 63.8031 55.4603 62.646 55.9454C57.2804 58.2656 51.4965 59.4398 45.6588 59.3941Z" fill="black" stroke="black" stroke-miterlimit="10"/>
<path d="M45.5361 57.3725C40.4825 57.2635 35.516 56.5885 30.8179 54.655C29.375 54.0609 26.6948 54.2367 27.1339 51.7758C27.5905 49.2306 27.9913 46.3304 31.3163 45.3531C34.2857 44.4742 38.0184 44.9347 39.5136 41.0677C39.7506 40.4595 40.3884 40.5861 40.8589 40.9763C43.4101 43.0856 46.0136 43.1067 48.6834 41.2083C49.2166 40.8286 49.823 40.354 50.2238 41.3806C51.6005 44.896 55.0858 44.3406 57.7625 45.2792C60.0139 46.0702 63.2587 50.7318 62.7882 52.9114C62.5059 54.2297 61.2477 54.2929 60.2788 54.6691C55.558 56.4289 50.5689 57.3437 45.5361 57.3725Z" fill="#FDFDFD"/>
<path d="M43.769 40.4986C42.6015 40.4986 41.4374 38.7022 40.228 37.0921C38.691 35.0426 38.4854 32.2583 36.5824 30.3459C35.9795 29.7377 39.0221 22.2251 39.8133 21.9087C40.7682 21.5291 41.2875 22.3341 41.9358 22.7314C43.4498 23.633 45.1118 24.2534 46.843 24.5629C46.9825 24.5911 53.2106 28.6022 53.3082 28.6409C54.1307 28.9432 54.4026 29.6955 53.9042 30.2194C51.4819 32.7857 51.4018 36.8988 48.1884 38.9307C47.1602 39.5846 46.2924 40.4811 43.769 40.4986Z" fill="#FCFCFC"/>
<path d="M54.0892 23.1141C52.4233 21.8204 51.0849 22.0243 49.6455 22.3442C47.4672 22.8294 45.4248 22.281 43.4417 21.2404C41.4586 20.1998 41.4063 18.2839 41.6468 16.6949C41.8873 15.1059 43.738 15.3484 45.024 15.3203C49.8511 15.2113 52.5348 17.3769 54.0892 23.1141Z" fill="#F7F8F8"/>
<path d="M36.5716 22.4255C36.4949 20.0209 37.2687 18.7167 38.6384 17.7499C38.7813 17.648 39.4818 17.9503 39.5201 18.1472C39.9628 20.4428 37.6067 20.5483 36.5716 22.4255Z" fill="#E2E5E8"/>
</g>
<defs>
<clipPath id="clip0_1109_488">
<rect width="90" height="79" fill="white"/>
</clipPath>
</defs>
</svg>
