<svg id="Layer_1" data-name="Layer 1" xmlns="http://www.w3.org/2000/svg" viewBox="0 0 83.64 93.26"><defs><style>.cls-1{fill:none;}.cls-1,.cls-2{stroke:#000;stroke-miterlimit:10;stroke-width:2px;}.cls-2{fill:#030303;}</style></defs><path class="cls-1" d="M121.28,95.41c-.06,1.21-.58,2.68-.07,3.55s2.22.3,3.39.54a14.83,14.83,0,0,1-1,29.34c-7.43.76-14-3.9-15.81-11.43-.32-1.27-.7-1.32-1.81-1A22.9,22.9,0,1,1,93.24,72.55C107.53,69.07,121.45,80.41,121.28,95.41Z" transform="translate(-55.77 -36.66)"/><path class="cls-1" d="M117.33,71.31c.34-2,.58-4,1-5.92a2,2,0,0,0-.74-2.22c-1.26-1.16-2.45-2.38-3.68-3.57-.56-.55-1.25-1-1-2s1.09-.8,1.76-.92a17.05,17.05,0,0,1,3.59-.5c2.4.11,3.56-1.15,4.31-3.22a22,22,0,0,1,1.72-3.43c.75-1.29,1.77-1.26,2.56,0a9.15,9.15,0,0,1,1.13,2.28c.94,3.4,3.26,4.6,6.6,4.61,1.25,0,3-.3,3.6,1.18s-1,2.44-2,3.15c-3,2.12-3.58,4.74-2.52,8.09.37,1.14,1.13,2.63-.1,3.57s-2.48-.3-3.45-1c-3-2.15-5.85-2.26-8.79,0a7.46,7.46,0,0,1-2.07,1.09C118.14,73,117.38,72.65,117.33,71.31Z" transform="translate(-55.77 -36.66)"/><path class="cls-1" d="M90.06,60.33c.32-1.72.6-3.49,1-5.23a3,3,0,0,0-1-3.23c-1.19-1-2.2-2.23-3.31-3.34-.52-.51-1.07-1-.76-1.82s1.07-.84,1.78-.93a9.74,9.74,0,0,1,1.7-.2c3.83.24,6-1.72,7.06-5.24a7,7,0,0,1,.87-1.72c.82-1.29,1.77-1.29,2.54.09.86,1.55,1.65,3.15,2.36,4.78a2.4,2.4,0,0,0,2.23,1.62c1.77.15,3.54.43,5.3.71s2,1.24.86,2.49a14.08,14.08,0,0,1-2.49,2.39c-2.41,1.59-2.71,3.69-1.89,6.23a17.29,17.29,0,0,1,.54,2.94c.24,1.77-.63,2.46-2.23,1.7s-3.05-1.52-4.51-2.38a2.75,2.75,0,0,0-3.16,0c-1.52.92-3.13,1.69-4.74,2.47C90.93,62.27,90.2,61.81,90.06,60.33Z" transform="translate(-55.77 -36.66)"/><path class="cls-1" d="M77.84,69.51c-.11,1.4-.76,1.87-2.1,1.16-1.64-.86-3.31-1.65-4.92-2.58a2.08,2.08,0,0,0-2.34,0c-1.61.91-3.28,1.7-4.91,2.58a1.61,1.61,0,0,1-1.8.12,1.46,1.46,0,0,1-.43-1.91c1.65-4.57.84-8.36-3.45-11.13-.61-.39-1.35-1-1.06-1.92s1.32-1.11,2.12-1.06c4.65.27,7.58-1.77,8.9-6.25.24-.82.53-1.94,1.72-1.87,1,.06,1.36,1,1.59,1.82,1.29,4.38,4,6.73,8.74,6.42.73,0,1.84-.1,2.22.92s-.48,1.78-1.2,2.27c-3.84,2.58-5,6-3.28,10.34A5.66,5.66,0,0,1,77.84,69.51Z" transform="translate(-55.77 -36.66)"/><path class="cls-1" d="M122.3,128.92a14.44,14.44,0,0,1-14.39-14.5v-.25A14.67,14.67,0,0,1,122.24,99.5a14.83,14.83,0,0,1,14.59,14.71,14.59,14.59,0,0,1-14.48,14.71Z" transform="translate(-55.77 -36.66)"/><path class="cls-1" d="M98,106.4c3,0,6.15-.37,9,1.14,1.29.69,2.2,1.32,1.14,3A7.08,7.08,0,0,0,107,114c0,1.72-1,2.31-2.33,2.75a20.5,20.5,0,0,1-19.09-2.87c-1.51-1.08-1.41-1.91-.4-3.2a10.4,10.4,0,0,1,8-4.23C94.83,106.35,96.4,106.4,98,106.4Z" transform="translate(-55.77 -36.66)"/><path class="cls-1" d="M98.37,80.44a10.14,10.14,0,0,1,10.23,10v.11A10.23,10.23,0,1,1,98.37,80.44Z" transform="translate(-55.77 -36.66)"/><path class="cls-2" d="M131.17,109.63a2.22,2.22,0,0,1-.9,1.44c-3.06,2.67-6.13,5.33-9.15,8-1,.91-1.82.89-2.68-.18-1.19-1.5-2.44-3-3.68-4.43-.57-.68-.86-1.4-.1-2.06s1.44-.24,2,.4a1.15,1.15,0,0,0,.14.17c1.15,1.09,1.81,3.33,3.31,3.23,1.25-.08,2.39-1.84,3.57-2.87,1.72-1.5,3.43-3,5.15-4.5.43-.38.92-.71,1.53-.37A1.35,1.35,0,0,1,131.17,109.63Z" transform="translate(-55.77 -36.66)"/><rect class="cls-1" x="51.38" y="76.41" width="0.76" height="3.18"/></svg>