<svg width="89" height="89" viewBox="0 0 89 89" fill="none" xmlns="http://www.w3.org/2000/svg">
<g clip-path="url(#clip0_1109_640)">
<path d="M68.9977 53.1097C68.9285 54.4017 68.3709 55.9798 68.9193 56.9073C69.5323 57.9408 71.2974 57.2349 72.551 57.4933C80.3859 59.1175 85.9533 65.942 85.6123 73.6847C85.4628 77.4976 83.9531 81.1305 81.3572 83.9243C78.7612 86.718 75.251 88.4876 71.4633 88.9118C63.5224 89.7285 56.5494 84.7313 54.5538 76.6656C54.2173 75.3136 53.8071 75.2582 52.6135 75.655C38.9577 80.2232 24.8456 72.8865 20.9328 59.279C17.0568 45.7823 25.1728 32.0179 38.9992 28.631C54.2865 24.8981 69.182 37.0475 68.9977 53.1097Z" fill="#010101"/>
<path d="M66.467 31.9258C66.8311 29.7802 67.0892 27.6576 67.5777 25.5858C67.8358 24.5107 67.527 23.8832 66.7896 23.2095C65.4439 21.9728 64.1672 20.6578 62.8537 19.3842C62.2592 18.8028 61.5218 18.2953 61.8306 17.2801C62.1394 16.265 62.9966 16.4173 63.7155 16.2927C64.9876 16.0666 66.2826 15.7021 67.55 15.7574C70.1217 15.8728 71.3569 14.5208 72.1588 12.3059C72.6622 11.0303 73.2792 9.80257 74.0023 8.63762C74.7996 7.25334 75.8965 7.28101 76.7353 8.67452C77.2479 9.43014 77.6571 10.2511 77.952 11.1155C78.9475 14.7561 81.4363 16.0435 85.0081 16.062C86.3492 16.062 88.2342 15.739 88.861 17.3171C89.5477 19.0289 87.7595 19.9333 86.7087 20.6901C83.5333 22.9603 82.8742 25.7658 84.0172 29.3603C84.4089 30.5784 85.2247 32.1796 83.902 33.1763C82.5793 34.173 81.2473 32.8579 80.215 32.1335C76.9888 29.8263 73.9608 29.711 70.8084 32.1335C70.1372 32.6344 69.3925 33.0282 68.6009 33.3009C67.3381 33.7669 66.5223 33.3655 66.467 31.9258Z" fill="#010101"/>
<path d="M35.6005 24.2753C35.937 22.4296 36.2458 20.5378 36.6375 18.6736C36.9233 17.2893 36.7666 16.2096 35.6005 15.2175C34.3285 14.1378 33.2455 12.8273 32.0564 11.6414C31.4987 11.0877 30.9088 10.5571 31.2407 9.685C31.5725 8.81291 32.3882 8.78522 33.1487 8.69294C33.7464 8.56796 34.3541 8.49692 34.9646 8.48069C39.0664 8.72986 41.3799 6.63498 42.5229 2.86974C42.7476 2.21655 43.0576 1.59594 43.4447 1.02403C44.3296 -0.360252 45.3435 -0.360261 46.1639 1.1163C47.0856 2.78206 47.9336 4.49395 48.6941 6.23814C48.8627 6.738 49.1819 7.17324 49.6078 7.48395C50.0337 7.79465 50.5453 7.96555 51.0722 7.97311C52.971 8.13461 54.8606 8.43453 56.741 8.72985C58.5338 9.03439 58.8795 10.0588 57.6627 11.4061C56.8829 12.3644 55.9882 13.2229 54.9989 13.9624C52.4226 15.6651 52.0999 17.9076 52.9756 20.6347C53.2624 21.6642 53.4568 22.7174 53.5563 23.7816C53.819 25.678 52.8834 26.4163 51.1736 25.6042C49.4637 24.7921 47.9152 23.9754 46.3436 23.0525C45.1776 22.365 44.1775 22.2773 42.97 23.0156C41.3477 24.0031 39.624 24.829 37.9003 25.6688C36.5315 26.3471 35.7526 25.858 35.6005 24.2753Z" fill="#020202"/>
<path d="M22.5267 31.8841C22.4115 33.3792 21.7202 33.8821 20.2776 33.1254C18.5263 32.2025 16.7381 31.3535 15.0236 30.3568C14.6524 30.1067 14.2152 29.973 13.7677 29.973C13.3203 29.973 12.883 30.1067 12.5118 30.3568C10.7974 31.335 9.00455 32.1794 7.26244 33.1254C6.62182 33.4714 5.99042 33.6883 5.34059 33.2499C4.58014 32.7331 4.58936 31.9764 4.87971 31.2012C6.64487 26.3055 5.77381 22.2541 1.19269 19.2826C0.538244 18.8627 -0.254475 18.2444 0.0589214 17.2338C0.399971 16.1264 1.46462 16.0387 2.32646 16.0895C7.29932 16.3802 10.4287 14.193 11.8436 9.40342C12.1016 8.52671 12.4104 7.31777 13.6871 7.39621C14.7701 7.46542 15.1388 8.51285 15.3831 9.34804C16.7657 14.0361 19.6416 16.5509 24.7343 16.2187C25.5178 16.1679 26.6976 16.1126 27.1032 17.2061C27.5641 18.4105 26.5916 19.1164 25.8266 19.6332C21.7156 22.4018 20.4389 26.0332 22.3101 30.7075C22.4233 31.091 22.4959 31.4854 22.5267 31.8841Z" fill="#020202"/>
<path d="M27.8097 66.579C24.9998 63.282 23.2535 59.2099 22.801 54.8994C22.3485 50.589 23.211 46.2424 25.2749 42.4325C29.4228 34.6805 38.1472 29.9417 46.4753 30.9384C55.8679 32.0504 63.2973 38.2797 65.551 46.9545C66.3452 49.909 66.5194 52.9963 66.0625 56.0215C65.8828 57.1889 65.5003 57.9134 64.2605 58.3287C62.2975 58.9817 60.5216 60.101 59.0848 61.591C58.3521 62.3339 57.8266 62.6246 56.8312 61.8817C54.43 60.0867 51.6371 59.4407 48.6598 59.4869C46.3554 59.5238 44.0787 59.5884 41.7973 59.4869C35.8013 59.15 31.1004 61.351 27.8097 66.579Z" fill="#FEFEFE"/>
<path d="M69.8024 86.2681C68.0846 86.2756 66.3825 85.9406 64.7954 85.2827C63.2082 84.6247 61.7678 83.657 60.5581 82.436C59.3483 81.2149 58.3935 79.7649 57.7493 78.1706C57.105 76.5763 56.7843 74.8695 56.8057 73.1497C56.8318 69.7129 58.2008 66.4229 60.6196 63.984C63.0383 61.5451 66.3147 60.1511 69.7471 60.1006C73.2158 60.1243 76.5374 61.5065 79.0009 63.9514C81.4644 66.3963 82.8741 69.7096 82.9282 73.1821C82.9276 74.905 82.5873 76.6109 81.9268 78.202C81.2663 79.793 80.2985 81.2378 79.0791 82.4536C77.8596 83.6693 76.4124 84.6321 74.8206 85.2867C73.2287 85.9413 71.5234 86.2748 69.8024 86.2681Z" fill="#FEFEFE"/>
<path d="M44.6247 62.1628C47.8831 62.2181 51.2014 61.7705 54.2708 63.3901C55.6534 64.1238 56.6305 64.7975 55.4922 66.6201C54.7952 67.7203 54.395 68.9826 54.3307 70.2839C54.2939 72.1296 53.2753 72.7617 51.8282 73.2278C44.5141 75.5903 37.7346 74.6121 31.4159 70.1547C29.7936 69.0011 29.9043 68.1059 30.9873 66.7309C33.2041 63.93 36.0155 62.3381 39.5873 62.1951C41.2649 62.1074 42.9471 62.1628 44.6247 62.1628Z" fill="#FEFEFE"/>
<path d="M84.9575 18.8348C80.3902 21.4741 79.026 24.8795 81.0032 29.6552C77.0351 26.4668 73.3941 26.5083 69.5135 29.6552C71.1865 24.9625 70.1726 21.4372 65.5039 18.9086C68.2 18.3918 70.4122 18.4472 72.1037 17.5243C73.7951 16.6015 73.8734 13.9898 75.2469 12.3379C76.5373 14.0821 76.6525 16.6476 78.3347 17.6028C80.0169 18.5579 82.2384 18.378 84.9575 18.8348Z" fill="#FDFDFD"/>
<path d="M53.8034 10.9725C52.3332 13.0812 49.932 13.9395 49.5679 15.9836C49.2407 17.8293 49.8859 19.8642 50.1716 22.4666C46.3325 18.9783 42.6962 18.8814 38.8018 22.1344C40.4748 17.4279 39.4839 13.8287 35.1562 11.1432C40.2259 11.4662 43.2953 9.44518 44.4936 4.3418C45.632 9.51439 49.0333 11.194 53.8034 10.9725Z" fill="#FEFEFE"/>
<path d="M4.17578 18.1981C9.48048 18.821 12.4716 16.8138 13.7344 11.9365C15.1447 16.62 17.7671 19.1671 23.081 18.3965C19.0806 21.262 17.5505 24.6903 19.523 29.4707C15.5871 26.5407 11.9047 26.1808 8.24534 29.7291C8.05638 27.1313 9.48511 24.9857 8.66014 23.1584C7.89508 21.4696 6.09764 20.2468 4.17578 18.1981Z" fill="#FDFDFD"/>
<path d="M44.4918 37.0796C45.9244 37.0662 47.3454 37.3373 48.6726 37.8773C49.9998 38.4173 51.2069 39.2155 52.224 40.2257C53.2411 41.2358 54.048 42.4379 54.598 43.7623C55.148 45.0867 55.4303 46.5072 55.4284 47.9416C55.3685 53.7463 50.3587 58.6421 44.4872 58.6467C38.6156 58.6513 33.6105 53.8109 33.5551 47.9646C33.4998 42.0214 38.4635 37.0842 44.4918 37.0796Z" fill="#020202"/>
<path d="M79.5734 68.3327C79.4671 68.9556 79.1192 69.5112 78.6056 69.8785C75.3379 72.7393 72.0565 75.5863 68.8258 78.4887C67.7381 79.4623 66.8763 79.4485 65.9591 78.2995C64.6779 76.6891 63.3459 75.1203 62.0186 73.5514C61.4056 72.827 61.0968 72.0518 61.908 71.3504C62.7191 70.649 63.4519 71.092 64.0649 71.7795C64.1156 71.8349 64.1524 71.9041 64.2078 71.9595C65.4429 73.1269 66.1527 75.5263 67.7519 75.4156C69.0884 75.3279 70.3098 73.4453 71.5726 72.3471C73.4161 70.7413 75.2366 69.1171 77.0755 67.5252C77.5363 67.1145 78.0617 66.7592 78.7208 67.1284C78.9571 67.235 79.1607 67.4028 79.3106 67.6145C79.4604 67.8262 79.5512 68.0741 79.5734 68.3327Z" fill="#030303"/>
<path d="M44.3994 56.0079C42.2447 56.0006 40.1804 55.14 38.6572 53.6142C37.134 52.0883 36.2756 50.021 36.2695 47.8637C36.3248 43.4663 40.1225 39.8303 44.593 39.8764C46.7478 39.9101 48.804 40.7861 50.3223 42.3174C51.8406 43.8487 52.7005 45.9137 52.7182 48.0713C52.6962 49.1404 52.463 50.1946 52.0323 51.1731C51.6016 52.1517 50.9818 53.0352 50.2085 53.7729C49.4353 54.5106 48.524 55.0879 47.527 55.4714C46.53 55.855 45.4671 56.0373 44.3994 56.0079Z" fill="#FEFEFE"/>
</g>
<defs>
<clipPath id="clip0_1109_640">
<rect width="89" height="89" fill="white"/>
</clipPath>
</defs>
</svg>
