<svg width="723" height="695" viewBox="0 0 723 695" fill="none" xmlns="http://www.w3.org/2000/svg">
<g clip-path="url(#clip0_1210_451)">
<path d="M723 347.529C723 539.452 561.15 695.038 361.49 695.038C161.83 695.038 0 539.413 0 347.529C0 155.644 161.83 0 361.51 0C561.19 0 723 155.587 723 347.529Z" fill="#D6C6FF"/>
<path d="M614.125 435.593C605.654 456.556 589.055 473.537 567.826 482.959C546.597 492.381 522.395 493.507 500.319 486.102C478.243 478.696 460.017 463.336 449.482 443.258C438.946 423.179 436.923 399.951 443.838 378.466C444.435 376.552 445.092 374.829 445.828 373.048C454.314 352.107 470.912 335.148 492.131 325.741C513.35 316.334 537.534 315.212 559.596 322.61C581.657 330.009 599.876 345.352 610.417 365.41C620.959 385.468 623.001 408.678 616.115 430.156C615.499 431.956 614.842 433.679 614.125 435.593ZM671.08 427.744L657.946 423.321C659.02 416.844 659.559 410.296 659.558 403.737L673.21 401.248L664.433 356.775L650.762 359.283C648.277 353.178 645.31 347.264 641.886 341.594L652.434 332.845L621.707 298.519L611.18 307.325C605.831 303.245 600.155 299.577 594.205 296.356L598.782 283.739L554.345 268.807L549.748 281.423C543.005 280.425 536.192 279.932 529.37 279.949L526.783 266.835L480.514 275.258L483.121 288.43C476.765 290.806 470.611 293.655 464.713 296.949L455.619 286.803L419.958 316.342L429.032 326.47C424.748 331.573 420.902 337.003 417.53 342.704L404.395 338.301L388.913 380.936L402.047 385.339C401.01 391.819 400.498 398.367 400.515 404.924L386.863 407.432L395.639 451.885L409.331 449.396C411.8 455.509 414.767 461.424 418.206 467.086L407.639 475.796L438.365 510.103L448.893 501.373C454.212 505.489 459.869 509.183 465.808 512.42L461.211 525.055L505.649 539.988L510.246 527.352C516.986 528.369 523.801 528.862 530.623 528.826L533.211 541.959L579.479 533.517L576.892 520.365C583.242 517.988 589.389 515.139 595.28 511.845L604.374 521.992L640.115 492.395L631.041 482.267C635.307 477.151 639.153 471.723 642.543 466.033L655.638 470.493L671.18 427.763" fill="white"/>
<path d="M526.445 506.255C512.101 506.193 497.927 503.26 484.826 497.641C471.724 492.022 459.983 483.841 450.347 473.618C440.712 463.395 433.395 451.355 428.861 438.263C424.327 425.171 422.675 411.314 424.012 397.575C425.349 383.835 429.644 370.514 436.625 358.459C443.605 346.404 453.118 335.878 464.558 327.553C475.997 319.228 489.114 313.285 503.071 310.102C517.029 306.919 531.522 306.567 545.629 309.067C545.732 309.086 545.822 309.143 545.882 309.225C545.941 309.307 545.965 309.409 545.948 309.508C545.924 309.608 545.861 309.695 545.772 309.752C545.683 309.809 545.575 309.831 545.47 309.814C521.344 305.576 496.439 309.741 475.215 321.563C453.992 333.385 437.839 352.092 429.65 374.331C421.441 396.993 422.095 421.756 431.49 443.987C440.885 466.219 458.377 484.396 480.695 495.119C503.012 505.842 528.626 508.377 552.745 502.248C576.864 496.119 597.836 481.747 611.738 461.821C611.799 461.737 611.89 461.679 611.993 461.658C612.097 461.636 612.205 461.654 612.295 461.706C612.364 461.779 612.402 461.875 612.402 461.974C612.402 462.073 612.364 462.168 612.295 462.242C602.845 475.8 590.069 486.909 575.096 494.589C560.123 502.269 543.414 506.282 526.445 506.274" fill="#F2E6DC"/>
<path d="M507.282 541.136H239.781V56.0166H507.282V541.136Z" fill="#BCADF2"/>
<path d="M249.61 23.1457C241.693 23.1457 234.101 26.1712 228.503 31.5566C222.905 36.942 219.76 44.2462 219.76 51.8623V540.734C219.76 548.35 222.905 555.655 228.503 561.04C234.101 566.425 241.693 569.451 249.61 569.451H495.599C503.516 569.451 511.108 566.425 516.706 561.04C522.304 555.655 525.449 548.35 525.449 540.734V51.8049C525.449 44.1887 522.304 36.8845 516.706 31.4991C511.108 26.1137 503.516 23.0882 495.599 23.0882L249.61 23.1457ZM495.599 570.159H249.61C241.501 570.149 233.728 567.046 227.994 561.53C222.26 556.014 219.034 548.535 219.023 540.734V51.8049C219.034 44.004 222.26 36.5255 227.994 31.0095C233.728 25.4934 241.501 22.39 249.61 22.3799H495.599C503.714 22.3799 511.498 25.4788 517.241 30.9959C522.983 36.5131 526.215 43.9974 526.225 51.8049V540.734C526.215 548.535 522.989 556.014 517.255 561.53C511.521 567.046 503.747 570.149 495.638 570.159" fill="white"/>
<path d="M413.749 233.103H716.852V44.4728H413.749V233.103ZM717.648 233.869H412.953V43.707H717.727V233.849" fill="white"/>
<path d="M572.135 186.237H449.848V85.5566H572.135V186.237Z" fill="#685599"/>
<path d="M557.53 172.185H435.242V71.5049H557.53V172.185Z" fill="white"/>
<path d="M695.377 85.6906H585.925C585.82 85.6906 585.719 85.6502 585.644 85.5784C585.569 85.5066 585.527 85.4092 585.527 85.3077C585.527 85.2061 585.569 85.1088 585.644 85.0369C585.719 84.9651 585.82 84.9248 585.925 84.9248H695.377C695.43 84.9248 695.481 84.9347 695.53 84.9539C695.578 84.9732 695.622 85.0014 695.659 85.0369C695.696 85.0725 695.725 85.1147 695.745 85.1612C695.765 85.2076 695.775 85.2574 695.775 85.3077C695.775 85.358 695.765 85.4078 695.745 85.4542C695.725 85.5007 695.696 85.5429 695.659 85.5784C695.622 85.614 695.578 85.6422 695.53 85.6614C695.481 85.6807 695.43 85.6906 695.377 85.6906Z" fill="white"/>
<path d="M672.134 107.266H585.925C585.82 107.266 585.719 107.225 585.644 107.154C585.569 107.082 585.527 106.984 585.527 106.883C585.527 106.781 585.569 106.684 585.644 106.612C585.719 106.54 585.82 106.5 585.925 106.5H672.134C672.239 106.5 672.34 106.54 672.415 106.612C672.49 106.684 672.532 106.781 672.532 106.883C672.532 106.984 672.49 107.082 672.415 107.154C672.34 107.225 672.239 107.266 672.134 107.266Z" fill="white"/>
<path d="M686.661 126.794H585.925C585.873 126.794 585.821 126.784 585.773 126.764C585.725 126.745 585.681 126.717 585.644 126.681C585.607 126.646 585.578 126.604 585.558 126.557C585.538 126.511 585.527 126.461 585.527 126.411C585.532 126.312 585.577 126.22 585.651 126.152C585.725 126.084 585.823 126.047 585.925 126.047H686.661C686.763 126.047 686.862 126.084 686.936 126.152C687.01 126.22 687.054 126.312 687.059 126.411C687.059 126.512 687.017 126.61 686.942 126.681C686.868 126.753 686.767 126.794 686.661 126.794Z" fill="white"/>
<path d="M655.218 147.335H585.925C585.823 147.336 585.725 147.298 585.651 147.23C585.577 147.162 585.532 147.07 585.527 146.972C585.527 146.921 585.538 146.872 585.558 146.825C585.578 146.779 585.607 146.737 585.644 146.701C585.681 146.665 585.725 146.637 585.773 146.618C585.821 146.599 585.873 146.589 585.925 146.589H655.218C655.324 146.589 655.425 146.629 655.5 146.701C655.574 146.773 655.616 146.87 655.616 146.972C655.611 147.07 655.567 147.162 655.493 147.23C655.419 147.298 655.321 147.336 655.218 147.335Z" fill="white"/>
<path d="M481.987 101.906C483.875 101.004 485.885 100.36 487.957 99.9915L487.201 89.5195C483.739 90.0354 480.381 91.0689 477.251 92.5826C469.623 96.1849 463.669 102.398 460.555 110.004L470.963 112.971C473.131 108.163 476.992 104.245 481.868 101.906" fill="#8E7BDB"/>
<path d="M470.504 129.282C469.189 125.745 468.833 121.943 469.469 118.236L459.022 115.269C457.686 121.538 458.288 128.047 460.753 133.992L470.504 129.282Z" fill="#8E7BDB"/>
<path d="M523.996 109.697L514.285 114.407C516.182 119.539 516.06 125.163 513.941 130.214C511.821 135.266 507.852 139.396 502.783 141.823C497.714 144.251 491.896 144.808 486.429 143.39C480.962 141.972 476.224 138.676 473.111 134.126L463.34 138.854C467.801 145.838 474.82 150.96 483.013 153.21C491.206 155.461 499.978 154.676 507.599 151.012C515.22 147.347 521.138 141.068 524.184 133.413C527.23 125.758 527.185 117.283 524.056 109.659" fill="#455A64"/>
<path d="M493.608 99.5894C497.211 99.7778 500.72 100.77 503.856 102.488C506.992 104.206 509.67 106.602 511.677 109.487L521.428 104.797C518.428 100.073 514.235 96.1546 509.239 93.4068C504.243 90.6589 498.606 89.1703 492.852 89.0791L493.628 99.5511" fill="#8E7BDB"/>
<path d="M464.812 340.714H330.902V256.076H331.659V339.871H464.792V340.637" fill="white"/>
<path d="M417.23 283.835L416.832 283.184L432.752 274.071L433.15 274.722L417.23 283.835Z" fill="white"/>
<path d="M406.606 281.289L385.113 249.892L385.77 249.471L407.282 280.868L406.626 281.289" fill="white"/>
<path d="M359.618 260.957L359.141 260.364L375.837 247.978L376.315 248.571L359.618 260.957Z" fill="white"/>
<path d="M360.853 264.806C360.853 266.563 360.128 268.248 358.836 269.49C357.545 270.732 355.794 271.43 353.968 271.43C352.141 271.43 350.39 270.732 349.099 269.49C347.808 268.248 347.082 266.563 347.082 264.806C347.079 263.938 347.255 263.078 347.599 262.276C347.943 261.473 348.449 260.744 349.087 260.13C349.725 259.516 350.483 259.03 351.317 258.699C352.151 258.368 353.045 258.199 353.948 258.201C354.85 258.196 355.745 258.363 356.58 258.692C357.415 259.02 358.174 259.505 358.814 260.117C359.454 260.729 359.962 261.456 360.308 262.258C360.655 263.059 360.833 263.919 360.833 264.787" fill="white"/>
<path d="M388.614 244.149C388.617 245.017 388.441 245.877 388.097 246.679C387.753 247.482 387.247 248.211 386.609 248.825C385.971 249.439 385.213 249.925 384.379 250.256C383.545 250.587 382.651 250.756 381.749 250.754C380.846 250.759 379.952 250.592 379.117 250.263C378.282 249.935 377.522 249.45 376.882 248.838C376.242 248.226 375.735 247.499 375.388 246.697C375.042 245.896 374.863 245.036 374.863 244.168C374.863 242.411 375.589 240.726 376.88 239.484C378.171 238.242 379.923 237.544 381.749 237.544C383.575 237.544 385.326 238.242 386.618 239.484C387.909 240.726 388.634 242.411 388.634 244.168" fill="white"/>
<path d="M417.787 286.707C417.787 288.017 417.383 289.298 416.626 290.387C415.87 291.476 414.794 292.325 413.536 292.827C412.278 293.328 410.894 293.459 409.558 293.204C408.222 292.948 406.995 292.317 406.032 291.391C405.069 290.464 404.414 289.284 404.148 287.999C403.882 286.714 404.019 285.382 404.54 284.172C405.061 282.962 405.943 281.927 407.076 281.199C408.208 280.471 409.539 280.083 410.901 280.083C412.727 280.083 414.479 280.781 415.77 282.023C417.061 283.265 417.787 284.95 417.787 286.707Z" fill="white"/>
<path d="M445.767 271.238C445.767 272.995 445.042 274.679 443.75 275.922C442.459 277.164 440.708 277.862 438.882 277.862C437.056 277.862 435.304 277.164 434.013 275.922C432.722 274.679 431.996 272.995 431.996 271.238C431.993 270.37 432.169 269.51 432.513 268.707C432.858 267.905 433.363 267.176 434.001 266.562C434.639 265.948 435.397 265.462 436.231 265.131C437.065 264.8 437.959 264.63 438.862 264.633C439.764 264.628 440.659 264.794 441.494 265.123C442.329 265.452 443.088 265.936 443.728 266.548C444.368 267.16 444.876 267.888 445.222 268.69C445.569 269.491 445.747 270.351 445.747 271.219" fill="white"/>
<path d="M345.848 327.063H362.962V281.939H345.848V327.063Z" fill="#263238"/>
<path d="M374.086 327.063H391.2V272.865H374.086V326.987" fill="#263238"/>
<path d="M402.344 327.063H419.458V297.906H402.344V327.063Z" fill="#263238"/>
<path d="M430.703 289.521V327.064H447.817V289.521H430.703Z" fill="#263238"/>
<path d="M465.848 416.047H691.06V358.613H465.848V416.047ZM691.856 416.813H464.992V357.752H691.856V416.889" fill="white"/>
<path d="M663.537 341.249C653.906 338.301 652.751 324.019 644.732 324.211C624.831 324.709 615.777 387.158 600.672 386.335C588.215 385.645 586.185 342.647 571.737 341.249C556.334 339.756 545.469 387.483 528.832 386.335C514.245 385.32 514.902 348.046 489.031 335.506C484.818 333.481 480.249 332.228 475.559 331.811V406.876H681.448V336.195C673.667 341.575 667.876 342.59 663.537 341.249Z" fill="#3C4F57"/>
<path d="M284.477 135.6L270.268 162.268L34.4688 135.6L159.463 40.6816L284.477 135.6Z" fill="white"/>
<path d="M284.477 313.72H34.4688V136.117H284.477V313.72Z" fill="white"/>
<path d="M284.477 136.117H34.4688L159.463 266.299L284.477 136.117Z" fill="#6353C1"/>
<path d="M253.711 168.126V83.163L220.218 61.6638L197.532 29.3672H65.2344V168.126L159.463 269.036L253.711 168.068" fill="#ABA1E2"/>
<path d="M227.201 96.9279H160.515C160.463 96.9279 160.411 96.918 160.363 96.8987C160.315 96.8795 160.271 96.8513 160.234 96.8157C160.197 96.7802 160.167 96.738 160.147 96.6915C160.127 96.6451 160.117 96.5953 160.117 96.545C160.117 96.4435 160.159 96.3461 160.234 96.2743C160.308 96.2024 160.41 96.1621 160.515 96.1621H227.161C227.267 96.1621 227.368 96.2024 227.443 96.2743C227.518 96.3461 227.56 96.4435 227.56 96.545C227.56 96.5953 227.549 96.6451 227.529 96.6915C227.509 96.738 227.48 96.7802 227.443 96.8157C227.406 96.8513 227.362 96.8795 227.314 96.8987C227.266 96.918 227.214 96.9279 227.161 96.9279" fill="#3C4F57"/>
<path d="M146.13 96.9279H107.941C107.889 96.9279 107.837 96.918 107.789 96.8987C107.74 96.8795 107.696 96.8513 107.66 96.8157C107.623 96.7802 107.593 96.738 107.573 96.6915C107.553 96.6451 107.543 96.5953 107.543 96.545C107.543 96.4435 107.585 96.3461 107.66 96.2743C107.734 96.2024 107.835 96.1621 107.941 96.1621H146.13C146.235 96.1621 146.337 96.2024 146.411 96.2743C146.486 96.3461 146.528 96.4435 146.528 96.545C146.528 96.5953 146.517 96.6451 146.497 96.6915C146.477 96.738 146.448 96.7802 146.411 96.8157C146.374 96.8513 146.33 96.8795 146.282 96.8987C146.234 96.918 146.182 96.9279 146.13 96.9279Z" fill="#3C4F57"/>
<path d="M227.203 122.525H193.71C193.658 122.525 193.606 122.515 193.558 122.495C193.51 122.476 193.466 122.448 193.429 122.412C193.392 122.377 193.363 122.335 193.343 122.288C193.323 122.242 193.312 122.192 193.312 122.142C193.313 122.04 193.354 121.943 193.429 121.871C193.504 121.799 193.605 121.759 193.71 121.759H227.203C227.308 121.759 227.41 121.799 227.484 121.871C227.559 121.943 227.601 122.04 227.601 122.142C227.601 122.192 227.59 122.242 227.57 122.288C227.55 122.335 227.521 122.377 227.484 122.412C227.447 122.448 227.403 122.476 227.355 122.495C227.307 122.515 227.255 122.525 227.203 122.525Z" fill="#3C4F57"/>
<path d="M179.182 122.525H107.839C107.787 122.525 107.735 122.515 107.687 122.495C107.639 122.476 107.595 122.448 107.558 122.412C107.521 122.377 107.492 122.335 107.472 122.288C107.452 122.242 107.441 122.192 107.441 122.142C107.441 122.04 107.483 121.943 107.558 121.871C107.633 121.799 107.734 121.759 107.839 121.759H179.182C179.283 121.759 179.379 121.797 179.45 121.865C179.52 121.934 179.56 122.026 179.56 122.123C179.563 122.17 179.556 122.218 179.539 122.263C179.523 122.308 179.497 122.35 179.464 122.385C179.431 122.421 179.39 122.45 179.345 122.471C179.301 122.491 179.252 122.503 179.202 122.505" fill="#3C4F57"/>
<path d="M205.41 148.121H107.898C107.796 148.121 107.697 148.083 107.623 148.015C107.549 147.948 107.505 147.855 107.5 147.757C107.5 147.655 107.542 147.558 107.617 147.486C107.691 147.414 107.792 147.374 107.898 147.374H205.41C205.51 147.374 205.606 147.412 205.677 147.481C205.748 147.549 205.788 147.641 205.788 147.738C205.783 147.833 205.742 147.923 205.672 147.99C205.602 148.057 205.509 148.097 205.41 148.102" fill="#3C4F57"/>
<path d="M197.531 83.1634H253.591L197.551 29.291V83.1634" fill="white"/>
<path d="M284.477 313.719H34.4688L159.483 183.537L284.477 313.719Z" fill="white"/>
<path d="M49.2145 298.749H48.9558C48.9203 298.715 48.8921 298.675 48.8729 298.63C48.8537 298.586 48.8438 298.538 48.8438 298.49C48.8438 298.442 48.8537 298.395 48.8729 298.35C48.8921 298.306 48.9203 298.266 48.9558 298.232L159.482 183.136L159.781 183.461L236.974 263.868C237.032 263.941 237.06 264.033 237.053 264.125C237.046 264.217 237.005 264.303 236.937 264.368C236.87 264.433 236.78 264.473 236.684 264.479C236.589 264.486 236.494 264.459 236.417 264.404L159.522 184.323L49.5727 298.806C49.534 298.844 49.4875 298.874 49.4361 298.894C49.3847 298.914 49.3295 298.923 49.2742 298.921" fill="#6353C1"/>
<path d="M689.607 235.362C689.628 248.952 684.039 261.995 674.068 271.623C664.097 281.251 650.56 286.677 636.433 286.707H636.294C622.166 286.712 608.615 281.321 598.618 271.718C588.621 262.115 582.996 249.086 582.98 235.496C582.983 228.763 584.364 222.097 587.045 215.877C589.725 209.658 593.653 204.008 598.604 199.249C603.554 194.49 609.431 190.716 615.898 188.141C622.365 185.567 629.295 184.244 636.294 184.246C650.411 184.241 663.953 189.624 673.948 199.215C683.943 208.805 689.575 221.819 689.607 235.4" fill="white"/>
<path d="M666.799 208.215L664.212 206.415L656.033 217.232L648.372 211.852L656.61 201.016L654.043 199.217L639.516 205.381L637.805 220.525L650.621 229.522L665.128 223.377L666.839 208.215" fill="#6353C1"/>
<path d="M605.828 262.547L608.395 264.461L616.634 253.721L624.296 259.12L616.057 269.937L618.624 271.736L633.131 265.572L634.843 250.429L622.027 241.431L607.54 247.576L605.828 262.738" fill="#6353C1"/>
<path d="M627.936 254.162L620.215 248.648L643.24 218.381L651.08 223.875L628.036 254.162" fill="#6353C1"/>
<path d="M207.821 413.864C181.513 373.124 145.235 327.427 99.1455 332.998C63.5835 337.305 28.6186 384.688 34.131 495.266C38.4295 581.76 78.9665 631.019 102.33 647.694C169.254 695.555 290.109 694.483 360.815 625.773C370.129 616.718 421.074 567.211 408.318 511.596C394.746 452.248 313.035 404.138 207.821 413.959" fill="#8E7BDB"/>
<path d="M124.237 343.796C121.635 343.793 119.036 343.952 116.456 344.274C97.2919 346.591 80.3766 361.16 68.8742 385.301C55.1828 414.018 49.2922 455.733 51.7997 506.141C53.6902 544.429 62.7449 578.794 78.705 608.372C94.9636 638.505 112.894 653.323 119.859 658.281C184.038 704.228 305.768 706.41 377.807 636.399C400.255 614.575 436.255 570.791 425.23 522.566C418.524 493.352 394.583 466.205 359.559 448.076C322.126 428.72 274.385 420.565 225.152 425.102H224.913L224.774 424.892C214.087 408.351 197.61 384.363 177.928 367.19C160.058 351.511 142.326 343.796 124.237 343.796ZM233.231 692.224C190.227 692.224 149.351 680.393 119.381 658.99C112.416 653.897 94.3864 638.965 78.0482 608.716C62.128 579.043 52.9539 544.544 51.0434 506.179C49.6118 482.305 50.5648 458.354 53.8892 434.655C56.1968 417.529 61.014 400.803 68.1975 384.975C79.8194 360.605 96.9536 345.883 116.416 343.509C127.615 342.212 138.972 343.791 149.331 348.084C160.053 352.653 169.891 358.938 178.426 366.673C198.087 383.903 214.565 407.757 225.271 424.336C249.834 421.986 274.618 422.952 298.902 427.208C320.167 430.884 340.714 437.697 359.817 447.405C376.432 455.745 391.28 466.997 403.598 480.583C414.498 492.544 422.167 506.904 425.926 522.394C431.319 545.942 426.106 571.117 410.404 597.23C401.506 611.726 390.719 625.069 378.305 636.935C345.171 669.136 298.703 688.625 247.4 691.688C242.644 691.976 237.888 692.129 233.172 692.129" fill="white"/>
<path d="M484.434 529.037L440.375 556.318L457.191 599.182L471.818 617.37C482.365 630.56 505.787 633.566 522.942 627.21L484.434 529.037Z" fill="#363E44"/>
<path d="M511.12 596.272L478.105 635.461L431.16 587.849L470.483 553.389L511.18 596.291" fill="#E2A18D"/>
<path d="M473.987 663.508L458.066 615.206L503.837 588.653L529.409 581.685C547.956 576.592 569.449 587.428 578.802 602.743L473.947 663.546" fill="#363E44"/>
<path d="M456.813 603.681L444.873 554.595L380.953 577.855L400.853 625.333L456.893 603.681" fill="#E2A18D"/>
<path d="M164.039 520.479C164.039 520.479 181.611 560.223 214.347 570.504C251.82 582.258 358.883 533.785 358.883 533.785L431.162 600.12L484.335 555.59C484.335 555.59 423.022 462.395 378.366 449.932C321.849 434.119 164.039 520.479 164.039 520.479Z" fill="white"/>
<path d="M158.527 526.663C158.527 526.663 186.387 482.42 219.959 489.848C258.387 498.349 310.824 576.956 310.824 576.956L415.858 554.289L429.789 620.452C429.789 620.452 327.302 669.921 282.327 658.473C225.472 643.999 158.348 526.663 158.348 526.663" fill="white"/>
<path d="M424.214 594.185C424.123 594.186 424.035 594.156 423.966 594.1C423.896 594.043 423.85 593.965 423.836 593.879L415.538 554.728L386.722 560.127C386.622 560.144 386.519 560.124 386.434 560.071C386.349 560.018 386.288 559.935 386.264 559.84C386.252 559.791 386.251 559.74 386.259 559.69C386.268 559.641 386.287 559.593 386.314 559.551C386.342 559.508 386.378 559.471 386.421 559.442C386.464 559.413 386.512 559.392 386.563 559.38L416.155 553.848V554.288L424.513 593.802C424.528 593.845 424.534 593.89 424.53 593.935C424.526 593.98 424.512 594.024 424.49 594.063C424.467 594.103 424.436 594.138 424.399 594.165C424.362 594.193 424.319 594.212 424.274 594.223" fill="#8E7BDB"/>
<path d="M297.69 557.926C297.628 557.925 297.568 557.91 297.513 557.884C297.458 557.857 297.41 557.82 297.371 557.773C296.814 557.046 296.257 556.318 295.7 555.552C289.85 547.474 283.264 539.914 276.018 532.962C275.983 532.928 275.955 532.888 275.935 532.843C275.916 532.799 275.906 532.752 275.906 532.703C275.906 532.655 275.916 532.608 275.935 532.563C275.955 532.519 275.983 532.479 276.018 532.445C276.054 532.408 276.097 532.378 276.145 532.358C276.193 532.338 276.244 532.327 276.297 532.327C276.349 532.327 276.401 532.338 276.449 532.358C276.497 532.378 276.54 532.408 276.576 532.445C283.865 539.426 290.485 547.025 296.356 555.15L298.028 557.371C298.095 557.442 298.133 557.534 298.133 557.629C298.133 557.725 298.095 557.817 298.028 557.888H297.829" fill="white"/>
<path d="M271.738 351.013C324.931 381.491 352.255 405.517 339.837 420.986C332.613 429.945 293.449 420.679 250.285 398.433C256.613 383.424 263.599 368.97 271.738 351.013Z" fill="#E2A18D"/>
<path d="M113.253 389.818C101.771 413.117 64.577 478.514 91.6614 492.164C114.069 503.46 147.562 438.349 160.457 415.874L113.253 389.818Z" fill="#E2A18D"/>
<path d="M98.3672 392.001C98.3672 392.001 137.989 356.316 182.088 346.821C226.187 337.325 273.49 340.656 273.49 340.656L269.112 398.223L303.799 479.415L156.994 533.709L139.083 451.579L98.4667 392.001" fill="#363E44"/>
<path d="M310.922 389.953C296.096 402.148 259.698 429.199 256.256 432.071C249.808 437.259 216.017 465.957 219.798 471.087C221.609 473.557 228.375 468.311 230.604 466.454C229.569 468.809 224.634 477.367 227.241 479.53C230.425 482.057 238.027 472.714 238.246 472.657C236.912 474.916 231.32 483.78 233.271 485.465C235.818 487.666 243.599 480.927 245.848 478.822C245.848 479.319 240.614 488.394 242.246 489.734C243.878 491.074 251.44 485.044 254.624 482.88C260.335 478.286 283.579 461.534 295.28 453.915C310.842 443.892 325.725 432.926 339.837 421.082C339.837 421.082 321.429 389.838 310.922 390.049" fill="#E2A18D"/>
<path d="M283.261 411.279C283.141 411.275 283.028 411.227 282.943 411.145C282.904 411.111 282.873 411.07 282.852 411.024C282.831 410.978 282.82 410.928 282.82 410.877C282.82 410.827 282.831 410.777 282.852 410.731C282.873 410.685 282.904 410.643 282.943 410.609C290.286 404.981 305.49 393.379 310.405 389.302C310.44 389.258 310.483 389.221 310.533 389.195C310.583 389.169 310.639 389.153 310.695 389.149C310.752 389.146 310.809 389.153 310.863 389.173C310.916 389.192 310.965 389.222 311.005 389.261C311.045 389.299 311.077 389.346 311.097 389.397C311.117 389.449 311.125 389.504 311.121 389.558C311.117 389.613 311.1 389.666 311.073 389.715C311.046 389.763 311.008 389.805 310.962 389.838C306.047 393.915 290.843 405.574 283.44 411.145C283.362 411.165 283.28 411.165 283.202 411.145" fill="#363E44"/>
<path d="M230.329 466.664H230.169C230.085 466.609 230.023 466.526 229.998 466.431C229.972 466.336 229.984 466.235 230.03 466.147C232.586 461.99 235.856 458.281 239.702 455.177C239.737 455.14 239.78 455.111 239.828 455.09C239.876 455.07 239.928 455.06 239.98 455.06C240.033 455.06 240.085 455.07 240.133 455.09C240.181 455.111 240.224 455.14 240.259 455.177C240.294 455.211 240.323 455.251 240.342 455.296C240.361 455.34 240.371 455.388 240.371 455.436C240.371 455.484 240.361 455.532 240.342 455.576C240.323 455.62 240.294 455.66 240.259 455.694C237.79 457.553 235.564 459.694 233.632 462.069C232.557 463.393 231.58 464.788 230.707 466.243C230.67 466.297 230.62 466.341 230.561 466.371C230.501 466.401 230.435 466.416 230.369 466.415" fill="#363E44"/>
<path d="M237.969 472.886H237.75C237.707 472.858 237.67 472.821 237.641 472.778C237.613 472.736 237.594 472.688 237.584 472.638C237.575 472.589 237.576 472.537 237.588 472.488C237.599 472.439 237.621 472.392 237.651 472.35C237.87 472.063 238.089 471.776 238.347 471.47C240.309 469.047 242.575 466.867 245.094 464.98C245.129 464.946 245.171 464.919 245.217 464.9C245.263 464.882 245.312 464.872 245.362 464.872C245.412 464.872 245.462 464.882 245.508 464.9C245.554 464.919 245.596 464.946 245.631 464.98C245.666 465.014 245.695 465.054 245.714 465.098C245.733 465.143 245.743 465.19 245.743 465.238C245.743 465.286 245.733 465.334 245.714 465.378C245.695 465.423 245.666 465.463 245.631 465.497C243.152 467.345 240.926 469.487 239.004 471.872L238.327 472.733C238.289 472.78 238.241 472.818 238.186 472.844C238.131 472.871 238.071 472.885 238.009 472.886" fill="#363E44"/>
<path d="M245.949 478.898C245.898 478.901 245.848 478.894 245.8 478.877C245.752 478.861 245.708 478.835 245.671 478.802C245.635 478.768 245.607 478.728 245.588 478.684C245.569 478.639 245.559 478.592 245.559 478.544C245.559 478.496 245.569 478.448 245.588 478.404C245.607 478.359 245.635 478.319 245.671 478.285C247.093 476.809 248.637 475.445 250.287 474.207C250.364 474.152 250.459 474.125 250.555 474.132C250.65 474.138 250.74 474.178 250.808 474.243C250.875 474.308 250.917 474.395 250.923 474.487C250.93 474.579 250.902 474.67 250.845 474.744C249.225 475.96 247.708 477.298 246.307 478.745C246.234 478.817 246.134 478.858 246.029 478.86" fill="#363E44"/>
<path d="M105.968 446.027C139.799 457.111 178.425 476.505 189.729 479.395C191.58 479.219 193.447 479.284 195.281 479.587C204.515 481.233 206.524 488.699 215.42 494.692C225.549 501.507 235.32 499.842 235.519 502.847C235.718 504.953 232.236 506.561 224.475 507.116C230.445 507.365 238.405 507.997 238.405 511.156C238.027 514.812 228.455 515.119 222.684 514.985C229.688 514.985 233.39 517.167 232.853 518.814C231.997 521.551 226.544 522.643 217.291 522.202C223.579 524.251 224.793 525.648 223.937 527.084C222.345 529.688 214.743 529.152 208.017 527.678C200.554 526.031 183.739 518.105 180.515 515.693L92.9531 492.528L105.849 445.893" fill="#E2A18D"/>
<path d="M136.178 457.647H136.038C124.516 452.957 114.665 449.262 105.929 446.409C105.879 446.392 105.833 446.366 105.794 446.331C105.755 446.297 105.723 446.255 105.701 446.209C105.678 446.163 105.666 446.112 105.664 446.061C105.663 446.01 105.671 445.959 105.69 445.912C105.73 445.822 105.803 445.749 105.894 445.707C105.986 445.664 106.09 445.656 106.188 445.682C114.944 448.554 124.815 452.249 136.337 456.958C136.434 456.996 136.512 457.07 136.553 457.163C136.594 457.257 136.595 457.362 136.556 457.456C136.519 457.521 136.464 457.575 136.398 457.612C136.331 457.65 136.255 457.668 136.178 457.666" fill="#363E44"/>
<path d="M205.927 491.112C217.967 489.197 221.848 486.058 221.529 484.239C220.892 481.176 209.908 478.744 191.938 479.395C195.52 483.014 202.325 487.512 205.868 491.112" fill="#E2A18D"/>
<path d="M209.809 490.902C209.704 490.9 209.604 490.859 209.53 490.787C208.495 489.772 207.54 488.777 206.644 487.819C204.918 485.813 202.947 484.013 200.774 482.459C200.731 482.43 200.693 482.394 200.665 482.351C200.636 482.308 200.617 482.261 200.608 482.211C200.599 482.161 200.6 482.11 200.611 482.061C200.622 482.011 200.644 481.964 200.674 481.923C200.7 481.882 200.735 481.848 200.776 481.821C200.816 481.794 200.863 481.775 200.911 481.766C200.96 481.757 201.01 481.758 201.058 481.768C201.106 481.779 201.152 481.799 201.192 481.827C203.403 483.415 205.407 485.254 207.162 487.303C208.057 488.26 208.993 489.217 210.008 490.251C210.043 490.285 210.071 490.325 210.091 490.369C210.11 490.414 210.12 490.461 210.12 490.509C210.12 490.557 210.11 490.605 210.091 490.649C210.071 490.694 210.043 490.734 210.008 490.768C209.934 490.84 209.834 490.881 209.729 490.883" fill="#363E44"/>
<path d="M224.197 507.213C222.019 506.959 219.884 506.431 217.849 505.643C216.461 505.13 215.128 504.489 213.869 503.728C213.771 503.69 213.694 503.616 213.653 503.523C213.612 503.43 213.611 503.324 213.65 503.23C213.711 503.147 213.802 503.089 213.905 503.068C214.008 503.046 214.116 503.063 214.207 503.116C215.437 503.866 216.736 504.507 218.088 505.03C220.059 505.797 222.126 506.312 224.237 506.562C224.287 506.566 224.335 506.581 224.379 506.603C224.423 506.626 224.462 506.657 224.493 506.695C224.525 506.732 224.548 506.775 224.562 506.821C224.576 506.867 224.581 506.916 224.575 506.964C224.565 507.057 224.518 507.143 224.444 507.203C224.37 507.264 224.274 507.295 224.177 507.289" fill="#363E44"/>
<path d="M223.341 515.1C221.161 514.865 219.025 514.343 216.992 513.549C215.604 512.998 214.272 512.326 213.012 511.539C212.968 511.512 212.929 511.476 212.899 511.434C212.869 511.392 212.848 511.345 212.837 511.295C212.826 511.245 212.825 511.194 212.835 511.144C212.844 511.094 212.864 511.046 212.893 511.003C212.922 510.961 212.959 510.924 213.002 510.895C213.046 510.866 213.095 510.845 213.147 510.835C213.198 510.824 213.252 510.823 213.304 510.833C213.356 510.842 213.406 510.861 213.45 510.888C214.68 511.639 215.979 512.28 217.331 512.803C219.296 513.564 221.357 514.072 223.46 514.315C223.564 514.33 223.658 514.381 223.724 514.459C223.791 514.537 223.824 514.636 223.818 514.736C223.808 514.831 223.762 514.919 223.688 514.983C223.615 515.047 223.519 515.082 223.42 515.081" fill="#363E44"/>
<path d="M217.073 522.624C214.901 522.37 212.773 521.843 210.744 521.054C209.356 520.503 208.024 519.83 206.764 519.044C206.721 519.02 206.683 518.988 206.653 518.95C206.622 518.913 206.6 518.869 206.587 518.823C206.574 518.777 206.571 518.728 206.577 518.681C206.584 518.633 206.6 518.588 206.625 518.546C206.682 518.464 206.77 518.407 206.87 518.385C206.97 518.364 207.075 518.38 207.162 518.431C208.42 519.194 209.753 519.836 211.142 520.346C213.107 521.113 215.168 521.628 217.272 521.877C217.324 521.882 217.375 521.897 217.421 521.921C217.468 521.944 217.509 521.977 217.542 522.016C217.575 522.055 217.6 522.1 217.615 522.149C217.631 522.197 217.635 522.248 217.63 522.299C217.616 522.39 217.567 522.473 217.494 522.533C217.421 522.593 217.328 522.625 217.232 522.624" fill="#363E44"/>
<path d="M188.376 275.067C189.61 274.723 201.49 271.66 210.267 278.322C216.794 283.261 218.883 290.727 220.416 303.746C222.227 319.061 221.072 328.499 217.112 332.29C210.824 338.263 187.361 331.467 176.774 319.655C173.07 315.328 170.655 310.116 169.786 304.574C168.917 299.032 169.627 293.366 171.839 288.181C176.197 277.69 187.6 275.259 188.396 275.048" fill="#E2A18D"/>
<path d="M191.74 372.857C186.947 373.097 182.25 371.498 178.68 368.412C175.11 365.326 172.958 361.003 172.696 356.392L169.81 303.496C169.628 298.929 171.318 294.476 174.517 291.097C177.716 287.718 182.167 285.684 186.911 285.433C191.655 285.181 196.311 286.734 199.876 289.755C203.441 292.776 205.629 297.023 205.969 301.582L208.875 354.516C209.001 356.801 208.657 359.087 207.864 361.243C207.071 363.4 205.844 365.385 204.252 367.085C202.661 368.785 200.737 370.166 198.59 371.15C196.443 372.134 194.115 372.701 191.74 372.818" fill="#E2A18D"/>
<path d="M207.818 335.295C198.585 334.702 184.455 329.265 176.495 320.382C176.45 320.349 176.412 320.307 176.384 320.259C176.357 320.21 176.341 320.157 176.337 320.102C176.333 320.048 176.341 319.993 176.361 319.941C176.381 319.89 176.412 319.843 176.453 319.805C176.493 319.766 176.541 319.736 176.595 319.717C176.648 319.697 176.705 319.689 176.762 319.693C176.819 319.697 176.874 319.713 176.924 319.739C176.975 319.765 177.018 319.802 177.052 319.846C184.595 328.25 198.624 333.898 207.838 334.491C207.89 334.493 207.94 334.506 207.986 334.528C208.033 334.549 208.074 334.58 208.108 334.618C208.141 334.655 208.166 334.699 208.182 334.746C208.197 334.794 208.202 334.844 208.196 334.893C208.187 334.99 208.141 335.08 208.068 335.147C207.995 335.213 207.899 335.253 207.798 335.257" fill="#363E44"/>
<path d="M194.348 301.582C195.992 304.348 198.248 306.733 200.955 308.57C201.87 309.163 205.094 300.912 203.96 300.912C200.736 300.494 197.456 300.756 194.348 301.678" fill="white"/>
<path d="M217.092 310.216C212.833 311.519 208.252 311.479 204.018 310.101C202.96 309.686 201.947 309.173 200.993 308.57C200.76 307.137 200.912 305.67 201.434 304.31C201.957 302.949 202.832 301.74 203.978 300.797C205.176 300.973 206.351 301.274 207.48 301.697C211.539 303.489 214.903 306.471 217.092 310.216Z" fill="#363E44"/>
<path d="M212.258 320.938C211.548 320.937 210.854 320.73 210.268 320.344C209.769 319.973 209.373 319.488 209.116 318.933C208.859 318.379 208.749 317.772 208.796 317.166C208.795 317.117 208.806 317.069 208.826 317.025C208.846 316.98 208.876 316.94 208.914 316.908C208.952 316.875 208.996 316.851 209.044 316.836C209.092 316.821 209.143 316.816 209.193 316.821C209.244 316.821 209.294 316.831 209.34 316.851C209.387 316.87 209.428 316.899 209.462 316.936C209.496 316.972 209.521 317.014 209.537 317.061C209.552 317.107 209.557 317.156 209.552 317.204C209.525 317.68 209.616 318.156 209.816 318.591C210.017 319.027 210.322 319.411 210.706 319.712C211.233 320.039 211.854 320.196 212.48 320.161C213.105 320.127 213.704 319.903 214.188 319.521C214.223 319.477 214.266 319.441 214.316 319.414C214.366 319.388 214.422 319.373 214.479 319.369C214.536 319.365 214.593 319.373 214.646 319.392C214.699 319.411 214.748 319.441 214.788 319.48C214.829 319.519 214.86 319.565 214.88 319.617C214.9 319.668 214.908 319.723 214.904 319.778C214.9 319.832 214.884 319.886 214.856 319.934C214.829 319.982 214.791 320.024 214.746 320.057C214.067 320.577 213.225 320.86 212.358 320.861" fill="#363E44"/>
<path d="M219.86 308.8C219.981 309.816 220.356 310.788 220.955 311.633C221.85 312.897 222.805 313.146 222.945 314.007C223.084 314.869 222.785 315.481 220.955 316.802L219.82 308.8" fill="#E2A18D"/>
<path d="M220.992 317.165C220.934 317.168 220.877 317.157 220.825 317.133C220.773 317.11 220.728 317.075 220.693 317.031C220.654 316.997 220.624 316.956 220.603 316.91C220.581 316.864 220.571 316.814 220.571 316.763C220.571 316.713 220.581 316.663 220.603 316.617C220.624 316.571 220.654 316.529 220.693 316.495C221.987 315.538 222.683 314.715 222.504 314.064C222.504 313.738 222.205 313.528 221.768 313.145C221.329 312.754 220.929 312.325 220.574 311.862C219.934 310.962 219.538 309.922 219.419 308.837C219.411 308.79 219.413 308.741 219.424 308.693C219.436 308.646 219.457 308.602 219.486 308.562C219.516 308.523 219.554 308.49 219.597 308.465C219.64 308.44 219.688 308.423 219.738 308.416C219.788 308.408 219.839 308.41 219.888 308.421C219.937 308.432 219.983 308.452 220.024 308.481C220.065 308.509 220.099 308.545 220.125 308.587C220.151 308.628 220.168 308.675 220.176 308.723C220.28 309.686 220.636 310.608 221.21 311.403C221.509 311.834 221.871 312.221 222.285 312.552C222.777 312.879 223.124 313.37 223.26 313.93C223.419 314.887 222.723 315.844 221.171 317.07C221.086 317.088 220.997 317.088 220.912 317.07" fill="#363E44"/>
<path d="M185.651 318.812C183.93 318.751 182.248 318.302 180.741 317.501C179.234 316.699 177.943 315.568 176.974 314.199C175.377 312.118 174.594 309.562 174.765 306.981C174.831 305.807 175.165 304.662 175.742 303.626C176.32 302.591 177.128 301.69 178.109 300.989C179.77 299.964 181.731 299.482 183.7 299.617C185.669 299.751 187.54 300.495 189.034 301.736C189.102 301.809 189.14 301.905 189.14 302.004C189.14 302.102 189.102 302.198 189.034 302.272C188.998 302.309 188.955 302.338 188.907 302.359C188.859 302.379 188.808 302.389 188.755 302.389C188.703 302.389 188.651 302.379 188.603 302.359C188.555 302.338 188.512 302.309 188.477 302.272C187.116 301.143 185.415 300.465 183.623 300.337C181.832 300.21 180.045 300.639 178.526 301.563C177.639 302.192 176.908 303.003 176.385 303.936C175.862 304.87 175.56 305.903 175.502 306.962C175.33 309.363 176.033 311.746 177.492 313.701C178.539 315.255 180.047 316.472 181.821 317.192C183.595 317.912 185.554 318.103 187.442 317.74C187.542 317.71 187.651 317.719 187.744 317.766C187.837 317.813 187.907 317.893 187.939 317.989C187.964 318.086 187.948 318.187 187.897 318.273C187.845 318.359 187.76 318.422 187.661 318.449C186.941 318.64 186.198 318.737 185.452 318.736" fill="#363E44"/>
<path d="M181.373 312.725C181.282 312.751 181.185 312.751 181.094 312.725C180.856 312.457 180.597 312.189 180.378 311.901C179.54 310.794 179.131 309.439 179.224 308.072C179.255 307.449 179.43 306.841 179.736 306.291C180.042 305.741 180.473 305.264 180.995 304.894C181.525 304.538 182.129 304.296 182.766 304.186C182.871 304.175 182.976 304.202 183.061 304.262C183.146 304.323 183.204 304.412 183.224 304.512C183.243 304.6 183.227 304.692 183.179 304.77C183.131 304.848 183.055 304.906 182.965 304.933C182.446 305.029 181.952 305.225 181.512 305.507C181.086 305.814 180.736 306.209 180.488 306.663C180.24 307.117 180.101 307.618 180.079 308.13C179.997 309.309 180.358 310.477 181.094 311.423C181.278 311.676 181.485 311.913 181.711 312.131C181.75 312.165 181.781 312.207 181.802 312.253C181.823 312.299 181.834 312.349 181.834 312.399C181.834 312.45 181.823 312.499 181.802 312.546C181.781 312.592 181.75 312.633 181.711 312.667C181.673 312.705 181.626 312.735 181.575 312.755C181.523 312.775 181.468 312.784 181.413 312.782" fill="#363E44"/>
<path d="M215.781 279.47C211.142 276.154 205.732 273.978 200.02 273.133C203.402 273.056 206.785 273.268 210.129 273.765C211.297 273.944 212.411 274.135 213.472 274.339C212.392 273.459 211.248 272.653 210.05 271.927C206.411 269.556 202.234 268.059 197.87 267.562C190.149 266.93 182.766 271.984 180.318 273.305C181.933 271.707 183.706 270.265 185.612 268.998C186.716 268.256 187.866 267.579 189.055 266.969C185.094 266.723 181.14 267.538 177.632 269.323C176.197 270.207 174.942 271.336 173.93 272.655C172.684 274.262 171.636 276.003 170.806 277.843C170.949 276.972 171.141 276.109 171.383 275.258C171.502 274.818 171.721 273.995 172.06 273.037C170.727 274.123 169.525 275.35 168.478 276.694C160.856 286.898 163.94 296.623 169.453 302.079C182.408 299.667 194.607 294.939 206.507 292.641C204.383 292.159 202.362 291.323 200.537 290.172C204.858 290.921 209.226 291.394 213.612 291.588C217.114 291.703 220 291.741 224.02 291.588C222.407 286.909 219.521 282.731 215.661 279.489" fill="#363E44"/>
</g>
<defs>
<clipPath id="clip0_1210_451">
<rect width="723" height="695" fill="white"/>
</clipPath>
</defs>
</svg>
