<svg id="Layer_1" data-name="Layer 1" xmlns="http://www.w3.org/2000/svg" viewBox="0 0 128.43 132.94"><defs><style>.cls-1{fill:#010101;}.cls-2{fill:none;}.cls-2,.cls-3{stroke:#000;stroke-miterlimit:10;}.cls-4{fill:#0b0b0b;}.cls-5{fill:#020202;}</style></defs><path class="cls-1" d="M502.79,215a48.71,48.71,0,0,0-6.73-7.33c-1.78-1.46-1.73-2.87-.33-4.73,10.66-14.14,6-33.53-9.9-41.07a2.7,2.7,0,0,1-1.83-2.9c0-12.57-.52-25.16-.15-37.72.21-7.38-7.43-16.84-15.34-16.53H391.82c-8.38,1-13.31,6.26-14,15.08,0,1,.11,2,.11,3V196.5c0,8.86-.05,17.7-.08,26.59.69,8.46,5.69,13.67,13.95,14.52,6.64,0,13.25-.1,19.92-.1l57.32.09c6.78-.46,10.83-4.56,13.5-10.87a18.82,18.82,0,0,0,6.27,6.89c7.38,4.54,15.65,1.09,17.22-7.34C506.84,222.07,505.47,218.25,502.79,215Zm-29.38,17.21c-1.48.93-3.53,1-5.2,1.24a36.83,36.83,0,0,1-7,.21,1.38,1.38,0,0,1-.86.19c-.82-.06-1.61-.24-2.43-.29h-.1a1.32,1.32,0,0,1-.76.14c-1.76-.13-3.54,0-5.3-.12-.66,0-1.36-.09-2.08-.14a38.8,38.8,0,0,1-5.91.17c-.41,0-.85,0-1.29-.08a1.59,1.59,0,0,1-.5.09c-4.61.07-9.21.37-13.82.21a1.52,1.52,0,0,1-.38-.05q-12.54-.25-25.11-.3a1.59,1.59,0,0,1-.68.14c-2.23,0-4.47.14-6.7.14a12.21,12.21,0,0,1-2-.18,1.47,1.47,0,0,1-.79.18,12.52,12.52,0,0,1-5.76-1.8,11.37,11.37,0,0,1-3.07-3.58,1.48,1.48,0,0,1-1.15-1.42c0-1-.36-2-.39-3v-.49a1.29,1.29,0,0,1-.35-1.45c.44-1.32.18-2.79.28-4.19a1.31,1.31,0,0,1-.12-1.21c.58-1.66,0-4.34-.05-6.08-.09-2.1,0-4.2-.14-6.3a2.25,2.25,0,0,1,0-.38,1.54,1.54,0,0,1-.16-.7c0-3.84-.1-7.67.11-11.5a2.2,2.2,0,0,0,0-1.38,32,32,0,0,0,.36-5.08c0-1.1.13-2.42,0-3.58a1.48,1.48,0,0,1-.29-.91c0-3.38,0-6.76-.13-10.14a1.63,1.63,0,0,1,.06-.5,1.79,1.79,0,0,1,0-.34c0-3.12.17-6.22.23-9.33a1.39,1.39,0,0,1,0-.46c.39-3.34,0-6.91-.15-10.28a2.07,2.07,0,0,1,0-.5c.15-1.07,0-2.17.16-3.25a1.46,1.46,0,0,1-.27-.92c.06-1.58.08-3.16.08-4.74,0,0,0-.06,0-.09a1.36,1.36,0,0,1,0-.95,9.5,9.5,0,0,0,.19-2.28c0-.28,0-.56,0-.84,0-.43,0-.87,0-1.3a5.19,5.19,0,0,0-.14-.95,1.48,1.48,0,0,1,.08-1c-.12-3.16-.35-6.34-.4-9.5a1.41,1.41,0,0,1,.46-1.1c0-.09,0-.21,0-.27s0-.37,0-.55,0-.06,0-.08a2.16,2.16,0,0,1,0-.44c.15-2.2,0-4.55,1.36-6.38a3.49,3.49,0,0,1,.83-.8c.1-.19.21-.38.3-.57a2.15,2.15,0,0,1,.67-.79,2.78,2.78,0,0,1,2.52-1.94c-.62.06-.25.06.06-.11s.38-.21.59-.3a10.89,10.89,0,0,1,1.68-.62,14,14,0,0,1,3.38-.62,3,3,0,0,1,.61,0c6.16-.27,12.34-.24,18.5-.36a2.73,2.73,0,0,1,.66.07h.32c4.17.37,8.75.82,12.91.12a2.79,2.79,0,0,1,1,0,3,3,0,0,1,.7-.08c1.82,0,3.72.22,5.63.34l.31-.05a15.61,15.61,0,0,1,3,.05,2.76,2.76,0,0,1,1.78-.32c.8.11,1.59.19,2.38.24a2.67,2.67,0,0,1,.7,0c.89,0,1.77,0,2.66,0l.19,0c2.66-.07,5.27-.35,7.93-.16l2.12.16a2.3,2.3,0,0,1,1.66-.45,54.53,54.53,0,0,0,6.77.34,31.8,31.8,0,0,1,6.17.05c3.79.61,6.26,2.2,7.91,5.34a2.69,2.69,0,0,1,.41.33,2.74,2.74,0,0,1,.77,1.86,6.44,6.44,0,0,1,0,.76,14.62,14.62,0,0,1,.51,1.44,14.62,14.62,0,0,1,.09,2.65c0,1.81.11,3.58.17,5.39a2.53,2.53,0,0,1-.3,1.3,2.34,2.34,0,0,1,0,.38c0,2.45.14,4.87.14,7.32a3.31,3.31,0,0,1,0,.33,63.07,63.07,0,0,1,.1,8.13c0,3.82,0,7.6.12,11.41a2.45,2.45,0,0,1-.45,1.54,1.71,1.71,0,0,1-1.55,2.4,1.63,1.63,0,0,1-1.13-.43,2,2,0,0,1-.45.06c-5,.05-9.37,1.31-14.12,2.88a1.21,1.21,0,0,1-.18.05l-.21.16c-.7.51-1.5.87-2.23,1.32a27.35,27.35,0,0,0-4.46,3.72,2.64,2.64,0,0,1-.42.29l-.11.13a1.29,1.29,0,0,1-.55.35l-.08,0a2.08,2.08,0,0,1-.67.68,1.72,1.72,0,0,1-2.35-.62,1.1,1.1,0,0,1-.16-.37,1.36,1.36,0,0,1-.34-1,9.38,9.38,0,0,1,1.23-3.29,1.6,1.6,0,0,1,1.18-.8,1.19,1.19,0,0,1,.09-.15,16.13,16.13,0,0,0,2.08-4.72,1.62,1.62,0,0,1-.05-.67c.2-1.73.69-3.29.84-5s.31-3.26.31-4.91l-.17-.41a11.68,11.68,0,0,1-.71-2.91,38.53,38.53,0,0,0-2.07-4.65,21.37,21.37,0,0,0-3.61-5.17c-.37-.42-.9-1.23-1.47-1.86a3.32,3.32,0,0,1-1.14-.84l-.09,0a1.37,1.37,0,0,1-1.2-1,1.61,1.61,0,0,1-.94-.63l-.14-.07-.48-.19c-.44-.18-.88-.36-1.3-.57a5.56,5.56,0,0,1-1.07-.65,1.55,1.55,0,0,1-1.18-.75,1.35,1.35,0,0,1-.13-1.62,1.51,1.51,0,0,1,1-1,4.06,4.06,0,0,1,.65-.66,4.87,4.87,0,0,1,2.06-.74,17.34,17.34,0,0,1,2.38-.38c.72-.05,1.44-.05,2.17-.05a1.2,1.2,0,0,1,.87.37l1.38-.12.91-.07.2,0,.42-.08a6.32,6.32,0,0,0,.85-.24h.06l.1-.06c.13-.06.25-.14.37-.21l.15-.1h0l0,0,.33-.32.16-.18h0c.1-.15.19-.3.28-.45a.53.53,0,0,1,.11-.14,1.34,1.34,0,0,1-.06-.4c-.07-2.23-5-1.68-6.44-1.77-.48,0-1-.07-1.52-.12l-5.06.14a5.08,5.08,0,0,0-1.57.71c-.73,1.14-1.86,2-2.65,3.1a5.43,5.43,0,0,1-3.07,2.52,15.46,15.46,0,0,1-5.08.16c-.58,0-1.15,0-1.72,0a1.54,1.54,0,0,1-.7.17,5.41,5.41,0,0,0-1.08.12,1.38,1.38,0,0,1-1.31.79H423a29.74,29.74,0,0,1-3.78,1.76,13.23,13.23,0,0,0-2.12,1.15,2.91,2.91,0,0,1-.78,1c-1,.75-1.91,1.59-2.9,2.44-.25.33-.48.66-.7,1,0,0,0,0,0,.06a1.78,1.78,0,0,1-.58.78,1.68,1.68,0,0,1-.18.21,17.51,17.51,0,0,0-4.54,9.6,1.52,1.52,0,0,1,.06.88,29.62,29.62,0,0,0-.23,7.7,1.45,1.45,0,0,1-.2.86,41.16,41.16,0,0,0,2.55,7.16,1.15,1.15,0,0,1,.88.75,7.25,7.25,0,0,1,.74,2.64,1.4,1.4,0,0,1-.21.85,3.9,3.9,0,0,1-.22.91,3.19,3.19,0,0,1-.81,1.14,1.5,1.5,0,0,1-1,1,14.67,14.67,0,0,1-3.19,1.1c-1.38.17-2.79.21-4.17.33-.83.07-1.67.11-2.5.14a16.12,16.12,0,0,0-2.31-.07c-1.25.64-.45,2.68,0,3.47l0,.05a1.87,1.87,0,0,1,.41,0c3.24.4,6.36.94,9.62.4,1.45-.25,3-.37,4.11-1.49.63-.66,1-1.5,1.56-2.19,1.09-1.27,2.18-2,3.81-1.31,1,.44,1.8,1.31,2.78,1.82a25.75,25.75,0,0,0,4.49,1.66,1.49,1.49,0,0,1,.65.39c2.56.37,5,1.35,7.59,1.45a16,16,0,0,0,4.4-.45l.08-.07a6,6,0,0,1,3.7-1.08l.09,0a1.66,1.66,0,0,1,.44-.23l.51-.17.05,0h0c.43-.26.83-.6,1.26-.87a15.32,15.32,0,0,0,2.25-1.48,1.73,1.73,0,0,1,2.59.56,2.5,2.5,0,0,1,.85.92,1.49,1.49,0,0,1,.64.88c.45,1.56-.17,2.31-.8,3.64-.43.9-.56,2-.93,2.9a9.9,9.9,0,0,0-.92,2.75,1.51,1.51,0,0,1-.5,1c0,.05,0,.09,0,.13-.05,1.3-.21,2.57-.38,3.85a1.61,1.61,0,0,1,0,1.39c-1.14,2.39-5.35,1.41-7.45,1.43-5.46,0-10.87.26-16.29.64a1.81,1.81,0,0,1-1,1.31l.06.64a4.29,4.29,0,0,0,.14.62,1.27,1.27,0,0,1,.41.23l.17.15c1.7.16,3.38.47,5.08.7l.14,0c2.46,0,4.91.06,7.37.09a1.46,1.46,0,0,1,.84-.24,68.66,68.66,0,0,1,11.1.58,1.22,1.22,0,0,1,1.1,1.35l0,.07a1.56,1.56,0,0,1-1,2.73h0a1.48,1.48,0,0,1-.9.27c-5.35-.09-10.65-.29-16,0a1.36,1.36,0,0,1-.69-.12c-.7-.07-1.38-.19-2.08-.29a1.32,1.32,0,0,1-1,.33,4.47,4.47,0,0,1-1.6-.32l-.09,0a3.65,3.65,0,0,0-2.09.56,1.73,1.73,0,0,1-.75,1.4l0,.18a2,2,0,0,0,.46,1.75,2.15,2.15,0,0,0,.46.3,1.09,1.09,0,0,1,.25,0c.49,0,1,.08,1.48.07a7,7,0,0,1,1.21,0,21.56,21.56,0,0,1,4.95-.12,1.42,1.42,0,0,1,.87-.25c3.81,0,7.61.24,11.41.37l.33-.11a11.61,11.61,0,0,1,6.53.46,1.57,1.57,0,0,1,1.73.67,1.83,1.83,0,0,1,.18.3,1.32,1.32,0,0,1,.94.75c.93,1.82,2.55,2.94,4.11,4.17a29.08,29.08,0,0,0,4.85,3.49c3.91,1.94,8.78,2.54,13.09,2.67a1.76,1.76,0,0,1,.4.06c.37,0,.74.06,1.1.1a1.24,1.24,0,0,1,1.15-.07,3.82,3.82,0,0,1,.76.37l.13.1a1.49,1.49,0,0,1,1.05,1,17.85,17.85,0,0,1,.68,2.6,1.51,1.51,0,0,1,.33.92c0,.08,0,.17,0,.25a5.87,5.87,0,0,1,.15,2.36,1.7,1.7,0,0,1,.05.47C479.07,226.87,476.84,230,473.41,232.16ZM417.71,151c.1.64.09,1.3.23,1.93s.36,1.1.5,1.66l.21.8a3.13,3.13,0,0,1,1.38,2.1,4.66,4.66,0,0,0,.26.71l0,0a7.73,7.73,0,0,0,2.66,2,5.24,5.24,0,0,1,1.34.82,4.44,4.44,0,0,0,.81.65,4.22,4.22,0,0,1,1.86.61,8,8,0,0,1,1.57,1.05c.82.85.69,2.48.64,3.55s-.06,2.22-1.17,2.5a2.79,2.79,0,0,1-1.28-.11c-.6-.16-1.2-.29-1.8-.43a16.42,16.42,0,0,1-7.17-3.87,39.73,39.73,0,0,1-2.67-3.13,16.64,16.64,0,0,1-2.32-3,9.91,9.91,0,0,1-1.09-3.64c-.14-1.3-.64-2.51-.73-3.82a.58.58,0,0,1-.43-.61c0-1.14.25-2.31.39-3.45a16.18,16.18,0,0,1,.66-3.31c.36-1.07.82-2.11,1.22-3.17a6.57,6.57,0,0,1,1.42-2.49.66.66,0,0,1,.31-.16.58.58,0,0,1,.62-.46,4.79,4.79,0,0,1,3.11,1.9,3.06,3.06,0,0,1,.68,1.16.6.6,0,0,1,.57.64,7.34,7.34,0,0,1-.11,1,15.61,15.61,0,0,1-1.09,3.59,13.18,13.18,0,0,0-.64,4.89A.29.29,0,0,1,417.71,151Zm4-1.52c-.23-5,4.45-9.34,9.33-9.34h.21a9.5,9.5,0,0,1,9.34,9.34c.23,5-4.45,9.34-9.34,9.34H431A9.49,9.49,0,0,1,421.69,149.52ZM437,137.82a9.44,9.44,0,0,0-2.29-.91c-1-.23-2-.32-3.07-.45a18.15,18.15,0,0,0-5,.51.79.79,0,0,1-.54.29,7.93,7.93,0,0,0-1.53.53,3.82,3.82,0,0,1-1.81.09,4.38,4.38,0,0,1-2.68-1.41,7.87,7.87,0,0,1-1-1.32c-.29-.52-.56-1-.23-1.59.48-.86,1.66-1.09,2.5-1.45a13.79,13.79,0,0,0,1.63-.7,5.47,5.47,0,0,1,1.32-.67.65.65,0,0,1,.46-.49,20.76,20.76,0,0,1,2.82-.38c.22,0,.45,0,.69,0a.56.56,0,0,1,.57-.34c1.72.11,3.43.34,5.15.43a15,15,0,0,1,4.57,1,23.83,23.83,0,0,1,3.08,1.29,3.25,3.25,0,0,1,1.16,1,.53.53,0,0,1,.4.46,1.1,1.1,0,0,1,0,.18h0s0,0,0,0a2.37,2.37,0,0,1-.67,1.68,20.68,20.68,0,0,1-1.51,1.74A3.2,3.2,0,0,1,437,137.82ZM481.12,209a20.68,20.68,0,0,1-14.35.87c-9.62-2.19-16.37-10.94-16.83-21a18.34,18.34,0,0,1,.9-6.5,20,20,0,0,1,3.1-7.07,22.54,22.54,0,0,1,18.64-10.68,20.78,20.78,0,0,1,7.59,1.41,20.54,20.54,0,0,1,5.76,3A22.89,22.89,0,0,1,495.84,187a18.55,18.55,0,0,1-.55,5.33C494.12,199.89,488.27,206.29,481.12,209Z" transform="translate(-377.84 -104.66)"/><path class="cls-2" d="M439.34,127c1.29-3.63,3.89-4.37,7.17-4,1.66.17,3.33,0,5,0,1.4,0,2.47-.53,2.56-1.94s-.93-2-2.38-2c-1.94,0-3.89-.08-5.82-.18-3.63-.19-6.8.16-8.68,4.11-1.06,2.22-3.63,2.7-6.06,2.56-11.22-.66-20.64,7.88-23.22,17-2,6.93-1.49,13.69,2.73,19.84,1.2,1.74.75,3-.45,4.66-1.85,2.62-4.19,2.87-7,2.69a31.86,31.86,0,0,0-5.26.07c-1,.09-2.09.47-1.91,1.86a2,2,0,0,0,1.92,2,65.89,65.89,0,0,0,10.79,0c2.09-.27,3-2.13,3.94-3.63,1.35-2.09,2.47-2.33,4.59-.75,7.84,5.86,19.24,6.17,26.79,1,1-.67,1.72-1.84,3-.48s2.78,2.6,1.6,4.52a24.7,24.7,0,0,0-3.27,12.42c-.05,2.16-1.42,2.53-3.17,2.53H422.84a2,2,0,0,0-2.17,2c-.11,1.5.88,1.85,2.14,1.88,4.44.06,8.89.15,13.33.2,2.41,0,4.81.07,7.23,0a3.51,3.51,0,0,1,3.52,2.14c1,1.88.64,2.66-1.63,2.62q-10.14-.12-20.27,0c-1.67,0-4.31-.9-4.36,1.93-.05,3,2.67,1.86,4.27,1.88,7.49.1,15,.09,22.48,0a3.55,3.55,0,0,1,3.24,1.48c6.22,7.93,14.27,12,24.55,11.06,1.76-.16,2.73.78,3.29,2.34,3.2,8.89-2.26,16.79-11.63,16.8h-73c-7.38,0-11.95-4.52-11.95-11.88,0-33.68.08-67.36-.08-101a11.94,11.94,0,0,1,12.4-12.11c24.52.2,49,0,73.56.06,5.89,0,11.15,3.89,11.2,10.56.08,12.78.06,25.56.13,38.3,0,1.41-.26,1.87-1.81,1.74-9.41-.79-17.38,2.43-24.1,9-.69.67-1.21,1.42-2.23.41-1.41-1.39-1.77-2.89-.37-4.38a17.24,17.24,0,0,0,4-8.38c2.81-12-2.67-22.86-14.28-28.34C440,127.33,439.67,127.16,439.34,127Z" transform="translate(-377.84 -104.66)"/><path class="cls-2" d="M450.07,187.72a22.93,22.93,0,0,1,22.8-23.07h.25a23.18,23.18,0,0,1,23,23c.1,12.5-10.55,23.13-23.17,23.09A23,23,0,0,1,450.07,187.72Z" transform="translate(-377.84 -104.66)"/><path class="cls-2" d="M431.71,140.28c4.64.05,9,4.67,8.92,9.51a9.28,9.28,0,0,1-9.3,9.27H431c-5.45-.18-9.35-4.12-9.24-9.33C421.87,143.93,425.77,140.23,431.71,140.28Z" transform="translate(-377.84 -104.66)"/><path class="cls-2" d="M410.81,149.4a20.57,20.57,0,0,1,3.4-10.94c.76-1.22,1.44-1.36,2.59-.29,3.27,3,3.34,3,1.67,7.22A12.94,12.94,0,0,0,426,162.07a10.84,10.84,0,0,0,1.14.37c1.11.33,1.9.6,1.9,1.87,0,1.72.63,3.53-.56,5.09-.39.51-1,.25-1.54.12A20.13,20.13,0,0,1,410.81,149.4Z" transform="translate(-377.84 -104.66)"/><path class="cls-2" d="M432.17,129.64c3.59-.24,6.84,1.28,10.05,3,1.51.79,1.81,1.74.4,2.95a12.65,12.65,0,0,0-1.8,1.71c-1,1.27-1.88,1.53-3.48.69a12.49,12.49,0,0,0-11.7-.26c-2.28,1.11-6.11-.77-6.72-3.17-.29-1.12.61-1.44,1.29-1.84C423.83,130.49,427.67,129.09,432.17,129.64Z" transform="translate(-377.84 -104.66)"/><path class="cls-3" d="M401.82,185.19c8.83,0,9.4.55,9.4,9.37,0,9-.63,9.61-9.54,9.61s-9.53-.65-9.53-9.62S392.63,185.19,401.82,185.19Z" transform="translate(-377.84 -104.66)"/><path class="cls-1" d="M410,213.71a5,5,0,0,0-4.87-4.78,61.8,61.8,0,0,0-6.94,0,5,5,0,0,0-4.8,5.09c-.05,1.11,0,2.22,0,3.33s0,2.22,0,3.34c.12,3.11,1.82,5.12,4.87,5.34a44.76,44.76,0,0,0,7.23-.08A4.89,4.89,0,0,0,410,221.2,66.84,66.84,0,0,0,410,213.71Zm-3.63,6.52a1.88,1.88,0,0,1-1.06,1.27,4.85,4.85,0,0,1-1.64.38,7.58,7.58,0,0,1-1.9.09c-1.7-.2-4.48,0-4.54-2.37a.61.61,0,0,1,.1-.36,12.72,12.72,0,0,1-.12-1.27c-.06-1-.26-2.35.41-3.22a.76.76,0,0,1,0-.15.47.47,0,0,1,0-.17.65.65,0,0,0,0-.13.75.75,0,0,1,.17-.3l.14-.1a.42.42,0,0,1,.14-.06.69.69,0,0,1,.68-.65h3.21a.67.67,0,0,1,.36.12,5.18,5.18,0,0,1,1,.12l.08-.06a.73.73,0,0,1,.52-.07,4,4,0,0,1,1.36.72,2,2,0,0,1,.67,1.44,7.92,7.92,0,0,1,.29,2.12c0,.21,0,.41,0,.61a.54.54,0,0,1,.16.43A10.71,10.71,0,0,1,406.41,220.23Z" transform="translate(-377.84 -104.66)"/><path class="cls-4" d="M436.46,220h13c1.52,0,3.25.1,3.28,2.07s-1.56,2.22-3.18,2.22q-12.85,0-25.73,0c-1.06,0-2.31.21-3.08-.78a2.58,2.58,0,0,1-.17-2.4C421,220,422,220,422.9,220,427.42,220,431.94,220,436.46,220Z" transform="translate(-377.84 -104.66)"/><path class="cls-5" d="M436.28,215.36c-4.45,0-8.9,0-13.3,0-1.51,0-2.61-.33-2.74-2-.13-1.81,1.18-2.11,2.57-2.11H450c1.6,0,2.86.55,2.78,2.29s-1.54,1.71-2.89,1.7c-4.53,0-9.06,0-13.59,0Z" transform="translate(-377.84 -104.66)"/><path class="cls-1" d="M487.22,183.61c-1.49-1-2.38-2.08-1.67-4.13.95-2.79-1.87-5.47-4.81-4.82a3.66,3.66,0,0,1-4.44-1.85,4.32,4.32,0,0,0-6.84-.43c-1.34,1.77-2.71,2.77-5.16,2-2.27-.68-5.29,2.36-4.44,4.45.93,2.29.29,3.55-1.67,4.79a4.19,4.19,0,0,0,.06,6.93c2,1.13,2.38,2.45,1.76,4.58-.75,2.6,2,5.4,4.53,4.51,2.35-.86,3.56-.08,4.63,1.92s5.31,2.42,6.5.56c1.44-2.28,3-3.45,5.43-2.4a4.21,4.21,0,0,0,4-4.55c0-1.82.13-3.37,2-4.45C490,189.13,490,185.48,487.22,183.61ZM473,193.09h-.13c-7.93,0-7.92-12.3,0-12.3H473C480.9,180.79,480.89,193.09,473,193.09Z" transform="translate(-377.84 -104.66)"/><path class="cls-2" d="M401.5,221.78c-4.06,0-4.34-.31-4.32-4.55,0-3.68.6-4.17,4.85-4.15,3.82,0,4.41.65,4.38,4.67C406.38,221.42,405.93,221.79,401.5,221.78Z" transform="translate(-377.84 -104.66)"/><path class="cls-2" d="M479.06,187a5.72,5.72,0,0,1-6,6.11,6.15,6.15,0,1,1-.25-12.3H473a6,6,0,0,1,6.09,5.94A2.09,2.09,0,0,1,479.06,187Z" transform="translate(-377.84 -104.66)"/><rect class="cls-2" x="43.23" y="94.09" width="0.97" height="1.26"/><rect class="cls-1" x="43.23" y="84.83" width="4.83" height="1.3" rx="0.31"/></svg>