<svg width="101" height="105" viewBox="0 0 101 105" fill="none" xmlns="http://www.w3.org/2000/svg">
<g clip-path="url(#clip0_1136_470)">
<path d="M0.03048 12.2252C0.03048 8.55676 0.0783688 4.8883 0 1.22419C0 0.213403 0.182851 -0.026222 1.21471 -8.09353e-05C4.58892 0.087056 7.9675 0.034768 11.3461 0.034768C11.4137 0.119069 11.4475 0.225506 11.4411 0.333397C11.4347 0.441288 11.3884 0.542943 11.3112 0.618597C9.37813 1.51611 7.14463 1.70344 5.41616 3.12813C3.23925 4.92315 1.67186 7.0493 1.18423 9.91175C1.05361 10.6785 1.08844 11.502 0.613877 12.1904C0.578159 12.2315 0.534625 12.265 0.485793 12.2891C0.436961 12.3131 0.383813 12.3272 0.329486 12.3304C0.27516 12.3336 0.220751 12.326 0.169407 12.308C0.118063 12.2899 0.0708302 12.2618 0.03048 12.2252Z" fill="#FDFDFD"/>
<path d="M11.3472 104.97C7.93811 104.97 4.52907 104.926 1.12003 105C0.183957 105 -0.0163181 104.817 0.00545104 103.881C0.0751122 100.325 0.0315729 96.7702 0.0315729 93.215C0.0715493 93.1789 0.118268 93.151 0.169038 93.133C0.219809 93.1149 0.273618 93.1071 0.327417 93.1099C0.381216 93.1128 0.433929 93.1262 0.482527 93.1495C0.531126 93.1727 0.574674 93.2054 0.610639 93.2455C1.65991 99.38 5.24745 103.079 11.3167 104.386C11.3574 104.422 11.3906 104.466 11.4143 104.515C11.4379 104.564 11.4515 104.617 11.4544 104.671C11.4572 104.726 11.4492 104.78 11.4308 104.831C11.4124 104.883 11.3839 104.93 11.3472 104.97Z" fill="#FDFDFD"/>
<path d="M0.401314 93.2363H0.214103L0.03125 93.2102V12.2251C0.0844754 12.1953 0.144415 12.1797 0.205387 12.1797C0.266359 12.1797 0.326325 12.1953 0.379551 12.2251C1.28079 12.9875 1.16323 14.0506 1.16323 15.044C1.18936 40.1713 1.18936 65.2958 1.16323 90.4174C1.16323 91.3934 1.27643 92.4564 0.401314 93.2363Z" fill="#CECECE"/>
<path d="M11.3447 104.97C11.3382 104.851 11.3382 104.731 11.3447 104.612C12.111 103.741 13.1733 103.837 14.166 103.837C32.4521 103.814 50.7381 103.814 69.0242 103.837C70.0168 103.837 71.0792 103.723 71.8498 104.608C71.8498 104.73 71.8498 104.852 71.8498 104.97H11.3447Z" fill="#CECECE"/>
<path d="M11.3203 0.401143C11.3268 0.279238 11.3268 0.157061 11.3203 0.0351562H71.4031C71.4227 0.150507 71.4227 0.268362 71.4031 0.383712C70.6455 1.28122 69.5788 1.16358 68.5862 1.16794C50.4394 1.18827 32.2985 1.18827 14.1634 1.16794C13.1663 1.16794 12.104 1.28123 11.3203 0.401143Z" fill="#CECECE"/>
<path d="M11.3214 0.400398H71.4042C77.604 0.156415 83.5949 7.57177 83.4251 13.362C83.1377 23.2085 83.5121 33.0767 83.5426 42.9363C83.5426 44.1083 83.8692 44.679 84.975 45.2062C97.4095 51.1228 101.084 66.3195 92.7379 77.4077C91.6407 78.8672 91.6016 79.9738 92.9948 81.1153C95.0237 82.784 96.6259 84.8404 98.2673 86.862C100.366 89.4543 101.437 92.4475 100.823 95.7456C99.5908 102.359 93.1123 105.061 87.3261 101.501C85.3059 100.259 83.843 98.5079 82.4193 96.0985C80.3251 101.048 77.1512 104.263 71.8352 104.625C56.8667 104.602 41.8983 104.578 26.9298 104.555C21.7053 104.555 16.5199 104.603 11.317 104.629C4.85161 103.963 0.928825 99.8803 0.388951 93.2448C0.41072 86.2738 0.449911 79.3464 0.449911 72.3973C0.449911 53.1313 0.449911 33.8682 0.449911 14.6081C0.449911 13.8108 0.397664 13.0178 0.367188 12.2249C0.894 5.31056 4.75583 1.14542 11.3214 0.400398Z" fill="#010101"/>
<path d="M48.5502 17.8975C49.5603 15.0568 51.5978 14.4774 54.1666 14.7431C55.4727 14.8738 56.7789 14.7431 58.085 14.7693C59.1822 14.7954 60.0225 14.3554 60.0922 13.2531C60.1618 12.1508 59.3607 11.6846 58.2287 11.7021C56.7092 11.7021 55.181 11.6454 53.6703 11.567C50.8229 11.4145 48.3368 11.689 46.8652 14.7867C46.0337 16.5295 44.0265 16.9041 42.1196 16.7909C33.3248 16.2768 25.9495 22.9732 23.9249 30.1141C22.3793 35.5514 22.7625 40.8494 26.067 45.6724C27.0031 47.0317 26.6548 47.999 25.7144 49.3278C24.2602 51.3755 22.4272 51.5716 20.2634 51.4321C18.8883 51.3399 17.508 51.3588 16.1359 51.4888C15.3827 51.5629 14.4989 51.8591 14.6382 52.9483C14.7471 53.8197 15.1999 54.4907 16.1447 54.5255C18.9616 54.6301 21.8046 54.8741 24.5998 54.5255C26.2368 54.312 26.9247 52.8525 27.6867 51.6761C28.749 50.038 29.6197 49.8463 31.2872 51.0923C37.4261 55.6801 46.3602 55.9241 52.2727 51.8461C53.0215 51.3276 53.6224 50.4083 54.6499 51.4714C55.6774 52.5344 56.8268 53.5104 55.9038 55.0178C54.0882 58.0371 53.4265 61.3135 53.3394 64.7554C53.3002 66.4458 52.2248 66.7421 50.8533 66.7421C46.2847 66.7421 41.7176 66.7421 37.1519 66.7421H35.628C34.5788 66.7421 33.991 67.278 33.9213 68.3019C33.8386 69.4782 34.6136 69.7527 35.5975 69.7701C39.0806 69.818 42.5637 69.8877 46.0467 69.927C47.9319 69.9531 49.8171 69.9836 51.7067 69.927C53.0433 69.879 53.8836 70.4716 54.467 71.6087C55.2376 73.0813 54.972 73.6913 53.187 73.6651C47.8927 73.6012 42.5999 73.6012 37.3086 73.6651C36.0024 73.6651 33.93 72.9593 33.8909 75.1726C33.8517 77.5253 35.985 76.6321 37.2346 76.6496C43.1079 76.728 48.9899 76.7193 54.8501 76.6496C55.3384 76.6012 55.8308 76.683 56.2774 76.8865C56.7239 77.09 57.1087 77.4081 57.3928 77.8085C62.2604 84.0301 68.5734 87.1888 76.628 86.4786C78.0038 86.3566 78.7657 87.0929 79.2054 88.3172C81.7132 95.2882 77.4291 101.484 70.0929 101.488H12.8793C7.09742 101.488 3.51857 97.9458 3.51857 92.173C3.51857 65.7662 3.57952 39.3593 3.45326 12.9525C3.42713 7.9029 7.28462 3.40227 13.171 3.45455C32.3801 3.61576 51.5935 3.4197 70.8026 3.50683C75.422 3.50683 79.5407 6.55663 79.5755 11.7848C79.6452 21.8056 79.6234 31.8263 79.68 41.8166C79.68 42.9189 79.4754 43.2761 78.265 43.1759C70.8896 42.5573 64.6419 45.0799 59.3781 50.1948C58.8426 50.7176 58.429 51.3058 57.6366 50.5172C56.5307 49.4236 56.2477 48.2473 57.3449 47.084C59.1126 45.2106 59.9572 42.9276 60.5058 40.5139C62.7088 31.09 58.4159 22.5855 49.3164 18.294C49.0552 18.1676 48.8114 18.0326 48.5502 17.8975Z" fill="#FEFEFE"/>
<path d="M56.9613 65.518C56.9469 63.14 57.4038 60.7828 58.3058 58.5828C59.2077 56.3827 60.5367 54.3834 62.2158 52.7007C63.8949 51.018 65.8908 49.6852 68.0881 48.7795C70.2853 47.8737 72.6402 47.413 75.0166 47.424C79.7783 47.4707 84.3315 49.3857 87.6966 52.7573C91.0618 56.1289 92.9701 60.6876 93.0109 65.4526C93.0849 75.2555 84.7386 83.5902 74.8511 83.5597C70.0926 83.5263 65.5405 81.6104 62.1887 78.2301C58.8369 74.8499 56.9577 70.2799 56.9613 65.518Z" fill="#FEFEFE"/>
<path d="M42.5732 28.3197C46.2087 28.3633 49.6003 31.9838 49.5655 35.7743C49.5639 36.7534 49.365 37.7221 48.9808 38.6226C48.5967 39.523 48.035 40.3367 47.3295 41.0151C46.624 41.6934 45.7891 42.2225 44.8746 42.5707C43.9601 42.9189 42.9849 43.079 42.0072 43.0415C37.7405 42.9021 34.6885 39.8175 34.7712 35.7307C34.867 31.1822 37.919 28.2805 42.5732 28.3197Z" fill="#FEFEFE"/>
<path d="M26.2031 35.4695C26.2031 32.3282 27.2437 29.5267 28.8677 26.8952C29.4554 25.9367 29.9953 25.8278 30.8966 26.6643C33.4566 29.0518 33.5089 29.0126 32.2027 32.3282C31.7029 33.6475 31.4836 35.0566 31.5589 36.4655C31.6341 37.8744 32.0023 39.2521 32.6399 40.5105C33.2775 41.7689 34.1704 42.8804 35.2616 43.7738C36.3529 44.6673 37.6184 45.3231 38.9772 45.6993C39.848 45.9564 40.4706 46.1655 40.4662 47.1632C40.4662 48.5095 40.9626 49.9255 40.0309 51.1498C39.7217 51.5549 39.2515 51.3502 38.8248 51.25C31.21 49.5334 26.2249 43.3074 26.2031 35.4695Z" fill="#FEFEFE"/>
<path d="M42.9382 19.9807C45.7464 19.789 48.2934 20.9828 50.8056 22.2899C51.9942 22.9085 52.2249 23.6579 51.1234 24.6034C50.6106 25.0051 50.1368 25.4544 49.7084 25.9453C48.9291 26.943 48.2412 27.1434 46.9873 26.4855C45.5915 25.7056 44.0263 25.2793 42.4281 25.2436C40.8299 25.2079 39.2473 25.564 37.8181 26.2807C36.0287 27.1521 33.0289 25.6795 32.55 23.793C32.328 22.9216 33.0289 22.6689 33.5601 22.3509C36.4032 20.6473 39.4116 19.5494 42.9382 19.9807Z" fill="#FDFDFD"/>
<path d="M19.1582 63.5312C26.0764 63.5312 26.5205 63.9669 26.5205 70.8812C26.5205 77.9132 26.0285 78.4099 19.0494 78.4099C12.0702 78.4099 11.5825 77.9045 11.5825 70.8725C11.5651 63.9103 11.957 63.5312 19.1582 63.5312Z" fill="black"/>
<path d="M12.5769 88.7494C12.5769 87.878 12.5421 87.0066 12.5769 86.1353C12.6857 83.8566 14.1138 82.2838 16.3429 82.1487C18.1526 82.0442 19.9669 82.0442 21.7765 82.1487C22.7689 82.1732 23.715 82.5735 24.4237 83.269C25.1325 83.9645 25.551 84.9033 25.5948 85.8956C25.7037 87.8518 25.7037 89.8125 25.5948 91.7686C25.5689 92.7221 25.1887 93.6316 24.5285 94.3197C23.8684 95.0077 22.9757 95.4247 22.0247 95.4894C20.1428 95.6631 18.2499 95.6835 16.3647 95.5504C13.9745 95.3805 12.6422 93.8077 12.5508 91.3678C12.5508 90.4877 12.5769 89.6164 12.5769 88.7494Z" fill="#010101"/>
<path d="M46.2946 90.81C49.6949 90.81 53.0909 90.81 56.4869 90.81C57.6798 90.81 59.0382 90.8884 59.0556 92.4307C59.073 93.9731 57.8365 94.1735 56.5696 94.1735C49.8516 94.1735 43.1293 94.1735 36.407 94.1473C35.5798 94.1473 34.5958 94.3173 33.995 93.5417C33.8216 93.2624 33.719 92.9449 33.6962 92.6169C33.6735 92.2888 33.7312 91.9602 33.8644 91.6596C34.1648 90.7882 34.9746 90.8318 35.6712 90.8274C39.2152 90.8013 42.7549 90.81 46.2946 90.81Z" fill="#0B0B0B"/>
<path d="M46.1502 87.1896C42.6671 87.1896 39.1841 87.1547 35.7315 87.1896C34.5516 87.1896 33.6852 86.9325 33.5894 85.6429C33.4849 84.2269 34.5081 83.9917 35.6009 83.9873C42.6932 83.9873 49.79 83.9873 56.8824 83.9873C58.1363 83.9873 59.1246 84.423 59.0593 85.7867C58.994 87.1504 57.8489 87.1242 56.7909 87.1199C53.2426 87.0937 49.6942 87.1199 46.1458 87.1199L46.1502 87.1896Z" fill="#020202"/>
<path d="M81.2745 74.9378C79.3631 74.1187 78.1441 75.038 77.0164 76.8199C76.0891 78.2795 72.7671 77.9571 71.9268 76.3842C71.0865 74.8114 70.1374 74.2058 68.2957 74.8768C66.3321 75.5739 64.1639 73.3824 64.7517 71.3434C65.235 69.6703 64.9128 68.6378 63.3672 67.7533C61.4471 66.6554 61.4167 63.5272 63.3237 62.316C64.8606 61.3444 65.3612 60.3597 64.6298 58.5604C63.9637 56.9265 66.3321 54.539 68.1129 55.0749C70.0329 55.6587 71.0996 54.8788 72.1532 53.4846C73.4332 51.7855 76.507 52.0033 77.5084 53.8245C78.2965 55.2535 79.5199 55.6021 80.9915 55.2753C83.2903 54.7656 85.5064 56.8655 84.7575 59.0527C84.2046 60.6647 84.9012 61.4925 86.0637 62.2942C88.2058 63.7624 88.2406 66.6249 86.0158 67.884C84.5355 68.7292 84.4266 69.9448 84.4266 71.3695C84.4353 73.3954 83.1597 74.855 81.2745 74.9378Z" fill="#010101"/>
<path d="M18.8961 92.1302C15.9617 92.1302 15.757 91.8949 15.7701 88.6447C15.7701 85.8258 16.2055 85.4511 19.2793 85.4642C22.0396 85.4642 22.4663 85.9609 22.4445 89.0412C22.4271 91.8513 22.1005 92.1389 18.8961 92.1302Z" fill="#FCFCFC"/>
<path d="M79.6737 64.9738C79.6737 67.858 77.7928 69.7663 74.9541 69.7663C72.1154 69.7663 69.9255 67.7186 69.8906 64.9738C69.892 64.3229 70.024 63.679 70.2787 63.0801C70.5334 62.4813 70.9056 61.9397 71.3734 61.4875C71.8411 61.0353 72.3948 60.6816 73.0017 60.4475C73.6085 60.2134 74.2562 60.1036 74.9062 60.1246C75.5411 60.1167 76.1711 60.2373 76.7582 60.4792C77.3453 60.7211 77.8776 61.0793 78.3229 61.5323C78.7682 61.9852 79.1174 62.5235 79.3495 63.115C79.5816 63.7064 79.6919 64.3386 79.6737 64.9738Z" fill="#FDFDFD"/>
</g>
<defs>
<clipPath id="clip0_1136_470">
<rect width="101" height="105" fill="white"/>
</clipPath>
</defs>
</svg>
