<svg width="135" height="136" viewBox="0 0 135 136" fill="none" xmlns="http://www.w3.org/2000/svg">
<path fill-rule="evenodd" clip-rule="evenodd" d="M134.642 0.918872C135.178 1.56438 135.122 3.9838 134.408 10.8997C132.204 32.2572 128.45 47.5954 123.261 56.4392C119.395 63.0298 108.199 73.0536 90.6222 85.6625C86.4738 88.6384 82.9342 91.307 82.7573 91.5935C82.5804 91.8794 83.175 95.361 84.0787 99.3304C85.2047 104.274 85.7465 108.479 85.8 112.682C85.8927 119.984 85.0235 122.003 80.469 125.068C77.29 127.208 64.0272 132.572 57.4616 134.372C49.8719 136.455 49.9511 135.34 57.9592 127.397C65.9703 119.451 66.7879 118.138 66.3536 113.931C66.1687 112.141 65.5427 108.988 64.9634 106.925L63.9093 103.173L60.4582 105.109C58.5593 106.173 55.0793 108.313 52.7235 109.863C46.7193 113.816 45.651 114.187 37.3487 115.207C27.7226 116.39 25.9712 116.897 23.8433 119.115C22.8672 120.133 21.7252 120.966 21.3062 120.966C20.8866 120.966 19.9117 119.378 19.139 117.438C17.9073 114.345 17.7316 112.813 17.7125 105.012C17.6923 96.5342 17.7721 95.9427 19.4056 92.4575C20.3491 90.4455 22.189 87.4081 23.4944 85.7079C26.9467 81.2114 32.1744 72.2909 31.6529 71.7865C31.0288 71.1827 21.4936 68.81 19.6906 68.81C17.3071 68.81 12.7969 72.2308 7.1017 78.3576C2.77026 83.0172 1.59694 83.9634 0.727707 83.4989C-0.276672 82.962 -0.266235 82.673 0.914459 78.4772C2.60318 72.475 6.34366 62.5874 8.65405 58.0186C10.9006 53.5774 14.0513 50.6216 17.1621 50.0387C20.7411 49.3681 30.6246 50.2461 37.6559 51.8605C41.2035 52.6741 44.1245 53.3006 44.1466 53.2521C44.1693 53.2031 45.8052 50.8162 47.7826 47.9476C55.3293 36.9991 62.7894 27.7497 69.5996 20.8964C75.409 15.0507 77.5425 13.34 81.6086 11.2654C91.3938 6.27437 104.323 3.43279 131.1 0.388722C133.093 0.162304 134.144 0.319999 134.642 0.918872ZM123.351 4.39491C102.327 6.74009 87.375 10.8322 79.0125 16.5307C70.338 22.4409 56.8196 39.3854 40.7913 64.4381C37.0397 70.3016 33.9701 75.2975 33.9701 75.5405C33.9701 75.7829 35.1446 77.7354 36.5808 79.8793C40.532 85.7784 48.7938 94.1044 54.6155 98.0547L59.818 101.584L62.0774 100.384C63.3196 99.7231 70.427 95.1499 77.8718 90.2203C107.896 70.339 118.639 60.6399 123.285 49.219C126.614 41.0366 130.392 22.4022 131.413 9.12638L131.825 3.76843L130.353 3.77334C129.543 3.7764 126.392 4.0562 123.351 4.39491ZM103.864 23.0643C115.687 26.814 116.491 42.8535 105.095 47.6083C99.6132 49.8958 92.4602 47.6782 89.3095 42.7154C86.926 38.9608 86.4609 35.9272 87.6465 31.8541C89.6221 25.0658 97.2088 20.9535 103.864 23.0643ZM95.0427 27.1159C91.9454 29.0285 90.4859 31.8412 90.4859 35.8996C90.4859 38.9976 90.7119 39.6032 92.6765 41.7754C95.3112 44.6888 98.199 45.7656 101.892 45.2122C108.759 44.1838 112.427 35.2252 108.185 29.8396C105.007 25.8028 99.1395 24.5872 95.0427 27.1159ZM14.6416 54.6757C13.7558 55.5071 12.2176 57.8541 11.2237 59.8913C9.13873 64.1638 5.07082 74.9459 5.54384 74.9459C5.71892 74.9459 7.67117 73.2561 9.88142 71.1907C12.0917 69.1253 14.8868 67.0244 16.092 66.5212C18.7446 65.4137 23.0576 65.7874 29.5262 67.6852C31.9816 68.4056 34.0898 68.8842 34.2127 68.7486C35.1133 67.7539 41.3417 57.2117 41.3417 56.6815C41.3417 56.314 38.785 55.4482 35.6594 54.7591C32.5338 54.0695 29.4242 53.3792 28.7485 53.2245C28.0728 53.0699 24.9846 52.9932 21.8861 53.0533C16.8236 53.1521 16.0883 53.3166 14.6416 54.6757ZM29.7437 82.284L27.8688 85.3274L31.46 90.1074C33.4356 92.7366 36.8124 96.5741 38.9643 98.6346C43.02 102.517 49.8191 107.593 50.4837 107.234C50.6926 107.121 52.1835 106.268 53.7973 105.339L56.7318 103.65L51.9544 100.136C44.716 94.8118 41.1543 91.3524 36.3849 85.0145C33.9959 81.8391 31.9459 79.2411 31.8298 79.2411C31.7131 79.2411 30.7745 80.6107 29.7437 82.284ZM22.4077 93.3539C21.1182 96.0851 20.7656 97.889 20.5592 102.811C20.413 106.296 20.6176 110.292 21.0384 112.168C21.442 113.97 21.8216 115.443 21.8818 115.443C21.942 115.443 23.377 114.916 25.0713 114.273C26.7655 113.63 31.6111 112.68 35.84 112.163C43.4586 111.229 46.8851 110.394 46.8544 109.476C46.8458 109.215 45.3948 108.034 43.6293 106.853C39.3464 103.987 31.8077 96.4189 28.4505 91.6156C25.3459 87.1731 25.3231 87.1799 22.4077 93.3539ZM72.0568 97.9578C69.5228 99.5721 67.237 101.08 66.9771 101.308C66.7167 101.536 66.8979 102.837 67.3789 104.199C67.8605 105.561 68.715 108.934 69.2783 111.694C70.2778 116.588 70.2722 116.776 69.0449 119.299C68.3525 120.722 66.052 123.805 63.932 126.15C61.785 128.525 60.6222 130.199 61.3065 129.931C61.9822 129.665 64.4702 128.747 66.8352 127.891C73.4396 125.499 80.5176 121.749 81.6313 120.051C83.4632 117.259 82.7082 105.696 80.0507 95.8372C79.3848 93.3674 79.3 93.2969 78.01 94.1412C77.2698 94.6253 74.5908 96.3428 72.0568 97.9578Z" fill="#272525"/>
</svg>
