<svg width="116" height="130" viewBox="0 0 116 130" fill="none" xmlns="http://www.w3.org/2000/svg">
<path fill-rule="evenodd" clip-rule="evenodd" d="M42.3196 0.629905C41.9194 1.02812 41.5923 2.9452 41.5923 4.88839C41.5923 8.24165 41.1278 8.64639 32.4572 12.8342C12.1273 22.6524 0.0515446 41.8156 0.000297425 64.3396C-0.024781 75.5201 1.53117 82.0743 6.5294 91.8414C15.5947 109.555 36.3345 122.85 54.9035 122.85C59.1515 122.85 61.1338 123.574 65.5498 126.739C68.5341 128.878 71.4792 130.319 72.0942 129.939C72.7091 129.56 73.2129 127.607 73.2129 125.599C73.2129 122.098 73.588 121.767 82.3665 117.527C103.433 107.352 115.815 88.0834 115.998 65.185C116.131 48.5928 110.429 35.0666 98.4309 23.5076C87.2884 12.7732 72.5848 6.56719 57.9478 6.4214C54.2427 6.38332 51.9922 5.58037 48.7582 3.13778C44.2615 -0.256826 43.5037 -0.552766 42.3196 0.629905ZM62.5818 17.0524C66.0296 19.6593 68.8514 21.9659 68.8514 22.178C68.8514 22.3902 63.4541 26.7673 56.8574 31.9038C44.8874 41.2237 44.8634 41.2368 44.8634 37.9814C44.8634 32.7938 41.2554 33.7947 34.0644 40.9767C26.5507 48.4808 24.1355 54.5051 24.1704 65.6507C24.2173 80.8677 34.1604 94.0707 48.466 97.9147L52.6464 99.0375L47.6645 102.834C44.9244 104.921 42.6827 107.321 42.6827 108.165C42.6827 109.01 44.4599 111.068 46.633 112.739C48.8051 114.41 51.8537 116.821 53.4075 118.097L56.2326 120.417L50.0034 119.442C36.8841 117.389 23.6023 110.054 15.5783 100.428C9.60314 93.259 4.62235 81.8839 3.24413 72.2571C-0.0520418 49.2239 12.5406 25.5226 33.2314 15.8197C37.5296 13.8036 41.9052 11.8615 42.9552 11.5035C44.2244 11.0705 44.8634 9.71808 44.8634 7.46154V4.07129L50.5878 8.1916C53.7357 10.4579 59.1341 14.4455 62.5818 17.0524ZM70.9307 11.3719C98.7863 17.9239 117.239 45.6552 112.478 73.8152C109.199 93.2166 94.3594 110.941 76.4153 116.889C71.3625 118.563 71.0322 118.901 71.0322 122.393C71.0322 124.439 70.7181 126.114 70.3343 126.114C68.5985 126.114 45.9319 108.295 46.7116 107.545C49.3252 105.027 69.3246 90.2093 70.1075 90.2093C70.6156 90.2093 71.0322 91.4334 71.0322 92.9294C71.0322 96.4981 72.9654 96.3795 78.3583 92.4822C88.707 85.001 93.9713 71.6957 91.615 58.9746C90.1702 51.179 88.4202 47.7638 82.6609 41.5033C78.1544 36.6051 69.2211 31.5077 65.0351 31.4457C63.2993 31.4207 63.7987 30.6243 67.4885 27.5365C70.0377 25.4051 72.1225 22.8025 72.1225 21.7548C72.1225 20.67 69.5285 18.0675 66.095 15.7076C62.7792 13.4293 59.8068 11.1445 59.4884 10.6309C58.6249 9.23718 63.0801 9.52551 70.9307 11.3719ZM67.6978 35.3462C74.759 37.4396 82.9488 44.6836 86.4815 51.9635C90.1855 59.5948 89.9827 70.3074 85.9811 78.4392C83.1483 84.1948 76.677 91.2974 74.2651 91.2974C73.6861 91.2974 73.2129 90.0733 73.2129 88.5773C73.2129 84.5865 70.7083 85.1414 63.3996 90.7533C55.8128 96.5786 52.2909 96.9616 44.0358 92.8565C33.1136 87.4251 26.9945 77.2903 27.001 64.641C27.0054 55.8618 29.511 49.8332 35.9322 43.1527C40.5401 38.359 41.5923 38.1065 41.5923 41.7927C41.5923 45.9022 44.4436 45.1906 52.4959 39.0727C56.394 36.1111 60.1078 33.6751 60.7478 33.6598C61.389 33.6446 64.5161 34.404 67.6978 35.3462ZM51.8057 53.1277C49.926 54.2712 47.5958 56.3362 46.6265 57.718C44.3738 60.9276 44.3389 69.3935 46.5654 72.565C50.5169 78.1944 59.1319 79.834 65.238 76.1196C69.5809 73.4768 71.3298 70.29 71.3298 65.0153C71.3298 60.0855 68.883 56.0435 64.1585 53.169C59.7632 50.4947 56.1519 50.4827 51.8057 53.1277ZM64.72 57.458C71.9372 63.8925 67.9137 74.9771 58.3599 74.9771C53.3508 74.9771 50.723 73.479 48.6219 69.425C46.3507 65.0436 47.4257 60.5338 51.5691 57.0543C55.9524 53.3736 60.2899 53.5074 64.72 57.458Z" fill="black"/>
</svg>
