<svg width="113" height="137" viewBox="0 0 113 137" fill="none" xmlns="http://www.w3.org/2000/svg">
<path fill-rule="evenodd" clip-rule="evenodd" d="M24.6287 2.157C23.2537 4.726 24.0477 13.345 26.2877 20.171C28.1307 25.784 34.8797 33.754 39.3857 35.637C43.8097 37.485 52.1617 37.355 56.3377 35.374C61.0667 33.13 67.2417 25.826 69.1707 20.195C72.6507 10.038 72.1367 0 68.1357 0C67.3077 0 63.6107 1.419 59.9207 3.153C54.9377 5.495 51.7977 6.306 47.7127 6.306C43.6277 6.306 40.4877 5.495 35.5047 3.153C27.5687 -0.577 26.1607 -0.706002 24.6287 2.157ZM47.7127 11.461C53.7577 11.461 56.2317 10.96 60.4627 8.877L65.7127 6.292V10.02C65.7127 18.18 60.9407 26.823 54.6687 30.023C49.7577 32.528 45.6677 32.528 40.7567 30.023C34.4847 26.823 29.7127 18.18 29.7127 10.02V6.292L34.9627 8.877C39.1937 10.96 41.6677 11.461 47.7127 11.461ZM24.9217 41.184C8.21671 54.287 -3.0143 82.75 0.717703 102.526C2.8567 113.864 10.7367 122.854 21.7377 126.508C26.8227 128.197 26.8787 128.193 29.3207 125.898L31.7817 123.586L25.9147 121.98C10.8437 117.855 5.03371 108.865 5.96071 91.11C6.93671 72.42 17.3497 52.55 30.9457 43.435C33.2927 41.861 35.4047 40.44 35.6397 40.277C36.2447 39.856 32.4187 37.067 31.2127 37.049C30.6627 37.041 27.8317 38.902 24.9217 41.184ZM61.2857 38.521C60.2257 39.323 59.5507 40.12 59.7857 40.292C60.0207 40.464 61.5237 41.428 63.1267 42.433C72.6877 48.431 81.6277 60.851 86.3877 74.75C88.8027 81.8 89.5397 82.999 91.4627 83C94.3337 83 94.3697 80.909 91.6407 72.718C87.5117 60.329 79.1057 47.861 70.3017 41.069C64.4507 36.555 64.0387 36.439 61.2857 38.521ZM44.7127 54.487C44.7127 56.359 43.8897 57.317 41.3807 58.365C33.8657 61.505 31.3217 70.005 36.1707 75.768C37.5227 77.375 41.2687 79.874 44.4957 81.322C47.7217 82.77 51.2137 84.896 52.2537 86.046C53.9837 87.956 54.0167 88.368 52.6467 90.818C51.3917 93.064 50.3577 93.551 46.2837 93.811C43.6087 93.982 40.0947 93.572 38.4737 92.901C35.1707 91.533 33.7567 92.65 33.7277 96.652C33.7117 98.939 37.8047 101 42.3617 101C44.3077 101 44.7127 101.517 44.7127 104C44.7127 106.667 45.0457 107 47.7127 107C50.3767 107 50.7127 106.665 50.7127 104.013C50.7127 101.574 51.3237 100.772 54.0447 99.635C61.0097 96.725 64.0967 89.495 61.0427 83.246C59.5617 80.214 57.6877 78.72 51.2127 75.409C44.7847 72.123 43.1537 70.829 42.9117 68.824C42.7467 67.452 43.3117 65.748 44.1677 65.038C45.9867 63.527 53.8567 63.471 56.6177 64.949C58.2487 65.822 58.6887 65.509 59.6317 62.802C60.9267 59.088 60.2077 58.332 54.4627 57.372C51.3597 56.853 50.7127 56.335 50.7127 54.372C50.7127 52.403 50.2027 52 47.7127 52C45.1837 52 44.7127 52.39 44.7127 54.487ZM52.2557 109.957C30.3857 131.844 30.3257 131.915 32.2127 134L34.1047 136.09L54.4057 115.807L74.7067 95.524L86.9747 107.762C98.6947 119.454 102.713 122.129 102.713 118.237C102.713 117.267 96.2957 110.068 88.4517 102.239L74.1917 88.004L52.2557 109.957ZM107.713 117.5V125H100.213C92.8797 125 92.7127 125.056 92.7127 127.5V130H102.713H112.713V120V110H110.213C107.769 110 107.713 110.167 107.713 117.5Z" fill="#272525"/>
</svg>
