<svg width="169" height="170" viewBox="0 0 169 170" fill="none" xmlns="http://www.w3.org/2000/svg">
<g clip-path="url(#clip0_1111_978)">
<path d="M0.327923 99.599C0.613879 96.4426 2.42494 94.385 5.19652 93.264C6.399 92.7772 6.78026 92.2831 6.78759 90.9999C7.02222 68.7644 15.2856 50.0099 31.1525 34.5962C31.4845 34.3085 31.7469 33.9483 31.9197 33.5432C32.0925 33.1381 32.1712 32.6986 32.1497 32.2583C32.113 24.9571 32.1497 17.6486 32.1497 10.3474C32.1497 4.07868 36.2117 0.0224609 42.4881 0.0224609H85.3888C99.0707 0.0224609 112.753 0.0224609 126.449 0.0224609C133.701 0.0224609 137.162 5.26604 137 10.5244C136.788 17.597 137 24.6769 136.927 31.7569C136.891 32.3351 136.986 32.914 137.206 33.4495C137.426 33.985 137.764 34.463 138.195 34.847C151.679 47.9154 159.649 63.7863 161.9 82.5113C162.272 85.4332 162.416 88.3798 162.333 91.3244C162.292 91.5137 162.289 91.7093 162.323 91.9C162.357 92.0907 162.428 92.2728 162.532 92.4358C162.637 92.5988 162.772 92.7395 162.93 92.85C163.088 92.9605 163.267 93.0385 163.455 93.0796C167.121 94.4587 169.027 97.2538 169.027 101.251C169.027 114.334 169.027 127.415 169.027 140.493C169.027 145.744 165.64 149.21 160.419 149.24C153.087 149.24 145.755 149.24 138.423 149.24C138.038 149.212 137.652 149.263 137.288 149.39C136.924 149.517 136.589 149.716 136.304 149.977C125.041 160.17 111.807 166.246 96.959 168.887C93.9779 169.457 90.9446 169.704 87.9111 169.624C87.1266 169.624 86.2467 169.314 85.5208 169.949H82.1187C80.1316 169.491 78.108 169.794 76.1063 169.654C68.6374 169.03 61.3206 167.178 54.4469 164.174C46.8017 161.11 39.7397 156.741 33.5721 151.261C32.9749 150.709 32.2743 150.283 31.5114 150.007C30.7485 149.731 29.9385 149.61 29.1288 149.653C22.5298 149.727 15.8575 149.653 9.21455 149.653C6.7157 149.77 4.26579 148.929 2.35891 147.3C1.55405 146.585 0.93355 145.683 0.550476 144.674C0.167402 143.664 0.0331557 142.577 0.159252 141.504V113.575C0.283899 108.914 0.0492994 104.253 0.327923 99.599Z" fill="black"/>
<path d="M0.320846 141.769C0.592138 146.194 3.90631 149.188 8.67224 149.21C15.9213 149.25 23.1729 149.25 30.4269 149.21C30.9215 149.191 31.4149 149.272 31.8773 149.45C32.3398 149.627 32.7618 149.897 33.1178 150.243C43.7422 159.83 56.2435 165.671 70.1601 168.518C73.602 169.302 77.1237 169.676 80.6525 169.632C81.1364 169.632 81.7816 169.285 82.1189 169.971C55.2 169.971 28.2785 169.971 1.35467 169.971C0.196179 169.971 -0.0384178 169.742 -0.0310856 168.577C0.027572 159.631 -0.0310856 150.678 -0.0310856 141.725C0.137555 141.599 0.232859 141.599 0.320846 141.769Z" fill="#FEFEFE"/>
<path d="M0.321596 113.523V138.037C0.218945 138.17 0.123623 138.163 0.0429688 138.037V113.545C0.116291 113.398 0.209169 113.39 0.321596 113.523Z" fill="#939393"/>
<path d="M0.321123 113.523H0.17447H0.0351562V99.5841C0.132066 99.5657 0.231552 99.5657 0.328462 99.5841L0.321123 113.523Z" fill="#CCCCCC"/>
<path d="M0.0346831 138.016C0.126968 138.031 0.221025 138.031 0.313311 138.016V141.747H0.166657H0.0273438L0.0346831 138.016Z" fill="#CACACA"/>
<path d="M128.805 149.675C114.749 160.325 98.8969 165.472 81.263 164.735C66.3139 164.183 51.9508 158.746 40.3493 149.248H47.5349C51.8682 149.248 56.2015 149.248 60.5422 149.248C65.726 149.211 69.0476 146.003 69.0915 140.847C69.1502 133.472 69.0329 126.098 69.1356 118.723C69.1356 116.208 66.9872 114.961 65.2568 116.031C64.2083 116.68 64.0984 117.742 64.1057 118.863C64.1057 125.544 64.1057 132.229 64.1057 138.915C64.1057 139.483 64.1057 140.051 64.1057 140.611C64.0324 143.06 62.9691 144.115 60.5569 144.115H21.5275C17.2455 144.115 12.9636 144.115 8.68154 144.115C6.28391 144.115 5.19874 143.038 5.19141 140.582C5.19141 127.44 5.19141 114.298 5.19141 101.156C5.19141 98.7218 6.43055 97.6376 8.85751 97.645C19.1568 97.645 29.461 97.645 39.7701 97.645C41.5371 97.645 42.5563 96.7231 42.6003 95.2186C42.6443 93.7141 41.6324 92.6595 39.7261 92.6522C32.8558 92.6522 25.9855 92.6522 19.1153 92.6522C17.0916 92.6522 15.0606 92.5932 13.0369 92.6522C11.959 92.6964 11.7317 92.3056 11.7391 91.2878C11.7173 74.632 17.4155 58.4798 27.8699 45.5631C28.9551 44.1988 30.1356 42.8934 31.2721 41.5659C31.4376 41.4022 31.6113 41.2471 31.7926 41.1012C32.3352 41.5069 32.0859 42.0526 32.0859 42.4951C32.0859 48.6163 32.0859 54.7302 32.0859 60.8514C32.1299 65.8221 36.4852 70.1364 41.2732 70.0258C42.8276 69.9889 43.8248 69.1482 43.9421 67.8133C44.0042 67.4746 43.9918 67.1262 43.9058 66.7928C43.8197 66.4594 43.6622 66.1489 43.4442 65.8832C43.2262 65.6175 42.953 65.4031 42.6438 65.2549C42.3346 65.1068 41.9969 65.0285 41.6544 65.0256C40.3522 64.9697 39.121 64.4126 38.2156 63.4695C37.3284 62.4591 37.0938 61.7438 38.5016 60.8145C47.0656 55.1874 55.571 49.4718 64.0837 43.7636C73.86 37.2098 83.6362 30.6362 93.4125 24.043C93.7542 23.7295 94.2001 23.5557 94.6626 23.5557C95.1252 23.5557 95.5711 23.7295 95.9128 24.043C107.522 32.1014 119.151 40.1302 130.799 48.1296C131.158 48.3363 131.451 48.6403 131.645 49.0068C131.84 49.3733 131.928 49.7875 131.899 50.202C131.848 53.4838 131.899 56.773 131.899 60.0549C131.899 63.0786 130.623 64.4799 127.661 64.9519C125.784 65.2468 124.904 66.2425 125.08 67.8502C125.234 69.3252 126.327 70.0627 128.138 70.0627C132.713 69.9816 136.87 65.7557 136.936 61.021C136.988 54.9588 136.936 48.8966 136.936 42.8418V40.7915C138.792 42.6259 140.508 44.5981 142.069 46.6915C149.798 56.6779 154.797 68.5226 156.572 81.0514C157.063 84.3111 157.115 87.5856 157.393 90.8453C157.511 92.2539 157.122 92.6891 155.67 92.6743C147.172 92.6079 138.667 92.6374 130.162 92.6374C129.544 92.6046 128.925 92.6542 128.321 92.7849C127.729 92.8877 127.201 93.2225 126.853 93.716C126.505 94.2094 126.366 94.8214 126.466 95.4178C126.501 95.9931 126.744 96.5358 127.149 96.9434C127.554 97.351 128.094 97.5953 128.666 97.6303C129.17 97.6782 129.677 97.693 130.184 97.6745H143.382C149.174 97.6745 154.969 97.6745 160.766 97.6745C162.738 97.6745 163.948 99.002 163.948 101.222C163.948 110.844 163.948 120.473 163.948 130.11C163.948 133.62 163.948 137.13 163.948 140.641C163.948 143.075 162.841 144.151 160.436 144.151H108.737C106.134 144.151 105.115 143.112 105.071 140.412C105.071 133.504 105.071 126.594 105.071 119.681C105.096 119.173 105.096 118.663 105.071 118.155C105.044 117.498 104.772 116.876 104.311 116.412C103.849 115.947 103.23 115.674 102.578 115.647C102.241 115.659 101.909 115.737 101.602 115.877C101.295 116.018 101.019 116.218 100.788 116.465C100.558 116.713 100.379 117.005 100.261 117.322C100.143 117.64 100.088 117.978 100.099 118.317C100.099 118.546 100.099 118.767 100.099 118.996C100.099 126.186 100.253 133.384 100.048 140.575C99.9088 145.649 103.817 149.425 108.847 149.299C114.925 149.181 121.011 149.299 127.089 149.299H128.746L128.805 149.675Z" fill="#FEFEFE"/>
<path d="M131.896 42.7015C127.108 39.4196 122.614 36.3443 118.134 33.2468C111.134 28.4236 104.139 23.593 97.1488 18.755C94.9491 17.2358 94.5166 17.28 92.3316 18.755C74.2797 30.8352 56.2106 42.9178 38.1245 55.0029C37.9046 55.1504 37.6626 55.2684 37.3913 55.4307C37.1565 55.0228 37.0832 54.5409 37.186 54.081C37.186 39.5229 37.186 24.9647 37.186 10.4065C37.186 6.71907 38.7624 5.17773 42.4359 5.17773H126.573C130.283 5.17773 131.874 6.71909 131.874 10.3771C131.903 21.0265 131.896 31.6759 131.896 42.7015Z" fill="#FEFEFE"/>
<path d="M50.0977 97.6739C50.1282 97.2214 50.2585 96.7815 50.4792 96.386C50.6999 95.9906 51.0053 95.6496 51.3735 95.3877C52.8912 94.1266 54.3503 92.7843 55.9194 91.597C56.2775 91.3683 56.5524 91.0293 56.703 90.6305C56.8537 90.2317 56.872 89.7946 56.7553 89.3845C56.2347 86.4899 56.2347 83.5249 56.7553 80.6304C56.8776 80.2003 56.8588 79.742 56.7016 79.3235C56.5444 78.905 56.2572 78.5486 55.8827 78.3073C54.343 77.1715 52.9132 75.8809 51.4834 74.6198C50.0536 73.3587 49.731 72.2672 50.7502 70.453C52.2166 67.8422 53.7002 65.2438 55.2009 62.6576C56.1687 60.9983 57.1806 60.6295 59.0209 61.2785C60.8613 61.9275 62.8263 62.6208 64.6887 63.3804C65.0323 63.5547 65.4225 63.613 65.8016 63.5466C66.1807 63.4801 66.5284 63.2925 66.7931 63.0116C68.9895 61.0723 71.5325 59.5707 74.2866 58.5867C74.7865 58.449 75.2291 58.153 75.5487 57.7425C75.8682 57.3321 76.0479 56.829 76.061 56.3078C76.3763 54.3608 76.7355 52.4138 77.0655 50.4668C77.1269 49.8081 77.4453 49.2008 77.951 48.7778C78.4568 48.3548 79.1087 48.1506 79.7638 48.2101C82.9753 48.2101 86.1843 48.2101 89.391 48.2101C90.04 48.1461 90.6878 48.3428 91.1932 48.7573C91.6987 49.1717 92.0207 49.7703 92.0892 50.4226C92.4704 52.5908 92.9397 54.7443 93.2623 56.9199C93.2781 57.2483 93.3965 57.5633 93.6005 57.8202C93.8046 58.077 94.0839 58.2626 94.3988 58.3507C97.3509 59.4128 100.085 61.01 102.464 63.0633C102.722 63.3108 103.05 63.4703 103.403 63.5193C103.756 63.5683 104.115 63.5042 104.429 63.3361C106.262 62.5986 108.095 61.9644 109.95 61.308C112.003 60.5705 112.949 60.9024 114.012 62.783C115.479 65.3249 116.931 67.8791 118.368 70.4456C119.387 72.2746 119.226 73.2112 117.635 74.5903C116.043 75.9694 114.57 77.2527 112.971 78.5064C112.678 78.7165 112.458 79.014 112.342 79.3568C112.227 79.6996 112.221 80.0703 112.326 80.4165C112.891 83.4211 112.891 86.5053 112.326 89.5098C112.232 89.862 112.253 90.2352 112.385 90.5748C112.517 90.9144 112.753 91.2028 113.059 91.3978C114.65 92.6589 116.19 93.9791 117.715 95.3213C119.24 96.6635 119.416 97.5928 118.449 99.3259C116.982 101.986 115.476 104.636 113.932 107.276C113.015 108.854 111.959 109.253 110.266 108.655C108.315 107.977 106.38 107.232 104.451 106.443C104.132 106.282 103.771 106.227 103.418 106.284C103.066 106.341 102.74 106.507 102.486 106.76C100.142 108.782 97.4509 110.359 94.5454 111.413C94.2017 111.497 93.8935 111.689 93.6654 111.961C93.4374 112.233 93.3013 112.57 93.277 112.925C92.9764 115.049 92.4925 117.144 92.1405 119.26C92.1167 119.601 92.0251 119.934 91.871 120.238C91.717 120.543 91.5038 120.813 91.244 121.033C90.9841 121.254 90.6829 121.419 90.3583 121.52C90.0337 121.621 89.6923 121.655 89.3543 121.62C86.2014 121.62 83.051 121.62 79.903 121.62C78.356 121.62 77.3515 120.927 77.0875 119.297C76.7796 117.409 76.3543 115.529 76.1124 113.633C76.1008 113.083 75.9134 112.552 75.5779 112.118C75.2425 111.683 74.7768 111.369 74.2499 111.222C71.6022 110.287 69.156 108.852 67.0423 106.996C66.7248 106.65 66.3026 106.419 65.8413 106.339C65.3799 106.259 64.9052 106.334 64.4907 106.553C62.7457 107.291 60.9347 107.918 59.1456 108.545C57.2026 109.223 56.2127 108.876 55.1935 107.136C53.7271 104.547 52.224 101.974 50.7429 99.3407C50.3951 98.8468 50.1735 98.2743 50.0977 97.6739Z" fill="black"/>
<path d="M22.2285 120.787C22.2285 116.089 22.2285 111.399 22.2285 106.701C22.2285 103.883 24.0762 102.866 26.4885 104.326C34.1727 108.972 41.8495 113.643 49.519 118.338C52.0779 119.902 52.0632 121.923 49.4676 123.501C41.8128 128.201 34.1385 132.872 26.4445 137.513C24.0909 138.937 22.2212 137.838 22.1992 135.028C22.1992 130.278 22.1992 125.529 22.1992 120.78L22.2285 120.787Z" fill="black"/>
<path d="M135.411 134.984H119.2C117.198 134.984 116.018 134.077 115.952 132.551C115.886 131.024 117.191 129.866 119.17 129.866C130.091 129.866 141.011 129.866 151.931 129.866C153.969 129.866 155.186 130.906 155.142 132.521C155.098 134.136 153.962 134.984 151.953 134.984H135.411Z" fill="black"/>
<path d="M135.732 118.538C141.297 118.538 146.863 118.538 152.428 118.538C153.023 118.488 153.616 118.652 154.102 119.002C154.587 119.352 154.932 119.865 155.075 120.448C155.412 121.621 154.84 122.513 153.865 123.185C153.372 123.461 152.805 123.575 152.244 123.509C141.114 123.509 129.981 123.509 118.846 123.509C117.079 123.509 115.913 122.373 115.95 120.928C115.987 119.482 117.145 118.546 118.883 118.538C124.507 118.538 130.131 118.538 135.747 118.538H135.732Z" fill="black"/>
<path d="M142.977 107.018C146.013 107.018 149.041 107.018 152.076 107.018C154.034 107.018 155.185 108.014 155.171 109.577C155.156 111.141 153.983 112.166 152.069 112.166C145.89 112.166 139.709 112.166 133.526 112.166C131.671 112.166 130.461 111.038 130.505 109.482C130.549 107.925 131.693 107.033 133.541 107.018C136.657 107.004 139.802 107.018 142.977 107.018Z" fill="black"/>
<path d="M55.0503 10.8487C57.108 10.8801 59.1096 11.5286 60.7988 12.7111C62.488 13.8935 63.7878 15.5562 64.5319 17.4861C65.2761 19.416 65.4307 21.5254 64.9759 23.5442C64.5211 25.5631 63.4776 27.3994 61.979 28.8181C60.4804 30.2369 58.595 31.1735 56.5641 31.5081C54.5332 31.8426 52.4491 31.5599 50.5789 30.6961C48.7086 29.8323 47.1373 28.4268 46.066 26.6594C44.9946 24.892 44.4721 22.8432 44.5653 20.7753C44.6906 18.0756 45.8546 15.5307 47.8111 13.6783C49.7677 11.8259 52.3636 10.8113 55.0503 10.8487Z" fill="black"/>
<path d="M113.055 71.4707C113.055 71.9575 112.681 72.1271 112.41 72.3631C111.002 73.5799 109.594 74.8042 108.149 75.9768C107.614 76.3464 107.211 76.8793 107 77.4967C106.789 78.1142 106.781 78.7835 106.976 79.4061C107.9 83.0475 107.9 86.8641 106.976 90.5055C106.77 91.1559 106.781 91.856 107.006 92.5C107.23 93.1441 107.658 93.6969 108.223 94.0749C109.631 95.2033 110.958 96.4349 112.365 97.5559C113.011 98.0648 113.165 98.4704 112.681 99.2005C111.808 100.506 111.317 102.519 110.144 103.028C109.139 103.471 107.409 102.224 105.994 101.723C105.312 101.479 104.623 101.258 103.955 100.985C103.423 100.718 102.819 100.632 102.234 100.741C101.649 100.851 101.116 101.148 100.715 101.59C97.903 104.387 94.4197 106.404 90.6035 107.446C89.2763 107.814 88.7852 108.854 88.5725 110.093C88.2499 111.93 87.8393 113.781 87.634 115.595C87.5313 116.569 87.0914 116.657 86.3362 116.62C85.5809 116.583 84.7598 116.62 83.9752 116.62C81.5336 116.62 81.5409 116.62 81.1596 114.15C80.9396 112.704 80.6952 111.259 80.4264 109.813C80.3636 109.246 80.1285 108.713 79.7533 108.285C79.378 107.857 78.8808 107.557 78.3294 107.424C74.5767 106.375 71.1537 104.377 68.3869 101.62C67.9904 101.176 67.4617 100.874 66.88 100.758C66.2984 100.643 65.6952 100.72 65.1607 100.978C63.511 101.656 61.7953 102.187 60.1602 102.895C59.1704 103.316 58.6497 103.227 58.0778 102.158C55.8782 98.2344 55.8782 98.2639 59.2876 95.3582C59.8889 94.8493 60.4828 94.3257 61.0913 93.8242C61.5731 93.4721 61.932 92.9757 62.1163 92.4061C62.3007 91.8366 62.3012 91.2229 62.1179 90.6529C61.1793 86.9584 61.1793 83.0859 62.1179 79.3914C62.3134 78.7674 62.3034 78.0965 62.0894 77.4786C61.8754 76.8607 61.4687 76.3288 60.9301 75.962C59.5223 74.8337 58.1951 73.6021 56.78 72.4885C56.619 72.4081 56.4791 72.2907 56.3716 72.1458C56.2641 72.0009 56.1921 71.8325 56.1613 71.6544C56.1306 71.4762 56.1421 71.2933 56.1948 71.1204C56.2475 70.9476 56.34 70.7896 56.4648 70.6594C57.3006 69.3983 57.7699 67.4808 58.9064 66.972C60.0428 66.4631 61.6486 67.7685 63.0637 68.2405C63.753 68.4691 64.4276 68.7272 65.0948 69.0222C65.6514 69.3021 66.2848 69.388 66.8953 69.2665C67.5057 69.145 68.0588 68.823 68.4676 68.3511C71.2014 65.6378 74.5779 63.6706 78.2781 62.6355C78.8791 62.4806 79.4159 62.1381 79.8111 61.657C80.2064 61.176 80.4397 60.5813 80.4777 59.9584C80.7637 58.122 81.211 56.3078 81.431 54.4641C81.5336 53.5275 81.9149 53.4021 82.7068 53.3799C87.4654 53.2324 87.4653 53.2103 88.2425 58.0188C88.3452 58.6825 88.4698 59.3463 88.5871 60.0174C88.6471 60.6397 88.8993 61.2275 89.3082 61.6984C89.7172 62.1692 90.2625 62.4995 90.8675 62.6429C94.5189 63.649 97.8485 65.5904 100.531 68.2774C100.953 68.774 101.527 69.1158 102.162 69.2493C102.798 69.3827 103.459 69.3003 104.043 69.0148C105.737 68.2774 107.504 67.7464 109.176 67.031C110.034 66.6696 110.459 66.854 110.862 67.6726C111.552 68.9632 112.329 70.1949 113.055 71.4707Z" fill="#FEFEFE"/>
<path d="M27.4578 110.854C32.5904 113.951 37.6129 117.026 42.6795 120.043C43.8233 120.721 43.8673 121.053 42.6795 121.761C37.8989 124.6 33.1476 127.528 28.433 130.434C27.7951 130.817 27.2232 131.26 27.2305 129.94C27.2305 123.774 27.2305 117.616 27.2305 111.451C27.2738 111.241 27.3506 111.039 27.4578 110.854Z" fill="#FEFEFE"/>
<path d="M54.9367 15.9525C56.331 15.9584 57.6659 16.5211 58.6476 17.5169C59.6294 18.5128 60.1776 19.8601 60.1718 21.2625C60.166 22.6649 59.6065 24.0076 58.6165 24.9951C57.6265 25.9826 56.287 26.5341 54.8927 26.5282C53.4756 26.5215 52.1161 25.9633 51.0992 24.9706C50.0822 23.978 49.4867 22.628 49.4375 21.2035C49.4797 19.7755 50.0815 18.4221 51.1116 17.4385C52.1417 16.4549 53.5167 15.9207 54.9367 15.9525Z" fill="#FEFEFE"/>
<path d="M68.505 85.7418C68.3595 82.5358 69.1655 79.3587 70.8207 76.6148C72.4758 73.871 74.9051 71.6845 77.7994 70.3336C80.6938 68.9827 83.9223 68.5285 87.0741 69.0287C90.2258 69.529 93.1584 70.961 95.4985 73.1427C97.8386 75.3244 99.4805 78.1571 100.215 81.2802C100.95 84.4034 100.744 87.6757 99.6244 90.6809C98.5045 93.6861 96.5209 96.2882 93.9263 98.1561C91.3316 100.024 88.2431 101.073 85.0538 101.17C80.834 101.299 76.7333 99.7525 73.6371 96.8659C70.5409 93.9793 68.6975 89.9837 68.505 85.7418Z" fill="black"/>
<path d="M95.464 84.9228C95.4779 87.0879 94.8553 89.2089 93.6742 91.0191C92.4932 92.8293 90.8064 94.2479 88.826 95.0966C86.8457 95.9453 84.6601 96.1863 82.544 95.7891C80.4279 95.392 78.4757 94.3744 76.9329 92.8645C75.3901 91.3545 74.3254 89.4195 73.8729 87.3027C73.4203 85.1859 73.6001 82.9818 74.3894 80.9674C75.1788 78.9531 76.5425 77.2183 78.3093 75.9813C80.076 74.7444 82.1669 74.0603 84.319 74.0152C85.7716 73.9612 87.22 74.2042 88.5766 74.7294C89.9332 75.2546 91.1697 76.0511 92.2115 77.0707C93.2533 78.0903 94.0787 79.3119 94.6377 80.6615C95.1968 82.0111 95.4778 83.4608 95.464 84.9228Z" fill="#FEFEFE"/>
</g>
<defs>
<clipPath id="clip0_1111_978">
<rect width="169" height="170" fill="white"/>
</clipPath>
</defs>
</svg>
