<svg width="124" height="98" viewBox="0 0 124 98" fill="none" xmlns="http://www.w3.org/2000/svg">
<g clip-path="url(#clip0_1111_937)">
<path d="M0 63.0508C1.34528 62.7519 2.66051 62.3291 3.92915 61.7878C5.00152 61.3812 5.08731 60.4383 4.10502 59.8155C3.2264 59.2754 2.31038 58.7998 1.36405 58.3924C1.23075 58.3595 1.10599 58.2982 0.998164 58.2125C0.890342 58.1269 0.801963 58.019 0.738967 57.8961C0.675972 57.7731 0.639824 57.638 0.632961 57.4998C0.626099 57.3616 0.648677 57.2235 0.699179 57.0948C1.26968 54.5515 2.54365 52.3758 4.04925 50.2996C4.36667 49.8671 4.70126 49.9579 5.08302 50.1439L7.74678 51.4415C8.01653 51.6124 8.33505 51.6877 8.652 51.6556C8.96894 51.6234 9.26623 51.4857 9.49688 51.2642C10.0073 50.7884 9.70706 50.3083 9.54835 49.8325C9.25238 48.9285 8.9607 48.0158 8.62612 47.1248C8.41164 46.5582 8.44167 46.1905 9.05507 45.8964C11.1093 44.8671 13.2925 44.1236 15.545 43.6861C16.5102 43.5174 17.1279 43.7337 17.3852 44.7934C17.5931 45.644 17.8923 46.4693 18.2774 47.2546C18.8007 48.3229 19.7616 48.3273 20.345 47.2935C20.8683 46.3592 21.353 45.399 21.812 44.4301C21.8396 44.3363 21.8867 44.2496 21.9502 44.1757C22.0138 44.1017 22.0922 44.0423 22.1803 44.0014C22.2684 43.9605 22.3641 43.9389 22.4611 43.9383C22.5581 43.9376 22.6541 43.9578 22.7428 43.9976C25.1934 44.6668 27.5019 45.7824 29.5544 47.2892C30.0735 47.6828 30.1164 48.0202 29.8204 48.5868C29.3443 49.4994 28.9839 50.477 28.5336 51.4069C28.2419 52.0125 28.4606 52.458 28.8209 52.9338C29.1813 53.4096 29.6274 53.0592 29.992 52.9554C30.834 52.7317 31.6619 52.4573 32.4713 52.1336C33.3292 51.7832 33.8697 51.9562 34.2772 52.817C35.2337 54.8413 36.0401 56.9001 36.2675 59.158C36.3575 60.0231 36.2074 60.5594 35.2166 60.7497C34.3587 60.9141 33.5823 61.3466 32.7501 61.5889C32.1753 61.7489 32.0423 62.1641 31.9351 62.6399C31.8107 63.1892 32.1925 63.4488 32.5785 63.6564C33.5522 64.1884 34.5388 64.6945 35.5254 65.2005C35.9543 65.4125 36.2117 65.5855 36.023 66.1911C35.3115 68.6003 34.1943 70.8682 32.7201 72.8954C32.3126 73.4404 31.9651 73.5442 31.356 73.1852C30.4681 72.6618 29.5073 72.2769 28.5936 71.7967C28.1647 71.5675 27.8215 71.5069 27.444 71.9135C27.0665 72.3201 26.7191 72.5969 26.9636 73.2371C27.3497 74.2363 27.6371 75.2743 28.0017 76.2865C28.0606 76.3885 28.0964 76.5024 28.1063 76.62C28.1162 76.7376 28.1001 76.856 28.059 76.9666C28.0179 77.0771 27.953 77.1771 27.8689 77.2592C27.7848 77.3413 27.6836 77.4035 27.5727 77.4414C25.4838 78.5898 23.2216 79.3833 20.8768 79.79C19.9503 79.9371 19.5085 79.6257 19.2812 78.726C19.0388 77.8866 18.7524 77.0607 18.4233 76.2519C18.3518 76.0219 18.2099 75.8206 18.0181 75.6769C17.8262 75.5332 17.5942 75.4543 17.3552 75.4517C17.1181 75.4233 16.8783 75.4755 16.674 75.6001C16.4696 75.7247 16.3123 75.9145 16.2271 76.1394C15.7595 77.0607 15.2962 77.9863 14.8501 78.9206C14.6099 79.418 14.3311 79.6257 13.7349 79.431C11.3892 78.6952 9.16987 77.5995 7.15483 76.1827C6.58433 75.7804 6.41705 75.3998 6.81597 74.7337C7.28188 73.9 7.70147 73.0408 8.07278 72.1601C8.21126 71.9169 8.27122 71.6364 8.24432 71.3573C8.21741 71.0783 8.10498 70.8146 7.92265 70.6029C7.4937 70.0969 7.04331 70.391 6.61436 70.5121C5.84019 70.6777 5.08643 70.9286 4.36668 71.2604C3.22568 71.8746 2.7281 71.4204 2.26055 70.3953C1.31816 68.4213 0.640201 66.3297 0.244496 64.1754C0.205891 63.9505 0.287389 63.6823 0.0214421 63.5439L0 63.0508Z" fill="black"/>
<path d="M107.576 98.0002H50.9295C50.8969 97.9283 50.8935 97.8465 50.92 97.7722C50.9464 97.6978 51.0006 97.6368 51.071 97.6022C51.6275 97.3843 52.228 97.3057 52.8211 97.373H105.689C106.28 97.3043 106.879 97.3815 107.435 97.5979C107.506 97.6325 107.561 97.6942 107.588 97.7696C107.614 97.845 107.61 97.9278 107.576 98.0002Z" fill="#888888"/>
<path d="M50.9202 97.8011C50.9202 97.8659 50.9202 97.9352 50.9202 98H44.2673C44.2496 97.9664 44.2388 97.9294 44.2355 97.8914C44.2322 97.8535 44.2364 97.8152 44.248 97.7789C44.2596 97.7426 44.2783 97.7091 44.303 97.6802C44.3276 97.6513 44.3578 97.6277 44.3917 97.6108C46.3991 97.1782 48.4195 97.3729 50.4398 97.494C50.5373 97.5067 50.6308 97.5408 50.7138 97.5939C50.7968 97.6469 50.8672 97.7176 50.9202 97.8011Z" fill="#B3B3B3"/>
<path d="M107.577 98C107.573 97.9338 107.573 97.8673 107.577 97.801C107.63 97.7176 107.701 97.6469 107.784 97.5938C107.867 97.5408 107.96 97.5067 108.058 97.4939C110.074 97.3728 112.094 97.1955 114.102 97.6107C114.136 97.6267 114.167 97.6498 114.193 97.6785C114.218 97.7073 114.237 97.7411 114.249 97.7777C114.261 97.8143 114.265 97.853 114.261 97.8913C114.257 97.9296 114.245 97.9666 114.226 98H107.577Z" fill="#B8B8B8"/>
<path d="M44.2598 97.8006C44.2598 97.8654 44.2598 97.9346 44.2598 97.9995H40.2148C40.2148 97.926 40.2148 97.8525 40.2148 97.7789C40.8445 97.4659 41.5378 97.3049 42.2399 97.3087C42.9419 97.3124 43.6334 97.4808 44.2598 97.8006Z" fill="#E1E1E1"/>
<path d="M114.238 97.9997C114.238 97.9305 114.238 97.8656 114.238 97.8007C114.782 97.4891 115.397 97.3252 116.023 97.3252C116.648 97.3252 117.263 97.4891 117.807 97.8007C117.807 97.8699 117.807 97.9392 117.807 98.0084L114.238 97.9997Z" fill="#DDDDDD"/>
<path d="M53.4728 0.0777848C54.5409 0.0777848 55.6175 0.121039 56.6813 0.0777848C57.7451 0.0345311 58.084 0.510324 58.054 1.49218C58.0239 2.5692 58.0539 3.65487 58.0797 4.72324C58.0797 5.1255 57.8867 5.75268 58.5344 5.757C59.2936 5.757 60.1429 6.62208 60.8207 5.64455C61.4984 4.66701 62.1375 3.6592 62.7466 2.61678C63.1327 1.96365 63.523 1.75171 64.2694 2.12801C66.3679 3.16987 68.3854 4.36997 70.3047 5.71808C70.9867 6.19819 71.1283 6.69128 70.6907 7.41794C70.1159 8.36953 69.6184 9.36869 69.0521 10.3246C68.4302 11.3713 69.4468 11.6871 69.8672 12.2753C70.2875 12.8636 70.695 12.8117 71.2698 12.4527C72.2821 11.8298 73.3545 11.3151 74.3925 10.7225C74.4886 10.6519 74.599 10.6035 74.7158 10.5809C74.8325 10.5582 74.9528 10.5619 75.068 10.5917C75.1832 10.6215 75.2905 10.6766 75.3821 10.753C75.4737 10.8295 75.5474 10.9254 75.5979 11.034C76.9887 13.1165 78.2123 15.3078 79.2568 17.5869C79.3228 17.6849 79.366 17.7967 79.3832 17.9139C79.4004 18.0312 79.3911 18.1508 79.3561 18.2639C79.321 18.377 79.2611 18.4806 79.1808 18.5671C79.1005 18.6536 79.0018 18.7207 78.8922 18.7634C77.897 19.343 76.9534 20.0091 75.9368 20.5411C74.8258 21.1251 75.2805 21.9469 75.4049 22.8033C75.5421 23.7419 76.1813 23.5256 76.7389 23.53C77.8499 23.53 78.9608 23.5732 80.0675 23.53C80.7367 23.4954 80.904 23.7419 80.9855 24.395C81.2986 26.9513 81.0798 29.4946 80.9383 32.0423C80.904 32.6651 80.5951 32.8771 80.0375 32.8814C78.8064 32.8814 77.5753 32.9203 76.3485 32.9247C75.8638 32.9247 75.3319 32.8512 75.2847 33.5389C75.2376 34.2266 74.5427 34.9836 75.5293 35.5588C76.6274 36.1947 77.6997 36.8564 78.7978 37.5096C79.2268 37.7561 79.467 37.9767 79.2268 38.5304C78.1491 40.9266 76.8234 43.2014 75.2719 45.3169C74.8772 45.8359 74.5513 45.8965 74.0065 45.5591C72.9641 44.9103 71.8618 44.3523 70.8194 43.7035C69.9916 43.1888 69.6184 43.8419 69.1036 44.2572C68.9866 44.3293 68.8861 44.4258 68.8089 44.5402C68.7317 44.6546 68.6796 44.7843 68.6561 44.9206C68.6325 45.0569 68.6381 45.1967 68.6724 45.3307C68.7066 45.4646 68.7688 45.5897 68.8548 45.6975C69.4682 46.7183 69.9915 47.7953 70.6092 48.8161C70.9567 49.3957 70.9653 49.7677 70.3604 50.1872C68.3366 51.5847 66.2149 52.8322 64.012 53.92C63.3943 54.2271 62.9825 54.1147 62.6351 53.5308C62.026 52.5056 61.3483 51.5195 60.7778 50.4727C60.2073 49.426 59.4909 50.118 58.8046 50.1656C58.1183 50.2132 58.0754 50.7149 58.084 51.2729C58.084 52.3889 58.0582 53.5091 58.084 54.6251C58.084 55.3517 57.8266 55.741 57.1017 55.8362C54.5003 56.136 51.8745 56.1549 49.2691 55.8924C48.7201 55.8492 48.7758 55.5118 48.763 55.1571C48.7201 53.8379 48.6214 52.523 48.6386 51.208C48.6386 49.9796 47.6262 50.3776 47.0472 50.0705C46.4681 49.7634 46.1206 49.9493 45.8204 50.5246C45.2456 51.6146 44.5936 52.6614 43.9931 53.7384C43.6671 54.3223 43.2896 54.4823 42.6505 54.1709C40.4435 53.0893 38.3149 51.8521 36.2806 50.4684C35.6157 50.0359 35.6286 49.6033 35.9889 48.9848C36.5122 48.0981 36.9069 47.1076 37.5374 46.3031C38.3438 45.2693 37.4902 44.8757 37.0098 44.2399C36.4436 43.5002 35.9246 43.5694 35.2211 44.0409C34.3632 44.6205 33.441 45.0746 32.5616 45.6153C32.4369 45.7157 32.2915 45.7868 32.1361 45.8235C31.9808 45.8603 31.8192 45.8617 31.6632 45.8278C31.5072 45.7938 31.3606 45.7253 31.2341 45.6273C31.1076 45.5292 31.0043 45.4039 30.9316 45.2607C29.4889 43.2086 28.2191 41.0383 27.1354 38.7726C26.8523 38.1714 27.0582 37.9421 27.5644 37.6739C28.6453 37.09 29.7091 36.4499 30.7686 35.853C31.219 35.6021 31.6265 35.3728 31.2748 34.7716C30.9231 34.1704 31.322 32.9377 30.0308 32.929C28.7397 32.9204 27.4915 32.8814 26.2218 32.929C25.6127 32.955 25.3639 32.743 25.321 32.1504C25.043 29.5727 25.0157 26.9738 25.2395 24.3907C25.3038 23.7549 25.5269 23.491 26.2003 23.5256C27.4271 23.5819 28.6582 23.5256 29.8893 23.5516C30.4255 23.5516 30.7086 23.4651 30.8501 22.8379C31.2791 20.8612 31.3134 20.9045 29.589 19.8101C26.2347 17.7123 26.3934 18.6509 28.2764 14.983C29.0185 13.534 29.9451 12.1845 30.7643 10.7788C31.1247 10.1602 31.4893 10.0997 32.0941 10.4846C33.1278 11.1464 34.2388 11.6741 35.2812 12.3402C35.813 12.6819 36.139 12.6733 36.568 12.2061C37.9235 10.809 37.9492 10.8307 36.9969 9.13945L36.9369 9.03131C35.2211 6.00355 35.1954 6.00355 38.2237 4.14796C39.4076 3.42995 40.6601 2.82008 41.8483 2.10206C42.8435 1.49651 43.5427 1.54842 44.0788 2.71194C44.5078 3.64622 45.1298 4.48967 45.6059 5.40665C45.889 5.9603 46.1978 6.20685 46.8155 5.93002C47.1399 5.7817 47.4837 5.68119 47.8364 5.63157C48.5699 5.54506 48.8359 5.19903 48.7887 4.43776C48.7243 3.36507 48.8487 2.27508 48.7501 1.21104C48.66 0.233503 49.0632 -0.0389984 49.934 -0.021697C51.1179 0.00858066 52.3104 -0.021697 53.4985 -0.021697L53.4728 0.0777848Z" fill="black"/>
<path d="M117.814 97.7928H114.245H107.588C101.214 97.7928 94.8383 97.7798 88.4612 97.7539C76.2248 97.7539 63.987 97.7539 51.7477 97.7539C51.4688 97.7539 51.1943 97.7842 50.9198 97.8015H44.2583L40.2176 97.7798C39.1495 97.6976 38.0728 97.6241 37.0176 97.5376C35.4177 97.4035 34.9501 97.0488 34.7785 95.4874C34.534 93.2641 34.637 91.0279 34.6241 88.796C34.6241 88.3073 34.8343 88.1645 35.2718 88.2034C35.4704 88.2143 35.6694 88.2143 35.868 88.2034C47.2008 88.2034 58.535 88.2034 69.8707 88.2034C70.8058 88.2034 71.3548 88.2683 71.2133 89.4405C71.0932 90.418 71.6637 90.8333 72.6717 90.8246C77.5074 90.7958 82.3416 90.7958 87.1744 90.8246C88.0323 90.8246 88.0966 90.3921 88.0323 89.7822C87.8564 88.4846 88.3798 88.1732 89.6666 88.1818C100.725 88.2424 111.783 88.2424 122.841 88.1818C123.768 88.1818 124.055 88.4024 124.012 89.3583C123.918 91.3869 124.055 93.4199 123.806 95.4485C123.618 97.0142 123.275 97.3819 121.743 97.516C120.422 97.6371 119.118 97.702 117.814 97.7928Z" fill="black"/>
<path d="M77.0391 47.968C78.8759 45.5813 80.4413 42.9945 81.706 40.2558C81.7779 40.0528 81.9169 39.8809 82.0997 39.769C82.2825 39.6571 82.4979 39.6122 82.7097 39.6416C93.1417 39.6676 103.574 39.5378 114.001 39.8363C116.035 39.8968 118.008 41.8562 118.111 43.9194C118.462 50.7751 118.278 57.6352 118.312 64.4952C118.347 70.9833 118.312 77.4973 118.342 84.0026C118.342 84.9412 118.094 85.2008 117.171 85.1662C115.112 85.097 113.049 85.1056 110.986 85.1662C110.149 85.1921 109.935 84.9412 109.935 84.1108C109.935 76.0137 109.935 67.9166 109.905 59.8195C109.905 56.3895 109.828 52.9551 109.905 49.5294C109.931 48.3702 109.528 48.1799 108.502 48.1756C98.4392 48.1323 88.3718 48.0458 78.3087 47.968H77.0391Z" fill="black"/>
<path d="M40.2797 71.1092C40.2797 66.8098 40.254 62.506 40.2797 58.2066C40.2797 56.5154 40.3569 56.4981 41.9354 57.0604C43.82 57.785 45.7734 58.3126 47.7648 58.6348C48.4168 58.7256 48.5712 58.9938 48.567 59.6253C48.5441 67.8291 48.5441 76.0343 48.567 84.241C48.567 84.985 48.3739 85.1796 47.6447 85.1623C45.5 85.1147 43.3553 85.1104 41.232 85.1623C40.4213 85.1623 40.1596 84.9806 40.1682 84.1242C40.2111 79.7988 40.1896 75.4432 40.1896 71.1005L40.2797 71.1092Z" fill="black"/>
<path d="M18.3189 70.7632C13.5704 71.226 9.11366 66.7925 9.10938 61.6107C9.14758 59.1927 10.1253 56.8864 11.8323 55.1878C13.5393 53.4892 15.8392 52.5339 18.2374 52.5274C19.4552 52.5234 20.6618 52.7616 21.7883 53.2282C22.9147 53.6949 23.9389 54.3809 24.8022 55.247C25.6656 56.1131 26.3511 57.1424 26.8196 58.2759C27.2881 59.4094 27.5304 60.6249 27.5327 61.8529C27.5841 66.6497 22.7713 71.3082 18.3189 70.7632Z" fill="#FEFEFE"/>
<path d="M52.9938 43.7774C43.3211 43.8596 36.9941 35.6414 37.2043 27.5529C37.4531 18.2144 45.5473 11.4798 54.1348 12.0724C62.1862 12.626 69.148 19.551 68.9421 27.9768C68.7276 37.0038 61.5899 44.0456 52.9938 43.7774Z" fill="#FEFEFE"/>
<path d="M116.308 91.5467C116.938 91.5467 117.646 91.4299 118.126 91.897C118.607 92.3642 118.555 92.9914 118.427 93.5926C118.392 93.8311 118.274 94.0493 118.094 94.2079C117.914 94.3665 117.683 94.4551 117.444 94.4577C116.857 94.531 116.265 94.5657 115.673 94.5615C114.33 94.4966 113.957 94.1073 113.957 92.9524C113.957 91.7197 114.738 91.525 115.703 91.5294L116.308 91.5467Z" fill="#FBFBFB"/>
</g>
<defs>
<clipPath id="clip0_1111_937">
<rect width="124" height="98" fill="white"/>
</clipPath>
</defs>
</svg>
