<svg width="85" height="85" viewBox="0 0 85 85" fill="none" xmlns="http://www.w3.org/2000/svg">
<g clip-path="url(#clip0_1077_465)">
<path d="M62.9232 0H65.0908C66.0606 0.210325 66.5609 0.859013 66.7669 1.78666C66.8181 2.2703 66.7271 2.75839 66.5049 3.19101C66.2826 3.62364 65.9389 3.98196 65.5159 4.222C61.7411 6.6098 58.1548 9.28321 54.7885 12.2188C54.06 12.852 53.3869 13.5471 52.6519 14.167C52.0098 14.7139 52.0319 15.2497 52.6231 15.8718C53.2142 16.4939 53.7899 17.0452 54.3766 17.6274C56.2431 19.5336 58.1407 21.4022 60.0293 23.2907C60.636 23.9195 61.2581 24.5305 61.8825 25.1438C63.7409 27.0227 65.6104 28.8942 67.4909 30.7583C68.0975 31.3871 68.7197 31.9982 69.3419 32.6092C71.2084 34.4911 73.086 36.3574 74.9635 38.2282C75.5724 38.8592 76.1968 39.4769 76.8256 40.0901C79.0154 42.3041 81.2051 44.4959 83.4214 46.6722C84.2252 47.4626 84.8695 48.3061 85.0001 49.4595V51.1266C84.9093 52.2336 84.3647 53.0816 83.5521 53.8033C83.007 54.2716 82.4985 54.7808 82.031 55.3265C80.4324 57.2526 77.5518 57.2394 75.8979 55.942C75.2602 55.4106 74.7155 54.7841 74.1111 54.2173C72.1914 52.2735 70.2497 50.3518 68.3167 48.4212C67.7654 47.8456 67.1986 47.2877 66.6274 46.732C64.7055 44.7911 62.7755 42.8613 60.8374 40.9425C60.278 40.3521 59.7031 39.7794 59.1126 39.2245C58.382 38.4939 57.6535 37.7633 56.8144 36.9308C56.8144 37.8164 56.8011 38.5514 56.8144 39.2843C56.8405 39.9451 56.7192 40.6035 56.4592 41.2116C56.1991 41.8197 55.8069 42.3623 55.311 42.8C55.1516 42.9483 54.8261 43.0524 55.0896 43.3734C55.7737 43.953 56.2962 44.6996 56.6063 45.5409C56.7241 45.8402 56.7987 46.1548 56.8277 46.4751C56.8609 50.1392 56.7945 53.8055 56.8675 57.4696C56.8919 58.7382 56.5731 59.8629 55.7428 60.8304C55.6607 60.9401 55.5621 61.0364 55.4505 61.116C55.0077 61.4126 54.959 61.6672 55.4018 62.0613C56.2874 62.8406 56.7059 63.8679 56.8321 65.028C56.8321 68.9644 56.8985 72.9008 56.8321 76.8328C56.6838 78.418 55.6343 79.4032 54.4541 80.2489C52.4969 81.6547 50.2473 82.4164 47.938 83.0141C43.9943 84.0689 39.9441 84.6757 35.8644 84.8229C35.012 84.8473 34.1595 84.8871 33.3049 84.8915H31.4362C30.814 84.9358 30.1852 84.7941 29.5719 84.9757H27.0721C26.4079 84.7831 25.7437 84.9425 25.0639 84.8915H23.1841C17.5226 84.8561 11.9719 84.0901 6.57826 82.3411C4.99308 81.853 3.49107 81.1275 2.12346 80.1891C1.05404 79.4342 0.21711 78.5309 0.015625 77.1759V64.5564C0.0596036 64.0518 0.20786 63.5619 0.451016 63.1175C0.694172 62.6731 1.02692 62.2841 1.42822 61.975C1.77584 61.6982 1.77584 61.4702 1.42822 61.1935C1.02529 60.8824 0.69158 60.4909 0.448367 60.0438C0.205154 59.5966 0.0577815 59.1037 0.015625 58.5965V46.1408C0.14183 44.8435 0.852549 43.9446 1.87104 43.2074C1.06953 42.4635 0.155114 41.6576 0.015625 40.3292V27.3865C0.1529 26.8507 0.254746 26.2995 0.717497 25.9209C1.38173 25.1504 2.21645 24.5925 3.0246 23.9903C4.3885 23.1047 5.92953 22.6398 7.45284 22.166C10.8117 21.1166 14.2745 20.5543 17.7706 20.1735C18.074 20.1403 18.3707 20.0849 18.6718 20.0362C19.9537 19.9056 21.2424 19.8392 22.5266 19.755C22.9653 19.6815 23.4106 19.6547 23.855 19.6753C27.2471 19.6244 30.6391 19.6111 34.0289 19.7108C34.1934 19.7301 34.3601 19.7112 34.516 19.6554C36.0659 18.9514 36.5087 16.671 35.3087 15.4489C34.7883 14.9131 34.2237 14.4216 33.7411 13.8549C32.6716 12.6018 32.0628 11.1981 32.4724 9.50889C33.3093 7.36358 35.043 6.00864 36.7744 4.65814C37.1464 4.3659 37.6268 4.29063 38.0763 4.17107C38.8556 4.02483 39.6593 4.08029 40.4111 4.33216C41.1629 4.58403 41.8378 5.02396 42.3717 5.61014C42.6994 5.94666 43.0935 6.23669 43.3592 6.61527C43.9946 7.52742 44.9091 7.6669 45.901 7.66025C46.3438 7.66025 46.6139 7.41893 46.9173 7.17318C50.9027 3.93861 55.3044 1.5409 60.326 0.336517C61.1806 0.13062 62.0685 0.205897 62.9232 0Z" fill="black"/>
<path d="M0.0164448 77.1758C0.720535 79.0953 2.24827 80.1713 3.98193 81.0281C6.95106 82.4981 10.1482 83.211 13.3764 83.7844C16.5842 84.3344 19.8231 84.6849 23.0743 84.8338C23.1363 84.8604 23.1606 84.8892 23.1429 84.9224C23.1252 84.9556 23.1075 84.9755 23.0876 84.9755C15.6658 84.9755 8.25296 84.96 0.822374 84.9999C0.0651451 84.9999 -0.0101263 84.7785 0.000944329 84.1276C0.0407985 81.8096 0.0164448 79.4938 0.0164448 77.1758Z" fill="#FEFEFE"/>
<path d="M0.015625 58.5879C0.434093 59.7657 0.996479 60.8439 2.24303 61.5811C1.02969 62.2918 0.449592 63.3766 0.015625 64.5633V58.5879Z" fill="#FCFCFC"/>
<path d="M0.015625 40.3311C0.473947 41.3495 0.963261 42.3457 1.94633 42.9878C2.18545 43.1428 2.15003 43.2424 1.92419 43.3885C0.91677 44.0527 0.423023 45.0711 0.015625 46.1493V40.3311Z" fill="#FCFCFC"/>
<path d="M23.0836 84.9757C23.0925 84.9281 23.0879 84.8791 23.0703 84.834H25.0387C25.1117 84.8451 25.1405 84.8694 25.1272 84.9048C25.114 84.9403 25.0962 84.9668 25.0763 84.9668L23.0836 84.9757Z" fill="#959595"/>
<path d="M25.0767 84.976C25.0608 84.9328 25.0482 84.8883 25.0391 84.8432C25.7188 84.8432 26.4096 84.6616 27.0694 84.976H25.0767Z" fill="#323232"/>
<path d="M33.3953 84.834C33.3751 84.8783 33.3689 84.9278 33.3776 84.9757H31.3849C31.3273 84.9292 31.314 84.8938 31.3428 84.8694C31.3641 84.8522 31.3907 84.8428 31.4181 84.8428L33.3953 84.834Z" fill="#7F7F7F"/>
<path d="M31.4223 84.8425C31.4135 84.8867 31.4024 84.931 31.3891 84.9753H29.5625C30.1647 84.6676 30.8002 84.8425 31.4223 84.8425Z" fill="#2E2E2E"/>
<path d="M18.4421 23.2314C20.4569 22.8838 22.4939 22.8129 24.5287 22.7532C26.5634 22.6934 28.6602 22.6026 30.7282 22.7532C30.9607 23.1185 30.6662 23.3266 30.4692 23.5258C27.241 26.7729 24.0039 30.0142 20.758 33.2495C20.611 33.4159 20.4173 33.5342 20.2021 33.5891C19.9869 33.644 19.7601 33.6329 19.5513 33.5572C16.3197 33.3572 13.1158 32.838 9.98634 32.0075C9.92434 31.6776 10.1701 31.5027 10.3583 31.3145C13.0485 28.609 15.7298 25.9014 18.4421 23.2314Z" fill="#FEFEFE"/>
<path d="M44.007 72.3802C46.4182 71.8157 48.8493 71.3242 51.1586 70.3877C52.0569 70.0142 52.9349 69.5937 53.789 69.1279V74.8532C52.1971 76.4029 50.7756 78.1343 48.9844 79.4781C46.354 80.4279 43.6173 80.9128 40.863 81.3135C39.0076 81.5814 37.1499 81.8404 35.2679 81.847C35.0465 81.9135 34.8029 81.971 34.8826 81.5902C34.9355 81.4315 35.0322 81.2911 35.1616 81.1851C38.1086 78.2472 41.0113 75.2583 44.007 72.3802Z" fill="#FEFEFE"/>
<path d="M39.0299 44.6754C36.4681 45.1182 33.8732 45.1647 31.2804 45.2776C29.932 45.3374 28.577 45.2776 27.2242 45.2776C26.85 45.1957 26.6862 45.0142 26.9231 44.6422C27.0154 44.5042 27.1231 44.3772 27.2441 44.2636C29.7837 41.7287 32.31 39.1716 34.8607 36.6587C36.7803 36.4528 38.7022 36.2669 40.6174 36.0344C43.2167 35.7542 45.7866 35.2483 48.2982 34.5223C48.4071 34.5037 48.5179 34.4984 48.6281 34.5068C49.0443 34.478 48.9004 34.7481 48.8273 34.923C48.6787 35.1893 48.4794 35.424 48.2406 35.6137C45.4685 38.39 42.695 41.1663 39.9199 43.9426C39.6419 44.2087 39.3444 44.4537 39.0299 44.6754Z" fill="#FEFEFE"/>
<path d="M31.2118 55.2508C33.1381 55.118 35.0622 54.9962 36.9862 54.8523C39.4461 54.6686 41.8816 54.2833 44.3172 53.9092C44.5829 54.3077 44.2508 54.5313 44.036 54.7483C41.2949 57.5113 38.5361 60.2543 35.7906 63.0129C35.3854 63.4203 34.8895 63.4889 34.3669 63.5354C30.6627 63.7679 26.9563 63.8498 23.2498 63.5509C23.1635 63.1812 23.458 63.0018 23.6595 62.7982C26.1791 60.2787 28.6877 57.7548 31.2118 55.2508Z" fill="#FEFEFE"/>
<path d="M24.3738 82.0049C22.9991 82.0231 21.6247 81.9492 20.2599 81.7835C19.7861 81.4315 20.2245 81.2013 20.4061 81.002C20.9818 80.3688 21.6017 79.7777 22.2106 79.1755C24.0549 77.349 25.8572 75.4826 27.7326 73.6871C31.8199 73.6163 35.9005 73.4192 39.97 72.9942C40.3575 72.9499 40.2778 73.2155 40.2092 73.4059C40.0761 73.6799 39.884 73.9211 39.6468 74.1122C37.1337 76.6472 34.5986 79.1489 32.0966 81.6795C31.9018 81.8765 31.718 82.0713 31.3992 82.0647C29.0589 82.0271 26.7141 82.151 24.3738 82.0049Z" fill="#FEFEFE"/>
<path d="M20.0959 36.5283C22.7839 36.6302 25.4674 36.8582 28.162 36.8272C28.2681 36.8206 28.3736 36.8489 28.4622 36.9076C28.5509 36.9663 28.6181 37.0524 28.6535 37.1527C28.8005 37.4174 29.0013 37.6483 29.2431 37.8306C29.4849 38.0129 29.7623 38.1425 30.0572 38.2109C30.5311 38.6714 30.0063 38.8884 29.7938 39.1076C28.4299 40.5083 27.0475 41.8934 25.6467 43.2631C24.9825 43.914 24.4112 44.6756 23.5809 45.1472C20.4325 45.1472 17.3216 44.731 14.2241 44.2262C13.8056 44.1598 13.3384 44.3059 12.9598 43.9716C12.8668 43.6749 13.0838 43.5067 13.2521 43.3406C15.5326 41.0669 17.7733 38.7555 20.0959 36.5283Z" fill="#FEFEFE"/>
<path d="M20.2667 63.3721C16.8436 63.1561 13.4481 62.6225 10.1238 61.778C9.9954 61.4792 10.2212 61.3109 10.3873 61.1449C12.5726 58.9663 14.7159 56.7502 16.9477 54.6182C19.6357 54.8174 22.317 55.1252 25.016 55.1739C26.0323 55.1938 27.0508 55.2447 28.067 55.2801C28.3017 55.6476 27.9962 55.8513 27.7991 56.0506C25.5009 58.3664 23.1974 60.6733 20.8889 62.9714C20.7077 63.1418 20.4968 63.2776 20.2667 63.3721Z" fill="#FEFEFE"/>
<path d="M16.5331 81.3493C13.4405 81.0603 10.3932 80.4048 7.45524 79.3966C7.32018 79.018 7.62573 78.8387 7.825 78.635C9.67305 76.7694 11.53 74.9104 13.3957 73.0581C13.6946 72.7592 14.009 72.4802 14.4851 72.6839C17.5118 73.0536 20.5429 73.3835 23.5873 73.554C23.915 73.7488 24.473 73.3592 24.6213 73.8086C24.7696 74.258 24.2825 74.5171 24.0036 74.7982C22.0109 76.8129 19.9894 78.8121 17.99 80.8268C17.5738 81.2364 17.1531 81.5463 16.5331 81.3493Z" fill="#FEFEFE"/>
<path d="M48.4852 52.9379C50.2565 52.2737 52.0765 51.7601 53.8301 50.6465V54.8906C53.8301 55.7452 53.7747 56.6064 53.8456 57.4544C53.9208 58.3554 53.4957 58.9156 52.8071 59.3628C51.0978 60.4698 49.1937 61.0919 47.2475 61.6077C44.5688 62.3542 41.8261 62.8479 39.0552 63.0822C38.8028 63.1708 38.7674 62.9937 38.7851 62.8276C38.8427 62.5838 38.9847 62.3681 39.1859 62.2188C42.2856 59.1259 45.3588 56.0087 48.4852 52.9379Z" fill="#FEFEFE"/>
<path d="M7.50226 34.3008C10.0436 34.9979 12.6248 35.5405 15.2317 35.9258C15.9115 36.0188 16.5912 36.1184 17.271 36.2158C17.3839 36.6409 17.0872 36.88 16.8414 37.1368C14.9107 39.0836 12.9748 41.0208 11.0338 42.9485C10.7858 43.1942 10.5422 43.5041 10.1127 43.3315C7.87866 42.8621 5.74203 42.1404 3.81132 40.8961C3.47477 40.6747 3.12273 40.4533 2.99874 40.0105C2.79726 39.2091 2.93674 38.5737 3.61869 37.9781C4.71247 37.0173 5.69554 35.9325 6.71846 34.9052C6.96201 34.6749 7.16793 34.4048 7.50226 34.3008Z" fill="#FEFEFE"/>
<path d="M7.30441 60.9148C6.05776 60.5806 4.87548 60.0411 3.80611 59.3185C3.48548 59.1308 3.22373 58.8571 3.05041 58.5285C2.87709 58.1999 2.7991 57.8294 2.82526 57.4588C2.88504 55.2448 2.84518 53.0486 2.84518 50.7129C6.3147 52.6346 10.0411 53.4405 13.7962 54.1489C14.1682 54.2286 14.3453 54.4058 14.1018 54.7821C14.0258 54.8977 13.9374 55.0046 13.8383 55.1009C12.005 56.9415 10.168 58.7783 8.32733 60.6114C8.04614 60.8793 7.74724 61.1362 7.30441 60.9148Z" fill="#FEFEFE"/>
<path d="M48.9816 49.7475C45.8442 50.8324 42.5894 51.3615 39.3147 51.7755C37.8401 51.9615 36.3655 52.1585 34.8732 52.132C34.6319 51.7733 34.9197 51.5585 35.1168 51.3593C36.3567 50.1128 37.5722 48.8398 38.8586 47.6421C41.4093 47.2347 43.9777 46.9336 46.4929 46.3137C47.8546 45.9816 49.2362 45.6783 50.5115 45.1093C51.4415 44.6953 52.1256 44.868 52.7987 45.51C53.0201 45.9661 52.626 46.1609 52.3979 46.3956C51.271 47.5225 50.1794 48.6915 48.9816 49.7475Z" fill="#FEFEFE"/>
<path d="M44.3322 69.3494C41.538 70.0135 38.6907 70.3014 35.8367 70.5272C34.247 70.6869 32.6492 70.7505 31.052 70.7176C30.9258 70.4187 31.156 70.2549 31.3199 70.091C32.5531 68.8534 33.7554 67.5893 35.0396 66.396C37.3268 66.0971 39.6361 65.9842 41.9144 65.5945C44.0599 65.227 46.2164 64.9126 48.2955 64.2352C48.4037 64.2166 48.5137 64.2114 48.6232 64.2197C48.9664 64.0735 49.0926 64.2197 49.035 64.5518C48.9911 64.712 48.8992 64.855 48.7715 64.9613C47.2947 66.427 45.871 67.9524 44.3322 69.3494Z" fill="#FEFEFE"/>
<path d="M45.0921 10.5605C46.394 11.8889 47.6294 13.1464 48.8848 14.3907C49.1395 14.6431 49.1483 14.7848 48.8848 15.0394C47.0383 16.8666 45.1998 18.7034 43.3695 20.5499C43.1481 20.7713 43.0086 20.8111 42.7694 20.5676C41.6092 19.3868 40.4387 18.2119 39.2579 17.043C39.0364 16.8216 39.0209 16.6821 39.2579 16.4474C41.193 14.5124 43.1104 12.5642 45.0921 10.5605Z" fill="#FEFEFE"/>
<path d="M31.3835 52.2981C29.822 52.4342 28.2529 52.463 26.6874 52.3844C24.7102 52.3291 22.7263 52.3158 20.758 52.0855C20.5033 51.9128 20.0583 52.2206 19.9432 51.8841C19.828 51.5475 20.2067 51.3129 20.4303 51.0826C21.3159 50.1682 22.2414 49.2982 23.1094 48.3683C23.3108 48.1469 23.5079 47.9786 23.8245 48.1071C27.6727 48.1624 31.5208 48.1779 35.3667 47.9609C35.5616 48.1823 35.4309 48.3927 35.2804 48.541C34.0006 49.814 32.836 51.2066 31.3835 52.2981Z" fill="#FEFEFE"/>
<path d="M59.5919 27.2158C61.5802 29.1051 63.5183 31.0437 65.4062 33.0319C65.4948 33.2887 65.3265 33.4503 65.1848 33.6031C64.1353 34.682 63.0711 35.7454 61.9921 36.7934C61.8127 36.9683 61.6157 37.2361 61.2946 36.997L55.6353 31.336C55.4139 31.0614 55.622 30.8644 55.7837 30.6984C56.8671 29.5752 57.9697 28.4719 59.0916 27.3885C59.1473 27.312 59.2251 27.2544 59.3146 27.2236C59.4041 27.1927 59.5009 27.19 59.5919 27.2158Z" fill="#FEFEFE"/>
<path d="M52.1328 19.7526C54.1211 21.6403 56.0585 23.579 57.9449 25.5686C58.0357 25.8232 57.8652 25.987 57.7235 26.1398C56.6718 27.2158 55.609 28.2829 54.5285 29.3301C54.3492 29.505 54.1521 29.7729 53.8311 29.5338L48.1718 23.8705C47.9504 23.596 48.1718 23.3989 48.3201 23.2351C49.405 22.1119 50.5084 21.0086 51.6302 19.9253C51.6855 19.8476 51.7636 19.7891 51.8538 19.7582C51.9439 19.7272 52.0415 19.7252 52.1328 19.7526Z" fill="#FEFEFE"/>
<path d="M68.7607 44.4719C66.8255 42.6343 64.9391 40.7473 63.1014 38.8109C62.88 38.5341 63.1014 38.3393 63.252 38.1732C64.3324 37.053 65.4336 35.9512 66.5554 34.8678C66.6927 34.7372 66.8477 34.6088 67.0669 34.6929C69.0537 36.5836 70.9918 38.5223 72.8812 40.509C72.9697 40.7658 72.7992 40.9296 72.6598 41.0802C71.6014 42.1576 70.5342 43.2188 69.4581 44.2638C69.2766 44.4453 69.0795 44.7066 68.7607 44.4719Z" fill="#FEFEFE"/>
<path d="M76.2222 51.9412C74.2885 50.1036 72.4028 48.2181 70.5651 46.2845C70.3437 46.01 70.5518 45.813 70.7112 45.6447C71.7932 44.5245 72.8958 43.4219 74.0191 42.3371C74.0756 42.2589 74.1548 42.2002 74.246 42.1689C74.3372 42.1376 74.4358 42.1352 74.5284 42.1622C76.5166 44.0499 78.4555 45.9893 80.3449 47.9804C80.4334 48.2749 80.2231 48.4431 80.057 48.6114C79.0429 49.6453 78.02 50.6726 76.9816 51.6821C76.7845 51.8725 76.5875 52.1869 76.2222 51.9412Z" fill="#FEFEFE"/>
<path d="M21.3104 66.3697C24.7777 66.5357 28.2451 66.5911 31.7168 66.5601C31.9537 66.9608 31.6216 67.1777 31.409 67.3969C30.4304 68.4065 29.4163 69.3895 28.4332 70.3858C27.8089 71.0123 27.0516 70.7577 26.3254 70.7245C23.1235 70.7547 19.924 70.5437 16.7538 70.0935C16.6298 69.6861 16.9575 69.498 17.1744 69.2766C17.9339 68.4906 18.7421 67.7467 19.4816 66.9409C19.9997 66.3741 20.5842 66.1815 21.3104 66.3697Z" fill="#FEFEFE"/>
<path d="M53.5069 33.3379C53.9143 33.5106 53.8213 33.8759 53.8235 34.1947C53.8235 35.7976 53.7726 37.4049 53.839 39.0056C53.8789 39.9332 53.4914 40.5133 52.7652 40.9804C50.974 42.1295 48.9724 42.7516 46.9487 43.2896C45.6036 43.6825 44.2284 43.9639 42.8371 44.1309C42.6157 43.7656 42.9079 43.5619 43.105 43.3649C46.3287 40.1177 49.5636 36.8817 52.8095 33.6567C52.9932 33.4729 53.1681 33.2117 53.5069 33.3379Z" fill="#FEFEFE"/>
<path d="M4.96826 78.3577C4.3705 78.1454 3.82533 77.8071 3.36966 77.3659C3.10396 77.1267 2.85156 76.8522 2.85156 76.4603C2.85156 74.0449 2.85156 71.6295 2.85156 69.0879C5.49522 70.6377 8.31379 71.3572 11.139 72.059C11.4202 72.4221 11.17 72.6878 10.9442 72.918C9.23265 74.6626 7.49899 76.3851 5.76312 78.1053C5.54614 78.309 5.31145 78.5237 4.96826 78.3577Z" fill="#FEFEFE"/>
<path d="M16.711 51.6405C13.5095 51.3464 10.356 50.6616 7.32087 49.6015C7.29936 49.5507 7.29212 49.495 7.29992 49.4404C7.30773 49.3857 7.33028 49.3343 7.36516 49.2915C8.22646 48.3034 9.15412 47.3751 10.1417 46.513C10.1919 46.4656 10.2551 46.434 10.3232 46.4222C10.3913 46.4104 10.4614 46.4189 10.5247 46.4466C13.144 46.8894 15.7611 47.3477 18.3848 47.775C18.9541 47.8327 19.5265 47.8549 20.0986 47.8414C20.4727 47.9167 20.6853 48.1381 20.3997 48.4613C19.4277 49.5735 18.3794 50.6166 17.2623 51.583C17.1856 51.6445 17.0929 51.6827 16.9951 51.6929C16.8973 51.7031 16.7987 51.6849 16.711 51.6405Z" fill="#FEFEFE"/>
<path d="M38.6912 33.3681C37.3627 33.6581 36.0343 33.6426 34.4844 33.7932C35.4829 32.4648 36.3575 31.2781 37.2653 30.1136C38.875 28.0458 40.5865 26.0665 42.3821 24.1537C43.0907 23.3965 43.642 23.3943 44.3748 24.1537C44.9328 24.7249 45.4819 25.3027 46.0332 25.8783C45.9636 26.0891 45.8353 26.2757 45.6635 26.4163C43.3431 28.7255 41.0404 31.07 38.6912 33.3681Z" fill="#F2F2F2"/>
<path d="M7.45629 31.2185C6.11784 30.8814 4.85358 30.2989 3.72773 29.5005C2.56974 28.6813 2.5808 27.9396 3.75871 27.1205C5.43701 25.9537 7.36108 25.3493 9.29401 24.8091C11.0877 24.2955 12.9194 23.9253 14.7717 23.7021C15.033 24.0497 14.7584 24.2778 14.5503 24.4792C12.4071 26.6533 10.249 28.8134 8.07624 30.9595C7.92568 31.1189 7.74856 31.3181 7.45629 31.2185Z" fill="#FEFEFE"/>
<path d="M38.6875 33.3687C38.6946 33.259 38.7254 33.1521 38.7778 33.0555C38.8301 32.9588 38.9028 32.8746 38.9908 32.8086C41.2492 30.5548 43.5069 28.301 45.7638 26.0472C45.8484 25.9781 45.9405 25.9187 46.0384 25.8701L50.688 30.7164C49.4282 31.3186 47.9646 31.7194 46.4812 32.0736C43.9128 32.6913 41.3289 33.2049 38.6875 33.3687Z" fill="#FEFEFE"/>
<path d="M13.551 69.5669C10.5885 69.0909 7.68358 68.4245 4.99343 67.0364C4.96341 67.0079 4.93951 66.9735 4.92318 66.9355C4.90685 66.8974 4.89844 66.8564 4.89844 66.815C4.89844 66.7736 4.90685 66.7326 4.92318 66.6946C4.93951 66.6565 4.96341 66.6222 4.99343 66.5936C5.83701 65.708 6.57431 64.7228 7.65037 64.083C10.7039 64.9104 13.8111 65.5252 16.9497 65.9228C17.4213 66.0114 17.4965 66.2903 17.2065 66.6158C16.3208 67.601 15.3776 68.522 14.4123 69.4253C14.2968 69.5279 14.1546 69.5957 14.0021 69.6207C13.8497 69.6458 13.6933 69.6272 13.551 69.5669Z" fill="#FEFEFE"/>
<path d="M53.5082 33.3376C53.2868 33.5324 53.0322 33.7118 52.8196 33.9221C49.6741 37.06 46.5308 40.2009 43.3897 43.3447C43.1683 43.566 42.8472 43.7498 42.8317 44.1306C41.5828 44.4346 40.3075 44.617 39.0234 44.6752C39.1186 44.3675 39.3843 44.1948 39.5947 43.9845C42.4952 41.0776 45.4045 38.1817 48.2895 35.2638C48.4644 35.0866 48.998 34.9693 48.6216 34.5132C49.97 33.9863 51.3782 33.6122 52.6668 32.9303C53.1451 32.6823 53.2912 33.0764 53.5082 33.3376Z" fill="#FEFEFE"/>
<path d="M19.5469 33.5453C19.7654 33.5499 19.9823 33.5056 20.1815 33.4155C20.3807 33.3255 20.5573 33.1921 20.6982 33.025C23.8718 29.8325 27.0498 26.6488 30.2322 23.474C30.4403 23.2659 30.7215 23.0932 30.7238 22.7412H32.7364C32.0566 24.0231 31.4234 25.2164 30.7924 26.4097C30.571 26.4451 30.4868 26.6134 30.3496 26.7507C28.0115 29.1373 25.6711 31.5217 23.2644 33.8353C22.0196 33.8333 20.7769 33.7363 19.5469 33.5453Z" fill="#FEFEFE"/>
<path d="M48.4812 52.9375C48.4812 53.3249 48.169 53.5043 47.9409 53.7301C45.0803 56.6082 42.2108 59.4576 39.3612 62.3379C39.1907 62.5084 38.6416 62.6346 39.0556 63.0862C37.5058 63.3829 35.9426 63.4449 34.375 63.529C35.1367 63.4383 35.6083 62.9158 36.1087 62.4221C38.6697 59.848 41.2366 57.2776 43.8094 54.7109C44.0308 54.4895 44.3474 54.3035 44.3252 53.9116L48.4812 52.9375Z" fill="#FEFEFE"/>
<path d="M24.375 82.0046C26.4452 82.0046 28.5176 81.9603 30.5878 82.0046C30.8814 82.0204 31.1748 81.9687 31.4454 81.8536C31.7159 81.7385 31.9565 81.5629 32.1488 81.3404C34.6374 78.79 37.1792 76.2926 39.6768 73.7577C39.8495 73.585 40.3964 73.4521 39.9668 73.0071L43.9965 72.3828C43.9766 72.7636 43.6622 72.9407 43.4341 73.1688C40.7418 75.872 38.0383 78.5641 35.3548 81.2762C35.2441 81.3891 34.6397 81.5596 35.2574 81.8496C32.8451 82.0986 30.4197 82.1984 27.9951 82.1485C26.784 82.133 25.5751 82.2326 24.375 82.0046Z" fill="#FEFEFE"/>
<path d="M61.1495 3.36545C59.9627 4.25103 58.8291 5.06133 57.7154 5.90484C55.3751 7.66885 53.136 9.5633 51.0088 11.5792C50.6302 11.9378 50.3734 12.022 50.0435 11.5681C49.9016 11.3978 49.7461 11.2394 49.5785 11.0943C48.3763 9.89216 48.3696 9.88552 49.687 8.86046C52.9892 6.29973 56.7741 4.43152 60.8152 3.36766C60.9263 3.3561 61.0382 3.35536 61.1495 3.36545Z" fill="#FEFEFE"/>
<path d="M31.8125 32.7024C32.9063 27.9535 35.0761 23.7735 38.3065 20.001C38.8423 20.5744 39.3206 21.1456 39.8564 21.6437C40.2749 22.0289 40.2815 22.2769 39.883 22.6998C37.6901 25.032 35.6348 27.49 33.7277 30.0611C33.0834 30.9357 32.4524 31.8212 31.8125 32.7024Z" fill="#FEFEFE"/>
<path d="M7.45312 31.2184C8.67089 30.2243 9.70046 29.0354 10.8208 27.9417C12.0054 26.7905 13.1633 25.6105 14.328 24.4393C14.5361 24.2312 14.8106 24.0518 14.7708 23.6932C15.9754 23.4183 17.2044 23.2633 18.4396 23.2305C18.4396 23.6489 18.0853 23.8371 17.8418 24.0828C15.2262 26.7263 12.6061 29.3653 9.98164 31.9999C9.11065 31.8412 8.26178 31.5788 7.45312 31.2184Z" fill="#FEFEFE"/>
<path d="M23.5859 45.1489C25.5432 42.9947 27.6887 41.0243 29.708 38.9321C29.8895 38.7417 30.2859 38.62 30.0622 38.2126C31.0807 38.31 31.8977 37.9912 32.407 37.0613C32.4659 36.9383 32.5612 36.8364 32.6801 36.7695C32.7989 36.7025 32.9355 36.6738 33.0712 36.6872C33.6735 36.6983 34.2757 36.6739 34.8757 36.665C34.8757 37.0525 34.5702 37.2318 34.3443 37.4599C32.0107 39.8007 29.6755 42.1379 27.3389 44.4714C27.0997 44.7105 26.7123 44.9452 27.2392 45.2839C26.0199 45.3477 24.7973 45.3025 23.5859 45.1489Z" fill="#FEFEFE"/>
<path d="M20.2656 63.3722C22.682 60.9399 25.0961 58.5045 27.508 56.0662C27.7294 55.8448 28.0527 55.6611 28.066 55.2759L31.2189 55.2471C31.2189 55.6323 30.9133 55.8138 30.6875 56.0419C28.4143 58.3222 26.1382 60.6004 23.8591 62.8763C23.6377 63.0977 23.4562 63.3191 23.2569 63.5405C22.2517 63.6269 21.2509 63.463 20.2656 63.3722Z" fill="#FEFEFE"/>
<path d="M44.3281 69.3498C44.3436 69.0022 44.627 68.8361 44.8329 68.6258C46.095 67.3572 47.3681 66.0997 48.6213 64.8222C48.7741 64.6673 49.2855 64.4127 48.6213 64.2201C49.5069 63.9013 50.3704 63.5714 51.2517 63.2636C51.8517 63.0555 52.2392 63.5249 52.6554 63.795C54.192 64.7935 54.1942 65.5661 52.6554 66.5403C50.5985 67.8421 48.2759 68.4553 45.9466 69.0332C45.4153 69.166 44.8684 69.2457 44.3281 69.3498Z" fill="#FEFEFE"/>
<path d="M16.5312 81.349C17.0383 81.3778 17.3948 81.1276 17.7446 80.7845C19.7572 78.7432 21.7898 76.7263 23.8157 74.7005C24.6416 73.8747 24.6416 73.8747 23.5832 73.5537L27.7325 73.6954C27.7325 74.0762 27.4092 74.2555 27.1834 74.4814C24.9936 76.6798 22.7928 78.8694 20.6074 81.0723C20.4237 81.2582 20.0295 81.3889 20.2598 81.7918C19.0111 81.6966 17.7557 81.6435 16.5312 81.349Z" fill="#FEFEFE"/>
<path d="M38.9312 7.10455C39.1108 7.09327 39.2907 7.12063 39.4587 7.18479C39.6268 7.24896 39.7791 7.34843 39.9055 7.47649C40.6073 8.17388 41.3003 8.88013 41.9956 9.58195C41.524 10.3701 40.769 10.8948 40.1556 11.5524C39.5756 12.1767 38.9379 12.7501 38.3578 13.3744C38.0567 13.6999 37.864 13.6623 37.5806 13.3545C37.0227 12.7479 36.4071 12.1922 35.8514 11.5834C35.2957 10.9745 35.258 10.2439 35.8049 9.64837C36.5134 8.88013 37.2751 8.1606 38.019 7.43442C38.1396 7.31876 38.2831 7.22964 38.4402 7.17282C38.5973 7.116 38.7646 7.09275 38.9312 7.10455Z" fill="#FEFEFE"/>
<path d="M10.1094 43.3312C10.4481 43.3135 10.6385 43.0655 10.8511 42.853C12.7995 40.9076 14.748 38.9623 16.6964 37.017C16.9297 36.784 17.1227 36.5139 17.2676 36.2178L20.0973 36.5277C20.0818 36.9085 19.7652 37.0856 19.5393 37.3159C17.3488 39.5298 15.1561 41.7482 12.9612 43.971C11.9905 43.86 11.0344 43.6455 10.1094 43.3312Z" fill="#FEFEFE"/>
<path d="M7.30469 60.9145C7.67666 60.9522 7.91136 60.733 8.15048 60.4916C9.99263 58.6408 11.8377 56.7958 13.6858 54.9568C13.9227 54.7199 14.3124 54.4852 13.7854 54.1465L16.9383 54.6269C16.9206 55.0099 16.6062 55.187 16.3804 55.4129C14.4969 57.3065 12.6082 59.1987 10.7144 61.0894C10.493 61.3108 10.3203 61.5455 10.1255 61.7757C9.15777 61.5877 8.21237 61.2991 7.30469 60.9145Z" fill="#FEFEFE"/>
<path d="M23.2578 33.8308C23.2578 33.512 23.5147 33.3548 23.7006 33.1666C25.8085 31.0545 27.9185 28.9446 30.0308 26.837C30.2522 26.6266 30.4271 26.361 30.7902 26.4141C29.8299 28.5391 29.1439 30.7777 28.7488 33.0759C28.6204 33.7998 28.4056 34.0854 27.6196 34.019C26.1738 33.8906 24.7147 33.8862 23.2578 33.8308Z" fill="#FDFDFD"/>
<path d="M4.96875 78.3582C5.31194 78.3582 5.50014 78.0926 5.71269 77.88C7.37328 76.2196 9.03461 74.5591 10.6967 72.8987C10.9314 72.6618 11.1949 72.4559 11.1395 72.0596L14.4895 72.6928C14.3528 72.6908 14.2172 72.7163 14.0906 72.7676C13.9639 72.8189 13.8489 72.8951 13.7522 72.9916C11.7166 75.0418 9.67744 77.0874 7.63454 79.1287C7.56609 79.2141 7.50742 79.3069 7.45963 79.4054C6.58402 79.1758 5.74538 78.8232 4.96875 78.3582Z" fill="#FEFEFE"/>
<path d="M76.2266 51.9412C76.3226 51.9346 76.4163 51.9082 76.5017 51.8636C76.587 51.819 76.6622 51.7573 76.7225 51.6822C77.93 50.4468 79.1389 49.2129 80.3493 47.9805C80.8054 48.4233 81.2836 48.8328 81.7131 49.2956C82.3442 49.9752 82.3486 50.6859 81.7131 51.3545C81.0489 52.0586 80.3692 52.7471 79.6651 53.4069C79.5366 53.5436 79.3816 53.6527 79.2096 53.7276C79.0376 53.8026 78.8521 53.8418 78.6645 53.8428C78.4768 53.8438 78.291 53.8067 78.1181 53.7337C77.9453 53.6606 77.7891 53.5532 77.6591 53.4179C77.1609 52.953 76.7048 52.4349 76.2266 51.9412Z" fill="#FEFEFE"/>
<path d="M7.5046 34.3011C6.39754 35.6914 5.06907 36.8781 3.78046 38.1069C3.19593 38.667 2.87045 39.2138 3.00108 40.0086C2.95237 39.9157 2.85938 39.8227 2.85938 39.7275C2.85938 37.2921 2.85938 34.8391 2.85938 32.251C4.37826 33.1742 5.95472 33.7078 7.5046 34.3011Z" fill="#FEFEFE"/>
<path d="M52.1297 19.7532C50.8573 21.0019 49.5857 22.252 48.3148 23.5036C48.2415 23.6156 48.1897 23.7403 48.162 23.8712C47.5686 23.3 46.9907 22.7155 46.3907 22.162C46.1095 21.9074 46.1693 21.7502 46.4062 21.5089C47.5642 20.3731 48.7111 19.2219 49.8514 18.0684C50.0728 17.847 50.2233 17.723 50.4957 18.0308C51.0116 18.6263 51.585 19.182 52.1297 19.7532Z" fill="#F1F1F1"/>
<path d="M31.3906 52.298C32.4357 51.0183 33.7044 49.9534 34.8314 48.7557C35.0528 48.5343 35.3694 48.3483 35.3738 47.9653C36.5281 47.7894 37.6918 47.683 38.8588 47.6465C38.8588 47.9963 38.5754 48.1645 38.3695 48.3727C37.3665 49.3844 36.3525 50.3896 35.3473 51.4013C35.1391 51.6094 34.8668 51.7843 34.8734 52.1364C33.7221 52.3622 32.5464 52.2891 31.3906 52.298Z" fill="#FEFEFE"/>
<path d="M26.3281 70.7243C27.5326 70.928 28.3363 70.3103 29.0803 69.4624C29.7445 68.6986 30.515 68.0144 31.2302 67.2905C31.4361 67.0691 31.7173 66.9097 31.7195 66.5599C32.8211 66.4245 33.9311 66.3698 35.0407 66.396C35.0407 66.7768 34.7108 66.9473 34.4916 67.182C33.3646 68.3775 32.107 69.4491 31.0531 70.7243C29.4788 70.8306 27.8957 70.9103 26.3281 70.7243Z" fill="#FEFEFE"/>
<path d="M53.8203 29.5345C54.1037 29.5345 54.2631 29.3286 54.4292 29.1559L57.9408 25.5693C58.5424 26.0679 59.0961 26.6216 59.5947 27.2232C58.3216 28.4718 57.0463 29.7183 55.782 30.9869C55.6935 31.0732 55.678 31.2304 55.6293 31.3544C54.9792 30.7965 54.3743 30.1879 53.8203 29.5345Z" fill="#FEFEFE"/>
<path d="M74.53 42.1627C73.2591 43.4113 71.9838 44.6578 70.7195 45.9264C70.631 46.0127 70.6155 46.1699 70.5667 46.2961C69.9165 45.7408 69.3116 45.1344 68.7578 44.4829C68.8537 44.4768 68.9472 44.4506 69.0323 44.4059C69.1174 44.3613 69.1921 44.2993 69.2516 44.2239C70.4634 42.9811 71.6723 41.7398 72.8783 40.5C73.4785 41.0026 74.0314 41.5591 74.53 42.1627Z" fill="#FEFEFE"/>
<path d="M67.0635 34.6929C65.7911 35.9415 64.5209 37.1917 63.253 38.4433C63.1644 38.5297 63.1489 38.6846 63.098 38.8108C62.4479 38.2578 61.8429 37.6537 61.2891 37.0042C61.5725 37.0042 61.7319 36.7983 61.8979 36.6234C63.0685 35.4309 64.239 34.2361 65.4095 33.0391C66.0101 33.5388 66.5637 34.0924 67.0635 34.6929Z" fill="#FEFEFE"/>
<path d="M16.7109 51.64C17.0386 51.6157 17.2445 51.4009 17.4593 51.1839C18.325 50.3139 19.1907 49.4438 20.0653 48.5826C20.3222 48.3302 20.5436 48.1043 20.0985 47.832L23.8249 48.1066C23.2913 48.2239 23.0987 48.7375 22.7488 49.063C21.8123 49.9486 20.9178 50.8563 20.0033 51.7618C20.2247 52.0739 20.5923 51.8216 20.7583 52.085C19.4005 52.031 18.0481 51.8823 16.7109 51.64Z" fill="#FEFEFE"/>
<path d="M13.5547 69.567C13.8291 69.5681 14.0945 69.4689 14.3008 69.288C15.202 68.3693 16.1054 67.4549 17.0309 66.5627C17.3298 66.2726 17.1925 66.1066 16.9489 65.9229L21.313 66.3656C20.5557 66.2704 20.0288 66.6247 19.5417 67.1737C18.656 68.1811 17.5777 69.0179 16.7519 70.0895C15.6746 69.9952 14.6059 69.8205 13.5547 69.567Z" fill="#FEFEFE"/>
<path d="M4.99908 48.6297C4.72201 48.5151 4.45406 48.3797 4.19755 48.2245C3.60417 47.8083 2.82038 47.4939 2.89566 46.584C2.93773 46.0859 4.52968 44.7641 5.07878 44.8128C5.66552 44.8748 6.23012 45.1516 6.80136 45.342C7.0892 45.4372 7.3704 45.5634 7.6538 45.6586C7.93721 45.7538 7.88849 46.015 7.73129 46.1877C6.97845 47.0461 6.16448 47.8489 5.29576 48.5898C5.25534 48.6242 5.20588 48.6462 5.15327 48.6533C5.10067 48.6604 5.04715 48.6522 4.99908 48.6297Z" fill="#FDFDFD"/>
<path d="M7.64995 64.0829C6.92815 64.8268 6.20413 65.5662 5.48676 66.3145C5.28306 66.5249 5.00187 66.6887 4.99745 67.0363C4.86714 66.9989 4.74043 66.95 4.61883 66.8902C3.90145 66.4474 2.89402 66.0998 2.89845 65.1544C2.89845 64.2688 3.88153 63.9124 4.55462 63.4453C4.7197 63.3223 4.91677 63.2495 5.12218 63.2358C5.32759 63.222 5.5326 63.2679 5.7126 63.3678C6.3392 63.6489 7.00343 63.8482 7.64995 64.0829Z" fill="#F1F1F1"/>
<path d="M5 48.6298C5.86793 47.7855 6.73734 46.9442 7.60822 46.1059C7.67271 46.0531 7.71375 45.9769 7.72246 45.894C7.73116 45.8111 7.70683 45.7282 7.65473 45.6631L10.5331 46.4424C9.39443 47.4197 8.32398 48.4738 7.32924 49.5973C6.50993 49.3897 5.72526 49.0638 5 48.6298Z" fill="#FEFEFE"/>
<path d="M48.9766 49.7477C49.5124 48.7647 50.4755 48.1714 51.1774 47.3412C51.7021 46.719 52.4572 46.3028 52.7937 45.5146C54.1487 46.4733 54.1554 47.122 52.7937 48.0385C51.6164 48.8004 50.329 49.3768 48.9766 49.7477Z" fill="#F0F0F0"/>
<path d="M48.9844 79.476L53.3506 75.0481C53.4074 74.9869 53.4758 74.9376 53.5518 74.903C53.6279 74.8684 53.71 74.8493 53.7935 74.8467C53.9573 76.9743 53.7359 77.3839 51.8694 78.327C50.9563 78.8222 49.9879 79.2078 48.9844 79.476Z" fill="#F0F0F0"/>
</g>
<defs>
<clipPath id="clip0_1077_465">
<rect width="85" height="85" fill="white"/>
</clipPath>
</defs>
</svg>
