<svg width="91" height="92" viewBox="0 0 91 92" fill="none" xmlns="http://www.w3.org/2000/svg">
<g clip-path="url(#clip0_1076_451)">
<path d="M0.0700244 88.4747C0.0700244 59.6263 0.0578257 30.7766 0.0334005 1.92552C0.0334005 0.423396 0.310213 -0.00404206 1.91006 2.87354e-05C22.6714 0.0651615 43.4003 0.0448015 64.1454 0.0448015C63.9459 1.42887 62.7084 1.18056 61.8616 1.39631C53.6426 3.4602 48.5784 8.50799 47.2065 16.9549C46.3028 22.5319 47.8212 27.5634 51.7333 31.5609C55.5314 35.4404 58.5357 39.6496 59.7366 44.9945C59.9727 46.0407 60.5182 46.574 61.6052 46.5781C63.8414 46.5781 66.0736 46.5781 68.3017 46.5781C69.6003 46.5781 70.1987 45.882 70.5 44.677C71.7212 39.7921 74.3022 35.7986 77.8764 32.2774C82.8062 27.425 84.4712 21.4898 82.6515 14.773C80.7586 7.77525 76.0974 3.52127 69.1647 1.55508C67.9679 1.21313 66.2256 1.88073 65.6353 0.0448015C73.5857 0.0448015 81.5117 0.0773734 89.4783 0.0122406C90.724 0.0122406 91.0049 0.293122 91.0008 1.53471C90.9601 31.1783 90.9601 60.8204 91.0008 90.4613C91.0008 91.6825 90.724 91.9837 89.4824 91.9837C60.1722 91.943 30.862 91.943 1.55182 91.9837C-0.947685 91.9837 0.391639 90.3554 0.0618995 89.4517C0.949347 88.6579 2.04848 88.7353 3.11504 88.723C6.25775 88.6945 9.39636 88.7922 12.535 88.6823C15.2543 88.5887 16.1499 87.7501 16.1988 85.0756C16.2802 76.9774 16.2802 68.8779 16.1988 60.777C16.1743 58.2653 15.3846 57.5733 12.9055 57.4186C12.4088 57.386 11.9122 57.3983 11.4155 57.3983C7.92271 57.3983 7.81689 57.5082 7.05971 61.0213C5.28481 69.2606 3.52618 77.5039 1.69429 85.731C1.45411 86.7731 1.62916 88.1694 0.0700244 88.4747Z" fill="#FEFEFE"/>
<path d="M65.6331 0.0449219C66.7648 1.04634 68.2426 0.594479 69.5371 0.960851C76.5634 2.93519 81.2571 7.3398 83.2478 14.3171C85.2262 21.2375 83.5897 27.4943 78.5174 32.5787C74.7315 36.3768 71.8453 40.5412 70.9538 45.9065C70.795 46.8713 70.3879 47.3761 69.3254 47.2417C68.6653 47.1989 68.0031 47.1989 67.3429 47.2417C64.9411 47.2417 62.2788 47.889 60.2148 47.0545C58.1509 46.22 58.8633 43.0488 57.8537 41.0419C56.4941 38.3552 54.9675 35.8517 52.7937 33.7633C46.9723 28.1619 44.77 21.4573 47.2858 13.6862C49.8016 5.91501 55.3868 1.66917 63.4186 0.557846C63.7605 0.513067 64.0577 0.452005 64.1432 0.0612085L65.6331 0.0449219Z" fill="black"/>
<path d="M0.0703125 88.4748C1.9307 82.9345 2.67566 77.1295 4.01498 71.467C5.06119 67.0502 6.05041 62.6171 6.89715 58.1555C7.16176 56.7429 7.75204 56.4987 9.014 56.4702C16.9481 56.2788 17.054 56.3562 17.054 64.2698C17.054 71.2228 17.054 78.1757 17.054 85.1245C17.054 88.316 15.9223 89.4192 12.7266 89.4396C8.50922 89.464 4.2918 89.4396 0.0743873 89.4681L0.0703125 88.4748Z" fill="black"/>
<path d="M19.9875 72.3625C19.9875 69.2158 19.9875 66.0731 19.9875 62.9264C19.9875 62.0756 19.9183 61.3266 21.1314 61.1475C26.2119 60.4107 31.2679 59.5965 36.4175 60.5694C39.3933 61.1312 42.19 62.1367 44.5348 64.0255C46.0736 65.2712 47.6572 65.6091 49.5501 65.5684C53.853 65.4747 58.1559 65.5684 62.4588 65.5154C64.0261 65.4869 64.2989 65.9998 63.8144 67.4165C63.0002 69.802 61.1928 71.1657 58.3391 71.186C52.6399 71.2227 46.9407 71.186 41.2089 71.186C40.6309 71.186 40.0487 71.1535 39.4747 71.2105C38.6606 71.296 38.0214 71.7763 38.0052 72.6149C37.9848 73.5756 38.5832 74.1048 39.5847 74.1048H46.5377C50.5109 74.1048 54.4799 74.0763 58.4531 74.1048C60.2794 74.1211 62.0663 73.5738 63.5702 72.5376C70.9832 67.6526 79.4465 64.9211 87.3236 61.0335C88.4716 60.4676 89.412 60.9032 90.0715 61.9453C90.7309 62.9875 90.3646 63.8383 89.6074 64.6239C89.4917 64.7423 89.3679 64.8525 89.2369 64.9537C79.5239 72.3991 69.9329 80.0156 60.053 87.2209C54.7161 91.1167 48.4469 91.939 42.0557 90.1926C35.2126 88.3241 28.4549 86.1544 21.6322 84.2085C20.3784 83.8462 19.9224 83.3333 19.9591 82.0103C20.0527 78.8188 19.9875 75.5907 19.9875 72.3625Z" fill="black"/>
<path d="M64.9393 55.2408C63.946 55.2408 62.9486 55.1919 61.9594 55.2408C60.3026 55.3425 59.6227 54.6627 59.4884 52.953C59.3256 50.7995 59.8426 49.8388 62.2322 50.1034C64.3572 50.3395 66.531 50.136 68.6804 50.1645C69.572 50.1645 70.8502 49.733 70.6059 51.4671C70.4065 52.8797 71.3509 54.8825 68.9043 55.1838C67.6016 55.3466 66.2623 55.2123 64.9393 55.2123V55.2408Z" fill="black"/>
<path d="M54.5979 54.1738C53.5354 54.1738 52.2246 54.3285 52.1961 52.7938C52.1554 50.8643 53.7349 51.3039 54.9154 51.2062C56.096 51.1085 56.6985 51.2429 56.7147 52.7206C56.7351 54.5483 55.6563 54.2064 54.5979 54.1738Z" fill="#080808"/>
<path d="M75.309 54.1828C74.3442 54.2886 73.4526 54.3578 73.473 52.6522C73.473 51.0971 74.2872 51.1622 75.3171 51.207C76.457 51.2559 77.9021 50.9872 77.9754 52.6237C78.0486 54.2601 76.6727 54.2072 75.309 54.1828Z" fill="#080808"/>
<path d="M57.4455 7.16481C57.8906 7.31314 58.3257 7.4899 58.7481 7.69401C59.7496 8.23135 60.8894 7.79985 61.1092 7.09154C62.1921 3.57844 65.0051 5.23118 67.126 4.90958C67.9402 4.78746 68.4246 5.39808 68.7014 6.19188C69.2306 7.70215 70.3053 8.31684 71.7667 7.52304C73.4154 6.62746 74.2459 7.74693 75.0927 8.72392C76.09 9.87595 78.0888 10.6209 76.9734 12.7662C76.2325 14.1991 76.8675 15.054 78.1132 15.7542C80.4011 17.0487 80.3848 21.7138 78.1132 23.0124C76.8716 23.7167 76.2244 24.6082 76.9978 26.0207C77.8649 27.6002 76.8065 28.4917 75.801 29.3669C74.6326 30.3765 73.8551 32.2735 71.7301 31.1947C70.3216 30.4864 69.2143 31.0278 68.8032 32.416C68.2495 34.2722 66.8492 33.9669 65.5994 33.8733C64.1013 33.7634 62.2043 34.6875 61.4105 32.363C60.9383 30.9668 59.8514 30.523 58.4551 31.2151C56.3016 32.2775 55.577 30.2869 54.4045 29.3059C53.3828 28.4469 52.3976 27.5636 53.281 25.9597C54.03 24.5959 53.4438 23.4602 52.0597 23.0409C50.2278 22.4791 50.468 21.0951 50.5942 19.8331C50.7326 18.4165 49.78 16.5765 51.9702 15.799C53.4397 15.2698 53.8916 14.2521 53.2891 12.6929C52.6866 11.1338 55.7113 7.15667 57.4455 7.16481Z" fill="#FEFEFE"/>
<path d="M10.258 84.2369C9.10183 84.1595 7.62817 84.4608 7.57932 82.8162C7.53047 81.1716 8.99192 81.3466 10.1114 81.3466C11.2309 81.3466 12.6557 81.1309 12.6109 82.8447C12.5702 84.3509 11.2553 84.1839 10.258 84.2369Z" fill="#FBFBFB"/>
<path d="M47.8326 86.5941C46.0946 86.6561 44.358 86.4347 42.6911 85.9387C37.2362 84.3104 31.7894 82.6821 26.3344 81.0538C25.2434 80.7322 24.0588 80.374 24.5269 78.9614C24.9951 77.5488 26.1553 77.9722 27.2463 78.2979C32.3023 79.8163 37.3705 81.2736 42.4225 82.8042C47.4744 84.3348 52.1925 83.94 56.6053 80.8869C57.4846 80.2763 58.3965 79.7674 59.17 80.8543C59.9434 81.9412 59.1455 82.6862 58.2825 83.2968C55.2436 85.4893 51.5796 86.6454 47.8326 86.5941Z" fill="#FCFCFC"/>
<path d="M59.0027 11.081C60.5537 10.5762 62.5077 10.5029 63.672 8.70362C64.6002 7.27477 65.3981 7.20964 66.4605 8.70362C67.0163 9.52016 67.7973 10.1576 68.7087 10.5385C69.62 10.9193 70.6224 11.0272 71.5939 10.8489C73.2629 10.564 73.723 11.2886 73.6293 12.5709C73.4217 14.9645 74.0975 16.8045 76.1288 18.2293C77.0407 18.8643 77.1099 19.9105 76.0108 20.6718C74.0364 22.007 73.3891 23.9284 73.6741 26.1795C73.8451 27.5555 73.3118 28.1946 71.9359 28.0033C69.6236 27.6735 67.8161 28.4103 66.4361 30.3277C65.622 31.4512 64.6734 31.4105 63.8633 30.2748C62.4874 28.3411 60.6066 27.6898 58.331 28.0399C57.0202 28.2475 56.3485 27.4618 56.5154 26.4482C56.9429 23.8999 56.259 22.0192 54.0729 20.6026C53.0186 19.9187 53.0593 18.9173 54.1014 18.1967C56.1369 16.7964 56.7393 14.9401 56.4951 12.5261C56.3078 10.9548 57.179 10.2831 59.0027 11.081Z" fill="black"/>
<path d="M65.2877 13.4578C66.8619 13.4837 68.3613 14.1339 69.456 15.2653C70.5508 16.3967 71.1512 17.9166 71.1253 19.4908C71.0994 21.0649 70.4493 22.5642 69.3178 23.659C68.1864 24.7537 66.6665 25.3542 65.0923 25.3283C64.3129 25.3155 63.5436 25.1492 62.8284 24.8391C62.1132 24.529 61.4661 24.081 60.9241 23.5208C59.8293 22.3894 59.2288 20.8695 59.2547 19.2954C59.2806 17.7212 59.9308 16.2219 61.0622 15.1271C62.1936 14.0324 63.7136 13.4319 65.2877 13.4578Z" fill="#FCFCFC"/>
<path d="M62.1055 19.4787C62.3579 17.5777 63.2575 16.4175 65.1423 16.4338C67.0271 16.45 68.0815 17.5573 68.0856 19.381C68.0896 21.2047 66.9457 22.3242 65.1301 22.3364C63.3145 22.3486 62.3823 21.1274 62.1055 19.4787Z" fill="#030303"/>
</g>
<defs>
<clipPath id="clip0_1076_451">
<rect width="91" height="92" fill="white"/>
</clipPath>
</defs>
</svg>
