<svg width="100" height="101" viewBox="0 0 100 101" fill="none" xmlns="http://www.w3.org/2000/svg">
<g clip-path="url(#clip0_1155_518)">
<path d="M72.5898 -0.000395533C73.8358 1.11278 75.4609 0.62407 76.8964 1.03133C80.539 1.87405 83.8814 3.70152 86.5604 6.31511C89.2394 8.9287 91.1524 12.2284 92.0915 15.8555C93.2206 19.3815 93.3287 23.1562 92.4034 26.7414C91.4781 30.3266 89.5573 33.5751 86.8639 36.1098C82.5747 40.0046 79.6577 45.1859 78.5487 50.8797C78.3861 51.9386 77.9257 52.5088 76.7339 52.3459C76.0036 52.2916 75.2703 52.2916 74.54 52.3459C71.9214 52.7542 69.2504 52.6806 66.6581 52.1286C64.3829 51.2055 65.1684 47.7031 63.9495 45.4768C62.5531 42.4637 60.6573 39.7097 58.3428 37.3316C55.2869 34.6112 53.0849 31.0596 52.0045 27.1085C50.9241 23.1573 51.0117 18.9767 52.2567 15.0745C53.5017 11.1724 55.8506 7.71665 59.0178 5.12726C62.185 2.53788 66.0343 0.926286 70.098 0.488315C70.4772 0.488315 70.8022 0.488323 70.9105 -0.0546875L72.5898 -0.000395533Z" fill="black"/>
<path d="M0 98.122C2.0585 91.986 2.89816 85.5513 4.36078 79.1166C5.52546 74.2295 6.63597 69.2881 7.55688 64.3467C7.85482 62.772 8.50488 62.5005 9.91333 62.4733C18.6891 62.2561 18.7974 62.4733 18.7974 71.1344V94.3209C18.7974 97.8776 17.5515 99.0994 14.0033 99.1265H0V98.122Z" fill="black"/>
<path d="M22.0469 80.2569V69.8854C22.0469 68.9351 22.0469 68.1206 23.3199 67.9034C28.8819 66.71 34.6044 66.4622 40.2484 67.1703C43.508 67.6789 46.5895 68.9947 49.2137 70.9986C50.7434 72.2261 52.6755 72.8361 54.6308 72.709C59.3979 72.709 64.165 72.709 68.932 72.709C70.6655 72.709 70.9635 73.2521 70.4217 74.8268C70.0324 76.1095 69.2201 77.2218 68.1179 77.9814C67.0157 78.741 65.6888 79.1029 64.3546 79.008H45.3947C44.7633 78.9672 44.13 78.9672 43.4987 79.008C43.2901 79.0007 43.0822 79.0352 42.8871 79.1094C42.692 79.1836 42.5136 79.296 42.3623 79.4401C42.211 79.5841 42.0898 79.757 42.0059 79.9485C41.922 80.14 41.877 80.3464 41.8735 80.5555C41.8504 80.7859 41.88 81.0186 41.9602 81.2358C42.0404 81.4529 42.169 81.6489 42.3362 81.8086C42.5034 81.9684 42.7048 82.0877 42.925 82.1576C43.1453 82.2275 43.3785 82.246 43.607 82.2117H51.4618C55.8768 82.2117 60.2646 82.2117 64.6525 82.2117C66.7131 82.2476 68.7323 81.6299 70.4217 80.4469C78.5474 75.0168 88.0003 72.0031 96.7218 67.6862C97.2433 67.4235 97.8435 67.3642 98.4061 67.5196C98.9688 67.6751 99.4538 68.0343 99.7674 68.5278C100.081 69.0212 100.201 69.6137 100.103 70.1905C100.006 70.7674 99.6987 71.2875 99.2408 71.6502C99.1187 71.7905 98.9826 71.9179 98.8345 72.0303C88.0003 80.1754 77.464 88.7279 66.5485 96.7373C63.708 98.7982 60.4279 100.168 56.9678 100.738C53.5077 101.308 49.9627 101.063 46.6135 100.022C39.0295 97.959 31.5539 95.5427 23.997 93.3978C23.7118 93.3686 23.4356 93.2807 23.1858 93.1397C22.936 92.9987 22.7178 92.8076 22.545 92.5783C22.3721 92.349 22.2483 92.0864 22.1812 91.8069C22.1142 91.5275 22.1053 91.2372 22.1552 90.9542C22.1281 87.4246 22.0469 83.8408 22.0469 80.2569Z" fill="black"/>
<path d="M71.8041 61.252C70.7207 61.252 69.6102 61.252 68.4997 61.252C66.6849 61.252 65.9265 60.6004 65.7911 58.727C65.6286 56.3378 66.1974 55.2518 68.8518 55.5504C71.5061 55.8491 73.5917 55.5504 75.9753 55.5504C76.9504 55.5504 78.3859 55.0617 78.115 56.9894C77.8442 58.9171 78.9276 60.7633 76.219 61.1163C74.7575 61.1978 73.2927 61.1978 71.8312 61.1163L71.8041 61.252Z" fill="black"/>
<path d="M60.3726 60.0573C59.1809 60.0573 57.6641 60.2474 57.6641 58.5369C57.6641 56.392 59.3704 56.8807 60.6976 56.7721C62.0248 56.6635 62.6478 56.7721 62.6749 58.4554C62.702 60.1388 61.5373 60.1116 60.3726 60.0573Z" fill="#080808"/>
<path d="M83.2898 60.0837C82.2334 60.0837 81.2313 60.2738 81.2583 58.3732C81.2854 56.4727 82.1522 56.717 83.2898 56.7713C84.4274 56.8256 86.1608 56.527 86.2421 58.3461C86.3233 60.1652 84.8066 60.1109 83.2898 60.0837Z" fill="#080808"/>
<path d="M63.5175 7.90076C64.0072 8.07175 64.4865 8.2712 64.9531 8.49807C65.1695 8.6514 65.4165 8.75608 65.677 8.80497C65.9375 8.85387 66.2055 8.84582 66.4627 8.78138C66.7198 8.71694 66.96 8.59763 67.167 8.43159C67.3739 8.26555 67.5426 8.0567 67.6616 7.81931C68.8534 3.93678 71.9682 5.75587 74.2976 5.40291C75.2185 5.40291 75.7602 5.94592 76.0582 6.84189C76.627 8.49807 77.8187 9.17684 79.4439 8.30802C81.069 7.4392 82.1524 8.55238 83.1275 9.6384C84.1026 10.7244 86.4319 11.7561 85.2131 14.1182C84.4005 15.7201 85.2131 16.6704 86.459 17.4306C87.0688 17.9189 87.561 18.5386 87.8993 19.2436C88.2376 19.9486 88.4133 20.7209 88.4133 21.5032C88.4133 22.2855 88.2376 23.0578 87.8993 23.7628C87.561 24.4678 87.0688 25.0874 86.459 25.5758C85.1048 26.3631 84.3735 27.3405 85.2402 28.9153C86.1069 30.49 85.0235 31.6303 83.913 32.6349C82.8025 33.6395 81.7461 35.8387 79.4168 34.644C79.129 34.4423 78.795 34.3167 78.4459 34.2789C78.0967 34.241 77.7437 34.2922 77.4195 34.4276C77.0954 34.563 76.8106 34.7782 76.5915 35.0534C76.3725 35.3285 76.2263 35.6547 76.1665 36.0016C75.5435 38.065 73.9997 37.7392 72.6183 37.6306C71.2369 37.522 68.8534 38.5266 67.9867 35.9473C67.9293 35.5864 67.7798 35.2466 67.5526 34.9608C67.3255 34.675 67.0284 34.453 66.6904 34.3164C66.3523 34.1797 65.9847 34.1331 65.6233 34.181C65.2619 34.2289 64.9191 34.3697 64.6281 34.5897C62.2445 35.7844 61.459 33.558 60.1589 32.472C58.8588 31.386 57.9379 30.5443 58.913 28.7524C59.108 28.4643 59.2281 28.132 59.2625 27.7856C59.2969 27.4392 59.2444 27.0897 59.1099 26.7688C58.9754 26.4479 58.763 26.1657 58.4922 25.9479C58.2213 25.73 57.9004 25.5835 57.5587 25.5215C55.5273 24.897 55.7982 23.3766 55.9336 21.9647C56.069 20.5529 55.0397 18.3537 57.4504 17.4849C57.8066 17.4045 58.1386 17.2402 58.4191 17.0058C58.6995 16.7713 58.9203 16.4734 59.0632 16.1365C59.206 15.7997 59.2669 15.4336 59.2408 15.0685C59.2147 14.7034 59.1023 14.3498 58.913 14.0368C58.2358 12.3263 61.5945 7.90076 63.5175 7.90076Z" fill="#FEFEFE"/>
<path d="M11.2932 93.4249C9.99313 93.4249 8.36799 93.6693 8.31382 91.8502C8.25965 90.0311 9.88478 90.2212 11.0224 90.2212C12.16 90.2212 13.7309 89.9768 13.7309 91.8773C13.7309 93.7779 12.3767 93.3706 11.2932 93.4249Z" fill="#FBFBFB"/>
<path d="M52.8698 96.0311C50.948 96.1098 49.0264 95.8713 47.1818 95.3252L29.0887 89.8951C27.8698 89.5422 26.5697 89.1349 27.0843 87.5602C27.5989 85.9854 28.872 86.4741 30.0908 86.8271L46.8839 91.8228C49.481 92.7519 52.2623 93.0444 54.9952 92.676C57.7282 92.3076 60.3335 91.2889 62.5935 89.7051C63.5686 89.0263 64.5708 88.4561 65.3021 89.7051C66.0334 90.954 65.3021 91.7414 64.327 92.4201C60.9845 94.807 56.9736 96.0712 52.8698 96.0311Z" fill="#FCFCFC"/>
<path d="M65.2473 12.2452C66.9537 11.7022 69.1205 11.6207 70.3935 9.53014C71.4228 7.95541 72.3166 7.87396 73.4813 9.53014C74.0974 10.437 74.9627 11.1453 75.9722 11.5694C76.9817 11.9934 78.0922 12.115 79.1692 11.9194C81.0111 11.5936 81.5257 12.4081 81.4174 13.8199C81.2236 15.0194 81.3756 16.2494 81.8554 17.3653C82.3352 18.4811 83.1229 19.4364 84.1259 20.1188C85.1552 20.7976 85.2364 21.9651 84.1259 22.8339C83.1129 23.4599 82.3122 24.3782 81.8289 25.4683C81.3455 26.5584 81.2021 27.7695 81.4174 28.9428C81.607 30.4904 81.0111 31.1963 79.4943 30.9791C78.324 30.7671 77.1172 30.9126 76.0305 31.3968C74.9437 31.8809 74.0273 32.6813 73.4 33.6941C72.5062 34.943 71.4499 34.8887 70.6915 33.6941C70.0386 32.7106 69.1058 31.9465 68.0142 31.501C66.9226 31.0556 65.7227 30.9494 64.5701 31.1963C63.1346 31.4406 62.3762 30.5718 62.5658 29.4315C62.8795 28.2018 62.7848 26.903 62.2961 25.7321C61.8073 24.5612 60.9511 23.5819 59.8572 22.9425C58.6925 22.2094 58.7467 21.0963 59.8572 20.2275C60.8831 19.5672 61.689 18.615 62.1715 17.4928C62.6541 16.3706 62.7914 15.1295 62.5658 13.9285C62.2949 12.1094 63.2158 11.3764 65.2473 12.2452Z" fill="black"/>
<path d="M72.184 14.9052C73.4879 14.9216 74.7575 15.3259 75.8318 16.0667C76.9061 16.8076 77.7367 17.8516 78.2181 19.0664C78.6995 20.2811 78.8102 21.6119 78.5359 22.8898C78.2617 24.1676 77.615 25.3351 76.6778 26.2439C75.7406 27.1528 74.5553 27.7621 73.2721 27.9946C71.9889 28.2271 70.6657 28.0723 69.4704 27.5499C68.2752 27.0274 67.2617 26.1608 66.5585 25.06C65.8553 23.9592 65.4942 22.6739 65.5209 21.367C65.535 20.5042 65.7186 19.6525 66.0611 18.8608C66.4036 18.069 66.8984 17.3526 67.5171 16.7526C68.1358 16.1525 68.8665 15.6805 69.6672 15.3636C70.468 15.0466 71.3232 14.8908 72.184 14.9052Z" fill="#FCFCFC"/>
<path d="M68.6602 21.5851C68.9581 19.4674 69.9332 18.1642 72.0188 18.1913C72.4724 18.1498 72.9296 18.2036 73.3613 18.3492C73.793 18.4948 74.1897 18.7289 74.5261 19.0368C74.8625 19.3446 75.1312 19.7193 75.315 20.1371C75.4988 20.5548 75.5938 21.0064 75.5938 21.463C75.5938 21.9195 75.4988 22.3711 75.315 22.7888C75.1312 23.2066 74.8625 23.5813 74.5261 23.8891C74.1897 24.197 73.793 24.4311 73.3613 24.5767C72.9296 24.7223 72.4724 24.7761 72.0188 24.7346C71.1605 24.7497 70.33 24.4295 69.7032 23.8417C69.0763 23.2538 68.7022 22.4446 68.6602 21.5851Z" fill="#030303"/>
</g>
<defs>
<clipPath id="clip0_1155_518">
<rect width="100" height="101" fill="white"/>
</clipPath>
</defs>
</svg>
