<svg width="85" height="87" viewBox="0 0 85 87" fill="none" xmlns="http://www.w3.org/2000/svg">
<g clip-path="url(#clip0_1073_702)">
<path d="M74.332 86.9995C73.0779 82.7996 71.0493 78.918 69.4431 74.6208L62.0898 80.5317V49.7441L85.0032 71.3714C81.6897 71.7649 78.7633 72.2203 75.8194 72.4148C73.9976 72.5342 73.8304 72.9895 74.6049 74.6253C75.991 77.5166 77.0251 80.5759 78.3849 83.4672C78.9834 84.7537 78.9526 85.3461 77.5048 85.7528C76.5617 86.0949 75.6478 86.5133 74.7721 87.0039L74.332 86.9995Z" fill="#010101"/>
<path d="M80.4382 49.7581C78.326 47.6007 76.5218 45.7394 74.7176 43.9003C74.0927 43.277 74.3479 42.5166 74.3479 41.8181C74.3479 34.6782 74.2995 27.5384 74.3479 20.3985C74.3479 19.0015 74.0531 18.5373 72.5657 18.5417C57.1816 18.5977 41.7989 18.5977 26.4177 18.5417C25.0976 18.5417 24.6575 18.8291 24.6795 20.2349C24.7294 35.7643 24.7294 51.2951 24.6795 66.8274C24.6795 68.335 25.2692 68.4455 26.4793 68.4366C33.5201 68.3924 40.5609 68.4676 47.5709 68.3792C49.1199 68.3792 49.5115 68.777 49.4807 70.3155C49.3927 74.5729 49.4807 74.5729 45.3003 74.5729C37.3794 74.5729 29.4585 74.542 21.5684 74.5994C20.0327 74.6803 18.5278 74.1462 17.3835 73.114C12.2877 68.584 7.15382 64.0894 1.98177 59.6301C1.33032 59.1065 0.811627 58.4353 0.468189 57.6714C0.124752 56.9076 -0.0336512 56.0729 0.00595448 55.2357C0.0587604 38.3078 0.0367386 21.38 0.0411391 4.4477C0.0411391 1.00819 1.04005 0.0267416 4.49444 0.0267416C21.3395 0.0267416 38.1861 0.0193787 55.0342 0.00464221C56.419 -0.0245071 57.7864 0.318928 58.9946 0.999357C65.4105 4.61865 71.8382 8.2173 78.2776 11.7953C79.7122 12.5911 80.4426 13.6698 80.4382 15.31C80.4382 26.6144 80.4382 37.9276 80.4382 49.7581Z" fill="#010101"/>
<path d="M18.631 66.0757C14.4505 62.4019 10.6309 59.0287 6.78484 55.6821C6.56875 55.4914 6.40156 55.2512 6.29739 54.9819C6.19321 54.7125 6.15514 54.422 6.18638 54.1347C6.18638 39.2833 6.18638 24.4333 6.18638 9.58474C6.18638 9.46537 6.29638 9.35043 6.44599 9.0498C10.336 11.6449 14.1953 14.2356 18.0633 16.8042C18.6706 17.2065 18.6134 17.7856 18.6134 18.3648L18.631 66.0757Z" fill="#FEFEFE"/>
<path d="M66.1433 12.4756H64.0531C51.01 12.4756 37.9713 12.4756 24.9282 12.5021C23.4053 12.5624 21.9065 12.1061 20.673 11.2068C18.4331 9.5843 16.0965 8.11213 13.7422 6.525C14.3715 5.88839 15.0623 6.19785 15.6432 6.19343C28.2462 6.17133 40.8448 6.19343 53.4479 6.15364C54.8983 6.11782 56.3293 6.49484 57.5755 7.2412C60.4227 8.93 63.3446 10.4862 66.2401 12.1042L66.1433 12.4756Z" fill="#FEFEFE"/>
</g>
<defs>
<clipPath id="clip0_1073_702">
<rect width="85" height="87" fill="white"/>
</clipPath>
</defs>
</svg>
