<svg width="152" height="167" viewBox="0 0 152 167" fill="none" xmlns="http://www.w3.org/2000/svg">
<g clip-path="url(#clip0_1100_451)">
<path d="M56.131 144.466C54.4494 143.975 53.3465 144.537 52.1563 145.737C47.0077 150.925 40.658 151.912 33.7514 150.565C25.4034 148.928 17.9781 145.699 12.9005 138.433C10.4218 134.888 9.2152 130.764 7.69739 126.804C5.13675 120.133 1.86088 113.713 0.414037 106.622C0.299712 106.094 0.212254 105.56 0.151979 105.024C-0.710665 96.3289 2.0083 92.6143 10.6402 90.9724C12.2781 90.6615 12.9388 90.1761 12.7531 88.4197C12.5966 86.1848 12.7807 83.9392 13.2991 81.7595C14.462 75.9776 17.4977 71.6084 22.8591 68.8974C26.954 66.8356 31.2072 65.3574 35.7879 64.9864C36.8799 64.8937 37.3931 64.5664 37.7862 63.47C42.1977 51.137 52.9916 46.3806 65.156 51.4698C66.6356 52.0861 67.1488 51.7861 67.9296 50.5098C76.0046 37.3367 97.6089 37.8495 104.925 51.3334C106.004 53.2967 106.623 55.4786 106.738 57.7154C106.807 58.9828 107.218 60.2079 107.928 61.2609C116.522 74.8976 125.05 88.5342 133.665 102.171C135.576 105.198 137.842 107.986 138.579 111.635C139.611 116.778 138.95 121.764 136.308 126.166C128.964 138.39 120.709 149.948 109.904 159.439C109.042 160.198 108.086 160.847 107.174 161.561C104.799 163.449 102.135 164.141 99.083 164.289C87.9178 164.834 76.698 165.238 65.6474 166.82C58.0037 167.91 53.5485 164.561 53.0408 156.745C52.7744 152.934 53.6669 149.131 55.6014 145.835C55.8034 145.486 56.0054 145.137 56.1965 144.783C56.2184 144.728 56.1692 144.646 56.131 144.466Z" fill="#010101"/>
<path d="M135.964 64.5724C131.902 64.5724 127.834 64.5724 123.772 64.5724C121.332 64.5724 119.907 63.3396 119.95 61.3596C119.994 59.4668 121.381 58.2777 123.712 58.2722C131.836 58.2504 139.964 58.2504 148.095 58.2722C150.634 58.2722 151.988 59.4123 151.999 61.3869C151.999 63.4542 150.596 64.5669 147.953 64.5669L135.964 64.5724Z" fill="#020202"/>
<path d="M85.3901 15.273C85.3901 11.5529 85.3901 7.82733 85.3901 4.1018C85.3901 1.37447 86.4821 -0.000102643 88.5076 -0.0164666C90.5332 -0.0328306 91.6961 1.43993 91.7016 4.0418C91.7016 11.5583 91.7016 19.0749 91.7016 26.5914C91.7016 29.0787 90.5769 30.4587 88.5622 30.4751C86.5476 30.4915 85.4065 29.2151 85.3901 26.6568C85.3737 22.8768 85.3901 19.0912 85.3901 15.273Z" fill="#020202"/>
<path d="M115.692 38.6134C115.138 38.6374 114.588 38.5132 114.099 38.2536C113.609 37.9941 113.198 37.6086 112.907 37.137C112.617 36.6654 112.457 36.1249 112.446 35.5713C112.435 35.0176 112.571 34.471 112.842 33.9878C113.129 33.5306 113.476 33.1142 113.874 32.7496C119.203 27.4586 124.539 22.1749 129.882 16.8984C131.744 15.0602 133.617 14.8802 134.998 16.3529C136.379 17.8257 136.09 19.6257 134.343 21.3276C129.003 26.6113 123.663 31.8951 118.324 37.1788C117.538 37.9643 116.746 38.6789 115.692 38.6134Z" fill="#010101"/>
<path d="M40.3591 19.6369C40.31 18.0441 40.9051 17.0786 42.1499 16.5059C42.7291 16.2094 43.3906 16.1138 44.0302 16.2343C44.6697 16.3548 45.251 16.6845 45.6824 17.1714C47.5605 19.0205 49.3677 20.9405 51.2131 22.8279C54.4235 26.1007 57.6356 29.3916 60.8496 32.7008C62.7496 34.6536 62.9079 36.3009 61.3519 37.7955C59.9651 39.1264 58.076 38.8864 56.3835 37.1573C51.5134 32.179 46.6542 27.188 41.8059 22.1842C41.047 21.3824 40.2663 20.6078 40.3591 19.6369Z" fill="#020202"/>
<path d="M46.3083 142.411C43.633 144.625 40.6466 144.985 37.5727 144.674C31.567 144.058 25.8724 142.432 21.1934 138.347C18.7547 136.185 16.906 133.439 15.821 130.367C13.0583 122.959 9.77156 115.754 7.28191 108.248C6.49458 105.936 6.13924 103.499 6.23363 101.059C6.22599 100.518 6.37707 99.9875 6.66817 99.5318C6.95927 99.0762 7.37763 98.7158 7.87156 98.4952C10.0595 97.401 12.4584 96.7926 14.9037 96.7115C18.8075 96.5315 19.7575 95.3969 19.1624 91.4695C18.6942 88.3149 18.865 85.0986 19.6647 82.0112C20.0178 80.4538 20.7108 78.9935 21.6943 77.7347C22.6777 76.4759 23.9273 75.4496 25.3537 74.7292C29.7216 72.4164 34.3569 71.0146 39.3581 71.1346C41.3782 71.1836 42.5193 70.2618 42.9397 68.309C43.3593 66.3275 44.0366 64.4094 44.9543 62.6035C49.1474 54.3669 58.6584 54.5415 64.8279 58.2397C65.6687 58.747 65.5377 59.4561 65.5377 60.1816C65.5377 64.0435 65.5759 67.9054 65.5377 71.7618C65.4831 76.7801 67.3503 80.9966 70.8172 84.5312C71.6263 85.341 72.2226 86.3378 72.5535 87.4331C74.4698 93.4932 76.4463 99.5261 78.3408 105.586C78.5482 106.331 78.9203 107.019 79.4297 107.601C79.939 108.182 80.5726 108.642 81.2836 108.946C86.1378 111.196 90.7683 113.899 95.1132 117.019C96.8112 118.263 97.2971 119.616 96.5655 121.547C95.7845 123.568 94.831 125.519 93.7155 127.378C93.1696 128.343 92.2086 128.572 91.2969 128.643C81.4693 129.423 71.9256 128.289 63.1135 123.608C58.3799 121.094 55.4207 117.134 54.0175 111.766C51.2876 101.441 48.2083 91.2186 45.2546 80.9584C44.6158 78.7765 43.0325 77.642 41.2799 78.1056C39.3308 78.6238 38.5173 80.2875 39.1833 82.6221C41.9405 92.3041 45.0635 101.899 47.4112 111.674C49.8845 121.972 56.1468 128.305 65.8543 131.758C66.1565 131.891 66.4485 132.046 66.7279 132.221C63.8724 137.18 58.3198 139.312 51.8336 137.534C45.1236 135.712 39.8276 131.458 35.0503 126.548C34.3351 125.818 34.0239 124.667 33.5871 123.679C30.8718 117.636 28.1746 111.588 25.4957 105.537C25.0098 104.446 24.4037 103.481 23.1753 103.175C22.6212 102.999 22.0276 102.989 21.4677 103.146C20.9078 103.303 20.4063 103.62 20.025 104.059C19.5813 104.532 19.2972 105.132 19.213 105.775C19.1288 106.418 19.2485 107.071 19.5555 107.643C22.7385 114.81 25.7796 122.043 29.192 129.096C30.7425 132.303 33.8819 134.294 36.6555 136.454C39.6822 138.733 42.9136 140.727 46.3083 142.411Z" fill="#FEFEFE"/>
<path d="M59.6151 157.094C58.9272 153.222 60.0355 149.878 62.4651 146.949C66.3252 142.312 71.4956 139.71 77.0591 137.752C81.6149 136.217 86.3562 135.3 91.1562 135.025C95.191 134.736 98.1338 132.974 100.007 129.243C102.933 123.406 105.308 117.504 103.97 110.79C103.772 109.798 103.481 108.826 103.102 107.888C102.343 105.995 100.787 105.188 99.0947 105.706C97.4022 106.224 96.687 107.833 97.1401 109.83C97.1947 110.075 97.2985 110.31 97.5332 110.992C93.4746 108.227 89.2151 105.769 84.7901 103.639C84.6094 103.55 84.4496 103.424 84.3216 103.269C84.1935 103.114 84.1001 102.933 84.0476 102.739C82.7591 98.6968 81.4651 94.6549 80.0784 90.3184C86.6574 91.9548 92.6795 91.2403 98.1557 87.5911C103.632 83.9419 106.646 78.7 106.891 71.4453C108.666 74.249 110.167 76.5563 111.592 78.8746C117.321 87.9839 123.045 97.0949 128.763 106.208C130.128 108.39 131.892 110.299 132.432 112.923C133.215 116.472 132.591 120.187 130.69 123.286C123.522 134.976 115.6 146.098 105.15 155.191C103.088 157.066 100.393 158.095 97.6042 158.071C93.8151 158.071 90.0151 158.387 86.237 158.725C84.7246 158.867 84.3479 158.387 84.4189 156.991C84.4514 155.221 84.0778 153.467 83.3269 151.863C81.9674 148.672 79.2485 147.183 75.8143 147.674C74.4057 147.876 72.997 148.04 71.5939 148.269C66.1286 149.163 61.6898 151.46 59.6151 157.094Z" fill="#FEFEFE"/>
<path d="M72.0406 62.3957C70.9924 55.3483 73.6786 50.6191 80.2303 48.2463C85.903 46.2008 91.3082 46.8499 96.1947 50.4936C97.5794 51.4798 98.6988 52.7925 99.4532 54.3151C100.208 55.8378 100.574 57.523 100.519 59.2211C100.492 63.0775 100.317 66.9504 100.557 70.7904C101.201 81.0179 90.3418 86.8272 82.2395 84.2635C77.9809 82.9162 74.6449 80.4834 72.6849 76.3651C72.3494 75.6633 72.1753 74.8955 72.1753 74.1178C72.1753 73.3401 72.3494 72.5722 72.6849 71.8705C73.7442 69.4288 75.6184 67.4298 77.988 66.2143C80.3575 64.9987 83.0758 64.642 85.6792 65.2049C87.4483 65.6559 89.1594 66.3094 90.7786 67.1522C92.6076 68.0358 94.311 67.5395 95.1464 65.9958C96.0418 64.3594 95.4685 62.5866 93.6013 61.583C86.5036 57.7647 79.4659 57.2847 72.5921 62.183C72.4191 62.2792 72.2335 62.3508 72.0406 62.3957Z" fill="#FEFEFE"/>
<path d="M78.2795 157.787C78.416 158.807 78.0556 159.249 76.9691 159.336C73.5295 159.62 70.0953 159.985 66.6666 160.367C65.722 160.471 65.6292 160.084 65.8094 159.325C66.0063 158.392 66.4446 157.527 67.0807 156.816C67.7169 156.105 68.5285 155.572 69.4347 155.273C71.6786 154.443 74.0373 154.214 76.3959 153.947C76.5592 153.906 76.7297 153.901 76.8951 153.934C77.0604 153.966 77.2164 154.035 77.3518 154.135C77.4872 154.236 77.5985 154.365 77.6778 154.513C77.757 154.662 77.8022 154.826 77.8099 154.994C78.0065 155.916 78.1266 156.854 78.2795 157.787Z" fill="#FCFCFC"/>
<path d="M68.7263 107.299C70.0749 107.392 71.1887 107.877 71.691 109.126C72.2369 110.468 72.166 111.853 70.9212 112.803C68.6499 114.488 66.3295 116.13 63.9217 117.614C62.5077 118.481 61.0062 118.159 59.9361 116.828C58.866 115.497 58.8441 114.019 60.0289 112.972C62.4683 110.853 65.1364 109.012 67.9838 107.484C68.222 107.39 68.4717 107.328 68.7263 107.299Z" fill="#020202"/>
<path d="M42.5376 129.673C40.6376 129.602 39.5565 128.953 39.0815 127.492C38.8053 126.824 38.7957 126.076 39.0547 125.401C39.3136 124.726 39.8215 124.176 40.4738 123.864C42.7286 122.659 45.0709 121.606 47.4186 120.591C48.8927 119.959 50.0939 120.679 50.9128 121.862C51.7318 123.046 51.7646 124.628 50.618 125.561C48.1447 127.562 45.0764 128.501 42.5376 129.673Z" fill="#020202"/>
<path d="M31.5006 135.319C31.5334 137.381 29.5024 139.007 26.9472 138.963C26.1285 138.936 25.3507 138.599 24.7709 138.021C24.1912 137.443 23.8528 136.666 23.8242 135.848C23.8242 133.89 25.6915 132.308 28.192 132.183C29.0434 132.174 29.8648 132.496 30.4824 133.081C31.1 133.667 31.4652 134.469 31.5006 135.319Z" fill="#030303"/>
</g>
<defs>
<clipPath id="clip0_1100_451">
<rect width="152" height="167" fill="white"/>
</clipPath>
</defs>
</svg>
