<svg width="119" height="121" viewBox="0 0 119 121" fill="none" xmlns="http://www.w3.org/2000/svg">
<g clip-path="url(#clip0_1155_513)">
<path d="M104.162 121C102.419 115.198 99.597 109.834 97.3662 103.901L87.1406 112.061V69.5293L119.001 99.4041C114.393 99.9459 110.316 100.58 106.229 100.845C103.7 101.013 103.467 101.642 104.541 103.901C106.468 107.894 107.907 112.12 109.795 116.113C110.631 117.89 110.588 118.708 108.574 119.272C107.263 119.743 105.992 120.321 104.775 121H104.162Z" fill="#010101"/>
<path d="M112.651 69.5288C109.714 66.5489 107.223 63.9808 104.694 61.4397C103.825 60.5783 104.184 59.5272 104.184 58.5628C104.184 48.6966 104.113 38.8359 104.184 28.9751C104.184 27.0409 103.771 26.4016 101.703 26.407C80.3112 26.4829 58.9246 26.4829 37.5435 26.407C35.709 26.407 35.0957 26.8025 35.1282 28.7476C35.2006 50.1992 35.2006 71.6527 35.1282 93.1079C35.1282 95.1938 35.9478 95.3455 37.6303 95.3347C47.4 95.2697 57.2077 95.3781 66.9394 95.2534C69.1104 95.2534 69.6532 95.7952 69.5935 97.9299C69.4686 103.808 69.5935 103.808 63.7805 103.808C52.7679 103.808 41.7553 103.765 30.7862 103.846C29.7287 103.903 28.6704 103.751 27.672 103.398C26.6736 103.046 25.7546 102.5 24.9678 101.793C17.8866 95.537 10.7493 89.328 3.55593 83.1659C2.6491 82.4441 1.92716 81.5175 1.44965 80.4624C0.972144 79.4074 0.752757 78.2541 0.809564 77.0977C0.880123 53.7137 0.852966 30.3296 0.858394 6.94017C0.858394 2.18859 2.24787 0.828673 7.04586 0.828673C30.4677 0.828673 53.8896 0.828673 77.3115 0.828673C79.2374 0.787271 81.1394 1.26052 82.8205 2.19942C91.7398 7.20204 100.675 12.174 109.627 17.1152C111.625 18.1988 112.64 19.705 112.634 21.9914L112.651 69.5288Z" stroke="black" stroke-width="3" stroke-miterlimit="10"/>
<path d="M26.7201 92.0891C20.9072 87.0125 15.599 82.3367 10.2528 77.7315C9.95139 77.4681 9.71801 77.136 9.57251 76.7635C9.427 76.3909 9.37364 75.9889 9.41694 75.5913V14.0484C9.41694 13.8858 9.57433 13.7287 9.78058 13.3115C15.2082 16.8982 20.5544 20.4741 25.9331 24.0229C26.7744 24.5647 26.6984 25.3774 26.6984 26.1901L26.7201 92.0891Z" stroke="black" stroke-width="3" stroke-miterlimit="10"/>
<path d="M92.7804 18.0579H89.8712C71.7358 18.0579 53.604 18.0579 35.4759 18.0579C33.3586 18.1425 31.2745 17.5126 29.5598 16.2699C26.4443 14.0269 23.1986 11.9951 19.9258 9.80084C20.7996 8.92312 21.7603 9.35115 22.569 9.34573C40.0893 9.31322 57.6042 9.34573 75.1299 9.29156C77.1455 9.24299 79.1341 9.76317 80.8668 10.7923C84.8235 13.1275 88.8888 15.273 92.9107 17.5106L92.7804 18.0579Z" stroke="black" stroke-width="3" stroke-miterlimit="10"/>
</g>
<defs>
<clipPath id="clip0_1155_513">
<rect width="119" height="121" fill="white"/>
</clipPath>
</defs>
</svg>
