<svg width="75" height="91" viewBox="0 0 75 91" fill="none" xmlns="http://www.w3.org/2000/svg">
<g clip-path="url(#clip0_1077_532)">
<path d="M30.0495 40.2905C35.2027 35.2534 37.8126 35.3173 41.7017 40.3544C42.5263 41.4227 42.9779 41.6327 44.2541 41.1184C47.5279 39.8005 50.2621 40.8749 52.0718 43.818C52.8568 45.0933 53.3388 45.6442 55.0606 45.3824C58.6496 44.8407 61.6142 47.2877 61.7112 50.9461C61.9568 60.4512 62.1386 69.9685 61.9477 79.4705C61.8416 84.8394 55.0848 90.8109 49.477 90.9326C43.2841 91.0666 37.0881 90.9144 30.8952 90.9996C29.3796 91.0209 28.449 90.3909 27.5062 89.3287C19.2005 79.9484 10.8726 70.5873 2.52241 61.2456C2.01395 60.7225 1.5618 60.1472 1.17349 59.529C-0.342155 56.8567 -0.590733 54.1266 1.63423 51.7709C3.85919 49.4152 6.48429 49.96 8.93963 51.5C12.5044 53.7371 16.0025 56.0806 20.0584 58.7255C20.0584 52.3035 20.0584 46.5055 20.0584 40.7075C20.0766 33.3907 20.1099 26.075 20.1584 18.7602C20.1887 14.4992 21.768 12.4357 24.9842 12.3687C28.3186 12.3017 30.0222 14.4536 30.0374 18.8941C30.0677 25.8365 30.0495 32.7881 30.0495 40.2905Z" fill="black"/>
<path d="M8.18862 17.5703C8.16327 14.0708 9.19167 10.6453 11.139 7.74291C13.0863 4.84048 15.8617 2.5966 19.1012 1.30543C22.3569 -0.0251744 25.9347 -0.346821 29.374 0.381902C32.8134 1.11062 35.9567 2.85636 38.3993 5.39432C40.8419 7.93228 42.4719 11.1463 43.0795 14.6225C43.6871 18.0986 43.2445 21.6779 41.8086 24.8993C41.4154 25.7939 40.9058 26.6321 40.2929 27.392C39.1198 28.8164 37.6133 29.6625 35.8218 28.6094C33.9121 27.4894 34.2486 25.7393 35.0731 24.1232C36.0795 22.1509 36.9494 20.2 36.9525 17.9051C36.9525 13.1267 34.3971 8.91743 30.0593 7.25259C25.6094 5.54819 21.4535 6.13256 17.913 9.53528C14.4997 12.8163 13.5176 17.5429 15.3061 21.9592C15.6729 22.8722 16.176 23.7062 16.5731 24.5949C17.3673 26.3572 17.2734 28.095 15.5122 29.0812C13.751 30.0673 12.2384 29.0812 11.1714 27.5381C9.11866 24.6322 8.07095 21.131 8.18862 17.5703Z" fill="black"/>
<path d="M47.7013 3.77734C48.2249 4.1173 48.7308 4.48404 49.217 4.87608C52.3756 7.70052 55.4796 10.5889 58.6867 13.3555C60.3236 14.7677 60.1265 15.836 58.5988 17.16C55.4917 19.8596 52.4786 22.6689 49.4079 25.4111C48.8017 25.959 48.159 26.7899 47.2345 26.3242C46.3857 25.892 46.4221 24.9333 46.4221 24.0598C46.4362 18.1126 46.4362 12.1644 46.4221 6.21525C46.4221 5.17435 46.6495 4.34041 47.7013 3.77734Z" fill="black"/>
<path d="M61.663 15.1019C61.663 12.0583 61.663 9.01469 61.663 5.94981C61.663 5.18587 61.7085 4.40976 62.4481 4.05061C63.2484 3.66104 63.8031 4.32148 64.3275 4.79324C67.5831 7.72725 70.8084 10.6947 74.0731 13.6196C75.2159 14.6392 75.3796 15.6527 74.2277 16.6997C70.8933 19.7433 67.5589 22.7565 64.185 25.73C62.6967 27.0418 61.7145 26.6431 61.6751 24.6252C61.5994 21.4477 61.6448 18.2733 61.663 15.1019Z" fill="black"/>
</g>
<defs>
<clipPath id="clip0_1077_532">
<rect width="75" height="91" fill="white"/>
</clipPath>
</defs>
</svg>
