<svg id="Layer_1" data-name="Layer 1" xmlns="http://www.w3.org/2000/svg" viewBox="0 0 260.59 260.51"><defs><style>.cls-1,.cls-2,.cls-3{stroke:#000;stroke-miterlimit:10;}.cls-1,.cls-2{stroke-width:2px;}.cls-2,.cls-3{fill:none;}.cls-3{stroke-width:3px;}</style></defs><path class="cls-1" d="M1947.55,618c-6.74-6.62-13.4-13.29-20.06-20-1.92-1.87-3.82-3.75-5.67-5.67-5.71-5.69-11.42-11.36-17.09-17.09-1.9-1.86-3.79-3.71-5.63-5.63q-8.58-8.51-17.06-17.07c-1.9-1.87-3.79-3.73-5.64-5.64-5.74-5.74-11.51-11.43-17.19-17.23-1.78-1.77-3.53-3.44-5.33-5.34s-1.87-3.52.08-5.18c2.24-1.89,4.29-4,6.5-5.93a266.83,266.83,0,0,1,32.63-24.32,7.59,7.59,0,0,0,3.8-7.41c-.62-2.82-2.14-4.79-5.09-5.43h-6.6c-2.6.63-5.3.4-7.9,1-15.27,3.67-28.65,11-40.78,20.8a4.75,4.75,0,0,1-3.09,1.48c-3,0-5.79-.41-7.73-3.18a27.9,27.9,0,0,0-3-3.06,14.14,14.14,0,0,0-13.06-4.37,10.37,10.37,0,0,0-4,1.48c-5.27,4.11-10.54,8.23-13.09,14.75-1.24,5.14.61,9.41,3.86,13.22,1.47,1.72,3.19,3.22,4.77,4.85,3.65,3.72,2.3,10.65-2.41,12.79a3.25,3.25,0,0,1-1.48.17c-10.31-.3-20.63-.26-30.95-.11a18.88,18.88,0,0,0-4,.25c-3.9.25-7.82.45-11.72.85-.92.15-1.82.32-2.74.42a164.65,164.65,0,0,0-31.38,6.06c-4.63,1.44-9.32,2.85-13.47,5.55a41.57,41.57,0,0,0-7,5.87c-1.4,1.15-1.71,2.83-2.13,4.46v39.36c.42,4,3.21,6.5,5.64,8.76-3.09,2.24-5.26,5-5.64,8.92v37.89a11.12,11.12,0,0,0,4.3,7.89c1,.85,1,1.54,0,2.38a11.13,11.13,0,0,0-4.3,7.85v38.39c.61,4.12,3.16,6.87,6.41,9.16a49.93,49.93,0,0,0,13.55,6.55,165.66,165.66,0,0,0,50.5,7.75h5.72c2.07.16,4.09-.33,6.11.26h7.6c1.87-.55,3.78-.12,5.67-.26h5.68c2.6,0,5.2-.13,7.79-.2a165.23,165.23,0,0,0,36.72-5.51c7-1.81,13.86-4.13,19.82-8.41,3.59-2.57,6.78-5.57,7.23-10.39.2-12,0-23.93,0-35.9a13.49,13.49,0,0,0-4.35-9c-1.35-1.19-1.2-2,.15-2.87a4.08,4.08,0,0,0,.89-.87,14.6,14.6,0,0,0,3.42-10.22c-.23-11.15,0-22.3-.12-33.44a10.25,10.25,0,0,0-.68-2.84,15.84,15.84,0,0,0-4.61-6.6c-.8-1,.19-1.29.67-1.74a13.5,13.5,0,0,0,4.57-10.69c0-2.23,0-4.47,0-7.16,2.56,2.53,4.77,4.75,7,7q2.7,2.53,5.25,5.23,8.84,8.76,17.61,17.61c1.74,1.69,3.46,3.39,5.14,5.14,5.88,5.87,11.78,11.71,17.62,17.63,1.84,1.72,3.49,3.63,5.43,5.24,5,4,13.8,4,18.66-1.87a43,43,0,0,1,4.62-4.63,12,12,0,0,0,4.41-8.14v-5.07C1952,623,1950,620.38,1947.55,618ZM1841.8,506.06a3.73,3.73,0,0,1,.31-.74v0a1.67,1.67,0,0,1,1.2-1.33l.12-.09c1.06-2,3.13-3.47,5-4.64,3.74-2.28,7.09-5,11.19-6.7,3.12-1.28,6.42-2.1,9.51-3.45.31-.2.61-.41.93-.58a14.13,14.13,0,0,1,6.67-1.7,1.51,1.51,0,0,1,1.56,1.18,1.63,1.63,0,0,1-.27,2,18.08,18.08,0,0,1-4,2.29,21.2,21.2,0,0,0-4,2.34,63.34,63.34,0,0,1-7.82,4.81c-.4.32-.78.65-1.16,1a1.57,1.57,0,0,1-.77,1.1c-.33.21-.64.44-1,.67-.53.61-1,1.25-1.52,1.89a1.27,1.27,0,0,1-.3.39v0a1.65,1.65,0,0,1-1.08,1.41c-.44.58-.9,1.16-1.38,1.71a1.41,1.41,0,0,1-1.45.5,1.73,1.73,0,0,1-.59.61c-.5.3-1,.61-1.46.93l-.66.48,0,0,0,0-.26.21a31.68,31.68,0,0,0-2.41,2.22,1.74,1.74,0,0,1-2.39,0,12,12,0,0,1-3.13-3.5,4.71,4.71,0,0,1-.4-1,2.62,2.62,0,0,1-.13-.48,1.46,1.46,0,0,1-.21-.28,1.3,1.3,0,0,1-.2-.63A1.27,1.27,0,0,1,1841.8,506.06Zm4.85,64.38a1.64,1.64,0,0,1-1.16,1.45c-1.72.59-3.24,1.65-5,2.16a49.22,49.22,0,0,1-5.37,1.12c-1.42.23-2.84.49-4.27.71-.34.07-.67.15-1,.21-2.33.4-4.68.56-7,1.11a71.21,71.21,0,0,1-7,1.66,41,41,0,0,1-5.87.22,25.44,25.44,0,0,1-8.87,1.12,1.92,1.92,0,0,1-1.23-.66,1.72,1.72,0,0,1-.95-3.16c2.38-1.38,3.93-3.81,5.81-5.75a50.56,50.56,0,0,0,5.18-6.57,61.43,61.43,0,0,1,4.59-5.94c1.53-1.71,3.68-3,4.84-5,.93-1.58,1.79-3.14,3.45-3.94a1.16,1.16,0,0,1,.16-.4,1.33,1.33,0,0,1,.43-.48,1.29,1.29,0,0,1,.58-.3l.59-.07a3.23,3.23,0,0,1,3.94-.13c2.82,1.74,4.79,4.92,6.68,7.55.16.23.33.45.49.67s.36.45.54.66c1,1.2,2.07,2.34,3.15,3.45,2.18,2.23,4.44,4.37,6.53,6.68a2.2,2.2,0,0,1,.26.39C1847.85,567.27,1848.46,569.94,1846.65,570.44Zm-25.05-53.33c.07-.09.13-.19.2-.29a41.23,41.23,0,0,1,3.86-4.6,1.58,1.58,0,0,1,1.37-.46,13.33,13.33,0,0,1,1.68-1.51,1.69,1.69,0,0,1,.19-.52,1.86,1.86,0,0,1,.71-.68c0-.12.05-.23.06-.34a1.65,1.65,0,0,1,.78-1,1.69,1.69,0,0,1,1.3-.17,1.72,1.72,0,0,1,1,.77,1.33,1.33,0,0,1,.2.63,1.28,1.28,0,0,1,0,.55.54.54,0,0,1,0,.11,12.14,12.14,0,0,1,2.25,1.73c1.18,1.1,2.19,2.39,3.4,3.46a1.3,1.3,0,0,1,.38.56,14.42,14.42,0,0,1,3.67,4.33,1.67,1.67,0,0,1,0,1.71,49,49,0,0,1-5.66,6.39c-2,2-4.45,3.62-6.19,5.88-1.11,1.44-2.25,3.28-3.88,4.26-.06.16-.13.32-.2.48a1.76,1.76,0,0,1-.14.23,3.42,3.42,0,0,1-.4.52,3.2,3.2,0,0,1-.42.33l-.09.06a2.08,2.08,0,0,1-1,.27h0l-.24,0a1.84,1.84,0,0,1-.24,0,2.52,2.52,0,0,1-.48-.19l-.09,0a3.57,3.57,0,0,1-.38-.3l0,0a2.62,2.62,0,0,1-.42-.57c-.09-.18-.16-.37-.24-.56s0-.13-.08-.2,0-.11,0-.17l-.12-.23a8.32,8.32,0,0,1-1.21-1.42l-1.1-.5-1.51-.67h0l-.42-.18-.75-.28a1.74,1.74,0,0,1-1.18-2.08h0c-1.91-1.27-3.5-2.89-3.47-5.33a1.68,1.68,0,0,1,1.11-1.57,10.71,10.71,0,0,1,1.48-1.53,2,2,0,0,1,.36-.56,1.64,1.64,0,0,1,.87-.46l.69-.54c.17-.19.35-.37.53-.55l-.08-.1a1.7,1.7,0,0,1,.61-2.31,14.11,14.11,0,0,0,2.25-1.17,2.07,2.07,0,0,0,.24-.17l0-.06a5.42,5.42,0,0,1,.44-.37l.21-.22.08-.11Zm-19.22-4.82a1.77,1.77,0,0,1-1.19-1.62,41.52,41.52,0,0,1,.38-4.45,1.69,1.69,0,0,1,.23-.85l.27-.35a1.56,1.56,0,0,1,.88-.45c0-.11.08-.23.13-.34a7,7,0,0,1,2.07-2.53,18,18,0,0,1,3.17-2,6,6,0,0,1,1.83-1.69,4.26,4.26,0,0,1,4.34.29,21.15,21.15,0,0,1,3.94,3c.35.33.7.69,1,1.07a1.86,1.86,0,0,1,.91,1.18,7.12,7.12,0,0,1,.76,1.41l.08.09a1.63,1.63,0,0,1-.29,2,4.66,4.66,0,0,1-1.5,2.36c-1.33,1.21-2.79,2.27-4.14,3.46l-.77.71c-.44.48-.9,1-1.37,1.4l-.31.28a5.4,5.4,0,0,1-1.64,1.73c-2.25,1.46-4.7.27-6.33-1.49A13.74,13.74,0,0,1,1802.38,512.29ZM1799.52,550a37.58,37.58,0,0,1,7-9,1.63,1.63,0,0,1,1.4-1.9,1.87,1.87,0,0,1,1.19-1.29c1.55-.63,3.25-.77,4.29.79a10.25,10.25,0,0,1,.84,1.73,1.6,1.6,0,0,1,.4.28,14.73,14.73,0,0,1,1.88,2.62,1.73,1.73,0,0,1,.19,1.16,1.94,1.94,0,0,1,.23.83,1.71,1.71,0,0,1-1.7,1.69,1.82,1.82,0,0,1-.87-.25,9.42,9.42,0,0,1-1.13,1,18.6,18.6,0,0,0-3.83,4.51A127.81,127.81,0,0,1,1801,563c-1.22,1.47-2.49,3-3.63,4.66a16.07,16.07,0,0,1-1.35,2.11c-.24.41-.47.82-.68,1.24s-.25.91-.41,1.34a1.88,1.88,0,0,1-.47.7c-.14.36-.28.73-.39,1.1-.6,2.09-3.87,1.2-3.26-.9a20.57,20.57,0,0,1,1.33-3.34c0-.16.09-.33.13-.49a1.92,1.92,0,0,1-.23-.48,1.78,1.78,0,0,1,.17-1.3c.3-.55.63-1.07,1-1.6a1.64,1.64,0,0,1-.18-1.22,43,43,0,0,1,3-7.85A76.72,76.72,0,0,1,1799.52,550Zm-97.45,10.85a2.86,2.86,0,0,1,1.32-1.71,2.4,2.4,0,0,1,.75-.3,2.89,2.89,0,0,1,.85-.53c.06-.09.11-.18.18-.27,1.46-1.81,4.28-3.21,6.34-4.23a13,13,0,0,1,3.88-1.13,3.31,3.31,0,0,1,.33-.15c2.55-.83,4.75-2.09,7.45-2.46h0a2.74,2.74,0,0,1,1.86-.77c3.94-.15,8.11-1.39,12-2,1.86-.27,3.67-.55,5.48-.78a2.47,2.47,0,0,1,1.57-.87,89.05,89.05,0,0,1,17.92-1.28,2.35,2.35,0,0,1,.4-.14c4.51-1.16,9.32-.9,13.93-.86a2.64,2.64,0,0,1,2,.81l.24,0c3.48,0,7.32.11,10.73-.6a3,3,0,0,1,.41,0,2.6,2.6,0,0,1,.4-.1,3,3,0,0,1,.52,0,3.34,3.34,0,0,1,.65.06l.16.05c.13,0,.27.08.39.13l.16.09a3.37,3.37,0,0,1,.32.19l.14.13a1.31,1.31,0,0,1,.24.23s.09.12.14.18l0,0h0a1.73,1.73,0,0,1,.69,1.69h0a1.9,1.9,0,0,1-.2.61,2.7,2.7,0,0,1-1.29,2,3.4,3.4,0,0,1-.54,1.5,7.72,7.72,0,0,1-.56.72.35.35,0,0,1-.07.09l-.14.22a25.66,25.66,0,0,0-1.51,3.29c-.51,1.16-1.06,2.31-1.65,3.43s-.95,2-1.45,3.17a1.94,1.94,0,0,1-.15.24c-.39,1.3-.86,2.58-1.19,3.92a16.21,16.21,0,0,0-.36,1.68,7.78,7.78,0,0,1-.53,1.81,15.08,15.08,0,0,0-.85,3.33s0,0,0,.06l0,.17a1.09,1.09,0,0,1-.12.36c-.17.47-.31.95-.45,1.43l.12.16a1.86,1.86,0,0,1,.17,1.31c-.1.47-.17.94-.27,1.41a6.93,6.93,0,0,1-.36,1.2,1.42,1.42,0,0,1,0,.2,4,4,0,0,1-.39.81,7.25,7.25,0,0,1-.58.76l-.18.19a2.64,2.64,0,0,1-.5.38,2.58,2.58,0,0,1-.48.21h0l-.21,0-.26,0a1.8,1.8,0,0,1-1.3-.53s0,0,0,0a1.48,1.48,0,0,1-1.4-.27h-.12l-.43,0-.4.08a13.66,13.66,0,0,1-2.55.3h-1.1a1.63,1.63,0,0,1-1.07.37c-2.61,0-5.2-.34-7.8-.35s-5.32-.36-8-.44a1.59,1.59,0,0,1-1.46-1c-1.2,0-2.41,0-3.62,0-1.75-.06-3.47-.42-5.21-.55a80,80,0,0,1-9.14-1.4,1.69,1.69,0,0,1-1.38-.09,6.36,6.36,0,0,0-.71-.31l-.15,0a1.46,1.46,0,0,1-.51-.18,25.11,25.11,0,0,0-3.62-.61,49.76,49.76,0,0,1-5.7-1.21c-1.63-.43-3.26-.88-4.86-1.4a52.07,52.07,0,0,1-7.18-2.69,19.38,19.38,0,0,1-4.54-2.41c-.27-.21-.54-.43-.81-.68l-.4.06a2.9,2.9,0,0,1-2.76-2.1,11.88,11.88,0,0,1-.27-1.32,3.61,3.61,0,0,1-.44-.79c0-.1-.09-.21-.14-.31A3.12,3.12,0,0,1,1702.07,560.82Zm-.2,54.74a5.8,5.8,0,0,1,4.23-3,1.57,1.57,0,0,1,1.19-.55c3-.06,5.7,1.39,8.58,2.1s6,1.35,8.92,2,6,.8,9,1.31a51.31,51.31,0,0,0,8,.92,1.54,1.54,0,0,1,1.27.6c1.91.27,3.8.63,5.7,1a57,57,0,0,0,8,.76c5.55.21,11.08.32,16.63.32a1.66,1.66,0,0,1,.8.2l2.39.27c2,0,4,0,5.93-.07a17.79,17.79,0,0,1,2.53-.11l.3,0c1.65,0,3.3-.11,5-.19,4.8-.25,9.62-1,14.43-1.07a1.62,1.62,0,0,1,1-.29,56.75,56.75,0,0,0,11-1.13c1.75-.34,3.52-.65,5.3-.85s3.67-.19,5.49-.56c3.68-.77,7.38-1.46,11-2.22l1.41-.28a1.58,1.58,0,0,1,1.61-1.4,9.37,9.37,0,0,0,3.5-.72,17.06,17.06,0,0,1,3.62-1.19,6.71,6.71,0,0,1,3.81.39,11.1,11.1,0,0,1,2.51,1.7c1.65,1.41,3.22,3.55,2.14,5.77a5.85,5.85,0,0,1-2.13,2.12c-.38.26-.77.5-1.13.77l-.11.09-.32.29-.79.67a72.23,72.23,0,0,1-6.74,4.34,1.77,1.77,0,0,1-.7.26,28.57,28.57,0,0,1-6.34,2.28,1.89,1.89,0,0,1-.57.05h-2.89a1.1,1.1,0,0,1-.21.14c-4.56,2.47-9.74,2-14.72,2.57-3,.35-6,1.19-9.07,1.59-2.8.36-5.62.64-8.44.91a16.75,16.75,0,0,1-2.45.56c-2.18.3-4.35.66-6.53,1a1.33,1.33,0,0,1-1.07-.39c-2.63.22-5.28.28-7.91.33-3.1.06-6.21.09-9.31,0-2.89-.11-5.71-1-8.62-.85a1.51,1.51,0,0,1-1.13-.38,17.77,17.77,0,0,1-3.31-.5c-2.16.12-4.33.26-6.5.21-3.81-.1-7.66-.68-11.44-1.11-3.93-.45-7.85-1-11.76-1.65-3.72-.58-7.25-1.81-10.93-2.6l-.24-.08a21.53,21.53,0,0,1-6.66-1.85c-2.24-1-4.5-2-6.64-3.15a18.36,18.36,0,0,1-2.54-1.65,1.72,1.72,0,0,1-1.28-.16,7.29,7.29,0,0,1-2.42-2.3A5.36,5.36,0,0,1,1701.87,615.56Zm-.81,32.58a1.65,1.65,0,0,1,.49-1.2,1.4,1.4,0,0,1,.34-.26c-.22-1.54-.34-3.1-.44-4.66-.1-1.78-.13-3.56-.23-5.34a27.88,27.88,0,0,1,.09-5.48,1.7,1.7,0,0,1,2.08-1.18,2.18,2.18,0,0,1,.23.09,1.43,1.43,0,0,1,.55.21c.49.32.93.66,1.36,1a1.51,1.51,0,0,1,.28.15q1.15.74,2.34,1.38a1.57,1.57,0,0,1,1.43-.29c5.87,1.49,11.42,4.35,17.48,5.12a2.17,2.17,0,0,1,.94.34c2.77.58,5.51,1.31,8.29,1.87,1.73.15,3.47.24,5.19.43s3.66.56,5.51.72c.45,0,.91.06,1.36.11,2.54.25,5.08.52,7.62.79,3.88,0,7.76.12,11.64.3,4.55.21,9.09.61,13.65.54,9.13-.15,18.26-.89,27.38-1.25,1.78-.25,3.58-.37,5.37-.5,2.07-.16,4-.64,6.08-1s4-.55,6-1,3.8-1,5.72-1.37c2.1-.43,4.23-.54,6.33-1s4.05-1.07,6.08-1.61c.89-.24,1.79-.49,2.68-.76l.16-.07c2.69-1,5.54-1.58,7.88-3.31a2.37,2.37,0,0,1,.34-.19,1.06,1.06,0,0,1,.15-.15,1.2,1.2,0,0,1,.52-.48,1.46,1.46,0,0,1,.44-.2l.45-.06a1.6,1.6,0,0,1,.85.23l.35.26a1.4,1.4,0,0,1,.35.55,1.32,1.32,0,0,1,.14.65,1,1,0,0,1,0,.39.76.76,0,0,1,0,.15c-.64,3.92-.46,7.91-.73,11.87a1.89,1.89,0,0,1,.32.95,29.4,29.4,0,0,1-.31,7.73,7.57,7.57,0,0,1-.13,1.24,1.59,1.59,0,0,1-1.33,1.19,5.78,5.78,0,0,1-.64.94,7.85,7.85,0,0,1-3.5,2.24,1.15,1.15,0,0,1-.52.43c-7.08,3-14.74,4.88-22.16,6.89s-15.19,3.9-22.89,4a1.78,1.78,0,0,1-.8.21c-4.14,0-8.2.89-12.35.83-2.53,0-5,0-7.56,0-2.73.11-5.46.12-8.2.1-7.15.11-14.29.14-21.44.14a1.53,1.53,0,0,1-1.41-.8c-4.52-.25-9-.52-13.56-.62a1.55,1.55,0,0,1-1.37-.79c-6-.51-12-2.55-17.62-4.55-3.44-1.22-6.8-2.64-10.12-4.16-1-.47-2-1-3-1.46a11.33,11.33,0,0,1-4.56-2.52,27.72,27.72,0,0,1-3.37-3.22,1.73,1.73,0,0,1,0-2.39,1.78,1.78,0,0,1,.26-.22A9.57,9.57,0,0,1,1701.06,648.14Zm157.12,44.42c-.08,1.89-.15,3.76-.29,5.65a51.62,51.62,0,0,0-.14,5.42,30.57,30.57,0,0,1-.06,5.24,5.83,5.83,0,0,1-2.18,3.8,1.61,1.61,0,0,1,.21.3,1.69,1.69,0,0,1-.6,2.31,33.19,33.19,0,0,1-12.93,3,31,31,0,0,0-4.25,1.68,2,2,0,0,1-1.15.18c-.84.31-1.69.61-2.56.85s-1.66.44-2.51.65a1.66,1.66,0,0,1-1.46,1,24.23,24.23,0,0,0-4.21.88c-1.29.32-2.6.58-3.9.87a50.39,50.39,0,0,1-8.59.92c-3,.15-6,.16-8.93.14a2.38,2.38,0,0,1-.39,0c-3.84-.06-7.64.4-11.47.69-1.56.11-3.12.15-4.68.17a1.58,1.58,0,0,1-1.15.47c-1.69,0-3.41.09-5.13.16a10.8,10.8,0,0,1-1.72.13c-.48,0-1,0-1.44,0a48.39,48.39,0,0,1-8.18-.35c-1.21-.11-2.41-.22-3.61-.35l-2.41,0a91.75,91.75,0,0,1-11.83-.61c-1.47-.19-2.94-.41-4.4-.64l-1.29-.06a1.75,1.75,0,0,1-2,2.34c-4.68-1.09-9.46-1.68-14.19-2.51a65.5,65.5,0,0,1-13.12-3.65,44.54,44.54,0,0,1-9-4.56,1.56,1.56,0,0,1-.54.51,1.71,1.71,0,0,1-2.31-.61c-.67-1.29-1.41-2.56-2.1-3.84a14.94,14.94,0,0,1-2.26-2.5,1.46,1.46,0,0,1-.16-.3,1.73,1.73,0,0,1-.44-2.09,1.66,1.66,0,0,1-.39-1,1.48,1.48,0,0,1,.25-.85l0,0a1.73,1.73,0,0,1,0-2.4,1.59,1.59,0,0,1,1.28-.47l0,0c-.06-1.17-.09-2.34,0-3.51a38.91,38.91,0,0,1-.07-10.34,2.33,2.33,0,0,1,.22-.75,2.7,2.7,0,0,1-.15-.76c-.14-2.06,2.86-2.16,3.32-.35a.06.06,0,0,1,0,0l.08.05a5.32,5.32,0,0,1,.67.42,17.22,17.22,0,0,0,1.68.8c1.27.54,2.53,1.12,3.82,1.59a91.1,91.1,0,0,0,12,3c7.8,1.62,15.7,3,23.59,4.11a46.78,46.78,0,0,1,5.92,0c2.3,0,4.57.13,6.86.32s4.61.43,6.93.5,4.55,0,6.82.19a1.86,1.86,0,0,1,.34.06c2,0,4,.24,6,.4,2.24.18,4.5.16,6.75.31a46.1,46.1,0,0,0,6.85.15c2.29-.19,4.56-.53,6.86-.58a1.58,1.58,0,0,1,1-.34,105.12,105.12,0,0,0,15.84-1.41c5.22-.8,10.45-1.48,15.48-3.14a1.44,1.44,0,0,1,1.39.2c1.25-.32,2.46-.89,3.73-1.13a33.91,33.91,0,0,0,5-1.33c2.8-.93,5.88-1.65,8.25-3.49a1.72,1.72,0,0,1,2.39,0h0c.76-.45,1.46-1,2.23-1.41a1.72,1.72,0,0,1,2.49,1C1858.64,689.31,1858.25,690.9,1858.18,692.56Zm.39-15.84-.27.34a1.66,1.66,0,0,1-1.19.49,1.29,1.29,0,0,1-.65-.14,18.09,18.09,0,0,1-3,2.69,19,19,0,0,1-7.22,3,1.61,1.61,0,0,1-1.34.81c-1.67.13-3.07,1.33-4.63,1.83-1.75.56-3.62.53-5.37,1s-3.44,1.37-5.21,1.89a23.1,23.1,0,0,1-6.07.85,1.51,1.51,0,0,1-1.26-.55c-1.47.37-3,.74-4.44,1-3.91.76-7.89,1-11.82,1.73-4.1.72-8.18.59-12.32.73-3.67.13-7.32,0-11,0a1.6,1.6,0,0,1-1.12.42c-3.86,0-7.73.11-11.59.05a53.47,53.47,0,0,1-5.65-.3c-1.77-.23-3.53-.58-5.31-.82a2,2,0,0,1-1.47-.88,38.94,38.94,0,0,0-6.74.18,1.55,1.55,0,0,1-1.54-1.06c-1.85-.13-3.7-.28-5.55-.48q-3.62-.37-7.22-.88a1.61,1.61,0,0,1-1.55.41c-2.08-.51-4.24-.53-6.34-1.07a52.33,52.33,0,0,1-6-2.16l-2.16-.83A1.47,1.47,0,0,1,1719,685a28.21,28.21,0,0,0-3.21-1.71c-1.06-.42-2.11-.86-3.15-1.33-1.56-.62-3.13-1.2-4.66-1.84-1.75-.74-3.93-1.63-4.79-3.46a4.12,4.12,0,0,1-.28-.93,1.29,1.29,0,0,1-.27-.45,1.32,1.32,0,0,1-.14-.65,6.11,6.11,0,0,1,.09-1,1.36,1.36,0,0,1,0-.2,1.22,1.22,0,0,1,0-.27,3,3,0,0,1,.11-.67,1.77,1.77,0,0,1,.36-.64,1.66,1.66,0,0,1,1.5-1.35,4.92,4.92,0,0,1,.93-.89,16.11,16.11,0,0,1,4.08-1.71,1.36,1.36,0,0,1,1.73.51,1.77,1.77,0,0,1,.77.23c.12.08.23.17.34.26l0,0c1.48.3,2.95.75,4.47,1.13,3.64.91,7.29,2,11,2.69s7.48.89,11.19,1.6c3.12.59,6.19,1.51,9.34,1.87a1.35,1.35,0,0,1,1.06-.37,8.11,8.11,0,0,1,1.23.24,1.57,1.57,0,0,1,1.23-.56,26.2,26.2,0,0,1,4.83.64c1.59.29,3.18.38,4.77.56,3.23.37,6.45.75,9.69,1,2.69.17,5.39.2,8.08.25a1.46,1.46,0,0,1,1.24-.52c7,.2,14-.54,20.93-.94,3.47-.2,6.95-.43,10.4-.9,3.2-.44,6.42-.75,9.61-1.19a1.59,1.59,0,0,1,1-.32c5,0,9.94-1.25,14.77-2.59a118.92,118.92,0,0,0,12.24-3.66c3.08-1.23,6.66,1.26,8,4,0,.11.09.23.14.34a1.43,1.43,0,0,1,.29.36,14.42,14.42,0,0,1,.68,1.56,3.13,3.13,0,0,1,.16.6,5.07,5.07,0,0,1,.09,1.09A1.73,1.73,0,0,1,1858.57,676.72Zm-.47-77.65a1.85,1.85,0,0,1-1.34,1.21,7.77,7.77,0,0,1-1.33,1.49,13.65,13.65,0,0,1-5.13,2.51,1.84,1.84,0,0,1-1.59,1.15,37.18,37.18,0,0,0-8,2.3c-2.64.92-5.37,1.49-8.05,2.26a83.87,83.87,0,0,1-8.66,2.21c-1.06.19-2.13.33-3.2.47a1.36,1.36,0,0,1-1.48.84c-3-.26-6,.38-8.93.76s-5.93.42-8.89.53c-3.17.11-6.36.1-9.52.34s-6.51.75-9.79.77a1.5,1.5,0,0,1-1.43-.82c-4.15.27-8.3.56-12.47.57a1.52,1.52,0,0,1-1.25-.57,53.36,53.36,0,0,1-9.46.11c-3.59-.23-7.24-.33-10.79-.82-1.77-.25-3.46-.82-5.23-1.08a28,28,0,0,1-5.15-1c-1-.36-2.1-.64-3.14-1a20.76,20.76,0,0,1-6-1,1.82,1.82,0,0,1-1.06-.93c-.89-.41-1.76-.87-2.68-1.25a23.62,23.62,0,0,0-3.9-1.05,8.13,8.13,0,0,1-1.83-.7c-.47-.12-.94-.25-1.4-.41-1.55-.52-3.07-1.13-4.65-1.55a7.29,7.29,0,0,1-3.48-1.47l-.81-.24a6.93,6.93,0,0,1-3.93-3.3,12.86,12.86,0,0,1-1.35-5.05,17.63,17.63,0,0,1,.21-5.23.88.88,0,0,1,0-.15,100,100,0,0,0,.08-10.39,1.37,1.37,0,0,1,0-.36,3.94,3.94,0,0,1-.23-1.41c0-.07,0-.13,0-.19l0-.19a1.67,1.67,0,0,1,.23-.85l.26-.35a1.4,1.4,0,0,1,.55-.35,1.58,1.58,0,0,1,1.3,0,1.4,1.4,0,0,1,.55.35l.38.38v0l.06.07s0,0,0,0a27,27,0,0,1,3.36,1.68,46.37,46.37,0,0,0,4.73,1.78,44.36,44.36,0,0,0,10.4,2.87,2.06,2.06,0,0,1,1,.38,28.84,28.84,0,0,1,3.23,1c3,.25,6.1.18,9.1.58,2.61.34,5.2.84,7.83,1s5.15.25,7.73.63a1.39,1.39,0,0,1,1,.77,104.91,104.91,0,0,1,13-.1c2.29.09,4.6.15,6.89.36s4.69.78,7.07.81a1.56,1.56,0,0,1,1.39.79h.26a4.94,4.94,0,0,1,3.92-1.22q.66.06,1.32.18l.5.09.3,0h.15c.76.07,1.52.09,2.28.09a1.64,1.64,0,0,1,1.06-.37c4,0,8.08-.23,12.12-.14.63,0,1.24,0,1.84,0l.37-.08a2.66,2.66,0,0,1,.63,0,24.07,24.07,0,0,0,3-.55,40.74,40.74,0,0,1,5.62-.72,1.6,1.6,0,0,1,1-.35c5.18,0,10.35-1.33,15.41-2.33a92.32,92.32,0,0,0,13.83-3.46,1.87,1.87,0,0,1,.26-.35,1.74,1.74,0,0,1,1.2-.5,14.67,14.67,0,0,0,1.75-.1l.41-.08c.7-.36,1.4-.72,2.13-1a29.66,29.66,0,0,0,4.51-2,1.71,1.71,0,0,1,2.55,1.46c-.14,3.63-.46,7.24-.44,10.87,0,.54,0,1.09,0,1.64a2.06,2.06,0,0,1,.53,1.2A17.78,17.78,0,0,1,1858.1,599.07Z" transform="translate(-1692.76 -475.02)"/><path d="M1764.05,734.48a.9.9,0,0,0,0-.43h6c.23,0,.31.11.27.22s-.09.18-.15.18Z" transform="translate(-1692.76 -475.02)"/><path d="M1770.11,734.48a3,3,0,0,1-.12-.4c2.07,0,4.17-.56,6.18.4Z" transform="translate(-1692.76 -475.02)"/><path d="M1795.4,734.05a.7.7,0,0,0-.05.43h-6.06c-.18-.14-.22-.25-.13-.32a.31.31,0,0,1,.23-.08Z" transform="translate(-1692.76 -475.02)"/><path d="M1789.39,734.08a2.92,2.92,0,0,1-.1.4h-5.55C1785.57,733.54,1787.5,734.08,1789.39,734.08Z" transform="translate(-1692.76 -475.02)"/><path class="cls-2" d="M1831,508.14c4,4,7.72,7.87,11.54,11.65.77.77.8,1.2,0,2q-8.43,8.34-16.78,16.76c-.67.68-1.09.8-1.82.06q-5.3-5.39-10.68-10.72c-.68-.68-.72-1.1,0-1.81C1819.1,520.16,1824.94,514.23,1831,508.14Z" transform="translate(-1692.76 -475.02)"/><path class="cls-2" d="M1879.8,486.26c-3.61,2.69-7,5.15-10.44,7.72a236.4,236.4,0,0,0-20.4,17.26c-1.15,1.09-1.93,1.34-2.93,0a13.79,13.79,0,0,0-1.42-1.44c-3.65-3.65-3.68-3.67.33-6.79a94.53,94.53,0,0,1,33.85-16.71A4.87,4.87,0,0,1,1879.8,486.26Z" transform="translate(-1692.76 -475.02)"/><path class="cls-2" d="M1790.59,575.49a89.36,89.36,0,0,1,19.75-38.64c1.63,1.75,3.09,3.49,4.72,5,1.27,1.17,1.29,1.93.08,3.21a251.63,251.63,0,0,0-18.72,22.39C1794.46,570.11,1792.54,572.81,1790.59,575.49Z" transform="translate(-1692.76 -475.02)"/><path class="cls-2" d="M1812.23,497.63a3.82,3.82,0,0,1,3,1.13c2.14,2.12,4.24,4.27,6.36,6.4-1.44,2.4-3.73,4-5.6,6s-3.7,3.64-5.47,5.54c-.91,1-1.5.87-2.36-.06-1.7-1.85-3.57-3.54-5.26-5.39a4.07,4.07,0,0,1-.14-5.88c2.15-2.34,4.47-4.53,6.73-6.74A3.67,3.67,0,0,1,1812.23,497.63Z" transform="translate(-1692.76 -475.02)"/><path class="cls-1" d="M1852.38,536.1l-11.61,11.41a3.27,3.27,0,0,0-.46,1.11c-1.81-1.73-3.56-3.51-5.39-5.19-.85-.78-.67-1.26,0-2q5.28-5.19,10.48-10.47c.67-.67,1.13-1.05,2-.11C1849,532.67,1850.72,534.36,1852.38,536.1Z" transform="translate(-1692.76 -475.02)"/><path class="cls-1" d="M1693.88,598.69a16.58,16.58,0,0,0,5.87,8.08s-5.87,4.81-5.87,9.62" transform="translate(-1692.76 -475.02)"/><path class="cls-1" d="M1693.88,654.72a16.58,16.58,0,0,0,5.87,8.08s-5.87,4.81-5.87,9.62" transform="translate(-1692.76 -475.02)"/><path class="cls-1" d="M1795.09,727.45a1.62,1.62,0,0,1-1.58,2.08,36.72,36.72,0,0,1-6.62-.88,1.52,1.52,0,0,1-1.41.76,35.4,35.4,0,0,1-6.92-1.18,1.56,1.56,0,0,1-1.16.48c-5,.07-9.87-.91-14.74-1.9a1.7,1.7,0,0,1-2.07,1.46,85.33,85.33,0,0,0-10.8-1.53,17.32,17.32,0,0,1-5.81-1.17,1.38,1.38,0,0,1-.5,0,97.92,97.92,0,0,1-14.08-2.78,43.12,43.12,0,0,1-6.64-2.31c-1.37-.63-2.74-1.58-4.18-2.17a1.73,1.73,0,0,1-2,1,36.66,36.66,0,0,1-8.08-3.38,14.12,14.12,0,0,1-3.6-2.37c-.89-.85-1.35-2-2.2-2.71a1,1,0,0,1-.29-.37l-8.57-1.56s-5.64,26.84,82.34,25.5c0,0,34.24-.13,45.38-2.2Z" transform="translate(-1692.76 -475.02)"/><path class="cls-2" d="M1701.9,629s4.72,6.57,36.87,11.41c0,0,49.52,5.83,81.07.27,0,0,32.45-5.55,37.78-12V651.9s.66,4.26-8.39,7.52c0,0-30.49,10.82-40.24,9.35,0,0-61.08,4.6-83.13-4.54,0,0-19.8-5.89-20.46-7.79,0,0-1.25.11-3.5-4.13Z" transform="translate(-1692.76 -475.02)"/><path class="cls-2" d="M1702.59,573.87s4.73,6.57,36.88,11.42c0,0,49.52,5.83,81.07.27,0,0,32.44-5.55,37.78-12v23.21s.66,4.26-8.4,7.51c0,0-30.48,10.83-40.23,9.36,0,0-61.08,4.6-83.13-4.54,0,0-19.8-5.89-20.46-7.79,0,0-1.25.11-3.51-4.13Z" transform="translate(-1692.76 -475.02)"/><path class="cls-2" d="M1701.9,685.41s4.72,6.57,36.87,11.42c0,0,49.52,5.83,81.07.27,0,0,32.45-5.56,37.78-12v23.21s.66,4.25-8.39,7.51c0,0-30.49,10.83-40.24,9.36,0,0-61.08,4.6-83.13-4.54,0,0-19.8-5.89-20.46-7.79,0,0-1.25.1-3.5-4.13Z" transform="translate(-1692.76 -475.02)"/><path class="cls-2" d="M1709.87,668.36a118.33,118.33,0,0,0,13.46,4.06s26.92,5.53,51.16,5.53c0,0,45,.48,69.54-8l6.12-2.37a10.8,10.8,0,0,1,7.34,5.2s2.36,1.89-.57,3.77c0,0-5.62,8.16-36.75,12.67,0,0-22.75,4.37-53,2.27,0,0-38.44-2.33-48.28-6.94,0,0-13.86-4.77-15.35-8,0,0-2.19-2.85,0-4.57C1703.51,672,1707.73,667.59,1709.87,668.36Z" transform="translate(-1692.76 -475.02)"/><path class="cls-2" d="M1709.17,612.1a118.33,118.33,0,0,0,13.46,4.06s26.92,5.53,51.16,5.53c0,0,45,.48,69.54-8l6.12-2.37a10.81,10.81,0,0,1,7.34,5.19s2.36,1.9-.57,3.78c0,0-5.62,8.16-36.75,12.67,0,0-22.75,4.37-53,2.27,0,0-38.44-2.34-48.27-7,0,0-13.87-4.76-15.36-8,0,0-2.19-2.85,0-4.58C1702.81,615.69,1707,611.33,1709.17,612.1Z" transform="translate(-1692.76 -475.02)"/><path class="cls-2" d="M1797.46,579.52l25.27-30s3.32-4,6.06,0l19.21,20s-9.88,6.77-38.44,8.42Z" transform="translate(-1692.76 -475.02)"/><path class="cls-2" d="M1794.48,544.56s-11.23,14-12.67,31.9c0,0-.26,4.26-3.15,3.57,0,0-59.39.27-73.5-14.28,0,0-6.53-3.63.09-7.24C1705.25,558.51,1724,541.37,1794.48,544.56Z" transform="translate(-1692.76 -475.02)"/><path class="cls-3" d="M1781.46,583.66s-7.18,22.38,7.43,2.61" transform="translate(-1692.76 -475.02)"/></svg>