<svg width="130" height="130" viewBox="0 0 130 130" fill="none" xmlns="http://www.w3.org/2000/svg">
<g clip-path="url(#clip0_1155_491)">
<path d="M96.0059 0.489258H99.2985C100.795 0.808631 101.528 1.7917 101.838 3.19894C101.916 3.93304 101.779 4.67415 101.442 5.33111C101.105 5.98807 100.584 6.53224 99.942 6.8967C94.2151 10.5217 88.7732 14.5789 83.6639 19.0329C82.5614 19.996 81.5388 21.029 80.4213 21.9921C79.4485 22.8205 79.4834 23.6339 80.3814 24.577C81.2794 25.5202 82.1524 26.3585 83.0404 27.2418C85.8739 30.1361 88.7524 32.9755 91.6159 35.8399C92.5388 36.7931 93.4816 37.7212 94.4295 38.6544C97.2498 41.5055 100.087 44.3449 102.94 47.1727C103.858 48.1308 104.801 49.054 105.749 49.9822C108.577 52.8416 111.426 55.671 114.274 58.5104C115.197 59.4686 116.145 60.4067 117.103 61.3399C120.426 64.6983 123.748 68.0268 127.11 71.3203C128.328 72.518 129.305 73.8154 129.505 75.552V78.082C129.425 78.8711 129.19 79.6365 128.812 80.3338C128.435 81.0311 127.922 81.6465 127.305 82.1441C126.479 82.8546 125.709 83.627 125 84.4545C122.576 87.3788 118.201 87.3588 115.691 85.3877C114.723 84.5843 113.9 83.6312 112.982 82.7728C110.069 79.8186 107.126 76.9044 104.192 73.9751C103.354 73.1018 102.496 72.2535 101.628 71.4101C98.7081 68.4659 95.7798 65.5367 92.8431 62.6224C91.995 61.7241 91.122 60.8542 90.224 60.0125C89.1166 58.9047 88.0141 57.7969 86.732 56.5194C86.732 57.8617 86.732 58.9795 86.732 60.0923C86.7733 61.0952 86.59 62.0947 86.1955 63.0177C85.8011 63.9406 85.2054 64.7638 84.4521 65.4269C84.2127 65.6514 83.7188 65.8111 84.1179 66.2952C85.1553 67.1766 85.9474 68.311 86.4177 69.5887C86.5978 70.0425 86.712 70.5197 86.7569 71.0059C86.8068 76.565 86.7021 82.1291 86.8168 87.6932C86.9244 89.553 86.3156 91.3834 85.1156 92.8082C84.9907 92.9747 84.841 93.1211 84.6716 93.2423C83.9982 93.6914 83.9234 94.0807 84.5968 94.6745C85.8685 95.8383 86.6452 97.4459 86.7669 99.1657C86.7669 105.154 86.8667 111.112 86.7669 117.081C86.5424 119.486 84.951 120.983 83.1601 122.265C80.1669 124.401 76.7746 125.559 73.2725 126.462C67.29 128.073 61.1451 129.003 54.9541 129.237C53.662 129.272 52.365 129.332 51.0679 129.336H48.2343C47.2915 129.406 46.3386 129.192 45.4057 129.466H41.6144C40.6166 129.172 39.6189 129.416 38.5663 129.336H35.7127C27.1657 129.358 18.6671 128.054 10.5199 125.469C8.11453 124.727 5.83543 123.625 3.76025 122.201C2.13892 121.058 0.86681 119.705 0.5625 117.629V98.482C0.629537 97.7161 0.854803 96.9725 1.22405 96.2982C1.59331 95.6239 2.09849 95.0336 2.70763 94.5647C3.23144 94.1455 3.23144 93.8012 2.70763 93.377C2.09591 92.9062 1.58917 92.3128 1.21979 91.6348C0.850417 90.9568 0.626547 90.2092 0.5625 89.4398V70.5318C0.75207 68.5358 1.83461 67.1984 3.37611 66.0806C2.16386 64.9528 0.772025 63.7252 0.5625 61.7092V42.0677C0.772025 41.2543 0.926676 40.4159 1.62509 39.8421C2.678 38.7403 3.84909 37.7579 5.11717 36.9128C7.18747 35.5654 9.52716 34.8618 11.8369 34.1432C16.9447 32.6298 22.1875 31.617 27.4914 31.1192C27.9503 31.0693 28.3993 30.9844 28.8583 30.9096C30.8039 30.71 32.7594 30.6102 34.705 30.4854C35.3639 30.3731 36.0328 30.3313 36.7005 30.3607C41.8488 30.2858 46.9971 30.2658 52.1405 30.4155C52.3898 30.4448 52.6426 30.4158 52.8788 30.3307C55.2285 29.2628 55.9019 25.8046 54.0811 23.9482C53.2929 23.1348 52.4348 22.3863 51.7015 21.528C50.0801 19.6267 49.1572 17.4959 49.7758 14.9309C51.0479 11.6773 53.677 9.62134 56.306 7.57037C56.9128 7.18854 57.5924 6.93705 58.3015 6.83183C59.4832 6.60971 60.7021 6.69345 61.8424 7.07512C62.9827 7.45679 64.0066 8.12372 64.8167 9.01255C65.354 9.48241 65.8543 9.99292 66.3133 10.5395C67.2811 11.9218 68.668 12.1364 70.1696 12.1264C70.7573 12.0806 71.307 11.8173 71.7111 11.3879C77.7723 6.47752 84.4322 2.83965 92.0649 0.988279C93.3619 0.698847 94.7089 0.813621 96.0059 0.489258Z" stroke="black" stroke-width="2" stroke-miterlimit="10"/>
<path d="M35.5625 129.476C35.5798 129.406 35.5798 129.332 35.5625 129.262H38.5557C38.6705 129.262 38.7104 129.317 38.6904 129.372C38.6705 129.426 38.6455 129.461 38.6156 129.461L35.5625 129.476Z" fill="#959595"/>
<path d="M38.5911 129.476C38.5665 129.411 38.5465 129.344 38.5312 129.276C39.5639 129.276 40.6115 128.997 41.6143 129.476H38.5911Z" fill="#323232"/>
<path d="M51.2049 129.262C51.1824 129.331 51.1824 129.407 51.2049 129.476H48.1817C48.0919 129.406 48.072 129.352 48.1169 129.317C48.1323 129.303 48.1504 129.292 48.1701 129.285C48.1899 129.278 48.2108 129.275 48.2316 129.277L51.2049 129.262Z" fill="#7F7F7F"/>
<path d="M48.2092 129.276C48.1973 129.344 48.1807 129.411 48.1594 129.476H45.3906C46.3036 129.007 47.2664 129.276 48.2092 129.276Z" fill="#2E2E2E"/>
<path d="M68.9634 16.5273C70.9589 18.5234 72.8147 20.4546 74.7204 22.3409C75.1045 22.7252 75.1195 22.9397 74.7204 23.339C71.9167 26.1135 69.1264 28.9014 66.3494 31.7026C66.0151 32.0419 65.8056 32.1018 65.4414 31.7325C63.6821 29.9394 61.9061 28.1562 60.1135 26.383C59.7743 26.0437 59.7543 25.8341 60.1135 25.4798C63.0269 22.5256 65.9403 19.5664 68.9634 16.5273Z" stroke="black" stroke-width="2" stroke-miterlimit="10"/>
<path d="M93.3083 5.60867C91.5074 6.95104 89.8162 8.17861 88.1001 9.4611C84.555 12.1385 81.164 15.0141 77.9432 18.0742C77.3695 18.6181 76.9804 18.7429 76.4815 18.0742C76.2633 17.8177 76.0265 17.5775 75.7731 17.3556C73.9522 15.5342 73.9373 15.5242 75.9377 13.9673C80.9489 10.0803 86.6923 7.24419 92.8244 5.62862C92.9847 5.60586 93.1467 5.59918 93.3083 5.60867Z" stroke="black" stroke-width="2" stroke-miterlimit="10"/>
<path d="M48.8047 50.1367C50.4552 42.9971 53.8392 36.3745 58.6573 30.8545C59.4705 31.7278 60.1988 32.5961 61.012 33.3496C61.6456 33.9335 61.6555 34.3127 61.0519 34.9515C57.7255 38.492 54.6073 42.2226 51.7131 46.1246C50.7353 47.452 49.7775 48.7993 48.8047 50.1367Z" stroke="black" stroke-width="2" stroke-miterlimit="10"/>
<path d="M59.5978 11.2824C59.8732 11.2623 60.1497 11.3023 60.4081 11.3997C60.6665 11.497 60.9007 11.6494 61.0944 11.8463C62.162 12.9042 63.2096 13.9771 64.2672 15.04C63.5488 16.2377 62.4064 17.0361 61.4735 18.0341C60.5406 19.0322 59.6277 19.8506 58.7447 20.7987C58.2907 21.2977 57.9964 21.2329 57.5674 20.7688C56.7193 19.8456 55.7864 19.0022 54.9433 18.0791C54.7408 17.8942 54.5777 17.6703 54.464 17.4207C54.3503 17.1711 54.2884 16.9011 54.2818 16.6269C54.2753 16.3527 54.3244 16.08 54.426 15.8253C54.5277 15.5706 54.6799 15.3391 54.8735 15.1448C55.9461 13.9771 57.1034 12.8842 58.2309 11.7814C58.4125 11.6092 58.6275 11.4761 58.8626 11.3902C59.0977 11.3044 59.3479 11.2677 59.5978 11.2824Z" stroke="black" stroke-width="2" stroke-miterlimit="10"/>
<path d="M79.6258 30.4805L73.834 36.1744C73.7239 36.3433 73.6461 36.5311 73.6045 36.7283C72.7016 35.865 71.8285 34.9767 70.9156 34.1384C70.4916 33.7491 70.5814 33.5096 70.9406 33.1403C72.6966 31.4137 74.4393 29.6721 76.1687 27.9156C76.5029 27.5812 76.7324 27.3916 77.1664 27.8607C77.9397 28.7689 78.7977 29.6122 79.6258 30.4805Z" stroke="black" stroke-width="2" stroke-miterlimit="10"/>
<path d="M0.5625 61.7139C1.10113 63.327 2.12364 64.7349 3.49085 65.746C3.49085 65.746 0.5625 68.1463 0.5625 70.5465" stroke="black" stroke-width="2" stroke-miterlimit="10"/>
<path d="M0.5625 89.6738C1.10113 91.287 2.12364 92.6949 3.49085 93.7059C3.49085 93.7059 0.5625 96.1062 0.5625 98.5065" stroke="black" stroke-width="2" stroke-miterlimit="10"/>
<path d="M0.536335 116.761C0.536335 116.761 -2.27727 130.154 41.6131 129.486C41.6131 129.486 58.6944 129.421 64.2518 128.388" stroke="black" stroke-width="2" stroke-miterlimit="10"/>
<path d="M4.5625 76.8394C4.5625 76.8394 6.91715 80.1179 22.9558 82.5332C22.9558 82.5332 47.6597 85.4425 63.399 82.6679C63.399 82.6679 79.5873 79.8984 82.2462 76.6797V88.267C82.2462 88.267 82.5755 90.3928 78.0607 92.0196C78.0607 92.0196 62.8502 97.419 57.9863 96.6855C57.9863 96.6855 27.5154 98.9809 16.5154 94.4199C16.5154 94.4199 6.63779 91.4807 6.30854 90.5325C6.30854 90.5325 5.68495 90.5874 4.5625 88.4716V76.8394Z" stroke="black" stroke-width="2" stroke-miterlimit="10"/>
<path d="M4.90625 49.3285C4.90625 49.3285 7.2659 52.6071 23.3045 55.0273C23.3045 55.0273 48.0085 57.9366 63.7477 55.1621C63.7477 55.1621 79.931 52.3925 82.595 49.1738V60.7561C82.595 60.7561 82.9242 62.882 78.4045 64.5038C78.4045 64.5038 63.199 69.9082 58.335 69.1746C58.335 69.1746 27.8642 71.4701 16.8641 66.909C16.8641 66.909 6.98653 63.9698 6.65728 63.0217C6.65728 63.0217 6.03369 63.0766 4.90625 60.9607V49.3285Z" stroke="black" stroke-width="2" stroke-miterlimit="10"/>
<path d="M4.5625 104.989C4.5625 104.989 6.91715 108.267 22.9558 110.688C22.9558 110.688 47.6597 113.597 63.399 110.822C63.399 110.822 79.5873 108.048 82.2462 104.834V116.416C82.2462 116.416 82.5755 118.537 78.0607 120.164C78.0607 120.164 62.8502 125.568 57.9863 124.835C57.9863 124.835 27.5154 127.13 16.5154 122.569C16.5154 122.569 6.63779 119.63 6.30854 118.682C6.30854 118.682 5.68495 118.732 4.5625 116.621V104.989Z" stroke="black" stroke-width="2" stroke-miterlimit="10"/>
<path d="M8.53402 96.4805C10.7302 97.2884 12.9724 97.9649 15.2488 98.5065C15.2488 98.5065 28.6783 101.291 40.7709 101.291C40.7709 101.291 63.2199 101.531 75.4621 97.2989L78.5152 96.1162C79.2761 96.2601 79.9971 96.5664 80.629 97.0142C81.2609 97.462 81.7888 98.0408 82.1769 98.7111C82.1769 98.7111 83.3542 99.6543 81.8925 100.592C81.8925 100.592 79.0889 104.664 63.5592 106.915C63.5592 106.915 52.2099 109.096 37.1192 108.048C37.1192 108.048 17.9427 106.885 13.0338 104.585C13.0338 104.585 6.1195 102.204 5.37619 100.592C5.37619 100.592 4.28367 99.1702 5.37619 98.3119C5.36122 98.2969 7.46644 96.0962 8.53402 96.4805Z" stroke="black" stroke-width="2" stroke-miterlimit="10"/>
<path d="M8.19028 68.4058C10.3864 69.2137 12.6286 69.8902 14.905 70.4318C14.905 70.4318 28.3346 73.1914 40.4271 73.1914C40.4271 73.1914 62.8762 73.431 75.1184 69.1993L78.1715 68.0166C78.9318 68.1602 79.6524 68.4659 80.2842 68.9128C80.916 69.3596 81.4443 69.9373 81.8332 70.6065C81.8332 70.6065 83.0105 71.5546 81.5488 72.4928C81.5488 72.4928 78.7452 76.5648 63.2154 78.8154C63.2154 78.8154 51.8662 80.9961 36.7754 79.9482C36.7754 79.9482 17.5989 78.7805 12.6951 76.455C12.6951 76.455 5.77575 74.0797 5.03244 72.4629C5.03244 72.4629 3.93992 71.0407 5.03244 70.1774C5.01747 70.1973 7.10774 68.0216 8.19028 68.4058Z" stroke="black" stroke-width="2" stroke-miterlimit="10"/>
<path d="M44.3359 56.1494C44.3359 56.1494 45.1341 60.3362 49.6988 56.7532" stroke="black" stroke-width="3" stroke-miterlimit="10"/>
<path d="M52.2344 52.1478L64.8408 37.1772C64.8408 37.1772 66.497 35.1811 67.8639 37.1772L77.4472 47.1576C77.4472 47.1576 72.5184 50.536 58.2707 51.3594L52.2344 52.1478Z" stroke="black" stroke-width="2" stroke-miterlimit="10"/>
<path d="M50.7435 34.7024C50.7435 34.7024 45.1412 41.6887 44.4228 50.6212C44.4228 50.6212 44.2931 52.747 42.8514 52.4027C42.8514 52.4027 13.2236 52.5374 6.18461 45.2767C6.18461 45.2767 2.92701 43.4652 6.22951 41.6638C6.22951 41.6638 15.5833 33.1105 50.7435 34.7024Z" stroke="black" stroke-width="2" stroke-miterlimit="10"/>
</g>
<defs>
<clipPath id="clip0_1155_491">
<rect width="130" height="130" fill="white"/>
</clipPath>
</defs>
</svg>
