<svg width="165" height="181" viewBox="0 0 165 181" fill="none" xmlns="http://www.w3.org/2000/svg">
<g clip-path="url(#clip0_1155_478)">
<path d="M74.8711 144.692C71.6156 152.207 63.9345 155.755 54.9615 153.513C46.3593 151.365 39.298 146.254 33.8934 139.518C30.8232 135.662 29.5546 130.36 27.5214 125.697C25.882 121.998 24.2485 118.293 22.6613 114.57C22.082 113.217 21.2942 112.247 19.7302 112.892C18.1661 113.536 18.3283 114.866 18.9018 116.173C22.4624 124.33 26.0211 132.491 29.5778 140.656C30.0349 141.604 30.6589 142.462 31.4199 143.188C37.0959 149.094 43.9006 153.793 51.428 157.004C50.181 158.552 48.5947 159.791 46.7924 160.625C44.99 161.459 43.0201 161.865 41.0358 161.812C30.1687 161.626 20.4774 158.508 13.7752 149.164C11.7594 146.359 10.8789 143.02 9.64502 139.872C7.1947 133.705 4.82548 127.509 2.46205 121.289C0.902804 117.363 0.0723793 113.185 0.0117188 108.96C0.0117188 106.417 0.996485 104.68 3.41784 103.658C6.17716 102.5 9.11862 101.84 12.1069 101.707C15.2234 101.562 15.5826 101.242 15.235 98.0601C14.6445 93.7181 14.9481 89.3007 16.1271 85.0809C16.6122 83.2771 17.4533 81.5892 18.6005 80.1169C19.7477 78.6446 21.1777 77.418 22.8061 76.5094C28.1875 73.4664 33.9281 71.7243 40.1379 71.8636C42.1075 71.8985 43.237 71.2365 43.4688 69.2388C43.5088 68.998 43.5688 68.761 43.6483 68.5303C47.1935 54.9414 59.2887 49.9471 71.3665 57.0436C72.6119 57.7753 73.197 58.5244 73.1449 60.075C72.9885 64.773 73.1101 69.4769 72.9943 74.1749C72.8553 79.9822 75.0043 84.7731 79.0071 88.7859C79.9169 89.6917 80.5774 90.818 80.9245 92.0554C83.0852 99.0996 85.3733 106.103 87.4761 113.165C87.6897 114.059 88.1075 114.892 88.6965 115.597C89.2855 116.303 90.0297 116.862 90.8706 117.23C96.5779 119.925 101.982 123.223 106.992 127.067C109.407 128.943 109.952 131.097 108.932 133.885C108.145 136.022 107.108 138.02 106.117 140.058C105.696 141.027 105.008 141.855 104.134 142.446C103.26 143.036 102.235 143.364 101.182 143.391C89.7005 144.204 78.5553 142.776 68.2037 137.485C61.8896 134.228 57.8347 129.135 55.9984 121.986C52.9051 109.831 49.3136 97.8046 45.9538 85.7197C45.5541 84.2679 45.027 82.9148 43.2312 83.4433C41.4355 83.9717 41.6498 85.4526 42.0727 86.8695C45.1853 98.0194 48.3018 109.169 51.4222 120.319C52.2331 123.194 52.6908 126.173 54.081 128.879C58.0664 136.632 64.6933 141.074 72.6177 143.931C73.3592 144.199 74.1123 144.443 74.8711 144.692Z" fill="#010101"/>
<path d="M66.7625 173.201C65.129 175.367 65.2564 178.032 64.7756 181C61.775 177.515 61.3 173.88 62.0067 170.047C62.8872 165.094 65.7894 161.336 69.6126 158.264C77.4495 151.982 87.0892 148.383 97.1164 147.997C104.815 147.62 109.368 144.513 112.004 137.382C113.782 132.596 115.224 127.898 114.813 122.753C114.668 121.221 114.327 119.715 113.799 118.27C113.324 116.894 112.606 115.808 111.007 116.354C109.409 116.899 109.356 118.154 109.93 119.548C110.624 121.243 110.896 123.083 110.724 124.908C106.477 121.15 102.034 117.974 97.099 115.889C92.7313 114.042 90.756 111.052 89.7365 106.667C88.7401 102.375 87.1529 98.2233 85.6816 93.5833C94.3707 97.0677 102.341 96.5508 109.687 91.2314C117.182 85.8016 118.955 78.0141 118.011 69.1929L118.59 69.1465C120.988 73.0083 123.375 76.8817 125.785 80.761C133.547 93.1885 141.014 105.802 148.956 118.119C152.524 123.647 152.078 129.553 149.431 135.314C147.084 140.419 143.638 144.855 140.336 149.356C133.501 158.717 126.433 167.899 117.217 175.123C115.05 176.95 112.315 177.963 109.484 177.986C104.149 178.026 98.8137 178.323 93.496 178.758C91.3758 178.927 90.7386 178.334 91.0862 176.336C91.0973 175.945 91.0544 175.554 90.9588 175.175C90.8003 173.198 90.1663 171.289 89.1109 169.612C87.6685 167.062 85.6352 166.063 82.6925 166.418C80.2968 166.689 77.9181 167.094 75.5675 167.631C72.0107 168.45 69.3461 170.756 66.7625 173.201Z" fill="#010101"/>
<path d="M77.3721 67.7297C77.3721 64.0073 77.1751 60.6217 77.4358 57.2767C77.6675 54.286 79.2374 51.7656 81.3343 49.6286C88.9518 41.8759 103.347 42.2244 110.605 50.3254C112.949 52.844 114.231 56.1729 114.185 59.617C114.15 64.2628 113.855 68.8738 114.115 73.4789C114.839 86.0167 102.901 93.3977 92.3521 91.3884C89.6303 90.9333 87.0383 89.8959 84.7522 88.3467C82.4662 86.7975 80.5398 84.7728 79.1041 82.4104C76.9898 79.0422 77.0014 75.7844 79.1041 72.393C80.8201 69.4681 83.4645 67.2043 86.6147 65.9632C89.7649 64.7221 93.2391 64.5753 96.4823 65.5462C98.2643 66.0803 99.9832 66.8065 101.609 67.7123C102.86 68.3918 104.019 68.3511 104.725 67.0329C105.432 65.7146 104.691 64.8087 103.497 64.0886C94.507 58.6879 85.1228 59.8958 77.3721 67.7297Z" fill="#010101"/>
<path d="M147.733 63.7919C152.089 63.7919 156.422 63.7919 160.801 63.7919C163.408 63.7919 164.949 65.0637 165.001 67.1137C165.053 69.2914 163.495 70.598 160.732 70.598C152.1 70.5632 143.471 70.5148 134.844 70.4528C134.44 70.4655 134.035 70.4519 133.633 70.4122C131.577 70.1392 130.221 68.7165 130.412 66.8756C130.627 64.814 131.814 63.6758 133.94 63.6758C138.54 63.6758 143.133 63.6758 147.733 63.6758V63.7919Z" fill="#010101"/>
<path d="M100.013 16.376C100.013 20.592 100.042 24.8081 100.013 29.0241C100.013 31.7071 98.7382 33.1357 96.5833 33.0892C94.4284 33.0427 93.2872 31.6141 93.293 28.8906C93.32 20.7023 93.3664 12.5122 93.432 4.32013C93.432 1.44555 94.7006 -0.0701357 96.8787 -0.0120633C99.0567 0.046009 100.198 1.60235 100.198 4.43628V16.3585L100.013 16.376Z" fill="#010101"/>
<path d="M147.831 20.499C147.86 21.6604 147.252 22.4734 146.458 23.2342C140.509 29.0762 134.583 34.9416 128.617 40.7662C126.821 42.5084 124.973 42.6071 123.479 41.1611C121.984 39.7151 122.077 37.6768 123.745 36.0159C129.735 30.0983 135.765 24.2214 141.772 18.3329C142.971 17.1714 144.303 16.5907 145.931 17.3689C146.525 17.6381 147.025 18.081 147.364 18.6395C147.703 19.198 147.866 19.8461 147.831 20.499Z" fill="#020201"/>
<path d="M64.7868 41.7246C63.8097 41.6175 62.9013 41.1694 62.2206 40.4586C56.7523 34.7153 51.2492 29.0067 45.804 23.2459C44.1473 21.5038 44.1705 19.4654 45.6824 18.0949C47.1943 16.7244 48.99 16.9335 50.6236 18.5944C56.1325 24.2971 61.6298 30.0404 67.0865 35.7663C67.6337 36.2568 68.0067 36.9127 68.1488 37.6347C68.291 38.3567 68.1946 39.1054 67.8743 39.7675C67.2661 41.1439 66.1191 41.6084 64.7868 41.7246Z" fill="#010101"/>
<path d="M87.4942 176.342C87.7781 179.013 86.1329 179.35 84.0186 179.478C79.6972 179.739 75.37 180.029 71.0892 180.639C69.0096 180.929 68.9691 180.058 69.1834 178.595C69.3224 177.643 69.502 176.696 69.6584 175.749C69.6858 174.984 69.9084 174.238 70.3049 173.584C70.7014 172.929 71.2586 172.387 71.9234 172.009C75.8045 169.466 80.1954 168.955 84.6384 169.059C86.4573 169.106 87.2857 170.749 87.361 172.544C87.4073 173.781 87.1467 175.07 87.4942 176.342Z" fill="#020202"/>
<path d="M74.488 118.09C75.8667 118.09 76.5386 118.467 76.8804 119.315C77.0686 119.682 77.1206 120.105 77.0273 120.507C76.9339 120.909 76.7012 121.264 76.3706 121.51C73.6828 123.427 70.9486 125.273 68.2087 127.108C67.4209 127.643 66.6562 127.358 66.019 126.748C65.3818 126.139 64.9416 125.244 65.544 124.588C68.1971 121.731 71.7017 120.076 74.488 118.09Z" fill="#010101"/>
<path d="M43.7065 140.767C42.4379 140.727 41.7833 140.297 41.5227 139.432C41.262 138.566 41.4242 137.568 42.3279 137.109C44.923 135.808 47.5413 134.548 50.206 133.386C50.628 133.21 51.1024 133.207 51.5264 133.379C51.9504 133.551 52.2897 133.883 52.4709 134.304C52.8706 135.047 52.9691 136.046 52.2624 136.557C49.5514 138.491 46.4117 139.554 43.7065 140.767Z" fill="#010101"/>
<path d="M27.2996 147.033C28.4118 147.12 29.3619 147.713 29.2808 149.089C29.1533 151.296 27.178 151.331 25.7124 151.598C24.606 151.795 23.7603 150.907 23.6329 149.699C23.4938 148.386 25.22 147.109 27.2996 147.033Z" fill="#010101"/>
</g>
<defs>
<clipPath id="clip0_1155_478">
<rect width="165" height="181" fill="white"/>
</clipPath>
</defs>
</svg>
