<svg width="678" height="635" viewBox="0 0 678 635" fill="none" xmlns="http://www.w3.org/2000/svg">
<path d="M212.643 110.291H89.8979C85.9757 110.291 82.2142 111.849 79.4408 114.622C76.6674 117.396 75.1094 121.157 75.1094 125.08V170.924C75.1094 174.846 76.6674 178.608 79.4408 181.381C82.2142 184.154 85.9757 185.712 89.8979 185.712H211.903L227.431 206.416V125.08C227.431 121.157 225.873 117.396 223.1 114.622C220.326 111.849 216.565 110.291 212.643 110.291V110.291Z" fill="#263238"/>
<path d="M101.835 160.764H97.3984V132.666H101.835V144.689H106.834V132.666H111.27V160.764H106.834V148.741H101.835V160.764Z" fill="#AE8DFF"/>
<path d="M114.535 132.71H118.972V160.808H114.535V132.71Z" fill="#AE8DFF"/>
<path d="M127.076 132.71H140.697V136.718H136.083V160.764H131.646V136.718H127.047L127.076 132.71Z" fill="#AE8DFF"/>
<path d="M147.026 160.764H142.59V132.666H147.026V144.689H152.01V132.666H156.447V160.764H152.01V148.741H146.997L147.026 160.764Z" fill="#AE8DFF"/>
<path d="M164.134 144.526H170.182V148.534H164.134V156.757H171.75V160.764H159.727V132.666H171.75V136.674H164.134V144.526Z" fill="#AE8DFF"/>
<path d="M183.686 160.764C183.325 159.654 183.189 158.482 183.287 157.319V152.882C183.287 150.279 182.415 149.318 180.329 149.318H178.851V160.735H174.414V132.637H181.069C185.639 132.637 187.605 134.766 187.605 139.085V141.288C187.605 144.172 186.674 146.065 184.648 146.982C186.851 147.913 187.605 150.028 187.605 152.897V157.23C187.525 158.386 187.692 159.545 188.093 160.631L183.686 160.764ZM178.88 136.718V145.34H180.61C182.252 145.34 183.258 144.615 183.258 142.382V139.602C183.258 137.606 182.577 136.644 181.01 136.644L178.88 136.718Z" fill="#AE8DFF"/>
<path d="M195 144.526H201.048V148.534H195V156.757H202.601V160.764H190.578V132.666H202.601V136.674H195V144.526Z" fill="#AE8DFF"/>
<path d="M205.898 154.553L205.336 144.408V132.71H209.772V144.408L209.211 154.553H205.898ZM209.654 156.519V160.764H205.41V156.519H209.654Z" fill="#AE8DFF"/>
<path d="M419.677 111.769C419.677 111.769 414.205 109.832 412.963 114.727C411.721 119.622 418.967 121.44 419.855 121.44C420.742 121.44 422.147 120.213 421.259 117.388C420.372 114.564 419.677 111.769 419.677 111.769Z" fill="#263238" stroke="#263238" stroke-linecap="round" stroke-linejoin="round"/>
<path d="M450.735 99.7598C450.735 99.7598 450.202 106.829 450.202 109.653C450.202 112.478 453.16 113.543 454.639 113.543C456.118 113.543 456.768 116.9 455.881 120.434C454.994 123.969 451.992 126.083 444.745 126.083C437.499 126.083 433.092 122.904 432.915 120.612C432.737 118.319 434.497 108.411 437.514 105.823C440.531 103.235 450.735 99.7598 450.735 99.7598Z" fill="#263238" stroke="#263238" stroke-linecap="round" stroke-linejoin="round"/>
<path d="M424.277 121.485V124.221C424.278 124.651 424.403 125.073 424.636 125.434C424.869 125.796 425.202 126.083 425.594 126.262C426.863 126.799 428.212 127.123 429.586 127.223C432.356 127.223 435.092 126.618 437.602 125.448C437.949 125.3 438.246 125.053 438.453 124.737C438.661 124.421 438.771 124.052 438.77 123.674V120.82C438.767 120.646 438.721 120.475 438.637 120.323C438.552 120.17 438.432 120.041 438.286 119.946C438.14 119.852 437.973 119.794 437.799 119.779C437.626 119.763 437.452 119.791 437.291 119.858L436.714 120.154C436.714 120.154 427.989 121.263 424.277 121.485Z" fill="#AE8DFF" stroke="#263238" stroke-linecap="round" stroke-linejoin="round"/>
<path d="M420.403 98.3408C419.436 102.226 418.784 106.182 418.451 110.172C417.919 116.708 418.451 122.712 421.098 122.89C422.915 122.893 424.694 122.38 426.23 121.411C426.23 121.411 432.412 122.121 434.526 121.071L436.656 120.006L438.238 109.654C438.238 109.654 438.416 93.5789 435.414 92.5141C432.412 91.4494 420.403 98.3408 420.403 98.3408Z" fill="white" stroke="#263238" stroke-linecap="round" stroke-linejoin="round"/>
<path d="M425.162 105.587L423.757 109.299C423.757 109.299 420.918 110.009 421.273 111.414C421.628 112.818 423.506 112.611 423.506 112.611" stroke="#263238" stroke-linecap="round" stroke-linejoin="round"/>
<path d="M429.703 107.199C429.422 107.968 428.845 108.471 428.446 108.323C428.046 108.175 427.928 107.421 428.224 106.637C428.519 105.853 429.081 105.35 429.496 105.513C429.91 105.676 430.028 106.474 429.703 107.199Z" fill="#263238"/>
<path d="M423.051 105.409C422.755 106.193 422.193 106.696 421.779 106.548C421.365 106.4 421.276 105.631 421.557 104.862C421.838 104.093 422.415 103.576 422.829 103.723C423.243 103.871 423.332 104.64 423.051 105.409Z" fill="#263238"/>
<path d="M428.344 102.23C428.344 102.23 431.701 101.343 432.056 104.537" stroke="#263238" stroke-linecap="round" stroke-linejoin="round"/>
<path d="M423.936 101.342C423.936 101.342 420.979 100.292 420.047 102.821" stroke="#263238" stroke-linecap="round" stroke-linejoin="round"/>
<path d="M426.227 121.484L430.988 119.547" stroke="#263238" stroke-linecap="round" stroke-linejoin="round"/>
<path d="M422.636 90.2064C422.636 90.2064 416.987 83.4925 412.742 88.4318C408.498 93.3712 409.785 100.81 417.342 101.165C424.899 101.52 433.417 94.0958 433.417 94.0958C433.417 94.0958 432.529 103.812 434.644 107.169C436.759 110.526 438.356 112.818 438.356 112.818C438.356 112.818 441.314 114.755 446.312 110.881C451.311 107.006 452.494 97.5711 448.959 91.2564C445.425 84.9417 439.243 81.3629 431.82 83.8622C424.396 86.3614 422.636 90.2064 422.636 90.2064Z" fill="#263238" stroke="#263238" stroke-linecap="round" stroke-linejoin="round"/>
<path d="M434.879 112.655C434.879 112.655 441.238 106.829 441.238 110.186C441.238 113.543 438.28 116.545 435.944 115.835" fill="white"/>
<path d="M434.879 112.655C434.879 112.655 441.238 106.829 441.238 110.186C441.238 113.543 438.28 116.545 435.944 115.835" stroke="#263238" stroke-linecap="round" stroke-linejoin="round"/>
<path d="M421.273 115.347C422.109 115.948 423.113 116.272 424.142 116.272C425.172 116.272 426.176 115.948 427.011 115.347" stroke="#263238" stroke-linecap="round" stroke-linejoin="round"/>
<path d="M454.093 126.514C465.385 114.497 464.798 95.6013 452.781 84.3089C440.764 73.0164 421.868 73.6036 410.576 85.6205C399.283 97.6373 399.87 116.533 411.887 127.826C423.904 139.118 442.8 138.531 454.093 126.514Z" stroke="#263238" stroke-linecap="round" stroke-linejoin="round"/>
<path d="M635.522 348.957C652.493 344.989 663.035 328.014 659.067 311.043C655.099 294.071 638.123 283.529 621.152 287.498C604.18 291.466 593.639 308.441 597.607 325.413C601.575 342.384 618.55 352.926 635.522 348.957Z" stroke="#263238" stroke-linecap="round" stroke-linejoin="round"/>
<path d="M639.109 327.533C639.109 329.61 638.493 331.64 637.34 333.366C636.186 335.093 634.546 336.439 632.627 337.234C630.709 338.028 628.598 338.236 626.561 337.831C624.524 337.426 622.653 336.426 621.185 334.958C619.716 333.489 618.716 331.618 618.311 329.581C617.906 327.545 618.114 325.434 618.909 323.515C619.703 321.596 621.049 319.956 622.776 318.803C624.502 317.649 626.533 317.033 628.609 317.033C631.394 317.033 634.065 318.139 636.034 320.109C638.003 322.078 639.109 324.748 639.109 327.533V327.533Z" fill="#AE8DFF" stroke="#263238" stroke-linecap="round" stroke-linejoin="round"/>
<path d="M643.619 334.528C645.884 331.701 647.304 328.291 647.716 324.692C648.128 321.093 647.515 317.451 645.947 314.185C644.379 310.919 641.92 308.163 638.853 306.234C635.787 304.305 632.238 303.281 628.616 303.281C624.993 303.281 621.444 304.305 618.378 306.234C615.312 308.163 612.853 310.919 611.285 314.185C609.717 317.451 609.103 321.093 609.515 324.692C609.927 328.291 611.348 331.701 613.613 334.528H643.619Z" fill="white" stroke="#263238" stroke-linecap="round" stroke-linejoin="round"/>
<path d="M636.106 329.086H620.638C619.733 329.086 618.836 328.907 618 328.561C617.164 328.215 616.404 327.707 615.765 327.067C615.125 326.427 614.617 325.668 614.271 324.831C613.924 323.995 613.746 323.099 613.746 322.194V322.194C613.744 321.289 613.921 320.392 614.267 319.555C614.612 318.718 615.12 317.957 615.76 317.317C616.401 316.677 617.161 316.169 617.998 315.823C618.835 315.478 619.732 315.301 620.638 315.303H636.106C637.012 315.301 637.909 315.478 638.746 315.823C639.583 316.169 640.343 316.677 640.984 317.317C641.624 317.957 642.132 318.718 642.477 319.555C642.823 320.392 643 321.289 642.998 322.194V322.194C642.998 324.022 642.272 325.775 640.979 327.067C639.687 328.36 637.934 329.086 636.106 329.086V329.086Z" fill="#AE8DFF" stroke="#263238" stroke-linecap="round" stroke-linejoin="round"/>
<path d="M616.914 321.632C617.231 320.745 617.809 319.974 618.571 319.421C619.334 318.867 620.246 318.558 621.188 318.532C622.13 318.506 623.058 318.766 623.85 319.277C624.641 319.788 625.26 320.527 625.625 321.396" stroke="#263238" stroke-width="2" stroke-linecap="round" stroke-linejoin="round"/>
<path d="M631.375 321.632C631.692 320.745 632.27 319.974 633.032 319.421C633.795 318.867 634.707 318.558 635.649 318.532C636.591 318.506 637.519 318.766 638.311 319.277C639.102 319.788 639.721 320.527 640.085 321.396" stroke="#263238" stroke-width="2" stroke-linecap="round" stroke-linejoin="round"/>
<path d="M626.082 324.826C626.151 325.476 626.458 326.078 626.944 326.515C627.43 326.952 628.061 327.194 628.714 327.194C629.368 327.194 629.999 326.952 630.485 326.515C630.971 326.078 631.278 325.476 631.347 324.826H626.082Z" fill="white" stroke="#263238" stroke-linecap="round" stroke-linejoin="round"/>
<path d="M653.468 325.921C653.204 325.921 652.943 325.869 652.699 325.768C652.455 325.667 652.233 325.519 652.046 325.332C651.859 325.145 651.711 324.924 651.61 324.68C651.509 324.436 651.457 324.174 651.457 323.91V319.34C651.457 319.076 651.509 318.815 651.61 318.571C651.711 318.327 651.859 318.105 652.046 317.918C652.233 317.731 652.455 317.583 652.699 317.482C652.943 317.381 653.204 317.329 653.468 317.329C653.732 317.329 653.994 317.381 654.238 317.482C654.482 317.583 654.704 317.731 654.89 317.918C655.077 318.105 655.225 318.327 655.326 318.571C655.427 318.815 655.48 319.076 655.48 319.34V323.866C655.485 324.133 655.438 324.4 655.339 324.649C655.241 324.898 655.094 325.125 654.906 325.317C654.719 325.508 654.495 325.66 654.248 325.764C654.001 325.868 653.736 325.921 653.468 325.921V325.921Z" fill="#263238" stroke="#263238" stroke-linecap="round" stroke-linejoin="round"/>
<path d="M603.218 325.921C602.954 325.921 602.693 325.869 602.449 325.768C602.205 325.667 601.983 325.519 601.796 325.332C601.609 325.145 601.461 324.924 601.36 324.68C601.259 324.436 601.207 324.174 601.207 323.91V319.34C601.207 319.076 601.259 318.815 601.36 318.571C601.461 318.327 601.609 318.105 601.796 317.918C601.983 317.731 602.205 317.583 602.449 317.482C602.693 317.381 602.954 317.329 603.218 317.329C603.482 317.329 603.744 317.381 603.988 317.482C604.232 317.583 604.454 317.731 604.64 317.918C604.827 318.105 604.975 318.327 605.076 318.571C605.178 318.815 605.23 319.076 605.23 319.34V323.866C605.235 324.133 605.188 324.4 605.089 324.649C604.991 324.898 604.844 325.125 604.656 325.317C604.469 325.508 604.245 325.66 603.998 325.764C603.751 325.868 603.486 325.921 603.218 325.921V325.921Z" fill="#263238" stroke="#263238" stroke-linecap="round" stroke-linejoin="round"/>
<path d="M606.932 319.621C606.374 319.617 605.84 319.392 605.446 318.996C605.053 318.6 604.832 318.064 604.832 317.506V314.193C604.826 310.604 605.897 307.096 607.908 304.122C608.052 303.869 608.248 303.648 608.481 303.473C608.715 303.299 608.982 303.175 609.266 303.109C609.55 303.043 609.845 303.036 610.132 303.089C610.419 303.142 610.691 303.254 610.933 303.418C611.174 303.582 611.379 303.794 611.535 304.04C611.69 304.287 611.793 304.563 611.837 304.851C611.88 305.14 611.864 305.434 611.789 305.716C611.713 305.997 611.58 306.261 611.398 306.488C609.86 308.763 609.041 311.447 609.047 314.193V317.506C609.047 318.067 608.824 318.605 608.427 319.001C608.031 319.398 607.493 319.621 606.932 319.621V319.621Z" fill="#263238"/>
<path d="M647.777 306.371C647.603 306.371 647.432 306.328 647.28 306.246C647.127 306.163 646.998 306.043 646.904 305.898C645.548 303.876 643.715 302.221 641.566 301.078C639.417 299.935 637.019 299.34 634.585 299.346H622.843C620.409 299.34 618.011 299.935 615.863 301.078C613.714 302.221 611.88 303.876 610.524 305.898C610.365 306.131 610.12 306.292 609.843 306.344C609.566 306.397 609.279 306.337 609.045 306.179C608.928 306.101 608.828 306.001 608.75 305.884C608.672 305.768 608.619 305.636 608.593 305.499C608.566 305.361 608.568 305.219 608.598 305.082C608.627 304.945 608.684 304.815 608.764 304.7C610.315 302.394 612.409 300.506 614.861 299.201C617.314 297.896 620.05 297.215 622.828 297.217H634.57C637.352 297.215 640.092 297.898 642.547 299.206C645.002 300.513 647.098 302.405 648.649 304.715C648.729 304.83 648.785 304.961 648.813 305.099C648.842 305.237 648.842 305.379 648.814 305.517C648.787 305.655 648.732 305.786 648.653 305.902C648.573 306.018 648.472 306.117 648.353 306.193C648.182 306.307 647.982 306.369 647.777 306.371V306.371Z" fill="#263238"/>
<path d="M650.499 319.621C649.938 319.621 649.4 319.398 649.003 319.001C648.607 318.605 648.384 318.067 648.384 317.506V314.193C648.39 311.448 647.57 308.763 646.033 306.489C645.856 306.259 645.729 305.996 645.658 305.716C645.587 305.435 645.575 305.143 645.621 304.858C645.668 304.572 645.773 304.299 645.929 304.056C646.085 303.813 646.29 303.604 646.53 303.443C646.771 303.281 647.041 303.171 647.326 303.119C647.61 303.067 647.903 303.073 648.184 303.138C648.466 303.203 648.732 303.326 648.965 303.497C649.197 303.669 649.392 303.887 649.538 304.137C651.543 307.106 652.61 310.61 652.599 314.193V317.506C652.599 318.064 652.378 318.6 651.985 318.996C651.591 319.392 651.057 319.617 650.499 319.621V319.621Z" fill="#263238"/>
<path d="M607.198 328.908C606.092 328.908 605.031 328.469 604.249 327.687C603.467 326.905 603.027 325.844 603.027 324.738V318.113C603.027 317.007 603.467 315.946 604.249 315.164C605.031 314.382 606.092 313.942 607.198 313.942V313.942C608.304 313.942 609.364 314.382 610.147 315.164C610.929 315.946 611.368 317.007 611.368 318.113V324.738C611.368 325.844 610.929 326.905 610.147 327.687C609.364 328.469 608.304 328.908 607.198 328.908V328.908Z" fill="white" stroke="#263238" stroke-linecap="round" stroke-linejoin="round"/>
<path d="M607.623 313.942H606.766V328.908H607.623V313.942Z" fill="#AE8DFF" stroke="#263238" stroke-linecap="round" stroke-linejoin="round"/>
<path d="M653.899 318.113C653.899 315.81 652.032 313.942 649.729 313.942C647.426 313.942 645.559 315.81 645.559 318.113V324.738C645.559 327.041 647.426 328.908 649.729 328.908C652.032 328.908 653.899 327.041 653.899 324.738V318.113Z" fill="white" stroke="#263238" stroke-linecap="round" stroke-linejoin="round"/>
<path d="M650.159 313.942H649.301V328.908H650.159V313.942Z" fill="#AE8DFF" stroke="#263238" stroke-linecap="round" stroke-linejoin="round"/>
<path d="M628.684 312.581C630.153 312.575 631.598 312.205 632.888 311.503C634.179 310.801 635.275 309.789 636.078 308.559L637.897 305.734C635.014 304.138 631.767 303.314 628.472 303.339C625.177 303.365 621.944 304.241 619.086 305.882L621.807 309.284C622.636 310.31 623.683 311.139 624.873 311.709C626.063 312.279 627.364 312.578 628.684 312.581V312.581Z" fill="#AE8DFF" stroke="#263238" stroke-linecap="round" stroke-linejoin="round"/>
<path d="M628.834 330.787C629.006 330.787 629.145 330.648 629.145 330.477C629.145 330.305 629.006 330.166 628.834 330.166C628.662 330.166 628.523 330.305 628.523 330.477C628.523 330.648 628.662 330.787 628.834 330.787Z" fill="#263238"/>
<path d="M629.145 331.555C629.141 331.475 629.106 331.4 629.049 331.345C628.991 331.29 628.914 331.259 628.834 331.259C628.794 331.257 628.754 331.263 628.716 331.277C628.679 331.291 628.644 331.313 628.615 331.34C628.586 331.368 628.563 331.401 628.547 331.438C628.531 331.475 628.523 331.515 628.523 331.555C628.523 331.637 628.556 331.716 628.614 331.775C628.673 331.833 628.752 331.865 628.834 331.865C628.916 331.865 628.995 331.833 629.054 331.775C629.112 331.716 629.145 331.637 629.145 331.555Z" fill="#263238"/>
<path d="M627.916 331.393C627.994 331.369 628.06 331.315 628.098 331.243C628.137 331.171 628.146 331.087 628.123 331.008C628.093 330.931 628.036 330.867 627.962 330.829C627.889 330.791 627.804 330.781 627.724 330.801C627.645 330.825 627.58 330.879 627.541 330.951C627.502 331.023 627.493 331.107 627.517 331.186C627.546 331.263 627.604 331.326 627.677 331.365C627.751 331.403 627.835 331.413 627.916 331.393V331.393Z" fill="#263238"/>
<path d="M629.852 331.394C629.93 331.37 629.995 331.316 630.034 331.244C630.073 331.172 630.082 331.088 630.059 331.009C630.032 330.93 629.975 330.864 629.901 330.826C629.826 330.787 629.74 330.779 629.659 330.802C629.621 330.814 629.585 330.833 629.554 330.859C629.524 330.885 629.498 330.917 629.48 330.953C629.462 330.989 629.452 331.028 629.45 331.068C629.447 331.109 629.453 331.149 629.467 331.187C629.491 331.265 629.545 331.33 629.617 331.369C629.689 331.408 629.773 331.417 629.852 331.394Z" fill="#263238"/>
<path d="M589.567 156.977H471.895V104.552V90.6504L485.811 104.552H589.567V156.977Z" fill="#D6D6D6" stroke="#263238" stroke-linecap="round" stroke-linejoin="round"/>
<path d="M589.567 232.916H471.895V180.506V166.604L485.811 180.506H589.567V232.916Z" fill="#D6D6D6" stroke="#263238" stroke-linecap="round" stroke-linejoin="round"/>
<path d="M550.469 122.594H578.168" stroke="#263238" stroke-linecap="round" stroke-linejoin="round"/>
<path d="M511.707 122.594H543.354" stroke="#263238" stroke-linecap="round" stroke-linejoin="round"/>
<path d="M487.969 122.594H506.159" stroke="#263238" stroke-linecap="round" stroke-linejoin="round"/>
<path d="M537.809 131.304H578.166" stroke="#263238" stroke-linecap="round" stroke-linejoin="round"/>
<path d="M487.969 131.304H530.693" stroke="#263238" stroke-linecap="round" stroke-linejoin="round"/>
<path d="M570.254 139.999H578.166" stroke="#263238" stroke-linecap="round" stroke-linejoin="round"/>
<path d="M525.949 139.999H563.926" stroke="#263238" stroke-linecap="round" stroke-linejoin="round"/>
<path d="M487.969 139.999H519.616" stroke="#263238" stroke-linecap="round" stroke-linejoin="round"/>
<path d="M550.469 196.166H578.168" stroke="#263238" stroke-linecap="round" stroke-linejoin="round"/>
<path d="M511.707 196.166H543.354" stroke="#263238" stroke-linecap="round" stroke-linejoin="round"/>
<path d="M487.969 196.166H506.159" stroke="#263238" stroke-linecap="round" stroke-linejoin="round"/>
<path d="M537.809 204.877H578.166" stroke="#263238" stroke-linecap="round" stroke-linejoin="round"/>
<path d="M487.969 204.877H530.693" stroke="#263238" stroke-linecap="round" stroke-linejoin="round"/>
<path d="M570.254 213.572H578.166" stroke="#263238" stroke-linecap="round" stroke-linejoin="round"/>
<path d="M525.949 213.572H563.926" stroke="#263238" stroke-linecap="round" stroke-linejoin="round"/>
<path d="M487.969 213.572H519.616" stroke="#263238" stroke-linecap="round" stroke-linejoin="round"/>
<path d="M471.895 446.477H589.567V319.695V305.794L575.651 319.695H471.895V446.477Z" fill="#AE8DFF" stroke="#263238" stroke-linecap="round" stroke-linejoin="round"/>
<path d="M550.469 336.998H578.168" stroke="#263238" stroke-linecap="round" stroke-linejoin="round"/>
<path d="M511.707 336.998H543.354" stroke="#263238" stroke-linecap="round" stroke-linejoin="round"/>
<path d="M487.969 336.998H506.159" stroke="#263238" stroke-linecap="round" stroke-linejoin="round"/>
<path d="M537.809 345.693H578.166" stroke="#263238" stroke-linecap="round" stroke-linejoin="round"/>
<path d="M487.969 345.693H530.693" stroke="#263238" stroke-linecap="round" stroke-linejoin="round"/>
<path d="M570.254 354.404H578.166" stroke="#263238" stroke-linecap="round" stroke-linejoin="round"/>
<path d="M525.949 354.404H563.926" stroke="#263238" stroke-linecap="round" stroke-linejoin="round"/>
<path d="M487.969 354.404H519.616" stroke="#263238" stroke-linecap="round" stroke-linejoin="round"/>
<path d="M550.469 361.518H578.168" stroke="#263238" stroke-linecap="round" stroke-linejoin="round"/>
<path d="M511.707 361.518H543.354" stroke="#263238" stroke-linecap="round" stroke-linejoin="round"/>
<path d="M487.969 361.518H506.159" stroke="#263238" stroke-linecap="round" stroke-linejoin="round"/>
<path d="M537.809 370.228H578.166" stroke="#263238" stroke-linecap="round" stroke-linejoin="round"/>
<path d="M487.969 370.228H530.693" stroke="#263238" stroke-linecap="round" stroke-linejoin="round"/>
<path d="M570.254 378.924H578.166" stroke="#263238" stroke-linecap="round" stroke-linejoin="round"/>
<path d="M525.949 378.924H563.926" stroke="#263238" stroke-linecap="round" stroke-linejoin="round"/>
<path d="M487.969 378.924H519.616" stroke="#263238" stroke-linecap="round" stroke-linejoin="round"/>
<path d="M550.469 386.051H578.168" stroke="#263238" stroke-linecap="round" stroke-linejoin="round"/>
<path d="M511.707 386.051H543.354" stroke="#263238" stroke-linecap="round" stroke-linejoin="round"/>
<path d="M487.969 386.051H506.159" stroke="#263238" stroke-linecap="round" stroke-linejoin="round"/>
<path d="M537.809 394.747H578.166" stroke="#263238" stroke-linecap="round" stroke-linejoin="round"/>
<path d="M487.969 394.747H530.693" stroke="#263238" stroke-linecap="round" stroke-linejoin="round"/>
<path d="M570.254 403.457H578.166" stroke="#263238" stroke-linecap="round" stroke-linejoin="round"/>
<path d="M525.949 403.457H563.926" stroke="#263238" stroke-linecap="round" stroke-linejoin="round"/>
<path d="M487.969 403.457H519.616" stroke="#263238" stroke-linecap="round" stroke-linejoin="round"/>
<path d="M550.469 410.57H578.168" stroke="#263238" stroke-linecap="round" stroke-linejoin="round"/>
<path d="M511.707 410.57H543.354" stroke="#263238" stroke-linecap="round" stroke-linejoin="round"/>
<path d="M487.969 410.57H506.159" stroke="#263238" stroke-linecap="round" stroke-linejoin="round"/>
<path d="M537.809 419.28H578.166" stroke="#263238" stroke-linecap="round" stroke-linejoin="round"/>
<path d="M487.969 419.28H530.693" stroke="#263238" stroke-linecap="round" stroke-linejoin="round"/>
<path d="M570.254 427.977H578.166" stroke="#263238" stroke-linecap="round" stroke-linejoin="round"/>
<path d="M525.949 427.977H563.926" stroke="#263238" stroke-linecap="round" stroke-linejoin="round"/>
<path d="M487.969 427.977H519.616" stroke="#263238" stroke-linecap="round" stroke-linejoin="round"/>
<path d="M628.344 516.974C645.773 516.974 659.903 502.845 659.903 485.415C659.903 467.986 645.773 453.856 628.344 453.856C610.914 453.856 596.785 467.986 596.785 485.415C596.785 502.845 610.914 516.974 628.344 516.974Z" stroke="#263238" stroke-linecap="round" stroke-linejoin="round"/>
<path d="M639.109 494.717C639.112 496.795 638.499 498.826 637.347 500.555C636.195 502.284 634.556 503.632 632.638 504.429C630.719 505.226 628.608 505.436 626.57 505.032C624.532 504.629 622.66 503.63 621.19 502.162C619.72 500.694 618.719 498.823 618.312 496.786C617.906 494.749 618.113 492.637 618.907 490.718C619.701 488.798 621.047 487.157 622.774 486.003C624.501 484.849 626.532 484.232 628.609 484.232C631.391 484.232 634.06 485.337 636.029 487.303C637.997 489.268 639.105 491.935 639.109 494.717V494.717Z" fill="#AE8DFF" stroke="#263238" stroke-linecap="round" stroke-linejoin="round"/>
<path d="M643.619 501.712C645.884 498.885 647.304 495.476 647.716 491.877C648.128 488.277 647.515 484.635 645.947 481.37C644.379 478.104 641.92 475.348 638.853 473.418C635.787 471.489 632.238 470.466 628.616 470.466C624.993 470.466 621.444 471.489 618.378 473.418C615.312 475.348 612.853 478.104 611.285 481.37C609.717 484.635 609.103 488.277 609.515 491.877C609.927 495.476 611.348 498.885 613.613 501.712H643.619Z" fill="white" stroke="#263238" stroke-linecap="round" stroke-linejoin="round"/>
<path d="M636.106 496.27H620.638C619.733 496.27 618.836 496.092 618 495.746C617.164 495.399 616.404 494.892 615.765 494.252C615.125 493.612 614.617 492.852 614.271 492.016C613.924 491.18 613.746 490.284 613.746 489.379V489.379C613.746 488.474 613.924 487.578 614.271 486.741C614.617 485.905 615.125 485.146 615.765 484.506C616.404 483.866 617.164 483.358 618 483.012C618.836 482.666 619.733 482.487 620.638 482.487H636.106C637.011 482.487 637.907 482.666 638.744 483.012C639.58 483.358 640.339 483.866 640.979 484.506C641.619 485.146 642.127 485.905 642.473 486.741C642.82 487.578 642.998 488.474 642.998 489.379V489.379C642.998 491.206 642.272 492.959 640.979 494.252C639.687 495.544 637.934 496.27 636.106 496.27Z" fill="#AE8DFF" stroke="#263238" stroke-linecap="round" stroke-linejoin="round"/>
<path d="M616.914 488.817C617.231 487.929 617.809 487.158 618.571 486.605C619.334 486.052 620.246 485.742 621.188 485.717C622.13 485.691 623.058 485.951 623.85 486.462C624.641 486.973 625.26 487.711 625.625 488.58" stroke="#263238" stroke-width="2" stroke-linecap="round" stroke-linejoin="round"/>
<path d="M631.375 488.817C631.692 487.929 632.27 487.158 633.032 486.605C633.795 486.052 634.707 485.742 635.649 485.717C636.591 485.691 637.519 485.951 638.311 486.462C639.102 486.973 639.721 487.711 640.085 488.58" stroke="#263238" stroke-width="2" stroke-linecap="round" stroke-linejoin="round"/>
<path d="M626.082 492.011C626.151 492.661 626.458 493.262 626.944 493.699C627.43 494.137 628.061 494.378 628.714 494.378C629.368 494.378 629.999 494.137 630.485 493.699C630.971 493.262 631.278 492.661 631.347 492.011H626.082Z" fill="white" stroke="#263238" stroke-linecap="round" stroke-linejoin="round"/>
<path d="M653.468 493.106C652.935 493.106 652.423 492.894 652.046 492.517C651.669 492.139 651.457 491.628 651.457 491.094V486.54C651.457 486.006 651.669 485.495 652.046 485.117C652.423 484.74 652.935 484.528 653.468 484.528C654.002 484.528 654.513 484.74 654.89 485.117C655.268 485.495 655.48 486.006 655.48 486.54V491.109C655.476 491.64 655.262 492.148 654.885 492.522C654.508 492.896 653.999 493.106 653.468 493.106Z" fill="#263238" stroke="#263238" stroke-linecap="round" stroke-linejoin="round"/>
<path d="M603.218 493.106C602.685 493.106 602.173 492.894 601.796 492.517C601.419 492.139 601.207 491.628 601.207 491.094V486.54C601.207 486.006 601.419 485.495 601.796 485.117C602.173 484.74 602.685 484.528 603.218 484.528C603.752 484.528 604.263 484.74 604.64 485.117C605.018 485.495 605.23 486.006 605.23 486.54V491.109C605.226 491.64 605.012 492.148 604.635 492.522C604.258 492.896 603.749 493.106 603.218 493.106Z" fill="#263238" stroke="#263238" stroke-linecap="round" stroke-linejoin="round"/>
<path d="M606.932 486.82C606.374 486.816 605.84 486.591 605.446 486.195C605.053 485.799 604.832 485.263 604.832 484.705V481.378C604.828 477.789 605.899 474.281 607.908 471.307C608.24 470.891 608.717 470.615 609.243 470.536C609.77 470.456 610.306 470.577 610.747 470.876C611.188 471.175 611.499 471.629 611.62 472.147C611.741 472.665 611.661 473.21 611.398 473.673C609.86 475.948 609.041 478.632 609.047 481.378V484.705C609.047 485.266 608.824 485.804 608.427 486.2C608.031 486.597 607.493 486.82 606.932 486.82V486.82Z" fill="#263238"/>
<path d="M647.777 473.554C647.605 473.554 647.436 473.512 647.284 473.432C647.132 473.352 647.002 473.237 646.904 473.096C645.55 471.072 643.717 469.413 641.568 468.268C639.419 467.122 637.02 466.525 634.585 466.53H622.843C620.411 466.532 618.016 467.13 615.868 468.272C613.72 469.414 611.886 471.065 610.524 473.081C610.447 473.196 610.347 473.294 610.232 473.37C610.116 473.446 609.986 473.499 609.85 473.525C609.715 473.551 609.575 473.55 609.439 473.522C609.304 473.494 609.175 473.44 609.06 473.362C608.946 473.284 608.847 473.185 608.771 473.069C608.695 472.954 608.643 472.824 608.617 472.688C608.59 472.552 608.591 472.413 608.619 472.277C608.647 472.141 608.702 472.013 608.779 471.898C610.33 469.593 612.424 467.704 614.876 466.399C617.329 465.094 620.065 464.413 622.843 464.415H634.585C637.367 464.416 640.105 465.1 642.56 466.408C645.015 467.715 647.111 469.605 648.664 471.913C648.744 472.029 648.8 472.159 648.828 472.297C648.856 472.435 648.857 472.577 648.829 472.715C648.802 472.853 648.747 472.984 648.667 473.1C648.588 473.216 648.486 473.315 648.368 473.392C648.191 473.503 647.985 473.559 647.777 473.554V473.554Z" fill="#263238"/>
<path d="M650.498 486.82C649.937 486.82 649.4 486.597 649.003 486.201C648.606 485.804 648.384 485.266 648.384 484.706V481.378C648.387 478.637 647.568 475.958 646.032 473.688C645.871 473.458 645.757 473.198 645.697 472.924C645.637 472.649 645.633 472.366 645.684 472.089C645.735 471.813 645.84 471.55 645.994 471.315C646.148 471.08 646.347 470.878 646.58 470.72C646.813 470.563 647.075 470.454 647.35 470.399C647.626 470.344 647.909 470.345 648.185 470.401C648.46 470.457 648.721 470.567 648.954 470.725C649.186 470.883 649.384 471.086 649.537 471.322C651.541 474.292 652.608 477.795 652.598 481.378V484.706C652.598 485.264 652.378 485.8 651.984 486.196C651.591 486.592 651.057 486.816 650.498 486.82V486.82Z" fill="#263238"/>
<path d="M607.198 496.108C606.092 496.108 605.031 495.668 604.249 494.886C603.467 494.104 603.027 493.043 603.027 491.937V485.297C603.027 484.191 603.467 483.131 604.249 482.348C605.031 481.566 606.092 481.127 607.198 481.127V481.127C608.304 481.127 609.364 481.566 610.147 482.348C610.929 483.131 611.368 484.191 611.368 485.297V491.937C611.364 493.042 610.924 494.101 610.142 494.882C609.361 495.663 608.303 496.104 607.198 496.108V496.108Z" fill="white" stroke="#263238" stroke-linecap="round" stroke-linejoin="round"/>
<path d="M607.623 481.127H606.766V496.093H607.623V481.127Z" fill="#AE8DFF" stroke="#263238" stroke-linecap="round" stroke-linejoin="round"/>
<path d="M653.899 485.297C653.899 482.994 652.032 481.127 649.729 481.127C647.426 481.127 645.559 482.994 645.559 485.297V491.923C645.559 494.226 647.426 496.093 649.729 496.093C652.032 496.093 653.899 494.226 653.899 491.923V485.297Z" fill="white" stroke="#263238" stroke-linecap="round" stroke-linejoin="round"/>
<path d="M650.159 481.127H649.301V496.093H650.159V481.127Z" fill="#AE8DFF" stroke="#263238" stroke-linecap="round" stroke-linejoin="round"/>
<path d="M628.684 479.766C630.153 479.76 631.598 479.39 632.888 478.688C634.179 477.985 635.275 476.974 636.078 475.744L637.897 472.934C635.013 471.343 631.768 470.519 628.474 470.542C625.18 470.566 621.947 471.435 619.086 473.067L621.807 476.468C622.636 477.495 623.683 478.323 624.873 478.894C626.063 479.464 627.364 479.762 628.684 479.766V479.766Z" fill="#AE8DFF" stroke="#263238" stroke-linecap="round" stroke-linejoin="round"/>
<path d="M628.834 497.971C629.006 497.971 629.145 497.832 629.145 497.66C629.145 497.489 629.006 497.35 628.834 497.35C628.662 497.35 628.523 497.489 628.523 497.66C628.523 497.832 628.662 497.971 628.834 497.971Z" fill="#263238"/>
<path d="M628.834 499.065C629.006 499.065 629.145 498.926 629.145 498.755C629.145 498.583 629.006 498.444 628.834 498.444C628.662 498.444 628.523 498.583 628.523 498.755C628.523 498.926 628.662 499.065 628.834 499.065Z" fill="#263238"/>
<path d="M627.917 498.577C627.995 498.553 628.06 498.499 628.099 498.427C628.138 498.356 628.147 498.271 628.124 498.193C628.094 498.116 628.037 498.052 627.963 498.014C627.89 497.976 627.805 497.966 627.724 497.986C627.648 498.013 627.585 498.067 627.547 498.138C627.508 498.209 627.498 498.292 627.517 498.37C627.529 498.411 627.549 498.448 627.575 498.481C627.602 498.513 627.635 498.54 627.673 498.559C627.71 498.579 627.751 498.59 627.793 498.593C627.835 498.596 627.877 498.591 627.917 498.577V498.577Z" fill="#263238"/>
<path d="M629.852 498.577C629.93 498.553 629.995 498.5 630.034 498.428C630.073 498.356 630.082 498.271 630.059 498.193C630.032 498.114 629.975 498.048 629.901 498.009C629.826 497.971 629.74 497.962 629.659 497.986C629.621 497.997 629.585 498.017 629.554 498.043C629.524 498.069 629.498 498.101 629.48 498.137C629.462 498.173 629.452 498.212 629.45 498.252C629.447 498.292 629.453 498.332 629.467 498.37C629.477 498.41 629.495 498.447 629.521 498.48C629.546 498.512 629.578 498.539 629.614 498.559C629.65 498.578 629.69 498.59 629.731 498.593C629.772 498.596 629.813 498.591 629.852 498.577V498.577Z" fill="#263238"/>
<path d="M471.895 561.71H589.567V486.88V472.979L575.651 486.88H471.895V561.71Z" fill="#AE8DFF" stroke="#263238" stroke-linecap="round" stroke-linejoin="round"/>
<path d="M550.469 504.182H578.168" stroke="#263238" stroke-linecap="round" stroke-linejoin="round"/>
<path d="M511.707 504.182H543.354" stroke="#263238" stroke-linecap="round" stroke-linejoin="round"/>
<path d="M487.969 504.182H506.159" stroke="#263238" stroke-linecap="round" stroke-linejoin="round"/>
<path d="M537.809 512.893H578.166" stroke="#263238" stroke-linecap="round" stroke-linejoin="round"/>
<path d="M487.969 512.893H530.693" stroke="#263238" stroke-linecap="round" stroke-linejoin="round"/>
<path d="M570.254 521.588H578.166" stroke="#263238" stroke-linecap="round" stroke-linejoin="round"/>
<path d="M525.949 521.588H563.926" stroke="#263238" stroke-linecap="round" stroke-linejoin="round"/>
<path d="M487.969 521.588H519.616" stroke="#263238" stroke-linecap="round" stroke-linejoin="round"/>
<path d="M550.469 528.716H578.168" stroke="#263238" stroke-linecap="round" stroke-linejoin="round"/>
<path d="M511.707 528.716H543.354" stroke="#263238" stroke-linecap="round" stroke-linejoin="round"/>
<path d="M487.969 528.716H506.159" stroke="#263238" stroke-linecap="round" stroke-linejoin="round"/>
<path d="M537.809 537.412H578.166" stroke="#263238" stroke-linecap="round" stroke-linejoin="round"/>
<path d="M487.969 537.412H530.693" stroke="#263238" stroke-linecap="round" stroke-linejoin="round"/>
<path d="M570.254 546.107H578.166" stroke="#263238" stroke-linecap="round" stroke-linejoin="round"/>
<path d="M525.949 546.107H563.926" stroke="#263238" stroke-linecap="round" stroke-linejoin="round"/>
<path d="M487.969 546.107H519.616" stroke="#263238" stroke-linecap="round" stroke-linejoin="round"/>
<path d="M648.899 34.8682H587.852C587.212 38.2491 585.413 41.301 582.765 43.4983C580.117 45.6956 576.785 46.9007 573.344 46.906H485.944C482.503 46.9007 479.172 45.6956 476.524 43.4983C473.875 41.301 472.076 38.2491 471.436 34.8682H410.463C405.365 34.8682 400.475 36.8937 396.869 40.4991C393.264 44.1045 391.238 48.9944 391.238 54.0932V570.213C391.238 575.311 393.264 580.201 396.869 583.807C400.475 587.412 405.365 589.438 410.463 589.438H648.899C653.998 589.438 658.887 587.412 662.493 583.807C666.098 580.201 668.124 575.311 668.124 570.213V54.0932C668.124 48.9944 666.098 44.1045 662.493 40.4991C658.887 36.8937 653.998 34.8682 648.899 34.8682V34.8682Z" stroke="#263238" stroke-width="2" stroke-linecap="round" stroke-linejoin="round"/>
<path d="M668.124 69.6951V54.108C668.124 49.0092 666.098 44.1192 662.493 40.5138C658.887 36.9084 653.998 34.883 648.899 34.883H587.852C587.212 38.2639 585.413 41.3158 582.765 43.5131C580.117 45.7104 576.785 46.9155 573.344 46.9208H485.944C482.501 46.9148 479.168 45.7076 476.519 43.5074C473.871 41.3072 472.073 38.2518 471.436 34.8682H410.463C405.365 34.8682 400.475 36.8937 396.869 40.4991C393.264 44.1045 391.238 48.9944 391.238 54.0932V69.6951H668.124Z" stroke="#263238" stroke-width="2" stroke-linecap="round" stroke-linejoin="round"/>
<path d="M416.602 48.7988C416.602 52.5847 412.343 53.9452 412.328 56.829V57.0212H416.454V58.3078H410.953V57.2283C410.953 53.2354 415.242 52.3776 415.242 48.7988C415.242 47.4974 414.813 46.8172 413.763 46.8172C412.713 46.8172 412.284 47.5566 412.284 48.6657V49.7749H410.983V48.7988C410.983 46.8763 411.855 45.6045 413.792 45.6045C415.73 45.6045 416.602 46.8763 416.602 48.7988Z" fill="#263238"/>
<path d="M423.464 48.7985V49.1239C423.527 49.6548 423.417 50.192 423.151 50.6556C422.884 51.1192 422.475 51.4844 421.985 51.6971C422.481 51.9112 422.893 52.2811 423.16 52.7507C423.427 53.2204 423.534 53.7642 423.464 54.2999V55.2611C423.464 57.1836 422.562 58.4406 420.639 58.4406C418.717 58.4406 417.814 57.1836 417.814 55.2611V54.4034H419.131V55.3498C419.131 56.4886 419.589 57.1688 420.609 57.1688C421.63 57.1688 422.088 56.5033 422.088 55.2315V54.2703C422.088 53.028 421.556 52.4365 420.506 52.3921H419.678V51.1499H420.506C420.723 51.1531 420.939 51.1083 421.137 51.0188C421.335 50.9293 421.51 50.7973 421.652 50.6321C421.793 50.4669 421.896 50.2726 421.954 50.063C422.011 49.8535 422.022 49.6338 421.985 49.4196V48.7985C421.985 47.5119 421.526 46.8464 420.506 46.8464C419.486 46.8464 419.027 47.5415 419.027 48.6802V49.3309H417.711V48.7985C417.711 46.876 418.613 45.6338 420.536 45.6338C422.458 45.6338 423.464 46.8612 423.464 48.7985Z" fill="#263238"/>
<path d="M426.17 49.7305V51.4755H424.824V49.7305H426.17ZM426.17 56.5628V58.3078H424.824V56.5628H426.17Z" fill="#263238"/>
<path d="M429.011 50.855C429.195 50.5263 429.466 50.2554 429.795 50.0725C430.125 49.8897 430.498 49.8021 430.874 49.8198C432.486 49.8198 433.211 51.0029 433.211 52.7775V55.2324C433.211 57.1549 432.294 58.4119 430.371 58.4119C428.449 58.4119 427.562 57.1549 427.562 55.2324V54.3894H428.863V55.3211C428.863 56.4598 429.336 57.1401 430.342 57.1401C431.348 57.1401 431.821 56.4598 431.821 55.3211V52.9106C431.821 51.7719 431.362 51.0916 430.342 51.0916C430.154 51.0729 429.965 51.0939 429.786 51.1531C429.607 51.2124 429.442 51.3085 429.303 51.4354C429.164 51.5623 429.052 51.717 428.977 51.8896C428.901 52.0622 428.862 52.2488 428.863 52.4373V52.7183H427.547L427.887 45.7529H432.841V47.01H429.144L429.011 50.855Z" fill="#263238"/>
<path d="M440.173 48.7992V49.0211H438.901V48.6957C438.901 47.5718 438.428 46.9063 437.423 46.9063C436.417 46.9063 435.944 47.5866 435.944 48.9323V51.7569C436.088 51.3422 436.364 50.9861 436.73 50.7431C437.096 50.5001 437.531 50.3835 437.97 50.4112C439.582 50.4112 440.306 51.5647 440.306 53.3689V55.2618C440.306 57.1843 439.36 58.4413 437.437 58.4413C435.515 58.4413 434.465 57.1695 434.465 55.247V48.7992C434.465 46.8028 435.352 45.5605 437.349 45.5605C439.345 45.5605 440.173 46.8471 440.173 48.7992ZM435.855 53.4872V55.3653C435.855 56.5041 436.328 57.1843 437.334 57.1843C438.339 57.1843 438.813 56.5041 438.813 55.3653V53.4576C438.813 52.3337 438.325 51.6534 437.334 51.6534C436.343 51.6534 435.855 52.3337 435.855 53.4576V53.4872Z" fill="#263238"/>
<path d="M595.174 49.3164H591.625V58.1747H595.174V49.3164Z" fill="#263238"/>
<path d="M599.909 47.542H596.359V58.1749H599.909V47.542Z" fill="#263238"/>
<path d="M604.62 46.2852H601.07V58.1751H604.62V46.2852Z" fill="#263238"/>
<path d="M609.354 44.082H605.805V58.1755H609.354V44.082Z" fill="#263238"/>
<path d="M653.203 57.9238H631.938V44.9395H653.203V57.9238ZM633.121 56.7555H652.02V46.1225H633.121V56.7555Z" fill="#263238"/>
<path d="M646.119 47.4082H634.895V55.468H646.119V47.4082Z" fill="#263238"/>
<path d="M655.138 49.9082H652.461V52.9694H655.138V49.9082Z" fill="#263238"/>
<path d="M624.146 55.0988C624.006 55.1013 623.868 55.0655 623.747 54.9952C619.414 52.422 616.56 54.803 616.442 54.9065C616.365 54.9847 616.272 55.0461 616.17 55.087C616.068 55.1279 615.959 55.1474 615.849 55.1442C615.74 55.141 615.632 55.1152 615.533 55.0684C615.433 55.0216 615.345 54.9549 615.272 54.8723C615.2 54.7898 615.145 54.6932 615.112 54.5886C615.079 54.484 615.067 54.3737 615.078 54.2645C615.09 54.1553 615.123 54.0496 615.177 53.9539C615.231 53.8583 615.304 53.7748 615.392 53.7086C615.539 53.5755 619.207 50.4404 624.56 53.6199C624.737 53.7327 624.864 53.9096 624.914 54.1135C624.963 54.3175 624.932 54.5327 624.827 54.7142C624.757 54.8322 624.657 54.9298 624.538 54.9973C624.419 55.0648 624.284 55.0998 624.146 55.0988V55.0988Z" fill="#263238"/>
<path d="M625.741 52.4363C625.6 52.4336 625.462 52.3927 625.342 52.318C619.086 48.6061 614.871 52.1997 614.827 52.2293C614.749 52.2973 614.659 52.3493 614.561 52.3823C614.463 52.4154 614.36 52.4289 614.257 52.422C614.154 52.4152 614.054 52.3881 613.961 52.3423C613.868 52.2966 613.786 52.233 613.718 52.1553C613.65 52.0777 613.598 51.9874 613.565 51.8896C613.532 51.7918 613.518 51.6885 613.525 51.5855C613.532 51.4825 613.559 51.3818 613.605 51.2893C613.651 51.1968 613.714 51.1142 613.792 51.0462C613.792 51.0462 618.909 46.6097 626.155 50.9575C626.335 51.0677 626.464 51.2447 626.514 51.4497C626.564 51.6548 626.53 51.8713 626.421 52.0518C626.35 52.1688 626.25 52.2656 626.131 52.333C626.012 52.4003 625.878 52.4359 625.741 52.4363V52.4363Z" fill="#263238"/>
<path d="M627.205 49.3466C627.059 49.3437 626.916 49.303 626.791 49.2283C618.864 44.5256 613.599 48.9621 613.377 49.1544C613.216 49.2759 613.015 49.3321 612.815 49.3115C612.614 49.2909 612.429 49.1952 612.296 49.0435C612.163 48.8918 612.092 48.6954 612.098 48.4938C612.104 48.2921 612.186 48.1002 612.327 47.9565C612.401 47.9565 618.657 42.5439 627.604 47.8678C627.694 47.9212 627.773 47.9918 627.836 48.0757C627.899 48.1596 627.945 48.2551 627.971 48.3567C627.997 48.4584 628.003 48.5641 627.988 48.668C627.974 48.7719 627.938 48.8718 627.885 48.9621C627.813 49.0782 627.713 49.1742 627.594 49.2414C627.475 49.3086 627.341 49.3448 627.205 49.3466V49.3466Z" fill="#263238"/>
<path d="M621.747 56.43C621.75 56.8261 621.635 57.2141 621.416 57.5447C621.198 57.8752 620.887 58.1334 620.521 58.2863C620.156 58.4393 619.753 58.4801 619.365 58.4035C618.976 58.3269 618.619 58.1365 618.339 57.8564C618.059 57.5763 617.868 57.2192 617.792 56.8306C617.715 56.4419 617.756 56.0393 617.909 55.6739C618.062 55.3085 618.32 54.9968 618.65 54.7786C618.981 54.5603 619.369 54.4454 619.765 54.4483C620.291 54.4483 620.795 54.6571 621.166 55.0287C621.538 55.4003 621.747 55.9044 621.747 56.43Z" fill="#263238"/>
<path d="M645.945 612.996H677.001" stroke="#263238" stroke-linecap="round" stroke-linejoin="round"/>
<path d="M60.3203 612.996H635.594" stroke="#263238" stroke-linecap="round" stroke-linejoin="round"/>
<path d="M19.875 612.996H41.0965" stroke="#263238" stroke-linecap="round" stroke-linejoin="round"/>
<path d="M232.87 413.84H210.273V610.231H232.87V413.84Z" fill="#263238" stroke="#263238" stroke-linecap="round" stroke-linejoin="round"/>
<path d="M53.6914 484.958V498.771H143.753V484.958H53.6914Z" fill="#263238" stroke="#263238" stroke-linecap="round" stroke-linejoin="round"/>
<path d="M62.9492 437.279H49.1367V492.544H62.9492V437.279Z" fill="#263238" stroke="#263238" stroke-linecap="round" stroke-linejoin="round"/>
<path d="M68.7022 492.781C68.7022 494.443 68.3747 496.088 67.7383 497.623C67.102 499.158 66.1693 500.553 64.9936 501.727C63.8179 502.902 62.4223 503.833 60.8865 504.467C59.3508 505.102 57.705 505.427 56.0433 505.425C55.6292 505.425 55.2151 505.425 54.8158 505.425C52.5125 505.198 50.3156 504.343 48.4642 502.954C46.6128 501.565 45.1776 499.695 44.3148 497.547C43.452 495.399 43.1945 493.056 43.5704 490.772C43.9463 488.488 44.9411 486.351 46.4467 484.593C47.9524 482.835 49.9111 481.524 52.1101 480.801C54.309 480.079 56.6639 479.973 58.9188 480.496C61.1736 481.018 63.242 482.149 64.8992 483.765C66.5563 485.381 67.7387 487.42 68.3177 489.661C68.5703 490.682 68.6993 491.73 68.7022 492.781V492.781Z" fill="white" stroke="#263238" stroke-linecap="round" stroke-linejoin="round"/>
<path d="M69.6336 445.798C69.6257 449.151 68.2891 452.365 65.9163 454.735C63.5436 457.105 60.3282 458.438 56.9746 458.442C56.5605 458.442 56.1464 458.442 55.7324 458.442C53.4279 458.221 51.2281 457.372 49.3723 455.988C47.5165 454.604 46.0758 452.738 45.2068 450.592C44.3379 448.446 44.074 446.103 44.4439 443.818C44.8137 441.533 45.8032 439.393 47.3047 437.631C48.8061 435.868 50.762 434.552 52.9596 433.824C55.1572 433.096 57.5124 432.984 59.7689 433.502C62.0254 434.019 64.0969 435.145 65.7579 436.758C67.419 438.37 68.606 440.408 69.1899 442.648C69.474 443.674 69.6231 444.733 69.6336 445.798Z" fill="white" stroke="#263238" stroke-linecap="round" stroke-linejoin="round"/>
<path d="M92.3023 411.488L73.8906 421.401L77.7046 428.485L96.1163 418.571L92.3023 411.488Z" fill="#263238" stroke="#263238" stroke-linecap="round" stroke-linejoin="round"/>
<path d="M99.1671 419.341L90.1018 424.222L84.3047 413.47L93.3848 408.575C94.0973 408.185 94.8807 407.941 95.6889 407.857C96.4971 407.774 97.3139 407.853 98.091 408.09C98.8682 408.327 99.5901 408.717 100.214 409.237C100.838 409.758 101.352 410.397 101.726 411.119V411.119C102.468 412.55 102.615 414.217 102.136 415.756C101.657 417.295 100.59 418.584 99.1671 419.341V419.341Z" fill="white" stroke="#263238" stroke-linecap="round" stroke-linejoin="round"/>
<path d="M59.4309 373.748L58.7802 411.252L50.75 411.119L51.3859 373.615L59.4309 373.748Z" fill="#263238" stroke="#263238" stroke-linecap="round" stroke-linejoin="round"/>
<path d="M61.6006 371.485L61.438 381.837L49.2227 381.542L49.3853 371.19C49.3988 370.387 49.5702 369.596 49.8896 368.86C50.2091 368.124 50.6704 367.458 51.2472 366.901C51.824 366.343 52.5049 365.905 53.2512 365.611C53.9975 365.316 54.7944 365.172 55.5965 365.185V365.185C56.4069 365.197 57.2068 365.37 57.9495 365.694C58.6922 366.018 59.3628 366.488 59.9219 367.074C60.481 367.661 60.9175 368.353 61.2058 369.111C61.494 369.868 61.6283 370.675 61.6006 371.485V371.485Z" fill="white" stroke="#263238" stroke-linecap="round" stroke-linejoin="round"/>
<path d="M89.4795 387.353L71.8368 420.45L64.7383 416.679L82.3662 383.582L89.4795 387.353Z" fill="#263238" stroke="#263238" stroke-linecap="round" stroke-linejoin="round"/>
<path d="M92.437 386.333L87.6011 395.428L76.8203 389.705L81.6414 380.595C82.4041 379.169 83.6999 378.103 85.246 377.629C86.792 377.155 88.4627 377.312 89.8934 378.066V378.066C91.3256 378.826 92.3978 380.124 92.8747 381.673C93.3516 383.223 93.1942 384.899 92.437 386.333V386.333Z" fill="white" stroke="#263238" stroke-linecap="round" stroke-linejoin="round"/>
<path d="M30.918 387.206L48.398 420.392L41.2847 424.148L23.8047 390.962L30.918 387.206Z" fill="#263238" stroke="#263238" stroke-linecap="round" stroke-linejoin="round"/>
<path d="M47.3204 411.267C47.0612 409.732 46.3525 408.309 45.2839 407.177C44.2153 406.045 42.835 405.255 41.3175 404.908C39.8 404.561 38.2137 404.672 36.7592 405.226C35.3047 405.781 34.0475 406.755 33.1467 408.024C32.2458 409.294 31.7418 410.802 31.6984 412.358C31.655 413.914 32.0742 415.448 32.9029 416.766C33.7316 418.084 34.9327 419.126 36.354 419.761C37.7753 420.396 39.353 420.595 40.8874 420.333C42.9417 419.982 44.7729 418.83 45.979 417.131C47.185 415.431 47.6675 413.322 47.3204 411.267V411.267Z" fill="white" stroke="#263238" stroke-linecap="round" stroke-linejoin="round"/>
<path d="M55.0081 412.302C59.3532 412.302 62.8756 408.78 62.8756 404.435C62.8756 400.09 59.3532 396.567 55.0081 396.567C50.663 396.567 47.1406 400.09 47.1406 404.435C47.1406 408.78 50.663 412.302 55.0081 412.302Z" fill="white" stroke="#263238" stroke-linecap="round" stroke-linejoin="round"/>
<path d="M80.6825 408.974C80.9193 407.436 80.6944 405.862 80.0363 404.451C79.3782 403.041 78.3165 401.857 76.9856 401.05C75.6546 400.243 74.1142 399.849 72.5592 399.918C71.0042 399.987 69.5045 400.515 68.2499 401.436C66.9953 402.358 66.0422 403.63 65.5112 405.093C64.9801 406.556 64.895 408.144 65.2665 409.656C65.6381 411.167 66.4496 412.535 67.5985 413.585C68.7474 414.635 70.1819 415.321 71.7207 415.555C72.7414 415.713 73.7831 415.668 74.7863 415.422C75.7895 415.176 76.7343 414.735 77.5668 414.124C78.3993 413.513 79.103 412.743 79.6376 411.86C80.1722 410.976 80.5273 409.995 80.6825 408.974V408.974Z" fill="white" stroke="#263238" stroke-linecap="round" stroke-linejoin="round"/>
<path d="M31.731 384.175L36.5521 393.284L25.7565 399.008L20.9354 389.883C20.5589 389.175 20.3259 388.399 20.25 387.6C20.1741 386.801 20.2567 385.995 20.493 385.229C20.7293 384.462 21.1148 383.749 21.6272 383.132C22.1396 382.515 22.769 382.005 23.479 381.631V381.631C24.9115 380.879 26.5836 380.724 28.1298 381.2C29.6761 381.677 30.9708 382.746 31.731 384.175V384.175Z" fill="white" stroke="#263238" stroke-linecap="round" stroke-linejoin="round"/>
<path d="M79.1715 426.454C79.1715 432.338 76.8344 437.98 72.6743 442.14C68.5142 446.3 62.872 448.637 56.9887 448.637C56.2493 448.637 55.5099 448.637 54.8148 448.548C50.7796 448.148 46.9312 446.65 43.688 444.216C40.4447 441.782 37.9307 438.506 36.4191 434.743C34.9076 430.98 34.4563 426.875 35.1144 422.874C35.7725 418.873 37.5147 415.128 40.1518 412.048C42.7888 408.967 46.2198 406.669 50.0717 405.402C53.9237 404.135 58.0493 403.948 62 404.861C65.9508 405.775 69.5756 407.753 72.4805 410.583C75.3854 413.412 77.4591 416.983 78.4764 420.909C78.9351 422.722 79.1685 424.584 79.1715 426.454V426.454Z" fill="white" stroke="#263238" stroke-linecap="round" stroke-linejoin="round"/>
<path d="M79.1704 426.455C79.1704 432.338 76.8333 437.98 72.6732 442.141C68.5131 446.301 62.8708 448.638 56.9876 448.638C56.2482 448.638 55.5088 448.638 54.8137 448.549C53.9638 445.267 53.8776 441.834 54.5617 438.513C55.2457 435.192 56.6818 432.073 58.7596 429.393C60.8375 426.714 63.5017 424.547 66.5478 423.059C69.5938 421.57 72.9406 420.799 76.331 420.806C77.0556 420.806 77.8099 420.806 78.5049 420.909C78.9536 422.723 79.1771 424.586 79.1704 426.455V426.455Z" fill="white" stroke="#263238" stroke-linecap="round" stroke-linejoin="round"/>
<path d="M190.871 493.181C194.637 477.085 184.642 460.983 168.546 457.217C152.45 453.45 136.348 463.446 132.581 479.542C128.815 495.638 138.81 511.74 154.906 515.506C171.003 519.273 187.104 509.277 190.871 493.181Z" fill="white" stroke="#263238" stroke-linecap="round" stroke-linejoin="round"/>
<path d="M167.285 499.746C174.68 496.661 178.175 488.166 175.09 480.771C172.006 473.376 163.511 469.882 156.116 472.966C148.721 476.051 145.227 484.546 148.311 491.94C151.395 499.335 159.89 502.83 167.285 499.746Z" fill="#263238" stroke="#263238" stroke-linecap="round" stroke-linejoin="round"/>
<path d="M156.575 612.997H289.376L291.284 604.005C292.049 600.414 291.361 596.665 289.372 593.579C287.383 590.492 284.253 588.318 280.666 587.531C261.84 583.302 221.083 581.778 221.083 581.778C211.263 582.089 183.934 583.257 165.108 587.546C161.546 588.359 158.447 590.542 156.482 593.622C154.517 596.703 153.844 600.433 154.608 604.005L156.575 612.997Z" fill="white" stroke="#263238" stroke-linecap="round" stroke-linejoin="round"/>
<path d="M254.935 583.967C237.928 582.399 221.128 581.778 221.128 581.778C214.946 581.971 201.814 582.518 188.238 583.967C192.202 597.499 205.63 607.466 221.586 607.466C237.543 607.466 250.971 597.454 254.935 583.967Z" fill="#AE8DFF" stroke="#263238" stroke-linecap="round" stroke-linejoin="round"/>
<path d="M360.294 549.586L368.555 538.516L296.373 484.654L288.113 495.725L360.294 549.586Z" fill="#263238" stroke="#263238" stroke-linecap="round" stroke-linejoin="round"/>
<path d="M324.375 582.266L335.445 590.526L368.496 546.234L357.426 537.973L324.375 582.266Z" fill="#263238" stroke="#263238" stroke-linecap="round" stroke-linejoin="round"/>
<path d="M352.936 534.337C353.931 533.002 355.18 531.876 356.611 531.025C358.042 530.173 359.627 529.611 361.275 529.372C362.924 529.133 364.603 529.222 366.217 529.632C367.831 530.042 369.348 530.767 370.682 531.764L371.643 532.547C373.353 534.107 374.603 536.107 375.256 538.327C375.91 540.548 375.942 542.906 375.349 545.143C374.755 547.381 373.56 549.413 371.893 551.019C370.225 552.624 368.149 553.742 365.891 554.25C363.632 554.758 361.278 554.638 359.083 553.901C356.889 553.164 354.938 551.84 353.444 550.071C351.949 548.303 350.969 546.16 350.608 543.873C350.247 541.586 350.52 539.244 351.398 537.102C351.795 536.121 352.311 535.192 352.936 534.337V534.337Z" fill="white" stroke="#263238" stroke-linecap="round" stroke-linejoin="round"/>
<path d="M324.056 569.726C325.931 566.942 328.835 565.016 332.13 564.372C335.425 563.729 338.84 564.421 341.625 566.295C341.965 566.517 342.29 566.768 342.616 567.02C344.401 568.493 345.748 570.429 346.511 572.615C347.273 574.801 347.421 577.154 346.939 579.418C346.457 581.683 345.363 583.771 343.777 585.457C342.19 587.144 340.172 588.362 337.941 588.981C335.71 589.6 333.352 589.595 331.124 588.967C328.895 588.339 326.882 587.112 325.302 585.419C323.723 583.727 322.638 581.634 322.165 579.367C321.692 577.101 321.85 574.748 322.622 572.565C322.98 571.563 323.462 570.609 324.056 569.726V569.726Z" fill="white" stroke="#263238" stroke-linecap="round" stroke-linejoin="round"/>
<path d="M286.045 585.569L306.855 587.613L307.642 579.607L286.831 577.563L286.045 585.569Z" fill="#263238" stroke="#263238" stroke-linecap="round" stroke-linejoin="round"/>
<path d="M284.776 575.272L295.039 576.277L293.841 588.434L283.578 587.428C281.966 587.271 280.482 586.48 279.453 585.229C278.425 583.979 277.935 582.37 278.091 580.758V580.758C278.252 579.145 279.046 577.662 280.299 576.633C281.552 575.605 283.162 575.115 284.776 575.272V575.272Z" fill="white" stroke="#263238" stroke-linecap="round" stroke-linejoin="round"/>
<path d="M305.331 580.448C306.957 578.025 309.044 575.947 311.473 574.333C313.903 572.718 316.627 571.599 319.489 571.038C322.352 570.478 325.297 570.487 328.156 571.067C331.015 571.646 333.732 572.783 336.151 574.414C336.757 574.828 337.334 575.257 337.896 575.715C341.022 578.299 343.381 581.691 344.714 585.521C346.048 589.352 346.306 593.474 345.46 597.441C344.614 601.408 342.697 605.067 339.916 608.02C337.136 610.973 333.599 613.108 329.691 614.191C325.782 615.275 321.651 615.266 317.747 614.166C313.843 613.065 310.316 610.916 307.548 607.951C304.781 604.986 302.879 601.319 302.05 597.348C301.221 593.378 301.497 589.256 302.847 585.431C303.459 583.671 304.294 581.996 305.331 580.448Z" fill="white" stroke="#263238" stroke-linecap="round" stroke-linejoin="round"/>
<path d="M281.438 603.488L308.944 582.917L313.366 588.818L285.859 609.374L281.438 603.488Z" fill="#263238" stroke="#263238" stroke-linecap="round" stroke-linejoin="round"/>
<path d="M278.582 603.177L286.139 597.454L292.853 606.327L285.296 611.991C284.109 612.879 282.619 613.26 281.152 613.049C279.685 612.838 278.361 612.053 277.473 610.867V610.867C276.621 609.693 276.26 608.233 276.467 606.797C276.674 605.361 277.433 604.063 278.582 603.177V603.177Z" fill="white" stroke="#263238" stroke-linecap="round" stroke-linejoin="round"/>
<path d="M316.956 589.261C317.306 587.742 317.197 586.154 316.642 584.697C316.087 583.241 315.113 581.982 313.842 581.08C312.571 580.178 311.061 579.674 309.503 579.632C307.945 579.59 306.409 580.011 305.091 580.843C303.773 581.674 302.732 582.878 302.099 584.303C301.467 585.727 301.271 587.307 301.538 588.843C301.805 590.378 302.521 591.8 303.597 592.927C304.673 594.055 306.059 594.838 307.581 595.176C309.608 595.627 311.731 595.258 313.487 594.15C315.244 593.042 316.491 591.285 316.956 589.261Z" fill="white" stroke="#263238" stroke-linecap="round" stroke-linejoin="round"/>
<path d="M331.539 624.162L335.621 595.945L341.669 596.803L337.602 625.02L331.539 624.162Z" fill="#263238" stroke="#263238" stroke-linecap="round" stroke-linejoin="round"/>
<path d="M329.691 625.656L330.8 617.892L339.984 619.208L338.875 626.957C338.789 627.561 338.586 628.142 338.276 628.668C337.966 629.193 337.555 629.652 337.068 630.019C336.58 630.386 336.025 630.653 335.434 630.805C334.844 630.957 334.229 630.991 333.625 630.905V630.905C332.407 630.73 331.31 630.078 330.572 629.094C329.835 628.11 329.518 626.873 329.691 625.656V625.656Z" fill="white" stroke="#263238" stroke-linecap="round" stroke-linejoin="round"/>
<path d="M344.034 594.954C343.338 593.869 342.335 593.015 341.154 592.5C339.972 591.984 338.665 591.83 337.396 592.057C336.127 592.284 334.954 592.882 334.025 593.776C333.095 594.67 332.452 595.818 332.175 597.078C331.899 598.337 332.001 599.649 332.471 600.85C332.94 602.051 333.754 603.086 334.811 603.824C335.868 604.562 337.12 604.97 338.409 604.997C339.697 605.024 340.965 604.669 342.052 603.975C343.51 603.041 344.538 601.566 344.909 599.875C345.281 598.183 344.966 596.414 344.034 594.954V594.954Z" fill="white" stroke="#263238" stroke-linecap="round" stroke-linejoin="round"/>
<path d="M304.312 620.407L322.65 591.362L328.876 595.266L310.553 624.326L304.312 620.407Z" fill="#263238" stroke="#263238" stroke-linecap="round" stroke-linejoin="round"/>
<path d="M301.548 621.116L306.561 613.13L316.041 619.045L311.013 627.046C310.221 628.298 308.967 629.185 307.523 629.515C306.08 629.845 304.564 629.59 303.308 628.806V628.806C302.057 628.017 301.17 626.765 300.84 625.324C300.51 623.883 300.765 622.37 301.548 621.116V621.116Z" fill="white" stroke="#263238" stroke-linecap="round" stroke-linejoin="round"/>
<path d="M332.428 594.408C332.208 592.868 331.537 591.428 330.498 590.27C329.459 589.112 328.099 588.289 326.592 587.905C325.084 587.521 323.497 587.594 322.031 588.113C320.564 588.633 319.286 589.576 318.356 590.823C317.427 592.071 316.889 593.566 316.811 595.12C316.732 596.673 317.117 598.215 317.917 599.55C318.716 600.884 319.894 601.951 321.3 602.616C322.707 603.28 324.279 603.511 325.817 603.281C327.869 602.977 329.717 601.873 330.956 600.21C332.195 598.547 332.724 596.46 332.428 594.408V594.408Z" fill="white" stroke="#263238" stroke-linecap="round" stroke-linejoin="round"/>
<path d="M298.454 512.048C312.354 503.101 316.368 484.579 307.421 470.679C298.473 456.779 279.951 452.764 266.051 461.712C252.151 470.66 248.136 489.181 257.084 503.081C266.032 516.981 284.553 520.996 298.454 512.048Z" fill="white" stroke="#263238" stroke-linecap="round" stroke-linejoin="round"/>
<path d="M295.453 492.94C298.793 485.657 295.597 477.045 288.315 473.705C281.032 470.364 272.42 473.56 269.08 480.843C265.739 488.125 268.935 496.737 276.218 500.078C283.501 503.418 292.112 500.222 295.453 492.94Z" fill="#263238" stroke="#263238" stroke-linecap="round" stroke-linejoin="round"/>
<path d="M221.57 427.563C248.122 427.563 269.647 406.038 269.647 379.486C269.647 352.933 248.122 331.408 221.57 331.408C195.017 331.408 173.492 352.933 173.492 379.486C173.492 406.038 195.017 427.563 221.57 427.563Z" fill="#AE8DFF" stroke="#263238" stroke-linecap="round" stroke-linejoin="round"/>
<path d="M290.307 411.503C300.632 398.558 307.094 382.962 308.949 366.508C310.804 350.054 307.977 333.411 300.793 318.492C293.609 303.573 282.361 290.985 268.341 282.175C254.321 273.365 238.099 268.691 221.54 268.691C204.982 268.691 188.76 273.365 174.74 282.175C160.72 290.985 149.471 303.573 142.287 318.492C135.104 333.411 132.277 350.054 134.132 366.508C135.987 382.962 142.449 398.558 152.774 411.503H290.307Z" fill="white" stroke="#263238" stroke-linecap="round" stroke-linejoin="round"/>
<path d="M275.37 323.453H165.55C158.869 323.453 153.453 328.869 153.453 335.55V374.474C153.453 381.155 158.869 386.571 165.55 386.571H275.37C282.051 386.571 287.467 381.155 287.467 374.474V335.55C287.467 328.869 282.051 323.453 275.37 323.453Z" fill="#AE8DFF" stroke="#263238" stroke-linecap="round" stroke-linejoin="round"/>
<path d="M167.949 352.453C169.402 348.386 172.049 344.853 175.543 342.317C179.038 339.781 183.218 338.36 187.534 338.24C191.851 338.12 196.103 339.307 199.733 341.645C203.363 343.983 206.202 347.364 207.878 351.343" stroke="#263238" stroke-width="5" stroke-linecap="round" stroke-linejoin="round"/>
<path d="M234.188 352.453C235.64 348.386 238.287 344.853 241.782 342.317C245.277 339.781 249.456 338.36 253.773 338.24C258.089 338.12 262.341 339.307 265.971 341.645C269.602 343.983 272.441 347.364 274.117 351.343" stroke="#263238" stroke-width="5" stroke-linecap="round" stroke-linejoin="round"/>
<path d="M209.977 367.078C210.348 370.011 211.776 372.707 213.994 374.662C216.211 376.616 219.066 377.695 222.022 377.695C224.978 377.695 227.832 376.616 230.05 374.662C232.267 372.707 233.696 370.011 234.067 367.078H209.977Z" fill="white" stroke="#263238" stroke-linecap="round" stroke-linejoin="round"/>
<path d="M335.386 372.077C332.946 372.077 330.607 371.108 328.882 369.383C327.157 367.658 326.188 365.318 326.188 362.878V341.953C326.186 340.743 326.422 339.546 326.883 338.428C327.345 337.31 328.022 336.294 328.876 335.439C329.731 334.583 330.745 333.904 331.862 333.441C332.979 332.978 334.177 332.739 335.386 332.739C336.595 332.737 337.793 332.974 338.911 333.435C340.028 333.897 341.044 334.574 341.9 335.428C342.756 336.283 343.434 337.297 343.898 338.414C344.361 339.531 344.599 340.729 344.599 341.938V362.863C344.601 364.074 344.364 365.273 343.902 366.392C343.44 367.51 342.761 368.527 341.905 369.383C341.049 370.238 340.033 370.917 338.914 371.379C337.795 371.842 336.596 372.079 335.386 372.077Z" fill="#263238" stroke="#263238" stroke-linecap="round" stroke-linejoin="round"/>
<path d="M105.245 372.077C104.035 372.079 102.838 371.842 101.72 371.381C100.602 370.919 99.5864 370.242 98.7306 369.388C97.8749 368.533 97.1961 367.519 96.7329 366.402C96.2697 365.285 96.0313 364.087 96.0313 362.878V341.953C96.0293 340.742 96.2663 339.543 96.7286 338.424C97.1909 337.306 97.8695 336.289 98.7254 335.433C99.5813 334.577 100.598 333.899 101.716 333.437C102.835 332.974 104.034 332.737 105.245 332.739V332.739C106.452 332.739 107.649 332.977 108.765 333.439C109.881 333.902 110.895 334.579 111.749 335.433C112.603 336.288 113.281 337.302 113.743 338.418C114.205 339.534 114.443 340.73 114.443 341.938V362.863C114.445 364.073 114.208 365.27 113.747 366.388C113.286 367.506 112.608 368.522 111.754 369.377C110.9 370.233 109.885 370.912 108.768 371.375C107.651 371.838 106.454 372.077 105.245 372.077V372.077Z" fill="#263238" stroke="#263238" stroke-linecap="round" stroke-linejoin="round"/>
<path d="M134.733 277.651C126.597 289.674 122.259 303.862 122.281 318.379V333.582" stroke="#263238" stroke-width="14" stroke-linecap="round" stroke-linejoin="round"/>
<path d="M309.357 277.711C302.699 267.791 293.701 259.662 283.158 254.042C272.614 248.423 260.849 245.484 248.902 245.487H195.145C183.214 245.479 171.464 248.404 160.93 254.006C150.395 259.607 141.399 267.712 134.734 277.608" stroke="#263238" stroke-width="7" stroke-linecap="round" stroke-linejoin="round"/>
<path d="M321.748 333.582V318.379C321.771 303.89 317.455 289.725 309.355 277.711" stroke="#263238" stroke-width="14" stroke-linecap="round" stroke-linejoin="round"/>
<path d="M129.614 317.212H117.281C110.142 317.212 104.355 322.999 104.355 330.137V372.861C104.355 379.999 110.142 385.786 117.281 385.786H129.614C136.753 385.786 142.539 379.999 142.539 372.861V330.137C142.539 322.999 136.753 317.212 129.614 317.212Z" fill="white" stroke="#263238" stroke-linecap="round" stroke-linejoin="round"/>
<path d="M125.401 317.212H121.512V385.786H125.401V317.212Z" fill="#AE8DFF" stroke="#263238" stroke-linecap="round" stroke-linejoin="round"/>
<path d="M324.411 317.212H312.078C304.939 317.212 299.152 322.999 299.152 330.137V372.861C299.152 379.999 304.939 385.786 312.078 385.786H324.411C331.55 385.786 337.336 379.999 337.336 372.861V330.137C337.336 322.999 331.55 317.212 324.411 317.212Z" fill="white" stroke="#263238" stroke-linecap="round" stroke-linejoin="round"/>
<path d="M320.194 317.212H316.305V385.786H320.194V317.212Z" fill="#AE8DFF" stroke="#263238" stroke-linecap="round" stroke-linejoin="round"/>
<path d="M221.879 310.985C228.616 310.987 235.246 309.302 241.164 306.083C247.082 302.864 252.1 298.215 255.76 292.559L264.101 279.648C250.884 272.349 236.01 268.576 220.912 268.693C205.815 268.81 191.001 272.812 177.898 280.314L190.454 295.901C194.231 300.605 199.015 304.402 204.453 307.012C209.892 309.623 215.847 310.981 221.879 310.985V310.985Z" fill="#AE8DFF" stroke="#263238" stroke-linecap="round" stroke-linejoin="round"/>
<path d="M223.969 392.959C223.969 392.667 223.883 392.381 223.72 392.138C223.558 391.895 223.327 391.705 223.056 391.593C222.786 391.481 222.489 391.452 222.202 391.509C221.915 391.566 221.652 391.707 221.445 391.914C221.238 392.12 221.097 392.384 221.04 392.671C220.983 392.958 221.012 393.255 221.124 393.525C221.236 393.795 221.426 394.026 221.669 394.189C221.912 394.351 222.198 394.438 222.491 394.438C222.883 394.438 223.259 394.282 223.536 394.005C223.814 393.728 223.969 393.352 223.969 392.959Z" fill="#263238"/>
<path d="M223.969 397.927C223.969 397.635 223.883 397.349 223.72 397.106C223.558 396.862 223.327 396.673 223.056 396.561C222.786 396.449 222.489 396.42 222.202 396.477C221.915 396.534 221.652 396.675 221.445 396.881C221.238 397.088 221.097 397.352 221.04 397.639C220.983 397.925 221.012 398.223 221.124 398.493C221.236 398.763 221.426 398.994 221.669 399.157C221.912 399.319 222.198 399.406 222.491 399.406C222.883 399.406 223.259 399.25 223.536 398.973C223.814 398.695 223.969 398.319 223.969 397.927Z" fill="#263238"/>
<path d="M218.333 397.159C218.603 396.984 218.809 396.727 218.92 396.425C219.03 396.123 219.039 395.793 218.946 395.486C218.852 395.178 218.661 394.909 218.401 394.72C218.141 394.531 217.826 394.432 217.505 394.438C217.235 394.612 217.029 394.87 216.918 395.172C216.808 395.473 216.799 395.803 216.892 396.111C216.986 396.418 217.177 396.687 217.437 396.876C217.697 397.065 218.012 397.164 218.333 397.159Z" fill="#263238"/>
<path d="M227.218 397.159C227.447 397.155 227.672 397.098 227.875 396.992C228.078 396.886 228.254 396.735 228.388 396.55C228.523 396.365 228.613 396.151 228.651 395.925C228.689 395.7 228.674 395.468 228.607 395.249C228.54 395.031 228.424 394.83 228.267 394.664C228.109 394.498 227.916 394.37 227.701 394.291C227.486 394.213 227.256 394.185 227.028 394.21C226.801 394.236 226.583 394.313 226.39 394.438C226.161 394.442 225.937 394.499 225.734 394.604C225.531 394.71 225.355 394.861 225.22 395.046C225.086 395.231 224.996 395.445 224.958 395.671C224.92 395.896 224.935 396.128 225.002 396.347C225.068 396.566 225.185 396.766 225.342 396.932C225.499 397.099 225.693 397.226 225.908 397.305C226.123 397.384 226.353 397.411 226.58 397.386C226.808 397.361 227.026 397.283 227.218 397.159Z" fill="#263238"/>
<path d="M280.664 448.444C261.839 444.2 221.081 442.677 221.081 442.677C211.262 442.987 183.933 444.156 165.107 448.459C161.543 449.269 158.442 451.451 156.476 454.532C154.511 457.613 153.839 461.345 154.607 464.919L172.043 546.492C172.899 550.447 175.082 553.991 178.229 556.536C181.376 559.08 185.298 560.473 189.345 560.482H256.559C260.606 560.473 264.528 559.08 267.675 556.536C270.822 553.991 273.005 550.447 273.862 546.492L291.283 464.919C292.048 461.327 291.36 457.578 289.371 454.492C287.381 451.405 284.251 449.231 280.664 448.444Z" fill="white" stroke="#263238" stroke-linecap="round" stroke-linejoin="round"/>
<path d="M272.09 446.877C251.667 443.83 221.128 442.677 221.128 442.677C206.176 443.105 191.257 444.339 176.438 446.374L196.195 560.482H249.892L272.09 446.877Z" fill="#AE8DFF" stroke="#263238" stroke-linecap="round" stroke-linejoin="round"/>
<path d="M238.755 467.478H206.042C199.361 467.478 193.945 472.894 193.945 479.575V495.546C193.945 502.227 199.361 507.643 206.042 507.643H238.755C245.436 507.643 250.852 502.227 250.852 495.546V479.575C250.852 472.894 245.436 467.478 238.755 467.478Z" fill="white" stroke="#263238" stroke-linecap="round" stroke-linejoin="round"/>
<path d="M212.846 484.026H203.633V493.24H212.846V484.026Z" fill="white" stroke="#263238" stroke-linecap="round" stroke-linejoin="round"/>
<path d="M226.998 484.026H217.785V493.24H226.998V484.026Z" fill="white" stroke="#263238" stroke-linecap="round" stroke-linejoin="round"/>
<path d="M241.166 484.026H231.953V493.24H241.166V484.026Z" fill="white" stroke="#263238" stroke-linecap="round" stroke-linejoin="round"/>
<path d="M92.9411 534.691H256.857C258.818 534.691 260.699 535.47 262.086 536.857C263.472 538.244 264.251 540.125 264.251 542.086V634.174H85.5469V542.086C85.5469 540.125 86.3259 538.244 87.7126 536.857C89.0993 535.47 90.9801 534.691 92.9411 534.691Z" fill="white" stroke="#263238" stroke-linecap="round" stroke-linejoin="round"/>
<path d="M264.251 567.788C241.802 573.482 218.762 587.974 175.831 608.383C134.423 628.081 100.528 627.741 85.5469 626.218V634.174H264.251V567.788Z" fill="#263238" stroke="#263238" stroke-linecap="round" stroke-linejoin="round"/>
<path d="M264.251 628.658H85.5469V634.189H264.251V628.658Z" fill="white" stroke="#263238" stroke-linecap="round" stroke-linejoin="round"/>
<path d="M184.11 584.441C184.11 586.263 183.57 588.044 182.557 589.559C181.545 591.074 180.106 592.255 178.423 592.953C176.739 593.65 174.887 593.833 173.099 593.477C171.312 593.122 169.671 592.244 168.382 590.956C167.094 589.667 166.216 588.025 165.861 586.238C165.505 584.451 165.688 582.599 166.385 580.915C167.082 579.232 168.263 577.793 169.778 576.78C171.293 575.768 173.075 575.228 174.897 575.228C177.34 575.228 179.684 576.198 181.412 577.926C183.139 579.654 184.11 581.997 184.11 584.441V584.441Z" fill="white" stroke="#263238" stroke-linecap="round" stroke-linejoin="round"/>
</svg>
