<svg id="Layer_1" data-name="Layer 1" xmlns="http://www.w3.org/2000/svg" viewBox="0 0 172 172"><defs><style>.cls-1{fill:#fefefe;}.cls-2{fill:#f6993e;}.cls-3{fill:#00363d;}</style></defs><path class="cls-1" d="M-375.69,412.92c0,27.48,0,55,.07,82.44,0,2.5-.57,3.07-3.06,3.06q-82.95-.12-165.88,0c-2.5,0-3.06-.56-3.06-3.06q.12-82.94,0-165.88c0-2.49.56-3.06,3.06-3.06q82.93.13,165.88,0c2.49,0,3.07.57,3.06,3.06C-375.72,357.3-375.69,385.11-375.69,412.92Z" transform="translate(547.62 -326.42)"/><path class="cls-2" d="M-469.22,429.14c.37,16.42-5.13,30.7-15.37,43.43-2.73,3.4-4.45,4.69-8.09.94q-20.49-21.12-41.51-41.73c-3.42-3.34-2-5,.59-7.62,13.5-13.33,27-26.67,40.21-40.29,3.87-4,6.21-3,9.12.68C-474,397.66-468.55,412.36-469.22,429.14Z" transform="translate(547.62 -326.42)"/><path class="cls-3" d="M-446.5,399.31c-.32-10.45,3.3-20.12,9.73-28.92,2.58-3.53,4.53-5.44,8.61-1,8.5,9.2,17.51,17.95,26.59,26.6,3.3,3.14,3.58,5.07.12,8.37-9.08,8.64-18,17.48-26.51,26.69-3.85,4.17-5.86,2.89-8.54-.79C-443.11,421.15-446.88,411.21-446.5,399.31Z" transform="translate(547.62 -326.42)"/></svg>