<svg id="Layer_1" data-name="Layer 1" xmlns="http://www.w3.org/2000/svg" viewBox="0 0 172 172"><defs><style>.cls-1{fill:#fefefe;}.cls-2{fill:#ea6651;}.cls-3{fill:#00363d;}</style></defs><path class="cls-1" d="M-839.52.5c0,27.48,0,55,.06,82.44,0,2.5-.56,3.06-3.06,3.06q-82.93-.12-165.88,0c-2.49,0-3.06-.56-3.06-3.06q.13-82.93,0-165.88c0-2.5.57-3.06,3.06-3.06q82.95.12,165.88,0c2.5,0,3.07.56,3.06,3.06C-839.56-55.13-839.52-27.31-839.52.5Z" transform="translate(1011.46 86)"/><path class="cls-2" d="M-951.55,51.91c-11.31,0-22.61-.14-33.91.07-3.88.07-5.31-1-5.28-5.08q.27-34.23,0-68.47c0-4,1.23-5.22,5.19-5.12,9.77.25,19.56.22,29.34,0,3.64-.08,4.93,1,4.84,4.75-.23,9.34.28,18.71-.21,28-.3,5.68,1.75,7,7,6.72,8.9-.41,17.83.12,26.73-.21,4.67-.18,6,1.48,5.81,5.94-.29,9.34-.31,18.7,0,28,.15,4.44-1.52,5.48-5.62,5.39C-928.94,51.76-940.25,51.91-951.55,51.91Z" transform="translate(1011.46 86)"/><path class="cls-3" d="M-873.53-.65c-7-2.34-13.22-4.17-19.25-6.53-6.2-2.42-15.66-2.14-17.83-7.45-1.86-4.56,3.25-12,5.3-18.1,1.79-5.33,3.83-10.59,5.33-16,.82-2.93,1.74-3.92,4.86-2.82,10.61,3.72,21.29,7.23,32,10.78,2.31.77,3.66,1.67,2.62,4.59-3.86,10.8-7.51,21.68-11.24,32.52C-872.22-2.34-872.06-.45-873.53-.65Z" transform="translate(1011.46 86)"/></svg>