<svg id="Layer_1" data-name="Layer 1" xmlns="http://www.w3.org/2000/svg" viewBox="0 0 631.28 506.21"><defs><style>.cls-1{fill:#77a200;}.cls-2{fill:#02363d;}</style></defs><path class="cls-1" d="M-553,326.59c-9.94-2.24-14.41-3-18.76-4.27-60-17.08-119.68-35.31-180.1-50.73-20.07-5.12-20.34-13.52-15.67-29.82Q-710,41-653.79-160.12c4.75-17.09,9.72-23.18,28.72-17.34q90.71,27.92,182.54,52.16c16.86,4.49,18.54,10.41,14,26.25-39.11,135.5-77.23,271.29-115.65,407C-546.46,315.89-545.76,326.26-553,326.59Z" transform="translate(770.04 179.62)"/><path class="cls-2" d="M-347,324.41c-15.28,5.11-15.65-4.33-17.42-10.5-18.42-64.19-36.33-128.53-54.88-192.68-3.95-13.68.15-18.31,13.88-22C-342.69,82.36-280.25,64.31-217.93,46c14.55-4.29,19.84-.76,23.8,14.13,16.71,62.78,34.86,125.18,52.76,187.64,2.88,10.08,6.69,17.54-8.94,21.69-65.4,17.41-130.4,36.31-195.55,54.66C-347.6,324.56-349.33,325.09-347,324.41Z" transform="translate(770.04 179.62)"/></svg>