<svg id="Layer_1" data-name="Layer 1" xmlns="http://www.w3.org/2000/svg" viewBox="0 0 852.97 683.97"><defs><style>.cls-1{fill:#77a200;}.cls-2{fill:#02363d;}</style></defs><path class="cls-1" d="M-529.12,594.16c-13.43-3-19.47-4.09-25.34-5.76-81.06-23.08-161.72-47.72-243.35-68.55-27.12-6.92-27.49-18.27-21.18-40.29q77.75-271.26,153.73-543c6.42-23.09,13.14-31.33,38.8-23.43q122.57,37.72,246.64,70.48c22.78,6.06,25.06,14.07,18.88,35.46C-413.78,202.14-465.29,385.61-517.21,569-520.25,579.71-519.29,593.72-529.12,594.16Z" transform="translate(822.34 89.81)"/><path class="cls-2" d="M-250.76,591.22c-20.63,6.91-21.14-5.85-23.53-14.19-24.88-86.73-49.09-173.66-74.15-260.34-5.34-18.48.2-24.74,18.76-29.73,84.77-22.79,169.13-47.18,253.34-72,19.66-5.79,26.8-1,32.16,19.1C-21.6,318.9,2.92,403.21,27.1,487.6c3.9,13.62,9,23.69-12.07,29.31C-73.34,540.43-161.17,566-249.2,590.76-251.55,591.43-253.88,592.14-250.76,591.22Z" transform="translate(822.34 89.81)"/></svg>