<svg id="Layer_1" data-name="Layer 1" xmlns="http://www.w3.org/2000/svg" viewBox="0 0 172 172"><defs><style>.cls-1{fill:#fefefe;}.cls-2{fill:#efc928;}.cls-3{fill:#01373e;}</style></defs><path class="cls-1" d="M-388.19,40.05c0,27.48,0,55,.06,82.44,0,2.5-.56,3.07-3.06,3.06q-82.93-.12-165.88,0c-2.49,0-3.06-.56-3.06-3.06q.14-82.93,0-165.88c0-2.49.57-3.06,3.06-3.06q83,.14,165.88,0c2.5,0,3.07.56,3.06,3.06C-388.23-15.57-388.19,12.24-388.19,40.05Z" transform="translate(560.13 46.45)"/><path class="cls-2" d="M-465,93.08c-26.13,0-47.3-16.94-52.47-41.89-2.1-10.17-1-11.63,9.27-11.63q44,0,87.9,0c9.43,0,10.56,1.55,8.59,11.51C-416.65,76-438.32,93.12-465,93.08Z" transform="translate(560.13 46.45)"/><path class="cls-3" d="M-474.55,23.26c-19.55,0-38.63-.21-57.7.11-6.7.11-5.13-3.86-4.33-7.27C-533.55,3.34-520-7.58-507.1-8s26.63,9.33,30.72,22.31A88.13,88.13,0,0,1-474.55,23.26Z" transform="translate(560.13 46.45)"/></svg>