<svg id="Layer_1" data-name="Layer 1" xmlns="http://www.w3.org/2000/svg" viewBox="0 0 172 172"><defs><style>.cls-1{fill:#fefefe;}.cls-2{fill:#77a200;}.cls-3{fill:#02363d;}</style></defs><path class="cls-1" d="M-503,206c0,27.48,0,55,.06,82.44,0,2.5-.56,3.06-3.06,3.06q-82.93-.13-165.88,0c-2.49,0-3.06-.57-3.06-3.06q.13-82.95,0-165.88c0-2.5.57-3.07,3.06-3.06q82.95.12,165.88,0c2.5,0,3.07.56,3.06,3.06C-503,150.39-503,178.2-503,206Z" transform="translate(674.95 -119.52)"/><path class="cls-2" d="M-607.43,252.07c-1.83-.42-2.65-.56-3.45-.79-11-3.13-22-6.48-33-9.31-3.68-.94-3.73-2.48-2.88-5.47q10.56-36.84,20.88-73.76c.88-3.13,1.79-4.25,5.27-3.18q16.65,5.13,33.5,9.57c3.1.83,3.41,1.91,2.57,4.82-7.18,24.87-14.18,49.79-21.23,74.69C-606.23,250.1-606.1,252-607.43,252.07Z" transform="translate(674.95 -119.52)"/><path class="cls-3" d="M-569.63,251.67c-2.8.93-2.87-.8-3.19-1.93-3.38-11.78-6.67-23.59-10.07-35.36-.73-2.51,0-3.36,2.54-4,11.52-3.1,23-6.41,34.42-9.78,2.67-.79,3.64-.14,4.36,2.59,3.07,11.53,6.4,23,9.68,34.44.53,1.85,1.23,3.22-1.63,4-12,3.2-23.94,6.67-35.89,10C-569.73,251.69-570,251.79-569.63,251.67Z" transform="translate(674.95 -119.52)"/></svg>