<svg width="141" height="144" viewBox="0 0 141 144" fill="none" xmlns="http://www.w3.org/2000/svg">
<mask id="path-1-inside-1_693_1011" fill="white">
<path fill-rule="evenodd" clip-rule="evenodd" d="M57.4794 0.90506C49.5692 2.70247 45.0275 4.36509 38.192 7.96615C18.7952 18.1842 5.53234 35.6893 1.20245 56.7853C-0.207482 63.6578 -0.41777 77.5128 0.785753 84.3331C5.73331 112.379 26.6161 135.007 53.9852 141.977C64.602 144.682 78.1473 144.674 88.8129 141.957C108.615 136.913 125.245 123.549 134.402 105.318C137.066 100.015 140.255 89.6186 140.771 84.5536C141.172 80.6183 141.128 80.69 139.974 85.8399C137.007 99.0887 129.891 111.618 119.947 121.102C112.813 127.907 104.74 132.749 94.808 136.18C87.4379 138.727 86.9754 138.785 74.463 138.774C62.1406 138.763 61.3825 138.669 54.2879 136.277C33.0954 129.133 16.8917 112.235 11.1534 91.2937C9.2981 84.5201 8.84804 68.5483 10.3169 61.5823C15.5679 36.6795 34.3874 16.7935 58.5557 10.6105C69.8235 7.72774 85.8542 8.59645 96.8038 12.6829L100.133 13.9256L98.5498 16.6197C97.6783 18.1024 96.966 19.4705 96.966 19.6598C96.966 19.8499 101.68 20.005 107.442 20.005C113.203 20.005 117.917 19.7728 117.917 19.4892C117.917 18.9797 117.459 18.1484 110.964 6.87072L107.663 1.13801L105.805 4.2677L103.947 7.39662L100.09 5.52909C92.2675 1.74027 85.6749 0.376822 73.687 0.0682936C65.7473 -0.135834 60.9767 0.110367 57.4794 0.90506ZM71.1333 13.4791C70.8307 13.783 70.5832 17.9676 70.5832 22.7786C70.5832 31.8802 71.0627 33.1338 74.0991 31.9643C75.0892 31.5826 75.2506 29.9986 75.069 22.4444C74.8657 13.9996 74.7431 13.3669 73.2672 13.155C72.3958 13.0296 71.4359 13.1761 71.1333 13.4791ZM114.425 37.9269C105.155 39.9822 91.4885 53.1943 78.0743 73.0679L72.4967 81.332L68.0729 77.2962C61.5641 71.357 56.5188 68.8296 51.1708 68.8296C44.6046 68.8296 44.3361 69.5183 49.4257 73.304C56.944 78.8972 65.0319 88.5216 69.7451 97.4845C71.0852 100.033 72.3081 102.246 72.4641 102.401C72.6201 102.558 74.9092 98.7202 77.5521 93.8733C87.0546 76.4462 101.265 56.5554 113.301 43.8325C118.789 38.0321 119.002 36.9117 114.425 37.9269ZM13.4425 71.8159C12.2832 74.8482 13.5426 75.3219 22.7541 75.3219C29.9179 75.3219 31.7041 75.0975 32.0657 74.1532C33.2243 71.1209 31.9656 70.6472 22.7541 70.6472C15.5896 70.6472 13.8034 70.8716 13.4425 71.8159ZM113.766 71.7917C113.515 72.4478 113.515 73.5214 113.766 74.1774C114.146 75.1715 115.723 75.3336 123.247 75.1513L132.272 74.9323V72.9846V71.0368L123.247 70.8179C115.723 70.6355 114.146 70.7976 113.766 71.7917ZM71.5267 114.157C70.788 114.628 70.587 117.096 70.7508 123.689L70.9711 132.587H72.9111H74.851L75.0713 123.689C75.2809 115.245 74.9146 113.523 72.9111 113.523C72.6977 113.523 72.0746 113.808 71.5267 114.157Z"/>
</mask>
<path d="M57.4794 0.90506L58.5873 5.78077L58.5873 5.78077L57.4794 0.90506ZM38.192 7.96615L40.5224 12.3899L40.5225 12.3898L38.192 7.96615ZM1.20245 56.7853L-3.69545 55.78L-3.69554 55.7804L1.20245 56.7853ZM0.785753 84.3331L5.70972 83.4645L5.70968 83.4642L0.785753 84.3331ZM53.9852 141.977L55.2194 137.132L55.2193 137.132L53.9852 141.977ZM88.8129 141.957L90.0471 146.802L90.0471 146.802L88.8129 141.957ZM134.402 105.318L129.935 103.073L129.935 103.073L134.402 105.318ZM140.771 84.5536L135.797 84.0465L135.797 84.0468L140.771 84.5536ZM139.974 85.8399L135.095 84.7467L135.095 84.7474L139.974 85.8399ZM119.947 121.102L116.496 117.483L116.496 117.484L119.947 121.102ZM94.808 136.18L93.1754 131.454L93.1749 131.454L94.808 136.18ZM74.463 138.774L74.4582 143.774L74.4586 143.774L74.463 138.774ZM54.2879 136.277L55.8852 131.539L55.8851 131.539L54.2879 136.277ZM11.1534 91.2937L6.33107 92.6146L6.33121 92.6151L11.1534 91.2937ZM10.3169 61.5823L15.2094 62.6139L15.2094 62.6139L10.3169 61.5823ZM58.5557 10.6105L59.7949 15.4544L59.7949 15.4544L58.5557 10.6105ZM96.8038 12.6829L98.5521 7.9985L98.5521 7.99848L96.8038 12.6829ZM100.133 13.9256L104.444 16.4594L107.463 11.3241L101.882 9.24118L100.133 13.9256ZM98.5498 16.6197L94.2393 14.0859L94.2392 14.0862L98.5498 16.6197ZM110.964 6.87072L106.631 9.36572L106.632 9.36601L110.964 6.87072ZM107.663 1.13801L111.996 -1.35699L107.73 -8.7667L103.364 -1.41486L107.663 1.13801ZM105.805 4.2677L110.104 6.82106L110.104 6.82058L105.805 4.2677ZM103.947 7.39662L101.767 11.8967L105.9 13.8982L108.245 9.94997L103.947 7.39662ZM100.09 5.52909L97.9105 10.029L97.9109 10.0292L100.09 5.52909ZM73.687 0.0682936L73.8157 -4.93005L73.8155 -4.93005L73.687 0.0682936ZM71.1333 13.4791L67.5952 9.94622L67.5906 9.95077L71.1333 13.4791ZM74.0991 31.9643L75.8961 36.6302L75.8978 36.6296L74.0991 31.9643ZM75.069 22.4444L80.0676 22.3242L80.0676 22.324L75.069 22.4444ZM73.2672 13.155L72.5548 18.104L72.5566 18.1043L73.2672 13.155ZM114.425 37.9269L115.507 42.8083L115.508 42.8082L114.425 37.9269ZM78.0743 73.0679L73.93 70.2706L73.93 70.2708L78.0743 73.0679ZM72.4967 81.332L69.1268 85.0258L73.403 88.9268L76.6411 84.1291L72.4967 81.332ZM68.0729 77.2962L64.7027 80.9896L64.7031 80.99L68.0729 77.2962ZM49.4257 73.304L52.4101 69.2924L52.4098 69.2921L49.4257 73.304ZM69.7451 97.4845L74.1706 95.1574L74.1705 95.1574L69.7451 97.4845ZM72.4641 102.401L76.0068 98.8731L75.998 98.8643L72.4641 102.401ZM77.5521 93.8733L81.9419 96.267L81.9419 96.267L77.5521 93.8733ZM113.301 43.8325L109.669 40.3963L109.669 40.3964L113.301 43.8325ZM13.4425 71.8159L18.1129 73.6014L18.1132 73.6006L13.4425 71.8159ZM32.0657 74.1532L36.7351 75.9413L36.7364 75.9377L32.0657 74.1532ZM113.766 71.7917L109.096 70.0056L109.095 70.0072L113.766 71.7917ZM113.766 74.1774L109.095 75.9619L109.096 75.9635L113.766 74.1774ZM123.247 75.1513L123.368 80.1498L123.368 80.1498L123.247 75.1513ZM132.272 74.9323L132.394 79.9309L137.272 79.8125V74.9323H132.272ZM132.272 71.0368H137.272V66.1566L132.394 66.0383L132.272 71.0368ZM123.247 70.8179L123.368 65.8193L123.368 65.8193L123.247 70.8179ZM71.5267 114.157L74.2131 118.375L74.2177 118.372L71.5267 114.157ZM70.7508 123.689L75.7492 123.565L75.7492 123.565L70.7508 123.689ZM70.9711 132.587L65.9727 132.71L66.0934 137.587H70.9711V132.587ZM74.851 132.587V137.587H79.7287L79.8494 132.71L74.851 132.587ZM75.0713 123.689L70.0729 123.565L70.0729 123.565L75.0713 123.689ZM56.3715 -3.97065C48.0571 -2.0814 43.1019 -0.271905 35.8615 3.54247L40.5225 12.3898C46.953 9.00209 51.0813 7.48634 58.5873 5.78077L56.3715 -3.97065ZM35.8616 3.54242C15.1679 14.4436 0.941619 33.1874 -3.69545 55.78L6.10035 57.7906C10.1231 38.1912 22.4224 21.9248 40.5224 12.3899L35.8616 3.54242ZM-3.69554 55.7804C-4.49238 59.6645 -4.90514 65.2049 -4.98537 70.5031C-5.06555 75.7979 -4.82099 81.3324 -4.13817 85.202L5.70968 83.4642C5.18898 80.5134 4.93692 75.7104 5.01348 70.6545C5.09 65.602 5.48735 60.7786 6.10044 57.7901L-3.69554 55.7804ZM-4.13821 85.2017C1.14709 115.162 23.4568 139.361 52.7512 146.823L55.2193 137.132C29.7755 130.652 10.3195 109.596 5.70972 83.4645L-4.13821 85.2017ZM52.751 146.822C64.1815 149.734 78.5755 149.724 90.0471 146.802L87.5787 137.112C77.7191 139.623 65.0225 139.629 55.2194 137.132L52.751 146.822ZM90.0471 146.802C111.25 141.401 129.061 127.09 138.87 107.562L129.935 103.073C121.428 120.008 105.98 132.425 87.5787 137.112L90.0471 146.802ZM138.87 107.562C140.38 104.558 141.938 100.336 143.172 96.3126C144.396 92.3243 145.437 88.0865 145.745 85.0604L135.797 84.0468C135.589 86.0857 134.778 89.5787 133.612 93.3804C132.457 97.1469 131.089 100.775 129.935 103.073L138.87 107.562ZM145.745 85.0607C145.843 84.0987 145.924 83.2879 145.964 82.7364C145.98 82.5195 146.01 82.1042 145.996 81.7048C145.993 81.5895 145.982 81.3773 145.947 81.1205C145.93 80.999 145.84 80.2821 145.429 79.4859C145.221 79.0821 144.685 78.1695 143.569 77.4941C142.21 76.6718 140.643 76.5907 139.326 77.0503C138.249 77.426 137.591 78.0665 137.324 78.3506C137.012 78.6816 136.81 78.9866 136.705 79.1569C136.36 79.7135 136.191 80.2448 136.173 80.2967C136.111 80.4809 136.059 80.6573 136.022 80.792C135.945 81.0686 135.863 81.3994 135.779 81.7496C135.609 82.4607 135.381 83.4677 135.095 84.7467L144.853 86.9331C145.143 85.6372 145.354 84.704 145.504 84.0761C145.581 83.757 145.629 83.5687 145.656 83.4722C145.67 83.4204 145.664 83.4469 145.64 83.5172C145.628 83.5526 145.598 83.639 145.551 83.7539C145.516 83.8369 145.404 84.1026 145.206 84.4226C145.107 84.5823 144.912 84.8789 144.606 85.2038C144.344 85.4817 143.692 86.1183 142.62 86.4922C141.308 86.95 139.746 86.8693 138.392 86.0497C137.28 85.3768 136.748 84.4691 136.543 84.0724C136.139 83.2901 136.056 82.596 136.043 82.5059C136.011 82.2805 136.004 82.1084 136.002 82.0418C135.995 81.8373 136.01 81.7546 135.991 82.0039C135.963 82.3848 135.899 83.0409 135.797 84.0465L145.745 85.0607ZM135.095 84.7474C132.347 97.0191 125.734 108.673 116.496 117.483L123.398 124.72C134.048 114.563 141.668 101.158 144.853 86.9324L135.095 84.7474ZM116.496 117.484C109.915 123.761 102.475 128.241 93.1754 131.454L96.4407 140.906C107.006 137.256 115.711 132.053 123.398 124.72L116.496 117.484ZM93.1749 131.454C89.4411 132.744 87.9473 133.219 85.9315 133.476C83.7243 133.758 80.8633 133.78 74.4673 133.774L74.4586 143.774C80.5752 143.78 84.2016 143.778 87.1962 143.396C90.3824 142.99 92.8049 142.162 96.4411 140.906L93.1749 131.454ZM74.4677 133.774C68.1875 133.768 65.2724 133.734 63.0291 133.456C60.9724 133.202 59.4447 132.739 55.8852 131.539L52.6905 141.015C56.2257 142.207 58.6243 142.987 61.801 143.38C64.791 143.751 68.4161 143.769 74.4582 143.774L74.4677 133.774ZM55.8851 131.539C36.2124 124.907 21.2587 109.252 15.9757 89.9723L6.33121 92.6151C12.5247 115.217 29.9785 133.358 52.6906 141.015L55.8851 131.539ZM15.9758 89.9728C15.2112 87.1812 14.6447 81.9823 14.4866 76.3694C14.3287 70.7615 14.5998 65.5045 15.2094 62.6139L5.42454 60.5506C4.56516 64.6261 4.32688 70.838 4.49059 76.6509C4.65415 82.4588 5.24038 88.6326 6.33107 92.6146L15.9758 89.9728ZM15.2094 62.6139C20.0777 39.5257 37.5179 21.1536 59.7949 15.4544L57.3164 5.76646C31.257 12.4333 11.0581 33.8333 5.42453 60.5507L15.2094 62.6139ZM59.7949 15.4544C70.0688 12.826 85.0571 13.6358 95.0556 17.3673L98.5521 7.99848C86.6512 3.55706 69.5782 2.62946 57.3164 5.76647L59.7949 15.4544ZM95.0555 17.3673L98.3852 18.61L101.882 9.24118L98.5521 7.9985L95.0555 17.3673ZM95.8231 11.3917L94.2393 14.0859L102.86 19.1536L104.444 16.4594L95.8231 11.3917ZM94.2392 14.0862C93.7697 14.885 93.3307 15.6735 92.9966 16.315C92.8333 16.6285 92.6691 16.9564 92.534 17.2558C92.4694 17.3988 92.3805 17.6032 92.2977 17.8316C92.2569 17.9442 92.1945 18.1254 92.1366 18.3468C92.0987 18.492 91.966 19.0013 91.966 19.6598H101.966C101.966 20.0197 101.926 20.3048 101.899 20.4665C101.87 20.6417 101.836 20.7824 101.812 20.8748C101.765 21.0546 101.719 21.1856 101.699 21.2397C101.659 21.3513 101.632 21.4061 101.648 21.3711C101.674 21.3144 101.742 21.1721 101.866 20.9346C102.105 20.474 102.458 19.8371 102.86 19.1532L94.2392 14.0862ZM91.966 19.6598C91.966 22.3972 94.0009 23.706 94.2688 23.8789C94.8211 24.2352 95.3182 24.3997 95.4869 24.4541C95.8951 24.5856 96.2521 24.6444 96.3896 24.6664C96.7357 24.7218 97.1056 24.7557 97.4059 24.779C98.0489 24.8289 98.9053 24.8689 99.8786 24.901C101.847 24.9658 104.524 25.005 107.442 25.005V15.005C104.598 15.005 102.036 14.9666 100.208 14.9064C99.2824 14.8759 98.6002 14.8416 98.1793 14.8089C97.9477 14.791 97.9042 14.7815 97.9701 14.7921C97.996 14.7962 98.0543 14.806 98.1348 14.8232C98.2053 14.8383 98.358 14.8729 98.5538 14.936C98.6866 14.9788 99.1565 15.1316 99.6906 15.4762C99.9403 15.6373 101.966 16.9344 101.966 19.6598H91.966ZM107.442 25.005C110.378 25.005 113.083 24.946 115.086 24.8474C116.071 24.7989 116.97 24.7369 117.666 24.6562C117.985 24.6193 118.429 24.5602 118.865 24.4559C119.044 24.4133 119.509 24.2984 120.03 24.0478C120.276 23.9291 120.821 23.6478 121.371 23.1176C121.923 22.5866 122.917 21.3627 122.917 19.4892H112.917C112.917 17.6335 113.902 16.4272 114.436 15.9137C114.968 15.401 115.485 15.137 115.696 15.0356C116.145 14.8196 116.503 14.7388 116.541 14.7297C116.697 14.6924 116.728 14.698 116.515 14.7227C116.147 14.7653 115.507 14.8145 114.594 14.8595C112.8 14.9478 110.267 15.005 107.442 15.005V25.005ZM122.917 19.4892C122.917 18.3398 122.572 17.4422 122.315 16.8625C122.074 16.3178 121.718 15.6441 121.256 14.8051C120.3 13.0713 118.531 9.99096 115.297 4.37542L106.632 9.36601C109.892 15.0281 111.6 18.0022 112.497 19.6309C112.961 20.4731 113.126 20.8076 113.173 20.9146C113.205 20.9865 112.917 20.3838 112.917 19.4892H122.917ZM115.297 4.37572L111.996 -1.35699L103.33 3.63301L106.631 9.36572L115.297 4.37572ZM103.364 -1.41486L101.506 1.71483L110.104 6.82058L111.963 3.69089L103.364 -1.41486ZM101.506 1.71435L99.6477 4.84326L108.245 9.94997L110.104 6.82106L101.506 1.71435ZM106.126 2.89649L102.269 1.02896L97.9109 10.0292L101.767 11.8967L106.126 2.89649ZM102.27 1.02913C93.6122 -3.16407 86.2614 -4.60974 73.8157 -4.93005L73.5584 5.06664C85.0885 5.36338 90.9229 6.6446 97.9105 10.029L102.27 1.02913ZM73.8155 -4.93005C65.8377 -5.13516 60.5254 -4.91455 56.3715 -3.97065L58.5873 5.78077C61.4279 5.13529 65.657 4.8635 73.5585 5.06664L73.8155 -4.93005ZM67.5906 9.95077C66.7941 10.7505 66.474 11.6188 66.4034 11.8046C66.2755 12.1412 66.1984 12.4407 66.154 12.6309C66.0625 13.0224 66.0026 13.4198 65.9607 13.7446C65.8736 14.4202 65.8062 15.2523 65.7535 16.1434C65.6466 17.9493 65.5832 20.2996 65.5832 22.7786H75.5832C75.5832 20.4466 75.6434 18.2991 75.736 16.734C75.783 15.9395 75.8342 15.3678 75.8787 15.023C75.9025 14.8377 75.9117 14.8206 75.8916 14.9064C75.8829 14.9437 75.8422 15.1174 75.7511 15.357C75.7174 15.4457 75.4347 16.2457 74.676 17.0075L67.5906 9.95077ZM65.5832 22.7786C65.5832 25.0678 65.6124 26.9948 65.7167 28.5523C65.8139 30.0023 65.9984 31.614 66.5328 33.0103C67.152 34.6282 68.5558 36.6536 71.2792 37.2034C73.2912 37.6096 75.0989 36.9373 75.8961 36.6302L72.302 27.2984C72.0547 27.3937 72.0152 27.3916 72.1092 27.3731C72.1987 27.3555 72.6367 27.2757 73.2582 27.4012C73.9689 27.5447 74.6555 27.9038 75.1876 28.4359C75.6582 28.9064 75.8349 29.3386 75.8721 29.4359C75.9071 29.5273 75.782 29.1922 75.6943 27.8838C75.6139 26.683 75.5832 25.0402 75.5832 22.7786H65.5832ZM75.8978 36.6296C77.4428 36.0339 78.5604 34.8967 79.2134 33.5168C79.7354 32.4137 79.9102 31.2599 79.9977 30.4009C80.1773 28.638 80.1563 26.0162 80.0676 22.3242L70.0705 22.5645C70.1633 26.4268 70.1524 28.3741 70.0492 29.3872C69.9953 29.9162 69.9554 29.7021 70.1744 29.2394C70.3101 28.9525 70.5562 28.5446 70.9748 28.1438C71.4061 27.7309 71.8782 27.4618 72.3003 27.2991L75.8978 36.6296ZM80.0676 22.324C79.9716 18.3368 79.8957 15.5227 79.5539 13.7603C79.3793 12.8602 78.9797 11.2674 77.6691 9.96359C76.2423 8.54421 74.5611 8.28954 73.9779 8.20579L72.5566 18.1043C72.7112 18.1265 71.5989 18.0304 70.6165 17.0531C69.7504 16.1915 69.6708 15.3243 69.7368 15.6644C69.7851 15.9132 69.8538 16.489 69.9156 17.7123C69.975 18.887 70.0195 20.4468 70.0705 22.5647L80.0676 22.324ZM73.9796 8.20604C73.0594 8.07358 72.1082 8.08045 71.2351 8.21325C70.7953 8.28014 70.2721 8.39449 69.728 8.59696C69.2547 8.77309 68.388 9.15223 67.5952 9.94622L74.6715 17.0121C74.3251 17.3589 73.994 17.5778 73.7709 17.7062C73.5407 17.8387 73.346 17.9206 73.2157 17.969C72.964 18.0627 72.7919 18.0915 72.7389 18.0995C72.6392 18.1147 72.6036 18.111 72.5548 18.104L73.9796 8.20604ZM113.343 33.0454C107.303 34.3846 100.735 39.0274 94.3284 45.2207C87.7617 51.5689 80.7743 60.1306 73.93 70.2706L82.2186 75.8652C88.7885 66.1317 95.3413 58.1505 101.279 52.4104C107.377 46.5154 112.277 43.5245 115.507 42.8083L113.343 33.0454ZM73.93 70.2708L68.3523 78.5348L76.6411 84.1291L82.2187 75.8651L73.93 70.2708ZM75.8665 77.6382L71.4427 73.6024L64.7031 80.99L69.1268 85.0258L75.8665 77.6382ZM71.4431 73.6027C64.5727 67.3335 58.3585 63.8296 51.1708 63.8296V73.8296C54.6791 73.8296 58.5555 75.3805 64.7027 80.9896L71.4431 73.6027ZM51.1708 63.8296C49.5253 63.8296 47.9619 63.8677 46.7075 64.0462C46.0964 64.1333 45.2492 64.2929 44.4043 64.6588C43.6174 64.9996 42.0335 65.8702 41.269 67.8304C40.4692 69.8813 41.1214 71.6633 41.5758 72.5353C42.0306 73.408 42.6375 74.0818 43.0656 74.5164C43.951 75.4154 45.1687 76.3691 46.4416 77.3159L52.4098 69.2921C51.1378 68.346 50.4805 67.794 50.19 67.4991C50.0302 67.3369 50.2239 67.4917 50.4439 67.9139C50.6636 68.3356 51.2596 69.7357 50.5856 71.4639C49.947 73.1014 48.6711 73.7085 48.3779 73.8354C48.0267 73.9875 47.8592 73.9831 48.117 73.9464C48.6007 73.8776 49.5332 73.8296 51.1708 73.8296V63.8296ZM46.4412 77.3156C53.3119 82.4271 60.9262 91.4567 65.3197 99.8117L74.1705 95.1574C69.1376 85.5865 60.5761 75.3674 52.4101 69.2924L46.4412 77.3156ZM65.3197 99.8116C66.0018 101.109 66.6595 102.331 67.1729 103.26C67.4276 103.72 67.6593 104.131 67.8465 104.451C67.9378 104.607 68.0378 104.775 68.135 104.928C68.1821 105.002 68.251 105.109 68.3325 105.225C68.3585 105.262 68.5863 105.595 68.9302 105.939L75.998 98.8643C76.1969 99.063 76.3318 99.233 76.3806 99.2951C76.4438 99.3757 76.4895 99.4397 76.5127 99.4726C76.5381 99.5088 76.5561 99.5358 76.5649 99.5491C76.5743 99.5633 76.5795 99.5716 76.5799 99.5722C76.5801 99.5724 76.5712 99.5584 76.5517 99.5259C76.5328 99.4947 76.5081 99.4532 76.4773 99.4004C76.3495 99.182 76.1624 98.8514 75.9244 98.4209C75.4523 97.5671 74.8285 96.4086 74.1706 95.1574L65.3197 99.8116ZM68.9214 105.93C70.7309 107.747 72.9665 107.493 73.9805 107.176C74.8693 106.897 75.455 106.438 75.6329 106.296C76.0741 105.944 76.3733 105.584 76.4634 105.476C76.7154 105.173 76.9433 104.844 77.1035 104.605C77.4568 104.079 77.8943 103.372 78.3694 102.575C79.3341 100.958 80.6 98.7279 81.9419 96.267L73.1623 91.4796C71.8613 93.8656 70.6611 95.9776 69.7815 97.4521C69.3345 98.2014 69.0053 98.727 68.803 99.0281C68.6854 99.2032 68.6882 99.1858 68.7748 99.0817C68.7822 99.0728 69.0136 98.7837 69.4029 98.4736C69.5548 98.3526 70.1185 97.9064 70.9893 97.6335C71.9854 97.3212 74.207 97.066 76.0068 98.8731L68.9214 105.93ZM81.9419 96.267C91.2648 79.1692 105.23 59.6398 116.933 47.2687L109.669 40.3964C97.2999 53.471 82.8444 73.7232 73.1623 91.4797L81.9419 96.267ZM116.933 47.2688C118.324 45.7987 119.488 44.5135 120.347 43.4337C120.777 42.8937 121.201 42.3185 121.554 41.7329C121.867 41.2159 122.343 40.3431 122.549 39.259C122.781 38.0415 122.733 36.0052 121.117 34.3385C119.77 32.9505 118.13 32.6974 117.442 32.6297C116.011 32.4889 114.439 32.8022 113.342 33.0455L115.508 42.8082C116.004 42.6982 116.345 42.6378 116.565 42.6089C116.827 42.5746 116.742 42.6092 116.463 42.5816C116.312 42.5668 115.056 42.4533 113.939 41.3013C112.551 39.8707 112.577 38.167 112.725 37.3886C112.848 36.7437 113.083 36.4165 112.995 36.5616C112.949 36.638 112.814 36.8413 112.523 37.2062C111.942 37.9361 111.022 38.9662 109.669 40.3963L116.933 47.2688ZM8.77222 70.0304C8.4686 70.8245 7.79434 72.6467 8.21997 74.6715C8.79385 77.4016 10.8447 78.7819 12.4476 79.3854C13.8434 79.9108 15.4575 80.0934 16.9219 80.1897C18.4925 80.293 20.4382 80.3219 22.7541 80.3219V70.3219C20.4644 70.3219 18.7983 70.2915 17.5783 70.2113C16.252 70.124 15.8966 69.9986 15.971 70.0266C16.0581 70.0595 16.4838 70.2289 16.9531 70.6896C17.4857 71.2124 17.855 71.8956 18.0061 72.6144C18.1384 73.2436 18.0597 73.6899 18.0414 73.7848C18.0223 73.8836 18.0187 73.8478 18.1129 73.6014L8.77222 70.0304ZM22.7541 80.3219C26.2745 80.3219 28.8315 80.2727 30.5835 80.0527C31.4387 79.9454 32.5353 79.7517 33.5768 79.2666C34.8107 78.6919 36.0829 77.6444 36.7351 75.9413L27.3964 72.3652C27.8677 71.1342 28.7811 70.4688 29.3545 70.2018C29.7354 70.0243 29.87 70.0638 29.338 70.1306C28.3155 70.2589 26.3975 70.3219 22.7541 70.3219V80.3219ZM36.7364 75.9377C37.0398 75.1436 37.7136 73.3217 37.2879 71.2972C36.7139 68.5677 34.6636 67.1874 33.0605 66.5838C31.6647 66.0583 30.0506 65.8757 28.5863 65.7794C27.0157 65.6761 25.0701 65.6472 22.7541 65.6472V75.6472C25.0439 75.6472 26.71 75.6776 27.9299 75.7578C29.2561 75.8451 29.6114 75.9705 29.5369 75.9424C29.4497 75.9096 29.024 75.7401 28.5547 75.2794C28.0222 74.7566 27.653 74.0736 27.5019 73.3551C27.3697 72.7261 27.4482 72.28 27.4665 72.1851C27.4856 72.0864 27.4892 72.1223 27.395 72.3687L36.7364 75.9377ZM22.7541 65.6472C19.2334 65.6472 16.6762 65.6965 14.9242 65.9164C14.069 66.0237 12.9722 66.2174 11.9305 66.7027C10.6962 67.2778 9.42331 68.3264 8.77191 70.0312L18.1132 73.6006C17.6422 74.8332 16.7279 75.4997 16.1539 75.7671C15.7725 75.9448 15.6376 75.9053 16.1697 75.8385C17.1922 75.7102 19.1104 75.6472 22.7541 75.6472V65.6472ZM109.095 70.0072C108.686 71.0767 108.578 72.1579 108.578 72.9846C108.578 73.8113 108.686 74.8925 109.095 75.9619L118.436 72.3929C118.528 72.6332 118.557 72.8 118.566 72.8581C118.577 72.927 118.578 72.9666 118.578 72.9846C118.578 73.0025 118.577 73.0422 118.566 73.1111C118.557 73.1691 118.528 73.3359 118.436 73.5762L109.095 70.0072ZM109.096 75.9635C109.684 77.5029 110.813 78.6272 112.197 79.2874C113.302 79.8148 114.459 79.9912 115.317 80.0793C117.077 80.2601 119.692 80.2389 123.368 80.1498L123.126 70.1527C119.278 70.246 117.343 70.2349 116.339 70.1317C115.814 70.0778 116.035 70.0386 116.502 70.2618C116.792 70.4 117.2 70.6487 117.599 71.0691C118.01 71.5016 118.276 71.9728 118.436 72.3913L109.096 75.9635ZM123.368 80.1498L132.394 79.9309L132.151 69.9338L123.126 70.1527L123.368 80.1498ZM137.272 74.9323V72.9846H127.272V74.9323H137.272ZM137.272 72.9846V71.0368H127.272V72.9846H137.272ZM132.394 66.0383L123.368 65.8193L123.126 75.8164L132.151 76.0353L132.394 66.0383ZM123.368 65.8193C119.692 65.7302 117.077 65.709 115.317 65.8898C114.459 65.9779 113.302 66.1543 112.197 66.6817C110.813 67.3419 109.684 68.4662 109.096 70.0056L118.436 73.5779C118.276 73.9963 118.01 74.4676 117.599 74.9C117.2 75.3204 116.792 75.5691 116.502 75.7073C116.035 75.9305 115.814 75.8913 116.338 75.8375C117.343 75.7343 119.278 75.7232 123.126 75.8164L123.368 65.8193ZM68.8404 109.94C67.1111 111.042 66.5064 112.732 66.2817 113.481C66.0125 114.378 65.8884 115.343 65.8168 116.221C65.6709 118.013 65.6704 120.516 65.7523 123.813L75.7492 123.565C75.6674 120.269 75.6855 118.241 75.7838 117.033C75.8344 116.412 75.8888 116.259 75.8599 116.355C75.8416 116.416 75.7603 116.677 75.5523 117.02C75.3379 117.375 74.9249 117.921 74.2131 118.375L68.8404 109.94ZM65.7523 123.813L65.9727 132.71L75.9696 132.463L75.7492 123.565L65.7523 123.813ZM70.9711 137.587H72.9111V127.587H70.9711V137.587ZM72.9111 137.587H74.851V127.587H72.9111V137.587ZM79.8494 132.71L80.0698 123.813L70.0729 123.565L69.8525 132.463L79.8494 132.71ZM80.0698 123.813C80.1703 119.762 80.1748 116.578 79.7119 114.4C79.4712 113.268 78.9541 111.6 77.5441 110.277C75.9677 108.798 74.1302 108.523 72.9111 108.523V118.523C72.6937 118.523 71.6533 118.462 70.7025 117.57C69.9181 116.834 69.8551 116.125 69.9303 116.479C69.9921 116.769 70.072 117.413 70.1057 118.672C70.1384 119.889 70.1247 121.477 70.0729 123.565L80.0698 123.813ZM72.9111 108.523C72.0082 108.523 71.2874 108.767 71.1063 108.827C70.7848 108.934 70.4936 109.057 70.261 109.164C69.7908 109.379 69.2955 109.65 68.8358 109.943L74.2177 118.372C74.3058 118.315 74.396 118.269 74.4277 118.254C74.446 118.246 74.3848 118.275 74.2572 118.318C74.1926 118.339 74.0638 118.38 73.8875 118.419C73.7421 118.451 73.3854 118.523 72.9111 118.523V108.523Z" fill="black" mask="url(#path-1-inside-1_693_1011)"/>
</svg>
