<svg width="142" height="129" viewBox="0 0 142 129" fill="none" xmlns="http://www.w3.org/2000/svg">
<path fill-rule="evenodd" clip-rule="evenodd" d="M45.9205 0.237769C35.3611 1.46378 26.2749 9.38899 23.6182 19.6907C23.3433 20.7567 23.022 22.7129 22.9046 24.0375C22.0727 33.4278 26.2398 42.5164 33.8437 47.8963C38.8493 51.4374 43.8413 52.8733 50.2603 52.618C56.9111 52.3536 62.26 50.092 67.0736 45.5092C71.4132 41.3778 74.0778 36.3556 75.0038 30.562C75.4862 27.5449 75.1941 22.199 74.391 19.3474C71.4681 8.96739 62.5881 1.41967 51.8921 0.224332C49.1901 -0.077607 48.625 -0.0763391 45.9205 0.237769ZM52.8786 3.5155C64.5591 5.58902 72.8586 16.0651 72.1339 27.821C71.4208 39.389 61.9818 48.8492 50.4397 49.5639C41.0517 50.1452 32.0303 44.7164 28.0552 36.0935C25.6279 30.8279 25.2515 24.5501 27.0464 19.2655C29.1269 13.1398 33.0977 8.52526 38.6968 5.72642C40.7249 4.71261 43.3414 3.80527 45.0855 3.51119C46.8718 3.20975 51.1697 3.21204 52.8786 3.5155ZM92.8972 23.2937C92.6266 23.4519 92.0213 24.941 91.3031 27.2156L90.1454 30.8825H86.2378C82.6305 30.8825 82.2906 30.9225 81.8097 31.4045C81.4561 31.7589 81.3139 32.1802 81.367 32.7169C81.4348 33.4017 81.8279 33.785 84.3121 35.588C85.889 36.7324 87.299 37.7888 87.4454 37.9356C87.6321 38.1227 87.3579 39.3094 86.5305 41.8953C85.6001 44.8026 85.4059 45.6945 85.6161 46.0884C85.9062 46.6315 86.6446 47.1076 87.197 47.1076C87.3877 47.1076 88.9034 46.1199 90.5653 44.9126C92.2272 43.7054 93.7006 42.7177 93.8397 42.7177C93.9788 42.7177 95.4523 43.7054 97.1141 44.9126C98.776 46.1199 100.292 47.1076 100.482 47.1076C101.035 47.1076 101.773 46.6315 102.063 46.0884C102.274 45.6945 102.079 44.8026 101.149 41.8953C100.322 39.3094 100.047 38.1227 100.234 37.9356C100.38 37.7888 101.79 36.7324 103.367 35.588C105.852 33.785 106.245 33.4017 106.312 32.7169C106.366 32.1802 106.223 31.7589 105.87 31.4045C105.389 30.9225 105.049 30.8825 101.448 30.8825H97.5477L96.3839 27.2125C95.2117 23.5165 94.8996 23.0125 93.7932 23.031C93.5405 23.0353 93.1373 23.1535 92.8972 23.2937ZM121.191 23.5938C120.994 23.9077 120.34 25.676 119.738 27.5234L118.643 30.8825H114.835C110.364 30.8825 109.822 31.0731 109.951 32.6011C110.023 33.4417 110.248 33.6706 112.929 35.623C114.524 36.7849 115.927 37.8337 116.047 37.9541C116.169 38.0765 115.756 39.7571 115.107 41.7771C114.47 43.7594 113.949 45.5416 113.949 45.7376C113.949 46.2882 114.897 47.1078 115.53 47.105C115.845 47.1038 117.496 46.0808 119.218 44.8206C120.933 43.5657 122.458 42.6142 122.607 42.7065C122.756 42.7988 124.18 43.8268 125.771 44.991C127.362 46.1551 128.857 47.1076 129.092 47.1076C129.87 47.1076 130.644 46.3579 130.644 45.6045C130.644 45.2118 130.181 43.4387 129.615 41.664C129.048 39.8894 128.641 38.2918 128.71 38.1135C128.778 37.9356 130.066 36.9076 131.572 35.8296C134.619 33.6491 134.944 33.3266 134.944 32.4794C134.944 31.2447 134.245 31.0199 129.982 30.8825L126.045 30.7557L124.918 27.2065C124.298 25.2544 123.603 23.5147 123.374 23.3403C122.698 22.8247 121.594 22.9527 121.191 23.5938ZM94.5922 31.8965C95.213 33.8849 95.645 34.1782 97.9522 34.1782H99.8586L98.2403 35.3862C96.3591 36.7907 96.2405 37.1677 96.9922 39.3517C97.2755 40.1751 97.5075 40.9466 97.5075 41.0657C97.5075 41.1849 96.8017 40.7679 95.9392 40.1386C95.0766 39.5097 94.1319 38.995 93.8397 38.995C93.5476 38.995 92.6028 39.5097 91.7402 40.1386C90.8777 40.7679 90.1719 41.2361 90.1719 41.1796C90.1719 41.1228 90.4064 40.3153 90.6933 39.3852C90.9799 38.4548 91.1792 37.4465 91.1359 37.1446C91.0889 36.816 90.4072 36.11 89.4392 35.387L87.8208 34.1782H89.6989C91.9403 34.1782 92.4849 33.8742 92.9339 32.3726C93.7451 29.6587 93.8814 29.6194 94.5922 31.8965ZM123.029 31.6831C123.816 34.0182 124.032 34.1782 126.398 34.1782H128.396L126.801 35.3839C124.925 36.8013 124.79 37.2599 125.565 39.5609C125.852 40.4134 126.059 41.1398 126.023 41.175C125.989 41.21 125.287 40.7339 124.464 40.1168C123.641 39.4998 122.721 38.995 122.42 38.995C122.119 38.995 121.221 39.463 120.424 40.0349C119.627 40.6069 118.926 41.0259 118.867 40.9661C118.807 40.9065 118.997 40.15 119.288 39.2853C119.594 38.3777 119.753 37.4511 119.663 37.0929C119.569 36.7192 118.897 36.042 117.971 35.389L116.434 34.3049L118.443 34.1782C119.547 34.1085 120.62 33.9102 120.827 33.7376C121.034 33.5649 121.346 32.9441 121.521 32.3582C121.953 30.9139 122.262 30.1219 122.393 30.1219C122.454 30.1219 122.74 30.8244 123.029 31.6831ZM99.1516 50.579C97.2022 50.7534 92.7262 51.6838 90.7626 52.3229C85.649 53.9868 80.0375 57.3494 76.136 61.0875L73.7672 63.3573L71.156 62.1082C67.7194 60.4642 64.321 59.2082 61.2093 58.432C56.5363 57.2663 55.1726 57.1213 48.9412 57.1276C43.8483 57.1329 42.5674 57.2156 39.9995 57.7049C24.4436 60.6677 11.144 70.8021 4.16845 85.0084C2.15396 89.1106 0.110888 95.4242 0.0451212 97.749C-0.00293913 99.442 -2.281 99.3322 32.8858 99.3322H64.7941L65.2117 100.838C65.7386 102.737 67.43 106.702 68.7044 109.026C72.0851 115.19 78.148 121.153 84.3306 124.393C88.7701 126.72 92.9349 128.095 97.5065 128.741C99.9864 129.092 106.043 129.085 108.411 128.728C117.298 127.388 125.028 123.34 131.33 116.725C136.328 111.478 139.578 105.344 141.284 97.9378C142.109 94.3569 142.246 87.2232 141.565 83.2338C139.509 71.1679 132.208 61.0194 121.269 55.0191C114.984 51.5715 106.683 49.9051 99.1516 50.579ZM106.245 53.807C110.348 54.0448 116.389 55.8998 120.484 58.1797C127.882 62.2983 134.305 70.0322 136.984 78.0466C138.432 82.3759 138.827 84.8325 138.838 89.5718C138.85 94.344 138.508 96.6578 137.177 100.821C134.552 109.035 129.17 115.907 121.694 120.59C115.814 124.273 107.92 126.284 101.064 125.845C91.7744 125.25 83.9403 121.746 77.5146 115.311C72.312 110.101 69.2012 104.441 67.6182 97.304C66.8225 93.7168 66.7645 86.2613 67.5052 82.7268C70.8646 66.6903 84.1143 54.9245 100.163 53.7267C101.555 53.6227 102.978 53.5685 103.325 53.6062C103.673 53.6438 104.987 53.7343 106.245 53.807ZM110.028 57.4478C109 57.5786 108.468 58.1145 108.261 59.2295C107.906 61.1365 106.517 65.05 105.411 67.2622C103.564 70.9555 101.686 73.5715 98.3478 77.1002C94.8553 80.7925 93.6793 82.7255 93.1509 85.6422C92.9686 86.6492 92.8476 90.1493 92.8403 94.6421C92.8272 102.447 93.0265 104.278 94.183 106.981C94.8118 108.45 96.2422 110.063 97.6496 110.89L98.7194 111.518L112.089 111.446L125.458 111.374L126.653 110.67C128.933 109.327 129.822 106.385 128.647 104.074C128.383 103.556 128.271 103.068 128.397 102.989C128.524 102.911 128.872 102.37 129.172 101.787C129.807 100.549 129.936 98.1166 129.429 96.9075C129.132 96.1995 129.172 96.001 129.874 94.6634C130.497 93.4764 130.644 92.8895 130.644 91.5908C130.644 90.7075 130.531 89.6876 130.393 89.3241C130.174 88.7463 130.25 88.5554 130.997 87.8068C132.224 86.5767 132.751 85.0173 132.623 82.9965C132.481 80.7757 131.595 79.464 129.54 78.4347C128.203 77.7655 127.802 77.6899 125.493 77.6742C124.083 77.6643 121.324 77.7589 119.363 77.8838C117.402 78.0088 115.489 78.0334 115.112 77.9389C114.454 77.7733 114.434 77.7183 114.6 76.5706C114.695 75.913 115.206 73.8653 115.733 72.0205C117.855 64.6066 117.693 61.0959 115.124 58.8355C113.901 57.7591 111.889 57.2113 110.028 57.4478ZM53.2778 60.3027C56.6787 60.6474 60.2905 61.3872 63.329 62.3612C66.1812 63.2757 70.8006 65.2577 71.198 65.7376C71.4084 65.9918 71.1337 66.5957 70.0511 68.2608C67.2876 72.5098 65.11 77.9685 64.2229 82.8705C63.7524 85.4706 63.6004 91.664 63.9355 94.5787L64.1323 96.29H33.8978C3.89248 96.29 3.66331 96.2862 3.66331 95.786C3.66331 94.9646 5.16152 90.5179 6.3256 87.8841C12.7986 73.2394 26.9101 62.6515 42.744 60.5592C47.0241 59.9936 49.6088 59.9305 53.2778 60.3027ZM112.401 60.8249C114.473 61.5487 114.51 64.8394 112.527 71.749C111.961 73.7213 111.581 75.6749 111.492 77.0637C111.358 79.1626 111.38 79.2878 111.989 79.898C113.024 80.9349 114.438 81.209 118.123 81.0863C119.931 81.0262 122.91 80.9714 124.743 80.9646C127.924 80.9527 128.104 80.9798 128.723 81.5631C130.437 83.1778 129.206 86.4028 126.876 86.4028C126.275 86.4028 125.585 87.3061 125.585 88.0943C125.585 88.4406 125.924 88.9182 126.463 89.3302C127.04 89.771 127.396 90.2925 127.5 90.8477C127.727 92.0595 127.195 93.4744 126.382 93.8207C124.558 94.5978 124.334 95.7041 125.711 97.1258C126.41 97.8471 126.597 98.2438 126.597 99.0097C126.597 100.237 126.041 101.04 125.005 101.309C123.911 101.593 123.347 102.589 123.763 103.503C123.93 103.871 124.406 104.367 124.821 104.604C126.212 105.402 126.372 107.258 125.108 107.936C124.774 108.116 120.413 108.205 112.035 108.205C99.8662 108.205 99.438 108.189 98.6379 107.693C96.6603 106.468 95.9296 103.052 95.9276 95.0224C95.9258 88.366 96.2475 85.3555 97.1521 83.5667C97.5057 82.8672 99.0406 80.9978 100.619 79.3444C102.177 77.7125 104.175 75.3532 105.058 74.1014C106.989 71.3657 109.353 66.6183 110.403 63.3705C111.132 61.1119 111.357 60.544 111.523 60.544C111.564 60.544 111.959 60.6705 112.401 60.8249ZM75.5009 83.8676C75.0081 84.3615 74.995 84.7126 74.995 97.4123V110.45L75.6615 110.975C76.2952 111.475 76.6374 111.501 82.629 111.501H88.9302L89.551 110.879L90.1719 110.257V97.4308V84.6051L89.551 83.983L88.9302 83.3606H82.4684C76.344 83.3606 75.9805 83.387 75.5009 83.8676ZM81.0053 97.4942L81.0713 108.205H79.6773H78.2833V97.3603V86.5154L79.6113 86.6492L80.9393 86.7831L81.0053 97.4942ZM86.8836 97.4308V108.205H85.4924H84.1012V97.4308V86.6563H85.4924H86.8836V97.4308Z" fill="black"/>
</svg>
