<svg width="189" height="103" viewBox="0 0 189 103" fill="none" xmlns="http://www.w3.org/2000/svg">
<mask id="path-1-inside-1_693_1015" fill="white">
<path fill-rule="evenodd" clip-rule="evenodd" d="M21.6562 0.944162C20.2535 2.35636 20.4371 4.10897 22.1996 6.12965L23.7269 7.88127H12.9421C5.0715 7.88127 1.93922 8.04875 1.35155 8.50065C0.0152589 9.52833 -0.184571 11.5059 0.909562 12.8676C1.87277 14.0667 1.95694 14.0771 12.7865 14.3229L23.6929 14.5706L22.1824 16.0259C19.6393 18.4762 20.5956 21.7555 23.8529 21.7555C24.9318 21.7555 26.2444 20.7585 29.8438 17.2047C35.9981 11.1283 35.9986 11.1472 29.6454 4.77493C24.5538 -0.331768 23.4498 -0.861468 21.6562 0.944162ZM40.8516 8.87228C39.5768 10.1556 39.5975 11.9415 40.9018 13.1312C41.8566 14.0023 43.0836 14.0954 56.7748 14.3387C70.7505 14.587 71.7678 14.6672 74.2681 15.7222C80.3491 18.2874 82.879 20.652 89.0741 29.5597L91.5725 33.1521H67.0167C42.9197 33.1521 42.4369 33.1715 41.1641 34.1793C39.6053 35.4131 39.4779 37.2198 40.8516 38.6027C41.8197 39.5774 42.492 39.5937 81.6135 39.5937C124.772 39.5937 123.49 39.5194 128.953 42.3304C132.627 44.2208 135.145 46.7999 140.242 53.8966C142.916 57.6178 145.567 61.0854 146.133 61.6017C146.7 62.118 147.164 62.729 147.164 62.9594C147.164 63.1898 123.367 63.3781 94.282 63.3781H41.3994L40.6335 64.4796C39.5054 66.1009 39.6969 67.631 41.1749 68.8014C42.4625 69.8212 42.8587 69.8365 66.7687 69.8103C80.1262 69.7959 91.0266 69.9589 90.9932 70.1735C90.8494 71.0778 84.2674 80.1109 82.4768 81.86C80.2349 84.0507 77.3925 85.8182 73.7026 87.3171C71.3337 88.2793 69.897 88.3878 56.2526 88.6311C42.1244 88.8834 41.3477 88.9463 40.6414 89.8878C39.596 91.2821 39.6925 92.9326 40.89 94.1382C41.8876 95.1426 42.2617 95.1629 56.5169 94.9816C70.8184 94.8002 71.2033 94.7685 75.097 93.4623C82.3366 91.0334 86.7052 87.492 92.4097 79.4296C94.3174 76.733 96.6208 73.812 97.5289 72.9379C100.86 69.7305 99.6296 69.8197 140.632 69.8197H177.782L176.254 71.5713C174.481 73.6044 174.334 74.8749 175.711 76.2613C177.662 78.226 178.979 77.6244 184.174 72.3939C187.525 69.0204 189 67.1821 189 66.3784C189 65.5816 187.515 63.6992 184.232 60.3357C179.081 55.058 177.708 54.4302 175.711 56.441C174.344 57.8175 174.479 59.0959 176.203 61.0725C177.015 62.0036 177.68 62.9247 177.68 63.1189C177.68 63.3137 173.638 63.3761 168.697 63.2582C158.109 63.0055 156.35 62.5298 152.326 58.8264C150.853 57.4707 147.826 53.7598 145.6 50.5792C140.538 43.3447 136.108 38.8673 131.899 36.7312C126.495 33.9891 124.263 33.5788 112.711 33.2071C99.0025 32.7656 98.4946 32.5214 92.4751 23.4898C87.128 15.467 81.11 10.9376 73.0362 8.85841C69.7051 8.00068 67.565 7.88127 55.5384 7.88127C42.492 7.88127 41.7887 7.92883 40.8516 8.87228ZM22.6544 25.8092C20.1851 26.7328 20.0099 28.8898 22.1996 31.4005L23.7269 33.1521H13.0715H2.41615L1.20832 34.3686C0.543868 35.0375 0 35.9394 0 36.3729C0 36.8065 0.543868 37.7083 1.20832 38.3773L2.41615 39.5937H13.0715H23.7269L22.1996 41.3454C20.4371 43.366 20.2535 45.1187 21.6562 46.5308C23.4094 48.2958 24.4868 47.7795 29.6002 42.7219C36.0001 36.3918 35.9996 36.3977 29.9004 30.3605C27.3961 27.8819 25.0154 25.7413 24.6094 25.6041C24.2033 25.4668 23.3238 25.559 22.6544 25.8092ZM21.4864 56.3563C20.1836 57.8056 20.5055 59.4487 22.4944 61.4991L24.317 63.3781H13.1788H2.04012L1.0203 64.6838C-0.301712 66.3754 -0.26578 67.1197 1.20832 68.6032C2.41566 69.8192 2.41959 69.8197 12.9928 69.8197H23.5694L22.1209 71.4167C20.4297 73.2803 20.2771 74.8729 21.6562 76.2613C23.5758 78.1938 24.8589 77.6076 29.83 72.5296C36.0276 66.1985 36.0276 66.1059 29.8438 60.0007C26.115 56.3196 24.9539 55.45 23.7677 55.45C22.961 55.45 21.9343 55.8578 21.4864 56.3563ZM21.4864 82.1227C20.1836 83.572 20.5055 85.2151 22.4944 87.2655L24.317 89.1445H13.2369C5.13056 89.1445 1.9407 89.3105 1.35155 89.7639C0.0147667 90.7921 -0.184571 92.7691 0.910546 94.1308L1.88212 95.3383H12.5075C18.3512 95.3383 23.1328 95.4711 23.1328 95.6327C23.1328 95.7947 22.5796 96.5751 21.9028 97.3669C20.4174 99.1062 20.3333 100.696 21.6562 102.028C23.498 103.882 24.6487 103.334 29.706 98.1925C35.9577 91.8371 35.9573 91.8718 29.891 85.7899C26.1194 82.0087 25.0671 81.2164 23.815 81.2164C22.9733 81.2164 21.9393 81.6187 21.4864 82.1227Z"/>
</mask>
<path fill-rule="evenodd" clip-rule="evenodd" d="M21.6562 0.944162C20.2535 2.35636 20.4371 4.10897 22.1996 6.12965L23.7269 7.88127H12.9421C5.0715 7.88127 1.93922 8.04875 1.35155 8.50065C0.0152589 9.52833 -0.184571 11.5059 0.909562 12.8676C1.87277 14.0667 1.95694 14.0771 12.7865 14.3229L23.6929 14.5706L22.1824 16.0259C19.6393 18.4762 20.5956 21.7555 23.8529 21.7555C24.9318 21.7555 26.2444 20.7585 29.8438 17.2047C35.9981 11.1283 35.9986 11.1472 29.6454 4.77493C24.5538 -0.331768 23.4498 -0.861468 21.6562 0.944162ZM40.8516 8.87228C39.5768 10.1556 39.5975 11.9415 40.9018 13.1312C41.8566 14.0023 43.0836 14.0954 56.7748 14.3387C70.7505 14.587 71.7678 14.6672 74.2681 15.7222C80.3491 18.2874 82.879 20.652 89.0741 29.5597L91.5725 33.1521H67.0167C42.9197 33.1521 42.4369 33.1715 41.1641 34.1793C39.6053 35.4131 39.4779 37.2198 40.8516 38.6027C41.8197 39.5774 42.492 39.5937 81.6135 39.5937C124.772 39.5937 123.49 39.5194 128.953 42.3304C132.627 44.2208 135.145 46.7999 140.242 53.8966C142.916 57.6178 145.567 61.0854 146.133 61.6017C146.7 62.118 147.164 62.729 147.164 62.9594C147.164 63.1898 123.367 63.3781 94.282 63.3781H41.3994L40.6335 64.4796C39.5054 66.1009 39.6969 67.631 41.1749 68.8014C42.4625 69.8212 42.8587 69.8365 66.7687 69.8103C80.1262 69.7959 91.0266 69.9589 90.9932 70.1735C90.8494 71.0778 84.2674 80.1109 82.4768 81.86C80.2349 84.0507 77.3925 85.8182 73.7026 87.3171C71.3337 88.2793 69.897 88.3878 56.2526 88.6311C42.1244 88.8834 41.3477 88.9463 40.6414 89.8878C39.596 91.2821 39.6925 92.9326 40.89 94.1382C41.8876 95.1426 42.2617 95.1629 56.5169 94.9816C70.8184 94.8002 71.2033 94.7685 75.097 93.4623C82.3366 91.0334 86.7052 87.492 92.4097 79.4296C94.3174 76.733 96.6208 73.812 97.5289 72.9379C100.86 69.7305 99.6296 69.8197 140.632 69.8197H177.782L176.254 71.5713C174.481 73.6044 174.334 74.8749 175.711 76.2613C177.662 78.226 178.979 77.6244 184.174 72.3939C187.525 69.0204 189 67.1821 189 66.3784C189 65.5816 187.515 63.6992 184.232 60.3357C179.081 55.058 177.708 54.4302 175.711 56.441C174.344 57.8175 174.479 59.0959 176.203 61.0725C177.015 62.0036 177.68 62.9247 177.68 63.1189C177.68 63.3137 173.638 63.3761 168.697 63.2582C158.109 63.0055 156.35 62.5298 152.326 58.8264C150.853 57.4707 147.826 53.7598 145.6 50.5792C140.538 43.3447 136.108 38.8673 131.899 36.7312C126.495 33.9891 124.263 33.5788 112.711 33.2071C99.0025 32.7656 98.4946 32.5214 92.4751 23.4898C87.128 15.467 81.11 10.9376 73.0362 8.85841C69.7051 8.00068 67.565 7.88127 55.5384 7.88127C42.492 7.88127 41.7887 7.92883 40.8516 8.87228ZM22.6544 25.8092C20.1851 26.7328 20.0099 28.8898 22.1996 31.4005L23.7269 33.1521H13.0715H2.41615L1.20832 34.3686C0.543868 35.0375 0 35.9394 0 36.3729C0 36.8065 0.543868 37.7083 1.20832 38.3773L2.41615 39.5937H13.0715H23.7269L22.1996 41.3454C20.4371 43.366 20.2535 45.1187 21.6562 46.5308C23.4094 48.2958 24.4868 47.7795 29.6002 42.7219C36.0001 36.3918 35.9996 36.3977 29.9004 30.3605C27.3961 27.8819 25.0154 25.7413 24.6094 25.6041C24.2033 25.4668 23.3238 25.559 22.6544 25.8092ZM21.4864 56.3563C20.1836 57.8056 20.5055 59.4487 22.4944 61.4991L24.317 63.3781H13.1788H2.04012L1.0203 64.6838C-0.301712 66.3754 -0.26578 67.1197 1.20832 68.6032C2.41566 69.8192 2.41959 69.8197 12.9928 69.8197H23.5694L22.1209 71.4167C20.4297 73.2803 20.2771 74.8729 21.6562 76.2613C23.5758 78.1938 24.8589 77.6076 29.83 72.5296C36.0276 66.1985 36.0276 66.1059 29.8438 60.0007C26.115 56.3196 24.9539 55.45 23.7677 55.45C22.961 55.45 21.9343 55.8578 21.4864 56.3563ZM21.4864 82.1227C20.1836 83.572 20.5055 85.2151 22.4944 87.2655L24.317 89.1445H13.2369C5.13056 89.1445 1.9407 89.3105 1.35155 89.7639C0.0147667 90.7921 -0.184571 92.7691 0.910546 94.1308L1.88212 95.3383H12.5075C18.3512 95.3383 23.1328 95.4711 23.1328 95.6327C23.1328 95.7947 22.5796 96.5751 21.9028 97.3669C20.4174 99.1062 20.3333 100.696 21.6562 102.028C23.498 103.882 24.6487 103.334 29.706 98.1925C35.9577 91.8371 35.9573 91.8718 29.891 85.7899C26.1194 82.0087 25.0671 81.2164 23.815 81.2164C22.9733 81.2164 21.9393 81.6187 21.4864 82.1227Z" stroke="black" stroke-width="10" mask="url(#path-1-inside-1_693_1015)"/>
</svg>
