<svg width="147" height="144" viewBox="0 0 147 144" fill="none" xmlns="http://www.w3.org/2000/svg">
<path d="M141.058 128.448C139.514 132.511 133.641 134.551 123.5 134.546C113.616 134.542 109.319 133.043 106.394 128.58C104.799 126.145 102.985 125.45 101.667 126.768C100.17 128.264 101.165 131.884 103.75 134.35C112.442 142.643 135.632 142.469 144.053 134.048C146.75 131.351 146.699 126.101 143.975 126.101C142.771 126.101 141.589 127.052 141.058 128.448ZM141.058 128.448L143.395 129.337M141.058 128.448L143.395 129.336C143.395 129.337 143.395 129.337 143.395 129.337M143.395 129.337C142.262 132.317 139.64 134.232 136.323 135.385C133.016 136.533 128.695 137.049 123.499 137.046C118.488 137.044 114.598 136.672 111.514 135.596C108.294 134.473 106.053 132.621 104.303 129.951L104.303 129.95C103.993 129.477 103.708 129.143 103.471 128.92M143.395 129.337C143.439 129.222 143.49 129.12 143.546 129.031M103.471 128.92C103.441 128.587 103.504 128.46 103.501 128.459C103.5 128.458 103.486 128.482 103.447 128.524C103.444 128.526 103.439 128.529 103.432 128.534C103.432 128.534 103.432 128.534 103.431 128.534C103.405 128.55 103.35 128.578 103.265 128.597C103.121 128.628 103.029 128.6 103.029 128.6C103.029 128.6 103.03 128.601 103.032 128.601C103.07 128.616 103.22 128.687 103.463 128.913C103.465 128.915 103.468 128.918 103.471 128.92ZM103.471 128.92C103.484 129.077 103.518 129.278 103.588 129.533C103.844 130.464 104.486 131.598 105.476 132.541L105.476 132.542C109.132 136.03 116.31 138.025 123.984 137.967C131.664 137.91 138.76 135.805 142.285 132.281C143.1 131.466 143.557 130.155 143.547 129.088C143.547 129.069 143.546 129.049 143.546 129.031M143.546 129.031C143.638 128.884 143.74 128.773 143.831 128.699C143.931 128.619 143.991 128.602 144 128.6C144.004 128.599 143.996 128.601 143.975 128.601C143.708 128.601 143.475 128.412 143.417 128.322C143.412 128.315 143.447 128.368 143.482 128.51C143.514 128.638 143.54 128.813 143.546 129.031ZM94.413 113.029C93.049 111.897 92.382 112.233 89.663 115.428C85.897 119.852 82.069 121.101 72.277 121.101C63.636 121.101 57.532 118.964 55.753 115.318C54.262 112.261 52.864 111.637 51.213 113.289C49.356 115.145 49.757 117.547 52.402 120.401C60.48 129.117 84.055 129.246 92.68 120.621C96.353 116.948 96.796 115.007 94.413 113.029ZM94.413 113.029L92.8604 114.9C92.855 114.899 92.8496 114.897 92.8441 114.896C92.7119 114.861 92.637 114.817 92.6369 114.817C92.6368 114.817 92.6928 114.851 92.8164 114.953C92.9691 115.08 93.0825 115.188 93.1664 115.277M94.413 113.029L92.8606 114.9C93.2383 114.994 93.5597 114.895 93.6729 114.838C93.6749 114.837 93.6745 114.837 93.6716 114.839C93.6508 114.853 93.4981 114.952 93.1664 115.277M93.1664 115.277C93.152 115.291 93.1373 115.305 93.1223 115.32C92.7343 115.706 92.2389 116.259 91.5669 117.049L91.5667 117.049C89.4475 119.538 87.1796 121.265 84.0052 122.301C80.9587 123.295 77.2219 123.601 72.277 123.601C67.7758 123.601 63.7905 123.048 60.6158 121.937C57.4911 120.843 54.8068 119.08 53.5062 116.415L53.506 116.414C53.2465 115.882 53.0191 115.496 52.8287 115.223M93.1664 115.277C93.3196 115.439 93.3743 115.538 93.3897 115.572C93.39 115.572 93.3903 115.573 93.3905 115.573M52.8287 115.223C52.8724 115.17 52.9226 115.115 52.9803 115.058L52.9813 115.057C53.1517 114.886 53.2396 114.836 53.2426 114.834C53.2442 114.833 53.2248 114.843 53.1843 114.856C53.1105 114.881 52.9955 114.903 52.8544 114.896C52.8421 114.896 52.8301 114.895 52.8182 114.894C52.8175 114.894 52.8169 114.894 52.8162 114.893C52.6924 114.883 52.5916 114.851 52.5232 114.821C52.4805 114.802 52.4598 114.787 52.4597 114.787C52.4594 114.788 52.5389 114.845 52.6873 115.032C52.7319 115.088 52.779 115.152 52.8287 115.223ZM52.8287 115.223C52.5592 115.547 52.5394 115.786 52.5851 116.059C52.6681 116.556 53.0619 117.436 54.2356 118.702C57.5726 122.303 64.6208 124.472 72.3495 124.514C80.0608 124.556 87.2935 122.472 90.9122 118.854C91.781 117.985 92.3917 117.284 92.8009 116.711C93.2167 116.129 93.3451 115.787 93.3802 115.633C93.3869 115.604 93.3895 115.585 93.3905 115.573M93.3905 115.573C93.3925 115.578 93.3935 115.58 93.3939 115.581C93.3949 115.584 93.3924 115.578 93.3913 115.566C93.3906 115.558 93.3917 115.56 93.3905 115.573ZM4.67656 121.591L4.67662 121.592C6.58028 123.193 9.42189 124.475 12.8796 125.318C16.3092 126.154 20.1846 126.52 24.0047 126.41C27.8291 126.3 31.5115 125.714 34.5664 124.706C37.6693 123.683 39.8709 122.309 41.0539 120.805L4.67656 121.591ZM4.67656 121.591C3.56709 120.658 3.11452 120.085 2.87688 119.595C2.64911 119.126 2.5 118.489 2.5 117.186C2.5 115.452 3.00657 114.186 4.15402 113.034M4.67656 121.591L4.15402 113.034M4.15402 113.034C5.40991 111.772 7.55039 110.536 11.0584 109.28M4.15402 113.034L11.0584 109.28M11.0584 109.28C13.8905 108.267 18.5325 107.767 23.4138 107.89C28.2895 108.014 32.9543 108.749 35.8281 109.916L11.0584 109.28ZM42.0302 115.148C41.2439 113.293 39.2624 111.311 35.8285 109.916L42.0302 115.148ZM42.0302 115.148C42.7674 116.888 42.6022 118.836 41.0541 120.805L42.0302 115.148ZM103.565 115.68C103.775 116.766 104.478 118.198 105.62 119.34C107.688 121.408 111.059 122.934 115.241 123.78C119.379 124.618 124.058 124.737 128.456 124.207C132.877 123.675 136.835 122.51 139.606 120.92C142.437 119.296 143.5 117.576 143.5 116.034C143.5 115.844 143.492 115.678 143.478 115.535C143.228 115.814 142.936 116.218 142.636 116.78C142.636 116.78 142.636 116.78 142.636 116.78L103.565 115.68ZM103.565 115.68C103.522 115.461 103.505 115.284 103.501 115.147C103.626 115.27 103.89 115.596 104.232 116.375L103.565 115.68ZM132.264 7.86918L136.532 3.60142H130.496H121.371C117.927 3.60142 115.73 3.50714 114.311 3.30203C114.163 3.28052 114.028 3.25846 113.907 3.23636C114.49 3.13527 115.199 3.03937 116.019 2.95249C118.449 2.69527 121.611 2.54211 124.817 2.50752C128.022 2.47293 131.204 2.55759 133.672 2.76227C134.914 2.8652 135.916 2.99393 136.63 3.13793C136.732 3.15846 136.823 3.17839 136.904 3.19743C136.923 3.27873 136.943 3.36992 136.963 3.47161C137.107 4.18512 137.236 5.18786 137.339 6.42905C137.544 8.8972 137.628 12.0791 137.594 15.2843C137.559 18.49 137.406 21.6523 137.149 24.082C137.061 24.9127 136.964 25.6291 136.861 26.2163C136.841 26.1084 136.821 25.9899 136.801 25.8599C136.597 24.5178 136.5 22.4486 136.5 19.2344V10.6124V4.57822L132.233 8.84438L96.9775 44.0884C87.2907 53.7722 78.3194 62.5706 71.6708 68.9435C68.345 72.1314 65.6119 74.7012 63.6655 76.4685L63.8298 76.3042L98.0468 42.0862L132.264 7.86918ZM112.443 3.59834C112.442 3.59802 112.453 3.59162 112.481 3.58005C112.457 3.59288 112.444 3.59866 112.443 3.59834ZM137.414 3.35002C137.413 3.35026 137.402 3.34599 137.384 3.33653C137.405 3.34504 137.414 3.34978 137.414 3.35002ZM136.765 2.7176C136.755 2.6991 136.751 2.68855 136.751 2.68789C136.752 2.68723 136.756 2.69646 136.765 2.7176ZM136.503 27.6588C136.503 27.658 136.508 27.6443 136.521 27.6206C136.51 27.6478 136.503 27.6596 136.503 27.6588ZM60.3099 76.3197L61.9842 77.9648C61.9264 78.0147 61.8703 78.063 61.8159 78.1096C61.2704 77.6942 60.5767 77.125 59.7617 76.4194C57.8282 74.7456 55.3372 72.4135 52.7675 69.8334C52.7674 69.8333 52.7674 69.8333 52.7673 69.8332L43.3035 60.3294L41.5372 58.5557L39.7657 60.3241L25.0937 74.9711L25.0937 74.9712C21.1948 78.8637 18.1212 81.8413 15.7515 84.0156C18.6272 80.8577 22.4719 76.8133 26.3786 72.8127C30.3174 68.7793 34.2995 64.8106 37.3941 61.8582C38.9453 60.3783 40.2507 59.1757 41.2067 58.3527C41.2798 58.2899 41.3499 58.23 41.4172 58.173C41.9174 58.5994 42.5401 59.1498 43.2649 59.8074C45.1757 61.5411 47.716 63.9465 50.4189 66.6017C50.4189 66.6018 50.419 66.6018 50.419 66.6019L60.3099 76.3197ZM112.397 64.9485L112.397 64.9484C114.563 64.1766 118.677 63.7053 123.195 63.696C127.679 63.6869 132.081 64.1331 134.756 64.9383L135.477 62.5444L134.756 64.9383C140.828 66.7659 143.259 70.1019 143.484 72.6465C143.697 75.0379 142.049 78.2517 136.437 80.187C129.757 82.49 121.753 82.7466 115.203 81.4407C111.933 80.7888 109.153 79.7722 107.132 78.5308C105.081 77.2712 104.077 75.9529 103.784 74.786L103.784 74.7855C103.3 72.8573 103.68 71.1591 104.938 69.5805C106.271 67.9068 108.685 66.2705 112.397 64.9485ZM136.421 66.213L136.421 66.2129L107.54 71.0574L105.687 69.3794C105.687 69.3796 105.687 69.3797 105.686 69.3799C105.303 69.803 104.867 70.2924 104.546 70.7864C104.203 71.3142 103.804 72.126 103.887 73.1595C103.966 74.1358 104.445 74.8668 104.798 75.3225C105.155 75.784 105.626 76.2634 106.086 76.7232C107.912 78.549 110.636 79.732 113.483 80.4781C116.392 81.2401 119.719 81.6212 123.036 81.6462C126.356 81.6713 129.746 81.3405 132.783 80.6308C135.779 79.9309 138.635 78.8157 140.711 77.1344L140.712 77.1341C141.228 76.7154 141.738 76.2863 142.142 75.8561C142.535 75.4388 143.051 74.7928 143.255 73.9027C143.481 72.9109 143.228 72.0546 142.911 71.43C142.628 70.8745 142.226 70.3676 141.893 69.9659L141.892 69.9652C141.264 69.2079 140.326 68.4658 139.435 67.8649C138.509 67.2407 137.439 66.6383 136.421 66.213ZM104.614 90.4582L104.614 90.4581C103.943 89.501 103.59 88.3448 103.551 87.4706C103.546 87.3678 103.546 87.277 103.549 87.1975C103.687 87.3503 103.929 87.685 104.232 88.375C105.446 91.1413 108.163 93.0027 111.29 94.1661C114.48 95.3528 118.486 95.9687 122.943 95.9834H122.943C132.617 96.0141 138.56 94.357 142.572 89.0958C142.915 88.6457 143.227 88.2917 143.5 88.019C143.5 88.047 143.5 88.0754 143.5 88.1044C143.5 89.0113 142.806 90.5025 140.812 92.1276C138.907 93.6796 136.187 95.0257 133.126 95.7108C127.528 96.9635 121.143 96.8881 115.684 95.7899C112.962 95.2422 110.538 94.4536 108.598 93.4975C106.63 92.5277 105.319 91.465 104.614 90.4582ZM103.073 87.1931L103.073 87.1929L103.073 87.1931ZM67.7452 91.6564L67.7454 91.6563C75.2397 90.9172 83.4869 92.0959 87.6976 94.2432C89.9995 95.4179 91.1144 96.2094 91.7842 96.9932C92.3935 97.7062 92.8021 98.6114 93.1695 100.449C93.4158 101.68 93.3214 101.943 93.2353 102.136C93.0572 102.535 92.5767 103.157 91.007 104.637L91.0065 104.638C87.3176 108.118 81.4357 110.041 72.5179 109.977H72.5175C64.6704 109.922 58.5835 107.856 55.2965 105.196C53.6701 103.879 52.8819 102.551 52.6711 101.386C52.4722 100.287 52.7179 98.9598 53.9379 97.4092L53.9382 97.4087C56.1047 94.6536 61.035 92.3177 67.7452 91.6564ZM86.6833 94.4441L86.6827 94.4438C80.9946 91.6671 72.4926 91.3943 65.892 92.4879C62.5711 93.0381 59.425 93.9808 57.1883 95.3476C56.0725 96.0295 54.9929 96.9316 54.3209 98.1266C53.591 99.4247 53.4274 100.933 54.003 102.432C54.6293 104.064 55.9147 105.234 57.2773 106.063C58.6565 106.903 60.325 107.525 62.0872 107.984C65.6173 108.903 69.9207 109.265 74.054 109.149C78.1763 109.032 82.3341 108.434 85.5479 107.302C87.1456 106.74 88.666 105.992 89.8307 104.981C91.0215 103.946 92 102.48 92 100.601C92 99.0506 91.2272 97.7928 90.2887 96.8552C89.3619 95.9293 88.1104 95.1413 86.6833 94.4441ZM104.984 105.333L104.984 105.333C104.272 104.569 103.762 103.515 103.568 102.568C103.516 102.318 103.493 102.101 103.487 101.921C103.609 102.074 103.748 102.29 103.885 102.59L103.885 102.59C105.21 105.497 107.643 107.403 111.015 108.546C114.291 109.656 118.591 110.101 124 110.101C129.389 110.101 133.588 109.683 136.73 108.555C139.969 107.392 142.16 105.44 143.318 102.536C143.324 102.582 143.331 102.63 143.336 102.68C143.517 104.25 142.453 106.309 138.572 108.16C134.83 109.946 129.221 111.089 122.525 111.022C114.065 110.937 108.179 108.763 104.984 105.333ZM103.538 101.399C103.538 101.399 103.537 101.401 103.536 101.404C103.537 101.401 103.538 101.399 103.538 101.399ZM36.164 111.119L36.1635 111.119C34.2105 110.134 32.4619 109.479 30.2927 109.102C28.1868 108.735 25.7683 108.647 22.5144 108.678H22.5142C13.9703 108.759 8.1609 109.965 4.57935 113.555L4.57905 113.555C4.19286 113.942 3.75703 114.386 3.42636 114.836C3.08169 115.305 2.6406 116.055 2.63615 117.051C2.63179 118.027 3.05053 118.777 3.36642 119.242C3.67847 119.701 4.09486 120.169 4.47931 120.594L6.3167 118.931L4.47932 120.594C5.98999 122.263 8.35014 123.378 10.7895 124.128C13.3031 124.901 16.2351 125.386 19.2229 125.588C25.1001 125.984 31.7404 125.314 36.1637 123.084L36.164 123.083C37.5366 122.391 38.8194 121.557 39.7976 120.735C40.2816 120.329 40.753 119.873 41.1268 119.389C41.4191 119.01 42 118.183 42 117.101C42 116.02 41.4191 115.192 41.1268 114.814C40.753 114.33 40.2816 113.874 39.7976 113.467C38.8194 112.645 37.5366 111.812 36.164 111.119ZM58.26 135.92L58.2598 135.92C56.0794 134.699 54.4471 133.243 53.5002 131.93C52.6362 130.732 52.5794 130.025 52.6124 129.757C52.9284 129.929 53.4688 130.357 54.002 131.295L54.0021 131.295C55.6215 134.141 58.8776 135.875 62.2182 136.903C63.9404 137.432 65.8172 137.815 67.757 138.058C65.6459 138.01 64.1852 137.913 63.0167 137.73C61.242 137.452 60.1482 136.978 58.26 135.92ZM52.7056 129.51C52.7055 129.511 52.7046 129.512 52.7027 129.514C52.7047 129.511 52.7057 129.51 52.7056 129.51ZM82.888 137.736C81.7525 137.899 80.3561 137.994 78.4461 138.047L90.008 129.58L92.3447 130.469C92.3447 130.469 92.3448 130.469 92.3448 130.469C92.4874 130.094 92.6042 129.868 92.6876 129.737C92.738 129.739 92.804 129.745 92.8881 129.757C93.1809 129.799 93.3422 129.857 93.424 129.898C93.4288 130.011 93.4118 130.277 93.2209 130.746C92.6053 132.256 90.6999 134.454 87.557 136.133L87.5567 136.133C85.8963 137.021 84.7493 137.468 82.888 137.736ZM93.4967 129.948C93.4951 129.949 93.484 129.942 93.4688 129.923C93.4906 129.938 93.4982 129.947 93.4967 129.948ZM5.8785 137.014L5.87798 137.014C4.16142 135.953 3.44369 135.257 3.07086 134.634C2.76573 134.124 2.5568 133.438 2.50996 132.116C2.54208 132.181 2.57397 132.255 2.60505 132.336C3.73757 135.317 6.35968 137.232 9.67689 138.385C12.984 139.533 17.3048 140.049 22.501 140.046C27.5193 140.044 31.3331 139.707 34.397 138.627C37.6042 137.497 39.8209 135.619 41.7726 132.939C42.042 132.57 42.2895 132.316 42.4926 132.147C42.4972 132.218 42.5 132.296 42.5 132.383C42.5 133.885 41.1709 135.954 37.3428 137.79C33.6859 139.544 28.4491 140.69 22.5062 140.675C18.1353 140.665 15.1198 140.432 12.6374 139.873C10.2079 139.327 8.19658 138.447 5.8785 137.014ZM2.53375 131.234C2.53387 131.234 2.53297 131.237 2.53071 131.241C2.53249 131.236 2.53363 131.234 2.53375 131.234ZM42.964 131.858C42.9639 131.858 42.962 131.858 42.9584 131.859C42.9622 131.858 42.9641 131.858 42.964 131.858ZM144.069 115.04C144.074 115.038 144.077 115.038 144.077 115.038C144.077 115.038 144.075 115.039 144.069 115.04Z" stroke="black" stroke-width="5"/>
</svg>
