<svg width="851" height="649" viewBox="0 0 851 649" fill="none" xmlns="http://www.w3.org/2000/svg">
<path d="M851 557.923H0V558.348H851V557.923Z" fill="#E6E6E6"/>
<path d="M163.41 572.918H105.984V573.343H163.41V572.918Z" fill="#E6E6E6"/>
<path d="M209.972 572.696H175.898V573.122H209.972V572.696Z" fill="#E6E6E6"/>
<path d="M373.333 583.861H212V584.287H373.333V583.861Z" fill="#E6E6E6"/>
<path d="M546.562 569.105H431.711V569.531H546.562V569.105Z" fill="#E6E6E6"/>
<path d="M704.062 572.884H601.652V573.309H704.062V572.884Z" fill="#E6E6E6"/>
<path d="M403.372 482.014H74.7327C72.1581 482.01 69.6906 480.984 67.8717 479.162C66.0528 477.34 65.0312 474.87 65.0313 472.296V10.3218C65.0537 7.76203 66.0851 5.31448 67.9016 3.51076C69.718 1.70705 72.1728 0.692862 74.7327 0.688477H403.372C405.949 0.688477 408.421 1.71238 410.244 3.53494C412.066 5.35749 413.09 7.82941 413.09 10.4069V472.296C413.09 474.873 412.066 477.345 410.244 479.168C408.421 480.99 405.949 482.014 403.372 482.014V482.014ZM74.7327 1.02888C72.271 1.03339 69.9116 2.01445 68.1726 3.75672C66.4335 5.49899 65.4567 7.86011 65.4568 10.3218V472.296C65.4567 474.757 66.4335 477.118 68.1726 478.861C69.9116 480.603 72.271 481.584 74.7327 481.589H403.372C405.835 481.584 408.196 480.604 409.938 478.862C411.68 477.12 412.66 474.759 412.665 472.296V10.3218C412.66 7.85854 411.68 5.49746 409.938 3.75568C408.196 2.01389 405.835 1.03338 403.372 1.02888H74.7327Z" fill="#E6E6E6"/>
<path d="M771.535 482.014H442.879C440.302 482.01 437.833 480.984 436.012 479.163C434.19 477.341 433.165 474.872 433.16 472.296V10.3218C433.187 7.76048 434.222 5.31294 436.041 3.5097C437.861 1.70646 440.317 0.692814 442.879 0.688477H771.535C774.092 0.697335 776.542 1.7135 778.355 3.51674C780.168 5.31997 781.197 7.76497 781.219 10.3218V472.296C781.219 474.867 780.2 477.334 778.385 479.156C776.57 480.977 774.106 482.005 771.535 482.014V482.014ZM442.879 1.02888C440.415 1.03338 438.054 2.01389 436.312 3.75568C434.571 5.49746 433.59 7.85854 433.586 10.3218V472.296C433.59 474.759 434.571 477.12 436.312 478.862C438.054 480.604 440.415 481.584 442.879 481.589H771.535C773.998 481.584 776.359 480.604 778.101 478.862C779.843 477.12 780.823 474.759 780.828 472.296V10.3218C780.823 7.85854 779.843 5.49746 778.101 3.75568C776.359 2.01389 773.998 1.03338 771.535 1.02888H442.879Z" fill="#E6E6E6"/>
<path d="M465.445 448.314C435.235 401.492 438.656 539.49 383.154 478.167C314.955 402.837 217.107 377.579 259.878 435.243C302.649 492.906 277.204 512.871 169.246 448.314C90.9544 401.492 235.335 541.924 195.798 536.529C156.26 531.133 96.2816 518.096 147.427 557.787L479.215 557.923C479.215 557.923 495.656 495.085 465.445 448.314Z" fill="#F5F5F5"/>
<path d="M611.884 557.923H538.068C499.603 531.423 478.192 460.449 532.298 383.315C542.212 369.335 553.44 356.335 565.828 344.492C586.303 452.824 674.534 525.789 611.884 557.923Z" fill="#EBEBEB"/>
<path d="M475.606 557.923H549.422C583.683 538.333 593.759 485.878 527.381 428.861C514.896 418.289 501.615 408.695 487.656 400.165C484.439 480.244 407.849 534.163 475.606 557.923Z" fill="#EBEBEB"/>
<path d="M665.077 557.923H604.026C575.688 541.72 567.348 498.353 622.255 451.174C632.577 442.425 643.559 434.487 655.103 427.431C657.758 493.673 721.124 538.265 665.077 557.923Z" fill="#EBEBEB"/>
<path d="M621.234 557.923C621.234 557.923 622.936 537.669 641.454 527.287C636.844 536.809 634.796 547.368 635.514 557.923H621.234Z" fill="#F5F5F5"/>
<path d="M521.372 557.923C521.372 557.923 519.67 537.669 501.152 527.287C505.763 536.809 507.81 547.368 507.092 557.923H521.372Z" fill="#F5F5F5"/>
<path d="M267.966 557.923C267.966 557.923 266.264 537.669 247.746 527.287C252.356 536.809 254.404 547.368 253.686 557.923H267.966Z" fill="#EBEBEB"/>
<path d="M107.666 557.923C107.666 557.923 101.709 529.636 74 515.066C82.0592 527.993 86.779 542.72 87.7351 557.923H107.666Z" fill="#FAFAFA"/>
<path d="M746.836 557.924C746.836 557.924 751.533 516.327 717.749 494.95C727.382 525.11 717.527 557.924 717.527 557.924H746.836Z" fill="#EBEBEB"/>
<path d="M728.066 557.924C728.066 557.924 737.598 523.884 772.097 506.455C761.397 521.766 754.511 539.412 752.014 557.924H728.066Z" fill="#EBEBEB"/>
<path d="M610.512 557.923C610.512 557.923 611.754 523.883 634.34 511.577C624.264 529.023 624.843 557.923 624.843 557.923H610.512Z" fill="#F5F5F5"/>
<path d="M380.77 557.923C381.209 554.5 382.425 551.222 384.325 548.34C386.224 545.458 388.757 543.048 391.73 541.295C389.226 546.462 388.117 552.195 388.514 557.923H380.77Z" fill="#EBEBEB"/>
<path d="M380.48 557.923C380.041 554.5 378.825 551.222 376.925 548.34C375.026 545.458 372.493 543.048 369.52 541.295C372.024 546.462 373.133 552.195 372.736 557.923H380.48Z" fill="#EBEBEB"/>
<path d="M375.004 557.923C375.004 557.923 375.685 539.49 387.905 532.784C382.442 542.247 382.799 557.923 382.799 557.923H375.004Z" fill="#EBEBEB"/>
<path d="M171.122 557.923C171.122 557.923 172.568 543.217 154.102 532.784C161.692 547.472 156.876 557.923 156.876 557.923H171.122Z" fill="#EBEBEB"/>
<path d="M171.645 557.923C171.645 557.923 173.347 537.669 191.864 527.287C187.254 536.809 185.207 547.368 185.924 557.923H171.645Z" fill="#EBEBEB"/>
<path d="M181.758 557.923C181.758 557.923 180.515 523.883 157.93 511.577C168.006 529.023 167.427 557.923 167.427 557.923H181.758Z" fill="#EBEBEB"/>
<path d="M91.1074 223.514C97.2516 215.753 109.625 209.745 118.765 210.12C120.117 210.074 121.465 210.297 122.73 210.776C123.995 211.255 125.152 211.981 126.135 212.911C142.831 203.244 162.047 197.287 177.909 197.95C185.977 198.274 192.257 200.265 196.631 203.516C214.553 188.913 237.479 178.565 253.989 178.565C263.401 178.565 269.307 181.969 271.349 187.5C289.748 177.714 308.64 171.688 323.89 171.688C348.177 171.688 356.075 187.006 346.135 208.469C350.118 212.502 369.282 218.17 368.499 224.944H90.0352C90.3756 224.467 90.716 224.008 91.1074 223.514Z" fill="#F5F5F5"/>
<path d="M364.231 89.2942C368.742 89.5154 371.89 91.1664 373.626 93.8385C396.365 78.078 422.014 68.4106 442.66 69.4829C453.212 69.9935 461.228 73.2613 466.573 78.5546C491.286 54.7266 522.109 37.9959 543.809 37.9959C556.149 37.9959 563.502 43.4423 565.68 52.531C590.631 36.5492 615.889 26.7627 635.837 26.7627C660.55 26.7627 671.476 41.8084 668.072 64.9726C679.986 58.1646 691.679 54.267 701.21 54.267C714.418 54.267 720.596 61.892 719.524 73.823C720.661 73.8174 721.798 73.88 722.928 74.0102C743.08 75.9845 750.807 91.4217 741.122 109.037H328.285C337.323 97.4127 352.896 88.7155 364.231 89.2942Z" fill="#F5F5F5"/>
<path d="M571.774 244.074C572.658 244.039 573.538 244.221 574.336 244.604C575.134 244.987 575.826 245.559 576.352 246.27C587.449 238.594 599.942 233.879 610.018 234.356C614.319 234.328 618.477 235.906 621.677 238.781V238.781C633.727 227.208 648.755 219.004 659.325 219.004C665.35 219.004 668.924 221.659 669.996 226.084C682.166 218.306 694.471 213.523 704.189 213.523C716.257 213.523 721.567 220.859 719.916 232.245C725.72 228.961 731.421 227.02 736.068 227.02C742.502 227.02 745.531 230.731 745.003 236.551C745.565 236.551 746.127 236.551 746.705 236.551C756.526 237.522 760.321 245.061 755.556 253.571H554.277C558.686 248.006 566.276 243.768 571.774 244.074Z" fill="#F5F5F5"/>
<path d="M425.497 634.786C607.751 634.786 755.498 626.16 755.498 615.52C755.498 604.879 607.751 596.253 425.497 596.253C243.242 596.253 95.4961 604.879 95.4961 615.52C95.4961 626.16 243.242 634.786 425.497 634.786Z" fill="#F5F5F5"/>
<path d="M251.79 99.1214C258.53 92.3816 258.53 81.4543 251.79 74.7145C245.05 67.9748 234.123 67.9747 227.383 74.7145C220.643 81.4543 220.643 92.3816 227.383 99.1214C234.123 105.861 245.05 105.861 251.79 99.1214Z" fill="#AE8DFF"/>
<path opacity="0.1" d="M251.79 99.1214C258.53 92.3816 258.53 81.4543 251.79 74.7145C245.05 67.9748 234.123 67.9747 227.383 74.7145C220.643 81.4543 220.643 92.3816 227.383 99.1214C234.123 105.861 245.05 105.861 251.79 99.1214Z" fill="white"/>
<path d="M270.554 348.636C279.815 346.38 285.493 337.044 283.238 327.784C280.982 318.523 271.646 312.844 262.385 315.1C253.124 317.356 247.446 326.692 249.702 335.953C251.957 345.213 261.293 350.892 270.554 348.636Z" fill="#AE8DFF"/>
<path opacity="0.2" d="M270.554 348.636C279.815 346.38 285.493 337.044 283.238 327.784C280.982 318.523 271.646 312.844 262.385 315.1C253.124 317.356 247.446 326.692 249.702 335.953C251.957 345.213 261.293 350.892 270.554 348.636Z" fill="#AE8DFF"/>
<g opacity="0.1">
<path opacity="0.1" d="M270.554 348.635C279.815 346.379 285.493 337.043 283.238 327.783C280.982 318.522 271.646 312.843 262.385 315.099C253.124 317.355 247.446 326.691 249.702 335.952C251.957 345.212 261.293 350.891 270.554 348.635Z" fill="white"/>
<path opacity="0.2" d="M270.554 348.635C279.815 346.379 285.493 337.043 283.238 327.783C280.982 318.522 271.646 312.843 262.385 315.099C253.124 317.355 247.446 326.691 249.702 335.952C251.957 345.212 261.293 350.891 270.554 348.635Z" fill="white"/>
</g>
<path d="M531.456 102.172C539.877 93.7507 539.877 80.0969 531.456 71.6755C523.034 63.2541 509.381 63.2542 500.959 71.6756C492.538 80.097 492.538 93.7507 500.959 102.172C509.381 110.594 523.034 110.594 531.456 102.172Z" fill="#AE8DFF"/>
<path opacity="0.2" d="M531.456 102.172C539.877 93.7507 539.877 80.0969 531.456 71.6755C523.034 63.2541 509.381 63.2542 500.959 71.6756C492.538 80.097 492.538 93.7507 500.959 102.172C509.381 110.594 523.034 110.594 531.456 102.172Z" fill="#AE8DFF"/>
<g opacity="0.1">
<path opacity="0.1" d="M531.456 102.172C539.877 93.7507 539.877 80.0969 531.456 71.6755C523.034 63.2541 509.381 63.2542 500.959 71.6756C492.538 80.097 492.538 93.7507 500.959 102.172C509.381 110.594 523.034 110.594 531.456 102.172Z" fill="white"/>
<path opacity="0.2" d="M531.456 102.172C539.877 93.7507 539.877 80.0969 531.456 71.6755C523.034 63.2541 509.381 63.2542 500.959 71.6756C492.538 80.097 492.538 93.7507 500.959 102.172C509.381 110.594 523.034 110.594 531.456 102.172Z" fill="white"/>
</g>
<path d="M607.932 108.476C618.657 108.476 627.351 99.7818 627.351 89.0565C627.351 78.3313 618.657 69.6367 607.932 69.6367C597.206 69.6367 588.512 78.3313 588.512 89.0565C588.512 99.7818 597.206 108.476 607.932 108.476Z" fill="#AE8DFF"/>
<path opacity="0.2" d="M607.932 108.476C618.657 108.476 627.351 99.7818 627.351 89.0565C627.351 78.3313 618.657 69.6367 607.932 69.6367C597.206 69.6367 588.512 78.3313 588.512 89.0565C588.512 99.7818 597.206 108.476 607.932 108.476Z" fill="#AE8DFF"/>
<g opacity="0.3">
<path opacity="0.3" d="M607.932 108.475C618.657 108.475 627.351 99.7808 627.351 89.0556C627.351 78.3303 618.657 69.6357 607.932 69.6357C597.206 69.6357 588.512 78.3303 588.512 89.0556C588.512 99.7808 597.206 108.475 607.932 108.475Z" fill="white"/>
<path opacity="0.2" d="M607.932 108.475C618.657 108.475 627.351 99.7808 627.351 89.0556C627.351 78.3303 618.657 69.6357 607.932 69.6357C597.206 69.6357 588.512 78.3303 588.512 89.0556C588.512 99.7808 597.206 108.475 607.932 108.475Z" fill="white"/>
</g>
<path d="M287.404 168.504C301.168 160.782 306.068 143.365 298.346 129.6C290.625 115.835 273.207 110.936 259.443 118.657C245.678 126.378 240.779 143.796 248.5 157.561C256.221 171.326 273.639 176.225 287.404 168.504Z" fill="#AE8DFF"/>
<path opacity="0.2" d="M287.404 168.504C301.168 160.782 306.068 143.365 298.346 129.6C290.625 115.835 273.207 110.936 259.443 118.657C245.678 126.378 240.779 143.796 248.5 157.561C256.221 171.326 273.639 176.225 287.404 168.504Z" fill="#AE8DFF"/>
<g opacity="0.3">
<path opacity="0.3" d="M287.408 168.503C301.172 160.781 306.072 143.364 298.35 129.599C290.629 115.834 273.211 110.935 259.447 118.656C245.682 126.377 240.783 143.795 248.504 157.56C256.225 171.325 273.643 176.224 287.408 168.503Z" fill="white"/>
<path opacity="0.2" d="M287.408 168.503C301.172 160.781 306.072 143.364 298.35 129.599C290.629 115.834 273.211 110.935 259.447 118.656C245.682 126.377 240.783 143.795 248.504 157.56C256.225 171.325 273.643 176.224 287.408 168.503Z" fill="white"/>
</g>
<path d="M380.869 43.3173C383.232 34.0832 377.661 24.6825 368.427 22.3202C359.193 19.9578 349.792 25.5285 347.43 34.7626C345.067 43.9967 350.638 53.3975 359.872 55.7598C369.106 58.1221 378.507 52.5514 380.869 43.3173Z" fill="#AE8DFF"/>
<path opacity="0.2" d="M380.869 43.3173C383.232 34.0832 377.661 24.6825 368.427 22.3202C359.193 19.9578 349.792 25.5285 347.43 34.7626C345.067 43.9967 350.638 53.3975 359.872 55.7598C369.106 58.1221 378.507 52.5514 380.869 43.3173Z" fill="#AE8DFF"/>
<g opacity="0.3">
<path opacity="0.3" d="M380.869 43.3173C383.232 34.0832 377.661 24.6825 368.427 22.3202C359.193 19.9578 349.792 25.5285 347.43 34.7626C345.067 43.9967 350.638 53.3975 359.872 55.7598C369.106 58.1221 378.507 52.5514 380.869 43.3173Z" fill="white"/>
<path opacity="0.2" d="M380.869 43.3173C383.232 34.0832 377.661 24.6825 368.427 22.3202C359.193 19.9578 349.792 25.5285 347.43 34.7626C345.067 43.9967 350.638 53.3975 359.872 55.7598C369.106 58.1221 378.507 52.5514 380.869 43.3173Z" fill="white"/>
</g>
<path d="M265.065 249.469C276.225 238.31 276.225 220.216 265.065 209.056C253.906 197.896 235.812 197.896 224.652 209.056C213.492 220.216 213.492 238.31 224.652 249.469C235.812 260.629 253.906 260.629 265.065 249.469Z" fill="#AE8DFF"/>
<path opacity="0.1" d="M265.065 249.469C276.225 238.31 276.225 220.216 265.065 209.056C253.906 197.896 235.812 197.896 224.652 209.056C213.492 220.216 213.492 238.31 224.652 249.469C235.812 260.629 253.906 260.629 265.065 249.469Z" fill="white"/>
<path d="M474 62.624C483.532 62.624 491.259 54.8972 491.259 45.3657C491.259 35.8342 483.532 28.1074 474 28.1074C464.469 28.1074 456.742 35.8342 456.742 45.3657C456.742 54.8972 464.469 62.624 474 62.624Z" fill="#AE8DFF"/>
<path opacity="0.1" d="M474 62.624C483.532 62.624 491.259 54.8972 491.259 45.3657C491.259 35.8342 483.532 28.1074 474 28.1074C464.469 28.1074 456.742 35.8342 456.742 45.3657C456.742 54.8972 464.469 62.624 474 62.624Z" fill="white"/>
<path d="M450.062 80.7406C453.827 65.4138 444.454 49.9371 429.127 46.1725C413.8 42.4078 398.323 51.7808 394.559 67.1077C390.794 82.4345 400.167 97.9112 415.494 101.676C430.821 105.44 446.297 96.0675 450.062 80.7406Z" fill="#AE8DFF"/>
<path opacity="0.1" d="M450.062 80.7406C453.827 65.4138 444.454 49.9371 429.127 46.1725C413.8 42.4078 398.323 51.7808 394.559 67.1077C390.794 82.4345 400.167 97.9112 415.494 101.676C430.821 105.44 446.297 96.0675 450.062 80.7406Z" fill="white"/>
<path d="M230.768 323.041C234.369 307.675 224.832 292.299 209.466 288.698C194.099 285.096 178.723 294.634 175.122 310C171.521 325.366 181.058 340.742 196.424 344.343C211.79 347.944 227.166 338.407 230.768 323.041Z" fill="#AE8DFF"/>
<path opacity="0.4" d="M230.768 323.041C234.369 307.675 224.832 292.299 209.466 288.698C194.099 285.096 178.723 294.634 175.122 310C171.521 325.366 181.058 340.742 196.424 344.343C211.79 347.944 227.166 338.407 230.768 323.041Z" fill="black"/>
<path d="M577.322 57.8154C579.502 48.5365 573.747 39.2474 564.468 37.0676C555.189 34.8879 545.9 40.6429 543.72 49.9218C541.54 59.2007 547.295 68.4897 556.574 70.6695C565.853 72.8492 575.142 67.0943 577.322 57.8154Z" fill="#AE8DFF"/>
<path opacity="0.4" d="M577.322 57.8154C579.502 48.5365 573.747 39.2474 564.468 37.0676C555.189 34.8879 545.9 40.6429 543.72 49.9218C541.54 59.2007 547.295 68.4897 556.574 70.6695C565.853 72.8492 575.142 67.0943 577.322 57.8154Z" fill="black"/>
<path d="M212.815 173.762C221.237 165.341 221.237 151.687 212.815 143.265C204.394 134.844 190.74 134.844 182.319 143.265C173.897 151.687 173.897 165.341 182.319 173.762C190.74 182.183 204.394 182.183 212.815 173.762Z" fill="#AE8DFF"/>
<path opacity="0.4" d="M212.815 173.762C221.237 165.341 221.237 151.687 212.815 143.265C204.394 134.844 190.74 134.844 182.319 143.265C173.897 151.687 173.897 165.341 182.319 173.762C190.74 182.183 204.394 182.183 212.815 173.762Z" fill="black"/>
<path d="M216.625 320.154C218.298 318.48 219.452 316.358 219.947 314.043C220.442 311.729 220.257 309.321 219.414 307.109C218.572 304.897 217.108 302.977 215.198 301.578C213.289 300.179 211.016 299.363 208.653 299.226C206.29 299.09 203.939 299.64 201.881 300.81C199.824 301.98 198.148 303.72 197.057 305.82C195.966 307.92 195.505 310.291 195.731 312.647C195.957 315.003 196.859 317.243 198.328 319.098C197.494 319.745 196.626 320.409 195.895 321.09C194.754 322.06 193.631 323.064 192.491 324.068C191.35 325.072 190.295 326.111 189.223 327.166L187.521 328.732C187.235 328.989 187.003 329.302 186.84 329.651C186.747 329.839 186.684 330.039 186.653 330.246C186.616 330.489 186.616 330.736 186.653 330.978C186.694 331.416 186.887 331.825 187.198 332.135C187.508 332.446 187.917 332.639 188.355 332.68C188.604 332.708 188.855 332.708 189.104 332.68C189.308 332.63 189.507 332.562 189.699 332.476C190.04 332.308 190.347 332.077 190.601 331.795L192.184 330.195C193.222 329.123 194.244 328.017 195.265 326.928C196.286 325.838 197.273 324.681 198.243 323.524C198.924 322.724 199.588 321.924 200.235 321.107C202.602 323 205.586 323.951 208.613 323.775C211.639 323.599 214.493 322.309 216.625 320.154V320.154ZM201.103 318.332C199.731 316.982 198.793 315.253 198.407 313.367C198.02 311.482 198.204 309.523 198.934 307.742C199.664 305.961 200.907 304.437 202.506 303.365C204.104 302.292 205.986 301.72 207.911 301.72C209.836 301.72 211.717 302.292 213.316 303.365C214.914 304.437 216.158 305.961 216.888 307.742C217.617 309.523 217.801 311.482 217.415 313.367C217.029 315.253 216.09 316.982 214.719 318.332C212.906 320.124 210.46 321.129 207.911 321.129C205.362 321.129 202.915 320.124 201.103 318.332Z" fill="white"/>
<path d="M616.642 91.8485C617.749 90.7414 618.513 89.3376 618.841 87.8062C619.169 86.2749 619.047 84.6815 618.489 83.218C617.932 81.7544 616.963 80.4833 615.7 79.5578C614.437 78.6323 612.933 78.0919 611.37 78.0017C609.806 77.9116 608.25 78.2755 606.889 79.0497C605.527 79.8239 604.419 80.9752 603.697 82.365C602.976 83.7547 602.671 85.3236 602.821 86.8825C602.97 88.4413 603.568 89.9236 604.541 91.1507C603.996 91.5762 603.468 92.0017 602.941 92.4613C602.413 92.9208 601.426 93.7548 600.694 94.4186L598.533 96.461C598.175 96.8014 597.835 97.1588 597.477 97.5162C597.288 97.6798 597.137 97.8832 597.035 98.1119C596.9 98.3863 596.841 98.692 596.865 98.9969C596.888 99.2916 597.016 99.5683 597.225 99.7773C597.434 99.9863 597.71 100.114 598.005 100.137C598.168 100.164 598.335 100.164 598.498 100.137L598.89 100.001C599.115 99.8933 599.317 99.7431 599.486 99.5586L600.524 98.4863C601.222 97.7885 601.902 97.0567 602.566 96.3248C603.23 95.5929 603.894 94.8611 604.541 94.0952C605.187 93.3293 605.426 93.0399 605.851 92.4953C607.417 93.7276 609.38 94.3425 611.369 94.2232C613.358 94.104 615.234 93.259 616.642 91.8485V91.8485ZM606.43 90.6231C605.538 89.7269 604.931 88.5866 604.687 87.346C604.442 86.1055 604.571 84.8203 605.056 83.6527C605.541 82.4851 606.362 81.4874 607.413 80.7856C608.465 80.0837 609.701 79.7092 610.966 79.7092C612.23 79.7092 613.466 80.0837 614.518 80.7856C615.57 81.4874 616.39 82.4851 616.875 83.6527C617.36 84.8203 617.489 86.1055 617.244 87.346C617 88.5866 616.393 89.7269 615.501 90.6231C614.906 91.2309 614.195 91.7137 613.41 92.0433C612.625 92.3729 611.783 92.5426 610.932 92.5426C610.08 92.5426 609.238 92.3729 608.453 92.0433C607.669 91.7137 606.957 91.2309 606.362 90.6231H606.43Z" fill="white"/>
<path d="M247.687 89.4989C248.718 88.468 249.428 87.161 249.732 85.7357C250.036 84.3104 249.922 82.8274 249.403 81.4655C248.884 80.1037 247.982 78.921 246.806 78.06C245.63 77.1991 244.23 76.6965 242.775 76.613C241.32 76.5295 239.872 76.8685 238.605 77.5893C237.338 78.31 236.307 79.3817 235.635 80.6752C234.963 81.9688 234.68 83.4289 234.819 84.8797C234.959 86.3305 235.515 87.7101 236.42 88.8522C235.91 89.2436 235.416 89.6521 234.922 90.0776C234.429 90.5031 233.527 91.286 232.846 91.9158C232.165 92.5455 231.484 93.1753 230.821 93.805C230.497 94.1284 230.174 94.4688 229.833 94.7922C229.666 94.9477 229.527 95.1322 229.425 95.3368C229.367 95.4553 229.327 95.5814 229.306 95.7112C229.278 95.8632 229.278 96.0188 229.306 96.1708C229.322 96.4454 229.438 96.7045 229.633 96.8989C229.827 97.0934 230.086 97.2098 230.361 97.226C230.513 97.2534 230.669 97.2534 230.821 97.226C230.95 97.2044 231.076 97.1643 231.195 97.1069C231.4 97.0045 231.584 96.8661 231.74 96.6984L232.727 95.7112C233.357 95.0475 234.003 94.3667 234.616 93.6859C235.229 93.0051 235.858 92.3072 236.454 91.6094C237.05 90.9116 237.288 90.6223 237.68 90.1117C239.133 91.254 240.955 91.8228 242.8 91.7098C244.645 91.5969 246.384 90.8101 247.687 89.4989V89.4989ZM238.122 88.3756C237.295 87.5367 236.735 86.4721 236.512 85.3157C236.288 84.1592 236.411 82.9625 236.866 81.876C237.321 80.7895 238.087 79.8616 239.067 79.209C240.048 78.5565 241.199 78.2083 242.377 78.2083C243.555 78.2083 244.706 78.5565 245.687 79.209C246.668 79.8616 247.433 80.7895 247.888 81.876C248.343 82.9625 248.466 84.1592 248.243 85.3157C248.019 86.4721 247.459 87.5367 246.632 88.3756C246.076 88.9396 245.414 89.3875 244.683 89.6932C243.953 89.9989 243.169 90.1563 242.377 90.1563C241.585 90.1563 240.801 89.9989 240.071 89.6932C239.34 89.3875 238.678 88.9396 238.122 88.3756V88.3756Z" fill="white"/>
<path d="M254.445 220.877C254.476 220.691 254.446 220.499 254.361 220.331C254.275 220.162 254.137 220.026 253.968 219.941C252.08 219.141 250.045 218.741 247.994 218.767C244.478 218.776 241.108 220.178 238.623 222.666C236.138 225.154 234.74 228.526 234.736 232.042C234.736 236.927 238.004 239.48 241.237 239.48C242.584 239.504 243.918 239.208 245.128 238.616C246.338 238.025 247.39 237.154 248.199 236.076C248.403 236.814 248.782 237.491 249.305 238.05C249.749 238.499 250.28 238.852 250.865 239.089C251.451 239.326 252.078 239.442 252.709 239.429C257.815 239.429 262.921 234.851 262.921 226.119C263.019 223.985 262.669 221.854 261.894 219.863C261.119 217.872 259.936 216.065 258.422 214.558C256.907 213.052 255.094 211.879 253.099 211.114C251.104 210.35 248.971 210.011 246.837 210.121C235.451 210.121 226.855 219.141 226.855 231.089C226.855 241.063 233.885 248.296 243.586 248.296C246.96 248.403 250.304 247.647 253.305 246.101C253.487 246.003 253.628 245.841 253.7 245.647C253.772 245.453 253.77 245.239 253.696 245.046L252.862 242.799C252.82 242.684 252.755 242.579 252.67 242.491C252.585 242.403 252.482 242.334 252.368 242.288C252.257 242.234 252.135 242.206 252.011 242.206C251.887 242.206 251.765 242.234 251.654 242.288C249.337 243.467 246.763 244.051 244.165 243.99C236.608 243.99 231.536 238.646 231.536 230.698C231.536 221.098 237.799 214.154 246.411 214.154C253.713 214.154 258.325 218.818 258.325 226.341C258.507 229.131 257.598 231.883 255.789 234.017C255.203 234.645 254.4 235.028 253.543 235.089C253.413 235.097 253.283 235.073 253.165 235.02C253.046 234.967 252.942 234.885 252.862 234.783C252.573 234.408 252.164 233.336 252.777 230.221L254.445 220.877ZM247.365 223.243C247.936 223.238 248.506 223.289 249.067 223.396L248.113 228.502C247.586 231.464 245.033 234.919 242.548 234.919C240.063 234.919 239.978 232.995 239.978 231.821C239.978 227.175 243.382 223.243 247.365 223.243Z" fill="white"/>
<path d="M479.806 40.2944C479.831 40.1817 479.816 40.0638 479.763 39.9612C479.71 39.8585 479.623 39.7777 479.517 39.7327C478.377 39.2444 477.148 39.0008 475.909 39.0179C473.779 39.0223 471.739 39.8702 470.233 41.3758C468.727 42.8813 467.88 44.9221 467.875 47.0513C467.819 47.6092 467.878 48.1727 468.048 48.707C468.218 49.2413 468.496 49.7351 468.864 50.1578C469.233 50.5805 469.684 50.9231 470.19 51.1646C470.696 51.406 471.246 51.5412 471.807 51.5616C472.621 51.5851 473.429 51.4135 474.163 51.0612C474.897 50.7088 475.537 50.186 476.028 49.5362C476.15 49.9808 476.378 50.3894 476.692 50.7276C476.962 51.0015 477.286 51.2169 477.643 51.3604C478 51.5038 478.383 51.5723 478.768 51.5616C481.832 51.5616 484.929 48.7873 484.929 43.4941C484.983 42.2022 484.767 40.9134 484.294 39.7096C483.822 38.5059 483.105 37.4137 482.187 36.5026C481.27 35.5915 480.173 34.8816 478.966 34.4179C477.759 33.9543 476.468 33.7472 475.177 33.8097C473.538 33.8126 471.916 34.1475 470.41 34.7942C468.904 35.4409 467.544 36.386 466.413 37.5726C465.282 38.7591 464.404 40.1625 463.83 41.698C463.256 43.2335 463 44.8693 463.076 46.5067C463.02 47.8575 463.24 49.2054 463.723 50.4681C464.206 51.7308 464.942 52.8816 465.885 53.8503C466.828 54.8189 467.959 55.585 469.209 56.1016C470.458 56.6182 471.8 56.8745 473.151 56.8548C475.196 56.9252 477.224 56.468 479.04 55.5273C479.153 55.4719 479.241 55.3771 479.288 55.261C479.335 55.1449 479.338 55.0155 479.296 54.8975L478.785 53.5359C478.761 53.4649 478.72 53.4004 478.667 53.3473C478.614 53.2942 478.55 53.254 478.479 53.2296C478.413 53.1966 478.34 53.1794 478.266 53.1794C478.192 53.1794 478.119 53.1966 478.053 53.2296C476.646 53.9424 475.086 54.2989 473.509 54.2678C472.461 54.3002 471.419 54.1108 470.449 53.7121C469.48 53.3134 468.606 52.7143 467.885 51.9542C467.163 51.1941 466.61 50.2901 466.263 49.3014C465.915 48.3128 465.78 47.2618 465.867 46.2173C465.867 40.4135 469.662 36.2096 474.87 36.2096C475.843 36.155 476.817 36.3098 477.725 36.6637C478.632 37.0177 479.454 37.5623 480.133 38.261C480.812 38.9596 481.334 39.796 481.662 40.7135C481.99 41.631 482.118 42.6082 482.036 43.5792C482.146 45.2679 481.597 46.9336 480.504 48.2257C480.331 48.4181 480.122 48.5744 479.888 48.6854C479.654 48.7964 479.401 48.86 479.142 48.8724C479.066 48.8792 478.988 48.8673 478.917 48.8376C478.846 48.808 478.783 48.7615 478.734 48.7022C478.547 48.481 478.308 47.8172 478.734 45.928L479.806 40.2944ZM475.534 41.724C475.866 41.7234 476.197 41.7576 476.521 41.8262L475.943 44.9408C475.619 46.7449 474.087 48.8384 472.539 48.8384C470.99 48.8384 470.956 47.647 470.956 46.9492C470.885 45.6528 471.325 44.3803 472.18 43.4038C473.036 42.4273 474.24 41.8244 475.534 41.724V41.724Z" fill="white"/>
<path d="M608.281 147.802C611.933 132.448 602.447 117.04 587.093 113.388C571.739 109.736 556.331 119.222 552.679 134.576C549.027 149.93 558.513 165.338 573.867 168.99C589.221 172.642 604.629 163.156 608.281 147.802Z" fill="#AE8DFF"/>
<path opacity="0.5" d="M608.281 147.802C611.933 132.448 602.447 117.04 587.093 113.388C571.739 109.736 556.331 119.222 552.679 134.576C549.027 149.93 558.513 165.338 573.867 168.99C589.221 172.642 604.629 163.156 608.281 147.802Z" fill="black"/>
<path d="M590.077 132.815C590.117 132.628 590.091 132.433 590.004 132.263C589.917 132.092 589.775 131.957 589.6 131.879C587.712 131.077 585.677 130.677 583.626 130.705C580.106 130.709 576.732 132.109 574.244 134.598C571.755 137.087 570.355 140.461 570.35 143.98C570.35 148.882 573.635 151.435 576.869 151.435C578.219 151.462 579.556 151.167 580.769 150.575C581.982 149.983 583.038 149.111 583.847 148.031C584.039 148.77 584.414 149.449 584.937 150.005C585.381 150.453 585.912 150.807 586.497 151.044C587.082 151.281 587.709 151.396 588.341 151.384C593.447 151.384 598.553 146.806 598.553 138.057C598.653 135.92 598.304 133.786 597.53 131.791C596.755 129.797 595.571 127.987 594.054 126.478C592.537 124.97 590.721 123.795 588.723 123.031C586.724 122.267 584.588 121.93 582.452 122.041C571.048 122.041 562.453 131.079 562.453 143.044C562.453 153.018 569.482 160.251 579.201 160.251C582.574 160.358 585.919 159.602 588.919 158.056C589.106 157.967 589.252 157.81 589.328 157.617C589.404 157.424 589.404 157.21 589.328 157.018L588.494 154.754C588.451 154.638 588.383 154.534 588.295 154.449C588.206 154.363 588.1 154.299 587.983 154.26C587.871 154.209 587.749 154.183 587.626 154.183C587.502 154.183 587.381 154.209 587.268 154.26C584.947 155.443 582.367 156.027 579.762 155.962C572.223 155.962 567.134 150.618 567.134 142.653C567.134 133.053 573.397 126.092 582.026 126.092C589.328 126.092 593.94 130.773 593.94 138.296C594.113 141.09 593.205 143.845 591.404 145.989C590.819 146.626 590.005 147.006 589.14 147.044C589.012 147.054 588.883 147.033 588.765 146.983C588.646 146.932 588.541 146.854 588.46 146.754C588.17 146.38 587.762 145.291 588.46 142.176L590.077 132.815ZM582.996 135.147C583.567 135.141 584.137 135.193 584.698 135.3L583.745 140.406C583.218 143.384 580.665 146.84 578.18 146.84C575.695 146.84 575.559 144.882 575.559 143.708C575.507 139.112 578.946 135.147 582.996 135.147Z" fill="white"/>
<path d="M291.24 143.657C291.24 143.657 291.24 143.657 291.24 143.555C291.248 142.637 291.18 141.721 291.036 140.815C290.363 136.71 288.276 132.97 285.137 130.242C281.998 127.513 278.004 125.967 273.846 125.871H272.961C272.168 125.895 271.378 125.969 270.595 126.092C266.443 126.772 262.665 128.901 259.933 132.1C257.2 135.3 255.69 139.364 255.669 143.572C255.669 143.572 255.669 143.572 255.669 143.657C255.669 143.742 255.669 143.657 255.669 143.776C255.661 144.694 255.729 145.61 255.873 146.516C256.556 150.679 258.692 154.466 261.901 157.204C265.11 159.943 269.185 161.456 273.403 161.477H273.488C278.198 161.45 282.707 159.561 286.029 156.223C289.352 152.884 291.219 148.367 291.223 143.657C291.223 143.657 291.24 143.657 291.24 143.657ZM286.56 150.703H283.445C283.922 148.872 284.201 146.995 284.279 145.104H288.262C288.064 147.042 287.486 148.921 286.56 150.635V150.703ZM260.298 136.628H263.413C262.95 138.462 262.676 140.338 262.596 142.227H258.698C258.843 140.249 259.388 138.321 260.298 136.56V136.628ZM281.318 141.172C281.318 141.529 281.318 141.87 281.318 142.227H274.816V136.628H280.365C280.828 138.085 281.147 139.584 281.318 141.104V141.172ZM274.884 133.734V129.02C275.307 129.169 275.708 129.375 276.076 129.632C277.487 130.704 278.606 132.115 279.326 133.734H274.884ZM271.991 129.02V133.734H267.531C268.348 131.627 269.945 129.914 271.991 128.952V129.02ZM271.991 136.628V142.227H265.506C265.61 140.331 265.93 138.452 266.459 136.628H271.991ZM258.715 146.057C258.664 145.741 258.63 145.423 258.613 145.104H262.596C262.596 145.546 262.596 145.972 262.681 146.414C262.81 147.862 263.06 149.297 263.43 150.703H260.298C259.501 149.234 258.96 147.64 258.698 145.989L258.715 146.057ZM265.523 146.159C265.523 145.802 265.523 145.461 265.523 145.104H272.025V150.703H266.476C265.998 149.202 265.673 147.657 265.506 146.091L265.523 146.159ZM271.957 153.597V158.294C271.533 158.155 271.131 157.954 270.765 157.698C269.353 156.627 268.235 155.216 267.514 153.597H271.957ZM274.85 158.294V153.529H279.309C278.485 155.6 276.903 157.28 274.884 158.226L274.85 158.294ZM274.85 150.703V145.104H281.335C281.245 147.001 280.93 148.88 280.399 150.703H274.85ZM284.245 142.193C284.245 141.751 284.245 141.308 284.16 140.883C284.024 139.435 283.774 138.001 283.411 136.594H286.543C287.322 138.045 287.857 139.615 288.126 141.24C288.126 141.564 288.126 141.87 288.228 142.193H284.245ZM284.517 133.683H282.526C282.121 132.674 281.631 131.7 281.062 130.773C281.437 131.011 281.828 131.249 282.186 131.522C283.051 132.147 283.844 132.867 284.551 133.666L284.517 133.683ZM265.795 130.79C265.23 131.713 264.74 132.681 264.332 133.683H262.272C263.305 132.54 264.504 131.559 265.829 130.773L265.795 130.79ZM262.289 153.546H264.349C264.753 154.559 265.248 155.533 265.829 156.456C264.518 155.665 263.335 154.678 262.323 153.529L262.289 153.546ZM281.011 156.439C281.577 155.516 282.066 154.548 282.475 153.546H284.517C283.509 154.672 282.339 155.641 281.045 156.422L281.011 156.439Z" fill="white"/>
<path d="M574.71 53.7908C574.697 53.2214 574.651 52.6531 574.574 52.0888C574.145 49.4365 572.799 47.0185 570.772 45.2554C568.744 43.4923 566.163 42.4955 563.477 42.4385H562.898C562.391 42.4508 561.885 42.4963 561.383 42.5746C558.703 43.0132 556.264 44.3874 554.501 46.4531C552.737 48.5189 551.763 51.1427 551.75 53.8589C551.75 53.8589 551.75 53.8589 551.75 53.8589C551.749 54.429 551.795 54.9982 551.886 55.5609C552.292 58.2739 553.654 60.7527 555.726 62.5503C557.798 64.3479 560.444 65.3459 563.187 65.3644C563.798 65.3641 564.407 65.3129 565.009 65.2112C567.688 64.7736 570.126 63.4026 571.892 61.3406C573.658 59.2787 574.638 56.6588 574.659 53.944L574.71 53.7908ZM571.697 58.3352H569.689C569.991 57.1484 570.168 55.9334 570.217 54.7099H572.787C572.672 55.9793 572.301 57.2124 571.697 58.3352ZM554.677 49.2465H556.686C556.392 50.4291 556.216 51.6376 556.158 52.8547H553.656C553.774 51.5911 554.144 50.364 554.746 49.2465H554.677ZM568.293 52.1739C568.293 52.4122 568.293 52.6335 568.293 52.8547H564.107V49.2465H567.681C567.986 50.1994 568.197 51.1799 568.31 52.1739H568.293ZM564.141 47.3743V44.3277C564.412 44.4306 564.67 44.5679 564.906 44.7362C565.817 45.4231 566.538 46.3311 567 47.3743H564.141ZM562.268 44.3447V47.3743H559.392C559.933 46.031 560.968 44.9465 562.285 44.3447H562.268ZM562.268 49.2465V52.8547H558.081C558.147 51.6325 558.352 50.4218 558.694 49.2465H562.268ZM553.758 55.3226C553.758 55.1184 553.758 54.9141 553.758 54.7099H556.328V55.5609C556.419 56.4972 556.584 57.4249 556.822 58.3352H554.797C554.27 57.3995 553.907 56.3806 553.724 55.3226H553.758ZM558.184 55.3226C558.184 55.1014 558.184 54.8801 558.184 54.6418H562.371V58.2671H558.796C558.484 57.3327 558.267 56.3689 558.15 55.3907L558.184 55.3226ZM562.285 60.2584V63.305C562.017 63.2018 561.76 63.0706 561.52 62.9135C560.61 62.2186 559.889 61.3054 559.426 60.2584H562.285ZM564.158 63.305V60.2584H567.034C566.484 61.5776 565.457 62.641 564.158 63.2369V63.305ZM564.158 58.4032V54.7099H568.345C568.285 55.9371 568.085 57.1534 567.749 58.3352L564.158 58.4032ZM570.166 52.8547V52.0037C570.073 51.0744 569.914 50.1529 569.689 49.2465H571.697C572.211 50.1773 572.557 51.1913 572.719 52.242C572.719 52.4462 572.719 52.6505 572.719 52.8547H570.166ZM570.353 47.3743H569.008C568.751 46.7242 568.438 46.0977 568.072 45.5021L568.804 45.9786C569.385 46.3862 569.921 46.854 570.404 47.3743H570.353ZM558.252 45.5191C557.88 46.1084 557.561 46.7292 557.299 47.3743H555.971C556.631 46.6421 557.4 46.0163 558.252 45.5191V45.5191ZM556.056 60.2584H557.384C557.646 60.9145 557.965 61.5466 558.337 62.1476C557.484 61.6383 556.715 61.0012 556.056 60.2584V60.2584ZM568.14 62.1306C568.503 61.5332 568.816 60.907 569.076 60.2584H570.404C569.745 60.9706 568.982 61.5788 568.14 62.0625V62.1306Z" fill="white"/>
<path d="M687.211 233.511C690.863 218.157 681.377 202.749 666.023 199.097C650.669 195.445 635.261 204.931 631.609 220.285C627.957 235.639 637.443 251.047 652.797 254.699C668.151 258.351 683.559 248.865 687.211 233.511Z" fill="#AE8DFF"/>
<path d="M672.882 214.257H645.973C644.619 214.257 643.32 214.795 642.363 215.752C641.405 216.71 640.867 218.009 640.867 219.363V233.251C640.867 234.605 641.405 235.904 642.363 236.862C643.32 237.819 644.619 238.357 645.973 238.357H665.716L665.58 243.208L670.567 238.357H672.882C674.236 238.357 675.535 237.819 676.492 236.862C677.45 235.904 677.988 234.605 677.988 233.251V219.397C677.992 218.723 677.864 218.056 677.609 217.432C677.354 216.809 676.979 216.242 676.504 215.764C676.03 215.287 675.465 214.907 674.844 214.649C674.222 214.39 673.555 214.257 672.882 214.257V214.257ZM645.36 220.248C645.365 219.867 645.519 219.504 645.79 219.236C646.061 218.968 646.426 218.818 646.807 218.818H652.985C653.365 218.818 653.728 218.969 653.996 219.237C654.264 219.505 654.415 219.869 654.415 220.248C654.415 220.627 654.264 220.991 653.996 221.259C653.728 221.527 653.365 221.678 652.985 221.678H646.756C646.384 221.664 646.032 221.509 645.772 221.242C645.512 220.976 645.365 220.62 645.36 220.248V220.248ZM671.35 233.694H660.644C660.445 233.716 660.243 233.695 660.051 233.634C659.86 233.572 659.684 233.471 659.534 233.337C659.385 233.203 659.265 233.039 659.183 232.855C659.101 232.672 659.059 232.473 659.059 232.273C659.059 232.072 659.101 231.873 659.183 231.69C659.265 231.506 659.385 231.342 659.534 231.208C659.684 231.074 659.86 230.973 660.051 230.911C660.243 230.85 660.445 230.829 660.644 230.851H671.35C671.55 230.829 671.752 230.85 671.943 230.911C672.134 230.973 672.31 231.074 672.46 231.208C672.61 231.342 672.729 231.506 672.811 231.69C672.893 231.873 672.935 232.072 672.935 232.273C672.935 232.473 672.893 232.672 672.811 232.855C672.729 233.039 672.61 233.203 672.46 233.337C672.31 233.471 672.134 233.572 671.943 233.634C671.752 233.695 671.55 233.716 671.35 233.694ZM671.35 227.686H648.237C647.887 227.647 647.563 227.481 647.328 227.219C647.093 226.956 646.963 226.617 646.963 226.264C646.963 225.912 647.093 225.572 647.328 225.31C647.563 225.048 647.887 224.882 648.237 224.843H671.35C671.55 224.821 671.752 224.842 671.943 224.903C672.134 224.965 672.31 225.066 672.46 225.2C672.61 225.334 672.729 225.498 672.811 225.682C672.893 225.865 672.935 226.064 672.935 226.264C672.935 226.465 672.893 226.664 672.811 226.847C672.729 227.031 672.61 227.195 672.46 227.329C672.31 227.463 672.134 227.564 671.943 227.626C671.752 227.687 671.55 227.708 671.35 227.686ZM671.35 221.678H657.734C657.355 221.678 656.991 221.527 656.723 221.259C656.455 220.991 656.304 220.627 656.304 220.248C656.304 219.869 656.455 219.505 656.723 219.237C656.991 218.969 657.355 218.818 657.734 218.818H671.35C671.729 218.818 672.093 218.969 672.361 219.237C672.629 219.505 672.78 219.869 672.78 220.248C672.78 220.627 672.629 220.991 672.361 221.259C672.093 221.527 671.729 221.678 671.35 221.678Z" fill="white"/>
<path d="M207.213 149.886H187.912C186.934 149.89 185.997 150.281 185.305 150.972C184.614 151.664 184.223 152.601 184.219 153.579V163.553C184.223 164.531 184.614 165.468 185.305 166.159C185.997 166.851 186.934 167.242 187.912 167.246H202.073L201.971 170.65L205.545 167.246H207.247C208.225 167.242 209.162 166.851 209.853 166.159C210.545 165.468 210.936 164.531 210.94 163.553V153.579C210.938 153.092 210.84 152.61 210.651 152.161C210.463 151.711 210.188 151.303 209.841 150.96C209.495 150.618 209.085 150.346 208.634 150.162C208.183 149.977 207.7 149.884 207.213 149.886ZM187.47 154.141C187.47 153.865 187.579 153.601 187.774 153.407C187.968 153.212 188.232 153.103 188.508 153.103H192.95C193.2 153.135 193.43 153.257 193.597 153.447C193.764 153.636 193.856 153.88 193.856 154.132C193.856 154.385 193.764 154.628 193.597 154.818C193.43 155.007 193.2 155.13 192.95 155.162H188.508C188.235 155.162 187.974 155.055 187.78 154.864C187.585 154.673 187.474 154.413 187.47 154.141V154.141ZM206.192 163.774H198.499C198.355 163.793 198.208 163.781 198.069 163.738C197.93 163.696 197.802 163.624 197.693 163.529C197.584 163.433 197.496 163.315 197.437 163.182C197.377 163.05 197.346 162.907 197.346 162.761C197.346 162.616 197.377 162.473 197.437 162.34C197.496 162.208 197.584 162.09 197.693 161.994C197.802 161.898 197.93 161.827 198.069 161.785C198.208 161.742 198.355 161.73 198.499 161.749H206.192C206.336 161.73 206.482 161.742 206.621 161.785C206.76 161.827 206.888 161.898 206.997 161.994C207.106 162.09 207.194 162.208 207.253 162.34C207.313 162.473 207.344 162.616 207.344 162.761C207.344 162.907 207.313 163.05 207.253 163.182C207.194 163.315 207.106 163.433 206.997 163.529C206.888 163.624 206.76 163.696 206.621 163.738C206.482 163.781 206.336 163.793 206.192 163.774V163.774ZM206.192 159.468H189.614C189.343 159.468 189.084 159.36 188.892 159.169C188.7 158.977 188.593 158.718 188.593 158.447C188.593 158.176 188.7 157.916 188.892 157.725C189.084 157.533 189.343 157.426 189.614 157.426H206.192C206.462 157.426 206.722 157.533 206.914 157.725C207.105 157.916 207.213 158.176 207.213 158.447C207.213 158.718 207.105 158.977 206.914 159.169C206.722 159.36 206.462 159.468 206.192 159.468V159.468ZM206.192 155.162H196.371C196.121 155.13 195.891 155.007 195.724 154.818C195.557 154.628 195.465 154.385 195.465 154.132C195.465 153.88 195.557 153.636 195.724 153.447C195.891 153.257 196.121 153.135 196.371 153.103H206.192C206.442 153.135 206.672 153.257 206.839 153.447C207.005 153.636 207.097 153.88 207.097 154.132C207.097 154.385 207.005 154.628 206.839 154.818C206.672 155.007 206.442 155.13 206.192 155.162Z" fill="white"/>
<path d="M371.965 31.7684H356.324C355.536 31.7727 354.782 32.085 354.222 32.6385C353.662 33.192 353.341 33.9427 353.328 34.7298V42.7973C353.333 43.5904 353.65 44.3497 354.21 44.9105C354.771 45.4713 355.531 45.7884 356.324 45.7928H367.795V48.6182L370.706 45.7928H372.05C372.843 45.7884 373.603 45.4713 374.163 44.9105C374.724 44.3497 375.041 43.5904 375.046 42.7973V34.7298C375.039 34.3327 374.954 33.9409 374.795 33.5768C374.637 33.2127 374.408 32.8836 374.121 32.6083C373.835 32.3331 373.497 32.1172 373.127 31.973C372.757 31.8289 372.362 31.7593 371.965 31.7684ZM355.966 35.1724C355.966 34.9512 356.054 34.739 356.21 34.5826C356.367 34.4262 356.579 34.3384 356.8 34.3384H360.408C360.517 34.3383 360.625 34.36 360.725 34.4022C360.825 34.4443 360.916 34.506 360.992 34.5836C361.068 34.6613 361.128 34.7534 361.168 34.8545C361.208 34.9556 361.228 35.0636 361.225 35.1724C361.225 35.3906 361.14 35.6002 360.987 35.7561C360.834 35.9121 360.627 36.0019 360.408 36.0063H356.8C356.586 36.0024 356.381 35.9179 356.227 35.7696C356.072 35.6213 355.979 35.4202 355.966 35.2064V35.1724ZM371.029 43.0186H364.8C364.574 43.0186 364.357 42.9289 364.198 42.7693C364.038 42.6097 363.949 42.3933 363.949 42.1676C363.949 41.9419 364.038 41.7254 364.198 41.5658C364.357 41.4062 364.574 41.3166 364.8 41.3166H371.029C371.255 41.3166 371.471 41.4062 371.631 41.5658C371.79 41.7254 371.88 41.9419 371.88 42.1676C371.88 42.3933 371.79 42.6097 371.631 42.7693C371.471 42.9289 371.255 43.0186 371.029 43.0186ZM371.029 39.5295H357.583C357.365 39.525 357.157 39.4352 357.004 39.2793C356.852 39.1234 356.766 38.9138 356.766 38.6955C356.766 38.5882 356.787 38.482 356.828 38.3829C356.869 38.2837 356.93 38.1937 357.005 38.1178C357.081 38.0419 357.171 37.9818 357.27 37.9407C357.37 37.8997 357.476 37.8785 357.583 37.8785H371.029C371.137 37.8762 371.244 37.8958 371.344 37.936C371.444 37.9762 371.535 38.0363 371.612 38.1126C371.688 38.189 371.748 38.28 371.788 38.3801C371.829 38.4803 371.848 38.5876 371.846 38.6955C371.848 38.8042 371.829 38.9123 371.789 39.0134C371.749 39.1145 371.689 39.2065 371.613 39.2842C371.537 39.3619 371.446 39.4236 371.346 39.4657C371.245 39.5078 371.138 39.5295 371.029 39.5295V39.5295ZM371.029 36.1255H363.064C362.845 36.121 362.638 36.0312 362.485 35.8753C362.332 35.7194 362.247 35.5098 362.247 35.2915C362.244 35.1828 362.264 35.0747 362.304 34.9736C362.344 34.8725 362.404 34.7805 362.48 34.7028C362.556 34.6251 362.647 34.5634 362.747 34.5213C362.847 34.4792 362.955 34.4575 363.064 34.4575H371.029C371.138 34.4575 371.245 34.4792 371.346 34.5213C371.446 34.5634 371.537 34.6251 371.613 34.7028C371.689 34.7805 371.749 34.8725 371.789 34.9736C371.829 35.0747 371.848 35.1828 371.846 35.2915C371.825 35.4947 371.73 35.6832 371.58 35.8213C371.429 35.9593 371.233 36.0373 371.029 36.0404V36.1255Z" fill="white"/>
<path d="M347.194 102.158C355.615 93.7371 355.616 80.0833 347.194 71.6619C338.773 63.2405 325.119 63.2405 316.698 71.6619C308.276 80.0833 308.276 93.7371 316.698 102.158C325.119 110.58 338.773 110.58 347.194 102.158Z" fill="#AE8DFF"/>
<path opacity="0.4" d="M347.194 102.158C355.615 93.7371 355.616 80.0833 347.194 71.6619C338.773 63.2405 325.119 63.2405 316.698 71.6619C308.276 80.0833 308.276 93.7371 316.698 102.158C325.119 110.58 338.773 110.58 347.194 102.158Z" fill="black"/>
<path d="M335.285 83.3376C330.179 81.7888 326.997 76.2232 326.997 76.2232C326.997 76.2232 325.295 76.1211 325.295 77.5848C325.271 78.5678 325.448 79.5453 325.814 80.4581C326.179 81.3708 326.727 82.1999 327.422 82.8951L324.971 82.7589C324.094 82.7126 323.215 82.8045 322.367 83.0312L321.55 83.2525C320.872 83.4403 320.294 83.8847 319.938 84.4916C319.582 85.0984 319.477 85.8199 319.644 86.5033L320.818 91.2689C321.164 92.7103 322.037 93.9696 323.266 94.7983C324.495 95.6271 325.99 95.9649 327.456 95.7451C329.958 95.3877 333.856 94.8091 334.519 94.6899L336.306 94.5367L336.919 83.8312L335.285 83.3376Z" fill="white"/>
<path d="M343.32 81.8574H336.427C335.891 81.8574 335.457 82.2918 335.457 82.8276V95.0139C335.457 95.5497 335.891 95.984 336.427 95.984H343.32C343.856 95.984 344.29 95.5497 344.29 95.0139V82.8276C344.29 82.2918 343.856 81.8574 343.32 81.8574Z" fill="#AE8DFF"/>
<path opacity="0.4" d="M343.32 81.8574H336.427C335.891 81.8574 335.457 82.2918 335.457 82.8276V95.0139C335.457 95.5497 335.891 95.984 336.427 95.984H343.32C343.856 95.984 344.29 95.5497 344.29 95.0139V82.8276C344.29 82.2918 343.856 81.8574 343.32 81.8574Z" fill="white"/>
<path d="M434.106 62.4199H410.551C409.416 62.4288 408.33 62.8836 407.528 63.686C406.725 64.4884 406.271 65.5742 406.262 66.709V81.176C406.266 82.3121 406.72 83.4004 407.523 84.2038C408.326 85.0072 409.415 85.4605 410.551 85.465H434.106C435.244 85.465 436.335 85.0131 437.139 84.2088C437.944 83.4044 438.395 82.3135 438.395 81.176V66.709C438.391 65.5728 437.938 64.4845 437.134 63.6811C436.331 62.8777 435.243 62.4244 434.106 62.4199V62.4199ZM418.584 80.0016V67.9004L429.051 73.8744L418.584 80.0016Z" fill="white"/>
<path d="M655.926 180.062C665.458 180.062 673.185 172.336 673.185 162.804C673.185 153.273 665.458 145.546 655.926 145.546C646.395 145.546 638.668 153.273 638.668 162.804C638.668 172.336 646.395 180.062 655.926 180.062Z" fill="#AE8DFF"/>
<path opacity="0.2" d="M655.926 180.062C665.458 180.062 673.185 172.336 673.185 162.804C673.185 153.273 665.458 145.546 655.926 145.546C646.395 145.546 638.668 153.273 638.668 162.804C638.668 172.336 646.395 180.062 655.926 180.062Z" fill="black"/>
<path d="M663.401 155.809H649.104C648.415 155.813 647.755 156.089 647.268 156.576C646.78 157.064 646.504 157.723 646.5 158.413V167.195C646.504 167.884 646.78 168.544 647.268 169.031C647.755 169.519 648.415 169.795 649.104 169.799H663.401C664.09 169.795 664.75 169.519 665.237 169.031C665.725 168.544 666 167.884 666.005 167.195V158.413C666 157.723 665.725 157.064 665.237 156.576C664.75 156.089 664.09 155.813 663.401 155.809ZM653.972 166.48V159.145L660.32 162.804L653.972 166.48Z" fill="white"/>
<path d="M273.646 324.851H259.349C258.661 324.855 258.003 325.131 257.518 325.619C257.034 326.107 256.762 326.767 256.762 327.455V336.237C256.762 336.577 256.829 336.913 256.959 337.227C257.089 337.541 257.279 337.826 257.519 338.066C257.76 338.307 258.045 338.497 258.359 338.627C258.673 338.757 259.009 338.824 259.349 338.824H273.646C274.333 338.824 274.993 338.552 275.481 338.067C275.969 337.583 276.245 336.925 276.25 336.237V327.472C276.25 326.779 275.976 326.115 275.488 325.624C275 325.133 274.338 324.855 273.646 324.851V324.851ZM264.216 335.522V328.169L270.582 331.846L264.216 335.522Z" fill="white"/>
<path d="M606.057 251.518C614.479 243.096 614.479 229.443 606.057 221.021C597.636 212.6 583.982 212.6 575.561 221.021C567.139 229.443 567.139 243.096 575.561 251.518C583.982 259.939 597.636 259.939 606.057 251.518Z" fill="#AE8DFF"/>
<path opacity="0.2" d="M606.057 251.518C614.479 243.096 614.479 229.443 606.057 221.021C597.636 212.6 583.982 212.6 575.561 221.021C567.139 229.443 567.139 243.096 575.561 251.518C583.982 259.939 597.636 259.939 606.057 251.518Z" fill="white"/>
<path d="M590.811 223.224C587.659 223.241 584.621 224.412 582.273 226.516C579.925 228.619 578.428 231.51 578.066 234.642C577.704 237.774 578.501 240.93 580.306 243.514C582.112 246.098 584.801 247.932 587.867 248.669L590.811 252.413L593.756 248.669C596.85 247.962 599.575 246.139 601.407 243.547C603.24 240.956 604.052 237.78 603.687 234.627C603.322 231.474 601.806 228.567 599.43 226.462C597.054 224.358 593.985 223.205 590.811 223.224V223.224ZM590.811 241.486C589.747 241.486 588.708 241.171 587.823 240.58C586.939 239.989 586.249 239.149 585.842 238.166C585.435 237.183 585.329 236.102 585.536 235.059C585.744 234.015 586.256 233.057 587.008 232.305C587.76 231.553 588.719 231.041 589.762 230.833C590.805 230.626 591.887 230.732 592.869 231.139C593.852 231.546 594.692 232.235 595.283 233.12C595.874 234.004 596.19 235.044 596.19 236.108C596.192 236.815 596.054 237.515 595.785 238.169C595.515 238.822 595.119 239.416 594.619 239.916C594.119 240.416 593.526 240.812 592.872 241.081C592.219 241.351 591.518 241.489 590.811 241.486V241.486Z" fill="white"/>
<path d="M516.213 73.8749C512.992 73.793 509.857 74.9195 507.425 77.0327C504.992 79.1458 503.439 82.0928 503.069 85.2937C502.7 88.4947 503.542 91.7179 505.43 94.3293C507.317 96.9407 510.114 98.7513 513.269 99.4049L516.213 103.149L519.107 99.4049C522.296 98.7945 525.137 97.0024 527.062 94.387C528.987 91.7717 529.853 88.526 529.487 85.2994C529.122 82.0729 527.551 79.1034 525.09 76.9851C522.629 74.8668 519.458 73.756 516.213 73.8749V73.8749ZM516.213 92.1373C515.15 92.1373 514.11 91.8219 513.225 91.2309C512.341 90.6399 511.652 89.8 511.244 88.8172C510.837 87.8344 510.731 86.753 510.938 85.7097C511.146 84.6664 511.658 83.7081 512.41 82.9559C513.162 82.2038 514.121 81.6915 515.164 81.484C516.207 81.2765 517.289 81.383 518.272 81.7901C519.254 82.1972 520.094 82.8865 520.685 83.771C521.276 84.6554 521.592 85.6953 521.592 86.759C521.603 87.4716 521.472 88.1793 521.207 88.8408C520.941 89.5022 520.547 90.1041 520.046 90.6112C519.545 91.1183 518.948 91.5205 518.29 91.7943C517.632 92.068 516.926 92.2077 516.213 92.2054V92.1373Z" fill="white"/>
<path d="M667.606 264.635C574.473 259.989 514.852 293.807 478.888 330.571C521.762 232.535 621.942 169.493 621.942 169.493C539.105 191.007 491.739 237.386 464.983 282.251C495.5 173.153 573.213 85.0231 573.213 85.0231C501.729 130.977 467.196 189.917 450.499 240.96C457.682 126.739 488.369 73.875 488.369 73.875C488.369 73.875 431.13 93.5161 425.599 260.295C420.084 93.5842 362.846 73.875 362.846 73.875C362.846 73.875 393.482 126.637 400.699 240.892C384.002 189.832 349.417 130.858 278.001 84.955C278.001 84.955 355.698 173.085 386.232 282.183C359.476 237.318 312.11 190.939 229.273 169.425C229.273 169.425 329.453 232.399 372.241 330.503C336.278 293.739 276.657 259.921 183.523 264.567C183.523 264.567 400.409 304.973 389.67 483.427C386.266 540.989 373.228 578.739 363.442 615.451H481.016C484.42 576.51 470.259 521.841 462.651 481.521C438.296 309.228 667.606 264.635 667.606 264.635Z" fill="#AE8DFF"/>
<path opacity="0.5" d="M667.606 264.635C574.473 259.989 514.852 293.807 478.888 330.571C521.762 232.535 621.942 169.493 621.942 169.493C539.105 191.007 491.739 237.386 464.983 282.251C495.5 173.153 573.213 85.0231 573.213 85.0231C501.729 130.977 467.196 189.917 450.499 240.96C457.682 126.739 488.369 73.875 488.369 73.875C488.369 73.875 431.13 93.5161 425.599 260.295C420.084 93.5842 362.846 73.875 362.846 73.875C362.846 73.875 393.482 126.637 400.699 240.892C384.002 189.832 349.417 130.858 278.001 84.955C278.001 84.955 355.698 173.085 386.232 282.183C359.476 237.318 312.11 190.939 229.273 169.425C229.273 169.425 329.453 232.399 372.241 330.503C336.278 293.739 276.657 259.921 183.523 264.567C183.523 264.567 400.409 304.973 389.67 483.427C386.266 540.989 373.228 578.739 363.442 615.451H481.016C484.42 576.51 470.259 521.841 462.651 481.521C438.296 309.228 667.606 264.635 667.606 264.635Z" fill="white"/>
<path d="M656.706 344.903C667.866 333.743 667.866 315.649 656.706 304.49C645.546 293.33 627.452 293.33 616.293 304.49C605.133 315.649 605.133 333.743 616.293 344.903C627.452 356.063 645.546 356.063 656.706 344.903Z" fill="#AE8DFF"/>
<path opacity="0.5" d="M656.706 344.903C667.866 333.743 667.866 315.649 656.706 304.49C645.546 293.33 627.452 293.33 616.293 304.49C605.133 315.649 605.133 333.743 616.293 344.903C627.452 356.063 645.546 356.063 656.706 344.903Z" fill="white"/>
<path d="M641.085 319.626C634.141 317.499 629.835 309.942 629.835 309.942C629.835 309.942 627.639 309.823 627.537 311.814C627.508 313.138 627.748 314.454 628.242 315.683C628.737 316.912 629.475 318.028 630.413 318.962L627.009 318.775C625.817 318.704 624.621 318.83 623.469 319.15L622.363 319.439C621.447 319.698 620.666 320.302 620.184 321.123C619.702 321.945 619.556 322.921 619.776 323.847L621.376 330.332C621.847 332.286 623.032 333.993 624.699 335.117C626.365 336.241 628.391 336.702 630.379 336.408C633.783 335.914 639.077 335.148 639.996 334.978L642.413 334.774L643.247 320.222L641.085 319.626Z" fill="white"/>
<path d="M651.945 317.618H642.601C641.868 317.618 641.273 318.213 641.273 318.946V335.472C641.273 336.205 641.868 336.8 642.601 336.8H651.945C652.678 336.8 653.273 336.205 653.273 335.472V318.946C653.273 318.213 652.678 317.618 651.945 317.618Z" fill="#AE8DFF"/>
<path opacity="0.3" d="M651.945 317.618H642.601C641.868 317.618 641.273 318.213 641.273 318.946V335.472C641.273 336.205 641.868 336.8 642.601 336.8H651.945C652.678 336.8 653.273 336.205 653.273 335.472V318.946C653.273 318.213 652.678 317.618 651.945 317.618Z" fill="black"/>
<path d="M197.815 238.899C200.567 227.312 193.405 215.687 181.818 212.935C170.23 210.183 158.606 217.346 155.854 228.933C153.102 240.521 160.264 252.145 171.852 254.897C183.439 257.649 195.063 250.486 197.815 238.899Z" fill="#AE8DFF"/>
<path opacity="0.1" d="M197.815 238.899C200.567 227.312 193.405 215.687 181.818 212.935C170.23 210.183 158.606 217.346 155.854 228.933C153.102 240.521 160.264 252.145 171.852 254.897C183.439 257.649 195.063 250.486 197.815 238.899Z" fill="white"/>
<path d="M179.373 230.289C174.267 228.723 171.102 223.157 171.102 223.157C171.102 223.157 169.4 223.072 169.4 224.536C169.374 225.519 169.55 226.497 169.916 227.41C170.282 228.323 170.83 229.152 171.527 229.846L169.076 229.71C168.199 229.654 167.319 229.746 166.472 229.982L165.655 230.203C164.978 230.388 164.401 230.829 164.044 231.433C163.688 232.037 163.582 232.756 163.749 233.437L164.923 238.22C165.106 238.976 165.436 239.688 165.894 240.316C166.353 240.944 166.931 241.475 167.595 241.879C168.783 242.602 170.184 242.891 171.561 242.696C174.063 242.322 177.961 241.76 178.624 241.641L180.326 241.488L180.922 230.765L179.373 230.289Z" fill="white"/>
<path d="M187.383 228.808H180.49C179.954 228.808 179.52 229.242 179.52 229.778V241.964C179.52 242.5 179.954 242.934 180.49 242.934H187.383C187.919 242.934 188.353 242.5 188.353 241.964V229.778C188.353 229.242 187.919 228.808 187.383 228.808Z" fill="#AE8DFF"/>
<path opacity="0.4" d="M187.383 228.808H180.49C179.954 228.808 179.52 229.242 179.52 229.778V241.964C179.52 242.5 179.954 242.934 180.49 242.934H187.383C187.919 242.934 188.353 242.5 188.353 241.964V229.778C188.353 229.242 187.919 228.808 187.383 228.808Z" fill="black"/>
<path d="M353.026 485.623C352.754 487.053 352.533 488.074 352.26 489.265L351.392 492.669C350.797 494.916 350.167 497.112 349.503 499.307C348.124 503.664 346.627 507.97 344.959 512.191C343.291 516.412 341.555 520.565 339.699 524.684C338.78 526.743 337.793 528.786 336.806 530.811L336.057 532.326L335.649 533.177C335.427 533.602 335.223 534.028 334.985 534.402C334.105 535.916 333.029 537.306 331.785 538.538C329.644 540.617 327.185 542.341 324.501 543.644C322.167 544.792 319.742 545.743 317.25 546.487C312.646 547.828 307.929 548.746 303.158 549.227C294.043 550.18 284.853 550.18 275.738 549.227L275.891 540.632C280.044 540.189 284.401 539.713 288.588 538.93C292.775 538.147 296.979 537.5 301.03 536.564C304.957 535.669 308.809 534.474 312.553 532.99C315.601 531.925 318.366 530.179 320.637 527.884C320.936 527.542 321.182 527.157 321.369 526.743L322.305 524.344C323.088 522.352 323.837 520.344 324.603 518.336C326.135 514.336 327.53 510.285 328.909 506.251C330.287 502.218 331.581 498.167 332.772 494.116C333.402 492.108 333.981 490.082 334.474 488.074L335.257 485.061L335.938 482.287L353.026 485.623Z" fill="#E4897B"/>
<path d="M341.419 464.264C334.611 465.966 329.777 494.202 329.777 494.202L348.653 507.035C348.653 507.035 366.762 478.595 361.486 471.072C356.005 463.226 351.427 461.728 341.419 464.264Z" fill="#AE8DFF"/>
<path opacity="0.6" d="M341.419 464.264C334.611 465.966 329.777 494.202 329.777 494.202L348.653 507.035C348.653 507.035 366.762 478.595 361.486 471.072C356.005 463.226 351.427 461.728 341.419 464.264Z" fill="black"/>
<path opacity="0.4" d="M340.804 474.51L355.458 477.914L356.87 492.245C354.384 497.311 351.64 502.248 348.65 507.035L337.195 499.257C337.689 492.67 338.931 478.952 340.804 474.51Z" fill="black"/>
<path d="M350.713 504.481C350.629 504.504 350.541 504.504 350.458 504.481L330.34 490.865C330.242 490.796 330.175 490.692 330.153 490.574C330.13 490.457 330.155 490.335 330.221 490.235C330.287 490.138 330.388 490.071 330.503 490.049C330.617 490.027 330.736 490.051 330.834 490.116L350.968 503.732C351.066 503.801 351.133 503.905 351.156 504.023C351.178 504.14 351.153 504.262 351.087 504.362C351.038 504.408 350.978 504.443 350.914 504.463C350.849 504.484 350.78 504.49 350.713 504.481V504.481Z" fill="white"/>
<path d="M341.419 464.262C341.419 464.262 333.59 467.036 349.367 564.578H416.869C415.728 537.108 415.694 520.156 428.783 463.785C419.333 461.832 409.754 460.569 400.121 460.007C389.922 459.275 379.684 459.275 369.485 460.007C356.346 461.215 341.419 464.262 341.419 464.262Z" fill="#AE8DFF"/>
<path opacity="0.6" d="M341.419 464.262C341.419 464.262 333.59 467.036 349.367 564.578H416.869C415.728 537.108 415.694 520.156 428.783 463.785C419.333 461.832 409.754 460.569 400.121 460.007C389.922 459.275 379.684 459.275 369.485 460.007C356.346 461.215 341.419 464.262 341.419 464.262Z" fill="black"/>
<path d="M457.666 583.59C455.964 561.754 424.902 562.792 403.95 565.481L401.108 565.873C400.495 564.545 398.998 563.915 396.513 564.273C379.391 563.847 356.26 564.579 356.26 564.579C345.368 562.281 324.331 560.766 308.349 560.681C293.184 560.579 272.028 560.681 260.948 563.847C251.247 566.655 241.358 568.647 239.554 577.463C237.75 586.28 239.776 607.35 257.221 611.503C276.573 616.15 300.026 617.766 320.672 621.426C320.672 621.426 322.816 614.056 326.22 604.082L326.629 604.253H326.782C332.593 605.132 338.484 605.361 344.346 604.933C346.174 604.806 347.984 605.362 349.425 606.495C350.865 607.627 351.834 609.254 352.142 611.061V611.061C353.605 619.843 362.439 630.14 403.406 628.932C444.373 627.723 459.436 605.427 457.666 583.59Z" fill="#AE8DFF"/>
<path opacity="0.2" d="M457.666 583.59C455.964 561.754 424.902 562.792 403.95 565.481L401.108 565.873C400.495 564.545 398.998 563.915 396.513 564.273C379.391 563.847 356.26 564.579 356.26 564.579C345.368 562.281 324.331 560.766 308.349 560.681C293.184 560.579 272.028 560.681 260.948 563.847C251.247 566.655 241.358 568.647 239.554 577.463C237.75 586.28 239.776 607.35 257.221 611.503C276.573 616.15 300.026 617.766 320.672 621.426C320.672 621.426 322.816 614.056 326.22 604.082L326.629 604.253H326.782C332.593 605.132 338.484 605.361 344.346 604.933C346.174 604.806 347.984 605.362 349.425 606.495C350.865 607.627 351.834 609.254 352.142 611.061V611.061C353.605 619.843 362.439 630.14 403.406 628.932C444.373 627.723 459.436 605.427 457.666 583.59Z" fill="black"/>
<path d="M417.872 560.648L418.417 566.69C418.655 567.166 418.094 567.643 417.311 567.643H349.027C348.431 567.643 347.92 567.336 347.886 566.962L347.273 560.92C347.273 560.494 347.75 560.137 348.431 560.137H416.783C416.993 560.12 417.205 560.157 417.396 560.247C417.587 560.337 417.751 560.475 417.872 560.648V560.648Z" fill="#AE8DFF"/>
<path opacity="0.7" d="M417.872 560.648L418.417 566.69C418.655 567.166 418.094 567.643 417.311 567.643H349.027C348.431 567.643 347.92 567.336 347.886 566.962L347.273 560.92C347.273 560.494 347.75 560.137 348.431 560.137H416.783C416.993 560.12 417.205 560.157 417.396 560.247C417.587 560.337 417.751 560.475 417.872 560.648V560.648Z" fill="white"/>
<path d="M408.697 568.254H410.519C410.893 568.254 411.165 568.067 411.148 567.846L410.28 559.983C410.28 559.761 409.94 559.574 409.582 559.574H407.744C407.387 559.574 407.098 559.761 407.132 559.983L407.983 567.846C408.017 568.067 408.323 568.254 408.697 568.254Z" fill="#AE8DFF"/>
<path d="M354.185 568.254H356.006C356.381 568.254 356.653 568.067 356.619 567.846L355.768 559.983C355.768 559.761 355.428 559.574 355.053 559.574H353.232C352.858 559.574 352.585 559.761 352.602 559.983L353.47 567.846C353.487 568.067 353.811 568.254 354.185 568.254Z" fill="#AE8DFF"/>
<path d="M381.434 568.254H383.272C383.629 568.254 383.902 568.067 383.885 567.846L383.034 559.983C383.034 559.761 382.676 559.574 382.319 559.574H380.481C380.123 559.574 379.851 559.761 379.868 559.983L380.736 567.846C380.753 568.067 381.076 568.254 381.434 568.254Z" fill="#AE8DFF"/>
<g opacity="0.6">
<path opacity="0.6" d="M408.694 568.255H410.515C410.889 568.255 411.161 568.068 411.144 567.847L410.276 559.984C410.276 559.762 409.936 559.575 409.579 559.575H407.74C407.383 559.575 407.094 559.762 407.128 559.984L407.979 567.847C408.013 568.068 408.319 568.255 408.694 568.255Z" fill="black"/>
<path opacity="0.6" d="M354.181 568.255H356.002C356.377 568.255 356.649 568.068 356.615 567.847L355.764 559.984C355.764 559.762 355.424 559.575 355.049 559.575H353.228C352.854 559.575 352.581 559.762 352.598 559.984L353.466 567.847C353.483 568.068 353.807 568.255 354.181 568.255Z" fill="black"/>
<path opacity="0.6" d="M381.43 568.255H383.268C383.625 568.255 383.898 568.068 383.881 567.847L383.03 559.984C383.03 559.762 382.672 559.575 382.315 559.575H380.477C380.119 559.575 379.847 559.762 379.864 559.984L380.732 567.847C380.749 568.068 381.072 568.255 381.43 568.255Z" fill="black"/>
</g>
<path d="M278.344 540.546L266.549 528.632L265 545.465C265 545.465 273.85 551.439 279.961 548.222L278.344 540.546Z" fill="#E4897B"/>
<path d="M252.696 526.811L252.168 540.971L265.001 545.43L266.55 528.598L252.696 526.811Z" fill="#E4897B"/>
<path opacity="0.6" d="M412.95 489.964L421.647 497.368C419.792 507.239 418.55 515.46 417.75 522.761C416.116 515.426 411.98 495.563 412.95 489.964Z" fill="black"/>
<path d="M419.815 443.089C414.539 433.882 409.331 422.751 414.284 407.194C419.968 389.323 416.871 380.49 413.279 376.218C410.029 372.354 404.906 370.618 398.812 371.265C397.164 371.284 395.539 371.662 394.052 372.374C392.564 373.085 391.25 374.112 390.2 375.384C390.2 375.384 363.887 377.631 347.038 397.084C352.484 412.93 344.689 432.197 334.664 439.515C366.611 466.594 400.855 458.118 412.054 453.131C417.432 450.714 419.339 447.362 418.164 441.949L419.083 443.566C419.117 443.632 419.168 443.687 419.231 443.726C419.294 443.765 419.367 443.786 419.441 443.787C419.513 443.805 419.589 443.805 419.662 443.787C419.728 443.762 419.788 443.721 419.834 443.668C419.881 443.614 419.913 443.549 419.928 443.48C419.944 443.411 419.941 443.339 419.921 443.27C419.902 443.202 419.865 443.14 419.815 443.089V443.089ZM412.633 376.711C414.395 378.937 415.566 381.571 416.037 384.37C415.01 381.599 413.409 379.075 411.338 376.966C409.267 374.857 406.773 373.21 404.021 372.133C407.375 372.574 410.445 374.249 412.633 376.831V376.711ZM412.207 405.935C413.693 403.338 414.892 400.588 415.781 397.731C415.208 400.83 414.435 403.889 413.467 406.888C411.13 413.768 410.805 421.173 412.531 428.231C409.671 421.083 408.259 413.032 412.207 405.986V405.935Z" fill="#263238"/>
<path d="M405.246 422.53C405.246 423.099 405.02 423.645 404.618 424.047C404.216 424.449 403.67 424.675 403.102 424.675C402.533 424.675 401.987 424.449 401.585 424.047C401.183 423.645 400.957 423.099 400.957 422.53C400.957 421.962 401.183 421.416 401.585 421.014C401.987 420.612 402.533 420.386 403.102 420.386C403.67 420.386 404.216 420.612 404.618 421.014C405.02 421.416 405.246 421.962 405.246 422.53V422.53Z" fill="white"/>
<path d="M379.156 475.837C375.939 475.837 366.169 475.837 362.833 468.91C362.24 467.593 361.918 466.169 361.885 464.725C361.853 463.281 362.112 461.844 362.646 460.502C362.688 460.39 362.772 460.3 362.88 460.249C362.988 460.198 363.112 460.191 363.225 460.23C363.336 460.272 363.427 460.356 363.478 460.464C363.529 460.572 363.536 460.695 363.497 460.808C363.004 462.038 362.762 463.353 362.786 464.677C362.809 466.001 363.097 467.307 363.633 468.518C366.731 474.952 376.075 474.952 379.156 474.952C401.009 474.952 404.788 461.847 404.941 461.336L405.213 460.298C405.245 460.184 405.32 460.087 405.421 460.027C405.522 459.967 405.643 459.948 405.758 459.974C405.817 459.988 405.873 460.014 405.922 460.05C405.971 460.086 406.011 460.132 406.042 460.185C406.072 460.237 406.091 460.296 406.098 460.356C406.105 460.417 406.099 460.478 406.081 460.536L405.809 461.557C405.639 462.119 401.673 475.837 379.156 475.837Z" fill="white"/>
<path d="M397.128 425.491C395.204 435.363 393.264 453.421 400.174 460.008C400.174 460.008 397.468 470.016 379.155 470.016C361.522 470.016 369.521 460.008 369.521 460.008C380.516 457.387 380.227 449.217 378.321 441.558L397.128 425.491Z" fill="#E4897B"/>
<path d="M389.465 432.045L378.316 441.508C378.789 443.287 379.108 445.104 379.27 446.937C383.473 446.342 389.243 441.729 389.686 437.321C389.928 435.563 389.853 433.776 389.465 432.045Z" fill="#CE6F64"/>
<path d="M398.265 399.502C400.171 415.892 401.328 422.785 394.639 432.571C384.563 447.294 364.003 446.034 357.195 430.563C351.102 416.624 349.009 392.166 363.731 382.907C366.962 380.827 370.672 379.61 374.507 379.372C378.343 379.134 382.175 379.883 385.638 381.547C389.102 383.212 392.081 385.736 394.291 388.879C396.502 392.022 397.87 395.679 398.265 399.502V399.502Z" fill="#E4897B"/>
<path d="M382.628 385.46C378.9 392.643 351.719 401.272 338.75 400.472C340.635 399.515 342.358 398.269 343.856 396.778C343.856 391.179 343.856 378.959 352.23 371.997C357.172 367.751 363.103 364.815 369.477 363.462C375.851 362.109 382.463 362.381 388.704 364.253C391.173 364.974 393.428 366.29 395.271 368.085C397.114 369.88 398.488 372.1 399.273 374.55L400.192 377.376L382.628 385.46Z" fill="#263238"/>
<path d="M388.41 379.945L381.245 383.996C381.245 383.996 376.513 409.305 399.712 408.658C399.626 408.658 399.405 383.639 388.41 379.945Z" fill="#263238"/>
<path d="M405.212 411.058C404.882 414.222 403.361 417.143 400.957 419.228C397.741 421.951 394.541 419.534 394.149 415.62C393.758 412.079 394.932 406.412 398.796 405.203C402.659 403.995 405.57 407.195 405.212 411.058Z" fill="#E4897B"/>
<path d="M323.023 618.94L327.823 600.899C327.896 600.585 328.082 600.309 328.346 600.124C328.61 599.939 328.932 599.857 329.252 599.895L344.077 601.597C344.458 601.649 344.822 601.783 345.146 601.99C345.47 602.197 345.745 602.472 345.952 602.796C346.159 603.12 346.293 603.484 346.346 603.865C346.398 604.246 346.367 604.633 346.255 605.001C344.468 611.264 343.294 614.192 341.149 622.123C339.856 627.008 337.745 637.237 335.89 643.977C334.035 650.716 327.38 649.304 327.38 646.342C328.027 633.033 325.678 627.093 323.176 621.902C322.778 620.963 322.723 619.914 323.023 618.94V618.94Z" fill="#263238"/>
<path d="M359.631 622.685L364.431 604.644C364.519 604.334 364.492 604.003 364.354 603.712C364.216 603.42 363.977 603.189 363.682 603.061L349.947 597.206C349.597 597.072 349.223 597.012 348.849 597.032C348.474 597.052 348.109 597.15 347.775 597.32C347.441 597.49 347.146 597.728 346.911 598.019C346.675 598.311 346.503 598.648 346.406 599.01C344.841 605.342 344.398 608.473 342.288 616.405C340.994 621.29 337.794 631.246 335.99 637.986C334.186 644.726 340.773 646.871 342.117 644.215C348.177 632.301 353.232 628.387 357.929 625.102C358.757 624.515 359.358 623.662 359.631 622.685V622.685Z" fill="#263238"/>
<path d="M374.525 408.436C374.763 409.764 374.252 410.955 373.384 411.109C372.516 411.262 371.682 410.309 371.393 408.998C371.104 407.688 371.665 406.479 372.533 406.326C373.401 406.173 374.287 407.109 374.525 408.436Z" fill="#263238"/>
<path d="M359.598 411.108C359.836 412.419 359.325 413.61 358.474 413.78C357.623 413.951 356.772 412.981 356.483 411.67C356.194 410.359 356.755 409.151 357.606 408.998C358.457 408.845 359.376 409.781 359.598 411.108Z" fill="#263238"/>
<path d="M358.017 408.999L354.613 408.658C354.613 408.658 356.741 410.871 358.017 408.999Z" fill="#263238"/>
<path d="M363.956 412.676C363.339 415.891 362.286 419.006 360.824 421.935C361.587 422.288 362.417 422.471 363.258 422.471C364.099 422.471 364.929 422.288 365.692 421.935L363.956 412.676Z" fill="#DE5753"/>
<path d="M372.413 425.611C372.35 425.622 372.285 425.608 372.233 425.571C372.18 425.534 372.144 425.478 372.133 425.415C372.121 425.352 372.136 425.287 372.172 425.234C372.209 425.181 372.265 425.145 372.328 425.134C374.915 424.084 377.016 422.105 378.217 419.585C378.228 419.554 378.246 419.526 378.269 419.502C378.291 419.478 378.319 419.459 378.349 419.446C378.38 419.434 378.412 419.427 378.445 419.428C378.478 419.428 378.511 419.436 378.541 419.449C378.572 419.462 378.601 419.481 378.625 419.506C378.649 419.53 378.668 419.559 378.681 419.591C378.694 419.622 378.7 419.656 378.699 419.691C378.698 419.725 378.691 419.758 378.677 419.79C377.433 422.445 375.224 424.527 372.499 425.611H372.413Z" fill="#263238"/>
<path d="M376.349 399.978C376.226 399.973 376.108 399.931 376.008 399.859C375.241 399.163 374.319 398.661 373.318 398.394C372.317 398.128 371.267 398.105 370.256 398.327C370.127 398.365 369.989 398.35 369.871 398.286C369.753 398.222 369.665 398.115 369.626 397.987C369.593 397.858 369.61 397.722 369.673 397.606C369.736 397.489 369.841 397.4 369.966 397.357C371.139 397.088 372.359 397.102 373.525 397.398C374.691 397.694 375.77 398.263 376.672 399.059C376.765 399.152 376.817 399.277 376.817 399.408C376.817 399.539 376.765 399.665 376.672 399.757C376.636 399.814 376.589 399.863 376.533 399.901C376.478 399.939 376.415 399.965 376.349 399.978V399.978Z" fill="#263238"/>
<path d="M351.087 405.764C350.982 405.759 350.882 405.723 350.797 405.662C350.691 405.584 350.619 405.468 350.597 405.337C350.575 405.207 350.604 405.074 350.678 404.965C351.338 403.954 352.232 403.117 353.284 402.525C354.335 401.932 355.514 401.602 356.72 401.561C356.853 401.565 356.978 401.621 357.07 401.716C357.162 401.811 357.214 401.939 357.214 402.071C357.195 402.201 357.132 402.321 357.036 402.41C356.941 402.5 356.817 402.555 356.686 402.565C355.664 402.614 354.668 402.905 353.781 403.414C352.893 403.923 352.139 404.635 351.58 405.492C351.532 405.58 351.46 405.652 351.373 405.7C351.285 405.748 351.186 405.77 351.087 405.764V405.764Z" fill="#263238"/>
<path d="M372.924 406.327L369.52 405.986C369.52 405.986 371.664 408.165 372.924 406.327Z" fill="#263238"/>
<path d="M435.199 482.355C436.901 487.325 438.382 492.21 439.845 497.18C441.309 502.15 442.518 507.171 443.709 512.243C444.9 517.315 445.922 522.455 446.687 527.799C447.079 530.454 447.385 533.16 447.538 536.02C447.538 537.449 447.641 538.913 447.538 540.445V541.619V542.266L447.453 543.151C447.324 544.307 447.079 545.448 446.722 546.555C445.473 550.131 443.349 553.337 440.543 555.882C438.323 557.948 435.899 559.784 433.31 561.362C428.596 564.158 423.633 566.512 418.485 568.392C408.661 572.026 398.51 574.711 388.173 576.408L386.113 568.068C395.401 564.757 404.493 560.922 413.345 556.58C417.509 554.52 421.494 552.118 425.259 549.397C426.925 548.22 428.46 546.867 429.838 545.363C430.773 544.408 431.462 543.24 431.846 541.959C431.845 540.411 431.742 538.865 431.54 537.33C431.267 535.134 430.859 532.82 430.399 530.522C429.497 525.859 428.289 521.093 426.995 516.344C425.702 511.596 424.357 506.813 422.945 502.065C421.532 497.316 420.051 492.482 418.621 487.853L435.199 482.355Z" fill="#E4897B"/>
<path d="M389.516 568.561L373.738 564.578L381.244 579.709C381.244 579.709 391.899 580.168 395.422 574.228L389.516 568.561Z" fill="#E4897B"/>
<path d="M361.012 570.331L367.99 582.653L381.266 579.709L373.743 564.578L361.012 570.331Z" fill="#E4897B"/>
<path d="M322.968 622.157L329.198 598.788L320.994 595.401L309.438 620.489L322.968 622.157Z" fill="#AE8DFF"/>
<path opacity="0.7" d="M322.968 622.157L329.198 598.788L320.994 595.401L309.438 620.489L322.968 622.157Z" fill="white"/>
<path d="M358.859 622.464L362.774 600.576L372.339 600.219L371.59 628.08L358.859 622.464Z" fill="#AE8DFF"/>
<path opacity="0.7" d="M358.859 622.464L362.774 600.576L372.339 600.219L371.59 628.08L358.859 622.464Z" fill="white"/>
<path d="M321.03 629.595C320.743 629.595 320.46 629.537 320.196 629.425C320.008 629.363 319.838 629.254 319.704 629.108C319.57 628.962 319.476 628.784 319.43 628.591C318.902 626.395 323.838 620.915 324.4 620.285C324.446 620.256 324.499 620.241 324.553 620.241C324.607 620.241 324.66 620.256 324.706 620.285C324.763 620.307 324.81 620.348 324.841 620.4C324.872 620.453 324.884 620.514 324.876 620.574C324.706 623.281 324.128 628.029 322.136 629.323C321.801 629.518 321.417 629.613 321.03 629.595ZM324.264 621.289C322.562 623.23 319.617 627.025 319.975 628.472C320 628.576 320.053 628.672 320.128 628.75C320.203 628.828 320.297 628.884 320.4 628.914C320.631 629.012 320.883 629.05 321.132 629.026C321.382 629.003 321.621 628.917 321.83 628.778C323.038 627.995 323.923 625.221 324.264 621.289Z" fill="#AE8DFF"/>
<path d="M318.048 624.523C317.816 624.53 317.584 624.489 317.368 624.404C316.993 624.233 316.568 623.808 316.738 622.804C316.792 622.429 316.925 622.07 317.127 621.751C317.329 621.431 317.597 621.158 317.912 620.949C320.091 619.4 324.465 620.166 324.72 620.2C324.768 620.21 324.812 620.232 324.848 620.265C324.884 620.298 324.91 620.34 324.924 620.387C324.945 620.429 324.956 620.476 324.956 620.523C324.956 620.57 324.945 620.617 324.924 620.659C323.614 622.123 319.972 624.523 318.048 624.523ZM321.98 620.54C320.674 620.464 319.374 620.765 318.236 621.408C317.982 621.574 317.766 621.792 317.601 622.047C317.437 622.302 317.329 622.589 317.282 622.889C317.163 623.689 317.487 623.842 317.589 623.893C318.729 624.404 322.371 622.412 324.039 620.676C323.356 620.592 322.668 620.547 321.98 620.54V620.54Z" fill="#AE8DFF"/>
<path d="M357.093 633.204H356.854C356.519 633.162 356.198 633.037 355.922 632.841C355.646 632.645 355.423 632.384 355.272 632.081C354.182 629.971 356.037 625.562 357.229 623.128C357.252 623.078 357.289 623.035 357.336 623.004C357.382 622.974 357.437 622.958 357.493 622.958C357.548 622.958 357.603 622.974 357.65 623.004C357.697 623.035 357.734 623.078 357.756 623.128C357.944 623.945 359.458 631.162 357.927 632.796C357.826 632.92 357.699 633.021 357.555 633.092C357.411 633.162 357.253 633.201 357.093 633.204V633.204ZM357.382 624.099C356.48 626.073 354.863 630.056 355.765 631.809C355.878 632.033 356.043 632.227 356.248 632.372C356.453 632.518 356.69 632.611 356.94 632.643C357.046 632.668 357.158 632.664 357.263 632.631C357.368 632.598 357.462 632.537 357.535 632.455C358.556 631.383 357.876 626.635 357.416 624.099H357.382Z" fill="#AE8DFF"/>
<path d="M361.932 630.225H361.83C359.975 630.038 357.575 625.391 357.217 623.281C357.206 623.233 357.21 623.183 357.228 623.137C357.246 623.091 357.278 623.052 357.32 623.026C357.36 623 357.408 622.986 357.456 622.986C357.504 622.986 357.551 623 357.592 623.026C357.762 623.026 361.949 624.591 363.072 627.008C363.233 627.35 363.324 627.72 363.339 628.097C363.353 628.475 363.292 628.851 363.157 629.204C362.834 630.021 362.34 630.225 361.932 630.225ZM357.864 623.621C358.477 625.953 360.638 629.476 361.881 629.595C362 629.595 362.357 629.595 362.63 628.898C362.746 628.629 362.806 628.339 362.806 628.047C362.806 627.754 362.746 627.464 362.63 627.196C361.745 625.443 358.988 624.149 357.864 623.621Z" fill="#AE8DFF"/>
<path d="M428.903 463.786C435.711 465.846 445.923 492.38 445.923 492.38L419.695 511.102C419.695 511.102 407.9 488.414 410.743 479.666C413.721 470.594 421.108 461.437 428.903 463.786Z" fill="#AE8DFF"/>
<path opacity="0.6" d="M428.903 463.786C435.711 465.846 445.923 492.38 445.923 492.38L419.695 511.102C419.695 511.102 407.9 488.414 410.743 479.666C413.721 470.594 421.108 461.437 428.903 463.786Z" fill="black"/>
<path d="M418.127 508.362C418.033 508.358 417.943 508.326 417.868 508.27C417.793 508.214 417.737 508.137 417.707 508.048C417.678 507.959 417.676 507.863 417.702 507.773C417.729 507.683 417.782 507.603 417.855 507.545L444.304 488.635C444.35 488.6 444.403 488.575 444.459 488.56C444.516 488.546 444.575 488.544 444.632 488.554C444.69 488.563 444.745 488.584 444.793 488.616C444.842 488.648 444.884 488.689 444.916 488.738C444.952 488.785 444.978 488.839 444.992 488.897C445.007 488.955 445.009 489.015 444.999 489.074C444.99 489.133 444.969 489.189 444.937 489.24C444.905 489.29 444.863 489.333 444.814 489.367L418.382 508.276C418.31 508.334 418.219 508.364 418.127 508.362V508.362Z" fill="white"/>
<path d="M228.426 517.926H346.885L364.058 587.878H245.599L228.426 517.926Z" fill="#AE8DFF"/>
<path d="M288.434 574.842L360.888 591.743L407.386 578.705L406.91 574.842H288.434Z" fill="#AE8DFF"/>
<path d="M224.781 517.926H343.24L360.397 587.878H241.954L224.781 517.926Z" fill="#AE8DFF"/>
<path opacity="0.5" d="M224.781 517.926H343.24L360.397 587.878H241.954L224.781 517.926Z" fill="white"/>
<path d="M241.957 587.879L242.434 591.742H360.893L360.416 587.879H241.957Z" fill="#AE8DFF"/>
<path opacity="0.5" d="M241.957 587.879L242.434 591.742H360.893L360.416 587.879H241.957Z" fill="white"/>
</svg>
