<svg width="126" height="128" viewBox="0 0 126 128" fill="none" xmlns="http://www.w3.org/2000/svg">
<path fill-rule="evenodd" clip-rule="evenodd" d="M8.17342 2.45197C4.94136 4.29983 3.44013 5.8444 1.95632 8.84924L0 12.8094V47.1701V81.5315L2.4943 85.5537C6.15245 91.4526 10.4597 93.4096 21.0644 93.9922L29.4276 94.4517V105.717C29.4276 117.379 30.2607 120.656 33.2242 120.656C33.8932 120.656 40.4974 114.74 47.9007 107.509L61.3612 94.3608L78.7848 94.0798C95.5669 93.8087 96.3593 93.7203 100.32 91.6865C103.238 90.189 105.157 88.4073 106.927 85.5553L109.421 81.5348L109.683 49.6518C109.826 32.1153 109.719 16.2382 109.442 14.3689C108.682 9.22691 105.134 4.4147 100.352 2.03959L96.2466 0L54.3408 0.00743679L12.4342 0.0157027L8.17342 2.45197ZM98.7409 6.24934C99.9992 7.1865 101.798 8.97981 102.738 10.2343C104.388 12.4359 104.456 13.6648 104.682 45.5379C104.905 76.9879 104.838 78.7382 103.267 82.2786C101.975 85.1909 100.847 86.3445 98.0587 87.6065C94.9203 89.0263 92.5611 89.2188 78.0868 89.2345C65.4736 89.2486 61.1564 89.5262 59.4355 90.4353C58.2045 91.0857 52.353 96.478 46.4327 102.418C40.5123 108.359 35.3836 113.219 35.0346 113.219C34.6865 113.219 34.4013 108.57 34.4013 102.889C34.4013 89.2791 34.3781 89.2527 22.5043 89.2527C13.1032 89.2527 10.4522 88.237 6.70784 83.2017C5.02839 80.9431 4.9654 79.8432 4.71837 48.4923C4.5559 27.8353 4.77391 15.0556 5.32184 13.1879C6.39781 9.51946 10.2085 5.81217 13.8177 4.92377C15.3364 4.55023 34.5505 4.31223 56.516 4.39487C95.4384 4.54114 96.511 4.58825 98.7409 6.24934ZM114.614 22.1066C114.835 23.3569 115.857 25.3089 116.884 26.4452C120.577 30.531 120.612 30.8633 120.612 61.9678C120.612 94.7087 120.515 95.4161 115.68 97.9086C114.304 98.6176 109.699 99.387 104.98 99.6953C100.423 99.9928 96.2035 100.539 95.6042 100.908C94.8357 101.382 94.4237 104.408 94.209 111.17L93.9032 120.76L83.4253 110.511L72.9474 100.262L67.9737 99.7465C63.2537 99.2573 62.874 99.3564 60.5289 101.679L58.0578 104.128H63.7883H69.5188L81.7069 116.111C97.9982 132.129 98.8727 132.084 99.2407 115.231L99.4737 104.541L107.763 104.106C112.322 103.866 116.841 103.23 117.804 102.691C120.872 100.976 124.653 96.0037 125.338 92.7823C125.702 91.0683 126 76.4639 126 60.3282C126 31.4079 125.973 30.9409 124.117 27.4783C122.458 24.38 117 19.8339 114.941 19.8339C114.539 19.8339 114.391 20.8562 114.614 22.1066ZM34.8158 24.6635C22.6303 30.4691 20.0182 45.6056 29.1433 57.5325C31.1402 60.1423 40.9417 68.5353 51.4992 76.6755L54.9194 79.3126L65.1768 71.2038C70.8186 66.7445 76.8758 61.4943 78.6381 59.5382C90.1547 46.7519 87.9579 30.2335 73.9653 24.4048C68.5904 22.1661 61.4457 23.3388 55.8943 27.3708C54.8581 28.1237 53.8691 27.8402 51.0532 25.9825C46.4144 22.9214 39.6295 22.3702 34.8158 24.6635ZM45.4719 28.408C46.9723 29.0327 49.5271 30.7062 51.1502 32.1268C52.7724 33.5474 54.4312 34.7094 54.8349 34.7094C55.2394 34.7094 57.3756 33.2218 59.5822 31.4037C62.9469 28.6319 64.1962 28.0981 67.3172 28.0981C77.6268 28.0981 83.5397 36.9002 80.4195 47.6023C79.2689 51.5484 78.0761 53.3153 73.5011 57.8506C70.4614 60.8646 65.0525 65.5123 61.4822 68.1783C53.8841 73.8516 55.4591 74.2062 43.1069 64.0471C29.9731 53.245 26.2204 46.3982 28.9468 38.2134C30.4273 33.7697 34.2745 29.603 38.1316 28.265C41.5361 27.0841 42.3302 27.0998 45.4719 28.408Z" fill="#272525"/>
</svg>
