<svg width="135" height="135" viewBox="0 0 135 135" fill="none" xmlns="http://www.w3.org/2000/svg">
<path fill-rule="evenodd" clip-rule="evenodd" d="M134.642 0.628833C135.178 1.27434 135.122 3.69376 134.408 10.6096C132.204 31.9672 128.45 47.3053 123.261 56.1491C119.395 62.7398 108.199 72.7636 90.6222 85.3724C86.4738 88.3484 82.9342 91.0169 82.7573 91.3035C82.5804 91.5894 83.175 95.071 84.0787 99.0403C85.2047 103.984 85.7465 108.188 85.8 112.392C85.8927 119.694 85.0235 121.713 80.469 124.778C77.29 126.918 64.0272 132.281 57.4616 134.082C49.8719 136.165 49.9511 135.05 57.9592 127.107C65.9703 119.161 66.7879 117.848 66.3536 113.641C66.1687 111.851 65.5427 108.698 64.9634 106.635L63.9093 102.883L60.4582 104.819C58.5593 105.883 55.0793 108.023 52.7235 109.573C46.7193 113.526 45.651 113.897 37.3487 114.917C27.7226 116.1 25.9712 116.607 23.8433 118.825C22.8672 119.843 21.7252 120.676 21.3062 120.676C20.8866 120.676 19.9117 119.088 19.139 117.148C17.9073 114.055 17.7316 112.523 17.7125 104.722C17.6923 96.2442 17.7721 95.6527 19.4056 92.1674C20.3491 90.1554 22.189 87.1181 23.4944 85.4178C26.9467 80.9214 32.1744 72.0009 31.6529 71.4965C31.0288 70.8927 21.4936 68.5199 19.6906 68.5199C17.3071 68.5199 12.7969 71.9407 7.1017 78.0675C2.77026 82.7272 1.59694 83.6734 0.727707 83.2089C-0.276672 82.672 -0.266235 82.383 0.914459 78.1872C2.60318 72.1849 6.34366 62.2974 8.65405 57.7285C10.9006 53.2873 14.0513 50.3316 17.1621 49.7487C20.7411 49.078 30.6246 49.9561 37.6559 51.5705C41.2035 52.3841 44.1245 53.0106 44.1466 52.9621C44.1693 52.913 45.8052 50.5261 47.7826 47.6575C55.3293 36.7091 62.7894 27.4597 69.5996 20.6064C75.409 14.7606 77.5425 13.0499 81.6086 10.9753C91.3938 5.98433 104.323 3.14275 131.1 0.0986829C133.093 -0.127735 134.144 0.0299596 134.642 0.628833ZM123.351 4.10487C102.327 6.45005 87.375 10.5421 79.0125 16.2406C70.338 22.1508 56.8196 39.0954 40.7913 64.148C37.0397 70.0116 33.9701 75.0075 33.9701 75.2505C33.9701 75.4929 35.1446 77.4453 36.5808 79.5892C40.532 85.4884 48.7938 93.8143 54.6155 97.7647L59.818 101.294L62.0774 100.094C63.3196 99.433 70.427 94.8599 77.8718 89.9302C107.896 70.049 118.639 60.3498 123.285 48.9289C126.614 40.7466 130.392 22.1122 131.413 8.83634L131.825 3.47839L130.353 3.4833C129.543 3.48636 126.392 3.76617 123.351 4.10487ZM103.864 22.7742C115.687 26.524 116.491 42.5634 105.095 47.3182C99.6132 49.6057 92.4602 47.3882 89.3095 42.4254C86.926 38.6708 86.4609 35.6371 87.6465 31.5641C89.6221 24.7758 97.2088 20.6635 103.864 22.7742ZM95.0427 26.8258C91.9454 28.7384 90.4859 31.5512 90.4859 35.6095C90.4859 38.7076 90.7119 39.3132 92.6765 41.4853C95.3112 44.3987 98.199 45.4756 101.892 44.9221C108.759 43.8937 112.427 34.9352 108.185 29.5496C105.007 25.5127 99.1395 24.2972 95.0427 26.8258ZM14.6416 54.3857C13.7558 55.2171 12.2176 57.5641 11.2237 59.6012C9.13873 63.8737 5.07082 74.6559 5.54384 74.6559C5.71892 74.6559 7.67117 72.966 9.88142 70.9007C12.0917 68.8353 14.8868 66.7343 16.092 66.2312C18.7446 65.1236 23.0576 65.4973 29.5262 67.3952C31.9816 68.1155 34.0898 68.5942 34.2127 68.4585C35.1133 67.4639 41.3417 56.9217 41.3417 56.3915C41.3417 56.024 38.785 55.1582 35.6594 54.4691C32.5338 53.7794 29.4242 53.0891 28.7485 52.9345C28.0728 52.7799 24.9846 52.7032 21.8861 52.7633C16.8236 52.8621 16.0883 53.0265 14.6416 54.3857ZM29.7437 81.9939L27.8688 85.0374L31.46 89.8173C33.4356 92.4466 36.8124 96.2841 38.9643 98.3445C43.02 102.227 49.8191 107.303 50.4837 106.943C50.6926 106.831 52.1835 105.978 53.7973 105.049L56.7318 103.359L51.9544 99.846C44.716 94.5218 41.1543 91.0623 36.3849 84.7245C33.9959 81.5491 31.9459 78.9511 31.8298 78.9511C31.7131 78.9511 30.7745 80.3207 29.7437 81.9939ZM22.4077 93.0639C21.1182 95.795 20.7656 97.599 20.5592 102.521C20.413 106.006 20.6176 110.002 21.0384 111.878C21.442 113.68 21.8216 115.153 21.8818 115.153C21.942 115.153 23.377 114.626 25.0713 113.983C26.7655 113.34 31.6111 112.39 35.84 111.873C43.4586 110.939 46.8851 110.104 46.8544 109.186C46.8458 108.925 45.3948 107.744 43.6293 106.563C39.3464 103.697 31.8077 96.1288 28.4505 91.3256C25.3459 86.8831 25.3231 86.8898 22.4077 93.0639ZM72.0568 97.6677C69.5228 99.2821 67.237 100.79 66.9771 101.018C66.7167 101.246 66.8979 102.547 67.3789 103.909C67.8605 105.271 68.715 108.644 69.2783 111.404C70.2778 116.298 70.2722 116.486 69.0449 119.009C68.3525 120.432 66.052 123.515 63.932 125.86C61.785 128.235 60.6222 129.909 61.3065 129.641C61.9822 129.375 64.4702 128.457 66.8352 127.601C73.4396 125.209 80.5176 121.459 81.6313 119.761C83.4632 116.968 82.7082 105.406 80.0507 95.5471C79.3848 93.0774 79.3 93.0068 78.01 93.8511C77.2698 94.3353 74.5908 96.0527 72.0568 97.6677Z" fill="#272525"/>
</svg>
