<svg width="108" height="110" viewBox="0 0 108 110" fill="none" xmlns="http://www.w3.org/2000/svg">
<path fill-rule="evenodd" clip-rule="evenodd" d="M54.9847 0.0241165C47.9718 0.492239 42.4796 1.68142 36.483 4.03001C23.4259 9.14405 12.4687 19.1241 6.1649 31.6449C2.33651 39.2491 0.404306 46.7572 0.0168663 55.5349C-0.129686 58.8581 0.69169 64.9185 1.97938 70.0133C6.79042 89.0491 19.1052 102.43 37.2322 108.319C39.0073 108.896 42.2424 109.763 43.3603 109.961C44.1315 110.098 43.7088 109.851 42.7517 109.607C38.1516 108.429 32.7967 106.015 28.5711 103.213C24.8384 100.739 20.8018 97.1433 18.0236 93.8194C11.3707 85.8597 7.35606 76.2082 6.35052 65.7562C6.07872 62.9317 6.16624 57.5896 6.52714 54.9654C7.67071 46.6512 10.4437 39.3692 14.9237 32.915C17.1941 29.6443 20.7249 25.7937 23.6722 23.3741C31.334 17.0841 40.1394 13.4937 49.991 12.6426C52.1109 12.4595 57.2097 12.5635 59.245 12.8315C68.6635 14.0711 77.159 17.7688 84.3804 23.7717C85.6511 24.828 88.2832 27.3546 89.3208 28.5141L90.037 29.3146L87.0391 31.5979C84.1699 33.7832 84.0564 33.885 84.3935 33.9729C84.5871 34.0234 89.1002 34.6346 94.4225 35.3311C99.7447 36.0277 104.327 36.6289 104.606 36.6673C104.884 36.7056 105.141 36.691 105.176 36.6348C105.211 36.5787 105.711 32.9971 106.288 28.6758C106.865 24.3544 107.492 19.6757 107.681 18.2786C107.87 16.8815 108.013 15.7247 107.999 15.7079C107.985 15.6911 106.647 16.6846 105.026 17.9155C103.404 19.1464 102.039 20.1535 101.991 20.1535C101.943 20.1535 101.179 19.3659 100.293 18.4033C93.9277 11.4864 85.4254 6.01597 76.286 2.95708C72.1236 1.56396 67.6799 0.638362 63.0183 0.193584C61.6712 0.0650018 56.1244 -0.0519686 54.9847 0.0241165ZM27.7966 39.9266C25.9389 40.5847 25.758 43.2038 27.5062 44.1318C28.0202 44.4047 28.0595 44.4066 33.8356 44.4421C37.0322 44.4618 39.6478 44.5079 39.6478 44.5448C39.6478 44.5816 40.4452 48.5391 41.4198 53.3392C42.3944 58.1395 44.365 67.8503 45.7986 74.9189C47.2324 81.9877 48.4871 87.928 48.5868 88.1196C48.8398 88.6059 49.433 89.0727 49.9861 89.2206C50.302 89.3052 57.3014 89.3357 71.5556 89.3145L92.6575 89.2833L93.1444 89.0304C93.8454 88.6663 94.3356 87.8361 94.3356 87.0126C94.3356 86.2982 94.1235 85.8073 93.6117 85.3366C92.8568 84.6422 94.3083 84.6894 72.6057 84.6547L52.5541 84.6228L52.4899 84.3523C52.3276 83.6673 51.8199 81.0676 51.8199 80.9213C51.8199 80.7843 55.2616 80.7525 72.8568 80.7262L93.8937 80.695L94.348 80.3506C94.5977 80.1613 94.9077 79.7803 95.0366 79.5039C95.3432 78.8466 101.64 50.1385 101.636 49.4177C101.631 48.5802 101.13 47.8264 100.265 47.3545C100.01 47.2155 95.49 47.1833 72.4387 47.1567L44.9166 47.1249L44.3397 44.256C44.0223 42.6782 43.6597 41.1865 43.5339 40.9413C43.2809 40.4488 42.8457 40.101 42.2162 39.8888C41.5666 39.6699 28.4241 39.7042 27.7966 39.9266ZM96.37 51.9855C96.37 52.0625 95.1924 57.4935 93.753 64.0544C92.3136 70.6152 91.136 76.023 91.136 76.0715C91.136 76.12 82.0612 76.1459 70.9698 76.129L50.8036 76.0984L48.3449 63.972L45.8863 51.8456H71.1281C90.1581 51.8456 96.37 51.88 96.37 51.9855ZM54.833 92.257C53.466 92.5773 51.8896 93.7827 51.2303 95.0118C50.4991 96.3752 50.3225 97.6721 50.6692 99.1335C51.3309 101.923 54.235 103.848 57.067 103.373C60.1754 102.852 62.3045 99.984 61.8325 96.9534C61.4789 94.6838 59.7114 92.7545 57.5269 92.2541C56.8865 92.1074 55.4651 92.109 54.833 92.257ZM83.681 92.257C82.8578 92.4498 81.7291 93.1084 81.0318 93.8026C79.7444 95.084 79.1356 96.9522 79.4448 98.6715C80.1875 102.802 84.8915 104.788 88.3364 102.426C90.594 100.878 91.3875 97.8365 90.1963 95.2958C89.5686 93.9572 88.0251 92.6851 86.5763 92.3124C85.7939 92.1113 84.4159 92.0849 83.681 92.257Z" fill="black"/>
</svg>
