<svg id="Layer_1" data-name="Layer 1" xmlns="http://www.w3.org/2000/svg" xmlns:xlink="http://www.w3.org/1999/xlink" viewBox="0 0 145.26 34.25"><defs><style>.cls-1{font-size:24px;font-family:Arial-BoldMT, Arial;font-weight:700;}.cls-2{fill:url(#linear-gradient);}.cls-3{fill:#ff7a59;}</style><linearGradient id="linear-gradient" x1="568.95" y1="769.75" x2="590.99" y2="769.75" gradientTransform="translate(-416.22 -408.55)" gradientUnits="userSpaceOnUse"><stop offset="0" stop-color="#ff7a59"/><stop offset="0.33" stop-color="#ff8761"/><stop offset="0.93" stop-color="#ffa875"/><stop offset="1" stop-color="#ffac78"/></linearGradient></defs><text class="cls-1" transform="translate(38.61 25.21)">CMS Hub</text><path class="cls-2" d="M152.43,370.29h0c0-3.82,2.27-6.91,5.08-6.91h18.83c2.81,0,5.09,3.09,5.09,6.91h0c0,3.81-2.28,6.91-5.09,6.91H157.51C154.7,377.2,152.43,374.1,152.43,370.29Zm23.91-25.09h-5.62c-2.81,0-5.08,3.09-5.08,6.91h0c0,3.81,2.27,6.91,5.08,6.91h5.62c2.81,0,5.09-3.1,5.09-6.91h0c0-3.82-2.28-6.91-5.09-6.91Zm-13.75,6.91c0-3.82-2.27-6.91-5.08-6.91s-5.08,3.09-5.08,6.91,2.27,6.91,5.08,6.91,5.08-3.1,5.08-6.91Z" transform="translate(-152.43 -345.2)"/><ellipse class="cls-3" cx="23.92" cy="25.09" rx="5.08" ry="6.91"/></svg>