<svg id="Layer_1" data-name="Layer 1" xmlns="http://www.w3.org/2000/svg" xmlns:xlink="http://www.w3.org/1999/xlink" viewBox="0 0 205.17 33.74"><defs><style>.cls-1{font-size:24px;font-family:Arial-BoldMT, Arial;font-weight:700;}.cls-2{fill:url(#linear-gradient);}.cls-3{fill:#ff7a59;}.cls-4{fill:url(#linear-gradient-2);}</style><linearGradient id="linear-gradient" x1="585.92" y1="758.55" x2="576.01" y2="774.15" gradientTransform="translate(-417.5 -406.63)" gradientUnits="userSpaceOnUse"><stop offset="0.23" stop-color="#ffac78"/><stop offset="0.24" stop-color="#ffab78"/><stop offset="0.73" stop-color="#ff8861"/><stop offset="1" stop-color="#ff7a59"/></linearGradient><linearGradient id="linear-gradient-2" x1="566.59" y1="768.33" x2="593.94" y2="768.33" gradientTransform="translate(-417.5 -406.63)" gradientUnits="userSpaceOnUse"><stop offset="0" stop-color="#ffac78"/><stop offset="0.82" stop-color="#ff7a59"/></linearGradient></defs><text class="cls-1" transform="translate(38.49 24.71)">Marketing Hub</text><path class="cls-2" d="M167,345.72a4.81,4.81,0,0,1,1.46.2,4.24,4.24,0,0,1,3.32,4v11.84c0,2.29-2.14,4.15-4.78,4.15h-9.72a4.88,4.88,0,0,1-4.25-2.25,3.7,3.7,0,0,1,.36-4.31l9.73-11.83A5,5,0,0,1,167,345.72Z" transform="translate(-152.54 -345.71)"/><path class="cls-3" d="M167,357.55h9.73a4.88,4.88,0,0,1,4.25,2.26,3.69,3.69,0,0,1-.37,4.3L170.92,376a5.18,5.18,0,0,1-5.34,1.54,4.26,4.26,0,0,1-3.31-4V361.7C162.27,359.41,164.41,357.55,167,357.55Z" transform="translate(-152.54 -345.71)"/><ellipse class="cls-3" cx="14.51" cy="4.15" rx="4.77" ry="4.15"/><path class="cls-4" d="M157.32,357.55h19.45c2.63,0,4.77,1.86,4.77,4.15s-2.14,4.15-4.77,4.15H157.32c-2.64,0-4.78-1.86-4.78-4.15S154.68,357.55,157.32,357.55Z" transform="translate(-152.54 -345.71)"/></svg>