<svg id="Layer_1" data-name="Layer 1" xmlns="http://www.w3.org/2000/svg" xmlns:xlink="http://www.w3.org/1999/xlink" viewBox="0 0 206.14 33.75"><defs><style>.cls-1{font-size:24px;font-family:Arial-BoldMT, Arial;font-weight:700;}.cls-2{fill:#ff7a59;}.cls-3{fill:url(#linear-gradient);}.cls-4{fill:url(#linear-gradient-2);}</style><linearGradient id="linear-gradient" x1="163.34" y1="733.59" x2="176.9" y2="724.13" gradientTransform="matrix(1, 0, 0, -1, 0, 1082)" gradientUnits="userSpaceOnUse"><stop offset="0" stop-color="#ff7a59"/><stop offset="0.63" stop-color="#ffac78"/></linearGradient><linearGradient id="linear-gradient-2" x1="153.58" y1="717.47" x2="169.12" y2="707.02" gradientTransform="matrix(1, 0, 0, -1, 0, 1082)" gradientUnits="userSpaceOnUse"><stop offset="0.37" stop-color="#ffac78"/><stop offset="1" stop-color="#ff7a59"/></linearGradient></defs><text class="cls-1" transform="translate(39.48 24.71)">Operation Hub</text><path class="cls-2" d="M155.92,371.88A4.36,4.36,0,0,1,152.4,365a5.48,5.48,0,0,0,0-6.51,4.35,4.35,0,0,1,4-6.9,5.51,5.51,0,0,0,5.66-3.25,4.36,4.36,0,0,1,8,3.51,14.21,14.21,0,0,1-8,7.57,14.18,14.18,0,0,1-2.58,10.72A4.38,4.38,0,0,1,155.92,371.88Z" transform="translate(-151.56 -345.7)"/><path class="cls-2" d="M166.06,377.7a4.36,4.36,0,0,1-4-6.1,14.18,14.18,0,0,1,8-7.58,14.06,14.06,0,0,1,2.58-10.71,4.36,4.36,0,0,1,7,5.14,5.48,5.48,0,0,0,0,6.51,4.3,4.3,0,0,1,.26,4.74,4.36,4.36,0,0,1-4.25,2.15,5.53,5.53,0,0,0-5.67,3.26A4.37,4.37,0,0,1,166.06,377.7Z" transform="translate(-151.56 -345.7)"/><path class="cls-3" d="M175.09,360.29a14.22,14.22,0,0,1-13-8.48,4.36,4.36,0,0,1,8-3.51,5.52,5.52,0,0,0,5.67,3.25,4.35,4.35,0,1,1,.94,8.65A13.77,13.77,0,0,1,175.09,360.29Z" transform="translate(-151.56 -345.7)"/><ellipse class="cls-2" cx="24.63" cy="10.17" rx="4.37" ry="4.35"/><path class="cls-4" d="M166.06,377.7a4.38,4.38,0,0,1-4-2.59,5.52,5.52,0,0,0-5.66-3.26,4.35,4.35,0,1,1-1-8.65,14.22,14.22,0,0,1,14.6,8.4,4.33,4.33,0,0,1-2.23,5.73A4.38,4.38,0,0,1,166.06,377.7Z" transform="translate(-151.56 -345.7)"/></svg>