<svg id="Layer_1" data-name="Layer 1" xmlns="http://www.w3.org/2000/svg" xmlns:xlink="http://www.w3.org/1999/xlink" viewBox="0 0 155.01 33.95"><defs><style>.cls-1{font-size:24px;font-family:Arial-BoldMT, Arial;font-weight:700;}.cls-2{fill:url(#linear-gradient);}.cls-3{fill:#ff805c;}.cls-4{fill:url(#linear-gradient-2);}.cls-5{fill:url(#linear-gradient-3);}.cls-6{fill:#ff7a59;}</style><linearGradient id="linear-gradient" x1="574.95" y1="769.75" x2="590.56" y2="775.13" gradientTransform="translate(-416.49 -409.84)" gradientUnits="userSpaceOnUse"><stop offset="0" stop-color="#ff7a59"/><stop offset="1" stop-color="#ff805c"/></linearGradient><linearGradient id="linear-gradient-2" x1="553.48" y1="775.79" x2="598.73" y2="775.79" gradientTransform="translate(-416.49 -409.84)" gradientUnits="userSpaceOnUse"><stop offset="0" stop-color="#ff9a6d"/><stop offset="0.27" stop-color="#ff976b"/><stop offset="0.46" stop-color="#ff8e65"/><stop offset="0.5" stop-color="#ff8b63"/><stop offset="0.8" stop-color="#ff805c"/></linearGradient><linearGradient id="linear-gradient-3" x1="557.94" y1="768.57" x2="594.99" y2="768.57" gradientTransform="translate(-416.49 -409.84)" gradientUnits="userSpaceOnUse"><stop offset="0.51" stop-color="#ff9167"/><stop offset="0.57" stop-color="#ff9a6d"/><stop offset="0.71" stop-color="#ffa775"/><stop offset="0.83" stop-color="#ffac78"/></linearGradient></defs><text class="cls-1" transform="translate(38.98 24.91)">Sales Hub</text><path class="cls-2" d="M174.12,365.15l-4.42-16.21a3.83,3.83,0,0,0-4.38-3.38,4,4,0,0,0-3.06,3.38l-6.12,22.87A4.55,4.55,0,0,0,159,377.3a3.27,3.27,0,0,0,3.13-.69L166,373Z" transform="translate(-152.06 -345.5)"/><path class="cls-3" d="M166,373l4.22,3.64a3.34,3.34,0,0,0,1.95.85,3.53,3.53,0,0,0,3.29-1.93,5.1,5.1,0,0,0,.45-3.7l-1.8-6.66Z" transform="translate(-152.06 -345.5)"/><path class="cls-4" d="M157.89,355.22l16.69,14.39a4.88,4.88,0,0,1,.81,6.08,3.33,3.33,0,0,1-4.85,1.21l-.27-.22-16.7-14.36a4.91,4.91,0,0,1-.81-6.07A3.33,3.33,0,0,1,157.6,355,3.15,3.15,0,0,1,157.89,355.22Z" transform="translate(-152.06 -345.5)"/><path class="cls-5" d="M155.73,354.38h21.58a4.23,4.23,0,0,1,3.75,4.56,4.17,4.17,0,0,1-3.75,4.14H155.73a4.26,4.26,0,0,1-3.61-4.71A4.19,4.19,0,0,1,155.73,354.38Z" transform="translate(-152.06 -345.5)"/><ellipse class="cls-6" cx="25.26" cy="13.24" rx="3.67" ry="4.34"/></svg>