<svg id="Layer_1" data-name="Layer 1" xmlns="http://www.w3.org/2000/svg" xmlns:xlink="http://www.w3.org/1999/xlink" viewBox="0 0 190.81 34.87"><defs><style>.cls-1{font-size:24px;font-family:Arial-BoldMT, Arial;font-weight:700;}.cls-2{fill:#ff7a59;}.cls-3{fill:url(#linear-gradient);}</style><linearGradient id="linear-gradient" x1="575.19" y1="771.39" x2="593.8" y2="764.93" gradientTransform="translate(-413.53 -407.62)" gradientUnits="userSpaceOnUse"><stop offset="0.03" stop-color="#ff7a59"/><stop offset="0.56" stop-color="#ffac78"/></linearGradient></defs><text class="cls-1" transform="translate(38.74 25.84)">Services Hub</text><path class="cls-2" d="M154.05,347.19h0c2-3.08,5.45-3.5,7.8-.94a6.86,6.86,0,0,1,.72.94L175.32,366l-6.11,9.07a2.64,2.64,0,0,1-4.39.51,2.86,2.86,0,0,1-.39-.51l-10.36-15.32A12.14,12.14,0,0,1,154.05,347.19Z" transform="translate(-152.3 -344.57)"/><path class="cls-3" d="M179.55,347.19h0c-2-3.08-5.46-3.5-7.81-.94a7.53,7.53,0,0,0-.72.94L158.28,366l6.11,9.07a2.64,2.64,0,0,0,4.39.51,3.42,3.42,0,0,0,.39-.51l10.35-15.32A12.14,12.14,0,0,0,179.55,347.19Z" transform="translate(-152.3 -344.57)"/></svg>