<svg width="764" height="577" viewBox="0 0 764 577" fill="none" xmlns="http://www.w3.org/2000/svg">
<path d="M724.194 362.671C723.736 345.866 725.041 317.208 710.308 305.408C697.365 295.048 687.301 309.108 683.668 320.45C674.869 347.965 679 378.305 679.027 406.708C679.027 407.138 679.027 407.569 679.027 408.053C678.34 428.961 675.824 451.579 678.112 472.447C678.112 472.447 675.865 451.538 659.45 460.499C643.036 469.46 667.658 516.483 667.658 516.483C667.658 516.483 648.256 502.302 639.295 514.25C630.335 526.197 650.49 539.625 650.49 539.625C650.49 539.625 631.828 534.405 631.828 539.625C631.828 544.845 637.802 549.326 654.97 551.573H747.51C747.51 551.573 762.445 543.352 759.458 534.405C756.471 525.457 740.783 530.611 740.783 530.611C740.783 530.611 764.678 501.495 763.185 488.807C761.691 476.12 731.082 491.054 731.082 491.054C731.082 491.054 754.964 430.589 750.484 403.721C746.959 382.557 730.531 396.993 721.583 405.174C723.689 391.109 724.563 376.887 724.194 362.671Z" fill="#AE8DFF" stroke="white" stroke-linecap="round" stroke-linejoin="round"/>
<path opacity="0.5" d="M724.194 362.671C723.736 345.866 725.041 317.208 710.308 305.408C697.365 295.048 687.301 309.108 683.668 320.45C674.869 347.965 679 378.305 679.027 406.708C679.027 407.138 679.027 407.569 679.027 408.053C678.34 428.961 675.824 451.579 678.112 472.447C678.112 472.447 675.865 451.538 659.45 460.499C643.036 469.46 667.658 516.483 667.658 516.483C667.658 516.483 648.256 502.302 639.295 514.25C630.335 526.197 650.49 539.625 650.49 539.625C650.49 539.625 631.828 534.405 631.828 539.625C631.828 544.845 637.802 549.326 654.97 551.573H747.51C747.51 551.573 762.445 543.352 759.458 534.405C756.471 525.457 740.783 530.611 740.783 530.611C740.783 530.611 764.678 501.495 763.185 488.807C761.691 476.12 731.082 491.054 731.082 491.054C731.082 491.054 754.964 430.589 750.484 403.721C746.959 382.557 730.531 396.993 721.583 405.174C723.689 391.109 724.563 376.887 724.194 362.671Z" fill="white"/>
<path d="M694.504 550.765L701.231 345.489" stroke="white" stroke-linecap="round" stroke-linejoin="round"/>
<path d="M698.242 464.926L733.318 432.083" stroke="white" stroke-linecap="round" stroke-linejoin="round"/>
<path d="M714.656 449.991L722.124 429.096" stroke="white" stroke-linecap="round" stroke-linejoin="round"/>
<path d="M669.125 490.301L695.994 519.416" stroke="white" stroke-linecap="round" stroke-linejoin="round"/>
<path d="M740.786 506.729L695.996 529.87" stroke="white" stroke-linecap="round" stroke-linejoin="round"/>
<path d="M716.902 520.156L733.317 519.416" stroke="white" stroke-linecap="round" stroke-linejoin="round"/>
<path d="M694.504 550.765L701.231 345.489" stroke="#AE8DFF" stroke-linecap="round" stroke-linejoin="round"/>
<path d="M698.242 464.926L733.318 432.083" stroke="#AE8DFF" stroke-linecap="round" stroke-linejoin="round"/>
<path d="M714.656 449.991L722.124 429.096" stroke="#AE8DFF" stroke-linecap="round" stroke-linejoin="round"/>
<path d="M669.125 490.301L695.994 519.416" stroke="#AE8DFF" stroke-linecap="round" stroke-linejoin="round"/>
<path d="M740.786 506.729L695.996 529.87" stroke="#AE8DFF" stroke-linecap="round" stroke-linejoin="round"/>
<path d="M716.902 520.156L733.317 519.416" stroke="#AE8DFF" stroke-linecap="round" stroke-linejoin="round"/>
<g opacity="0.8">
<path opacity="0.8" d="M694.5 550.765L701.227 345.489" stroke="white" stroke-linecap="round" stroke-linejoin="round"/>
<path opacity="0.8" d="M698.242 464.926L733.318 432.083" stroke="white" stroke-linecap="round" stroke-linejoin="round"/>
<path opacity="0.8" d="M714.656 449.991L722.124 429.096" stroke="white" stroke-linecap="round" stroke-linejoin="round"/>
<path opacity="0.8" d="M669.125 490.301L695.994 519.416" stroke="white" stroke-linecap="round" stroke-linejoin="round"/>
<path opacity="0.8" d="M740.782 506.729L695.992 529.87" stroke="white" stroke-linecap="round" stroke-linejoin="round"/>
<path opacity="0.8" d="M716.902 520.156L733.317 519.416" stroke="white" stroke-linecap="round" stroke-linejoin="round"/>
</g>
<path d="M566.281 509.285C566.281 530.153 582.817 547.079 582.817 547.079C582.817 547.079 599.353 530.153 599.353 509.285C599.353 488.417 582.817 471.491 582.817 471.491C582.817 471.491 566.281 488.404 566.281 509.285Z" fill="#AE8DFF"/>
<path d="M554.819 541.482C562.892 550.537 576.534 551.519 576.534 551.519C576.534 551.519 577.194 537.809 569.175 528.754C561.156 519.699 547.459 518.717 547.459 518.717C547.459 518.717 546.786 532.427 554.819 541.482Z" fill="#AE8DFF"/>
<path d="M596.956 528.445C588.52 537.123 588.574 550.846 588.574 550.846C588.574 550.846 602.284 550.483 610.707 541.791C619.13 533.1 619.103 519.39 619.103 519.39C619.103 519.39 605.379 519.753 596.956 528.445Z" fill="#AE8DFF"/>
<g opacity="0.5">
<path opacity="0.5" d="M566.277 509.285C566.277 530.153 582.813 547.079 582.813 547.079C582.813 547.079 599.349 530.153 599.349 509.285C599.349 488.417 582.813 471.491 582.813 471.491C582.813 471.491 566.277 488.404 566.277 509.285Z" fill="white"/>
<path opacity="0.5" d="M582.812 547.079V471.491" stroke="white" stroke-linecap="round" stroke-linejoin="round"/>
<path opacity="0.5" d="M582.815 498.36L573.559 490.273" stroke="white" stroke-linecap="round" stroke-linejoin="round"/>
<path opacity="0.5" d="M582.961 510.845L594.424 494.242" stroke="white" stroke-linecap="round" stroke-linejoin="round"/>
<path opacity="0.5" d="M582.814 518.044L569.145 505.854" stroke="white" stroke-linecap="round" stroke-linejoin="round"/>
<path opacity="0.5" d="M582.961 527.745L596.483 515.703" stroke="white" stroke-linecap="round" stroke-linejoin="round"/>
<path opacity="0.5" d="M582.96 536.127L572.371 527.745" stroke="white" stroke-linecap="round" stroke-linejoin="round"/>
<path opacity="0.5" d="M554.815 541.482C562.888 550.537 576.531 551.519 576.531 551.519C576.531 551.519 577.19 537.809 569.171 528.754C561.152 519.699 547.455 518.717 547.455 518.717C547.455 518.717 546.783 532.427 554.815 541.482Z" fill="white"/>
<path opacity="0.5" d="M576.528 551.519L547.453 518.717" stroke="white" stroke-linecap="round" stroke-linejoin="round"/>
<path opacity="0.5" d="M557.787 530.382L550.656 530.436" stroke="white" stroke-linecap="round" stroke-linejoin="round"/>
<path opacity="0.5" d="M562.659 535.736L561.246 524.125" stroke="white" stroke-linecap="round" stroke-linejoin="round"/>
<path opacity="0.5" d="M565.362 538.925L554.746 538.885" stroke="white" stroke-linecap="round" stroke-linejoin="round"/>
<path opacity="0.5" d="M569.156 543.07L570.381 532.643" stroke="white" stroke-linecap="round" stroke-linejoin="round"/>
<path opacity="0.5" d="M572.387 546.702L564.57 547.146" stroke="white" stroke-linecap="round" stroke-linejoin="round"/>
<path opacity="0.5" d="M596.956 528.445C588.52 537.123 588.574 550.846 588.574 550.846C588.574 550.846 602.284 550.483 610.707 541.791C619.13 533.1 619.103 519.39 619.103 519.39C619.103 519.39 605.379 519.753 596.956 528.445Z" fill="white"/>
<path opacity="0.5" d="M588.574 550.846L619.103 519.39" stroke="white" stroke-linecap="round" stroke-linejoin="round"/>
<path opacity="0.5" d="M608.243 530.57L607.664 523.466" stroke="white" stroke-linecap="round" stroke-linejoin="round"/>
<path opacity="0.5" d="M603.266 535.831L614.742 533.544" stroke="white" stroke-linecap="round" stroke-linejoin="round"/>
<path opacity="0.5" d="M600.293 538.765L599.539 528.176" stroke="white" stroke-linecap="round" stroke-linejoin="round"/>
<path opacity="0.5" d="M596.43 542.854L606.924 543.311" stroke="white" stroke-linecap="round" stroke-linejoin="round"/>
<path opacity="0.5" d="M593.054 546.339L592.031 538.589" stroke="white" stroke-linecap="round" stroke-linejoin="round"/>
</g>
<path d="M582.816 547.079V471.491" stroke="#AE8DFF" stroke-linecap="round" stroke-linejoin="round"/>
<path d="M582.815 498.36L573.559 490.273" stroke="#AE8DFF" stroke-linecap="round" stroke-linejoin="round"/>
<path d="M582.961 510.846L594.424 494.243" stroke="#AE8DFF" stroke-linecap="round" stroke-linejoin="round"/>
<path d="M582.814 518.044L569.145 505.854" stroke="#AE8DFF" stroke-linecap="round" stroke-linejoin="round"/>
<path d="M582.961 527.745L596.483 515.703" stroke="#AE8DFF" stroke-linecap="round" stroke-linejoin="round"/>
<path d="M582.964 536.126L572.375 527.744" stroke="#AE8DFF" stroke-linecap="round" stroke-linejoin="round"/>
<g opacity="0.7">
<path opacity="0.7" d="M582.816 547.079V471.491" stroke="white" stroke-linecap="round" stroke-linejoin="round"/>
<path opacity="0.7" d="M582.815 498.36L573.559 490.273" stroke="white" stroke-linecap="round" stroke-linejoin="round"/>
<path opacity="0.7" d="M582.961 510.845L594.424 494.242" stroke="white" stroke-linecap="round" stroke-linejoin="round"/>
<path opacity="0.7" d="M582.814 518.044L569.145 505.854" stroke="white" stroke-linecap="round" stroke-linejoin="round"/>
<path opacity="0.7" d="M582.961 527.745L596.483 515.703" stroke="white" stroke-linecap="round" stroke-linejoin="round"/>
<path opacity="0.7" d="M582.964 536.127L572.375 527.745" stroke="white" stroke-linecap="round" stroke-linejoin="round"/>
</g>
<path d="M576.532 551.519L547.457 518.717" stroke="#AE8DFF" stroke-linecap="round" stroke-linejoin="round"/>
<path d="M557.791 530.382L550.66 530.436" stroke="#AE8DFF" stroke-linecap="round" stroke-linejoin="round"/>
<path d="M562.659 535.737L561.246 524.126" stroke="#AE8DFF" stroke-linecap="round" stroke-linejoin="round"/>
<path d="M565.366 538.925L554.75 538.885" stroke="#AE8DFF" stroke-linecap="round" stroke-linejoin="round"/>
<path d="M569.16 543.07L570.385 532.643" stroke="#AE8DFF" stroke-linecap="round" stroke-linejoin="round"/>
<path d="M572.387 546.702L564.57 547.146" stroke="#AE8DFF" stroke-linecap="round" stroke-linejoin="round"/>
<g opacity="0.7">
<path opacity="0.7" d="M576.532 551.519L547.457 518.717" stroke="white" stroke-linecap="round" stroke-linejoin="round"/>
<path opacity="0.7" d="M557.791 530.382L550.66 530.436" stroke="white" stroke-linecap="round" stroke-linejoin="round"/>
<path opacity="0.7" d="M562.659 535.737L561.246 524.126" stroke="white" stroke-linecap="round" stroke-linejoin="round"/>
<path opacity="0.7" d="M565.366 538.925L554.75 538.885" stroke="white" stroke-linecap="round" stroke-linejoin="round"/>
<path opacity="0.7" d="M569.16 543.07L570.385 532.643" stroke="white" stroke-linecap="round" stroke-linejoin="round"/>
<path opacity="0.7" d="M572.387 546.702L564.57 547.146" stroke="white" stroke-linecap="round" stroke-linejoin="round"/>
</g>
<path d="M588.574 550.846L619.103 519.39" stroke="#AE8DFF" stroke-linecap="round" stroke-linejoin="round"/>
<path d="M608.247 530.57L607.668 523.466" stroke="#AE8DFF" stroke-linecap="round" stroke-linejoin="round"/>
<path d="M603.266 535.83L614.742 533.543" stroke="#AE8DFF" stroke-linecap="round" stroke-linejoin="round"/>
<path d="M600.293 538.764L599.539 528.175" stroke="#AE8DFF" stroke-linecap="round" stroke-linejoin="round"/>
<path d="M596.43 542.854L606.924 543.312" stroke="#AE8DFF" stroke-linecap="round" stroke-linejoin="round"/>
<path d="M593.054 546.339L592.031 538.589" stroke="#AE8DFF" stroke-linecap="round" stroke-linejoin="round"/>
<g opacity="0.7">
<path opacity="0.7" d="M588.574 550.845L619.103 519.389" stroke="white" stroke-linecap="round" stroke-linejoin="round"/>
<path opacity="0.7" d="M608.247 530.57L607.668 523.466" stroke="white" stroke-linecap="round" stroke-linejoin="round"/>
<path opacity="0.7" d="M603.27 535.83L614.746 533.543" stroke="white" stroke-linecap="round" stroke-linejoin="round"/>
<path opacity="0.7" d="M600.293 538.764L599.539 528.175" stroke="white" stroke-linecap="round" stroke-linejoin="round"/>
<path opacity="0.7" d="M596.434 542.854L606.928 543.311" stroke="white" stroke-linecap="round" stroke-linejoin="round"/>
<path opacity="0.7" d="M593.054 546.338L592.031 538.588" stroke="white" stroke-linecap="round" stroke-linejoin="round"/>
</g>
<path d="M40.0585 362.671C40.5025 345.866 39.2109 317.208 53.9436 305.408C66.8869 295.048 76.9509 309.108 80.5702 320.45C89.3829 347.965 85.2389 378.305 85.2254 406.708C85.2254 407.138 85.2254 407.569 85.2254 408.053C85.9251 428.961 88.4276 451.579 86.1538 472.447C86.1538 472.447 88.3873 451.538 104.815 460.499C121.243 469.46 96.5946 516.483 96.5946 516.483C96.5946 516.483 116.009 502.302 124.97 514.25C133.931 526.197 113.803 539.571 113.803 539.571C113.803 539.571 132.464 534.351 132.464 539.571C132.464 544.792 126.491 549.272 109.323 551.519H16.7418C16.7418 551.519 1.80724 543.298 4.79415 534.351C7.78106 525.404 23.4556 530.611 23.4556 530.611C23.4556 530.611 -0.42622 501.495 1.06723 488.807C2.56069 476.12 33.1698 491.054 33.1698 491.054C33.1698 491.054 9.27451 430.589 13.7549 403.761C17.28 382.597 33.7214 397.034 42.6553 405.214C40.5513 391.136 39.6824 376.901 40.0585 362.671V362.671Z" fill="#AE8DFF" stroke="white" stroke-linecap="round" stroke-linejoin="round"/>
<path opacity="0.5" d="M40.0585 362.671C40.5025 345.866 39.2109 317.208 53.9436 305.408C66.8869 295.048 76.9509 309.108 80.5702 320.45C89.3829 347.965 85.2389 378.305 85.2254 406.708C85.2254 407.138 85.2254 407.569 85.2254 408.053C85.9251 428.961 88.4276 451.579 86.1538 472.447C86.1538 472.447 88.3873 451.538 104.815 460.499C121.243 469.46 96.5946 516.483 96.5946 516.483C96.5946 516.483 116.009 502.302 124.97 514.25C133.931 526.197 113.803 539.571 113.803 539.571C113.803 539.571 132.464 534.351 132.464 539.571C132.464 544.792 126.491 549.272 109.323 551.519H16.7418C16.7418 551.519 1.80724 543.298 4.79415 534.351C7.78106 525.404 23.4556 530.611 23.4556 530.611C23.4556 530.611 -0.42622 501.495 1.06723 488.807C2.56069 476.12 33.1698 491.054 33.1698 491.054C33.1698 491.054 9.27451 430.589 13.7549 403.761C17.28 382.597 33.7214 397.034 42.6553 405.214C40.5513 391.136 39.6824 376.901 40.0585 362.671V362.671Z" fill="white"/>
<path d="M69.7373 550.765L63.0234 345.489" stroke="white" stroke-linecap="round" stroke-linejoin="round"/>
<path d="M66.0153 464.926L30.9258 432.083" stroke="white" stroke-linecap="round" stroke-linejoin="round"/>
<path d="M49.5845 449.991L42.1172 429.096" stroke="white" stroke-linecap="round" stroke-linejoin="round"/>
<path d="M95.1148 490.301L68.2461 519.416" stroke="white" stroke-linecap="round" stroke-linejoin="round"/>
<path d="M23.457 506.729L68.2472 529.87" stroke="white" stroke-linecap="round" stroke-linejoin="round"/>
<path d="M47.3538 520.156L30.9258 519.416" stroke="white" stroke-linecap="round" stroke-linejoin="round"/>
<path d="M69.7373 550.765L63.0234 345.489" stroke="#AE8DFF" stroke-linecap="round" stroke-linejoin="round"/>
<path d="M66.0153 464.926L30.9258 432.083" stroke="#AE8DFF" stroke-linecap="round" stroke-linejoin="round"/>
<path d="M49.5845 449.991L42.1172 429.096" stroke="#AE8DFF" stroke-linecap="round" stroke-linejoin="round"/>
<path d="M95.1148 490.301L68.2461 519.416" stroke="#AE8DFF" stroke-linecap="round" stroke-linejoin="round"/>
<path d="M23.457 506.729L68.2472 529.87" stroke="#AE8DFF" stroke-linecap="round" stroke-linejoin="round"/>
<path d="M47.3538 520.156L30.9258 519.416" stroke="#AE8DFF" stroke-linecap="round" stroke-linejoin="round"/>
<g opacity="0.8">
<path opacity="0.8" d="M69.7412 550.765L63.0273 345.489" stroke="white" stroke-linecap="round" stroke-linejoin="round"/>
<path opacity="0.8" d="M66.0153 464.926L30.9258 432.083" stroke="white" stroke-linecap="round" stroke-linejoin="round"/>
<path opacity="0.8" d="M49.5845 449.991L42.1172 429.096" stroke="white" stroke-linecap="round" stroke-linejoin="round"/>
<path opacity="0.8" d="M95.1148 490.301L68.2461 519.416" stroke="white" stroke-linecap="round" stroke-linejoin="round"/>
<path opacity="0.8" d="M23.457 506.729L68.2472 529.87" stroke="white" stroke-linecap="round" stroke-linejoin="round"/>
<path opacity="0.8" d="M47.3538 520.156L30.9258 519.416" stroke="white" stroke-linecap="round" stroke-linejoin="round"/>
</g>
<path d="M200.665 509.285C200.665 530.153 184.13 547.079 184.13 547.079C184.13 547.079 167.621 530.153 167.621 509.285C167.621 488.417 184.157 471.491 184.157 471.491C184.157 471.491 200.665 488.404 200.665 509.285Z" fill="#AE8DFF"/>
<path d="M212.115 541.482C204.043 550.537 190.4 551.519 190.4 551.519C190.4 551.519 189.741 537.809 197.773 528.754C205.805 519.699 219.489 518.717 219.489 518.717C219.489 518.717 220.094 532.427 212.115 541.482Z" fill="#AE8DFF"/>
<path d="M169.99 528.445C178.412 537.123 178.372 550.846 178.372 550.846C178.372 550.846 164.662 550.483 156.226 541.791C147.79 533.1 147.844 519.39 147.844 519.39C147.844 519.39 161.554 519.753 169.99 528.445Z" fill="#AE8DFF"/>
<g opacity="0.5">
<path opacity="0.5" d="M200.665 509.285C200.665 530.153 184.13 547.079 184.13 547.079C184.13 547.079 167.621 530.153 167.621 509.285C167.621 488.417 184.157 471.491 184.157 471.491C184.157 471.491 200.665 488.404 200.665 509.285Z" fill="white"/>
<path opacity="0.5" d="M184.129 547.079V471.491" stroke="white" stroke-linecap="round" stroke-linejoin="round"/>
<path opacity="0.5" d="M184.129 498.36L193.386 490.273" stroke="white" stroke-linecap="round" stroke-linejoin="round"/>
<path opacity="0.5" d="M183.983 510.845L172.52 494.242" stroke="white" stroke-linecap="round" stroke-linejoin="round"/>
<path opacity="0.5" d="M184.129 518.044L197.799 505.854" stroke="white" stroke-linecap="round" stroke-linejoin="round"/>
<path opacity="0.5" d="M183.983 527.745L170.461 515.703" stroke="white" stroke-linecap="round" stroke-linejoin="round"/>
<path opacity="0.5" d="M183.984 536.127L194.56 527.745" stroke="white" stroke-linecap="round" stroke-linejoin="round"/>
<path opacity="0.5" d="M212.115 541.482C204.043 550.537 190.4 551.519 190.4 551.519C190.4 551.519 189.741 537.809 197.773 528.754C205.805 519.699 219.489 518.717 219.489 518.717C219.489 518.717 220.094 532.427 212.115 541.482Z" fill="white"/>
<path opacity="0.5" d="M190.398 551.519L219.487 518.717" stroke="white" stroke-linecap="round" stroke-linejoin="round"/>
<path opacity="0.5" d="M209.156 530.382L216.274 530.436" stroke="white" stroke-linecap="round" stroke-linejoin="round"/>
<path opacity="0.5" d="M204.285 535.736L205.698 524.125" stroke="white" stroke-linecap="round" stroke-linejoin="round"/>
<path opacity="0.5" d="M201.57 538.925L212.199 538.885" stroke="white" stroke-linecap="round" stroke-linejoin="round"/>
<path opacity="0.5" d="M197.775 543.07L196.551 532.643" stroke="white" stroke-linecap="round" stroke-linejoin="round"/>
<path opacity="0.5" d="M194.559 546.702L202.376 547.146" stroke="white" stroke-linecap="round" stroke-linejoin="round"/>
<path opacity="0.5" d="M169.99 528.445C178.412 537.123 178.372 550.846 178.372 550.846C178.372 550.846 164.662 550.483 156.226 541.791C147.79 533.1 147.844 519.39 147.844 519.39C147.844 519.39 161.554 519.753 169.99 528.445Z" fill="white"/>
<path opacity="0.5" d="M178.372 550.846L147.844 519.39" stroke="white" stroke-linecap="round" stroke-linejoin="round"/>
<path opacity="0.5" d="M158.688 530.57L159.28 523.466" stroke="white" stroke-linecap="round" stroke-linejoin="round"/>
<path opacity="0.5" d="M163.68 535.831L152.203 533.544" stroke="white" stroke-linecap="round" stroke-linejoin="round"/>
<path opacity="0.5" d="M166.641 538.765L167.408 528.176" stroke="white" stroke-linecap="round" stroke-linejoin="round"/>
<path opacity="0.5" d="M170.502 542.854L160.008 543.311" stroke="white" stroke-linecap="round" stroke-linejoin="round"/>
<path opacity="0.5" d="M173.891 546.339L174.9 538.589" stroke="white" stroke-linecap="round" stroke-linejoin="round"/>
</g>
<path d="M184.129 547.079V471.491" stroke="#AE8DFF" stroke-linecap="round" stroke-linejoin="round"/>
<path d="M184.129 498.36L193.386 490.273" stroke="#AE8DFF" stroke-linecap="round" stroke-linejoin="round"/>
<path d="M183.983 510.846L172.52 494.243" stroke="#AE8DFF" stroke-linecap="round" stroke-linejoin="round"/>
<path d="M184.129 518.044L197.799 505.854" stroke="#AE8DFF" stroke-linecap="round" stroke-linejoin="round"/>
<path d="M183.983 527.745L170.461 515.703" stroke="#AE8DFF" stroke-linecap="round" stroke-linejoin="round"/>
<path d="M183.98 536.126L194.556 527.744" stroke="#AE8DFF" stroke-linecap="round" stroke-linejoin="round"/>
<g opacity="0.7">
<path opacity="0.7" d="M184.129 547.079V471.491" stroke="white" stroke-linecap="round" stroke-linejoin="round"/>
<path opacity="0.7" d="M184.129 498.36L193.386 490.273" stroke="white" stroke-linecap="round" stroke-linejoin="round"/>
<path opacity="0.7" d="M183.979 510.845L172.516 494.242" stroke="white" stroke-linecap="round" stroke-linejoin="round"/>
<path opacity="0.7" d="M184.129 518.044L197.799 505.854" stroke="white" stroke-linecap="round" stroke-linejoin="round"/>
<path opacity="0.7" d="M183.979 527.745L170.457 515.703" stroke="white" stroke-linecap="round" stroke-linejoin="round"/>
<path opacity="0.7" d="M183.98 536.127L194.556 527.745" stroke="white" stroke-linecap="round" stroke-linejoin="round"/>
</g>
<path d="M190.398 551.519L219.487 518.717" stroke="#AE8DFF" stroke-linecap="round" stroke-linejoin="round"/>
<path d="M209.156 530.382L216.274 530.436" stroke="#AE8DFF" stroke-linecap="round" stroke-linejoin="round"/>
<path d="M204.285 535.737L205.698 524.126" stroke="#AE8DFF" stroke-linecap="round" stroke-linejoin="round"/>
<path d="M201.566 538.925L212.196 538.885" stroke="#AE8DFF" stroke-linecap="round" stroke-linejoin="round"/>
<path d="M197.771 543.07L196.547 532.643" stroke="#AE8DFF" stroke-linecap="round" stroke-linejoin="round"/>
<path d="M194.559 546.702L202.376 547.146" stroke="#AE8DFF" stroke-linecap="round" stroke-linejoin="round"/>
<g opacity="0.7">
<path opacity="0.7" d="M190.398 551.519L219.487 518.717" stroke="white" stroke-linecap="round" stroke-linejoin="round"/>
<path opacity="0.7" d="M209.152 530.382L216.27 530.436" stroke="white" stroke-linecap="round" stroke-linejoin="round"/>
<path opacity="0.7" d="M204.285 535.737L205.698 524.126" stroke="white" stroke-linecap="round" stroke-linejoin="round"/>
<path opacity="0.7" d="M201.566 538.925L212.196 538.885" stroke="white" stroke-linecap="round" stroke-linejoin="round"/>
<path opacity="0.7" d="M197.771 543.07L196.547 532.643" stroke="white" stroke-linecap="round" stroke-linejoin="round"/>
<path opacity="0.7" d="M194.555 546.702L202.372 547.146" stroke="white" stroke-linecap="round" stroke-linejoin="round"/>
</g>
<path d="M178.372 550.846L147.844 519.39" stroke="#AE8DFF" stroke-linecap="round" stroke-linejoin="round"/>
<path d="M158.688 530.57L159.28 523.466" stroke="#AE8DFF" stroke-linecap="round" stroke-linejoin="round"/>
<path d="M163.68 535.83L152.203 533.543" stroke="#AE8DFF" stroke-linecap="round" stroke-linejoin="round"/>
<path d="M166.641 538.764L167.408 528.175" stroke="#AE8DFF" stroke-linecap="round" stroke-linejoin="round"/>
<path d="M170.502 542.854L160.008 543.312" stroke="#AE8DFF" stroke-linecap="round" stroke-linejoin="round"/>
<path d="M173.891 546.339L174.9 538.589" stroke="#AE8DFF" stroke-linecap="round" stroke-linejoin="round"/>
<g opacity="0.7">
<path opacity="0.7" d="M178.372 550.845L147.844 519.389" stroke="white" stroke-linecap="round" stroke-linejoin="round"/>
<path opacity="0.7" d="M158.688 530.57L159.28 523.466" stroke="white" stroke-linecap="round" stroke-linejoin="round"/>
<path opacity="0.7" d="M163.68 535.83L152.203 533.543" stroke="white" stroke-linecap="round" stroke-linejoin="round"/>
<path opacity="0.7" d="M166.641 538.764L167.408 528.175" stroke="white" stroke-linecap="round" stroke-linejoin="round"/>
<path opacity="0.7" d="M170.502 542.854L160.008 543.311" stroke="white" stroke-linecap="round" stroke-linejoin="round"/>
<path opacity="0.7" d="M173.891 546.338L174.9 538.588" stroke="white" stroke-linecap="round" stroke-linejoin="round"/>
</g>
<path d="M573.118 151.649H209.401C209.292 151.651 209.184 151.631 209.082 151.59C208.981 151.55 208.889 151.49 208.812 151.413C208.734 151.337 208.672 151.246 208.63 151.146C208.588 151.045 208.566 150.937 208.566 150.828C208.566 150.607 208.654 150.395 208.811 150.238C208.967 150.082 209.179 149.994 209.401 149.994H573.118C573.226 149.994 573.334 150.016 573.435 150.058C573.535 150.1 573.626 150.162 573.703 150.239C573.779 150.317 573.839 150.409 573.88 150.51C573.92 150.611 573.94 150.719 573.938 150.828C573.938 151.046 573.852 151.255 573.698 151.409C573.544 151.563 573.335 151.649 573.118 151.649Z" fill="#AE8DFF"/>
<g opacity="0.3">
<path opacity="0.3" d="M573.118 151.649H209.401C209.292 151.651 209.184 151.631 209.082 151.59C208.981 151.55 208.889 151.49 208.812 151.413C208.734 151.337 208.672 151.246 208.63 151.146C208.588 151.045 208.566 150.937 208.566 150.828C208.566 150.607 208.654 150.395 208.811 150.238C208.967 150.082 209.179 149.994 209.401 149.994H573.118C573.226 149.994 573.334 150.016 573.435 150.058C573.535 150.1 573.626 150.162 573.703 150.239C573.779 150.317 573.839 150.409 573.88 150.51C573.92 150.611 573.94 150.719 573.938 150.828C573.938 151.046 573.852 151.255 573.698 151.409C573.544 151.563 573.335 151.649 573.118 151.649Z" fill="white"/>
</g>
<path d="M572.391 295.909H208.674C208.565 295.911 208.457 295.891 208.356 295.85C208.255 295.81 208.163 295.75 208.085 295.673C208.007 295.597 207.946 295.506 207.904 295.405C207.862 295.305 207.84 295.197 207.84 295.088C207.84 294.867 207.928 294.655 208.084 294.498C208.241 294.342 208.453 294.254 208.674 294.254H572.391C572.5 294.254 572.608 294.276 572.708 294.318C572.809 294.36 572.9 294.421 572.976 294.499C573.052 294.577 573.113 294.669 573.153 294.77C573.194 294.871 573.213 294.979 573.212 295.088C573.212 295.196 573.19 295.303 573.149 295.402C573.108 295.502 573.047 295.592 572.971 295.668C572.895 295.745 572.805 295.805 572.705 295.846C572.605 295.888 572.499 295.909 572.391 295.909V295.909Z" fill="#AE8DFF"/>
<g opacity="0.3">
<path opacity="0.3" d="M572.391 295.909H208.674C208.565 295.911 208.457 295.891 208.356 295.85C208.255 295.81 208.163 295.75 208.085 295.673C208.007 295.597 207.946 295.506 207.904 295.405C207.862 295.305 207.84 295.197 207.84 295.088C207.84 294.867 207.928 294.655 208.084 294.498C208.241 294.342 208.453 294.254 208.674 294.254H572.391C572.5 294.254 572.608 294.276 572.708 294.318C572.809 294.36 572.9 294.421 572.976 294.499C573.052 294.577 573.113 294.669 573.153 294.77C573.194 294.871 573.213 294.979 573.212 295.088C573.212 295.196 573.19 295.303 573.149 295.402C573.108 295.502 573.047 295.592 572.971 295.668C572.895 295.745 572.805 295.805 572.705 295.846C572.605 295.888 572.499 295.909 572.391 295.909V295.909Z" fill="white"/>
</g>
<path d="M572.391 413.839H208.674C208.453 413.839 208.241 413.751 208.084 413.594C207.928 413.438 207.84 413.226 207.84 413.004C207.84 412.895 207.862 412.788 207.904 412.687C207.946 412.587 208.007 412.496 208.085 412.419C208.163 412.343 208.255 412.283 208.356 412.242C208.457 412.202 208.565 412.182 208.674 412.184H572.391C572.499 412.184 572.605 412.205 572.705 412.246C572.805 412.287 572.895 412.348 572.971 412.424C573.047 412.5 573.108 412.591 573.149 412.69C573.19 412.79 573.212 412.897 573.212 413.004C573.213 413.113 573.194 413.221 573.153 413.323C573.113 413.424 573.052 413.516 572.976 413.593C572.9 413.671 572.809 413.733 572.708 413.775C572.608 413.817 572.5 413.839 572.391 413.839Z" fill="#AE8DFF"/>
<g opacity="0.3">
<path opacity="0.3" d="M572.391 413.839H208.674C208.453 413.839 208.241 413.751 208.084 413.594C207.928 413.438 207.84 413.226 207.84 413.004C207.84 412.895 207.862 412.788 207.904 412.687C207.946 412.587 208.007 412.496 208.085 412.419C208.163 412.343 208.255 412.283 208.356 412.242C208.457 412.202 208.565 412.182 208.674 412.184H572.391C572.499 412.184 572.605 412.205 572.705 412.246C572.805 412.287 572.895 412.348 572.971 412.424C573.047 412.5 573.108 412.591 573.149 412.69C573.19 412.79 573.212 412.897 573.212 413.004C573.213 413.113 573.194 413.221 573.153 413.323C573.113 413.424 573.052 413.516 572.976 413.593C572.9 413.671 572.809 413.733 572.708 413.775C572.608 413.817 572.5 413.839 572.391 413.839Z" fill="white"/>
</g>
<path d="M285.996 433.792V556.524" stroke="#263238" stroke-width="0.265171" stroke-miterlimit="10"/>
<path d="M303.527 433.792V556.524" stroke="#263238" stroke-width="0.265171" stroke-miterlimit="10"/>
<path d="M321.059 433.792V556.524" stroke="#263238" stroke-width="0.265171" stroke-miterlimit="10"/>
<path d="M338.59 433.792V556.524" stroke="#263238" stroke-width="0.265171" stroke-miterlimit="10"/>
<path d="M356.121 433.792V556.524" stroke="#263238" stroke-width="0.265171" stroke-miterlimit="10"/>
<path d="M373.652 433.792V556.524" stroke="#263238" stroke-width="0.265171" stroke-miterlimit="10"/>
<path d="M391.184 433.792V556.524" stroke="#263238" stroke-width="0.265171" stroke-miterlimit="10"/>
<path d="M408.715 433.792V556.524" stroke="#263238" stroke-width="0.265171" stroke-miterlimit="10"/>
<path d="M426.246 433.792V556.524" stroke="#263238" stroke-width="0.265171" stroke-miterlimit="10"/>
<path d="M443.777 433.792V556.524" stroke="#263238" stroke-width="0.265171" stroke-miterlimit="10"/>
<path d="M461.309 433.792V556.524" stroke="#263238" stroke-width="0.265171" stroke-miterlimit="10"/>
<path d="M478.84 433.792V556.524" stroke="#263238" stroke-width="0.265171" stroke-miterlimit="10"/>
<path d="M286.871 445.188H477.966" stroke="#263238" stroke-width="0.265171" stroke-miterlimit="10"/>
<path d="M286.871 461.845H477.966" stroke="#263238" stroke-width="0.265171" stroke-miterlimit="10"/>
<path d="M286.871 478.501H477.966" stroke="#263238" stroke-width="0.265171" stroke-miterlimit="10"/>
<path d="M286.871 495.158H477.966" stroke="#263238" stroke-width="0.265171" stroke-miterlimit="10"/>
<path d="M286.871 511.815H477.966" stroke="#263238" stroke-width="0.265171" stroke-miterlimit="10"/>
<path d="M286.871 528.472H477.966" stroke="#263238" stroke-width="0.265171" stroke-miterlimit="10"/>
<path d="M286.871 545.128H477.966" stroke="#263238" stroke-width="0.265171" stroke-miterlimit="10"/>
<path d="M327.019 476.847L301.375 555.906H355.086L329.428 476.847C329.346 476.592 329.185 476.369 328.969 476.212C328.752 476.054 328.491 475.969 328.224 475.969C327.956 475.969 327.695 476.054 327.478 476.212C327.262 476.369 327.101 476.592 327.019 476.847V476.847Z" fill="#AE8DFF" stroke="#263238" stroke-width="1.06068" stroke-miterlimit="10"/>
<path d="M375.912 450.664L341.777 555.906H412.494L378.32 450.664C378.238 450.409 378.077 450.187 377.861 450.029C377.644 449.871 377.384 449.786 377.116 449.786C376.848 449.786 376.587 449.871 376.371 450.029C376.154 450.187 375.993 450.409 375.912 450.664V450.664Z" fill="#263238" stroke="#263238" stroke-width="1.06068" stroke-miterlimit="10"/>
<path d="M420.905 494.93L401.113 555.906H443.091L423.259 494.93C423.167 494.693 423.005 494.49 422.795 494.347C422.585 494.204 422.336 494.127 422.082 494.127C421.828 494.127 421.58 494.204 421.37 494.347C421.16 494.49 420.998 494.693 420.905 494.93V494.93Z" fill="#AE8DFF" stroke="#263238" stroke-width="1.06068" stroke-miterlimit="10"/>
<path d="M448.015 515.864L435.031 555.905H463.407L450.423 515.864C450.341 515.609 450.181 515.387 449.964 515.229C449.748 515.071 449.487 514.986 449.219 514.986C448.951 514.986 448.69 515.071 448.474 515.229C448.257 515.387 448.097 515.609 448.015 515.864V515.864Z" fill="#263238" stroke="#263238" stroke-width="1.06068" stroke-miterlimit="10"/>
<path d="M283.682 395.001C275.989 395.001 268.469 392.72 262.072 388.446C255.676 384.172 250.69 378.097 247.746 370.989C244.802 363.882 244.032 356.061 245.533 348.516C247.033 340.97 250.738 334.04 256.178 328.6C261.618 323.16 268.549 319.455 276.094 317.954C283.639 316.454 291.46 317.224 298.568 320.168C305.675 323.112 311.75 328.097 316.024 334.494C320.298 340.891 322.579 348.411 322.579 356.104C322.569 366.417 318.467 376.304 311.175 383.597C303.883 390.889 293.995 394.991 283.682 395.001V395.001ZM283.682 328.63C278.249 328.633 272.938 330.246 268.422 333.267C263.906 336.287 260.386 340.579 258.309 345.6C256.232 350.62 255.689 356.144 256.751 361.472C257.813 366.801 260.43 371.695 264.273 375.536C268.116 379.377 273.012 381.992 278.341 383.051C283.67 384.11 289.193 383.566 294.213 381.486C299.232 379.406 303.522 375.884 306.541 371.367C309.559 366.849 311.17 361.537 311.17 356.104C311.163 348.817 308.264 341.831 303.11 336.68C297.957 331.529 290.969 328.634 283.682 328.63Z" fill="#263238" stroke="#263238" stroke-width="1.06068" stroke-miterlimit="10"/>
<path d="M283.681 395.001C278.432 395.017 273.234 393.963 268.406 391.901C263.578 389.84 259.221 386.816 255.602 383.013L263.849 375.115C266.405 377.802 269.482 379.938 272.892 381.393C276.302 382.849 279.974 383.592 283.681 383.578C287.289 383.578 290.862 382.868 294.195 381.487C297.528 380.106 300.557 378.083 303.108 375.531C305.66 372.98 307.683 369.951 309.064 366.618C310.445 363.285 311.155 359.712 311.155 356.104C311.155 352.496 310.445 348.924 309.064 345.59C307.683 342.257 305.66 339.228 303.108 336.677C300.557 334.126 297.528 332.102 294.195 330.721C290.862 329.341 287.289 328.63 283.681 328.63V317.207C288.789 317.207 293.847 318.213 298.566 320.168C303.286 322.123 307.574 324.988 311.186 328.6C314.798 332.212 317.663 336.5 319.617 341.219C321.572 345.938 322.578 350.996 322.578 356.104C322.578 361.212 321.572 366.27 319.617 370.989C317.663 375.709 314.798 379.997 311.186 383.609C307.574 387.22 303.286 390.086 298.566 392.04C293.847 393.995 288.789 395.001 283.681 395.001V395.001Z" fill="#AE8DFF" stroke="#263238" stroke-width="1.06068" stroke-miterlimit="10"/>
<path d="M379.614 395.001C371.92 395.004 364.398 392.725 358 388.452C351.602 384.18 346.614 378.106 343.668 370.999C340.722 363.891 339.95 356.07 341.449 348.524C342.948 340.978 346.652 334.046 352.091 328.605C357.53 323.163 364.461 319.457 372.007 317.955C379.553 316.453 387.374 317.223 394.482 320.167C401.591 323.11 407.666 328.096 411.941 334.493C416.216 340.89 418.497 348.41 418.497 356.104C418.487 366.415 414.387 376.3 407.098 383.592C399.808 390.884 389.924 394.987 379.614 395.001V395.001ZM379.614 328.63C374.181 328.635 368.872 330.251 364.357 333.273C359.843 336.295 356.325 340.588 354.25 345.609C352.175 350.63 351.634 356.153 352.698 361.481C353.761 366.808 356.38 371.701 360.223 375.541C364.066 379.38 368.962 381.994 374.291 383.052C379.619 384.11 385.142 383.565 390.161 381.484C395.179 379.404 399.469 375.883 402.486 371.365C405.504 366.848 407.115 361.537 407.115 356.104C407.104 348.816 404.202 341.83 399.046 336.679C393.891 331.528 386.902 328.634 379.614 328.63V328.63Z" fill="#263238" stroke="#263238" stroke-width="1.06068" stroke-miterlimit="10"/>
<path d="M394.75 391.934L390.31 381.426C396.145 378.952 400.946 374.539 403.9 368.932C406.855 363.326 407.781 356.871 406.523 350.659C405.264 344.448 401.898 338.863 396.995 334.848C392.091 330.834 385.951 328.637 379.613 328.63V317.207C388.588 317.208 397.287 320.313 404.234 325.994C411.182 331.676 415.95 339.586 417.732 348.382C419.514 357.178 418.199 366.32 414.01 374.258C409.822 382.195 403.017 388.44 394.75 391.934V391.934Z" fill="#AE8DFF" stroke="#263238" stroke-width="1.06068" stroke-miterlimit="10"/>
<path d="M475.53 395.001C467.837 395.001 460.316 392.72 453.92 388.446C447.523 384.172 442.538 378.097 439.594 370.989C436.65 363.882 435.879 356.061 437.38 348.516C438.881 340.97 442.586 334.04 448.026 328.6C453.465 323.16 460.396 319.455 467.941 317.954C475.487 316.454 483.308 317.224 490.415 320.168C497.523 323.112 503.598 328.097 507.872 334.494C512.146 340.891 514.427 348.411 514.427 356.104C514.416 366.417 510.315 376.304 503.023 383.597C495.73 390.889 485.843 394.991 475.53 395.001V395.001ZM475.53 328.63C470.096 328.63 464.784 330.241 460.266 333.26C455.748 336.279 452.227 340.57 450.147 345.59C448.068 350.61 447.524 356.135 448.584 361.464C449.644 366.794 452.26 371.689 456.103 375.531C459.945 379.374 464.841 381.99 470.17 383.05C475.499 384.111 481.024 383.566 486.044 381.487C491.064 379.408 495.355 375.886 498.374 371.368C501.393 366.85 503.004 361.538 503.004 356.104C502.997 348.82 500.1 341.836 494.949 336.685C489.798 331.534 482.814 328.637 475.53 328.63V328.63Z" fill="#263238" stroke="#263238" stroke-width="1.06068" stroke-miterlimit="10"/>
<path d="M502.468 350.628C501.191 344.429 497.819 338.857 492.919 334.851C488.018 330.845 481.888 328.648 475.559 328.63V317.207C484.523 317.23 493.207 320.339 500.148 326.011C507.09 331.684 511.867 339.574 513.675 348.354L502.468 350.628Z" fill="#AE8DFF" stroke="#263238" stroke-width="1.06068" stroke-miterlimit="10"/>
<path d="M299.191 274.14H481.864" stroke="#263238" stroke-width="1.06068" stroke-miterlimit="10"/>
<path d="M299.191 274.139V270.251" stroke="#263238" stroke-width="1.06068" stroke-miterlimit="10"/>
<path d="M335.719 274.139V270.251" stroke="#263238" stroke-width="1.06068" stroke-miterlimit="10"/>
<path d="M372.262 274.139V270.251" stroke="#263238" stroke-width="1.06068" stroke-miterlimit="10"/>
<path d="M408.793 274.139V270.251" stroke="#263238" stroke-width="1.06068" stroke-miterlimit="10"/>
<path d="M445.32 274.139V270.251" stroke="#263238" stroke-width="1.06068" stroke-miterlimit="10"/>
<path d="M481.863 274.139V270.251" stroke="#263238" stroke-width="1.06068" stroke-miterlimit="10"/>
<path d="M330.608 222.218H304.305V253.365H330.608V222.218Z" fill="#AE8DFF" stroke="#263238" stroke-width="1.06068" stroke-miterlimit="10"/>
<path d="M367.136 185.878H340.832V258.559H367.136V185.878Z" fill="#AE8DFF" stroke="#263238" stroke-width="1.06068" stroke-miterlimit="10"/>
<path d="M403.679 135.006H377.375V216.002H403.679V135.006Z" fill="#AE8DFF" stroke="#263238" stroke-width="1.06068" stroke-miterlimit="10"/>
<path d="M440.21 210.809H413.906V226.389H440.21V210.809Z" fill="#AE8DFF" stroke="#263238" stroke-width="1.06068" stroke-miterlimit="10"/>
<path d="M476.737 201.458H450.434V241.956H476.737V201.458Z" fill="#AE8DFF" stroke="#263238" stroke-width="1.06068" stroke-miterlimit="10"/>
<path d="M330.608 253.379H304.305V274.153H330.608V253.379Z" fill="#263238" stroke="#263238" stroke-width="1.06068" stroke-miterlimit="10"/>
<path d="M367.136 258.572H340.832V274.153H367.136V258.572Z" fill="#263238" stroke="#263238" stroke-width="1.06068" stroke-miterlimit="10"/>
<path d="M403.679 215.989H377.375V274.14H403.679V215.989Z" fill="#263238" stroke="#263238" stroke-width="1.06068" stroke-miterlimit="10"/>
<path d="M440.21 226.376H413.906V274.14H440.21V226.376Z" fill="#263238" stroke="#263238" stroke-width="1.06068" stroke-miterlimit="10"/>
<path d="M476.737 241.956H450.434V274.139H476.737V241.956Z" fill="#263238" stroke="#263238" stroke-width="1.06068" stroke-miterlimit="10"/>
<path d="M530.543 120.301C530.226 120.303 529.915 120.227 529.635 120.079C529.356 119.931 529.117 119.716 528.941 119.453L472.352 36.9227L414.941 98.1409L356.32 59.93L299.609 73.0885L242.01 119.87C241.61 120.195 241.098 120.347 240.586 120.294C240.073 120.241 239.603 119.987 239.278 119.587C238.954 119.188 238.801 118.676 238.854 118.163C238.907 117.651 239.161 117.181 239.561 116.856L297.86 69.5096L357.06 55.7725L414.349 93.1224L472.836 30.7471L532.144 117.26C532.345 117.55 532.463 117.89 532.485 118.242C532.507 118.595 532.432 118.947 532.268 119.26C532.105 119.573 531.859 119.835 531.557 120.019C531.255 120.202 530.909 120.3 530.556 120.301H530.543Z" fill="#263238"/>
<path d="M245.657 118.363C245.657 119.313 245.376 120.242 244.848 121.031C244.32 121.821 243.57 122.437 242.692 122.801C241.814 123.164 240.849 123.259 239.917 123.074C238.985 122.889 238.129 122.431 237.458 121.759C236.786 121.088 236.328 120.232 236.143 119.3C235.958 118.368 236.053 117.402 236.416 116.525C236.78 115.647 237.396 114.897 238.185 114.369C238.975 113.841 239.904 113.56 240.854 113.56C242.128 113.56 243.35 114.066 244.25 114.966C245.151 115.867 245.657 117.089 245.657 118.363Z" fill="#AE8DFF"/>
<path d="M298.737 76.1026C301.39 76.1026 303.54 73.9521 303.54 71.2994C303.54 68.6466 301.39 66.4961 298.737 66.4961C296.084 66.4961 293.934 68.6466 293.934 71.2994C293.934 73.9521 296.084 76.1026 298.737 76.1026Z" fill="#AE8DFF"/>
<path d="M356.682 62.6476C359.335 62.6476 361.485 60.4971 361.485 57.8443C361.485 55.1915 359.335 53.041 356.682 53.041C354.029 53.041 351.879 55.1915 351.879 57.8443C351.879 60.4971 354.029 62.6476 356.682 62.6476Z" fill="#AE8DFF"/>
<path d="M414.635 100.428C417.288 100.428 419.439 98.2773 419.439 95.6246C419.439 92.9718 417.288 90.8213 414.635 90.8213C411.983 90.8213 409.832 92.9718 409.832 95.6246C409.832 98.2773 411.983 100.428 414.635 100.428Z" fill="#AE8DFF"/>
<path d="M477.384 33.8414C477.384 34.7914 477.102 35.72 476.574 36.5099C476.047 37.2998 475.296 37.9155 474.419 38.279C473.541 38.6426 472.575 38.7377 471.644 38.5523C470.712 38.367 469.856 37.9095 469.184 37.2378C468.512 36.566 468.055 35.7102 467.87 34.7784C467.684 33.8467 467.779 32.8809 468.143 32.0032C468.507 31.1255 469.122 30.3754 469.912 29.8476C470.702 29.3198 471.631 29.0381 472.581 29.0381C473.855 29.0381 475.076 29.5441 475.977 30.4449C476.878 31.3457 477.384 32.5675 477.384 33.8414V33.8414Z" fill="#AE8DFF"/>
<path d="M535.333 118.363C535.333 119.313 535.051 120.242 534.524 121.031C533.996 121.821 533.246 122.437 532.368 122.801C531.49 123.164 530.525 123.259 529.593 123.074C528.661 122.889 527.805 122.431 527.133 121.759C526.462 121.088 526.004 120.232 525.819 119.3C525.634 118.368 525.729 117.402 526.092 116.525C526.456 115.647 527.071 114.897 527.861 114.369C528.651 113.841 529.58 113.56 530.53 113.56C531.804 113.56 533.025 114.066 533.926 114.966C534.827 115.867 535.333 117.089 535.333 118.363Z" fill="#AE8DFF"/>
<path d="M634.121 576.167C685.408 576.167 726.984 570.583 726.984 563.695C726.984 556.807 685.408 551.223 634.121 551.223C582.834 551.223 541.258 556.807 541.258 563.695C541.258 570.583 582.834 576.167 634.121 576.167Z" fill="#AE8DFF"/>
<path opacity="0.7" d="M634.121 576.167C685.408 576.167 726.984 570.583 726.984 563.695C726.984 556.807 685.408 551.223 634.121 551.223C582.834 551.223 541.258 556.807 541.258 563.695C541.258 570.583 582.834 576.167 634.121 576.167Z" fill="white"/>
<path d="M125.348 576.167C172.675 576.167 211.04 570.583 211.04 563.695C211.04 556.807 172.675 551.223 125.348 551.223C78.0219 551.223 39.6562 556.807 39.6562 563.695C39.6562 570.583 78.0219 576.167 125.348 576.167Z" fill="#AE8DFF"/>
<path opacity="0.7" d="M125.348 576.167C172.675 576.167 211.04 570.583 211.04 563.695C211.04 556.807 172.675 551.223 125.348 551.223C78.0219 551.223 39.6562 556.807 39.6562 563.695C39.6562 570.583 78.0219 576.167 125.348 576.167Z" fill="white"/>
<path d="M607.91 124.31C607.91 124.31 643.187 120.892 645.206 126.772C647.224 132.652 646.551 146.079 646.551 146.079C648.328 146.541 650.062 147.158 651.731 147.923C652.202 148.38 657.422 151.797 652.552 157.408C651.28 158.831 649.739 159.988 648.018 160.812C645.87 161.763 643.827 162.935 641.923 164.31L634.846 172.343L636.191 182.689C636.191 182.689 639.353 184.976 643.214 192.955C643.214 192.955 652.336 198.337 657.691 201.391C662.095 203.705 666.675 205.666 671.388 207.257C671.388 207.257 673.837 208.051 673.662 209.814C673.487 211.576 661.472 251.523 661.472 251.523L655.148 271.704C655.028 274.185 654.705 276.651 654.18 279.078C653.278 283.423 649.888 286.276 646.376 285.388L646.726 300.188C646.726 300.188 630.231 308.435 603.026 307.036C603.026 307.036 590.217 305.798 580.745 298.788L580.57 264.21L536.923 255.761C536.923 255.761 531.394 254.59 534.232 249.612C537.071 244.634 546.611 232.283 546.611 232.283L577.274 194.771C577.274 194.771 579.386 192.282 580.166 191.488C580.947 190.695 582.857 190.143 590.432 189.511C598.007 188.878 606.497 187.412 606.497 187.412C606.497 187.412 611.098 183.456 611.758 183.456C612.417 183.456 612.551 177.536 612.551 177.536C610.224 175.857 608.289 173.693 606.879 171.194C605.469 168.694 604.618 165.919 604.384 163.059C603.725 153.452 607.936 130.943 607.936 130.943L607.91 124.31Z" fill="white"/>
<path d="M581.284 298.654C581.284 298.654 577.57 353.818 577.57 380.216C577.57 406.614 579.225 427.993 580.046 446.533C580.867 465.074 577.57 477.842 580.45 491.431C583.329 505.02 589.935 544.577 589.935 544.577L597.698 549.259C597.698 549.259 599.044 517.789 601.869 506.675C604.695 495.562 605.583 448.592 607.251 434.169C608.919 419.745 614.261 368.672 614.261 368.672C614.261 368.672 634.86 422.221 639.825 443.237C644.789 464.253 661.661 511.613 665.388 523.144C669.115 534.674 674.86 551.761 674.86 551.761C676.606 552.272 678.44 552.409 680.242 552.165C681.021 552.102 681.77 551.842 682.42 551.409C683.07 550.976 683.598 550.384 683.955 549.689C683.955 549.689 678.479 515.192 676.071 498.427C673.098 477.694 668.254 446.533 665.307 435.003C662.361 423.472 657.894 405.335 657.894 396.684C657.894 388.033 646.781 301.157 646.781 301.157C646.781 301.157 608.058 318.015 581.284 298.654Z" fill="#263238"/>
<path d="M614.233 368.671L597.711 349.404" stroke="white" stroke-width="0.530341" stroke-miterlimit="10" stroke-linecap="round"/>
<path d="M593.488 350.817L607.091 363.478" stroke="white" stroke-width="0.530341" stroke-miterlimit="10" stroke-linecap="round"/>
<path d="M622.562 352.23C626.046 343.417 632.518 336.111 640.847 331.591" stroke="white" stroke-width="0.530341" stroke-miterlimit="10" stroke-linecap="round"/>
<path d="M641.774 305.812C641.774 305.812 639.904 312.836 642.245 317.06C644.586 321.285 646.94 321.285 646.94 321.285C646.94 321.285 651.152 344.252 651.152 357.384C651.152 370.515 648.34 371.915 651.152 386.446C653.964 400.977 655.847 405.672 655.847 414.108C655.847 422.544 659.588 428.182 662.871 433.335C666.154 438.488 667.095 453.517 667.095 459.585C667.095 465.653 668.966 472.245 670.849 478.34C670.849 478.34 671.293 492.01 673.661 495.212C676.029 498.414 676.473 509.286 676.473 509.286" stroke="white" stroke-width="0.530341" stroke-miterlimit="10" stroke-linecap="round"/>
<path d="M610.845 366.761C610.845 366.761 611.774 377.524 608.491 396.293C605.208 415.063 602.867 420.202 602.396 441.77C601.925 463.338 603.808 467.091 602.867 478.339C601.925 489.587 596.301 507.361 596.301 515.434C596.301 523.506 597.162 549.312 597.162 549.312" stroke="white" stroke-width="0.530341" stroke-miterlimit="10" stroke-linecap="round"/>
<path d="M600.523 308.624L601.465 312.378L607.56 313.777L606.618 309.095" stroke="white" stroke-width="0.530341" stroke-miterlimit="10" stroke-linecap="round"/>
<path d="M607.586 313.778C607.586 313.778 618.834 313.307 624.458 311.436L623.112 307.683" stroke="white" stroke-width="0.530341" stroke-miterlimit="10" stroke-linecap="round"/>
<path d="M628.188 306.74L629.533 311.436C629.533 311.436 638.534 310.925 639.88 309.579" stroke="white" stroke-width="0.530341" stroke-miterlimit="10" stroke-linecap="round"/>
<path d="M601.468 312.378C598.358 312.28 595.312 311.475 592.561 310.023L588.336 307.682L589.681 304.399" stroke="white" stroke-width="0.530341" stroke-miterlimit="10" stroke-linecap="round"/>
<path d="M589.935 544.576C589.935 544.576 569.753 557.748 566.861 563.924C563.968 570.099 575.512 567.637 583.746 564.341C591.98 561.045 597.201 549.258 597.201 549.258L589.935 544.576Z" fill="white" stroke="#263238" stroke-width="1.06068" stroke-miterlimit="10" stroke-linecap="round"/>
<path d="M675.508 551.936C676.526 557.579 678.53 562.999 681.428 567.947C685.868 574.849 694.25 580.769 694.25 569.911C694.25 559.053 683.903 549.729 683.903 549.729C683.903 549.729 678.764 552.515 675.508 551.936Z" fill="white" stroke="#263238" stroke-width="1.06068" stroke-miterlimit="10" stroke-linecap="round"/>
<path d="M607.788 131.764C607.788 131.764 603.416 158.888 604.896 165.615C608.273 180.671 620.126 180.025 627.54 177.146C634.469 174.455 641.384 164.943 642.272 163.691C642.336 163.603 642.425 163.537 642.528 163.503C643.631 163.193 650.48 161.014 653.493 155.726C656.79 149.954 650.614 147.492 650.614 147.492" fill="white"/>
<g style="mix-blend-mode:multiply" opacity="0.5">
<path d="M635.841 170.675L642.38 163.49C642.38 163.49 650.117 161.108 653.494 155.659C655.472 152.471 654.382 149.685 653.184 148.932C651.544 148.044 649.85 147.257 648.112 146.577L645.919 151.408L644.049 151.731C644.049 151.731 644.829 146.752 642.569 143.806C640.308 140.859 639.797 132.329 639.797 132.329C639.797 132.329 636.635 149.336 636.245 156.453C636.145 160.414 634.907 164.263 632.68 167.54C632.68 167.54 633.083 171.885 633.864 176.231C633.958 176.743 634.052 177.509 634.146 178.465L635.223 176.743L635.815 178.384C635.142 175.559 634.832 172.558 635.841 170.675Z" fill="#AE8DFF"/>
</g>
<path d="M607.788 131.764C607.788 131.764 603.416 158.888 604.896 165.615C608.273 180.671 620.126 180.025 627.54 177.146C634.469 174.455 641.384 164.943 642.272 163.691C642.336 163.603 642.425 163.537 642.528 163.503C643.631 163.193 650.48 161.014 653.493 155.726C656.79 149.954 650.614 147.492 650.614 147.492" stroke="#263238" stroke-width="1.06068" stroke-miterlimit="10" stroke-linecap="round"/>
<path d="M624.526 145.554C624.271 146.631 624.526 147.599 625.024 147.721C625.522 147.842 626.195 147.088 626.45 146.025C626.706 144.962 626.45 143.994 625.953 143.859C625.455 143.725 624.782 144.491 624.526 145.554Z" fill="#263238"/>
<path d="M612.968 142.742C612.712 143.819 612.968 144.787 613.466 144.909C613.963 145.03 614.636 144.276 614.892 143.213C615.147 142.15 614.892 141.168 614.394 141.047C613.896 140.926 613.21 141.666 612.968 142.742Z" fill="#263238"/>
<path d="M631.698 140.845C631.062 139.727 630.157 138.785 629.064 138.106C627.971 137.426 626.726 137.032 625.441 136.957" stroke="#263238" stroke-width="1.06068" stroke-miterlimit="10" stroke-linecap="round"/>
<path d="M616.589 137.159C615.53 136.696 614.355 136.567 613.221 136.788C612.086 137.009 611.046 137.57 610.238 138.397" stroke="#263238" stroke-width="1.06068" stroke-miterlimit="10" stroke-linecap="round"/>
<path d="M617.369 142.057C617.394 143.859 617.259 145.66 616.965 147.438C616.521 149.685 614.772 150.129 615.216 151.865C615.66 153.601 617.907 153.776 617.907 153.776" stroke="#263238" stroke-width="1.06068" stroke-miterlimit="10" stroke-linecap="round"/>
<path d="M620.25 160.785C621.202 161.089 622.209 161.182 623.201 161.059C624.193 160.936 625.146 160.599 625.995 160.072" stroke="#263238" stroke-width="1.06068" stroke-miterlimit="10" stroke-linecap="round"/>
<path d="M641.561 112.82C641.561 112.82 632.506 104.989 623.855 104.989C615.204 104.989 608.194 109.941 602.839 110.371C597.484 110.802 593.784 105.837 590.488 112.43C587.191 119.022 599.556 130.149 607.79 131.791C616.024 133.432 627.555 130.97 630.851 130.553C634.009 130.336 637.179 130.336 640.337 130.553C640.337 130.553 637.861 138.383 640.337 140.859C642.812 143.335 643.216 144.976 643.216 146.618C643.357 148.429 643.632 150.228 644.037 151.999L646.512 152.834L647.75 148.299C651.09 144.738 653.373 140.317 654.343 135.531C655.567 128.118 649.392 120.731 649.392 120.731L641.561 112.82Z" fill="#263238"/>
<path d="M606.875 128.413C606.875 128.413 620.962 131.104 631.995 126.516C643.027 121.928 633.515 112.819 633.515 112.819" stroke="white" stroke-width="0.530341" stroke-miterlimit="10" stroke-linecap="round"/>
<path d="M635.844 112.053C636.987 112.053 646.5 119.278 644.589 124.606C642.679 129.934 638.884 130.324 638.884 130.324" stroke="white" stroke-width="0.530341" stroke-miterlimit="10" stroke-linecap="round"/>
<path d="M634.279 275.485L622.385 269.215C619.328 269.046 616.288 268.65 613.29 268.031C610.518 267.237 582.075 264.52 582.075 264.52L581.645 271.247C581.645 271.247 614.083 275.606 620.797 276.4C627.511 277.194 633.458 280.356 634.642 282.333C635.826 284.311 638.207 286.289 637.023 291.752C635.839 297.214 627.928 305.206 627.928 305.206C627.551 304.641 646.953 303.242 646.765 301.17C646.347 297.053 644.154 285.024 644.154 285.024L634.279 275.485Z" fill="#AE8DFF"/>
<path opacity="0.5" d="M634.279 275.485L622.385 269.215C619.328 269.046 616.288 268.65 613.29 268.031C610.518 267.237 582.075 264.52 582.075 264.52L581.645 271.247C581.645 271.247 614.083 275.606 620.797 276.4C627.511 277.194 633.458 280.356 634.642 282.333C635.826 284.311 638.207 286.289 637.023 291.752C635.839 297.214 627.928 305.206 627.928 305.206C627.619 304.601 646.993 303.228 646.765 301.17C646.132 295.922 644.154 285.024 644.154 285.024L634.279 275.485Z" fill="white"/>
<path d="M673.515 209.666C672.465 204.742 664.635 205.401 659.912 202.67C655.19 199.938 643.767 193.615 643.767 193.615L638.237 185.3C637.239 183.058 636.433 180.736 635.829 178.357L635.237 176.716L634.16 178.438C634.846 185.811 635.506 204.688 635.506 204.688L637.874 216.555C637.874 216.555 646.982 255.707 649.35 264.413C651.718 273.118 651.718 279.038 650.144 281.809C648.57 284.581 649.095 285.846 649.095 285.846C649.095 285.846 655.27 281.069 654.894 276.333C654.396 270.763 674.255 213.003 673.515 209.666Z" fill="#AE8DFF"/>
<path opacity="0.5" d="M673.515 209.666C672.977 204.661 664.635 205.401 659.912 202.67C655.19 199.938 643.767 193.615 643.767 193.615L638.237 185.3C637.239 183.058 636.433 180.736 635.829 178.357L635.237 176.716L634.16 178.438C634.846 185.811 635.506 204.688 635.506 204.688L637.874 216.555C637.874 216.555 646.982 255.707 649.35 264.413C651.718 273.118 651.718 279.038 650.144 281.809C648.57 284.581 649.095 285.846 649.095 285.846C649.095 285.846 655.445 281.056 654.894 276.333C654.261 271.261 673.999 213.823 673.515 209.666Z" fill="white"/>
<path d="M638.953 204.728C638.953 204.728 636.478 182.487 635.24 176.715C634.002 170.943 634.836 167.66 629.481 167.66C624.126 167.66 617.534 166.826 618.718 169.719C619.902 172.612 628.136 170.123 629.481 171.36C630.827 172.598 629.885 175.478 629.885 175.478C629.885 175.478 619.121 176.312 619.121 179.191C619.121 182.07 619.538 189.955 621.597 190.722C623.655 191.488 624.476 187.022 624.476 187.022C624.476 187.022 624.893 196.44 626.952 199.79C628.263 201.859 629.782 203.789 631.486 205.548L638.953 204.728Z" fill="white" stroke="#263238" stroke-width="1.06068" stroke-miterlimit="10" stroke-linecap="round"/>
<path d="M631.537 210.903C631.537 210.903 630.299 262.03 632.358 270.224C634.416 278.418 645.543 289.585 651.302 284.23C657.06 278.876 654.194 267.345 654.194 261.99C654.194 256.635 641.009 217.092 641.009 214.199C640.813 211.797 640.255 209.439 639.354 207.203" stroke="#263238" stroke-width="1.06068" stroke-miterlimit="10" stroke-linecap="round"/>
<path d="M632.359 217.093L640.594 216.259" stroke="#263238" stroke-width="1.06068" stroke-miterlimit="10" stroke-linecap="round"/>
<path d="M579.698 242.656L581.286 197.166C581.286 197.166 579.308 195.982 578.514 200.328C577.72 204.673 577.33 213.392 577.33 213.392C577.33 213.392 567.831 207.459 570.212 211.011C572.594 214.563 576.536 222.487 576.536 222.487L561.844 237.112L568.571 239.884L579.698 242.656Z" fill="#AE8DFF"/>
<path opacity="0.5" d="M579.698 242.656L581.286 197.166C581.286 197.166 579.308 195.982 578.514 200.328C577.72 204.673 577.33 213.392 577.33 213.392C577.33 213.392 567.831 207.459 570.212 211.011C572.594 214.563 576.536 222.487 576.536 222.487L561.844 237.112L568.571 239.884L579.698 242.656Z" fill="white"/>
<path d="M599.395 207.325C599.395 207.325 598.641 210.016 601.803 210.016C604.965 210.016 610.522 207.769 610.522 207.769L610.118 203.302C610.118 203.302 602.516 207.002 599.395 207.325Z" fill="#AE8DFF"/>
<path opacity="0.5" d="M599.395 207.325C599.395 207.325 598.641 210.016 601.803 210.016C604.965 210.016 610.522 207.769 610.522 207.769L610.118 203.302C610.118 203.302 602.516 207.002 599.395 207.325Z" fill="white"/>
<path d="M612.969 177.24C612.969 177.24 608.852 201.458 611.327 206.84C613.803 212.222 617.503 210.957 620.382 208.495C623.262 206.033 626.975 199.844 626.975 199.844" stroke="#263238" stroke-width="1.06068" stroke-miterlimit="10" stroke-linecap="round"/>
<path d="M580.449 264.87L581.283 298.654C581.283 298.654 590.702 307.709 608.879 307.709C627.056 307.709 646.78 301.117 646.78 301.117V289.169" stroke="#263238" stroke-width="1.06068" stroke-miterlimit="10" stroke-linecap="round"/>
<path d="M636.07 182.07C636.07 182.07 643.484 189.484 643.484 196.494C643.484 203.503 642.246 205.145 642.246 205.145" stroke="#263238" stroke-width="1.06068" stroke-miterlimit="10" stroke-linecap="round"/>
<path d="M642.652 192.377C642.652 192.377 653.779 198.956 659.955 202.67C666.131 206.383 673.557 206.37 673.557 209.666C673.557 212.962 656.255 268.987 656.255 268.987" stroke="#263238" stroke-width="1.06068" stroke-miterlimit="10" stroke-linecap="round"/>
<path d="M649.66 210.903L645.543 227.385" stroke="#263238" stroke-width="1.06068" stroke-miterlimit="10" stroke-linecap="round"/>
<path d="M580.558 220.577L573.898 206.611" stroke="#263238" stroke-width="0.530341" stroke-miterlimit="10" stroke-linecap="round"/>
<path d="M580.558 224.573L570.574 218.586" stroke="#263238" stroke-width="0.530341" stroke-miterlimit="10" stroke-linecap="round"/>
<path d="M613.132 255.814L611.141 265.798" stroke="#263238" stroke-width="0.530341" stroke-miterlimit="10" stroke-linecap="round"/>
<path d="M666.991 209.275C666.991 209.275 657.021 211.267 647.711 222.568" stroke="#263238" stroke-width="0.530341" stroke-miterlimit="10" stroke-linecap="round"/>
<path d="M660.344 208.67C660.344 208.67 657.653 207.998 648.383 215.976" stroke="#263238" stroke-width="0.530341" stroke-miterlimit="10" stroke-linecap="round"/>
<path d="M613.131 211.939L609.148 243.181L612.472 243.854L615.136 233.884" stroke="#263238" stroke-width="0.530341" stroke-miterlimit="10" stroke-linecap="round"/>
<path d="M615.794 293.716C603.819 303.699 587.203 303.026 587.203 303.026" stroke="#263238" stroke-width="0.530341" stroke-miterlimit="10" stroke-linecap="round"/>
<path d="M565.194 239.454C565.194 239.454 557.054 232 545.523 241.486" stroke="#263238" stroke-width="0.530341" stroke-miterlimit="10" stroke-linecap="round"/>
<path d="M612.176 183.308C612.176 183.308 608.879 184.128 605.166 189.9C601.452 195.672 596.932 205.548 600.228 206.369C603.524 207.189 609.646 203.489 609.646 203.489" stroke="#263238" stroke-width="1.06068" stroke-miterlimit="10" stroke-linecap="round"/>
<path d="M624.941 205.146L629.058 208.846" stroke="#263238" stroke-width="1.06068" stroke-miterlimit="10" stroke-linecap="round"/>
<path d="M606.404 187.425C606.404 187.425 591.16 189.483 584.984 189.9C578.809 190.318 580.006 192.591 577.988 194.018C574.732 196.291 537.382 243.638 534.933 248.172C532.485 252.706 532.875 254.765 536.992 256.003C541.109 257.24 582.118 264.452 582.118 264.452L618.352 268.166L621.231 259.097C621.231 259.097 629.653 260.214 631.133 260.214" stroke="#263238" stroke-width="1.06068" stroke-miterlimit="10" stroke-linecap="round"/>
<path d="M617.112 255.761C609.115 253.441 601.385 250.284 594.051 246.343" stroke="#263238" stroke-width="1.06068" stroke-miterlimit="10" stroke-linecap="round"/>
<path d="M590.759 245.509C590.759 245.509 578.65 241.015 572.097 240.194C565.545 239.374 555.508 239.104 555.508 239.104" stroke="#263238" stroke-width="1.06068" stroke-miterlimit="10" stroke-linecap="round"/>
<path d="M579.629 240.154L580.867 207.607" stroke="#263238" stroke-width="1.06068" stroke-miterlimit="10" stroke-linecap="round"/>
<path d="M618.352 268.166C621.178 269.587 624.139 270.723 627.191 271.557" stroke="#263238" stroke-width="1.06068" stroke-miterlimit="10" stroke-linecap="round"/>
<path d="M79.2642 241.943L84.1213 215.397L114.865 203.288C114.865 203.288 116.358 195.04 117.865 194.677C119.372 194.314 120.852 190.923 120.852 190.923L120.112 184.129C120.112 184.129 122.924 173.365 137.065 181.747C137.065 181.747 132.786 184.6 133.526 185.784C134.266 186.968 132.706 190.735 134.576 190.735C136.446 190.735 140.227 193.116 142.137 195.04C143.474 196.477 144.656 198.051 145.662 199.736L161.579 200.651C163.211 200.665 164.834 200.886 166.409 201.31C166.678 193.533 165.723 187.6 163.839 182.985C156.991 166.328 144.505 160.381 142.716 152.04C140.926 143.698 141.828 142.823 141.828 142.823C143.647 140.973 144.98 138.701 145.705 136.209C146.431 133.718 146.527 131.086 145.985 128.548C144.209 119.628 137.361 113.371 112.672 112.187C87.9827 111.003 91.5616 127.943 91.5616 127.943L91.8576 129.127C91.8576 129.127 76.0889 134.508 79.0758 154.408C82.0627 174.307 90.6736 182.958 90.3776 189.201C90.0816 195.444 80.8518 197.825 67.7605 212.074C54.6692 226.322 52.0052 247.755 57.3602 261.735C60.0511 268.61 65.3118 274.342 71.918 278.62L79.2642 241.943Z" fill="#263238"/>
<path d="M99.8765 244.566V250.567L88.4805 285.778C95.6015 287.662 103.07 287.819 110.263 286.235C114.324 285.177 118.205 283.522 121.78 281.324L99.8765 244.566Z" fill="#263238"/>
<path d="M132.639 185.569L133.984 191.623C133.984 191.623 138.021 187.587 145.905 199.844C145.905 199.844 162.293 199.454 166.76 201.687C166.76 201.687 167.688 201.956 170.715 205.172C173.743 208.388 185.125 218.627 185.125 218.627C185.125 218.627 199.737 232.189 201.19 233.238C202.643 234.288 208.092 239.495 212.169 241.311L223.094 216.433L227.964 204.123L230.655 193.991H231.516L231.705 185.824L231.046 176.083C231.153 175.588 231.379 175.126 231.705 174.738C232.833 173.174 233.701 171.439 234.275 169.598C234.275 168.683 233.346 163.275 233.346 163.275C233.346 163.275 232.889 161.929 233.884 161.768C234.88 161.606 238.553 162.884 239.011 165.454L240.356 164.997C241.47 162.335 242.859 159.796 244.5 157.422C246.68 154.596 248.913 152.82 250.299 153.735C250.679 153.997 250.953 154.387 251.072 154.834C251.19 155.28 251.145 155.754 250.945 156.171L246.612 164.136C246.612 164.136 244.702 166.705 247.07 167.62C247.07 167.62 252.196 170.917 252.532 173.809C252.869 176.702 251.012 179.191 249.371 181.317C247.729 183.443 244.836 188.044 244.836 188.044L241.473 191.018L240.127 196.144L241.715 198.122L239.347 208.388L237.638 216.084L236.777 220.752L231.395 239.185L226.014 255.25C226.014 255.25 223.242 264.453 216.528 264.197C209.814 263.941 202.455 260.309 200.073 259.125C197.692 257.941 178.061 247.688 178.061 247.688L174.025 245.778C174.564 247.615 174.796 249.529 174.711 251.442C174.644 254.994 170.823 262.825 169.706 264.601L169.047 278.486C168.786 280.895 168.832 283.327 169.182 285.724C169.774 289.344 172.801 309.821 173.46 312.378C173.46 312.378 166.921 318.298 147.439 321.11C127.957 323.922 118.835 319.361 118.835 319.361L110.156 314.262L120.853 293.124C120.853 293.124 123.544 286.841 123.275 285.186C123.005 283.531 118.404 276.4 118.404 276.4L101.519 246.343L100.725 246.612L98.1011 255.384L88.6156 285.132L76.1298 322.267C76.1298 322.267 72.7124 331.685 71.2996 334.47L67.3575 346.485C67.5764 348.631 68.1067 350.735 68.9316 352.728L59.0156 346.31L60.7782 336.892L62.9713 322.845L65.6622 307.575L68.0302 294.941L71.8109 278.096L73.1564 273.44L75.8473 260.282L80.5833 236.413L84.6196 215.976L112.874 204.741L114.637 203.396C115.029 200.795 115.984 198.311 117.435 196.117C118.443 194.674 119.642 193.375 121.001 192.256C121.001 192.256 120.866 190.493 120.772 188.825C120.678 187.156 120.247 184.089 120.247 184.089C120.247 184.089 128.979 187.843 132.639 185.569Z" fill="white"/>
<path d="M94.7891 131.495C94.7891 131.495 100.023 119.91 110.491 119.91C120.958 119.91 142.633 140.469 142.633 140.469" stroke="white" stroke-width="0.530341" stroke-miterlimit="10" stroke-linecap="round"/>
<path d="M99.2695 133.324C99.2695 133.324 105.62 126.597 113.478 129.207C121.335 131.817 122.452 141.168 122.452 141.168" stroke="white" stroke-width="0.530341" stroke-miterlimit="10" stroke-linecap="round"/>
<path d="M94.0366 134.481C94.0366 134.481 84.6991 139.715 83.9457 149.443C83.1922 159.171 97.0235 170.741 98.8937 183.833C100.764 196.924 91.0497 199.897 75.3482 210.742C59.6467 221.586 62.2704 245.872 65.634 251.105" stroke="white" stroke-width="0.530341" stroke-miterlimit="10" stroke-linecap="round"/>
<path d="M67.5039 254.106C67.5039 254.106 69.7374 258.964 73.101 260.457" stroke="white" stroke-width="0.530341" stroke-miterlimit="10" stroke-linecap="round"/>
<path d="M95.1668 159.897C94.7246 160.847 94.5263 161.892 94.5897 162.937C94.6531 163.983 94.9763 164.996 95.5301 165.885C97.4002 169.248 111.676 186.067 110.492 193.924C109.308 201.781 101.894 206.625 101.894 206.625" stroke="white" stroke-width="0.530341" stroke-miterlimit="10" stroke-linecap="round"/>
<path d="M102.26 134.481C102.26 134.481 93.6626 138.222 94.0394 146.819C94.4161 155.417 96.2863 157.664 96.2863 157.664" stroke="white" stroke-width="0.530341" stroke-miterlimit="10" stroke-linecap="round"/>
<path d="M142.637 162.925C145.308 168.972 148.974 174.53 153.481 179.366C160.208 186.094 160.948 195.821 160.948 195.821" stroke="white" stroke-width="0.530341" stroke-miterlimit="10" stroke-linecap="round"/>
<path d="M150.48 184.196C150.48 184.196 153.844 192.054 153.844 196.911" stroke="white" stroke-width="0.530341" stroke-miterlimit="10" stroke-linecap="round"/>
<path d="M131.873 186.282L121.311 195.794C121.311 195.794 120.181 198.673 118.055 203.288C115.929 207.903 116.279 216.743 116.279 216.743L122.791 229.699C122.791 229.699 110.265 215.33 109.551 213.554C108.838 211.778 95.7336 214.98 93.258 216.043C90.7823 217.106 87.5801 219.232 88.2932 222.421C89.0063 225.609 92.1951 229.847 90.7689 230.561C89.3427 231.274 85.4543 229.498 85.4543 231.623C85.4543 233.749 90.0692 241.903 87.9434 244.728C85.8176 247.554 72.3496 293.272 72.3496 293.272C72.3496 293.272 80.8529 286.182 78.727 289.021C76.6012 291.86 66.3354 314.88 66.3354 314.88L62.4336 328.335L71.65 280.517L79.4402 240.154L84.1223 215.397C88.6431 213.89 114.866 203.288 114.866 203.288C114.866 203.288 116.938 194.57 120.853 190.923L120.113 184.129C120.113 184.129 127.258 186.631 131.873 186.282Z" fill="#AE8DFF"/>
<path opacity="0.5" d="M131.873 186.282L121.311 195.794C121.311 195.794 120.181 198.673 118.055 203.288C115.929 207.903 116.279 216.743 116.279 216.743L122.791 229.699C122.791 229.699 110.265 215.33 109.551 213.554C108.838 211.778 95.7336 214.98 93.258 216.043C90.7823 217.106 87.5801 219.232 88.2932 222.421C89.0063 225.609 92.1951 229.847 90.7689 230.561C89.3427 231.274 85.4543 229.498 85.4543 231.623C85.4543 233.749 90.0692 241.903 87.9434 244.728C85.8176 247.554 72.3496 293.272 72.3496 293.272C72.3496 293.272 80.8529 286.182 78.727 289.021C76.6012 291.86 66.3354 314.88 66.3354 314.88L62.4336 328.335L71.65 280.517L79.4402 240.154L84.1223 215.397C88.6431 213.89 114.866 203.288 114.866 203.288C114.866 203.288 115.431 195.215 120.867 192.39L120.113 184.129C120.113 184.129 127.258 186.631 131.873 186.282Z" fill="white"/>
<path d="M171.188 234.099C171.188 234.099 177.565 223.484 178.278 225.959C178.991 228.435 176.502 236.925 176.502 236.925C176.502 236.925 183.229 234.449 182.53 236.575C181.83 238.701 180.404 239.764 180.754 240.827C181.104 241.889 204.138 253.931 206.977 255.344C209.816 256.757 216.543 248.617 219.732 251.092C222.92 253.568 219.732 262.058 213.354 262.071C206.977 262.085 188.557 253.999 188.557 253.999L174.053 245.563" fill="#AE8DFF"/>
<path opacity="0.5" d="M171.188 234.099C171.188 234.099 177.565 223.484 178.278 225.959C178.991 228.435 176.502 236.925 176.502 236.925C176.502 236.925 183.229 234.449 182.53 236.575C181.83 238.701 180.404 239.764 180.754 240.827C181.104 241.889 204.138 253.931 206.977 255.344C209.816 256.757 216.543 248.617 219.732 251.092C222.92 253.568 219.732 262.058 213.354 262.071C206.977 262.085 188.557 253.999 188.557 253.999L174.107 245.589" fill="white"/>
<path d="M132.934 276.964C132.934 276.964 174.347 255.007 167.619 263.147C160.892 271.287 138.598 280.517 132.934 276.964Z" fill="#AE8DFF"/>
<path opacity="0.5" d="M132.934 276.964C132.934 276.964 174.347 255.007 167.619 263.147C160.892 271.287 138.598 280.517 132.934 276.964Z" fill="white"/>
<path d="M120.113 184.196C120.113 184.196 120.409 189.847 121.311 195.794C122.212 201.741 121.903 201.741 127.554 208.872C133.205 216.003 139.151 221.963 140.039 220.779" stroke="#263238" stroke-width="1.06068" stroke-miterlimit="10" stroke-linecap="round"/>
<path d="M140.334 218.693C140.334 218.693 140.926 208.279 138.854 201.445C136.782 194.61 133.795 192.215 133.795 190.681C133.695 189.083 133.497 187.492 133.203 185.918" stroke="#263238" stroke-width="1.06068" stroke-miterlimit="10" stroke-linecap="round"/>
<path d="M120.113 192.82C117.737 194.96 116.074 197.778 115.35 200.893C114.462 205.643 113.574 211.293 113.574 211.293L122.791 229.74C123.593 226.527 124.791 223.427 126.356 220.51C127.131 219.07 128.136 217.766 129.329 216.648" stroke="#263238" stroke-width="1.06068" stroke-miterlimit="10" stroke-linecap="round"/>
<path d="M142.421 213.634C143.072 213.471 143.748 213.44 144.411 213.542C145.074 213.643 145.71 213.876 146.282 214.226C148.664 215.424 153.427 221.667 153.427 221.667C153.427 221.667 150.157 206.194 144.506 198.175C138.855 190.156 134.98 190.735 134.98 190.735" stroke="#263238" stroke-width="1.06068" stroke-miterlimit="10" stroke-linecap="round"/>
<path d="M112.672 204.418L84.121 215.397C84.121 215.397 73.7206 272.202 69.8457 287.365C65.9708 302.529 59.4453 345.368 59.4453 345.368L67.1682 346.848L69.8591 339.125" stroke="#263238" stroke-linecap="round" stroke-linejoin="round"/>
<path d="M71.3398 334.685C71.3398 334.685 73.1158 331.994 77.8788 317.194C82.6417 302.394 95.3697 266.067 97.5089 258.896C99.6482 251.724 101.37 247.002 101.37 247.002" stroke="#263238" stroke-width="1.06068" stroke-miterlimit="10" stroke-linecap="round"/>
<path d="M96.3125 238.27C96.3125 238.27 120.396 281.324 122.482 283.181C124.567 285.038 121.594 290.016 120.988 292.693" stroke="#263238" stroke-width="1.06068" stroke-miterlimit="10" stroke-linecap="round"/>
<path d="M118.321 298.102L110.598 314.167C110.598 314.167 115.657 321.904 137.063 321.904C149.802 321.942 162.358 318.876 173.646 312.97C173.646 312.97 168.587 286.209 168.883 281.446C169.179 276.683 169.784 264.197 169.784 264.197C169.784 264.197 175.166 256.124 174.534 249.922C173.901 243.719 171.264 236.534 171.264 235.35C171.264 234.166 170.672 221.371 170.672 221.371" stroke="#263238" stroke-width="1.06068" stroke-miterlimit="10" stroke-linecap="round"/>
<path d="M137.023 271.664L158.335 258.586" stroke="#263238" stroke-width="0.530341" stroke-miterlimit="10" stroke-linecap="round"/>
<path d="M148.246 267.56L159.83 260.833" stroke="#263238" stroke-width="0.530341" stroke-miterlimit="10" stroke-linecap="round"/>
<path d="M212.022 241.593L207.676 252.235" stroke="#263238" stroke-width="0.530341" stroke-miterlimit="10" stroke-linecap="round"/>
<path d="M210.283 246.248L206.18 250.365" stroke="#263238" stroke-width="0.530341" stroke-miterlimit="10" stroke-linecap="round"/>
<path d="M88.8048 284.016C88.8048 284.016 81.7008 292.236 76.8438 295.6" stroke="#263238" stroke-width="0.530341" stroke-miterlimit="10" stroke-linecap="round"/>
<path d="M84.6997 286.249C84.6997 286.249 72.3619 295.963 69.375 298.21" stroke="#263238" stroke-width="0.530341" stroke-miterlimit="10" stroke-linecap="round"/>
<path d="M86.8945 217.093C90.6138 222.352 93.9846 227.848 96.9854 233.548" stroke="#263238" stroke-width="0.530341" stroke-miterlimit="10" stroke-linecap="round"/>
<path d="M98.1523 236.157L100.763 240.638" stroke="#263238" stroke-width="0.530341" stroke-miterlimit="10" stroke-linecap="round"/>
<path d="M171.266 235.35L174.535 218.693" stroke="#263238" stroke-width="0.530341" stroke-miterlimit="10" stroke-linecap="round"/>
<path d="M172.465 236.534L177.51 229.403" stroke="#263238" stroke-width="0.530341" stroke-miterlimit="10" stroke-linecap="round"/>
<path d="M101.369 246.948L87.0938 239.212" stroke="#263238" stroke-width="0.530341" stroke-miterlimit="10" stroke-linecap="round"/>
<path d="M139.742 222.259C139.742 222.259 145.124 233.022 146.887 240.705" stroke="#263238" stroke-width="0.530341" stroke-miterlimit="10" stroke-linecap="round"/>
<path d="M228.07 203.517C229.494 203.412 230.924 203.596 232.274 204.059C233.625 204.521 234.867 205.252 235.928 206.208" stroke="#263238" stroke-width="0.530341" stroke-miterlimit="10" stroke-linecap="round"/>
<path d="M64.6133 337.981L68.2998 339.354" stroke="#263238" stroke-width="0.530341" stroke-miterlimit="10" stroke-linecap="round"/>
<path d="M59.3509 345.906C59.3972 351.022 59.1276 356.135 58.5437 361.218C57.6557 367.474 57.9517 381.749 59.1357 386.203C60.3197 390.656 60.9251 391.584 62.1091 388.894C63.2931 386.203 66.872 370.461 66.872 370.461C66.872 370.461 67.464 380.861 70.1415 379.973C72.8189 379.085 71.3389 374.026 71.3389 369.559C71.3389 365.092 71.6349 363.612 71.3389 360.047C71.0429 356.482 67.0738 347.669 67.0738 347.669" fill="white"/>
<path d="M59.3509 345.906C59.3972 351.022 59.1276 356.135 58.5437 361.218C57.6557 367.474 57.9517 381.749 59.1357 386.203C60.3197 390.656 60.9251 391.584 62.1091 388.894C63.2931 386.203 66.872 370.461 66.872 370.461C66.872 370.461 67.464 380.861 70.1415 379.973C72.8189 379.085 71.3389 374.026 71.3389 369.559C71.3389 365.092 71.6349 363.612 71.3389 360.047C71.0429 356.482 67.0738 347.669 67.0738 347.669" stroke="#263238" stroke-miterlimit="10" stroke-linecap="round"/>
<path d="M231.544 193.763C231.409 191.132 231.409 188.496 231.544 185.865C231.787 183.389 230.804 179.689 231.047 176.447C231.289 173.204 234.504 172.007 234.007 167.809C233.509 163.611 232.527 163.113 233.267 162.131C234.007 161.149 238.648 162.615 238.944 165.333C239.208 168.13 239.208 170.946 238.944 173.742C238.702 174.482 240.424 179.124 239.442 181.142C238.879 182.236 238.463 183.398 238.204 184.6" stroke="#263238" stroke-width="0.880843" stroke-miterlimit="10" stroke-linecap="round"/>
<path d="M239.938 165.117C239.938 165.117 245.615 153.761 248.831 153.506C252.047 153.25 251.051 156.197 250.055 157.704C249.06 159.211 245.858 164.619 245.615 166.853C245.373 169.086 242.4 176.473 242.4 176.473" stroke="#263238" stroke-width="0.880843" stroke-miterlimit="10" stroke-linecap="round"/>
<path d="M245.657 166.854C245.657 166.854 254.308 172.034 252.384 176.272C250.46 180.51 249.41 182.205 247.93 181.654C246.618 180.983 245.445 180.07 244.473 178.963" stroke="#263238" stroke-width="0.880843" stroke-miterlimit="10" stroke-linecap="round"/>
<path d="M248.83 181.666C248.83 181.666 246.596 185.366 244.874 187.599C243.884 188.889 242.71 190.027 241.389 190.977L240.34 194.623" stroke="#263238" stroke-width="0.880843" stroke-miterlimit="10" stroke-linecap="round"/>
<path d="M145.098 199.655C145.098 199.655 165.616 199.359 168.293 202.628C170.971 205.898 203.396 235.646 207.312 238.323C211.227 241.001 212.074 241.593 212.074 241.593C212.074 241.593 228.126 205.265 228.126 203.516C228.126 201.767 230.817 193.708 230.817 193.708C230.817 193.708 235.876 194.3 237.073 194.3C238.27 194.3 241.526 198.175 241.526 198.175C241.526 198.175 237.073 216.312 237.073 218.357C237.073 220.402 228.745 248.697 224.87 257.375C220.995 266.053 215.653 264.802 207.029 262.124C198.405 259.447 174.913 246.073 174.913 246.073" stroke="#263238" stroke-width="1.06068" stroke-miterlimit="10" stroke-linecap="round"/>
<path d="M110.599 314.167C110.599 314.167 98.6917 343.955 95.476 364.231C92.2604 384.507 93.6328 431.921 92.7044 436.993C91.776 442.066 78.8866 466.001 78.8866 477.518C78.8866 489.035 71.9844 548.437 71.9844 548.437L76.5858 551.195C76.5858 551.195 92.7313 501.414 98.6917 488.565C104.652 475.715 112.967 445.281 115.268 439.294C117.568 433.307 133.7 385.408 134.615 379.421C135.53 373.434 141.06 358.701 141.06 358.701C141.06 358.701 153.035 431.921 155.335 447.125C157.636 462.328 173.755 544.751 173.755 544.751C174.813 545.01 175.895 545.163 176.984 545.208C178.329 545.208 178.827 542.907 178.827 542.907C178.827 542.907 185.272 484.421 183.428 468.759C181.585 453.098 176.069 433.778 176.069 428.234C176.069 422.691 184.357 374.82 184.357 358.271C184.357 341.722 173.593 312.996 173.593 312.996C173.593 312.996 135.396 332.263 110.599 314.167Z" fill="#263238"/>
<path d="M175.894 431.275C175.894 431.275 171.79 448.847 166.18 458.184" stroke="white" stroke-width="0.530341" stroke-miterlimit="10" stroke-linecap="round"/>
<path d="M174.778 449.224C174.778 449.224 171.415 461.925 164.688 467.912" stroke="white" stroke-width="0.530341" stroke-miterlimit="10" stroke-linecap="round"/>
<path d="M95.168 443.613C95.168 443.613 97.7782 458.938 100.765 465.289" stroke="white" stroke-width="0.530341" stroke-miterlimit="10" stroke-linecap="round"/>
<path d="M94.4141 452.588C94.4141 452.588 96.661 463.432 100.765 469.783" stroke="white" stroke-width="0.530341" stroke-miterlimit="10" stroke-linecap="round"/>
<path d="M142.258 358.768L157.206 346.431" stroke="white" stroke-width="0.530341" stroke-miterlimit="10" stroke-linecap="round"/>
<path d="M149.363 353.535L166.935 345.678" stroke="white" stroke-width="0.530341" stroke-miterlimit="10" stroke-linecap="round"/>
<path d="M110.855 332.6C110.855 332.6 122.453 340.067 129.181 346.431" stroke="white" stroke-width="0.530341" stroke-miterlimit="10" stroke-linecap="round"/>
<path d="M72.4714 548.397C72.4714 548.397 54.9805 563.197 54.9805 570.544C54.9805 577.89 61.8827 577.446 69.2557 570.544C76.6288 563.641 77.0056 549.42 77.0056 549.42L72.4714 548.397Z" fill="white" stroke="#263238" stroke-width="1.06068" stroke-miterlimit="10" stroke-linecap="round"/>
<path d="M173.758 544.751C173.758 544.751 179.745 559.484 186.203 565.942C192.661 572.401 196.335 574.688 196.335 567.772C196.335 560.857 192.191 553.039 178.844 542.908C178.83 542.908 182.517 545.666 173.758 544.751Z" fill="white" stroke="#263238" stroke-width="1.06068" stroke-miterlimit="10" stroke-linecap="round"/>
<path d="M111.972 136.957C110.774 136.513 109.644 135.975 108.474 135.477C107.303 134.979 105.164 134.71 104.356 138.383C103.159 143.765 111.487 148.205 108.81 152.658C107.144 155.368 104.641 157.46 101.679 158.619C101.197 158.784 100.694 158.884 100.186 158.915C97.8041 159.211 93.9426 158.915 95.1266 163.072C96.3106 167.23 100.186 170.808 102.567 170.808H104.948C104.948 170.808 107.639 178.881 117.73 183.294C127.821 187.707 134.683 187.465 137.064 181.814C139.446 176.163 141.235 171.4 141.235 163.96C141.235 156.52 138.544 144.034 138.544 144.034C138.544 144.034 136.163 147.317 126.947 143.146C120.852 140.388 115.147 138.154 111.972 136.957Z" fill="white"/>
<g style="mix-blend-mode:multiply" opacity="0.5">
<path d="M126.96 143.146C126.96 143.146 112.739 142.352 110.613 142.702C108.487 143.052 110.963 149.429 110.263 155.807C109.563 162.184 109.9 172.463 112.739 175.652C116.089 178.94 119.638 182.018 123.368 184.868C123.368 184.868 112.456 183.106 108.487 178.491C104.518 173.876 103.885 171.4 103.885 171.4C103.885 171.4 94.6691 166.019 93.956 161.834C93.2429 157.65 99.3378 159.87 102.257 157.798C103.899 156.668 110.693 154.542 108.985 148.877C107.276 143.213 104.518 142.15 104.41 138.356C104.329 135.665 106.697 134.885 108.151 134.643C108.806 134.532 109.479 134.631 110.075 134.925L126.96 143.146Z" fill="#AE8DFF"/>
</g>
<path d="M111.972 136.957C110.774 136.513 109.644 135.975 108.474 135.477C107.303 134.979 105.164 134.71 104.356 138.383C103.159 143.765 111.487 148.205 108.81 152.658C107.144 155.368 104.641 157.46 101.679 158.619C101.197 158.784 100.694 158.884 100.186 158.915C97.8041 159.211 93.9426 158.915 95.1266 163.072C96.3106 167.23 100.186 170.808 102.567 170.808H104.948C104.948 170.808 107.639 178.881 117.73 183.294C127.821 187.707 134.683 187.465 137.064 181.814C139.446 176.163 141.235 171.4 141.235 163.96C141.235 156.52 138.544 144.034 138.544 144.034C138.544 144.034 136.163 147.317 126.947 143.146C120.852 140.388 115.147 138.154 111.972 136.957Z" stroke="#263238" stroke-width="1.06068" stroke-miterlimit="10" stroke-linecap="round"/>
<path d="M122.481 154.582C122.669 155.713 122.36 156.708 121.781 156.802C121.202 156.897 120.61 156.049 120.436 154.919C120.261 153.789 120.57 152.78 121.135 152.685C121.7 152.591 122.292 153.506 122.481 154.582Z" fill="#263238"/>
<path d="M134.791 152.524C134.965 153.654 134.656 154.649 134.091 154.744C133.526 154.838 132.92 153.99 132.745 152.86C132.571 151.73 132.866 150.734 133.432 150.64C133.997 150.546 134.602 151.393 134.791 152.524Z" fill="#263238"/>
<path d="M115.348 149.093C116.1 147.974 117.122 147.061 118.318 146.439C119.514 145.816 120.848 145.503 122.196 145.528" stroke="#263238" stroke-width="1.06068" stroke-miterlimit="10" stroke-linecap="round"/>
<path d="M131.414 146.416C132.557 146.016 133.794 145.973 134.962 146.293C136.13 146.612 137.173 147.279 137.953 148.205" stroke="#263238" stroke-width="1.06068" stroke-miterlimit="10" stroke-linecap="round"/>
<path d="M130.232 151.475C130.067 153.355 130.067 155.245 130.232 157.126C130.528 159.507 132.304 160.099 131.712 161.888C131.12 163.678 128.738 163.664 128.738 163.664" stroke="#263238" stroke-width="1.06068" stroke-miterlimit="10" stroke-linecap="round"/>
<path d="M125.763 170.809C124.744 171.049 123.685 171.067 122.659 170.86C121.632 170.654 120.663 170.228 119.816 169.611" stroke="#263238" stroke-width="1.06068" stroke-miterlimit="10" stroke-linecap="round"/>
</svg>
