<svg width="122" height="124" viewBox="0 0 122 124" fill="none" xmlns="http://www.w3.org/2000/svg">
<mask id="path-1-outside-1_691_614" maskUnits="userSpaceOnUse" x="0" y="0" width="122" height="124" fill="black">
<rect fill="white" width="122" height="124"/>
<path fill-rule="evenodd" clip-rule="evenodd" d="M56.2541 9.32284V16.6457H60.1214H63.9886V20.0617V23.4777L62.2781 23.8131C54.8753 25.2651 48.0177 28.3422 41.8917 32.9619C38.8407 35.2624 33.6767 40.6072 31.7336 43.4751L30.2682 45.6381H19.3137C8.75611 45.6381 8.33815 45.6597 7.7646 46.2359C6.90845 47.0961 6.99442 48.4453 7.9535 49.203C8.7094 49.8005 9.07679 49.8226 18.2485 49.8226C25.7373 49.8226 27.7283 49.9021 27.6126 50.1962C27.5317 50.4019 26.9873 51.726 26.4027 53.1394C22.3326 62.978 21.5895 73.9772 24.2793 84.5687L24.4881 85.3907H13.9281C4.10885 85.3907 3.32082 85.4292 2.69075 85.9418C1.76975 86.6912 1.76975 88.2747 2.69075 89.024C3.33421 89.5474 4.37896 89.5752 23.5121 89.5752H43.6561L44.3031 88.8835C45.1503 87.977 45.1218 87.0307 44.2195 86.1245L43.4895 85.3907H36.1991H28.9087L28.4497 83.837C27.3023 79.9547 26.9682 77.2166 26.9804 71.7911C26.9902 67.3822 27.1128 65.8447 27.6596 63.2727C28.5196 59.2257 29.7116 55.6624 31.2909 52.4164L32.5529 49.8226H40.407C49.5587 49.8226 49.9918 49.7198 50.0025 47.5427C50.0106 45.8814 49.6845 45.8019 42.1782 45.6381L35.3313 45.4887L37.5354 42.8324C41.6043 37.9282 48.0511 33.1977 54.2589 30.5615C57.306 29.2673 62.7026 27.8362 65.8226 27.4948L68.0046 27.2563L68.1534 22.0257L68.3021 16.7951L71.3513 16.7099L74.4005 16.6248V21.8601C74.4005 27.0516 74.4062 27.0967 75.0698 27.2255C75.4381 27.2973 77.1272 27.5678 78.8238 27.8269C82.4747 28.3849 87.9133 30.1496 91.3808 31.9011C111.15 41.8879 120.634 65.0039 113.618 86.0991C111.469 92.5602 107.789 98.4794 102.814 103.478C96.3546 109.968 88.878 113.97 79.5678 115.922C76.3921 116.588 75.9105 116.602 52.6879 116.705C26.4997 116.822 27.9934 116.699 27.9934 118.742C27.9934 119.45 28.2165 119.896 28.8031 120.36L29.6131 121L53.1222 120.874C75.4283 120.755 76.7994 120.716 79.9081 120.124C100.196 116.257 115.797 100.518 119.367 80.3161C120.213 75.5324 120.211 68.3383 119.363 63.5384C117.83 54.8643 114.236 47.1562 108.54 40.3307C107.27 38.8088 106.231 37.4664 106.231 37.3475C106.231 37.2288 107.395 35.957 108.817 34.5215L111.403 31.9113L112.964 33.3946C114.757 35.0986 115.833 35.3156 116.889 34.1864C118.13 32.8581 117.849 32.3745 112.988 27.4912C108.095 22.5754 107.549 22.2595 106.283 23.614C105.232 24.7382 105.446 25.7451 107.112 27.5155L108.589 29.0837L105.801 31.8736L103.012 34.6631L101.721 33.6185C96.1336 29.0978 88.1275 25.3464 81.0543 23.935L78.5652 23.4383V20.042V16.6457H82.4325H86.2998V9.32284V2H71.2769H56.2541V9.32284ZM82.135 9.32284V12.4612H71.2769H60.4189V9.5222C60.4189 7.90549 60.5081 6.49323 60.6173 6.38384C60.7262 6.27415 65.6123 6.18448 71.4754 6.18448H82.135V9.32284ZM86.4589 53.6876L76.6316 63.5304L75.4417 62.8788C73.6767 61.9122 69.191 61.9427 67.1907 62.9347C65.3306 63.8574 63.6058 65.576 62.5872 67.5218C61.8515 68.9272 61.7605 69.4137 61.7605 71.9406C61.7605 74.4363 61.856 74.9624 62.5503 76.2865C63.5115 78.119 65.6307 80.1383 67.5061 81.0077C69.6399 81.9974 73.4117 81.9083 75.5051 80.8188C77.7386 79.6565 78.9294 78.4941 80.0723 76.3597C80.987 74.6515 81.079 74.2507 81.0852 71.9406C81.0909 69.918 80.954 69.0984 80.4144 67.9208L79.7364 66.4419L89.5626 56.5527C97.2769 48.7893 99.389 46.5013 99.389 45.9083C99.389 44.8231 98.3659 43.8448 97.231 43.8448C96.3874 43.8448 95.2314 44.9011 86.4589 53.6876ZM101.538 52.0813C100.59 52.7482 100.696 53.9617 101.916 56.3958C110.857 74.2331 102.564 96.3271 84.1514 103.728C79.1284 105.747 75.265 106.313 66.5027 106.313C60.3255 106.313 60.2148 106.324 59.5782 107.005C58.7211 107.922 58.7613 108.859 59.6984 109.801L60.4653 110.571L68.3997 110.412C76.764 110.245 79.1406 109.933 83.6224 108.416C92.8643 105.286 101.092 98.0936 105.595 89.2084C108.432 83.6087 109.578 78.6623 109.596 71.9406C109.613 65.2741 108.469 60.2907 105.601 54.5421C104.15 51.6324 103.088 50.9898 101.538 52.0813ZM73.976 66.8699C77.4229 68.5464 78.0566 73.5157 75.1505 76.0796C71.4007 79.3871 65.7735 76.8397 65.7735 71.8342C65.7735 67.5935 70.0909 64.9803 73.976 66.8699ZM29.6161 93.8956C29.2145 94.2991 28.8858 94.9202 28.8858 95.2762C28.8858 96.892 33.7113 103.399 37.8198 107.322C41.9277 111.246 43.0269 111.768 44.3031 110.404C45.5055 109.117 45.2262 108.634 40.6735 104.123C37.4646 100.944 35.8963 99.12 34.3895 96.814C31.8416 92.9144 31.0651 92.4394 29.6161 93.8956Z"/>
</mask>
<path fill-rule="evenodd" clip-rule="evenodd" d="M56.2541 9.32284V16.6457H60.1214H63.9886V20.0617V23.4777L62.2781 23.8131C54.8753 25.2651 48.0177 28.3422 41.8917 32.9619C38.8407 35.2624 33.6767 40.6072 31.7336 43.4751L30.2682 45.6381H19.3137C8.75611 45.6381 8.33815 45.6597 7.7646 46.2359C6.90845 47.0961 6.99442 48.4453 7.9535 49.203C8.7094 49.8005 9.07679 49.8226 18.2485 49.8226C25.7373 49.8226 27.7283 49.9021 27.6126 50.1962C27.5317 50.4019 26.9873 51.726 26.4027 53.1394C22.3326 62.978 21.5895 73.9772 24.2793 84.5687L24.4881 85.3907H13.9281C4.10885 85.3907 3.32082 85.4292 2.69075 85.9418C1.76975 86.6912 1.76975 88.2747 2.69075 89.024C3.33421 89.5474 4.37896 89.5752 23.5121 89.5752H43.6561L44.3031 88.8835C45.1503 87.977 45.1218 87.0307 44.2195 86.1245L43.4895 85.3907H36.1991H28.9087L28.4497 83.837C27.3023 79.9547 26.9682 77.2166 26.9804 71.7911C26.9902 67.3822 27.1128 65.8447 27.6596 63.2727C28.5196 59.2257 29.7116 55.6624 31.2909 52.4164L32.5529 49.8226H40.407C49.5587 49.8226 49.9918 49.7198 50.0025 47.5427C50.0106 45.8814 49.6845 45.8019 42.1782 45.6381L35.3313 45.4887L37.5354 42.8324C41.6043 37.9282 48.0511 33.1977 54.2589 30.5615C57.306 29.2673 62.7026 27.8362 65.8226 27.4948L68.0046 27.2563L68.1534 22.0257L68.3021 16.7951L71.3513 16.7099L74.4005 16.6248V21.8601C74.4005 27.0516 74.4062 27.0967 75.0698 27.2255C75.4381 27.2973 77.1272 27.5678 78.8238 27.8269C82.4747 28.3849 87.9133 30.1496 91.3808 31.9011C111.15 41.8879 120.634 65.0039 113.618 86.0991C111.469 92.5602 107.789 98.4794 102.814 103.478C96.3546 109.968 88.878 113.97 79.5678 115.922C76.3921 116.588 75.9105 116.602 52.6879 116.705C26.4997 116.822 27.9934 116.699 27.9934 118.742C27.9934 119.45 28.2165 119.896 28.8031 120.36L29.6131 121L53.1222 120.874C75.4283 120.755 76.7994 120.716 79.9081 120.124C100.196 116.257 115.797 100.518 119.367 80.3161C120.213 75.5324 120.211 68.3383 119.363 63.5384C117.83 54.8643 114.236 47.1562 108.54 40.3307C107.27 38.8088 106.231 37.4664 106.231 37.3475C106.231 37.2288 107.395 35.957 108.817 34.5215L111.403 31.9113L112.964 33.3946C114.757 35.0986 115.833 35.3156 116.889 34.1864C118.13 32.8581 117.849 32.3745 112.988 27.4912C108.095 22.5754 107.549 22.2595 106.283 23.614C105.232 24.7382 105.446 25.7451 107.112 27.5155L108.589 29.0837L105.801 31.8736L103.012 34.6631L101.721 33.6185C96.1336 29.0978 88.1275 25.3464 81.0543 23.935L78.5652 23.4383V20.042V16.6457H82.4325H86.2998V9.32284V2H71.2769H56.2541V9.32284ZM82.135 9.32284V12.4612H71.2769H60.4189V9.5222C60.4189 7.90549 60.5081 6.49323 60.6173 6.38384C60.7262 6.27415 65.6123 6.18448 71.4754 6.18448H82.135V9.32284ZM86.4589 53.6876L76.6316 63.5304L75.4417 62.8788C73.6767 61.9122 69.191 61.9427 67.1907 62.9347C65.3306 63.8574 63.6058 65.576 62.5872 67.5218C61.8515 68.9272 61.7605 69.4137 61.7605 71.9406C61.7605 74.4363 61.856 74.9624 62.5503 76.2865C63.5115 78.119 65.6307 80.1383 67.5061 81.0077C69.6399 81.9974 73.4117 81.9083 75.5051 80.8188C77.7386 79.6565 78.9294 78.4941 80.0723 76.3597C80.987 74.6515 81.079 74.2507 81.0852 71.9406C81.0909 69.918 80.954 69.0984 80.4144 67.9208L79.7364 66.4419L89.5626 56.5527C97.2769 48.7893 99.389 46.5013 99.389 45.9083C99.389 44.8231 98.3659 43.8448 97.231 43.8448C96.3874 43.8448 95.2314 44.9011 86.4589 53.6876ZM101.538 52.0813C100.59 52.7482 100.696 53.9617 101.916 56.3958C110.857 74.2331 102.564 96.3271 84.1514 103.728C79.1284 105.747 75.265 106.313 66.5027 106.313C60.3255 106.313 60.2148 106.324 59.5782 107.005C58.7211 107.922 58.7613 108.859 59.6984 109.801L60.4653 110.571L68.3997 110.412C76.764 110.245 79.1406 109.933 83.6224 108.416C92.8643 105.286 101.092 98.0936 105.595 89.2084C108.432 83.6087 109.578 78.6623 109.596 71.9406C109.613 65.2741 108.469 60.2907 105.601 54.5421C104.15 51.6324 103.088 50.9898 101.538 52.0813ZM73.976 66.8699C77.4229 68.5464 78.0566 73.5157 75.1505 76.0796C71.4007 79.3871 65.7735 76.8397 65.7735 71.8342C65.7735 67.5935 70.0909 64.9803 73.976 66.8699ZM29.6161 93.8956C29.2145 94.2991 28.8858 94.9202 28.8858 95.2762C28.8858 96.892 33.7113 103.399 37.8198 107.322C41.9277 111.246 43.0269 111.768 44.3031 110.404C45.5055 109.117 45.2262 108.634 40.6735 104.123C37.4646 100.944 35.8963 99.12 34.3895 96.814C31.8416 92.9144 31.0651 92.4394 29.6161 93.8956Z" stroke="black" stroke-width="4" mask="url(#path-1-outside-1_691_614)"/>
</svg>
