<svg width="112" height="112" viewBox="0 0 112 112" fill="none" xmlns="http://www.w3.org/2000/svg">
<mask id="path-1-inside-1_692_620" fill="white">
<path fill-rule="evenodd" clip-rule="evenodd" d="M36.1939 2.32376C26.7553 5.82964 25.9669 7.04494 28.4348 14.287L29.6994 17.9967L25.935 21.8169C23.8649 23.9184 21.5644 25.8301 20.8235 26.0651C20.0834 26.3 18.0701 25.7749 16.3509 24.898C11.8456 22.6004 9.7101 22.8331 7.39092 25.8721C5.32311 28.5821 2.06147 35.5106 1.22019 38.9791C0.571905 41.6525 2.43503 43.9734 6.97845 46.1527C9.6027 47.4115 10.4253 48.2347 10.3833 49.5629C10.3522 50.5253 10.265 53.3387 10.1887 55.8137L10.0494 60.3139L5.18536 62.6216C1.42098 64.4072 0.260606 65.3611 0.0512571 66.8402C-0.273273 69.1439 0.948577 73.5197 3.56505 79.4212C5.98696 84.8831 7.92013 85.9552 12.4597 84.354C17.5276 82.566 18.6631 82.9216 22.822 87.5945L26.6456 91.8901L24.9622 95.3532C22.2337 100.968 22.6345 103.037 26.9763 105.747C32.2801 109.058 39.1925 111.5 41.5708 110.903C43.0036 110.544 44.1126 109.224 45.5702 106.146L47.5875 101.886H53.6275C60.2402 101.886 60.662 102.128 62.1532 106.756C64.0217 112.556 67.0585 113.316 75.7515 110.161C85.1551 106.749 86.1427 105.217 83.5939 97.9962C82.9519 96.1772 82.4266 94.5915 82.4266 94.4725C82.4266 93.6166 90.8597 86.3427 91.8613 86.3349C92.5555 86.3302 94.754 87.046 96.7463 87.9276C98.8779 88.8698 101.027 89.3203 101.967 89.0223C103.987 88.3812 107.405 83.0305 109.682 76.9462C111.885 71.0548 111.181 69.0132 106.183 66.8028C104.273 65.9586 102.436 64.7799 102.101 64.1847C101.768 63.5895 101.669 60.5465 101.883 57.4235L102.272 51.7437L106.146 50.309C111.277 48.4098 112 47.7095 112 44.6401C112 41.7489 109.033 32.999 107.001 29.8993C105.114 27.0197 103.908 26.8058 98.6079 28.4101L93.8933 29.837L90.1304 25.5982C88.0603 23.2664 86.3559 20.7845 86.3427 20.0819C86.3287 19.3801 86.977 17.3338 87.7825 15.535C88.588 13.7369 89.0635 11.5638 88.8393 10.7072C87.9264 7.21689 76.1585 1.19015 71.2027 1.67409C69.2586 1.86316 68.4889 2.5385 67.1168 5.25544C64.2467 10.9406 64.1634 10.9881 57.9818 10.4014C51.7254 9.80779 50.8172 9.3184 50.1253 6.16964C49.3642 2.70345 46.8279 -0.0430593 44.4301 0.000511298C43.2845 0.0207405 39.5777 1.06643 36.1939 2.32376ZM47.6256 6.58201C49.6856 12.1723 50.3246 12.5893 57.4105 12.9705C64.9339 13.3751 66.3557 12.7332 68.6469 7.89535C69.9473 5.1504 70.8594 4.18874 72.3163 4.02924C74.9655 3.73903 85.8431 9.2935 86.1863 11.1118C86.3349 11.8945 85.7263 14.2318 84.8337 16.3053C82.839 20.9416 83.1558 21.9072 88.5202 27.5208C93.0473 32.2583 94.1859 32.5867 99.548 30.6952C101.368 30.0533 103.182 29.5282 103.58 29.5282C104.499 29.5282 107.728 36.5734 108.991 41.3334C110.147 45.689 109.54 46.7487 105.132 48.069C100.385 49.4905 99.6733 50.7999 99.4095 58.589C99.1511 66.2255 99.3496 66.5857 105.13 68.9424C106.702 69.5828 108.19 70.6316 108.436 71.2727C108.999 72.7401 104.702 83.1776 102.611 85.4215C101.1 87.0437 100.949 87.0569 98.1573 85.8198C92.192 83.1752 90.7515 83.4227 85.5754 87.9773C82.9838 90.2578 80.6685 92.7359 80.4311 93.4844C80.1938 94.2321 80.6226 96.8183 81.3829 99.2318L82.7666 103.62L81.0265 105.028C78.7719 106.854 69.7458 109.854 67.4842 109.529C66.2374 109.35 65.3891 108.347 64.5424 106.049C62.3835 100.19 61.3096 99.5523 53.6057 99.5523C46.087 99.5523 45.8551 99.6792 43.125 105.297C41.1918 109.274 39.44 109.325 32.0443 105.623C25.3288 102.26 24.8073 101.353 27.0005 96.8401C27.9499 94.8856 28.7251 92.683 28.7227 91.9454C28.7204 91.2078 26.4736 88.1929 23.7303 85.2448C20.1106 81.3569 18.3494 79.9977 17.3136 80.2957C8.31003 82.885 8.40498 82.8757 7.25317 81.3009C5.87723 79.4204 3.0265 71.9091 2.51597 68.8195C2.15019 66.606 2.38523 66.3648 7.0625 64.1512L11.995 61.8171L12.5733 54.8699C13.2395 46.8677 12.7764 45.8967 7.13099 43.4599C4.41723 42.2889 3.82343 41.6579 3.82343 39.9462C3.82343 37.2666 8.99722 26.472 10.5716 25.8682C11.2316 25.6154 13.3196 26.16 15.2115 27.0789C17.1035 27.9985 19.3223 28.7501 20.1425 28.7501C21.8321 28.7501 30.3041 21.6714 31.3781 19.3622C31.8544 18.3383 31.624 16.3286 30.6668 13.1682C29.2823 8.59637 29.2838 8.46566 30.7399 7.38806C32.642 5.98058 43.5367 2.26852 45.0488 2.51282C45.6784 2.61475 46.838 4.44627 47.6256 6.58201ZM48.1696 22.5545C36.1939 25.3983 26.0759 35.162 22.8827 46.9564C20.9091 54.2451 21.5192 63.3771 24.4073 69.7804C27.318 76.2351 28.2363 76.9439 30.6956 74.6331C32.5073 72.9323 32.6186 72.3479 32.6186 64.5402C32.6186 56.7497 32.733 56.1459 34.5269 54.4607C35.7814 53.2827 36.9994 52.8159 38.0819 53.0991C40.3038 53.6803 44.1499 52.2557 45.087 50.5051C46.5259 47.8161 45.9742 44.5227 43.7982 42.8117C39.3614 39.3222 33.8164 42.2523 34.0312 47.9725C34.1113 50.0888 33.6257 51.4123 32.2404 52.8579C30.4987 54.6762 30.322 55.5476 30.1173 63.3234C29.9773 68.6662 29.5749 71.9115 29.0301 72.092C28.5546 72.2491 27.3312 70.5273 26.3117 68.2648C23.6587 62.3765 23.675 50.6832 26.3459 43.922C28.9344 37.3701 37.3885 28.9314 43.9032 26.3965C53.1146 22.8121 67.0709 24.2429 73.8277 29.4644L75.7352 30.938L72.8549 34.1256C70.1007 37.1732 69.9746 37.5568 69.9746 42.8576V48.402L63.2303 55.2924C56.7506 61.912 56.3755 62.1657 53.6944 61.7369C46.431 60.5761 43.6246 70.2441 50.4086 73.0536C54.8703 74.9007 59.1024 70.8946 58.1195 65.754C57.8253 64.2166 59.1188 62.5321 65.3821 56.2937L73.0035 48.7031L72.5389 43.7353L72.0751 38.7667L75.8893 34.8718L79.7027 30.9761L77.3679 29.0427C70.0695 22.998 57.7903 20.2694 48.1696 22.5545ZM80.2856 37.4915C78.712 39.1658 78.6318 39.8147 79.0583 47.438C79.5136 55.5834 79.5112 55.595 77.3493 57.7456C75.5531 59.5312 74.7445 59.8152 72.6019 59.4137C70.4213 59.0044 69.6532 59.2962 67.6624 61.2857C65.0156 63.9318 64.7984 65.1946 66.4437 68.3745C68.3994 72.1565 72.7833 72.695 75.9375 69.5423C77.617 67.8633 77.8637 67.0728 77.4707 64.6188C77.0621 62.0645 77.3041 61.4094 79.3883 59.4223L81.7728 57.1488L81.5308 48.8089C81.2195 38.0734 82.2265 36.5866 85.3255 43.2023C87.2758 47.3656 87.4852 48.6416 87.4852 56.3708C87.4852 64.1847 87.2937 65.3183 85.2889 69.4015C78.8357 82.5442 65.5105 89.7816 51.432 87.7898C46.7322 87.1246 40.1871 84.5259 36.9395 82.0346C35.4686 80.9065 35.5098 80.7835 38.3014 77.925C41.0634 75.0968 41.1794 74.7591 41.1794 69.5493V64.1201L48.5595 56.773C55.5474 49.8157 56.0984 49.4368 58.9195 49.6399C63.0987 49.9418 65.6164 47.792 65.6164 43.922C65.6164 41.8057 65.1199 40.5959 63.8179 39.5424C59.2449 35.8404 53.0189 39.393 53.9442 45.1762C54.3816 47.9103 54.1699 48.2075 46.6193 55.4853L38.8446 62.9795V68.2041C38.8446 73.2808 38.7536 73.522 35.6266 76.7073C33.67 78.7007 32.5813 80.4373 32.8498 81.1368C33.5416 82.9403 40.0859 87.1083 44.9399 88.8379C50.5417 90.8343 60.0877 90.9923 66.1783 89.1903C76.2169 86.2205 85.2843 77.3827 88.6416 67.2953C91.6309 58.3167 90.6207 47.1431 86.1077 39.26C83.976 35.5362 82.5347 35.0982 80.2856 37.4915ZM62.9859 42.0065C64.0576 44.0084 63.3244 46.4009 61.3088 47.4792C57.9654 49.268 54.2065 44.0473 56.9 41.3545C58.4184 39.8365 62.0318 40.2232 62.9859 42.0065ZM42.5802 44.4666C43.89 45.7761 43.7429 48.6401 42.2915 50.0911C40.6517 51.7297 39.1621 51.6309 37.2881 49.7574C35.4141 47.8838 35.3153 46.3946 36.9543 44.7553C38.4057 43.3042 41.2704 43.1572 42.5802 44.4666ZM74.2417 62.6932C75.7655 64.2166 75.511 67.5855 73.7919 68.6608C71.7902 69.9127 68.5068 68.6662 67.9488 66.4418C66.9931 62.6371 71.4999 59.9521 74.2417 62.6932ZM55.6143 65.6552C57.7856 68.9681 54.1808 72.7237 50.6452 70.8323C48.6319 69.7547 48.1128 67.321 49.4809 65.3689C51.0234 63.1678 54.0773 63.3102 55.6143 65.6552Z"/>
</mask>
<path fill-rule="evenodd" clip-rule="evenodd" d="M36.1939 2.32376C26.7553 5.82964 25.9669 7.04494 28.4348 14.287L29.6994 17.9967L25.935 21.8169C23.8649 23.9184 21.5644 25.8301 20.8235 26.0651C20.0834 26.3 18.0701 25.7749 16.3509 24.898C11.8456 22.6004 9.7101 22.8331 7.39092 25.8721C5.32311 28.5821 2.06147 35.5106 1.22019 38.9791C0.571905 41.6525 2.43503 43.9734 6.97845 46.1527C9.6027 47.4115 10.4253 48.2347 10.3833 49.5629C10.3522 50.5253 10.265 53.3387 10.1887 55.8137L10.0494 60.3139L5.18536 62.6216C1.42098 64.4072 0.260606 65.3611 0.0512571 66.8402C-0.273273 69.1439 0.948577 73.5197 3.56505 79.4212C5.98696 84.8831 7.92013 85.9552 12.4597 84.354C17.5276 82.566 18.6631 82.9216 22.822 87.5945L26.6456 91.8901L24.9622 95.3532C22.2337 100.968 22.6345 103.037 26.9763 105.747C32.2801 109.058 39.1925 111.5 41.5708 110.903C43.0036 110.544 44.1126 109.224 45.5702 106.146L47.5875 101.886H53.6275C60.2402 101.886 60.662 102.128 62.1532 106.756C64.0217 112.556 67.0585 113.316 75.7515 110.161C85.1551 106.749 86.1427 105.217 83.5939 97.9962C82.9519 96.1772 82.4266 94.5915 82.4266 94.4725C82.4266 93.6166 90.8597 86.3427 91.8613 86.3349C92.5555 86.3302 94.754 87.046 96.7463 87.9276C98.8779 88.8698 101.027 89.3203 101.967 89.0223C103.987 88.3812 107.405 83.0305 109.682 76.9462C111.885 71.0548 111.181 69.0132 106.183 66.8028C104.273 65.9586 102.436 64.7799 102.101 64.1847C101.768 63.5895 101.669 60.5465 101.883 57.4235L102.272 51.7437L106.146 50.309C111.277 48.4098 112 47.7095 112 44.6401C112 41.7489 109.033 32.999 107.001 29.8993C105.114 27.0197 103.908 26.8058 98.6079 28.4101L93.8933 29.837L90.1304 25.5982C88.0603 23.2664 86.3559 20.7845 86.3427 20.0819C86.3287 19.3801 86.977 17.3338 87.7825 15.535C88.588 13.7369 89.0635 11.5638 88.8393 10.7072C87.9264 7.21689 76.1585 1.19015 71.2027 1.67409C69.2586 1.86316 68.4889 2.5385 67.1168 5.25544C64.2467 10.9406 64.1634 10.9881 57.9818 10.4014C51.7254 9.80779 50.8172 9.3184 50.1253 6.16964C49.3642 2.70345 46.8279 -0.0430593 44.4301 0.000511298C43.2845 0.0207405 39.5777 1.06643 36.1939 2.32376ZM47.6256 6.58201C49.6856 12.1723 50.3246 12.5893 57.4105 12.9705C64.9339 13.3751 66.3557 12.7332 68.6469 7.89535C69.9473 5.1504 70.8594 4.18874 72.3163 4.02924C74.9655 3.73903 85.8431 9.2935 86.1863 11.1118C86.3349 11.8945 85.7263 14.2318 84.8337 16.3053C82.839 20.9416 83.1558 21.9072 88.5202 27.5208C93.0473 32.2583 94.1859 32.5867 99.548 30.6952C101.368 30.0533 103.182 29.5282 103.58 29.5282C104.499 29.5282 107.728 36.5734 108.991 41.3334C110.147 45.689 109.54 46.7487 105.132 48.069C100.385 49.4905 99.6733 50.7999 99.4095 58.589C99.1511 66.2255 99.3496 66.5857 105.13 68.9424C106.702 69.5828 108.19 70.6316 108.436 71.2727C108.999 72.7401 104.702 83.1776 102.611 85.4215C101.1 87.0437 100.949 87.0569 98.1573 85.8198C92.192 83.1752 90.7515 83.4227 85.5754 87.9773C82.9838 90.2578 80.6685 92.7359 80.4311 93.4844C80.1938 94.2321 80.6226 96.8183 81.3829 99.2318L82.7666 103.62L81.0265 105.028C78.7719 106.854 69.7458 109.854 67.4842 109.529C66.2374 109.35 65.3891 108.347 64.5424 106.049C62.3835 100.19 61.3096 99.5523 53.6057 99.5523C46.087 99.5523 45.8551 99.6792 43.125 105.297C41.1918 109.274 39.44 109.325 32.0443 105.623C25.3288 102.26 24.8073 101.353 27.0005 96.8401C27.9499 94.8856 28.7251 92.683 28.7227 91.9454C28.7204 91.2078 26.4736 88.1929 23.7303 85.2448C20.1106 81.3569 18.3494 79.9977 17.3136 80.2957C8.31003 82.885 8.40498 82.8757 7.25317 81.3009C5.87723 79.4204 3.0265 71.9091 2.51597 68.8195C2.15019 66.606 2.38523 66.3648 7.0625 64.1512L11.995 61.8171L12.5733 54.8699C13.2395 46.8677 12.7764 45.8967 7.13099 43.4599C4.41723 42.2889 3.82343 41.6579 3.82343 39.9462C3.82343 37.2666 8.99722 26.472 10.5716 25.8682C11.2316 25.6154 13.3196 26.16 15.2115 27.0789C17.1035 27.9985 19.3223 28.7501 20.1425 28.7501C21.8321 28.7501 30.3041 21.6714 31.3781 19.3622C31.8544 18.3383 31.624 16.3286 30.6668 13.1682C29.2823 8.59637 29.2838 8.46566 30.7399 7.38806C32.642 5.98058 43.5367 2.26852 45.0488 2.51282C45.6784 2.61475 46.838 4.44627 47.6256 6.58201ZM48.1696 22.5545C36.1939 25.3983 26.0759 35.162 22.8827 46.9564C20.9091 54.2451 21.5192 63.3771 24.4073 69.7804C27.318 76.2351 28.2363 76.9439 30.6956 74.6331C32.5073 72.9323 32.6186 72.3479 32.6186 64.5402C32.6186 56.7497 32.733 56.1459 34.5269 54.4607C35.7814 53.2827 36.9994 52.8159 38.0819 53.0991C40.3038 53.6803 44.1499 52.2557 45.087 50.5051C46.5259 47.8161 45.9742 44.5227 43.7982 42.8117C39.3614 39.3222 33.8164 42.2523 34.0312 47.9725C34.1113 50.0888 33.6257 51.4123 32.2404 52.8579C30.4987 54.6762 30.322 55.5476 30.1173 63.3234C29.9773 68.6662 29.5749 71.9115 29.0301 72.092C28.5546 72.2491 27.3312 70.5273 26.3117 68.2648C23.6587 62.3765 23.675 50.6832 26.3459 43.922C28.9344 37.3701 37.3885 28.9314 43.9032 26.3965C53.1146 22.8121 67.0709 24.2429 73.8277 29.4644L75.7352 30.938L72.8549 34.1256C70.1007 37.1732 69.9746 37.5568 69.9746 42.8576V48.402L63.2303 55.2924C56.7506 61.912 56.3755 62.1657 53.6944 61.7369C46.431 60.5761 43.6246 70.2441 50.4086 73.0536C54.8703 74.9007 59.1024 70.8946 58.1195 65.754C57.8253 64.2166 59.1188 62.5321 65.3821 56.2937L73.0035 48.7031L72.5389 43.7353L72.0751 38.7667L75.8893 34.8718L79.7027 30.9761L77.3679 29.0427C70.0695 22.998 57.7903 20.2694 48.1696 22.5545ZM80.2856 37.4915C78.712 39.1658 78.6318 39.8147 79.0583 47.438C79.5136 55.5834 79.5112 55.595 77.3493 57.7456C75.5531 59.5312 74.7445 59.8152 72.6019 59.4137C70.4213 59.0044 69.6532 59.2962 67.6624 61.2857C65.0156 63.9318 64.7984 65.1946 66.4437 68.3745C68.3994 72.1565 72.7833 72.695 75.9375 69.5423C77.617 67.8633 77.8637 67.0728 77.4707 64.6188C77.0621 62.0645 77.3041 61.4094 79.3883 59.4223L81.7728 57.1488L81.5308 48.8089C81.2195 38.0734 82.2265 36.5866 85.3255 43.2023C87.2758 47.3656 87.4852 48.6416 87.4852 56.3708C87.4852 64.1847 87.2937 65.3183 85.2889 69.4015C78.8357 82.5442 65.5105 89.7816 51.432 87.7898C46.7322 87.1246 40.1871 84.5259 36.9395 82.0346C35.4686 80.9065 35.5098 80.7835 38.3014 77.925C41.0634 75.0968 41.1794 74.7591 41.1794 69.5493V64.1201L48.5595 56.773C55.5474 49.8157 56.0984 49.4368 58.9195 49.6399C63.0987 49.9418 65.6164 47.792 65.6164 43.922C65.6164 41.8057 65.1199 40.5959 63.8179 39.5424C59.2449 35.8404 53.0189 39.393 53.9442 45.1762C54.3816 47.9103 54.1699 48.2075 46.6193 55.4853L38.8446 62.9795V68.2041C38.8446 73.2808 38.7536 73.522 35.6266 76.7073C33.67 78.7007 32.5813 80.4373 32.8498 81.1368C33.5416 82.9403 40.0859 87.1083 44.9399 88.8379C50.5417 90.8343 60.0877 90.9923 66.1783 89.1903C76.2169 86.2205 85.2843 77.3827 88.6416 67.2953C91.6309 58.3167 90.6207 47.1431 86.1077 39.26C83.976 35.5362 82.5347 35.0982 80.2856 37.4915ZM62.9859 42.0065C64.0576 44.0084 63.3244 46.4009 61.3088 47.4792C57.9654 49.268 54.2065 44.0473 56.9 41.3545C58.4184 39.8365 62.0318 40.2232 62.9859 42.0065ZM42.5802 44.4666C43.89 45.7761 43.7429 48.6401 42.2915 50.0911C40.6517 51.7297 39.1621 51.6309 37.2881 49.7574C35.4141 47.8838 35.3153 46.3946 36.9543 44.7553C38.4057 43.3042 41.2704 43.1572 42.5802 44.4666ZM74.2417 62.6932C75.7655 64.2166 75.511 67.5855 73.7919 68.6608C71.7902 69.9127 68.5068 68.6662 67.9488 66.4418C66.9931 62.6371 71.4999 59.9521 74.2417 62.6932ZM55.6143 65.6552C57.7856 68.9681 54.1808 72.7237 50.6452 70.8323C48.6319 69.7547 48.1128 67.321 49.4809 65.3689C51.0234 63.1678 54.0773 63.3102 55.6143 65.6552Z" stroke="black" stroke-width="10" mask="url(#path-1-inside-1_692_620)"/>
</svg>
