<svg id="Layer_1" data-name="Layer 1" xmlns="http://www.w3.org/2000/svg" viewBox="0 0 289.3 295.8"><defs><style>.cls-1,.cls-2{stroke:#000;stroke-miterlimit:10;}.cls-2{fill:none;}</style></defs><path class="cls-1" d="M1988.8,388.46c-38.46-.18-76.92,0-115.38-.09-9.18,0-14.24,4.29-16.52,13.33-5.36,21.17-11.5,42.15-17,63.3-3.29,12.74.59,17.71,13.79,17.87,19,.23,38,.06,57.07.06,19.44,0,38.88-.11,58.31,0,8.13.07,13.07-3.1,15.18-11.34,5.62-22,11.79-43.79,17.45-65.75C2004.85,393.75,2001,388.52,1988.8,388.46Zm1.94,20.29c-.87,4-2.14,7.82-3.12,11.78a2.86,2.86,0,0,1-1,1.59c-.75,3.75-2.22,7.11-3.27,10.79-1.21,4.25-1.81,8.71-2.85,13s-2.48,8.78-3.63,13.19c-1,3.6-1.63,7.09-3.37,10.41a2.76,2.76,0,0,1-1.6,1.42,2.81,2.81,0,0,1-2.72,1.76,3.83,3.83,0,0,1-.6-.05,3.06,3.06,0,0,1-1,.18c-17.44,0-34.86.18-52.3.25a2.89,2.89,0,0,1-2-.69,3.31,3.31,0,0,1-.56.06c-6.4.1-12.77,0-19.13-.17a3.05,3.05,0,0,1-1.59.42c-10.64,0-21.28-.38-31.92-.23-2.28,0-6.77,1.11-8.74-.83s-1.37-5.63-1.09-7.85a3.28,3.28,0,0,1,.44-1.3,3.09,3.09,0,0,1,.17-1,267.14,267.14,0,0,0,8.27-29.4c1.11-4.79,3.41-9.12,4.31-14a109.69,109.69,0,0,1,3.21-14.48,3,3,0,0,1,2.49-2.1,11.72,11.72,0,0,1,4.8-2.83h55.71a3,3,0,0,1,1.51-.38c11.39,0,22.78.35,34.17.37a3.11,3.11,0,0,1,1.45-.37c5.24-.08,10.47.06,15.71.11,2.66,0,6-.3,7.88,2S1991.33,406.07,1990.74,408.75Z" transform="translate(-1774.93 -347.84)"/><path class="cls-1" d="M1862.68,508.45c12.82,0,25.64.15,38.45-.08,6.28-.11,15,3.06,14.07-9-.14-1.82,2-3.64,4.32-3.61,2.88,0,5,2.23,4.8,4.63-1,9.5,5.43,8.07,11.09,8.06,26.88,0,53.77.7,80.61-.29,13-.48,17.35,4.09,15.47,16.3-.37,2.43,0,5-.07,7.44-.06,3.89-.47,8.13-5.5,7.88-4.13-.21-5.12-4.09-4.41-7.49,2.54-12.24-4.18-13-13.8-12.76-24,.55-48,.44-71.94.06-7.71-.12-12.86.55-11.29,10.27.62,3.85,1.11,9.62-4.54,9.76-6.83.18-5.73-6.18-5.17-10.27,1.24-9-3.17-9.92-10.59-9.81-24.8.37-49.62.47-74.41-.06-8.37-.17-12.36,1.68-11,10.77.55,3.85,1.23,9.25-4.81,9.49-6.76.27-5.91-5.42-6.08-9.83-.13-3.31.19-6.64-.08-9.92-.72-8.51,2.86-11.93,11.52-11.66C1833.73,508.79,1848.21,508.46,1862.68,508.45Z" transform="translate(-1774.93 -347.84)"/><path class="cls-1" d="M1842.28,348.34l57.63.21c1.2,1.07,3.35,2,3.47,3.22,1.79,17.67,13.65,17.94,27.34,17,12.76-.88,25.62-.17,38.43-.21,3.79,0,8.15-.32,8.48,4.77.4,6.4-4.78,5.38-8.73,5.39-17.78.05-35.57-.54-53.31.23-10,.43-16.13-2.84-17.64-12.65-1.23-8-5.58-9.69-12.89-9.3-10.3.56-20.67.45-31,0-6.58-.27-8.53,2.16-8.39,8.6.38,16.94.24,33.9,0,50.84,0,3.6,2,9.37-4.65,9.3-6.11-.06-5.14-5.47-5.16-9.36-.11-18.6-.05-37.2,0-55.8C1835.91,355.45,1836.71,350.63,1842.28,348.34Z" transform="translate(-1774.93 -347.84)"/><path class="cls-1" d="M2022.32,557a22.43,22.43,0,0,0-22.83,21.38c-.55,12.12,10,23.4,22.16,23.8s22.9-9.93,23.07-22.45C2044.89,566.58,2035.5,557.05,2022.32,557Zm.59,35.45c-16.71,0-16.68-25.91,0-25.91S2039.58,592.45,2022.91,592.45Z" transform="translate(-1774.93 -347.84)"/><path class="cls-1" d="M1918.52,557a22.53,22.53,0,0,0-23.27,22.24c-.08,12.34,10.54,23,22.87,23a22.64,22.64,0,0,0,22.28-22C1940.82,567,1931.59,557.17,1918.52,557Zm-.58,36.26c-16.71,0-16.68-25.91,0-25.91S1934.61,593.21,1917.94,593.21Z" transform="translate(-1774.93 -347.84)"/><path class="cls-1" d="M1813.35,557a22.28,22.28,0,0,0-22.3,21.85c-.26,12.22,10.35,23.16,22.56,23.28a22.91,22.91,0,0,0,22.76-22.91C1836.26,566.3,1826.43,556.81,1813.35,557Zm-.38,35.06c-16.7,0-16.68-25.91,0-25.91S1829.64,592.07,1813,592.07Z" transform="translate(-1774.93 -347.84)"/><path class="cls-1" d="M1959.36,635c.09,3.39.13,6.92-4.08,7.9-2.62.6-5-.47-5.77-3.23-4.15-16-18.51-17.31-30-16.76-11.25.54-26.59.17-29.93,17.28-.45,2.29-2.86,2.94-4.93,2.75-2.65-.24-4.31-1.69-4.63-4.71-.65-6.23.94-11,6.35-14.9,19.52-14,48.06-14,67,.34C1957.26,626.62,1959.85,629.92,1959.36,635Z" transform="translate(-1774.93 -347.84)"/><path class="cls-1" d="M2063.73,635.12c0,3.39-.08,6.89-4.32,7.74-2.68.54-4.42-.87-5.69-3.4-5.65-11.17-19.26-19.6-31.34-16.86-11,2.5-25.57,1.3-28.72,17.66-.38,2-2.89,2.92-5,2.59s-3.83-1.32-4.2-3.77c-1-6.59.38-11.86,6.39-16,19.53-13.45,46.76-13.68,66-.13C2062,626.65,2063.79,629.75,2063.73,635.12Z" transform="translate(-1774.93 -347.84)"/><path class="cls-1" d="M1816.26,611.73c12.49,1,23.68,5.94,34.08,12.86,4.78,3.18,5,8.11,4.72,13.22-.14,3-1.69,4.74-4.32,5.05s-4.36-.89-5.65-3.56c-5.45-11.32-20.44-19.89-32.66-16.6-10.55,2.85-24.87,1.7-27.42,17.82-.3,1.92-2.77,3-5,2.5-2-.46-3.84-1.54-4.25-3.89-1.07-6.15.07-11.47,5.68-15.13A79.37,79.37,0,0,1,1816.26,611.73Z" transform="translate(-1774.93 -347.84)"/><path class="cls-2" d="M1910.45,472.78c-17.78,0-35.57-.4-53.33.16-7.64.25-8.24-2.92-6.62-8.74,5.39-19.35,11-38.63,16-58.09,1.55-6.08,4.37-7.72,10.28-7.68,36,.22,71.94.31,107.9,0,7.66-.07,8,2.94,6.33,8.82-5.49,19.31-11.26,38.57-15.94,58.08-1.55,6.44-4.33,7.66-10,7.59C1946.83,472.64,1928.64,472.79,1910.45,472.78Z" transform="translate(-1774.93 -347.84)"/></svg>