<svg id="Layer_1" data-name="Layer 1" xmlns="http://www.w3.org/2000/svg" viewBox="0 0 287.47 302.63"><defs><style>.cls-1{fill:#010002;}</style></defs><path class="cls-1" d="M2131.71,462.11c0,23.58,0,46.63,0,69.67,0,1.09,0,1.84-1.5,1.84-23.13,0-46.26,0-70,0,5.19-5.2,10-10,14.74-14.76,2.84-2.84,2.81-2.74-1-4.3a96.26,96.26,0,0,0-37.1-7.62c-41.59.14-78.13,23.73-94.9,62.47a101.31,101.31,0,0,0,8.56,95.69c1.27,1.9,1.2,3-.46,4.61q-13.15,12.87-26,26c-1.38,1.39-1.93,1.21-3-.26a146,146,0,0,1-24.2-50.41,138.81,138.81,0,0,1-4.42-43.25c1.67-28.73,10.78-55,28.13-78.08,20.94-27.85,48.31-46.17,82.34-54.36a137.28,137.28,0,0,1,32.36-4,141.39,141.39,0,0,1,70,18c2.88,1.61,4.46,1.3,6.65-1C2118.29,475.52,2125,468.94,2131.71,462.11Z" transform="translate(-1892.17 -462.11)"/><path class="cls-1" d="M2021.57,686.4c-5.57,6.91-10.54,13.14-15.59,19.31-1.15,1.4-1.47,2,.71,2.66a102.9,102.9,0,0,0,35.75,4A102.24,102.24,0,0,0,2132.72,643a100.62,100.62,0,0,0-6.87-80.94c-.93-1.67-1.14-2.79.56-4.2q14.28-11.79,28.37-23.81c1.52-1.3,2-1.24,3.14.5a141.92,141.92,0,0,1,20.67,92.75,140.59,140.59,0,0,1-31,73.56c-20.34,25-46.31,41.48-77.61,49.35a135.62,135.62,0,0,1-39.75,4.09,138.32,138.32,0,0,1-49.67-11.48c-2.58-1.14-4-1-5.77,1.41-5.23,6.9-10.81,13.53-16.42,20.47-1.49-2.35-.92-4.82-1.22-7-1.11-8.18-1.7-16.42-2.58-24.63s-1.89-16.59-2.82-24.89c-.46-4.1-.87-8.21-1.32-12.31-.15-1.38.12-1.94,1.82-2.1,8.6-.81,17.18-1.91,25.78-2.82,8.3-.88,16.63-1.61,24.94-2.47C2009,687.88,2014.9,687.16,2021.57,686.4Z" transform="translate(-1892.17 -462.11)"/><path class="cls-1" d="M2103.76,602.76c0-1.64-.36-2.21-2.09-2.16-4.74.12-9.49,0-14.24,0-1.3,0-1.95-.13-2.31-1.78a42.43,42.43,0,0,0-6.2-15,1.92,1.92,0,0,1,.34-2.94c3.43-3.28,6.66-6.78,10.12-10,1.4-1.31,1.24-2-.06-3.23-3.3-3.12-6.56-6.31-9.63-9.66-1.45-1.58-2.22-1.14-3.45.14-3.21,3.35-6.6,6.54-9.81,9.91-1,1.07-1.76,1.16-2.95.36a43,43,0,0,0-15-6.21c-1.63-.36-1.81-1-1.8-2.3,0-4.75-.07-9.5,0-14.24,0-1.74-.52-2.13-2.16-2.09-4.74.1-9.49.11-14.24,0-1.74,0-2.11.55-2.08,2.17.1,4.55,0,9.1.06,13.65,0,1.58,0,2.53-2.13,2.95a40,40,0,0,0-14.75,6.17c-1.13.77-1.82.56-2.73-.38-3.31-3.41-6.76-6.67-10.05-10.09-1.18-1.22-1.88-1.59-3.24-.13-3.16,3.4-6.45,6.7-9.86,9.86-1.49,1.38-1,2.07.16,3.22,3.35,3.22,6.57,6.58,9.89,9.82,1,.93,1.48,1.64.56,3a41.77,41.77,0,0,0-6.29,15c-.39,1.76-1.09,1.91-2.52,1.89-4.65-.06-9.3,0-14-.06-1.59,0-2.23.29-2.18,2.06.12,4.75.16,9.5,0,14.25-.07,2,.72,2.21,2.39,2.17,4.54-.1,9.1,0,13.64-.07,1.6,0,2.32.27,2.71,2a42.33,42.33,0,0,0,6.17,14.79c.84,1.26.59,2-.44,3-3.49,3.36-6.83,6.87-10.32,10.23-1,1-1.09,1.56,0,2.57q5.23,5.05,10.28,10.29c1.07,1.11,1.69,1.14,2.78,0,3.28-3.44,6.73-6.7,10-10.12,1-1.07,1.8-1.46,3.2-.51a42.71,42.71,0,0,0,14.79,6.17c1.71.38,2,1,1.92,2.49-.07,4.65.08,9.3-.07,13.94-.06,1.89.52,2.31,2.31,2.26,4.64-.13,9.3-.15,13.94,0,1.91.07,2.3-.54,2.25-2.32-.14-4.34.17-8.71-.13-13.05-.17-2.46.85-3.25,2.9-3.63a38.38,38.38,0,0,0,13.69-5.68c1.61-1,2.45-.74,3.64.52,3.21,3.36,6.6,6.55,9.81,9.91,1.06,1.1,1.68,1.22,2.79.05,3.28-3.43,6.63-6.8,10.06-10.07,1.22-1.17,1.24-1.85,0-3-3.44-3.28-6.68-6.76-10.12-10-1.18-1.12-1.14-1.89-.31-3.17a37.54,37.54,0,0,0,5.77-13.92c.42-2.36,1.48-3,3.73-2.74a53.27,53.27,0,0,0,5.93,0c2.37,0,4.75-.1,7.12,0,1.61.08,2.21-.33,2.17-2.08C2103.64,612.26,2103.66,607.5,2103.76,602.76Zm-65.48,29.93c-13,0-22.67-10.65-23.24-23.24s11.08-23.23,23.24-23.23c13,0,22.67,10.65,23.23,23.23S2050.43,632.69,2038.28,632.69Z" transform="translate(-1892.17 -462.11)"/></svg>