<svg id="Layer_1" data-name="Layer 1" xmlns="http://www.w3.org/2000/svg" viewBox="0 0 371.11 371.14"><defs><style>.cls-1,.cls-3{fill:none;}.cls-1,.cls-2{stroke:#000;stroke-miterlimit:10;}</style></defs><path d="M2087.48,314.26H1863.82c-8.92,0-13.61,4.68-13.62,13.56,0,16.09-.13,32.17.1,48.26,0,3.58-1.11,4.14-4.31,4.1-14.09-.17-28.17-.09-42.26-.07-8.65,0-13.37,4.75-13.38,13.42,0,16.34-.07,32.67.06,49,0,2.7-.49,3.54-3.39,3.5-14.21-.17-28.42-.08-42.64-.07-9.38,0-13.89,4.56-13.89,14V671.33c0,9.44,4.56,14.06,13.89,14.07H1968c9.19,0,13.84-4.62,13.84-13.74,0-16.09.13-32.17-.1-48.25,0-3.47,1-4,4.11-3.93,14.09.16,28.18.08,42.27.07,8.87,0,13.57-4.72,13.58-13.63,0-16.33.06-32.67-.06-49,0-2.57.53-3.32,3.21-3.29,14.09.15,28.18.07,42.26.07,10,0,14.44-4.38,14.44-14.26q0-105.48,0-211C2101.59,318.77,2097.12,314.26,2087.48,314.26Zm-225.31,14.4a2.88,2.88,0,0,1,3-2.75,3.14,3.14,0,0,1,.83.11c5.84,1,11.73.6,17.63.6,5.36,0,10.72.19,16.08.09,11.23-.21,22.44-.89,33.67-.93a2.81,2.81,0,0,1,2.18.92,3.19,3.19,0,0,1,1.35-.29c5.59,0,11.18.1,16.77.23,1,0,2,.07,3.07.14a3.06,3.06,0,0,1,.43-.13c7.55-1.37,15.42-.52,23.06-.46q13.45.12,26.91.1a3.11,3.11,0,0,1,1.37.3,3.26,3.26,0,0,1,1-.18c24.17,0,48.33-.3,72.5-.25a3.08,3.08,0,0,0,1.77,0,3.17,3.17,0,0,0,2.27,0,3,3,0,0,1,1.33.28,2.83,2.83,0,0,1,2,2.82v10a3.25,3.25,0,0,1-.19,1.08,3.08,3.08,0,0,1-2.79,4.3,3.12,3.12,0,0,1-1.38-.32,2.63,2.63,0,0,1-.64.06c-16.67,0-33.35-.06-50,0a3,3,0,0,1-1.1-.19,3.53,3.53,0,0,1-.67.07c-6.91,0-13.83-.2-20.74-.38a3,3,0,0,1-1.49.38h-32.84a2.93,2.93,0,0,1-1.7-.5c-11.92.06-23.92.29-35.82.75a2.92,2.92,0,0,1-1.83-.5c-12.1,0-24.2.05-36.3.08s-24.49-1-36.39.55a3.14,3.14,0,0,1-3-2.28c-.84-3-.67-6.15-.86-9.29a2.64,2.64,0,0,1,.8-2.21A2.88,2.88,0,0,1,1862.17,328.66ZM1802,406a32.35,32.35,0,0,0,.38-7.67,2.36,2.36,0,0,1,.43-1.61c-1.29-1.81-.49-5,2.39-5,3.72,0,7.43.28,11.14.52a3,3,0,0,1,1.46-.33c14.81.24,29.53.32,44.34.1a3.14,3.14,0,0,1,1.18.2c1.22,0,2.44.07,3.66.13a3,3,0,0,1,1.69-.52,46.59,46.59,0,0,1,7.18.61,2.94,2.94,0,0,1,1.73-.52c19.91,0,39.79.45,59.68-.47a2.71,2.71,0,0,1,2.3.93c1.44,0,2.88,0,4.32.07a2.85,2.85,0,0,1,2-.72c5,0,9.94.35,14.89.65a3.52,3.52,0,0,1,.75-.08q17.87,0,35.71-.28a2.94,2.94,0,0,1,1.41.3l.2,0c1.05,0,2.09,0,3.14,0a3.09,3.09,0,0,1,1.41-.32h21.13a3,3,0,0,1,1.42.33,3.49,3.49,0,0,1,.94-.15,2.87,2.87,0,0,1,2.12.85l.06.05.1.11a2.89,2.89,0,0,1,.83,2.1v11.55a3.12,3.12,0,0,1-.29,1.35,2.78,2.78,0,0,1-2.82,1.95,31.73,31.73,0,0,1-4.24-.43,2.93,2.93,0,0,1-1.72.52c-6.48,0-13,.09-19.43.09a3,3,0,0,1-1.42-.33,3.14,3.14,0,0,1-.94.15c-14.17-.05-28.28-.49-42.45-.19a3.34,3.34,0,0,0-1.7,0c-10.42,0-21.19.44-31.68-.2a3.47,3.47,0,0,1-.82.1c-2.94,0-5.87-.2-8.8-.37a3.22,3.22,0,0,1-1.33.28c-13.44,0-26.84-.11-40.27-.26a3.13,3.13,0,0,1-1.42.35c-9.16.16-18.31.12-27.47.29a3.42,3.42,0,0,1-1.2-.21,3.13,3.13,0,0,1-1.33,0,23,23,0,0,0-5.32-.3c-2.12.15-4.24.29-6.36.32a3.3,3.3,0,0,1-.92-.13c-2.5,0-5-.06-7.5-.06-2.8,0-5.61.06-8.41,0-.44,0-1.29,0-2.12,0a3.18,3.18,0,0,1-3.37.13c-2.12,1.07-5-.77-4.59-3.13A2.25,2.25,0,0,1,1802,406Zm-59.78,57.32a3.26,3.26,0,0,1,.32-1.38,3.06,3.06,0,0,1,2.79-4.28,3.11,3.11,0,0,1,1.37.3,3.36,3.36,0,0,1,2.15-.13,3.43,3.43,0,0,1,.74-.08c6.41,0,12.77.72,19.17.83,6,.1,12-.68,18-.77,13.48-.18,26.92.19,40.4.23h0a3.23,3.23,0,0,1,2.1-.37,76.57,76.57,0,0,0,8.39.81,2.92,2.92,0,0,1,2.06-.82c10.79-.19,21.58.52,32.39.32s21.67-.4,32.5-.42a3.15,3.15,0,0,1,1.19.23,3.31,3.31,0,0,1,.33,0c9.74,0,19.48-.28,29.22-.32,9.29,0,18.53.68,27.81.8.12,0,.22,0,.33,0a6.62,6.62,0,0,1,2.48-.15,3.14,3.14,0,0,1,.7-.07,2.92,2.92,0,0,1,3,3.06,6.5,6.5,0,0,1,.3,1.41c.28,3.07-.58,6.34.08,9.36a3.25,3.25,0,0,1-3.71,3.84,3.34,3.34,0,0,1-1.27.28c-16.65.34-33.27.32-49.93.28a3.57,3.57,0,0,1-.59-.06,3.39,3.39,0,0,1-.64.06c-11.27-.05-22.52-.72-33.79-.48q-16.26.35-32.53.39a3.18,3.18,0,0,0-1.23,0c-10.93,0-21.85.17-32.78.09h-.06c-14.17-.05-28.34-.54-42.5-.81a2.62,2.62,0,0,1-2.06.62c-1.09-.09-2.16-.3-3.24-.49a2.9,2.9,0,0,1-1.88.59c-2.85-.06-5.68-.42-8.52-.57l-.63-.05a3,3,0,0,1-1.74.52h-7.67a3.19,3.19,0,0,1-1.24-.24,2.8,2.8,0,0,1-2.15-2.86C1742,469.79,1742.2,466.57,1742.22,463.35Zm228.3,40c0,5.89-.4,11.75-.45,17.63a4.45,4.45,0,0,1-.4,4.39,123.41,123.41,0,0,0,.49,14.26c.33,3-.23,5.84-.49,8.74a4,4,0,0,1,.57,1.94,22,22,0,0,1-.33,6.17v0a4.34,4.34,0,0,1,.06.63c-.07,6.07-.91,12.25.14,18.26a4.19,4.19,0,0,1-.16,2.08,4.32,4.32,0,0,1,.11,1.16c-.31,6.34-.09,12.7-.09,19a4,4,0,0,1-.22,1.3,3.7,3.7,0,0,1,.6,2.3q-.27,5.13-.34,10.26c0,1.85,0,3.71,0,5.57,0,.56-.38,1.84-.17,2.25a3.77,3.77,0,0,1,.19,3.35,4.21,4.21,0,0,1,0,1.33c-1.52,10.13.28,20.76.15,31a4.23,4.23,0,0,1-.29,1.47v0c.05,2.57.62,5.09.66,7.67a3.59,3.59,0,0,1-1.19,2.89c1.78,2.34.8,6.62-3,6.5h-.14c-8.76-.28-17.45-.25-26.23-.18a4,4,0,0,1-1.49.28c-7.09,0-14.18-.21-21.26-.47l-.13,0c-4.58,1.26-8.92.07-13.54-.19l-.8,0a3.9,3.9,0,0,1-1.88.46c-15.72,0-31.41,0-47.13-.18a4.07,4.07,0,0,1-1.09.18c-8.93.29-17.87.55-26.81.57a3.74,3.74,0,0,1-2.5-.87c-3.07,0-6.15-.18-9.22-.29a3.93,3.93,0,0,1-1.92.5c-7.83.06-15.58,0-23.4-.1a4,4,0,0,1-1.11-.17c-.16,0-.3.1-.48.13-6,.93-11.9.16-17.89.27-6.48.11-12.88.41-19.36.25a4.14,4.14,0,0,1-1.75-.43,3.76,3.76,0,0,1-2.14.62c-3.71,0-4.72-4.15-3.07-6.46a4.1,4.1,0,0,1-.58-2.85c.74-4.87.1-10.23.08-15.14,0-5.31-.17-10.61-.13-15.92a4.25,4.25,0,0,1,.36-1.7,4.07,4.07,0,0,1-.17-1.14c0-4-.11-8.1-.12-12.15,0-2.3.27-4.59.45-6.87a4,4,0,0,1-.42-1.73c-.13-3.72-.14-7.43-.29-11.16a44.08,44.08,0,0,1,.08-7.53,3.76,3.76,0,0,1-.17-1.68c.74-7.13.29-14.35.19-21.5a3.76,3.76,0,0,1,.58-2.16,4.42,4.42,0,0,1-.21-1.25c0-9.16-.34-18.33-.37-27.48a3.9,3.9,0,0,1,.24-1.41,4.11,4.11,0,0,1-.15-1.15c0-2.37-.33-4.75-.14-7.12.09-1.17.28-2.32.47-3.47a3.12,3.12,0,0,1-.14-1.06c.16-2.84,0-5.69.41-8.51a4,4,0,0,1-.27-2.5c1-5-.69-10.21-.8-15.23a3.54,3.54,0,0,1,1-2.69,4.36,4.36,0,0,1-.68-2.36,3.73,3.73,0,0,1,3.85-4c4.51.06,9,.49,13.54.35s8.9-.7,13.39-.69c8.32,0,16.91-.23,25.18.62a4.56,4.56,0,0,1,.77.16,4.39,4.39,0,0,1,1.12-.16c9.5,0,18.92.16,28.41-.3,7.75-.38,15.48.2,23.22.47a3.9,3.9,0,0,1,1.9-.45c13.88.17,27.63.25,41.5,0,13.39-.21,26.78-.26,40.16-.5a4,4,0,0,1,1,.1h0c9.17,0,18.41.14,27.57.63a3.86,3.86,0,0,1,2.17-.63,3.82,3.82,0,0,1,3.81,4.49C1971.31,495.32,1970.53,499.79,1970.52,503.36Zm59.78-63.59c-.18,4.68-.62,9.28-.38,14a2.82,2.82,0,0,1-.4,1.69,180.43,180.43,0,0,1,.47,25.15,3.23,3.23,0,0,1-.51,1.51,3.14,3.14,0,0,1,.19.76c.93,7.56-.07,15.1.14,22.66a3.54,3.54,0,0,1,0,2.25,2.6,2.6,0,0,1-.1.4c0,9.42-.35,18.82.32,28.19a2.94,2.94,0,0,1-.19,1.33,3.13,3.13,0,0,1,.06.63c0,8.72-.17,17.42-.06,26.14a3.26,3.26,0,0,1-.11.86,3.39,3.39,0,0,1,0,.47c0,6.55,0,13.1-.19,19.65A3.07,3.07,0,0,1,2030,587c0,3.24-.4,6.46-.59,9.68,1,2.55.38,5,.52,7.75a3.13,3.13,0,0,1-3.1,3.1h-.76l-.33,0c-.6,0-1.2-.08-1.79-.13a3.78,3.78,0,0,1-2.68.55l-2.73-.44a2.68,2.68,0,0,1-1.69.29c-2.46-.29-4.92-.47-7.38-.58a2.91,2.91,0,0,1-1.52.39c-4.68,0-9.36-.08-14-.11-1.57,0-3.13,0-4.69-.07-1,0-3.17.53-2.2-.47-2.61,2.7-6.63-1-4.81-3.85a3.15,3.15,0,0,1-.23-1.19c0-5.83-.73-11.75-.19-17.56a2.87,2.87,0,0,1-.06-1.07c.62-5,.08-9.92.19-15a3.44,3.44,0,0,1,.12-.81,2.82,2.82,0,0,1-.37-1.59c.28-7.69.53-15.29.38-23a3.23,3.23,0,0,1,.09-.84,3.18,3.18,0,0,1,.62-2.93,6.83,6.83,0,0,0-.63.88c0,.15-.08.15,0,0a1.51,1.51,0,0,0,0-.78,16.26,16.26,0,0,1-.11-1.85c-.06-.73-.14-1.45-.2-2.18-.3-3.57-.36-7.16-.32-10.74a3.12,3.12,0,0,1,.38-1.48,2.72,2.72,0,0,1-.38-1.74c1.06-12.56-.65-25.23.43-37.79a2.76,2.76,0,0,1-.37-1.68c.56-7.66.45-15.33.45-23a3.21,3.21,0,0,1,0-.55v0c-.27-1.79-.44-3.63-1.49-5.15-.88-1.29-2-2.27-2.38-3.84-.06-.21,0-.27.09-.27l-.42-.22c-.61-.34-1.2-.7-1.79-1.07a9.49,9.49,0,0,0-5.42-1.32,2.88,2.88,0,0,1-1.88-.64c-.61,0-1.19.07-1.72.07a3.05,3.05,0,0,1-1-.16c-3.33.09-6.65,0-10-.12a2.91,2.91,0,0,1-1.64.47c-8.7,0-17.38.33-26.08.26a3.15,3.15,0,0,1-1.46-.37,3.85,3.85,0,0,1-.5.05c-12.68,0-25.34.36-38,.32a4.46,4.46,0,0,1-.54-.06,4.29,4.29,0,0,1-.53.06c-9.42,0-18.83.49-28.24.51s-18.94-.65-28.42-.7a2.48,2.48,0,0,1-.27,0,2.77,2.77,0,0,1-.3,0c-8,0-15.64.68-23.62-.07h-.19l-.94.07a3.1,3.1,0,0,1-3-2.28,34.35,34.35,0,0,1,0-8c.2-2.54-.15-5-.19-7.5a3.09,3.09,0,0,1,.32-1.44,3.31,3.31,0,0,1,.84-4.18,2.83,2.83,0,0,1,2.32-1.08,2.94,2.94,0,0,1,1.93.66l2.58.18a2.94,2.94,0,0,1,1.68-.46c16.31.21,32.64.58,49-.38a2.68,2.68,0,0,1,2.08.7,2.81,2.81,0,0,1,1.08-.19c15.27,0,30.55.19,45.83.24a2.83,2.83,0,0,1,2-.69c5.47.09,10.82.61,16.23.76a2.91,2.91,0,0,1,2-.69c12.18,0,24.37.31,36.57.31a3.81,3.81,0,0,1,.6.06,3.22,3.22,0,0,1,1.29-.25c19.48.14,38.95-.4,58.42-.31a3,3,0,0,1,3,3.63,3.29,3.29,0,0,1,.14.92C2030,430.6,2030.48,435.2,2030.3,439.77ZM2090,416.62c0,6.51-.25,13-.29,19.51a4.2,4.2,0,0,1-.05.51c.07,10.19.05,20.36.05,30.56a2.09,2.09,0,0,1,0,.36c.09,10.49.48,21,.48,31.47a2.87,2.87,0,0,1-.72,2c0,3.12-.15,6.24-.24,9.35a3.24,3.24,0,0,1,.16.47c1.36,6.08-.07,12.91.08,19.13.05,2.19.57,5.2.19,7.67a3.08,3.08,0,0,1-2.76,4.35,3.46,3.46,0,0,1-.88-.13l-.33.08c-3,.45-6.53-.3-9.6-.38-3.6-.09-7.19-.21-10.78-.2-2.56,0-5.11,0-7.67,0a3,3,0,0,1-1.69.49c-2.94,0-5.89-.12-8.84-.13a3.07,3.07,0,0,1-1.33-.28c-.17,0-.34.06-.5.11-2.74.78-4.35-2-3.66-4.11a2.65,2.65,0,0,1,.1-3c.66-1,0-4.35-.07-5.53-.27-3.08-.39-6-.36-9.14a137.23,137.23,0,0,1,1-14.68,3.33,3.33,0,0,1-.19-1.05c-.06-5.49-.21-10.68.23-16A3.05,3.05,0,0,1,2042,487c-.08-2.72-.34-5.35-.23-8.09.1-2.37.37-4.74.46-7.11a3.41,3.41,0,0,1-.29-1.16c-.44-6.81-.59-13.52-.63-20.34a3,3,0,0,1,.41-1.57.69.69,0,0,0,0-.13,3.14,3.14,0,0,1,.31-2.38s0-.06,0-.09c.35-2.19-.21-4.83-.16-7.1,0-2.75.26-5.48.35-8.22a2.85,2.85,0,0,1-.56-1.85c.14-6,.13-12.13.13-18.19a3.7,3.7,0,0,1,.09-.77c.25-4,.35-8.14.44-12.19a3,3,0,0,1-.53-1.7,16.4,16.4,0,0,1,.26-2.76,3.09,3.09,0,0,1-.64-1.85,20.44,20.44,0,0,0-.08-2.55c-.11-.68-.38-1.75-.46-2.65a2.49,2.49,0,0,1-.93-1c-.1-.21-.2-.42-.29-.64a2.65,2.65,0,0,1-1.6-2c0-.11-6.14-2.12-5.71-2-3.18-1-6.44-.83-9.72-.91-5-.13-10.08.75-15.09.11a3.62,3.62,0,0,1-1,.14c-13.14-.25-26.32-.23-39.47-.35a3,3,0,0,1-1.77.54q-18.06,0-36.11.12h-.31c-5.27-.11-10.54-.06-15.81.06a3,3,0,0,1-1.5-.34,3.13,3.13,0,0,1-.77.09c-7.84,0-15.66-.34-23.5-.12a136.41,136.41,0,0,1-17.52-.23,3,3,0,0,1-1.36.35h-1.28a3,3,0,0,1-4.78-3s0-.08,0-.12a2.78,2.78,0,0,1,0-.58,3.43,3.43,0,0,1-.17-1c0-4-.25-8.08-.25-12.12a3,3,0,0,1,.59-1.86c-1.3-1.79-.51-5,2.38-5,8.78,0,17.56.17,26.33.28a2.87,2.87,0,0,1,2.1-.84c6.12-.06,12.23.27,18.35.59a3.2,3.2,0,0,1,1.16-.22c18.07,0,36.15.24,54.22.2a2.82,2.82,0,0,1,1.87-.57c2.81.06,5.59.44,8.38.75h29.37c4.53,0,9.07.14,13.61.28a3.32,3.32,0,0,1,1.31-.28c6.32-.05,12.62-.7,19-.75a3,3,0,0,1,1.57.4c5.17.05,10.34.21,15.51.35a3.09,3.09,0,0,1,1.48-.38c8.34,0,16.68-.17,25-.18a3.21,3.21,0,0,0,2.65-.19,3.13,3.13,0,0,1,3.1,3.1c0,8.54.44,17-.38,25.53v0l-.06.72a3.26,3.26,0,0,1,.44,1.36,75.09,75.09,0,0,1,0,15.36C2090.63,406.69,2090,411.89,2090,416.62Z" transform="translate(-1730.49 -314.26)"/><path class="cls-1" d="M1855.81,673.42c-36.53,0-73.07,0-109.61.08-3.1,0-3.82-.71-3.82-3.82q.16-89,0-178.08c0-3.11.72-3.83,3.83-3.82q110,.15,220,0c3.11,0,3.83.72,3.82,3.82q-.15,89,0,178.08c0,3.11-.72,3.83-3.82,3.82C1929.38,673.38,1892.6,673.42,1855.81,673.42Z" transform="translate(-1730.49 -314.26)"/><path class="cls-1" d="M1975.88,356.16c36.65,0,73.3,0,109.94-.07,3,0,3.89.55,3.89,3.76q-.18,89.19,0,178.39c0,3.06-.93,3.58-3.7,3.55-13.59-.13-27.18-.17-40.76,0-3,.05-3.57-.91-3.56-3.7q.12-71.81.06-143.6c0-9.94-4.43-14.4-14.3-14.4q-80.78,0-161.55.08c-3.15,0-4-.77-3.8-3.86.28-5.59.27-11.22,0-16.82-.13-2.86.74-3.42,3.48-3.41Q1920.73,356.25,1975.88,356.16Z" transform="translate(-1730.49 -314.26)"/><path class="cls-1" d="M1916,422c36.65,0,73.3,0,109.94-.08,3,0,3.88.6,3.87,3.78q-.16,89,0,178c0,3.47-1,4-4.12,3.92q-20.19-.25-40.38,0c-3.08.05-3.55-.95-3.54-3.71q.12-71.81.05-143.61c0-9.92-4.44-14.39-14.31-14.39q-80.77,0-161.55.09c-3.18,0-3.93-.82-3.78-3.87.27-5.6.27-11.23,0-16.83-.14-2.89.78-3.4,3.49-3.4Q1860.89,422.09,1916,422Z" transform="translate(-1730.49 -314.26)"/><path class="cls-1" d="M1975.83,344.19c-36.66,0-73.32-.05-110,.09-3.23,0-4-.88-3.76-3.9a79.27,79.27,0,0,0,0-11.22c-.18-2.59.82-3.29,3.13-2.94a7,7,0,0,0,1.12,0q109.61,0,219.21-.09c3.52,0,4.38,1,4.12,4.28a65.39,65.39,0,0,0,0,10.84c.27,3.09-1.33,3-3.52,3q-49.18-.06-98.38,0Z" transform="translate(-1730.49 -314.26)"/><path class="cls-1" d="M1916.05,410c-36.66,0-73.32-.05-110,.08-3.1,0-4.07-.68-3.83-3.83a111,111,0,0,0,0-12c-.06-1.81.49-2.52,2.29-2.26a14.57,14.57,0,0,0,1.87,0q109.59,0,219.2-.08c3.37,0,4.51.77,4.2,4.2a74,74,0,0,0,0,10.84c.15,2.45-.61,3.06-3,3-24.31-.09-48.63,0-72.94,0Z" transform="translate(-1730.49 -314.26)"/><path class="cls-1" d="M1855.8,475.88c-36.53,0-73.06,0-109.6.08-3.11,0-4-.7-3.81-3.83a111.14,111.14,0,0,0,0-12c-.06-1.82.52-2.5,2.3-2.25a13,13,0,0,0,1.87,0q109.61,0,219.21-.09c3.39,0,4.49.81,4.18,4.22a73.86,73.86,0,0,0,0,10.83c.15,2.48-.65,3.06-3.07,3.05-25.43-.09-50.87-.06-76.31-.06Z" transform="translate(-1730.49 -314.26)"/><path d="M1922,573c-.06-3.76-2.29-5.92-6.09-6.18-1.74-.12-3.49,0-5.24,0-.85,0-1.93.24-2.35-.7-1.07-2.38-2.37-4.75-2.79-7.26-.26-1.48,2-2.37,3-3.6.31-.38.7-.71,1-1.07,3.58-3.73,3.61-6.58,0-10.28q-6.71-6.78-13.49-13.48c-3.82-3.77-6.61-3.71-10.53.14-1,1-2,1.93-2.92,2.9a2.26,2.26,0,0,1-2.23.94c-5.09-.9-7.21-3.31-7.26-8.48,0-.75,0-1.5-.06-2.24-.42-3.61-2.5-5.74-6.1-5.79q-10.65-.17-21.31,0c-3.79,0-5.93,2.21-6.28,6a7.63,7.63,0,0,0,0,2.61c1.5,5.44-2.93,5.77-6.1,7.4s-4-1.44-5.64-2.75c-1.83-1.49-3.33-3.4-6.16-3.48a7.13,7.13,0,0,0-4.7,2.37c-3.68,3.72-7.39,7.41-11.1,11.11-7.39,7.38-7.4,8.15-.26,15.57.81.85,1.89,1.44,1.46,3.09-1.53,5.89-2.74,6.94-8.67,7a18.5,18.5,0,0,0-2.24.07c-3.44.5-5.46,2.5-5.52,6q-.18,10.85,0,21.68c.06,3.57,2.27,5.7,5.89,6,1.86.15,3.74,0,5.61.06a2.5,2.5,0,0,1,2.32.82c2.94,3.78,2.73,7.69-.7,11.13l-.79.8c-3.44,3.59-3.48,6.46,0,10,4.1,4.19,8.28,8.3,12.42,12.44,5.39,5.37,7.49,5.35,12.93-.11.71-.7,1.41-1.41,2.11-2.12a1.91,1.91,0,0,1,2-.49c5.58,1.21,7,2.93,7.1,8.59,0,.62,0,1.25,0,1.87.37,3.8,2.49,5.95,6.29,6,7.1.09,14.21.1,21.31,0,3.6-.06,5.72-2.19,6.07-5.81.17-1.85.06-3.73.08-5.6,0-.86-.19-1.91.76-2.33,2.26-1,4.52-2.31,6.91-2.7,2-.32,2.76,2.17,4.21,3.25a3.44,3.44,0,0,1,.27.27c4.25,4.2,6.91,4.25,11.07.11q6.51-6.45,13-13c4-4,4-6.76,0-10.81-1-1-1.92-2-2.9-2.91a2.21,2.21,0,0,1-.85-2.26c1.06-5.35,3.12-7.13,8.53-7.19a18.57,18.57,0,0,0,2.24,0c3.55-.41,5.66-2.56,5.71-6.18Q1922.14,583.63,1922,573Zm-11.79,12.28a3.41,3.41,0,0,1-.91,2.41,4,4,0,0,1-2,1,2.83,2.83,0,0,1-1.16,0,2.07,2.07,0,0,1-1.45.51h-.2a4.44,4.44,0,0,0-.52.15,22.44,22.44,0,0,0-2.52,1.44c-.43.28-.88.54-1.31.83l-.22.16a.38.38,0,0,0-.09.08l-.08.07-.08.14c0,.18-.11.36-.16.53a9.14,9.14,0,0,1-.51,1.35,2,2,0,0,1-1,.93,11.74,11.74,0,0,1-.29,1.59,14,14,0,0,1-1.32,2.48c-.42.91-.49,2-.82,2.94s-.87,2.08-1.2,3.17a25.82,25.82,0,0,0-1.12,6.46,5.58,5.58,0,0,0,.26,2.14c1.67,1.25,3.66,3.26,3,5.47a5.57,5.57,0,0,1-1.69,2.48,13.92,13.92,0,0,1-2.13,1.87,3.4,3.4,0,0,1-4.33-.59l-.28-.36c-.24-.31-.25-.32,0,0a2.43,2.43,0,0,0-.55-.56v0l-.34-.22-.54-.29-.53-.25-.61-.24c-.47-.18-1-.35-1.43-.51a12.86,12.86,0,0,0-1.5-.43l-.43-.08a2.44,2.44,0,0,1-1.65.7c-.1,0-.79.07-.77.05-.28.06-.57.14-.85.23-.63.2-1.25.46-1.87.68s-1.48.42-2.18.71a16.85,16.85,0,0,0-1.61.85,14.7,14.7,0,0,1-4.4,1.55,7,7,0,0,0-3.23,1.92,2.74,2.74,0,0,1-.73.43,2.35,2.35,0,0,1-.36.47c-.23.21-.43.44-.64.66l0,0a.28.28,0,0,0,0,.08l-.18.26c-.3.47-.57,1-.83,1.46s-.52,1-.76,1.54c0,0,0,.11-.09.19l-.09.24s0,.14-.06.22,0,.23,0,.26c0,1.23,0,2.65-.65,3.72a3.27,3.27,0,0,1-3.25,1.41c-2.26-.23-4.8-.08-6.17-2.27a6.24,6.24,0,0,1-.76-2.81l-.09-.93a.59.59,0,0,0,0-.13,1.8,1.8,0,0,0-.06-.22c-.5-.87-1.15-1.63-1.64-2.49-.23-.41-.45-.82-.68-1.22a.9.9,0,0,1-.2-.14,1.68,1.68,0,0,1-.43-.41l-.09-.1c-.22,0-.44-.08-.66-.14a5.76,5.76,0,0,1-1.37-.6,5.4,5.4,0,0,1-1.17-1,6.11,6.11,0,0,1-.83-1.18,22.37,22.37,0,0,0-3.29-1.54A54.09,54.09,0,0,0,1835,621a24.46,24.46,0,0,0-5.41-.35,9.6,9.6,0,0,0-3.82.84c0,.06-.08.13-.13.19a1.9,1.9,0,0,1-.66.6c-.1.05-.19.12-.29.18s-.18.17-.27.27a6.78,6.78,0,0,0-.45.84,2.41,2.41,0,0,1-.84.84l-.56.24a2.41,2.41,0,0,1-1.25,0l-.57-.24a1.81,1.81,0,0,1-.66-.6,1.66,1.66,0,0,1-.3-.49h0a1.72,1.72,0,0,1-.87-.28,1.79,1.79,0,0,1-.67-.61,1.86,1.86,0,0,1-.42-.8l-.25-.64a2.53,2.53,0,0,0-.12-.23l-.08-.08a6.94,6.94,0,0,1-1.31-1,2.49,2.49,0,0,1-.61-1c0-.21,0-.42-.08-.63a2.37,2.37,0,0,1,.69-1.66,1.81,1.81,0,0,1,.76-.49h0a2.18,2.18,0,0,1,.25-.64,14.33,14.33,0,0,0,1.65-3.3,15.51,15.51,0,0,0,.51-1.89,6.7,6.7,0,0,0,.19-1.58,9.25,9.25,0,0,0-.42-3.62,11.88,11.88,0,0,0-1.64-3.05,2,2,0,0,1-.33-1.27,2.47,2.47,0,0,1-1.13-2,7.91,7.91,0,0,1-.06-.85,2,2,0,0,0,0-.24,5.16,5.16,0,0,0-.2-.67l-.06-.17a25.19,25.19,0,0,1-1.36-2.94,2.43,2.43,0,0,1-1.78-2.27,6.78,6.78,0,0,1-1.11-.62c-.34-.24-.69-.47-1-.68s-.74-.42-1.12-.6l-.2-.09,0,0-.55-.21a13.49,13.49,0,0,0-1.38-.39c-.24-.06-.48-.09-.72-.14l-.33,0a3,3,0,0,1-.43-.06,2.53,2.53,0,0,1-.56.06,3.1,3.1,0,0,1-.54,0,2.36,2.36,0,0,1-1.91-3.56,2.5,2.5,0,0,1-.2-1.74c0-.09,0-.19,0-.28a13.11,13.11,0,0,0,0-1.88,2.4,2.4,0,0,1,1.73-2.28c1.38-.37,2.85-.37,4.19-.84a5.23,5.23,0,0,0,.82-.49,2.61,2.61,0,0,1,1.54-.6h0v0a2,2,0,0,1,1.24-1.24l.1,0a2,2,0,0,1,1-1.17,4.59,4.59,0,0,0,.49-.26l.16-.09a2.62,2.62,0,0,1,.06-.29,4.69,4.69,0,0,1,1.33-2.42l.27-.27a4.89,4.89,0,0,1,.07-.68,8.66,8.66,0,0,1,.92-2.55,30.23,30.23,0,0,0,1.43-4.42,16.65,16.65,0,0,1,1.68-4.47,2.07,2.07,0,0,1,.43-.5,2.11,2.11,0,0,1-.47-1.39,3.85,3.85,0,0,0,0-.48,20.22,20.22,0,0,0-.89-2.51c-.31-.82-.59-1.64-.91-2.44-.06-.14-.13-.26-.19-.4-2.44-.31-2.56-3.9-.39-4.56a13.54,13.54,0,0,0,1.16-1.35,5.38,5.38,0,0,1,2.53-2c2.14-.66,3.77,1.26,5.43,2.24a2.27,2.27,0,0,1,.82.84l.26,0a1.67,1.67,0,0,1,.91.2,1.74,1.74,0,0,1,.5.27l.12.06a2.39,2.39,0,0,1,.65-.11,26.12,26.12,0,0,0,3.19-.17l.63-.11.71-.14a12,12,0,0,0,1.65-.49l.4-.16.08,0c.27-.11.53-.24.8-.36.51-.25,1-.52,1.54-.76a16.2,16.2,0,0,1,3.31-1.21,2.51,2.51,0,0,1,2.5-1h.18l.1,0c.16-.1.36-.18.51-.28l.25-.18c.79-.67,1.64-1.3,2.38-2,.21-.2.4-.4.59-.62l.23-.27c.32-.46.63-.91.91-1.38a38,38,0,0,0,1.7-3.45c-.38-2.22.87-4.77,3.78-4.77a4.75,4.75,0,0,1,.94.1,4,4,0,0,1,1.52-.29c3,0,4.24,2.72,3.73,5a4.63,4.63,0,0,1,.39,2,3.28,3.28,0,0,1,.67.45,3.06,3.06,0,0,1,1,1.12c.17.25.31.51.48.76a5.11,5.11,0,0,1,.29.63,3.62,3.62,0,0,1,2,2.25l.18,0a1.77,1.77,0,0,1,.8.42,1.69,1.69,0,0,1,.32.27l.3.17a3.69,3.69,0,0,1,1.49.61,17.85,17.85,0,0,1,3.42,1.41c1.06.41,2.2.64,3.28,1a2.46,2.46,0,0,1,1.14.75,3.88,3.88,0,0,1,1.36-.24,4,4,0,0,0,5.5,0,3.86,3.86,0,0,1,2.08.57,8.19,8.19,0,0,0,.54-.77,4.16,4.16,0,0,1,2.27-1.79,2.71,2.71,0,0,1,.83-.46c2-.65,3.84.88,5,2.27a15.22,15.22,0,0,1,1.58,2.17,6,6,0,0,1,.84,2.38,2.35,2.35,0,0,1-1.16,2l0,0-.26.23c-.15.14-.28.28-.42.43s-.18.28-.13.18v0c-.11.17-.21.34-.31.52s-.33.89-.09.16c-.07.2-.16.4-.23.6-.17.48-.32,1-.46,1.45a2.37,2.37,0,0,1-1,1.33,2.48,2.48,0,0,1,.24,1,15,15,0,0,0,1,3.72,35.21,35.21,0,0,1,.69,3.8c.39,2.14,1.93,4.07,2.9,6a10.16,10.16,0,0,0,4.11,4.74,13.65,13.65,0,0,1,2.9,2l.38.35a1.94,1.94,0,0,1,1-.24,10.84,10.84,0,0,1,1.89.22,2.9,2.9,0,0,1,.51,0,2.42,2.42,0,0,1,1.35.65,2.36,2.36,0,0,1,.69,1.66C1910.14,582.39,1910.25,583.82,1910.2,585.25Z" transform="translate(-1730.49 -314.26)"/><path class="cls-1" d="M1819.48,559.33c-.2-3.72-1.06-6.46-3.18-8.55-1.38-1.35-1.56-2.33.06-3.51a9.14,9.14,0,0,0,1.59-1.58c2-2.51,4-4.4,6.85-.85,1,1.25,2.83,1.55,4.42,1.83,5.35,1,9.43-2.6,14.08-4.12,5.22-1.69,7.79-5.55,7.91-11,0-1.55.7-1.92,2.06-1.82a11.39,11.39,0,0,0,2.61,0c3.62-.59,6,.27,5.55,4.58a1.93,1.93,0,0,0,.14.73c2.55,8.86,20.24,14.63,27.31,8.79,1.56-1.29,2.51-1.67,3.81.08a11.39,11.39,0,0,0,2.1,2.12c2.19,1.76,3.37,3.37.51,5.74a6.5,6.5,0,0,0-2.19,5.41c.73,7.41,3.09,14.26,8.63,19.54a8,8,0,0,0,5.92,1.89c2-.09,2.64.79,2.41,2.66a9.92,9.92,0,0,0,0,2.61c.47,3.17-.18,5-4,5a8.81,8.81,0,0,0-7.7,5.21,103.48,103.48,0,0,0-4.94,12,9.18,9.18,0,0,0,2.25,9.71c2.17,2.22,1.5,3.44-.43,4.92a4.6,4.6,0,0,0-.79.8c-2,2.5-3.65,4.07-6.92.93-2.94-2.82-7-2.73-10.89-1-2.27,1-4.55,2-6.88,2.85-5.2,1.86-8.39,5.29-8.55,11,0,1.86-.73,2.44-2.44,2.22a5.79,5.79,0,0,0-1.5,0c-3.71.41-5.92.11-6.6-4.89-1.13-8.34-18.47-14.89-25.71-10.44-1.3.8-2.29,3.25-3.78,2.31-2.27-1.42-4.05-3.66-5.89-5.69-.86-1,.4-1.5.9-2.08,3.69-4.25,4.1-8.86,1.68-13.86a48.24,48.24,0,0,1-2.15-5.15c-1.86-5.47-5.3-9-11.35-9.11-1.66,0-2.19-.66-2-2.23a15.1,15.1,0,0,0,0-3.36c-.47-3.18.52-4.71,4-4.62a7.67,7.67,0,0,0,6.11-3.19C1816.18,570.29,1817.76,564.4,1819.48,559.33Z" transform="translate(-1730.49 -314.26)"/><path class="cls-2" d="M1855.9,550.71a32.92,32.92,0,1,0,33.2,32.84A33,33,0,0,0,1855.9,550.71Zm.27,55.79c-12.87,0-22.41-10.52-23-23s11-23,23-23c12.87,0,22.4,10.52,23,23S1868.18,606.5,1856.17,606.5Z" transform="translate(-1730.49 -314.26)"/><path class="cls-3" d="M1856.08,604.58a21,21,0,1,1,21.05-21.13A21,21,0,0,1,1856.08,604.58Z" transform="translate(-1730.49 -314.26)"/><rect class="cls-1" x="124.04" y="13.49" width="7.55" height="11.24"/></svg>