<svg width="163" height="162" viewBox="0 0 163 162" fill="none" xmlns="http://www.w3.org/2000/svg">
<path d="M163.002 81.2237C162.953 91.9108 160.784 102.483 156.62 112.333C152.457 122.184 146.38 131.118 138.738 138.624C131.097 146.129 122.042 152.058 112.093 156.07C102.144 160.081 91.4973 162.097 80.7638 162C36.1121 161.709 -0.283949 125.052 0.00166964 80.6549C0.294089 36.0484 36.9417 -0.243507 81.4439 0.000244148C126.789 0.257537 163.267 36.5833 163.002 81.2237Z" fill="#020202"/>
<path d="M159.737 81.0004C159.792 123.772 124.94 158.676 82.0491 158.805C71.7289 158.894 61.4932 156.947 51.9331 153.075C42.373 149.204 33.678 143.485 26.3503 136.249C19.0226 129.013 13.2074 120.403 9.2405 110.917C5.27363 101.431 3.23375 91.2558 3.23864 80.9801C3.10943 38.3236 38.2066 3.203 80.9474 3.18946C124.756 3.16915 159.683 37.66 159.737 81.0004Z" fill="#FEFEFE"/>
<path d="M84.601 104.448C86.6411 104.97 87.5863 104.089 88.2188 101.584C90.1229 94.0413 95.1757 89.4304 102.867 87.9069C104.315 87.6225 104.73 87.0809 104.601 85.7335C104.506 84.6975 104.601 83.6412 104.601 82.5985C104.601 81.5558 104.519 80.6688 106.165 80.6959C107.811 80.723 107.838 81.373 107.79 82.5715C107.722 84.1288 107.355 85.9231 107.988 87.1892C108.62 88.4554 110.708 87.9678 112.068 88.4824C118.773 90.9944 122.949 95.7002 124.39 102.654C124.717 104.259 125.295 104.59 126.689 104.468C127.655 104.387 128.634 104.468 129.606 104.468C130.579 104.468 131.646 104.191 131.646 105.931C131.646 107.671 130.885 107.698 129.606 107.644C128.11 107.59 126.383 107.204 125.179 107.8C123.976 108.396 124.316 110.447 123.819 111.808C121.337 118.613 116.57 122.79 109.443 124.165C108.083 124.422 107.648 124.842 107.763 126.135C107.859 127.246 107.763 128.37 107.804 129.521C107.845 130.672 107.804 131.423 106.22 131.43C104.635 131.437 104.574 130.753 104.615 129.548C104.669 127.991 105.05 126.162 104.411 124.923C103.771 123.684 101.691 124.185 100.33 123.65C93.6932 121.084 89.3681 116.541 88.0148 109.486C87.736 108.05 87.1987 107.454 85.7026 107.63C84.8815 107.705 84.0552 107.705 83.2341 107.63C82.0848 107.583 80.7179 108.159 80.7587 105.945C80.7995 103.73 82.214 104.658 83.1865 104.489C83.6563 104.441 84.1291 104.427 84.601 104.448Z" fill="#010101"/>
<path d="M101.33 34.39C100.106 34.0582 99.3989 34.6608 98.61 34.7218C97.6648 34.803 96.9439 34.539 96.6787 33.6046C96.613 33.4063 96.5906 33.1964 96.6128 32.9888C96.6351 32.7812 96.7015 32.5807 96.8077 32.4007C96.9138 32.2207 97.0574 32.0652 97.2286 31.9448C97.3998 31.8243 97.5949 31.7415 97.8008 31.702C100.025 31.0249 102.269 30.4561 104.52 29.9144C105.567 29.6639 106.247 30.2327 106.526 31.2212C107.117 33.2999 107.682 35.3853 108.239 37.4708C108.505 38.4661 108.28 39.3124 107.199 39.59C106.982 39.6617 106.752 39.6851 106.525 39.6588C106.298 39.6324 106.08 39.5569 105.886 39.4375C105.691 39.3181 105.525 39.1577 105.4 38.9677C105.274 38.7776 105.192 38.5625 105.159 38.3374C104.941 37.5858 104.71 36.8275 104.479 36.0353C103.561 36.3807 103.391 37.1796 102.99 37.7551C89.171 57.912 71.279 73.1329 48.4295 82.3143C44.609 83.8384 40.6546 85.0058 36.6171 85.8013C35.427 86.0383 34.4546 85.9435 34.1621 84.6434C33.8697 83.3434 34.8422 82.944 35.8622 82.7002C63.2001 75.9767 83.3362 59.273 99.5553 37.1457C100.106 36.3129 100.65 35.4192 101.33 34.39Z" fill="#020202"/>
<path d="M56.97 109.864C56.97 103.445 57.0244 96.9995 56.97 90.6146C56.936 88.5833 57.6024 87.7641 59.6902 87.8521C62.5327 87.9672 65.3889 87.9062 68.2315 87.8521C69.7548 87.8521 70.4212 88.5292 70.4212 90.0052C70.4212 103.136 70.4212 116.267 70.4212 129.398C70.4212 130.888 69.7412 131.605 68.2723 131.605C65.2733 131.605 62.2743 131.605 59.2753 131.605C57.5208 131.605 56.9699 130.766 56.9836 129.087C57.004 122.729 56.97 116.283 56.97 109.864Z" fill="#020202"/>
<path d="M49.9033 113.108C49.9033 118.322 49.9033 123.535 49.9033 128.749C49.9033 131.403 49.6585 131.626 46.9179 131.633C44.2997 131.633 41.6815 131.593 39.0634 131.633C37.4245 131.633 36.5948 131.112 36.6016 129.311C36.656 118.509 36.656 107.709 36.6016 96.9121C36.6016 95.348 37.132 94.5761 38.8186 94.6168C41.7359 94.6912 44.6601 94.698 47.5707 94.6168C49.3797 94.5626 49.9237 95.3887 49.9101 97.0475C49.8625 102.403 49.9101 107.766 49.9101 113.128L49.9033 113.108Z" fill="#030303"/>
<path d="M111.075 78.4273C107.498 77.8856 107.892 75.3668 107.926 72.9293C107.988 68.3048 107.872 63.6803 107.967 59.0625C107.967 57.4917 107.743 56.8553 105.927 56.9027C100.97 57.0381 100.949 56.9365 100.942 61.9267C100.942 68.9345 100.908 75.9491 100.942 82.957C100.942 84.3112 100.684 85.0695 99.215 85.5164C97.7461 85.9632 97.7461 85.4419 97.7461 84.3382C97.7461 78.82 97.7461 73.3017 97.7461 67.7834C97.7461 63.9037 97.8005 60.0308 97.7461 56.1511C97.7461 54.4177 98.3717 53.7407 100.126 53.8016C103.044 53.8964 105.968 53.8693 108.892 53.8016C110.415 53.7677 111.061 54.3703 111.055 55.9006C111.061 63.4365 111.075 70.959 111.075 78.4273Z" fill="#020202"/>
<path d="M87.5502 93.8787C87.5502 88.9698 87.4822 84.0677 87.591 79.1656C87.625 77.5812 87.1694 77.1343 85.5917 77.1749C80.471 77.2562 80.4778 77.1749 80.4914 82.314C80.4914 87.162 80.3894 92.0099 80.5458 96.8444C80.6274 99.3496 80.6274 101.584 77.3359 102.166V100.433C77.3359 92.5381 77.3971 84.6365 77.3359 76.7348C77.3359 74.7036 78.016 73.9114 80.0561 74.0265C82.8171 74.1551 85.5917 74.1145 88.3595 74.0671C89.9304 74.0333 90.7396 74.5885 90.726 76.2473C90.692 80.6484 90.6716 85.0495 90.726 89.437C90.726 91.6375 88.5159 92.2875 88.0058 94.1021L87.5502 93.8787Z" fill="#030303"/>
<path d="M77.3497 109.926C80.5935 110.535 80.6411 112.715 80.5323 115.234C80.3691 118.951 80.5663 122.682 80.4711 126.406C80.4303 127.828 80.9199 128.146 82.2596 128.16C87.5708 128.214 87.5708 128.255 87.564 122.994C87.564 121.389 87.564 119.784 87.564 118.051C92.1815 121.24 90.495 125.831 90.6582 129.92C90.699 130.943 89.6789 131.315 88.686 131.322C85.619 131.322 82.5656 131.322 79.4782 131.322C77.5945 131.322 77.3293 130.15 77.3361 128.613C77.3633 122.411 77.3497 116.148 77.3497 109.926Z" fill="#030303"/>
<path d="M97.8058 128.295C98.2546 127.862 96.9625 126.393 98.547 126.474C100.131 126.555 101.485 127.225 100.954 129.277C100.75 130.049 101.634 131.369 99.8595 131.363C97.7786 131.363 97.6969 129.981 97.8058 128.295Z" fill="#0B0B0B"/>
<path d="M104.567 92.8152C104.798 94.0137 104.363 94.4809 103.152 94.8126C98.7997 96.0178 95.8959 98.8751 94.8079 103.242C94.2978 105.274 92.8086 104.475 91.7817 104.414C90.17 104.312 91.1016 102.951 91.292 102.382C92.9105 96.5392 96.7324 92.822 102.601 91.2105C104.097 90.784 104.968 91.0683 104.567 92.8152Z" fill="#FCFCFC"/>
<path d="M104.592 119.777C104.775 120.915 104.279 121.233 103.061 121.03C97.5395 120.095 92.3031 115.058 91.2287 109.519C91.1199 108.93 90.433 107.793 91.6503 107.765C92.6772 107.765 94.248 106.77 94.7649 108.808C95.9073 113.318 98.8452 116.127 103.293 117.441C104.673 117.82 104.68 117.874 104.592 119.777Z" fill="#FCFCFC"/>
<path d="M119.494 104.448C118.386 104.685 117.74 104.387 117.454 103.148C117.016 101.126 116.008 99.2707 114.548 97.7991C113.088 96.3276 111.237 95.3012 109.212 94.8402C107.042 94.2715 107.675 92.809 107.852 91.7527C108.11 90.2564 109.375 91.1772 110.15 91.3938C115.903 93.0053 119.44 96.8106 121.031 102.478C121.487 104.008 121.337 104.834 119.494 104.448Z" fill="#FCFCFC"/>
<path d="M107.791 119.344C107.478 118.071 108.042 117.617 109.3 117.258C113.462 116.067 116.339 113.372 117.373 109.133C117.91 106.912 119.481 107.522 120.65 107.725C122.01 107.975 121.133 109.174 120.943 109.871C119.338 115.654 115.543 119.262 109.77 120.894C108.328 121.307 107.383 121.219 107.791 119.344Z" fill="#FCFCFC"/>
<path d="M99.4226 104.482C97.6477 104.8 97.6137 103.954 98.3209 102.505C99.0518 100.856 100.313 99.4962 101.905 98.6389C102.68 98.2326 103.646 97.3727 104.333 97.9618C105.019 98.5508 104.639 99.8103 104.543 100.745C104.448 101.679 100.599 104.489 99.4226 104.482Z" fill="#F8F8F8"/>
<path d="M99.5393 107.623C102.001 107.623 104.98 111.3 104.612 113.514C104.429 114.672 103.844 114.333 103.191 114.089C101.054 113.319 99.3093 111.74 98.3357 109.695C97.5332 108.117 97.7168 107.271 99.5393 107.623Z" fill="#F8F8F8"/>
<path d="M112.774 104.448C110.264 104.448 107.422 101.063 107.707 98.686C107.809 97.8464 108.102 97.623 108.836 97.8871C110.129 98.2961 111.302 99.0113 112.255 99.9713C113.209 100.931 113.914 102.107 114.311 103.399C114.889 105.274 113.195 104.082 112.774 104.448Z" fill="#FBFBFB"/>
<path d="M112.887 107.637C114.676 107.292 114.676 108.179 113.982 109.594C113.263 111.168 112.076 112.484 110.582 113.365C109.773 113.839 108.739 114.719 107.971 114.124C107.202 113.528 107.665 112.282 107.76 111.348C107.855 110.413 111.609 107.624 112.887 107.637Z" fill="#FAFAFA"/>
<path d="M67.2089 109.648C67.2089 115.315 67.1749 120.982 67.2089 126.65C67.2089 128.004 66.8553 128.43 65.4612 128.451C60.1297 128.525 60.1296 128.579 60.1228 123.325C60.1228 113.257 60.1636 103.189 60.082 93.1202C60.082 91.4613 60.4697 91.0077 62.1698 91.028C67.1953 91.0822 67.1885 91.028 67.1817 95.9978C67.2021 100.548 67.2089 105.125 67.2089 109.648Z" fill="#FDFDFD"/>
<path d="M46.7623 113.25C46.7623 117.712 46.7079 122.18 46.7623 126.642C46.7623 127.997 46.4562 128.403 45.0417 128.423C39.7578 128.477 39.7578 128.538 39.7578 123.325C39.7578 115.437 39.7578 107.548 39.7578 99.6604C39.7578 98.2521 40.0502 97.751 41.5871 97.751C46.7691 97.751 46.7623 97.6901 46.7555 102.755C46.7555 104.542 46.7555 106.33 46.7555 108.11V113.25H46.7623Z" fill="#FEFEFE"/>
</svg>
