<svg id="Layer_1" data-name="Layer 1" xmlns="http://www.w3.org/2000/svg" viewBox="0 0 115.71 116.82"><defs><style>.cls-1,.cls-2{fill:none;stroke:#000;stroke-miterlimit:10;}.cls-2{stroke-width:4px;}</style></defs><path d="M298.49,36.13C280,36,264.38,51.49,264.2,70c-.17,19.12,15.33,34.89,34.19,34.89a34.39,34.39,0,1,0,.1-68.77ZM327.21,57.4a3.9,3.9,0,0,1,.93,1,10,10,0,0,1,1.68,5.27,3.11,3.11,0,0,1-.12.81c1.31,1.91.46,5.27-2.57,5.27a2.85,2.85,0,0,1-.29,0,3.49,3.49,0,0,1-1.06.14c-1.55-.06-3-.4-4.59-.55-1.74-.18-3.52-.14-5.26-.15a3.07,3.07,0,0,1-3.14-2.86,3.58,3.58,0,0,1-.58-4.34,3.28,3.28,0,0,1-.36-.81l-.12-.88a3.26,3.26,0,0,1,.45-1.66l.51-.66a2.45,2.45,0,0,1,1.06-.68,3,3,0,0,1,2.53,0,3.54,3.54,0,0,1,.34.16,4,4,0,0,1,1.34-.76,2.82,2.82,0,0,1,.83-.1,3,3,0,0,1,2.69-1.47,3.93,3.93,0,0,1,.6.06,3.09,3.09,0,0,1,2-.65A3.06,3.06,0,0,1,327.21,57.4ZM306.88,39.8a.84.84,0,0,1,.86.65,23.66,23.66,0,0,1,7,3,34.42,34.42,0,0,1,3,2.08,15.52,15.52,0,0,1,2.87,2A12.19,12.19,0,0,0,321.9,49c.29.24.62.4.92.62.93.68.48,1.62-.33,2.13a27.93,27.93,0,0,1-3.37,1.58A25.87,25.87,0,0,1,315.48,55a.88.88,0,0,1-1.07-.51.86.86,0,0,1-.8.49.84.84,0,0,1-.6-.24.94.94,0,0,1-1.43-.49.78.78,0,0,1-.4-.38,4.55,4.55,0,0,1-.74-2.72.65.65,0,0,1,.09-.23c-.31-.73-.68-1.43-1-2.17a47.18,47.18,0,0,0-2.8-5.6.89.89,0,0,1,.09-1,.75.75,0,0,1-.34-.51A1,1,0,0,1,306.88,39.8Zm3,38.31a2.68,2.68,0,0,1-2,4.11,2.59,2.59,0,0,1-1.39.4c-3.72,0-7.43.1-11.15.1a2.61,2.61,0,0,1-1.45-.41,2.58,2.58,0,0,1-1.35.36,2.55,2.55,0,0,1-1.31-.34,2.65,2.65,0,0,1-1.33.34,2.59,2.59,0,0,1-2.5-3.28,2.94,2.94,0,0,1-.46-2.13,3,3,0,0,1,.29-1.83,2.66,2.66,0,0,1,2.24-4,2.47,2.47,0,0,1,1.83.74,2.58,2.58,0,0,1,1.35-.36,2.49,2.49,0,0,1,1.51.46,2.52,2.52,0,0,1,1.5-.46,2.62,2.62,0,0,1,1.36.36,2.54,2.54,0,0,1,1.34-.36,2.58,2.58,0,0,1,1.59.51,2.42,2.42,0,0,1,1.91-.83,2.5,2.5,0,0,1,1.33.35,2.66,2.66,0,0,1,.88-.14,2.88,2.88,0,0,1,1,.19,2.74,2.74,0,0,1,1-.19,2.35,2.35,0,0,1,.54.06,2.47,2.47,0,0,1,1.29-.33,2.64,2.64,0,0,1,2.35,3.79A3,3,0,0,1,309.88,78.11ZM290.13,58.57a3.22,3.22,0,0,1,1.61.4,3.35,3.35,0,0,1,1.08-.18c2.1,0,4.19.25,6.29.27s4.06-.35,6.1-.49h.05a3.35,3.35,0,0,1,1.35-.27A3.14,3.14,0,0,1,309.75,62a3.67,3.67,0,0,1,.09,2.36c1.3,1.91.44,5.26-2.58,5.26a3.26,3.26,0,0,1-1.48-.33,3,3,0,0,1-.62.06c-5.12,0-10.24.15-15.35.17a3.34,3.34,0,0,1-.66-.07l-.24,0a3.59,3.59,0,0,1-.35-.12l-.24-.1L288,69a2.48,2.48,0,0,1-.26-.19,2.68,2.68,0,0,1-.3-.28l-.18-.23-.13-.19c-.06-.09-.11-.18-.16-.27l-.08-.2c0-.1-.09-.2-.12-.3h0a3.64,3.64,0,0,1-.15-.8.76.76,0,0,1,0-.15,2.28,2.28,0,0,1,0-.37s0-.1,0-.16,0-.24,0-.36a.24.24,0,0,0,0-.08,3.79,3.79,0,0,1,.25-.74l0-.09a1.49,1.49,0,0,1,.18-.3l.1-.15a2.75,2.75,0,0,1,.22-.26l0,0C286.25,61.93,287.11,58.57,290.13,58.57ZM292.9,42.7c.25-.46.58-.87.8-1.35a3,3,0,0,1,2.43-1.57,3.5,3.5,0,0,1,1.49-.38h0a6,6,0,0,1,1.58-.16h.11a3.35,3.35,0,0,1,2.32,1,8.67,8.67,0,0,1,.57.66.94.94,0,0,0,.15.06,3,3,0,0,1,1.74,1.74,2.34,2.34,0,0,1,.09.24,3.38,3.38,0,0,1,.67,1.28c.21.77.86,1.86,1.18,2.86.15.45.28.9.42,1.35a2.56,2.56,0,0,1,.61,1.23c0,.24.07.48.11.71,2.27,1.57,1.66,6-1.83,6a3.13,3.13,0,0,1-1.81-.53,2.45,2.45,0,0,1-1.9.53,54.63,54.63,0,0,0-7-.26,3.5,3.5,0,0,1-1.38-.28,2.57,2.57,0,0,1-1.25.28H292a3.47,3.47,0,0,1-1.66-.45l-.66-.52a3.28,3.28,0,0,1-.85-1.45c0-.29-.07-.58-.11-.87a3.59,3.59,0,0,1,1-2.32,1.61,1.61,0,0,1,.28-.24,3.44,3.44,0,0,1,.39-1.58c.64-1.22,1.23-2.5,1.75-3.78A22.42,22.42,0,0,1,292.9,42.7Zm-17,4.95a1.91,1.91,0,0,1,1.14-.76,4.64,4.64,0,0,0,.93-.27,2.43,2.43,0,0,1,.56-1,8.37,8.37,0,0,1,.79-.66,3.32,3.32,0,0,1,.95-.45,1.82,1.82,0,0,1,.51-.09,2.34,2.34,0,0,1,.64-.18c1-1.41,2.92-2.11,4.41-2.85a2.55,2.55,0,0,1,1.26-.26s0-.07.06-.09a.86.86,0,0,1,.56-.24h0a5.12,5.12,0,0,0,1.08-.31l.37-.18a1,1,0,0,1,.62-.09,4.26,4.26,0,0,1,.38-.35l0,0,.16-.13,0,0,.05,0a.7.7,0,0,1,.32-.06h.05l.21,0,.05,0a.51.51,0,0,1,.18.09.39.39,0,0,1,.1.08.47.47,0,0,1,.1.1.7.7,0,0,1,.08.1.87.87,0,0,1,.09.67.83.83,0,0,1-.18.32.73.73,0,0,1-.16.14s0,0-.06,0l.14-.11a4.7,4.7,0,0,0-.7.71c-.38.51-.68,1.08-1,1.62a.87.87,0,0,1-.37.32h0a3.68,3.68,0,0,1-.06.58c0,.11,0,.23-.08.34a3.25,3.25,0,0,1-.41.81.84.84,0,0,1-.31.31l-.2.09h0a3.33,3.33,0,0,1-.16.51c-.32.71-.32,1.55-.59,2.29a5.12,5.12,0,0,0-.56,2,2,2,0,0,1-.46,1.42,2.18,2.18,0,0,1-2,2.91,2.07,2.07,0,0,1-1.56-.64,10.87,10.87,0,0,1-3.17-.68,2.35,2.35,0,0,1-.6.08,2.21,2.21,0,0,1-1.14-.3,3.21,3.21,0,0,1-1,.16C273.3,53.61,273,48.58,275.9,47.65Zm-8.33,15.06c.38-1,.41-2.05.88-3.05.17-.35.36-.68.55-1l.15-.29a3.71,3.71,0,0,1,.94-1.85,3.16,3.16,0,0,1,5.7-.82c2,0,3.91.77,5.9,1.08a2.52,2.52,0,0,1,.39.12A3.21,3.21,0,0,1,284.8,61c0,1.74.05,3.48.05,5.22a3.18,3.18,0,0,1-.22,1.15,3,3,0,0,1-3.06,2.4,3.31,3.31,0,0,1-1.35-.27h-8.29a3.4,3.4,0,0,1-1.05-.17,3.61,3.61,0,0,1-.89.12c-3.08,0-3.9-3.45-2.52-5.35A2.77,2.77,0,0,1,267.57,62.71Zm2.23,21.14a2.85,2.85,0,0,1-.71-1.86,2.74,2.74,0,0,1-1-2.35,2.78,2.78,0,0,1-.45-.83,3,3,0,0,1-.28-2.13c-1.16-1.39-.69-4,1.43-4.4a2.43,2.43,0,0,1,1.64-.48c1.53.08,3,.18,4.57.19a2.67,2.67,0,0,1,1.09-.24h4.47a2.55,2.55,0,0,1,1.54.52,2.64,2.64,0,0,1,2,3.63,2.93,2.93,0,0,1,.39,3.1,3.15,3.15,0,0,1,.18,1.61,2.58,2.58,0,0,1-2.44,3.18,2.77,2.77,0,0,1-.95.17,2.86,2.86,0,0,1-.73-.1,2.4,2.4,0,0,1-2,1,3.57,3.57,0,0,1-.47,0,2.46,2.46,0,0,1-1.9.8,2.77,2.77,0,0,1-.78-.12,2.42,2.42,0,0,1-1.68.8,2.6,2.6,0,0,1-1.41.4A2.52,2.52,0,0,1,269.8,83.85Zm20.55,17.66a.85.85,0,0,1-.88-.77,1.72,1.72,0,0,1-.47.07,1.42,1.42,0,0,1-1.31-.74,4.58,4.58,0,0,1-2.12-.66,1.61,1.61,0,0,1-.57-.59,1.44,1.44,0,0,1-1.16-.17c-2.4-1.63-5.24-2.67-6.92-5.19a1.73,1.73,0,0,1-.16-.37l-.13-.07-.22-.08h0a1.34,1.34,0,0,1-.67-.38l0,0-.25-.32a1.67,1.67,0,0,1-.19-.57h-.07a1.57,1.57,0,0,1,0-3.14,1.72,1.72,0,0,1,.63.12,2.42,2.42,0,0,1,2.12-1.1l.27,0a2.61,2.61,0,0,1,.64-.08,2.78,2.78,0,0,1,.9.16,2.39,2.39,0,0,1,2-1H282a2.44,2.44,0,0,1,1.91-.82,2.63,2.63,0,0,1,2.37,3.72,2.67,2.67,0,0,1,.48,1,1.36,1.36,0,0,1,.06.29c0,.12,0,.24,0,.37a1.28,1.28,0,0,0,0,.19A2.71,2.71,0,0,1,287.89,94a13.93,13.93,0,0,0,1,1.69A7.46,7.46,0,0,1,290.08,98a1,1,0,0,1,0,.17,1.72,1.72,0,0,1,.34,1.55A.92.92,0,0,1,290.35,101.51Zm13.91-3.86a2.52,2.52,0,0,1-.93,1.36,2.63,2.63,0,0,1-.67,1.09,2.39,2.39,0,0,1-1.81,1,2.57,2.57,0,0,1-4.48.11,2.44,2.44,0,0,1-2.33-2,2.59,2.59,0,0,1-.77-1.29,2.55,2.55,0,0,1-1.44-2.15,2.83,2.83,0,0,1-.69-2.08,2.71,2.71,0,0,1-.6-1.24,2.87,2.87,0,0,1-.39-1.55,3,3,0,0,1-.22-1.1c-2.07-1.14-1.64-5,1.28-5a2.47,2.47,0,0,1,1.58.51,2.57,2.57,0,0,1,1.06-.24c.84,0,1.68,0,2.53,0a2.57,2.57,0,0,0,2.64,0,2.84,2.84,0,0,1,.79.12,2.46,2.46,0,0,1,.71-.12l1.47,0a2.5,2.5,0,0,1,2-.25,4.83,4.83,0,0,1,.84.36,2.73,2.73,0,0,1,1.14-.24c2.81,0,3.31,3.57,1.53,4.86a2.84,2.84,0,0,1-.83,2.37,2.06,2.06,0,0,1-.12.35,2.89,2.89,0,0,1-.45,1.6,2.75,2.75,0,0,1-.81,1.69A2.66,2.66,0,0,1,304.26,97.65Zm17.4-5.42a2,2,0,0,1-1.11,1.08,2,2,0,0,1-1.69,1.36,1.94,1.94,0,0,1-1.4,1,2,2,0,0,1-2.07,1.73,2.65,2.65,0,0,1-.5,0,2,2,0,0,1-1.42.82,2,2,0,0,1-1.21,1.21,2.05,2.05,0,0,1-1.45.55,2.14,2.14,0,0,1-.87-.17,3.26,3.26,0,0,0-.33.31l-.08.13,0,.1a1,1,0,0,1-.43.56.89.89,0,0,1-.71.09,1,1,0,0,1-.56-.42.64.64,0,0,0,0-.07,1,1,0,0,1-.41,0,.85.85,0,0,1-.87.73.93.93,0,0,1,0-1.85l.13,0a1.09,1.09,0,0,1,.43-.6l.15-.11.05,0a4,4,0,0,0,.3-.28h0a7.81,7.81,0,0,1,.95-2.65,1.59,1.59,0,0,0,.09-.2l.07-.19c.07-.24.13-.49.19-.74.11-.47.21-1,.35-1.42a.93.93,0,0,1,.81-.66,2.41,2.41,0,0,1,.31-2,2.45,2.45,0,0,1,.34-1.52,2.14,2.14,0,0,1,2-2.85,2.08,2.08,0,0,1,1.15.32,2.56,2.56,0,0,1,1.67.19c1.42.67,3.17.43,4.65,1a2.63,2.63,0,0,1,.77.43C323.19,88.27,323.43,91.41,321.66,92.23Zm7.61-13.42a3.37,3.37,0,0,1-1.15,2.62,3.4,3.4,0,0,1-1.42,3.22,3,3,0,0,1-3,2A3,3,0,0,1,321,85.15a3.42,3.42,0,0,1-.93.14,3,3,0,0,1-2.62-1.37,3.38,3.38,0,0,1-.72.07,3,3,0,0,1-.69-.07,3.29,3.29,0,0,1-.71.07c-2.87,0-3.78-3-2.76-4.94a4.17,4.17,0,0,1,0-.79,3.56,3.56,0,0,1,.28-1.8c-.73-1.93.24-4.55,2.92-4.53a13.14,13.14,0,0,0,2.43,0,17.36,17.36,0,0,1,2.1-.47,44.93,44.93,0,0,1,4.78.18,3.22,3.22,0,0,1,.91.14,3.5,3.5,0,0,1,1.3-.25c3.33,0,4,4,2.12,5.78A3.75,3.75,0,0,1,329.27,78.81Z" transform="translate(-239.73 -11.59)"/><path d="M298.38,123.47c-35.51-.32-60.34-33.57-50.65-67.82a18.32,18.32,0,0,1,.68-2.14c.5-1.13.45-3.32,2.25-2.67s.37,2.31,0,3.5c-8.94,29.74,7.34,58.41,37.22,65.54a48.88,48.88,0,0,0,26.77-1.44c1.22-.38,3-1.7,3.57-.11.75,2.09-1.71,2-3,2.45A47.5,47.5,0,0,1,298.38,123.47Z" transform="translate(-239.73 -11.59)"/><path d="M351.43,71.77a43.42,43.42,0,0,1-2.71,15.67c-.43,1.16-.46,3.31-2.16,2.78-1.89-.57-.51-2.24-.13-3.41a50.67,50.67,0,0,0-62.57-64.66c-1.52.45-4,3-4.92.19-.61-1.82,2.56-2,4.12-2.5C317.11,9.31,351.6,34.94,351.43,71.77Z" transform="translate(-239.73 -11.59)"/><path class="cls-1" d="M298.57,56.26h-2.69c-8.3-.25-8.73-.77-5.28-8.53,1.64-3.72,3-8.72,8-8.71s6.39,4.93,8,8.71c3.41,8.1,3.24,8.16-5.26,8.53Z" transform="translate(-239.73 -11.59)"/><path class="cls-1" d="M298.21,69.42a57.48,57.48,0,0,0-6.82,0c-3.85.47-5-1-4.53-4.78.76-6.12.6-6.07,6.61-6a114.52,114.52,0,0,0,13.1-.24c2.36-.24,3,.42,3,2.46a6.07,6.07,0,0,0,.16.85C311,69.4,311,69.4,303.61,69.4Z" transform="translate(-239.73 -11.59)"/><path class="cls-1" d="M308.54,87c-1.36,5-2.68,10.19-6.7,14-2.49,2.32-5,1.63-7.11-.67-3.36-3.65-4.75-8.26-6-12.92-.39-1.44.12-2.28,1.78-2.27h16.2C308,85.09,308.82,85.44,308.54,87Z" transform="translate(-239.73 -11.59)"/><path class="cls-1" d="M298.65,82.35c-2.11,0-4.27.13-6.32,0-1.52-.13-3.82,1.46-4.44-.53a18.18,18.18,0,0,1-.78-9.38c.24-1,1.5-.78,2.37-.79,6,0,12.06.08,18.08,0,2.27,0,3,.85,2.69,2.95,0,.3,0,.61,0,.91-.21,7-.21,7-7.06,6.82h-4.52Z" transform="translate(-239.73 -11.59)"/><path class="cls-1" d="M321.67,71.64H323c8.35,0,8.46.14,6,8.13-.27.85-.67,1.71-.92,2.56-1.1,3.7-2.85,5.78-7,3.41a13.18,13.18,0,0,0-5.12-1.58c-3.27-.31-4.12-1.75-3.81-5C312.8,71.65,312.65,71.64,321.67,71.64Z" transform="translate(-239.73 -11.59)"/><path class="cls-1" d="M275.38,69.41c-2.8-.59-6.1,1.4-8.4-1.25-1.08-1.25,2.67-12.25,4.14-13.55.85-.75,1.63-.44,2.49-.14,1.83.65,3.73,1.15,5.5,1.93s5.2,0,5.6,2c.61,3.13-.11,6.55-.46,9.83-.15,1.44-1.54,1.13-2.56,1.15C279.59,69.43,277.48,69.41,275.38,69.41Z" transform="translate(-239.73 -11.59)"/><path class="cls-1" d="M321.6,69.41h-.91c-8.14,0-9.47-1.62-8.65-9.88a2.34,2.34,0,0,1,2.65-2.31c4.07.1,8-4.93,11.49-1.84,3,2.63,3.53,7.47,4.07,11.68.23,1.83-.65,2.41-2.34,2.35C325.81,69.34,323.7,69.41,321.6,69.41Z" transform="translate(-239.73 -11.59)"/><path class="cls-1" d="M275.82,71.64h.9c7.81,0,7.68,0,8.28,7.91.19,2.72-.33,4.15-3.25,4.56A21.1,21.1,0,0,0,275.29,86c-3,1.53-4.75.85-5.7-2.32-.17-.57-.48-1.1-.7-1.71C265.12,72.11,265.42,71.65,275.82,71.64Z" transform="translate(-239.73 -11.59)"/><path class="cls-1" d="M305,101.51a36.82,36.82,0,0,0,5.58-13c.43-2.19,1.51-3.08,3.74-2.3,3.06,1.08,8.22.93,8.67,3.47.53,2.94-3.87,5.11-6.63,7.09A25.83,25.83,0,0,1,305,101.51Z" transform="translate(-239.73 -11.59)"/><path class="cls-1" d="M292.08,39.45a42.68,42.68,0,0,0-5.74,13.65c-.35,1.61-1.2,2.31-2.85,1.85-.15-.05-.3-.05-.45-.1-3.18-1.12-8.42-.89-9-3.68-.52-2.62,4-5.12,6.82-7A28.6,28.6,0,0,1,292.08,39.45Z" transform="translate(-239.73 -11.59)"/><path class="cls-1" d="M323.89,51.32C320.57,53.52,317,54,313.6,55c-2.16.65-2.56-.91-2.92-2.37a39.87,39.87,0,0,0-5.61-13.08C313.21,41.23,319,45.29,323.89,51.32Z" transform="translate(-239.73 -11.59)"/><path class="cls-1" d="M292.18,101.58a31.44,31.44,0,0,1-17.75-10.37c-1.08-1.22-1.15-2,.55-2.56,2.86-.86,5.73-1.71,8.58-2.61,2.17-.68,2.56.92,2.9,2.36A38.75,38.75,0,0,0,292.18,101.58Z" transform="translate(-239.73 -11.59)"/><path d="M258.49,11.59c-10-.13-18.76,8.57-18.76,18.72v0A18.65,18.65,0,0,0,258.6,48.75a18.44,18.44,0,0,0,18.21-18.53A18.82,18.82,0,0,0,258.49,11.59Zm10.76,29.27A12.36,12.36,0,0,1,263,45.1a11.56,11.56,0,0,1-5,1.15,11.8,11.8,0,0,1-6.14-1.75,12.36,12.36,0,0,1-5.58-4.65,12,12,0,0,1-3.77-8.64,11.73,11.73,0,0,1,.39-2.91,11.86,11.86,0,0,1,1.87-5.65,12.31,12.31,0,0,1,9.94-7.88,11.5,11.5,0,0,1,4-.74,11.91,11.91,0,0,1,7.35,2.59,12.26,12.26,0,0,1,7.27,10,11.59,11.59,0,0,1,.95,4.58A12.14,12.14,0,0,1,269.25,40.86Z" transform="translate(-239.73 -11.59)"/><path class="cls-1" d="M258.55,20.47c-8.58,0-9.38,5.59-8,14.93.5,3.49-.85,3.05-2.12,4.13-1.82,1.57-2.8.59-3.83-1.06a16.1,16.1,0,0,1,3.11-20.17,15.89,15.89,0,0,1,21.42.23c5.57,5.12,6.77,14.21,2.74,20.21-1,1.52-2.07,2.26-3.5.86-1.08-1.07-2.43-.23-2.37-4,.08-4.19,1-7.44.08-11.42C265.05,20,261.15,20.88,258.55,20.47Z" transform="translate(-239.73 -11.59)"/><path class="cls-1" d="M267.91,42.84c-6.62,4.54-12.57,4.53-19,.18C254,37.59,261.3,37.45,267.91,42.84Z" transform="translate(-239.73 -11.59)"/><path class="cls-2" d="M259.24,39.55h-2c-2.15,0-6.6-3.72-6.6-5.56V24.31c0-1.82,1.71-3.3,3.89-3.3h7.61a3.63,3.63,0,0,1,3.89,3.3V34C266.05,35.83,261.39,39.55,259.24,39.55Z" transform="translate(-239.73 -11.59)"/><path d="M250.62,37.27l2.67,2.28L249,43l-1.4-.45-1-2.23S249.85,38.91,250.62,37.27Z" transform="translate(-239.73 -11.59)"/><polygon points="26.32 25.22 22.85 27.86 28.18 31.25 30.17 28.75 27.43 27.28 26.32 25.22"/><path d="M337.12,91.25c-10-.13-18.76,8.57-18.76,18.72v0a18.65,18.65,0,0,0,18.87,18.41,18.44,18.44,0,0,0,18.21-18.53A18.82,18.82,0,0,0,337.12,91.25Zm10.76,29.27a12.44,12.44,0,0,1-6.28,4.25,11.58,11.58,0,0,1-11.13-.61,12.34,12.34,0,0,1-5.58-4.64,12,12,0,0,1-3.77-8.65,11.73,11.73,0,0,1,.39-2.91,11.86,11.86,0,0,1,1.87-5.65,12.31,12.31,0,0,1,9.94-7.88,11.46,11.46,0,0,1,4-.74,11.91,11.91,0,0,1,7.35,2.59,12.28,12.28,0,0,1,7.27,10,11.59,11.59,0,0,1,.95,4.58A12.14,12.14,0,0,1,347.88,120.52Z" transform="translate(-239.73 -11.59)"/><path class="cls-1" d="M337.18,100.13c-8.58,0-9.38,5.59-8,14.93.5,3.49-.85,3-2.12,4.13-1.82,1.57-2.8.59-3.83-1.06A16.1,16.1,0,0,1,326.34,98a15.9,15.9,0,0,1,21.41.23c5.58,5.12,6.77,14.21,2.75,20.21-1,1.52-2.07,2.26-3.51.86-1.07-1.07-2.42-.23-2.36-4,.08-4.18,1-7.44.08-11.42C343.68,99.65,339.78,100.54,337.18,100.13Z" transform="translate(-239.73 -11.59)"/><path class="cls-1" d="M346.53,122.5c-6.61,4.54-12.56,4.53-18.95.18C332.63,117.25,339.93,117.11,346.53,122.5Z" transform="translate(-239.73 -11.59)"/><path class="cls-2" d="M337.87,119.21h-2c-2.15,0-6.6-3.72-6.6-5.56V104a3.61,3.61,0,0,1,3.89-3.31h7.61a3.63,3.63,0,0,1,3.89,3.31v9.67C344.68,115.49,340,119.21,337.87,119.21Z" transform="translate(-239.73 -11.59)"/><path d="M329.25,116.93l2.67,2.28-4.34,3.47-1.4-.45-.95-2.22S328.48,118.57,329.25,116.93Z" transform="translate(-239.73 -11.59)"/><polygon points="104.94 104.88 101.48 107.52 106.8 110.91 108.8 108.42 106.06 106.94 104.94 104.88"/></svg>