<svg width="75" height="76" viewBox="0 0 75 76" fill="none" xmlns="http://www.w3.org/2000/svg">
<g clip-path="url(#clip0_1111_809)">
<path d="M58.9587 37.6735C58.8964 49.6036 49.0396 59.4044 37.1109 59.391C25.1822 59.3776 15.3654 49.3441 15.4855 37.177C15.5966 25.3901 25.4935 15.5534 37.1776 15.6116C42.9736 15.6317 48.5243 17.9673 52.6089 22.1046C56.6935 26.2419 58.9776 31.8421 58.9587 37.6735Z" fill="black"/>
<path d="M23.4528 11.8494C23.4742 14.9506 22.2744 17.9341 20.1158 20.1478C17.9572 22.3616 15.0153 23.6255 11.9331 23.6632C5.3886 23.7124 -0.00444328 18.4117 2.74701e-06 11.93C0.00444877 5.44827 5.52197 -0.080626 11.8664 -0.000108012C14.9466 0.0819547 17.8751 1.36264 20.036 3.5726C22.1968 5.78255 23.4216 8.74952 23.4528 11.8494Z" fill="black"/>
<path d="M37.0978 71.2047C14.6409 70.9945 -1.06687 49.8362 5.0553 28.0382C5.17273 27.5811 5.32128 27.1327 5.49991 26.6962C5.81113 25.9715 5.78001 24.5759 6.91819 24.9964C8.05637 25.4168 7.15383 26.468 6.91819 27.233C1.2584 46.1636 11.5554 64.4099 30.4821 68.9413C36.2175 70.319 41.8506 69.8359 47.4126 68.0466C48.1862 67.8006 49.3111 66.9686 49.6712 67.9706C50.1425 69.3125 48.5686 69.2365 47.7905 69.5317C44.3226 70.7932 40.7658 71.1958 37.0978 71.2047Z" fill="black"/>
<path d="M70.6547 38.295C70.6947 41.6959 70.1145 45.0754 68.943 48.2658C68.6673 49.0083 68.6539 50.3727 67.5691 50.0551C66.382 49.6927 67.2535 48.6326 67.4935 47.8856C69.5698 41.4039 69.7744 34.9132 67.8048 28.3465C65.3626 20.1591 59.7885 13.2827 52.3081 9.22936C44.8277 5.17605 36.0536 4.27773 27.915 6.73194C26.9547 7.01823 25.3852 8.60623 24.8028 6.85273C24.416 5.69416 26.4212 5.56443 27.4037 5.26025C48.9447 -1.45406 70.7614 14.8553 70.6547 38.295Z" fill="black"/>
<path d="M37.2094 28.4231C36.6403 28.4231 36.0712 28.4231 35.5021 28.4231C30.2558 28.262 29.9846 27.931 32.1632 22.9702C33.208 20.6039 34.0527 17.4011 37.2094 17.4279C40.3661 17.4547 41.2508 20.5592 42.2512 22.9747C44.3853 28.1234 44.3008 28.1636 38.9256 28.3962C38.3565 28.4231 37.7874 28.3962 37.2183 28.3962L37.2094 28.4231Z" fill="#FDFDFD"/>
<path d="M36.9905 36.8015C35.5611 36.7231 34.1284 36.7321 32.7001 36.8283C30.2637 37.128 29.5345 36.1931 29.8324 33.791C30.317 29.8903 30.2148 29.9216 34.0117 29.9843C36.7762 30.0948 39.5448 30.044 42.3035 29.8322C43.7929 29.6801 44.1931 30.105 44.2153 31.3978C44.236 31.5893 44.2702 31.7792 44.3176 31.9659C45.1267 36.8059 45.1267 36.8059 40.4273 36.8015H36.9905Z" fill="#FCFCFC"/>
<path d="M43.5009 47.975C42.6384 51.1823 41.8069 54.4567 39.2549 56.8499C37.6855 58.3261 36.0938 57.8877 34.7644 56.4294C32.6392 54.1078 31.7589 51.1689 30.9853 48.2076C30.7452 47.2862 31.0698 46.7539 32.1102 46.7628C35.5336 46.7852 38.9526 46.7628 42.376 46.7628C43.1541 46.7762 43.701 46.9954 43.5009 47.975Z" fill="#FDFDFD"/>
<path d="M37.267 45.027C35.9332 45.027 34.5994 45.112 33.2656 45.0001C32.3053 44.9196 30.8514 45.9306 30.4646 44.6602C29.8911 42.7769 29.4954 40.7237 29.9667 38.7108C30.1178 38.0801 30.9137 38.2187 31.4694 38.2187C35.2797 38.2187 39.0899 38.2635 42.9002 38.1874C44.3362 38.1606 44.7897 38.7421 44.603 40.0662C44.5919 40.2584 44.5919 40.451 44.603 40.6432C44.4652 45.0896 44.4652 45.0851 40.1347 45.0091C39.1833 45.0091 38.2274 45.0091 37.2759 45.0091L37.267 45.027Z" fill="#FCFCFC"/>
<path d="M51.8298 38.2148H52.6879C57.9743 38.2148 58.0232 38.2998 56.4937 43.3903C56.3248 43.9361 56.0491 44.4594 55.9113 45.0096C55.2133 47.3626 54.1062 48.6911 51.4653 47.1971C50.4613 46.6433 49.3552 46.3023 48.2152 46.1951C46.1389 46.0027 45.6099 45.0812 45.7966 43.0146C46.2367 38.2238 46.1212 38.2148 51.8298 38.2148Z" fill="#FCFCFC"/>
<path d="M22.5359 36.7971C20.7575 36.4169 18.6812 37.6917 17.2318 36.0009C16.5471 35.2046 18.9168 28.204 19.846 27.381C20.3929 26.9023 20.8775 27.0947 21.4199 27.287C22.5803 27.6986 23.7808 28.0162 24.9011 28.5172C26.0971 29.0539 28.1912 28.5172 28.458 29.801C28.8448 31.796 28.3913 33.97 28.1734 36.0635C28.0756 36.9581 27.1908 36.7837 26.5551 36.7926C25.2035 36.8105 23.8697 36.7971 22.5359 36.7971Z" fill="#FCFCFC"/>
<path d="M51.7847 36.7963H51.2156C46.0626 36.7963 45.2223 35.7629 45.7425 30.5114C45.7385 30.2961 45.7815 30.0826 45.8685 29.8859C45.9554 29.6892 46.0842 29.5141 46.2457 29.3729C46.4072 29.2317 46.5976 29.1279 46.8033 29.0688C47.0091 29.0097 47.2252 28.9967 47.4365 29.0307C50.0107 29.0978 52.4871 25.8995 54.7101 27.8588C56.5953 29.5362 56.9332 32.6138 57.2844 35.2977C57.4311 36.4608 56.8754 36.8276 55.8039 36.7918C54.4701 36.747 53.1363 36.7918 51.8025 36.7918L51.7847 36.7963Z" fill="#FCFCFC"/>
<path d="M22.8248 38.2148H23.3984C28.3379 38.2148 28.2579 38.2148 28.6314 43.2427C28.7558 44.9828 28.4224 45.8909 26.5773 46.1503C25.1611 46.3231 23.7816 46.7233 22.4914 47.3357C20.5707 48.3064 19.4903 47.8501 18.8901 45.8551C18.7789 45.4928 18.5789 45.1573 18.4455 44.7994C16.058 38.5145 16.2492 38.2238 22.8248 38.2148Z" fill="#FDFDFD"/>
<path d="M41.293 57.2127C42.9873 54.7157 44.1832 51.9112 44.8142 48.9551C45.0943 47.555 45.7746 46.9914 47.1839 47.4924C49.1224 48.1768 52.3858 48.0874 52.6748 49.6977C53.0038 51.5675 50.2206 52.9497 48.4777 54.2112C46.3586 55.7803 43.8935 56.8102 41.293 57.2127Z" fill="#FCFCFC"/>
<path d="M33.1128 17.7314C31.4072 20.3942 30.1793 23.3375 29.4849 26.4274C29.2626 27.4562 28.7246 27.908 27.6754 27.6038C27.5864 27.577 27.4842 27.577 27.3953 27.5457C25.3857 26.83 22.06 26.9731 21.7177 25.2017C21.3887 23.5332 24.2253 21.9631 26.0126 20.7285C28.1389 19.2298 30.5602 18.2077 33.1128 17.7314Z" fill="#FCFCFC"/>
<path d="M53.2156 25.2824C51.1126 26.6825 48.8451 26.9688 46.7021 27.613C45.3372 28.0245 45.0616 27.0315 44.8615 26.101C44.2568 23.2784 43.1187 20.6884 41.3047 17.7764C46.4799 18.8634 50.1256 21.4489 53.2156 25.2824Z" fill="#FCFCFC"/>
<path d="M33.1753 57.2706C28.8096 56.3919 24.862 54.0675 21.9625 50.6682C21.2778 49.8988 21.2378 49.3754 22.3137 49.0488C24.1232 48.4942 25.9328 47.9484 27.7423 47.3848C29.1117 46.9599 29.3651 47.9753 29.5741 48.8923C30.2445 51.8866 31.466 54.7283 33.1753 57.2706Z" fill="#FCFCFC"/>
<path d="M11.9047 5.64563C6.48051 5.64563 6.00034 9.2242 6.84509 15.1467C7.15631 17.3834 6.28489 17.0926 5.51128 17.777C4.3642 18.779 3.73287 18.1527 3.09264 17.106C0.607311 13.1114 1.4565 7.40808 5.06223 4.26788C6.93156 2.58893 9.35716 1.67366 11.8628 1.7018C14.3685 1.72994 16.7732 2.69945 18.6048 4.41997C22.1349 7.64963 22.8863 13.4559 20.3432 17.2805C19.6985 18.2467 19.0316 18.7164 18.1202 17.8083C17.44 17.1329 16.5863 17.6652 16.6263 15.2496C16.6752 12.5657 17.2843 10.5125 16.6752 7.98513C16.0261 5.32356 13.5497 5.90955 11.9047 5.64563Z" fill="#FDFDFD"/>
<path d="M7.99246 10.9907C8.30368 9.91711 7.21886 8.06965 8.64159 7.48366C10.54 6.70532 12.7275 7.03634 14.7949 7.35841C14.9729 7.41165 15.1289 7.52152 15.2395 7.67154C16.9201 9.82316 14.7949 15.8709 12.1851 16.4435C10.0287 16.9132 7.99246 14.3545 7.99246 10.9907Z" fill="#FCFCFC"/>
<path d="M17.8207 19.8791C13.637 22.7733 9.87563 22.7733 5.81641 19.9954C9.03088 16.5465 13.6459 16.4526 17.8207 19.8791Z" fill="#FBFBFB"/>
<path d="M12.3427 17.7941H11.0889C9.75508 17.7941 6.91406 15.4188 6.91406 14.2558V8.09615C6.91406 6.93312 8.01669 5.98926 9.37273 5.98926H14.1878C15.5216 5.98926 16.6464 6.93312 16.6464 8.09615V14.2692C16.6464 15.4188 13.7032 17.7941 12.3427 17.7941Z" fill="white" stroke="black" stroke-width="2" stroke-miterlimit="10"/>
<path d="M74.9997 64.2046C75.0163 67.3026 73.8145 70.2815 71.6564 72.4914C69.4983 74.7013 66.559 75.9627 63.48 76.0005C56.931 76.0497 51.5424 70.7489 51.5469 64.2672C51.5513 57.7855 57.0644 52.2924 63.44 52.355C66.5155 52.4439 69.4373 53.7276 71.5924 55.9368C73.7476 58.1461 74.9688 61.1092 74.9997 64.2046Z" fill="black"/>
<path d="M63.4397 57.9998C58.0111 57.9998 57.5309 61.5783 58.3757 67.5009C58.6913 69.7375 57.8199 69.4467 57.0418 70.1311C55.8903 71.1331 55.2634 70.5069 54.6188 69.4601C52.1334 65.4656 52.9871 59.7622 56.5884 56.622C58.4572 54.9421 60.883 54.0262 63.389 54.0543C65.8949 54.0825 68.2998 55.0526 70.1309 56.7741C73.6611 60.0038 74.4169 65.81 71.8694 69.6346C71.2247 70.6008 70.5622 71.0705 69.6463 70.1624C68.9705 69.487 68.1169 70.0193 68.1569 67.6037C68.2014 64.9198 68.8149 62.8666 68.2014 60.3392C67.5745 57.6956 65.0936 58.2637 63.4397 57.9998Z" fill="#FDFDFD"/>
<path d="M59.5395 63.3452C59.8463 62.2716 58.7615 60.4241 60.1842 59.8381C62.0827 59.0598 64.2746 59.3908 66.3375 59.7129C66.5167 59.7637 66.6734 59.874 66.7821 60.026C68.4672 62.1776 66.3598 68.2255 63.7321 68.798C61.5714 69.2901 59.5395 66.709 59.5395 63.3452Z" fill="#FCFCFC"/>
<path d="M69.3675 72.2333C65.1794 75.1275 61.4225 75.1275 57.3633 72.3496C60.5733 68.8963 65.1883 68.8068 69.3675 72.2333Z" fill="#FBFBFB"/>
<path d="M63.8856 70.1486H62.6319C61.2758 70.1486 58.457 67.7733 58.457 66.6103V60.4506C58.457 59.2876 59.5552 58.3438 60.9157 58.3438H65.7263C67.0868 58.3438 68.1849 59.2876 68.1849 60.4506V66.6058C68.1894 67.7733 65.2461 70.1486 63.8856 70.1486Z" fill="white" stroke="black" stroke-width="2" stroke-miterlimit="10"/>
</g>
<defs>
<clipPath id="clip0_1111_809">
<rect width="75" height="76" fill="white"/>
</clipPath>
</defs>
</svg>
