<svg id="Layer_1" data-name="Layer 1" xmlns="http://www.w3.org/2000/svg" viewBox="0 0 156.75 146.53"><defs><style>.cls-1{fill:none;stroke:#000;stroke-miterlimit:10;}</style></defs><path d="M216.55,45.54a40,40,0,0,1,11.12,7.58c.67.66,1.48,1.5,2.42.52s0-1.74-.6-2.41a16.56,16.56,0,0,0-1.59-1.43C217.45,41.25,205.5,38,192.07,39.46c-26,2.83-42.51,26.32-36.14,51.65,2.65,10.56,8.35,19.52,14.16,28.5,6.19,9.58,12.4,19.21,11.22,31.49,0,.08,0,.15,0,.23a3.79,3.79,0,0,0,3.5,4.06c3.16.26,3.64,1.72,3.51,4.49-.2,4.17,1.52,5.75,5.75,5.88,1.9.08,3.8,0,5.7,0,7,0,7.78-.7,8.07-7.55.06-1.4,0-2.43,2-2.5,3.64-.14,5.24-2.38,5-6a29.67,29.67,0,0,1,2.23-13.9c3-7.26,7.34-13.79,11.57-20.38.53-.82,1.77-1.76.46-2.71-1.53-1.13-2.06.53-2.63,1.41-4,6.13-8,12.29-11,19-1.21,2.75-1,6.87-3.63,8.07s-6.3.17-9.49.37c-2.3.14-3.19-.52-3.08-2.94.18-3.91.05-7.85.05-11.77,0-4.16,0-8.33-.07-12.41,0-1.42.28-2.4,1.93-2.14,3.23.5,4.28-1,3.89-4-.13-1-.42-2.4.95-2.7,1.11-.25,1.28,1.2,1.94,1.81,1.14,1.07,1.56,3.69,4,1.92,2.79-2,5.55-4.07,8.34-6.08,1-.71.95-1.39.39-2.42-.76-1.4-3.12-2.72-2.16-4.1,1.21-1.72,3.09.43,4.72.67,1,.14,1.77,0,2-.95S224.58,95.24,224,95c-1.44-.55-3-.82-4.37-1.46-1.84-.87-2.54.3-3.46,1.47s-1.76,2.38-.32,3.67c2.81,2.54,1.28,4.1-1.14,5.53a7.82,7.82,0,0,0-1.73,1.24c-1.56,1.64-2.77,1.41-3.77-.57-.91-1.81-1.92-2.53-4.23-1.81s-2.69,2.05-2.42,4c.35,2.37-.79,2.91-2.84,2.64a8.44,8.44,0,0,0-2.13,0c-2.89.37-4.9-.12-4.19-3.78.37-1.92-1-2.28-2.47-2.77s-2.76-.81-3.54,1c-1.39,3.17-3.19,2.73-5.28.71a10,10,0,0,0-2.29-1.69c-1.81-.92-1.6-2-.46-3.29s2.24-2.45.76-4.6S177,93,175,94s-2.51,0-3-1.54A22.52,22.52,0,0,0,171,89.1c-1.14-2.32-.5-3.49,2-3.92,1.9-.32,2.58-1.47,2.55-3.53s-.74-2.94-2.47-3.22c-2.8-.44-3.17-1.85-2-4.19a12.67,12.67,0,0,0,.91-3.06c.43-2,1.36-2.46,3.24-1.55,1.61.79,3.14,1.16,4.56-.87s1-3.43-.4-4.89-1.35-2.56.61-3.53a12,12,0,0,0,2.85-2.11c1.68-1.64,3-1.56,4.05.6.93,1.9,2.1,2.3,4.31,1.62s2.28-2,2.21-3.75c0-.8-.06-2.18.3-2.33,2.47-1,5.12-.55,7.67-.36,2,.15,1.1,2.1,1.06,3.17-.07,1.92.72,2.77,2.46,3.23,1.43.38,2.8,1,3.63-.79,1.49-3.36,3.4-2.7,5.54-.67a10.28,10.28,0,0,0,2,1.45c1.66.89,2,1.9.61,3.31-1.56,1.58-2,3.05-.41,5.2,1.69,2.33,3.39,1.2,5,.57,1.38-.56,4.32-.48,3.79-2.34-.73-2.56-3-.19-4.55-.12-.74,0-1.54.93-2.14-.12-.44-.75.19-1.3.55-1.9,2.45-4,2.44-4-1.52-6.8A35.88,35.88,0,0,1,214,55.62c-2.57-2.38-4.74-2.83-6.46.91-.31.65-.75,1.7-1.82,1.31A1.53,1.53,0,0,1,205,56c.9-4.46-1.46-5.33-5.19-4.83a24.56,24.56,0,0,1-3.21,0c-5,0-5,0-5.5,4.83-.07.7,0,1.51-.77,1.81s-1.21-.52-1.66-1c-3.22-3.57-3.22-3.57-7.17-.75a21.55,21.55,0,0,1-2.59,1.87c-3.52,1.83-5.19,4-1.63,7.36a1.25,1.25,0,0,1,.4,1.59c-.47.86-1.13.4-1.81.23-4.72-1.17-4.72-1.17-6.26,3.66a32,32,0,0,1-1.21,3.7c-1.46,3.1-1.54,5.43,2.69,6,.78.09,1.75.32,1.75,1.4,0,.85-.9,1.12-1.54,1.21-4.18.55-4.51,2.77-2.89,6.1a14.72,14.72,0,0,1,1.35,4c.6,3.69,2.2,5.32,5.92,3.32.62-.32,1.38-.7,1.94,0s.2,1.38-.35,1.88c-3.54,3.27-1.76,5.3,1.52,7.14a22.26,22.26,0,0,1,4,2.92c2.14,2,3.78,2.06,5.27-.74.44-.84.87-2.34,2.19-2s.94,1.8.83,2.78c-.34,2.83.49,4.37,3.63,3.89,1.41-.21,2.15.24,2.15,1.92q-.07,12.64,0,25.33c0,1.53-.51,2.12-2.07,2.08-3-.11-5.94-.15-8.91,0a2.54,2.54,0,0,1-3-2.17,66.53,66.53,0,0,0-7.73-16.7c-4.13-6.79-9-13.13-12.35-20.35-6.52-13.76-8.57-27.63-.48-41.52C172.51,43.38,197.09,36.48,216.55,45.54ZM202.75,163a2.06,2.06,0,0,1-.26,0,3.51,3.51,0,0,1-.66.14c-2.14.24-4.27-.19-6.41-.23a3.87,3.87,0,0,1-.49-.05,2.66,2.66,0,0,1-1.34.34,2.54,2.54,0,0,1-2.61-2.55,2.85,2.85,0,0,1,0-1,2.72,2.72,0,0,1,2.31-4.06,2.65,2.65,0,0,1,1.27.31l.1,0a23.36,23.36,0,0,1,4.18-.17A37.4,37.4,0,0,0,203,156a2.72,2.72,0,0,1,2.32,4A2.6,2.6,0,0,1,202.75,163Zm-16.43-19.18a2.72,2.72,0,0,1,.89.14,2.77,2.77,0,0,1,.89-.14c2.58,0,5.15.33,7.73.5a2.82,2.82,0,0,1,.74-.1c4.08,0,8.16-.15,12.24-.22a2.68,2.68,0,0,1,3.18,4,4.53,4.53,0,0,1,0,3.09,2.51,2.51,0,0,1-2,2.15,2.89,2.89,0,0,1-1,.18c-3.54,0-7.08-.28-10.62-.46-.67,0-1.41-.1-2.17-.17a2.45,2.45,0,0,1-.71.11h-3.66a2.69,2.69,0,0,1-1-.18,8.49,8.49,0,0,0-1.58.37,2.31,2.31,0,0,1-2-.11,2.72,2.72,0,0,1-.72.1A2.62,2.62,0,0,1,184,150v-.07a3,3,0,0,1,.25-1.67C183.11,146.63,183.81,143.84,186.32,143.84Z" transform="translate(-102.22 -19.26)"/><path d="M145.56,63.91c-4.67,0-4.67,0-4.94,4.7a9.47,9.47,0,0,1-.09,1.06c-.6,6.31-1.91,7.66-8.08,8.65A2.42,2.42,0,0,1,130,77.25a55.1,55.1,0,0,1-4.16-4.87c-1.7-2.42-3.17-2.66-5.55-.65-1.81,1.53-2.44,2.63-.87,4.54a15.84,15.84,0,0,1,1.3,2.12c3.62,6.19,3.57,6.55-1.15,11.75a2.54,2.54,0,0,1-2.86.69,38.21,38.21,0,0,1-6.21-1.46c-3-1.25-4,0-4.69,2.67-.56,2.07-.91,3.63,1.82,4.12a9.86,9.86,0,0,1,2,.83c7,3,7,3,6.33,10.34a2.41,2.41,0,0,1-1.81,2.31c-1.88.73-3.73,1.52-5.58,2.32-3.33,1.45-4,3.87-1.88,6.92a1.77,1.77,0,0,0,2.16.66,23.46,23.46,0,0,0,3.8-.85c4.13-1.66,7.13-1.21,9.54,3.19,1.2,2.19,1.77,3.6.23,5.62-.93,1.21-1.46,2.75-2.41,3.91-2.24,2.63-1.64,4.31,1.2,6,1.71,1,2.74,1.48,3.92-.48.61-1,1.71-1.7,2.3-2.71,2.22-3.75,4.92-4.51,9.06-2.72,2.37,1,3.86,1.74,3.69,4.52-.09,1.4.53,2.86.37,4.23-.43,3.72,1.17,4.63,4.65,4.38a2.87,2.87,0,0,0,3-2.42,10.66,10.66,0,0,0,.68-4.06c-1-6.42,4.23-6.24,7.79-7.86,1.21-.53,2,.16,2.75,1a56.69,56.69,0,0,1,4,4.59c1.73,2.57,3.17,2.9,5.77.79,2-1.59,2.18-2.53.78-4.45a60.8,60.8,0,0,1-3.68-6.09c-.41-.74-1.37-1.63-.16-2.45,1.39-.94,1.87.36,2.42,1.21,1.81,2.93,3.55,5.88,5.31,8.84.44.73.89,1.71.15,2.29q-3.75,2.94-7.75,5.59c-.82.54-1.51-.36-2.05-1-1.48-1.7-2.93-3.44-4.44-5.11-1.29-1.43-2.21-2.92-4.93-1.92-2.54.94-3.22,2.32-3.29,4.59,0,.24,0,.48-.06.71-.77,8.85-1.76,9.6-10.82,8.32-1.39-.19-2.12-.7-2.2-2.2-.13-2.49-.6-5-.6-7.46,0-2.1-.64-3.2-2.74-3.78-1.93-.53-3.48-1.06-4.87,1.06-1.16,1.78-2.9,3.17-4.1,4.91-1.64,2.42-3,2.15-5.21.52-6.32-4.79-6.5-4.76-2.27-11.43,1.67-2.65,2.71-4.78,0-7.38-1-1-1.74-1.31-3-.92-1.58.48-3.22.77-4.83,1.14-6.43,1.47-5,1.56-7.07-3.92a32.61,32.61,0,0,0-1-3.39c-.91-1.76-.21-2.64,1.36-3.29,2.18-.91,4.32-1.94,6.54-2.74,1.94-.7,3-1.52,3-4s-.8-3.74-3.11-4.23a5.64,5.64,0,0,1-1-.48c-8.46-3.57-8.36-3.54-4.76-12.08a2.25,2.25,0,0,1,3-1.56A50.42,50.42,0,0,1,114,87.54c2.42.87,3.9.56,5.64-1.7s.44-3.62-.48-5.31c-.05-.11-.11-.2-.17-.31-4.7-7.77-4.67-7.73,3-12.64,1.53-1,2.49-.9,3.59.5,1.32,1.67,2.86,3.18,4.18,4.83s2.53,2.87,5.28,1.92,2.77-2.56,2.89-4.77c.49-8.64.54-8.64,9.1-8.63.48,0,1,0,1.43,0,1,.09,2.42-.26,2.3,1.39-.09,1.3-1.33,1.08-2.25,1.1S146.52,63.91,145.56,63.91Z" transform="translate(-102.22 -19.26)"/><path d="M198.22,65.58h0A16.07,16.07,0,1,0,214.09,81.8c0-.06,0-.12,0-.18A16,16,0,0,0,198.22,65.58ZM209,89.6a13.17,13.17,0,0,1-10.6,5.78,12.31,12.31,0,0,1-5.39-1.24,12.62,12.62,0,0,1-4.25-2.87,13.52,13.52,0,0,1-4.44-9.51,11.75,11.75,0,0,1,3.91-9.05A13.07,13.07,0,0,1,198,68.1a12.2,12.2,0,0,1,9.07,4,13.53,13.53,0,0,1,4.7,9.74A11.46,11.46,0,0,1,209,89.6Z" transform="translate(-102.22 -19.26)"/><path d="M255.55,105.19c-2.21-1.12-2.32-2.56-2.28-4.54q.14-6.59,0-13.17c-.08-4.16-2.69-7-6.85-7.06-7.82-.12-15.64,0-23.46,0-1,0-2.47-.3-2.51,1.21-.06,1.83,1.59,1.43,2.66,1.43,3.8,0,7.59,0,11.38,0s7.28,0,11,0,5.17,1.42,5.28,5.12c.12,4.39,0,8.78.09,13.17,0,1.68-.23,2.75-2,3.58a6.88,6.88,0,0,0-4.08,6.5c.06,3,3.69,6.09,6.71,6.36a7,7,0,0,0,7.13-4.75A6.24,6.24,0,0,0,255.55,105.19ZM252,115c-5.11,0-5.1-7.92,0-7.92S257.07,115,252,115Z" transform="translate(-102.22 -19.26)"/><path d="M254.17,41.31c-3.15-1.06-6.3-.2-7.71,2.72-1.31,2.7-3.11,2.64-5.36,2.64-4.89,0-7.4,2.5-7.57,7.42-.07,2.37,0,4.75,0,7.13h-.06c0,2.49.05,5,0,7.49-.06,3-1.61,4.63-4.63,4.71-1.9.06-3.8,0-5.7.06-1,0-2.48-.28-2.53,1.25S222,76,223,76c1.78,0,3.56,0,5.35,0,5-.08,7.68-2.73,7.73-7.68.06-4.5.13-9,0-13.56-.08-2.72.77-4.91,3.45-5.47,2.48-.51,5.18-1.31,6.85,2.25,1.4,3,4.56,3.75,7.68,2.84a6.38,6.38,0,0,0,4.83-6.33A6.47,6.47,0,0,0,254.17,41.31Zm-1.9,10.83a4.22,4.22,0,0,1-1.16-.16c-2.81-.39-3.77-3.4-2.88-5.59a3.83,3.83,0,0,1,7.24-.49C256.92,48.23,255.86,52.14,252.27,52.14Z" transform="translate(-102.22 -19.26)"/><path d="M239.69,123.22c-4.23-2.29-3.54-5.53-3.54-8.93v-7.14c0-3.92,0-7.84,0-11.76-.07-3.77-2-6.74-5.18-7.15a69.29,69.29,0,0,0-8.89-.18c-.78,0-1.52.38-1.5,1.18s.74,1.16,1.53,1.16h4.63c5.63,0,6.79,1.2,6.79,6.95,0,6.54,0,13.07,0,19.61,0,2.31-.07,4.05-2.66,5.44-3.52,1.87-3.84,6.87-1.24,9.93l.05.06a7,7,0,0,0,9.82.55C242.32,130.4,242.87,124.92,239.69,123.22ZM234.91,132a4.15,4.15,0,1,1,3.82-4.14A3.76,3.76,0,0,1,234.91,132Z" transform="translate(-102.22 -19.26)"/><path d="M144.26,93.94a10.26,10.26,0,0,0-10.11,10.17v.33a10.13,10.13,0,0,0,10.15,10.12c6.4,0,11.15-4.4,11.13-10.29S150.58,93.91,144.26,93.94Zm1.14,17.69h0a8,8,0,0,1-1.33.12,6.45,6.45,0,0,1-4.92-2,7.66,7.66,0,0,1-1.23-9.15,6.36,6.36,0,0,1,6-3.68,7.5,7.5,0,0,1,1,.07,7.79,7.79,0,0,1,1-.07c6.58,0,8.36,7.41,5.37,11.46A6.35,6.35,0,0,1,145.4,111.63Z" transform="translate(-102.22 -19.26)"/><path d="M208.34,129.61a24.58,24.58,0,0,1,4.19-9.53c.49-.69,1.13-1.34,2.05-.74,1.14.75.53,1.56,0,2.38a23.37,23.37,0,0,0-3.65,8.33c-.2.88-.35,2-1.73,1.68C208,131.46,208.33,130.49,208.34,129.61Z" transform="translate(-102.22 -19.26)"/><path d="M187.73,129.48c0,1.17.25,2.12-.92,2.3s-1.31-.66-1.52-1.51a24.15,24.15,0,0,0-3.83-8.64c-.6-.84-.9-1.75.2-2.41s1.51.33,2,1A24.5,24.5,0,0,1,187.73,129.48Z" transform="translate(-102.22 -19.26)"/><path d="M158.39,32a7.28,7.28,0,0,1,1.33,1.09c2,2.63,3.89,5.3,5.79,8,.5.7.87,1.51-.13,2.1a1.35,1.35,0,0,1-1.86-.45c-2.09-2.83-4.16-5.67-6.16-8.56C156.66,33.15,157.21,32.46,158.39,32Z" transform="translate(-102.22 -19.26)"/><path d="M237.84,32.11c1.27.38,1.5,1.21.83,2.15q-3,4.32-6.18,8.54a1.33,1.33,0,0,1-1.85.37l0,0a1,1,0,0,1-.38-1.42l.09-.12Q233.58,37,237,32.53C237.12,32.28,237.56,32.23,237.84,32.11Z" transform="translate(-102.22 -19.26)"/><path d="M199.2,26.23c0,1.66,0,3.33,0,5,0,.78-.37,1.37-1.31,1.28a1.11,1.11,0,0,1-1-1.2V20.57c0-.82.5-1.39,1.3-1.3s1,.83,1,1.62C199.18,22.65,199.2,24.46,199.2,26.23Z" transform="translate(-102.22 -19.26)"/><path class="cls-1" d="M198.08,153.1c-3.55,0-7.11-.12-10.65,0-2.61.13-3.76-.84-3.62-3.45a24.26,24.26,0,0,0,0-3.19c-.14-1.75.4-2.56,2.36-2.53q11.9.14,23.77,0c1.85,0,2.61.6,2.42,2.47-.11,1.18,0,2.37,0,3.55,0,2.13-1,3.23-3.27,3.15-3.67-.12-7.33,0-11,0Z" transform="translate(-102.22 -19.26)"/><path class="cls-1" d="M198.22,155.82h3.19c2.26-.08,4.33-.51,4.15,3.19-.15,3.37-1.39,4.39-4.52,4.11a39.92,39.92,0,0,0-6.74,0c-3.56.31-3.56-1.88-3.75-4.48-.23-2.93,1.33-3,3.41-2.84C195.37,155.89,196.79,155.82,198.22,155.82Z" transform="translate(-102.22 -19.26)"/><path class="cls-1" d="M198.26,68.16a13.55,13.55,0,1,1-13.72,13.37v-.08A13.48,13.48,0,0,1,198.2,68.16Z" transform="translate(-102.22 -19.26)"/><path class="cls-1" d="M252.28,106.68a4.27,4.27,0,0,0-4.57,4.3,4.06,4.06,0,0,0,4.26,4.23c2.64.07,3.95-1.64,4.39-4.11C256.13,108.54,255,106.84,252.28,106.68ZM252,115c-5.11,0-5.1-7.92,0-7.92S257.07,115,252,115Z" transform="translate(-102.22 -19.26)"/><path class="cls-1" d="M256.3,48.19a4,4,0,0,1-4.18,4c-2.5.06-4.14-1.58-4.41-4.15-.24-2.23,2.2-4.62,4.44-4.56A4.49,4.49,0,0,1,256.3,48.19Z" transform="translate(-102.22 -19.26)"/><path class="cls-1" d="M234.89,123.62a3.93,3.93,0,0,0-4.35,4.18,4.06,4.06,0,0,0,4.23,4.36c2.52.06,4.12-1.53,4.37-4.09C239,125.29,237.53,123.68,234.89,123.62Zm0,8.42a4.15,4.15,0,1,1,3.82-4.14A3.76,3.76,0,0,1,234.91,132Z" transform="translate(-102.22 -19.26)"/><path class="cls-1" d="M144.49,96.62c4.92,0,8.29,3.19,8.26,7.7s-3.42,7.62-8.35,7.67a8,8,0,0,1-7.8-7.95A7.84,7.84,0,0,1,144.49,96.62Z" transform="translate(-102.22 -19.26)"/></svg>