<svg width="69" height="65" viewBox="0 0 69 65" fill="none" xmlns="http://www.w3.org/2000/svg">
<g clip-path="url(#clip0_1140_515)">
<path d="M42.6493 47.6654C42.6493 49.3951 42.706 51.1285 42.6228 52.8544C42.5737 53.9288 42.967 54.2107 43.973 54.1498C45.3686 54.0621 46.9571 54.5308 48.1333 53.9898C49.3095 53.4488 49.1772 51.6429 49.7218 50.4275C51.0493 47.4597 52.7928 44.747 54.5553 42.0458C54.8087 41.6649 55.0432 40.9296 55.7126 41.4248C56.2799 41.8439 55.739 42.2592 55.5121 42.6211C53.6627 45.5242 51.7792 48.4045 50.4441 51.6048C49.6343 53.542 49.2996 55.6473 49.4684 57.7425C49.5856 59.3159 48.8822 60.3027 47.2899 60.3636C46.4125 60.3979 46.4427 60.8513 46.4163 61.4723C46.2952 64.4859 45.9359 64.8097 42.8914 64.8097C42.0593 64.8097 41.2273 64.8402 40.3952 64.8097C38.542 64.7488 37.7931 64.0478 37.8801 62.2152C37.9369 60.9923 37.7288 60.3446 36.3446 60.2341C36.1182 60.2167 35.8977 60.1525 35.6969 60.0456C35.4961 59.9387 35.3193 59.7913 35.1774 59.6127C35.0355 59.434 34.9316 59.2279 34.8722 59.0071C34.8127 58.7863 34.799 58.5556 34.8318 58.3292C35.3461 52.9154 32.6268 48.6636 29.9151 44.4422C27.3736 40.4838 24.8774 36.533 23.7163 31.8697C20.9289 20.703 28.1489 10.344 39.5367 9.09818C45.414 8.45432 50.6333 9.88301 55.2171 13.67C55.4631 13.8632 55.6956 14.0733 55.913 14.2986C56.1929 14.5958 56.59 14.9349 56.1664 15.354C55.7428 15.7731 55.41 15.4149 55.1036 15.1216C53.6767 13.7414 52.0301 12.612 50.2323 11.7803C41.7189 7.78378 30.9438 10.8279 26.4999 18.5504C22.9599 24.6805 23.8524 30.7915 26.7117 36.8606C28.2245 40.038 30.3273 42.8383 32.1276 45.8328C33.5307 48.1645 34.775 50.5571 35.5315 53.1973C35.7281 53.925 36.0837 54.1917 36.8401 54.1536C38.1373 54.0888 39.4383 54.1079 40.7394 54.1536C41.4201 54.1726 41.6471 53.9136 41.6433 53.2392C41.6433 49.5132 41.6168 45.7909 41.6433 42.0687C41.6433 41.3296 41.318 41.1277 40.7016 41.2229C39.3249 41.4325 38.9618 40.7543 39.1055 39.5085C39.1547 39.078 39.3173 38.4341 38.7273 38.2817C38.1373 38.1293 37.9709 38.7846 37.7705 39.1503C37.1199 40.3886 36.4013 40.339 35.4672 39.4818C34.928 38.9875 34.3355 38.5556 33.701 38.1941C32.2638 37.3788 31.4847 36.4834 33.0391 35.0471C33.2774 34.8224 33.4173 34.5137 33.1866 34.2166C32.9559 33.9194 32.6117 34.087 32.3432 34.2166C30.7093 35.0967 30.0134 34.3766 29.7487 32.7498C29.6375 32.1313 29.4388 31.5322 29.1587 30.9706C28.4477 29.5076 28.5952 28.5208 30.4219 28.2808C30.7018 28.2427 31.0875 28.1246 31.0951 27.7474C31.0951 27.2674 30.6677 27.1683 30.3387 27.1264C28.493 26.9017 28.5233 25.873 29.1587 24.5091C29.374 23.9766 29.5546 23.4307 29.6995 22.8746C30.3765 20.7525 30.3765 20.7449 32.4415 21.2593C32.7403 21.3354 33.0277 21.5374 33.2471 21.1564C33.3051 21.038 33.319 20.9025 33.2864 20.7746C33.2538 20.6467 33.1768 20.5348 33.0694 20.4592C31.5111 18.9695 32.2411 18.0171 33.7804 17.2132C34.1775 16.9664 34.5567 16.6914 34.915 16.3903C36.6396 15.1444 36.6396 15.1482 38.0503 16.7217C38.247 16.9427 38.4285 17.3199 38.7803 17.1675C39.132 17.0151 39.0828 16.6798 39.1131 16.356C39.3135 14.2186 39.3249 14.2186 41.5223 14.2224C41.9894 14.2567 42.4583 14.2567 42.9254 14.2224C44.5593 14.0015 45.5918 14.3863 45.1947 16.356C45.1423 16.5076 45.146 16.6731 45.205 16.8222C45.2641 16.9712 45.3745 17.0938 45.5161 17.1675C45.9813 17.3427 46.1742 16.8779 46.3066 16.5922C47.063 14.9425 48.0085 15.1406 49.1356 16.1883C49.609 16.5991 50.1066 16.9808 50.6257 17.3313C52.3617 18.5885 52.3654 18.5885 51.2951 20.3335C51.1325 20.5963 50.8602 20.844 51.0531 21.1716C51.3254 21.6364 51.6658 21.2402 51.991 21.225C52.6794 21.1907 53.6627 20.1468 53.9842 21.2783C54.2149 22.0974 52.9365 22.0593 52.3238 22.307C51.6279 22.5851 50.8867 23.0689 50.1454 22.0555C49.457 21.1069 49.6423 20.4706 50.3269 19.7696C50.9169 19.1524 50.7883 18.7028 50.0697 18.3142C49.7495 18.1391 49.4532 17.9226 49.1885 17.6704C48.2506 16.7789 47.4147 16.4893 46.7604 17.9675C46.3822 18.7752 45.7998 18.4819 45.1833 18.318C44.4269 18.1123 44.0752 17.7389 44.1054 16.8893C44.1243 16.4207 44.529 15.5597 43.6402 15.4949C42.5056 15.4149 41.371 15.213 40.2817 15.6549C40.1267 15.7197 40.138 16.3293 40.1532 16.6798C40.1834 17.4418 40.1532 18.0361 39.1849 18.3333C38.2167 18.6304 37.7062 18.459 37.2939 17.6208C36.8287 16.6684 36.2576 16.6303 35.5239 17.3541C35.156 17.7263 34.7338 18.0398 34.272 18.2838C33.4173 18.7143 33.4173 19.1981 34.0186 19.842C34.62 20.4859 34.8204 21.103 34.1926 22.0022C33.5648 22.9013 32.9029 22.7299 32.1957 22.3832C31.375 21.9831 30.9665 22.1927 30.7812 23.0651C30.7017 23.5285 30.5658 23.9802 30.3765 24.41C29.8697 25.4463 30.0323 26.0673 31.2615 26.2654C32.0179 26.3835 32.3281 26.8216 32.3394 27.6827C32.3507 28.5437 32.0595 29.0999 31.2275 29.2409C30.1155 29.4276 29.8357 29.9419 30.3349 30.9706C30.5238 31.443 30.6756 31.9296 30.7888 32.4259C30.993 33.0965 31.2577 33.5689 32.0974 33.1003C32.937 32.6317 33.6102 32.6203 34.3061 33.6222C35.002 34.6242 34.4725 35.0662 33.9733 35.6453C33.474 36.2244 33.3833 36.693 34.1775 37.1006C34.5455 37.2963 34.8821 37.5468 35.1759 37.8436C36.095 38.7351 36.8854 38.9294 37.4906 37.5312C37.831 36.7501 38.3907 36.8949 39.0412 37.1083C39.6917 37.3216 40.2855 37.4893 40.1229 38.3274C39.809 39.9428 40.6902 40.16 41.9534 39.9961C42.2634 39.9542 42.5776 39.9542 42.8876 39.9961C43.7877 40.1181 44.287 39.8818 44.1319 38.8303C44.0109 37.996 44.1773 37.4092 45.1795 37.0892C46.1818 36.7692 46.6356 37.0892 47.0289 37.8893C47.4639 38.7617 47.9972 38.8608 48.6817 38.1369C48.9094 37.9221 49.1636 37.7377 49.4381 37.5883C50.5047 36.9597 51.1665 36.2739 49.9374 35.1538C49.3058 34.5823 49.684 34.0528 50.0735 33.5346C50.4631 33.0165 50.7883 32.506 51.5863 32.8831C52.1915 33.1689 52.8685 33.287 53.4774 33.5308C53.7572 33.6375 54.1165 33.8318 54.0182 34.1937C53.9199 34.5557 53.553 34.6776 53.137 34.6128C52.426 34.5099 51.6015 33.5613 51.072 34.3233C50.6522 34.929 51.6847 35.5081 52.0175 36.1291C52.2633 36.5787 52.2709 36.8911 51.8435 37.1959C50.6257 38.0836 49.4192 38.9941 48.1976 39.8628C47.1197 40.6248 46.9344 39.4818 46.4352 39.0132C46.1477 38.7427 46.057 38.1103 45.588 38.2169C44.9866 38.3503 45.1152 38.9789 45.1682 39.4094C45.3384 40.7581 44.8845 41.4058 43.4662 41.181C42.7439 41.0705 42.6115 41.501 42.6228 42.1258C42.6682 43.9927 42.6493 45.829 42.6493 47.6654Z" fill="black" stroke="black" stroke-miterlimit="10"/>
<path d="M19.164 19.8802C17.1179 19.8802 17.1179 19.8802 16.9969 21.9452C16.9969 22.1052 16.9742 22.2614 16.9591 22.4176C16.7057 25.195 16.1232 25.7969 13.4191 26.2275C13.2182 26.2617 13.0117 26.2351 12.8259 26.151C12.6401 26.0669 12.4832 25.9291 12.3752 25.755C11.728 25.0752 11.1194 24.359 10.5522 23.6101C9.79583 22.5319 9.16801 22.4328 8.12416 23.3243C7.33749 23.9949 7.05384 24.4673 7.74596 25.3245C7.96105 25.6202 8.15083 25.9337 8.31327 26.2618C9.9093 28.9896 9.87904 29.1458 7.81403 31.4393C7.66034 31.6128 7.45782 31.7348 7.23347 31.7893C7.00912 31.8437 6.77361 31.828 6.55838 31.7441C5.65069 31.5346 4.68626 31.4584 3.83908 31.1003C2.53426 30.5517 2.1069 31.1003 1.79299 32.2775C1.54337 33.1919 1.39208 33.8853 2.591 34.0948C2.88914 34.1893 3.17584 34.3171 3.44575 34.4758C6.50166 35.7826 6.47139 35.7788 6.22177 39.0476C6.2165 39.2809 6.13622 39.5062 5.99301 39.6896C5.8498 39.8731 5.65138 40.0047 5.42755 40.0649C4.60306 40.3887 3.79369 40.7392 2.98432 41.0935C1.52445 41.7298 1.25214 42.7965 2.15984 44.1414C2.25678 44.2959 2.40562 44.4101 2.57918 44.4632C2.75274 44.5164 2.93947 44.5049 3.10535 44.431C3.66946 44.35 4.22604 44.2226 4.76947 44.05C6.5773 43.3185 7.88968 43.5204 8.92974 45.4558C9.45545 46.4235 9.70884 47.0407 9.03563 47.9322C8.62717 48.4732 8.39648 49.1476 7.96532 49.6581C6.98955 50.8201 7.2505 51.563 8.50237 52.325C9.25878 52.7708 9.70127 52.9765 10.2194 52.1116C10.4842 51.6697 10.9758 51.3497 11.2255 50.9192C12.1937 49.2657 13.3774 48.9304 15.1891 49.7191C16.2216 50.1686 16.8721 50.481 16.8002 51.7116C16.7662 52.3288 17.0347 52.9727 16.9666 53.5822C16.7737 55.2243 17.4772 55.6205 19.0014 55.5139C19.8486 55.4529 20.1095 55.1329 20.3289 54.4395C20.5429 53.8679 20.6431 53.2594 20.6239 52.6488C20.1965 49.8219 22.4809 49.8981 24.0277 49.1933C24.5459 48.9571 24.9052 49.2581 25.2304 49.6505C25.8411 50.2928 26.418 50.9668 26.9588 51.6697C27.7153 52.8127 28.3469 52.9536 29.4853 52.0202C30.3438 51.3192 30.4384 50.9039 29.8257 50.0581C29.2397 49.2008 28.703 48.3104 28.2183 47.3912C28.033 47.0598 27.6169 46.6712 28.1464 46.3092C28.7553 45.894 28.9634 46.4692 29.1941 46.8426C29.9807 48.1303 30.7485 49.4371 31.52 50.7363C31.7129 51.0639 31.8982 51.4983 31.5881 51.7497C30.4875 52.6145 29.3567 53.4413 28.1842 54.2147C27.8249 54.4547 27.5262 54.0547 27.2879 53.7766C26.6374 53.0146 26.0058 52.2526 25.3439 51.5249C24.7804 50.8925 24.3719 50.2372 23.1881 50.6791C22.0762 51.0944 21.7774 51.704 21.7434 52.7022C21.7434 52.8088 21.7434 52.9117 21.7169 53.0146C21.3841 56.9159 20.9605 57.2473 16.9818 56.6835C16.3766 56.5997 16.0589 56.3749 16.0211 55.712C15.9644 54.6147 15.7526 53.5213 15.7564 52.424C15.7564 51.4983 15.4765 51.0144 14.5575 50.7553C13.7103 50.5229 13.0446 50.2905 12.4244 51.2278C11.9176 51.9897 11.1574 52.6222 10.6279 53.3918C9.90929 54.4433 9.29282 54.3404 8.35865 53.6204C5.59018 51.5097 5.51075 51.5211 7.36018 48.5761C8.0939 47.4141 8.55153 46.4731 7.36018 45.3225C6.91011 44.892 6.60376 44.7472 6.03267 44.9186C5.34055 45.132 4.62197 45.2577 3.91472 45.4215C1.10465 46.073 1.74004 46.1073 0.82478 43.6919C0.699044 43.1861 0.54627 42.6875 0.367142 42.1984C-0.0110646 41.4364 0.276375 41.0326 0.960929 40.7468C1.91779 40.3658 2.85196 39.8896 3.82396 39.5391C4.67492 39.2305 5.14767 38.8686 5.14011 37.7904C5.13254 36.7122 4.78838 36.1369 3.77857 35.9159C3.63446 35.8576 3.4953 35.7875 3.36253 35.7064C-0.328765 34.1291 -0.298512 34.1443 1.27861 30.3726C1.58496 29.6487 1.9783 29.5573 2.591 29.6906C3.51033 29.844 4.41871 30.0578 5.3103 30.3307C6.37306 30.7117 7.01222 30.5745 7.77998 29.5687C8.54774 28.5629 7.96909 27.9686 7.56819 27.2295L7.48878 27.0923C5.43512 23.6634 5.45023 23.6863 8.79736 21.5185C9.47057 21.0841 9.88661 21.1375 10.3707 21.7394C10.9494 22.4786 11.6226 23.1415 12.2012 23.8806C12.7799 24.6197 13.3056 25.1416 14.5121 24.7264C15.7186 24.3111 15.7223 23.5834 15.7791 22.6233C15.9946 18.8135 16.0173 18.8135 19.7616 18.8135C19.9696 18.8135 20.1814 18.8135 20.3856 18.8135C20.8243 18.8516 21.4446 18.703 21.3954 19.4269C21.3538 20.0022 20.813 19.8993 20.4121 19.9107C20.0112 19.9221 19.58 19.8802 19.164 19.8802Z" fill="black" stroke="black" stroke-miterlimit="10"/>
<path d="M49.155 27.7622C49.1428 29.1653 48.7175 30.5332 47.9328 31.6925C47.1482 32.8518 46.0396 33.7504 44.7474 34.2743C43.4553 34.7983 42.0378 34.924 40.6747 34.6356C39.3115 34.3472 38.0641 33.6577 37.0903 32.6543C36.1166 31.651 35.4605 30.3791 35.2052 28.9997C34.9498 27.6204 35.1067 26.1957 35.6559 24.9063C36.2052 23.6169 37.1221 22.5207 38.2904 21.7567C39.4587 20.9928 40.8259 20.5954 42.2186 20.6149C43.1413 20.6209 44.0536 20.811 44.9029 21.1742C45.7522 21.5375 46.5216 22.0667 47.1666 22.7313C47.8116 23.396 48.3194 24.1828 48.6607 25.0463C49.002 25.9098 49.17 26.8329 49.155 27.7622Z" fill="black" stroke="black" stroke-miterlimit="10"/>
<path d="M58.0839 28.3153C56.4236 28.3153 54.7632 28.3153 53.1029 28.3153C52.6339 28.3153 51.9153 28.4867 51.938 27.6829C51.9569 27.0161 52.5999 27.1457 53.0348 27.1419C56.4387 27.1419 59.8841 27.0885 63.3069 27.1419C65.1261 27.1762 66.2683 28.422 66.3061 30.2583C66.3439 32.1937 66.3439 34.1291 66.3061 36.0646C66.3061 36.937 66.3401 37.5885 67.3008 38.0647C67.9139 38.3723 68.3908 38.8996 68.6378 39.5432C68.8848 40.1867 68.8841 40.9001 68.6358 41.5431C68.424 42.1935 68.001 42.7532 67.435 43.1319C66.869 43.5107 66.1929 43.6864 65.5156 43.6309C64.1806 43.5128 62.5997 42.1375 62.5808 40.8307C62.5634 40.2283 62.7238 39.6342 63.0415 39.1236C63.3592 38.613 63.8201 38.2087 64.3659 37.9619C65.1488 37.5999 65.2736 37.1275 65.2585 36.3884C65.2206 34.453 65.2585 32.5138 65.2169 30.5784C65.1715 28.9439 64.5285 28.342 62.906 28.3191C61.2835 28.2963 59.695 28.3153 58.0839 28.3153Z" fill="black" stroke="black" stroke-miterlimit="10"/>
<path d="M57.6656 18.7097C57.6656 17.662 57.6354 16.6105 57.6656 15.5666C57.7413 13.395 58.8419 12.3092 60.9825 12.2939C61.9621 12.2939 62.7525 12.3206 63.3274 11.1281C63.9439 9.8442 65.3243 9.46702 66.701 9.92801C67.3376 10.105 67.893 10.5002 68.2713 11.0455C68.6497 11.5907 68.8273 12.2519 68.7736 12.9149C68.7876 13.5534 68.5861 14.1777 68.2021 14.6857C67.818 15.1937 67.2741 15.5553 66.6594 15.7114C65.2941 16.0924 63.9136 15.7876 63.2933 14.4541C62.5672 12.8845 61.3834 13.2388 60.298 13.4636C59.1255 13.7074 58.7549 14.6751 58.7851 15.8714C58.8419 17.8639 58.8116 19.8565 58.7851 21.8491C58.7624 24.0359 57.5824 25.2055 55.3813 25.2398C54.6022 25.2398 53.8231 25.2398 53.044 25.2398C52.5977 25.2398 51.9623 25.3427 51.985 24.6684C52.0077 23.994 52.6657 24.1426 53.0969 24.1197C53.9252 24.0778 54.7572 24.1197 55.5893 24.0931C56.9168 24.0626 57.59 23.3311 57.6127 22.0167C57.6354 20.9195 57.6127 19.8146 57.6127 18.7135L57.6656 18.7097Z" fill="black" stroke="black" stroke-miterlimit="10"/>
<path d="M58.8114 38.9441C58.8114 39.9918 58.8114 41.0395 58.8114 42.0872C58.8114 43.5921 58.5051 45.0284 60.3583 46.0266C61.7501 46.7886 61.4929 49.1926 60.2902 50.3127C59.9901 50.5831 59.6397 50.7909 59.2594 50.9242C58.8791 51.0574 58.4763 51.1134 58.0744 51.089C57.6724 51.0645 57.2793 50.9601 56.9176 50.7817C56.556 50.6034 56.233 50.3546 55.9673 50.0498C54.8327 48.7011 54.9726 46.4952 56.5119 45.6685C57.6465 45.0589 57.6844 44.2855 57.6768 43.2797C57.6541 40.3956 57.6768 37.5115 57.6579 34.6313C57.6579 32.0939 57.1473 31.5834 54.6852 31.5834C54.0082 31.5834 53.335 31.5834 52.658 31.5834C52.3138 31.5834 51.9999 31.4196 51.9886 31.0691C51.9772 30.7186 52.3063 30.5509 52.6466 30.5547C53.9429 30.498 55.2415 30.5235 56.5346 30.6309C57.9113 30.8138 58.7736 32.1206 58.8039 33.7817C58.8341 35.4733 58.8114 37.2144 58.8114 38.9441Z" fill="black" stroke="black" stroke-miterlimit="10"/>
<path d="M18.6063 42.2093C18.0117 42.2101 17.4231 42.0905 16.8754 41.8576C16.3276 41.6247 15.8319 41.2833 15.4177 40.8536C15.0035 40.4239 14.6793 39.9148 14.4643 39.3564C14.2493 38.798 14.1479 38.2018 14.1662 37.6031C14.173 36.4205 14.6398 35.2877 15.4664 34.4479C16.293 33.6081 17.4135 33.1283 18.5874 33.1113C21.3559 33.1113 23.4776 35.0734 23.4814 37.6832C23.4852 40.2929 21.4126 42.2169 18.6063 42.2093Z" fill="black" stroke="black" stroke-miterlimit="10"/>
<path d="M46.6357 48.8462C46.9482 47.3344 47.5746 45.9062 48.4737 44.6554C48.6855 44.3544 48.9692 44.0687 49.3701 44.3354C49.8693 44.6668 49.6046 45.025 49.3701 45.3793C48.6039 46.4889 48.0581 47.7373 47.7627 49.0558C47.6757 49.4368 47.6114 49.9435 47.0063 49.7987C46.4919 49.6616 46.6357 49.2349 46.6357 48.8462Z" fill="black" stroke="black" stroke-miterlimit="10"/>
<path d="M37.6195 48.8076C37.6195 49.322 37.7292 49.7449 37.2111 49.8211C36.6929 49.8973 36.64 49.5315 36.5492 49.1543C36.2459 47.7854 35.6765 46.4905 34.8737 45.3445C34.6014 44.9635 34.4955 44.5825 34.9607 44.2929C35.4259 44.0034 35.6188 44.4377 35.8268 44.712C36.7 45.9372 37.3105 47.3319 37.6195 48.8076V48.8076Z" fill="black" stroke="black" stroke-miterlimit="10"/>
<path d="M24.7773 5.81738C24.991 5.95173 25.1867 6.11305 25.3598 6.29742C26.217 7.4607 27.0617 8.6316 27.8937 9.81011C28.1131 10.1187 28.2719 10.4768 27.837 10.7359C27.7028 10.8182 27.5419 10.8439 27.389 10.8076C27.2361 10.7712 27.1036 10.6757 27.0201 10.5416C26.1086 9.28816 25.1971 8.03853 24.3272 6.76223C24.0209 6.31647 24.2592 6.00788 24.7773 5.81738Z" fill="black" stroke="black" stroke-miterlimit="10"/>
<path d="M59.5345 5.85547C60.0943 6.0231 60.1964 6.38123 59.9127 6.80413C59.0277 8.07408 58.1263 9.33006 57.2085 10.5721C57.1639 10.6367 57.1071 10.6919 57.0413 10.7344C56.9755 10.7768 56.902 10.8058 56.825 10.8196C56.7481 10.8334 56.6692 10.8318 56.5929 10.8148C56.5165 10.7978 56.4443 10.7658 56.3803 10.7207C56.3235 10.6878 56.2744 10.643 56.2365 10.5893C56.1985 10.5356 56.1725 10.4742 56.1603 10.4095C56.1481 10.3447 56.1499 10.278 56.1657 10.214C56.1815 10.15 56.2108 10.0902 56.2517 10.0387C57.2073 8.69255 58.1742 7.3591 59.1525 6.03835C59.2357 5.93167 59.4286 5.90881 59.5345 5.85547Z" fill="black" stroke="black" stroke-miterlimit="10"/>
<path d="M42.6385 3.26506C42.6385 3.99656 42.6385 4.73186 42.6385 5.46335C42.6385 5.80624 42.4759 6.06912 42.0674 6.02721C42.003 6.02108 41.9405 6.00199 41.8835 5.97109C41.8265 5.9402 41.7763 5.89811 41.7358 5.84732C41.6952 5.79653 41.6652 5.73807 41.6475 5.67539C41.6297 5.61271 41.6246 5.54709 41.6325 5.4824C41.6325 3.9102 41.6325 2.33799 41.6325 0.765792C41.6325 0.384806 41.8519 0.152404 42.2036 0.194313C42.5553 0.236221 42.6537 0.575303 42.6499 0.90676C42.6272 1.69159 42.6348 2.47642 42.6385 3.26506Z" fill="black" stroke="black" stroke-miterlimit="10"/>
<path d="M42.1359 59.2051C40.5815 59.2051 39.027 59.1479 37.4764 59.2051C36.3418 59.2584 35.8312 58.8241 35.8917 57.6811C35.922 57.2117 35.922 56.7409 35.8917 56.2715C35.8312 55.5095 36.0694 55.1285 36.928 55.1514C40.3923 55.1933 43.8643 55.1895 47.3324 55.1514C48.1418 55.1514 48.4671 55.4181 48.3952 56.241C48.346 56.7591 48.3952 57.2849 48.3952 57.8068C48.3952 58.7441 47.9792 59.2279 46.9618 59.1936C45.3582 59.1403 43.7546 59.1936 42.151 59.1936L42.1359 59.2051Z" fill="#FDFDFD"/>
<path d="M42.207 60.4016C42.6722 60.4016 43.1374 60.4016 43.6063 60.4016C44.5935 60.3673 45.4974 60.1806 45.4217 61.8113C45.3499 63.2971 44.8128 63.7467 43.4437 63.6248C42.4621 63.5409 41.4753 63.5409 40.4937 63.6248C38.9317 63.7619 38.9317 62.7942 38.8447 61.6474C38.7502 60.3559 39.4309 60.333 40.3575 60.394C40.9627 60.4359 41.5829 60.4016 42.207 60.4016Z" fill="#FDFDFD"/>
<path d="M42.2293 21.7579C43.4021 21.7746 44.5436 22.1416 45.5092 22.8122C46.4748 23.4828 47.2212 24.427 47.6539 25.5252C48.0865 26.6234 48.1859 27.8263 47.9395 28.9814C47.6931 30.1366 47.112 31.1921 46.2698 32.0144C45.4275 32.8366 44.362 33.3887 43.2082 33.6006C42.0543 33.8125 40.8639 33.6747 39.7878 33.2047C38.7117 32.7348 37.7982 31.9537 37.1631 30.9604C36.5279 29.9672 36.1995 28.8064 36.2196 27.6251C36.2295 26.8416 36.393 26.0679 36.7008 25.3483C37.0085 24.6287 37.4545 23.9776 38.0131 23.4323C38.5716 22.887 39.2316 22.4584 39.9552 22.171C40.6788 21.8837 41.4517 21.7432 42.2293 21.7579V21.7579Z" fill="#FEFEFE"/>
<path d="M67.657 40.6857C67.4679 41.7716 66.9006 42.5259 65.7319 42.4954C64.5633 42.465 63.9317 41.7677 63.8674 40.6248C63.8636 40.3637 63.9137 40.1047 64.0146 39.8643C64.1154 39.6238 64.2649 39.4071 64.4534 39.2279C64.6419 39.0487 64.8654 38.9111 65.1096 38.8236C65.3538 38.7361 65.6134 38.7008 65.8719 38.7199C67.0594 38.8037 67.5549 39.558 67.657 40.6857Z" fill="#FBFBFC"/>
<path d="M67.6299 12.9458C67.6313 13.184 67.5843 13.42 67.4919 13.6392C67.3995 13.8585 67.2636 14.0564 67.0926 14.2208C66.9215 14.3853 66.7189 14.5128 66.4972 14.5956C66.2755 14.6784 66.0393 14.7146 65.8032 14.7022C64.6988 14.7288 63.9878 14.005 63.8706 12.8734C63.7647 11.8867 64.835 10.8352 65.8108 10.8618C66.7865 10.8885 67.6337 11.7495 67.6299 12.9458Z" fill="#FBFBFB"/>
<path d="M60.1206 48.1643C60.0147 49.3073 59.3113 50.0007 58.2069 49.9702C57.9562 49.9813 57.7061 49.9386 57.4731 49.8448C57.2401 49.7511 57.0295 49.6086 56.8553 49.4266C56.6811 49.2447 56.5473 49.0275 56.4628 48.7895C56.3783 48.5516 56.345 48.2982 56.3651 48.0462C56.3516 47.7954 56.3919 47.5446 56.483 47.3109C56.5742 47.0771 56.7142 46.8658 56.8935 46.6913C57.0729 46.5168 57.2873 46.3831 57.5224 46.2994C57.7575 46.2157 58.0077 46.1839 58.2561 46.2061C59.4285 46.2251 60.0412 46.9452 60.1206 48.1643Z" fill="#FBFBFC"/>
<path d="M18.6876 34.296C20.8396 34.3189 22.3146 35.7057 22.2995 37.6944C22.2844 39.6832 20.7867 41.0585 18.646 41.0776C17.7364 41.0576 16.8707 40.6796 16.2344 40.0244C15.5982 39.3692 15.242 38.489 15.2422 37.5725C15.2861 36.6841 15.6691 35.8472 16.3111 35.2366C16.9532 34.626 17.8047 34.289 18.6876 34.296Z" fill="#FEFEFE"/>
</g>
<defs>
<clipPath id="clip0_1140_515">
<rect width="69" height="65" fill="white"/>
</clipPath>
</defs>
</svg>
