<svg width="126" height="126" viewBox="0 0 126 126" fill="none" xmlns="http://www.w3.org/2000/svg">
<g clip-path="url(#clip0_1141_558)">
<path d="M126.001 62.9389C125.987 71.3331 124.306 79.6401 121.057 87.3745C117.808 95.109 113.056 102.116 107.078 107.985C101.101 113.854 94.0181 118.469 86.2439 121.558C78.4698 124.648 70.1602 126.15 61.8008 125.979C27.9039 125.449 -0.800815 97.2982 0.0170586 61.5722C0.792719 27.8009 28.2627 0.0157518 62.7559 -0.0107355C97.7292 -0.0266278 126.001 28.1611 126.001 62.9389Z" fill="#020202"/>
<path d="M2.40969 62.7695C2.0456 31.4403 27.4894 2.3785 62.563 2.30963C98.2539 2.26195 123.988 30.8099 123.64 63.7601C123.307 95.0946 98.2486 123.796 62.8849 123.69C27.12 123.59 1.90841 94.3582 2.40969 62.7695Z" fill="#FEFEFE"/>
<path d="M83.2056 65.0902C82.9734 67.2833 83.443 68.1468 85.6909 68.6607C90.9675 69.8844 94.5239 73.4284 95.843 78.8106C96.3232 80.7548 97.1147 81.3851 99.009 81.2368C100.064 81.1574 101.837 80.5641 101.753 82.5559C101.679 84.214 100.217 83.7796 99.1145 83.6631C97.3838 83.4776 96.3918 83.822 95.8853 85.9727C94.6928 91.0583 91.5532 94.7294 86.3346 96.0379C83.9971 96.6153 82.8046 97.5424 83.2478 100.101C83.3955 100.949 83.6172 102.257 82.1186 102.262C80.4459 102.262 80.81 100.875 80.8892 99.9263C81.0686 97.8603 80.7573 96.8643 78.2509 96.2551C73.2328 95.042 69.6078 91.641 68.41 86.4442C67.8823 84.1716 66.9642 83.5253 64.9169 83.8432C64.6583 83.8803 64.3892 83.8432 64.1307 83.8432C63.0754 83.9068 62.4844 83.5306 62.4844 82.3599C62.4844 81.1891 63.3022 81.062 64.0674 81.2315C67.017 81.8725 67.9773 80.2144 68.6685 77.7299C70.0299 72.8351 73.5125 69.8632 78.2772 68.7242C80.5356 68.1945 81.0897 67.2568 80.9155 65.1855C80.8311 64.2903 80.3879 62.7805 82.0553 62.7911C83.8968 62.7964 83.0631 64.3803 83.2056 65.0902Z" fill="#010101"/>
<path d="M78.2434 26.7366C77.283 26.8161 76.7659 26.8479 76.2541 26.9009C75.4731 26.9856 74.8294 26.7737 74.6711 25.9208C74.5497 25.1686 75.0932 24.8613 75.7264 24.6653C77.3885 24.1939 79.0454 23.6906 80.7128 23.2403C81.5623 23.0125 82.0689 23.5529 82.2958 24.2627C82.7529 25.6704 83.1299 27.103 83.425 28.5537C83.5622 29.3006 84.1057 30.3813 82.739 30.6727C81.5307 30.9375 81.3354 30.0157 81.0716 29.1576C80.9028 28.7828 80.6941 28.4276 80.449 28.0981C76.2277 34.2643 71.732 40.0173 66.4238 45.087C56.1186 54.9244 44.394 62.362 30.5429 66.1285C29.2184 66.494 26.997 67.8237 26.4799 65.7418C25.9892 63.787 28.5378 64.1526 29.7619 63.8029C46.8159 59.0352 60.3662 49.0442 71.6054 35.6099C73.5683 33.2631 75.3571 30.7733 77.2144 28.3365C77.5838 27.9762 77.8107 27.4889 78.2434 26.7366Z" fill="#030303"/>
<path d="M54.3929 85.4104C54.3929 90.2417 54.356 95.0677 54.4193 99.8936C54.4193 101.652 53.8917 102.473 52.0079 102.325C50.0889 102.214 48.165 102.214 46.2459 102.325C44.6629 102.383 44.0455 101.795 44.0508 100.206C44.0965 90.2893 44.0965 80.3725 44.0508 70.4557C44.0508 68.9459 44.6682 68.3738 46.0823 68.4691H46.3461C54.3877 68.1619 54.3877 68.1619 54.3877 76.2246L54.3929 85.4104Z" fill="#040404"/>
<path d="M38.4018 88.2928C38.4018 92.3188 38.349 96.3502 38.4018 100.376C38.4282 101.86 37.948 102.4 36.4495 102.32C34.3388 102.214 32.2651 102.257 30.1703 102.32C28.8512 102.352 28.276 101.849 28.2813 100.477C28.3129 92.1599 28.3129 83.8394 28.2813 75.5153C28.2813 74.3287 28.6718 73.6771 29.9276 73.7353C30.1861 73.7353 30.4552 73.7353 30.7085 73.7353C33.1357 73.8625 36.212 72.7394 37.8055 74.1697C39.3991 75.6001 38.2277 78.7997 38.3332 81.2154C38.4387 83.631 38.4018 85.9248 38.4018 88.2928Z" fill="#030303"/>
<path d="M75.5705 54.3046C75.5705 50.9672 75.6549 47.6245 75.5388 44.2924C75.4755 42.4171 76.2353 41.7868 77.9977 41.8291C87.237 42.0622 85.7543 40.2981 85.9126 49.4151C85.9601 52.3975 85.9759 55.3906 85.9126 58.3731C85.9126 59.1677 86.5774 60.6139 85.1211 60.6298C83.7703 60.6298 83.4748 59.3584 83.4801 58.1029C83.4801 54.5006 83.4801 50.8984 83.4801 47.2961C83.4801 44.2289 83.2268 44.0911 80.1981 44.2766C78.1402 44.3984 78.0874 45.7599 78.0874 47.1955C78.061 52.4929 78.0874 57.7374 78.0874 63.0084C78.1167 63.716 78.0867 64.4248 77.9977 65.1273C77.9855 65.3271 77.9327 65.5222 77.8426 65.7007C77.7525 65.8792 77.627 66.0374 77.4738 66.1654C77.3206 66.2934 77.1429 66.3886 76.9517 66.4451C76.7605 66.5016 76.5598 66.5183 76.3619 66.4941C75.1905 66.404 75.6654 65.4346 75.6602 64.8678C75.5493 61.3503 75.5705 57.8222 75.5705 54.3046Z" fill="#060606"/>
<path d="M67.6866 73.285C67.6866 69.3225 67.6496 65.9216 67.6866 62.5206C67.7129 61.0479 67.6549 59.9036 65.6603 60.0732C64.0246 60.2162 62.183 59.7394 62.2305 62.3987C62.3044 66.3294 61.6396 70.2602 62.2305 74.1962C62.286 74.6323 62.286 75.0738 62.2305 75.5099C62.0933 76.9244 62.4363 79.0963 60.5315 79.0168C58.9485 78.948 59.8719 76.8979 59.8455 75.8384C59.7242 70.6681 59.8455 65.4925 59.7664 60.3221C59.7347 58.1714 60.426 57.2655 62.7054 57.5834C64.441 57.7636 66.1891 57.7902 67.9293 57.6628C69.5123 57.6045 70.1349 58.325 70.1191 59.856C70.0874 62.9232 70.0663 65.9957 70.1191 69.0629C70.1982 70.7475 68.9846 71.6481 67.6866 73.285Z" fill="#060606"/>
<path d="M59.8203 85.6279C62.0629 85.9564 62.3742 87.5032 62.2264 88.9759C61.931 91.7836 62.39 94.57 62.2264 97.3565C62.1315 98.8504 62.2898 99.7774 64.0416 99.6397C65.6246 99.5179 67.6297 100.233 67.7352 97.5578C67.7827 95.8308 67.7352 94.1038 67.7352 92.2603C69.9356 93.7436 71.1386 99.5867 69.8142 101.541C69.181 102.479 60.5379 102.341 60.0525 101.34C59.8802 100.846 59.8172 100.32 59.8678 99.7986C59.8203 95.1422 59.8203 90.4857 59.8203 85.6279Z" fill="#070707"/>
<path d="M75.4799 100.731C75.6646 99.3482 75.2424 98.3363 76.6144 98.5059C77.7594 98.6542 78.3293 99.2369 78.1076 100.408C77.9705 101.102 78.2554 102.219 77.1262 102.188C75.8651 102.14 75.3691 101.276 75.4799 100.731Z" fill="#191919"/>
<path d="M93.9302 84.6053C93.8986 88.4301 88.1787 94.199 84.4324 94.3473C83.72 94.3738 83.1765 94.1831 83.0868 93.4521C82.9866 92.5939 82.8811 91.5609 83.9628 91.243C87.4875 90.1835 89.8092 88.0645 90.7854 84.4252C91.0703 83.3657 91.9674 83.2227 92.896 83.5193C93.4079 83.6941 94.1624 83.8001 93.9302 84.6053Z" fill="#FBFBFB"/>
<path d="M79.8241 94.3425C75.9036 94.1624 70.6481 88.9073 70.3263 85.1037C70.2524 84.2773 70.3263 83.8111 71.2286 83.5516C72.1309 83.292 73.0226 83.4086 73.2495 84.2085C74.2731 87.9167 76.5474 90.2264 80.2199 91.2859C81.2752 91.5931 81.1063 92.7003 81.0008 93.5373C81.0012 93.6783 80.9672 93.8173 80.9017 93.9421C80.8362 94.0669 80.7413 94.1737 80.6252 94.2531C80.5091 94.3326 80.3754 94.3823 80.2357 94.3978C80.0961 94.4134 79.9548 94.3944 79.8241 94.3425Z" fill="#FBFBFB"/>
<path d="M81.0063 72.0985C81.0379 73.1103 80.5999 73.6189 79.5816 73.9473C76.5 74.9485 74.3472 76.9457 73.4713 80.1824C73.1336 81.4326 72.379 81.814 71.0968 81.4061C69.8146 80.9982 70.205 80.0553 70.4425 79.2871C71.0045 77.2533 72.0852 75.4018 73.5778 73.9153C75.0704 72.4289 76.9233 71.359 78.9536 70.8112C80.067 70.4987 81.1065 70.3927 81.0063 72.0985Z" fill="#FBFBFB"/>
<path d="M93.883 80.1873C94.015 80.8071 93.8092 81.2733 93.1654 81.3263C92.3423 81.3845 91.1656 81.7554 90.8806 80.7276C89.8253 76.9135 87.3506 74.6886 83.6623 73.5496C82.8338 73.2953 82.8655 72.2994 83.1346 71.4783C83.3668 70.7737 83.8311 70.5989 84.5382 70.6625C88.3954 70.9962 93.6984 76.3784 93.883 80.1873Z" fill="#FBFBFB"/>
<path d="M82.9531 87.6307C83.0323 85.9832 86.1191 83.2921 87.5807 83.4352C88.4091 83.5146 88.7838 83.9649 88.4513 84.8602C88.1182 85.7591 87.6042 86.5795 86.9416 87.2703C86.2789 87.9611 85.4816 88.5076 84.5994 88.8757C83.2222 89.5114 82.9901 88.5366 82.9531 87.6307Z" fill="#F5F5F5"/>
<path d="M76.8897 83.4615C77.1799 83.5569 77.5176 83.6522 77.8395 83.7794C78.746 84.0929 79.5337 84.6801 80.0948 85.4606C80.6559 86.2411 80.9629 87.1767 80.9738 88.1392C81.0002 88.6689 80.768 89.1033 80.0187 89.0451C78.4938 88.9126 75.6497 86.1314 75.5916 84.627C75.56 83.737 75.9452 83.3238 76.8897 83.4615Z" fill="#F6F6F6"/>
<path d="M86.8208 81.3949C86.3497 81.2558 85.8977 81.0582 85.4752 80.8069C84.0294 79.7474 82.7947 78.4866 83.1694 76.5001C83.3118 75.7478 84.0558 75.8962 84.6837 76.1028C86.2667 76.6325 88.7995 79.5302 88.5831 80.6798C88.3826 81.7446 87.4856 81.1936 86.8208 81.3949Z" fill="#F6F6F6"/>
<path d="M81.0482 77.2899C81.101 79.0645 78.1831 81.6232 76.4418 81.3954C75.5659 81.2789 75.455 80.7385 75.6661 80.1134C75.9953 79.1716 76.53 78.3156 77.2311 77.608C77.9323 76.9004 78.7822 76.3591 79.7185 76.0238C80.8108 75.5841 81.0219 76.4264 81.0482 77.2899Z" fill="#F9F9F9"/>
<path d="M51.9683 85.4002C51.9683 89.5269 51.8891 93.6536 52.0052 97.7751C52.0474 99.4491 51.6147 100.249 49.8471 100.164C48.0794 100.079 46.354 100.281 46.2907 97.8068C46.259 96.6679 46.2907 95.5236 46.2907 94.3847C46.2907 87.3655 46.2906 80.3411 46.1851 73.3273C46.1482 71.2613 46.7761 70.4984 48.8867 70.615C50.7547 70.7209 52.1055 70.8269 52.0158 73.2955C51.8575 77.3269 51.9683 81.3635 51.9683 85.4002Z" fill="#FDFDFD"/>
<path d="M36.2205 88.1175C36.2205 91.296 36.1519 94.432 36.2205 97.584C36.2733 99.2792 35.962 100.233 33.9674 100.127C31.9729 100.021 30.4532 99.9467 30.4901 97.4092C30.5376 93.5527 30.4901 89.6908 30.4901 85.8342C30.4901 83.3762 30.5798 80.9182 30.4585 78.4655C30.3688 76.5796 30.9122 75.7797 32.949 75.8645C34.9858 75.9492 36.3683 76.0287 36.2258 78.6456C36.0886 81.7923 36.2205 84.9602 36.2205 88.1175Z" fill="#FDFDFD"/>
</g>
<defs>
<clipPath id="clip0_1141_558">
<rect width="126" height="126" fill="white"/>
</clipPath>
</defs>
</svg>
